<?xml version="1.0" encoding="utf-8" standalone="no"?>
<!DOCTYPE svg PUBLIC "-//W3C//DTD SVG 1.1//EN"
  "http://www.w3.org/Graphics/SVG/1.1/DTD/svg11.dtd">
<!-- Created with matplotlib (http://matplotlib.org/) -->
<svg height="567pt" version="1.1" viewBox="0 0 903 567" width="903pt" xmlns="http://www.w3.org/2000/svg" xmlns:xlink="http://www.w3.org/1999/xlink">
 <defs>
  <style type="text/css">
*{stroke-linecap:butt;stroke-linejoin:round;}
  </style>
 </defs>
 <g id="figure_1">
  <g id="patch_1">
   <path d="M 0 567.06775 
L 903.5365 567.06775 
L 903.5365 0 
L 0 0 
z
" style="fill:none;"/>
  </g>
  <g id="axes_1">
   <g id="patch_2">
    <path d="M 59.3365 524.3175 
L 896.3365 524.3175 
L 896.3365 25.3575 
L 59.3365 25.3575 
z
" style="fill:#ffffff;"/>
   </g>
   <g id="matplotlib.axis_1">
    <g id="xtick_1">
     <g id="line2d_1">
      <path clip-path="url(#pc3afe251f1)" d="M 226.233294 524.3175 
L 226.233294 25.3575 
" style="fill:none;stroke:#b0b0b0;stroke-linecap:square;stroke-width:0.8;"/>
     </g>
     <g id="line2d_2"/>
     <g id="text_1">
      <!-- 200 -->
      <defs>
       <path d="M 19.1875 8.296875 
L 53.609375 8.296875 
L 53.609375 0 
L 7.328125 0 
L 7.328125 8.296875 
Q 12.9375 14.109375 22.625 23.890625 
Q 32.328125 33.6875 34.8125 36.53125 
Q 39.546875 41.84375 41.421875 45.53125 
Q 43.3125 49.21875 43.3125 52.78125 
Q 43.3125 58.59375 39.234375 62.25 
Q 35.15625 65.921875 28.609375 65.921875 
Q 23.96875 65.921875 18.8125 64.3125 
Q 13.671875 62.703125 7.8125 59.421875 
L 7.8125 69.390625 
Q 13.765625 71.78125 18.9375 73 
Q 24.125 74.21875 28.421875 74.21875 
Q 39.75 74.21875 46.484375 68.546875 
Q 53.21875 62.890625 53.21875 53.421875 
Q 53.21875 48.921875 51.53125 44.890625 
Q 49.859375 40.875 45.40625 35.40625 
Q 44.1875 33.984375 37.640625 27.21875 
Q 31.109375 20.453125 19.1875 8.296875 
z
" id="DejaVuSans-32"/>
       <path d="M 31.78125 66.40625 
Q 24.171875 66.40625 20.328125 58.90625 
Q 16.5 51.421875 16.5 36.375 
Q 16.5 21.390625 20.328125 13.890625 
Q 24.171875 6.390625 31.78125 6.390625 
Q 39.453125 6.390625 43.28125 13.890625 
Q 47.125 21.390625 47.125 36.375 
Q 47.125 51.421875 43.28125 58.90625 
Q 39.453125 66.40625 31.78125 66.40625 
z
M 31.78125 74.21875 
Q 44.046875 74.21875 50.515625 64.515625 
Q 56.984375 54.828125 56.984375 36.375 
Q 56.984375 17.96875 50.515625 8.265625 
Q 44.046875 -1.421875 31.78125 -1.421875 
Q 19.53125 -1.421875 13.0625 8.265625 
Q 6.59375 17.96875 6.59375 36.375 
Q 6.59375 54.828125 13.0625 64.515625 
Q 19.53125 74.21875 31.78125 74.21875 
z
" id="DejaVuSans-30"/>
      </defs>
      <g style="fill:#565656;" transform="translate(214.780794 539.435625)scale(0.12 -0.12)">
       <use xlink:href="#DejaVuSans-32"/>
       <use x="63.623047" xlink:href="#DejaVuSans-30"/>
       <use x="127.246094" xlink:href="#DejaVuSans-30"/>
      </g>
     </g>
    </g>
    <g id="xtick_2">
     <g id="line2d_3">
      <path clip-path="url(#pc3afe251f1)" d="M 393.968765 524.3175 
L 393.968765 25.3575 
" style="fill:none;stroke:#b0b0b0;stroke-linecap:square;stroke-width:0.8;"/>
     </g>
     <g id="line2d_4"/>
     <g id="text_2">
      <!-- 400 -->
      <defs>
       <path d="M 37.796875 64.3125 
L 12.890625 25.390625 
L 37.796875 25.390625 
z
M 35.203125 72.90625 
L 47.609375 72.90625 
L 47.609375 25.390625 
L 58.015625 25.390625 
L 58.015625 17.1875 
L 47.609375 17.1875 
L 47.609375 0 
L 37.796875 0 
L 37.796875 17.1875 
L 4.890625 17.1875 
L 4.890625 26.703125 
z
" id="DejaVuSans-34"/>
      </defs>
      <g style="fill:#565656;" transform="translate(382.516265 539.435625)scale(0.12 -0.12)">
       <use xlink:href="#DejaVuSans-34"/>
       <use x="63.623047" xlink:href="#DejaVuSans-30"/>
       <use x="127.246094" xlink:href="#DejaVuSans-30"/>
      </g>
     </g>
    </g>
    <g id="xtick_3">
     <g id="line2d_5">
      <path clip-path="url(#pc3afe251f1)" d="M 561.704235 524.3175 
L 561.704235 25.3575 
" style="fill:none;stroke:#b0b0b0;stroke-linecap:square;stroke-width:0.8;"/>
     </g>
     <g id="line2d_6"/>
     <g id="text_3">
      <!-- 600 -->
      <defs>
       <path d="M 33.015625 40.375 
Q 26.375 40.375 22.484375 35.828125 
Q 18.609375 31.296875 18.609375 23.390625 
Q 18.609375 15.53125 22.484375 10.953125 
Q 26.375 6.390625 33.015625 6.390625 
Q 39.65625 6.390625 43.53125 10.953125 
Q 47.40625 15.53125 47.40625 23.390625 
Q 47.40625 31.296875 43.53125 35.828125 
Q 39.65625 40.375 33.015625 40.375 
z
M 52.59375 71.296875 
L 52.59375 62.3125 
Q 48.875 64.0625 45.09375 64.984375 
Q 41.3125 65.921875 37.59375 65.921875 
Q 27.828125 65.921875 22.671875 59.328125 
Q 17.53125 52.734375 16.796875 39.40625 
Q 19.671875 43.65625 24.015625 45.921875 
Q 28.375 48.1875 33.59375 48.1875 
Q 44.578125 48.1875 50.953125 41.515625 
Q 57.328125 34.859375 57.328125 23.390625 
Q 57.328125 12.15625 50.6875 5.359375 
Q 44.046875 -1.421875 33.015625 -1.421875 
Q 20.359375 -1.421875 13.671875 8.265625 
Q 6.984375 17.96875 6.984375 36.375 
Q 6.984375 53.65625 15.1875 63.9375 
Q 23.390625 74.21875 37.203125 74.21875 
Q 40.921875 74.21875 44.703125 73.484375 
Q 48.484375 72.75 52.59375 71.296875 
z
" id="DejaVuSans-36"/>
      </defs>
      <g style="fill:#565656;" transform="translate(550.251735 539.435625)scale(0.12 -0.12)">
       <use xlink:href="#DejaVuSans-36"/>
       <use x="63.623047" xlink:href="#DejaVuSans-30"/>
       <use x="127.246094" xlink:href="#DejaVuSans-30"/>
      </g>
     </g>
    </g>
    <g id="xtick_4">
     <g id="line2d_7">
      <path clip-path="url(#pc3afe251f1)" d="M 729.439706 524.3175 
L 729.439706 25.3575 
" style="fill:none;stroke:#b0b0b0;stroke-linecap:square;stroke-width:0.8;"/>
     </g>
     <g id="line2d_8"/>
     <g id="text_4">
      <!-- 800 -->
      <defs>
       <path d="M 31.78125 34.625 
Q 24.75 34.625 20.71875 30.859375 
Q 16.703125 27.09375 16.703125 20.515625 
Q 16.703125 13.921875 20.71875 10.15625 
Q 24.75 6.390625 31.78125 6.390625 
Q 38.8125 6.390625 42.859375 10.171875 
Q 46.921875 13.96875 46.921875 20.515625 
Q 46.921875 27.09375 42.890625 30.859375 
Q 38.875 34.625 31.78125 34.625 
z
M 21.921875 38.8125 
Q 15.578125 40.375 12.03125 44.71875 
Q 8.5 49.078125 8.5 55.328125 
Q 8.5 64.0625 14.71875 69.140625 
Q 20.953125 74.21875 31.78125 74.21875 
Q 42.671875 74.21875 48.875 69.140625 
Q 55.078125 64.0625 55.078125 55.328125 
Q 55.078125 49.078125 51.53125 44.71875 
Q 48 40.375 41.703125 38.8125 
Q 48.828125 37.15625 52.796875 32.3125 
Q 56.78125 27.484375 56.78125 20.515625 
Q 56.78125 9.90625 50.3125 4.234375 
Q 43.84375 -1.421875 31.78125 -1.421875 
Q 19.734375 -1.421875 13.25 4.234375 
Q 6.78125 9.90625 6.78125 20.515625 
Q 6.78125 27.484375 10.78125 32.3125 
Q 14.796875 37.15625 21.921875 38.8125 
z
M 18.3125 54.390625 
Q 18.3125 48.734375 21.84375 45.5625 
Q 25.390625 42.390625 31.78125 42.390625 
Q 38.140625 42.390625 41.71875 45.5625 
Q 45.3125 48.734375 45.3125 54.390625 
Q 45.3125 60.0625 41.71875 63.234375 
Q 38.140625 66.40625 31.78125 66.40625 
Q 25.390625 66.40625 21.84375 63.234375 
Q 18.3125 60.0625 18.3125 54.390625 
z
" id="DejaVuSans-38"/>
      </defs>
      <g style="fill:#565656;" transform="translate(717.987206 539.435625)scale(0.12 -0.12)">
       <use xlink:href="#DejaVuSans-38"/>
       <use x="63.623047" xlink:href="#DejaVuSans-30"/>
       <use x="127.246094" xlink:href="#DejaVuSans-30"/>
      </g>
     </g>
    </g>
    <g id="text_5">
     <!-- Frequency [GHz] -->
     <defs>
      <path d="M 9.8125 72.90625 
L 51.703125 72.90625 
L 51.703125 64.59375 
L 19.671875 64.59375 
L 19.671875 43.109375 
L 48.578125 43.109375 
L 48.578125 34.8125 
L 19.671875 34.8125 
L 19.671875 0 
L 9.8125 0 
z
" id="DejaVuSans-46"/>
      <path d="M 41.109375 46.296875 
Q 39.59375 47.171875 37.8125 47.578125 
Q 36.03125 48 33.890625 48 
Q 26.265625 48 22.1875 43.046875 
Q 18.109375 38.09375 18.109375 28.8125 
L 18.109375 0 
L 9.078125 0 
L 9.078125 54.6875 
L 18.109375 54.6875 
L 18.109375 46.1875 
Q 20.953125 51.171875 25.484375 53.578125 
Q 30.03125 56 36.53125 56 
Q 37.453125 56 38.578125 55.875 
Q 39.703125 55.765625 41.0625 55.515625 
z
" id="DejaVuSans-72"/>
      <path d="M 56.203125 29.59375 
L 56.203125 25.203125 
L 14.890625 25.203125 
Q 15.484375 15.921875 20.484375 11.0625 
Q 25.484375 6.203125 34.421875 6.203125 
Q 39.59375 6.203125 44.453125 7.46875 
Q 49.3125 8.734375 54.109375 11.28125 
L 54.109375 2.78125 
Q 49.265625 0.734375 44.1875 -0.34375 
Q 39.109375 -1.421875 33.890625 -1.421875 
Q 20.796875 -1.421875 13.15625 6.1875 
Q 5.515625 13.8125 5.515625 26.8125 
Q 5.515625 40.234375 12.765625 48.109375 
Q 20.015625 56 32.328125 56 
Q 43.359375 56 49.78125 48.890625 
Q 56.203125 41.796875 56.203125 29.59375 
z
M 47.21875 32.234375 
Q 47.125 39.59375 43.09375 43.984375 
Q 39.0625 48.390625 32.421875 48.390625 
Q 24.90625 48.390625 20.390625 44.140625 
Q 15.875 39.890625 15.1875 32.171875 
z
" id="DejaVuSans-65"/>
      <path d="M 14.796875 27.296875 
Q 14.796875 17.390625 18.875 11.75 
Q 22.953125 6.109375 30.078125 6.109375 
Q 37.203125 6.109375 41.296875 11.75 
Q 45.40625 17.390625 45.40625 27.296875 
Q 45.40625 37.203125 41.296875 42.84375 
Q 37.203125 48.484375 30.078125 48.484375 
Q 22.953125 48.484375 18.875 42.84375 
Q 14.796875 37.203125 14.796875 27.296875 
z
M 45.40625 8.203125 
Q 42.578125 3.328125 38.25 0.953125 
Q 33.9375 -1.421875 27.875 -1.421875 
Q 17.96875 -1.421875 11.734375 6.484375 
Q 5.515625 14.40625 5.515625 27.296875 
Q 5.515625 40.1875 11.734375 48.09375 
Q 17.96875 56 27.875 56 
Q 33.9375 56 38.25 53.625 
Q 42.578125 51.265625 45.40625 46.390625 
L 45.40625 54.6875 
L 54.390625 54.6875 
L 54.390625 -20.796875 
L 45.40625 -20.796875 
z
" id="DejaVuSans-71"/>
      <path d="M 8.5 21.578125 
L 8.5 54.6875 
L 17.484375 54.6875 
L 17.484375 21.921875 
Q 17.484375 14.15625 20.5 10.265625 
Q 23.53125 6.390625 29.59375 6.390625 
Q 36.859375 6.390625 41.078125 11.03125 
Q 45.3125 15.671875 45.3125 23.6875 
L 45.3125 54.6875 
L 54.296875 54.6875 
L 54.296875 0 
L 45.3125 0 
L 45.3125 8.40625 
Q 42.046875 3.421875 37.71875 1 
Q 33.40625 -1.421875 27.6875 -1.421875 
Q 18.265625 -1.421875 13.375 4.4375 
Q 8.5 10.296875 8.5 21.578125 
z
M 31.109375 56 
z
" id="DejaVuSans-75"/>
      <path d="M 54.890625 33.015625 
L 54.890625 0 
L 45.90625 0 
L 45.90625 32.71875 
Q 45.90625 40.484375 42.875 44.328125 
Q 39.84375 48.1875 33.796875 48.1875 
Q 26.515625 48.1875 22.3125 43.546875 
Q 18.109375 38.921875 18.109375 30.90625 
L 18.109375 0 
L 9.078125 0 
L 9.078125 54.6875 
L 18.109375 54.6875 
L 18.109375 46.1875 
Q 21.34375 51.125 25.703125 53.5625 
Q 30.078125 56 35.796875 56 
Q 45.21875 56 50.046875 50.171875 
Q 54.890625 44.34375 54.890625 33.015625 
z
" id="DejaVuSans-6e"/>
      <path d="M 48.78125 52.59375 
L 48.78125 44.1875 
Q 44.96875 46.296875 41.140625 47.34375 
Q 37.3125 48.390625 33.40625 48.390625 
Q 24.65625 48.390625 19.8125 42.84375 
Q 14.984375 37.3125 14.984375 27.296875 
Q 14.984375 17.28125 19.8125 11.734375 
Q 24.65625 6.203125 33.40625 6.203125 
Q 37.3125 6.203125 41.140625 7.25 
Q 44.96875 8.296875 48.78125 10.40625 
L 48.78125 2.09375 
Q 45.015625 0.34375 40.984375 -0.53125 
Q 36.96875 -1.421875 32.421875 -1.421875 
Q 20.0625 -1.421875 12.78125 6.34375 
Q 5.515625 14.109375 5.515625 27.296875 
Q 5.515625 40.671875 12.859375 48.328125 
Q 20.21875 56 33.015625 56 
Q 37.15625 56 41.109375 55.140625 
Q 45.0625 54.296875 48.78125 52.59375 
z
" id="DejaVuSans-63"/>
      <path d="M 32.171875 -5.078125 
Q 28.375 -14.84375 24.75 -17.8125 
Q 21.140625 -20.796875 15.09375 -20.796875 
L 7.90625 -20.796875 
L 7.90625 -13.28125 
L 13.1875 -13.28125 
Q 16.890625 -13.28125 18.9375 -11.515625 
Q 21 -9.765625 23.484375 -3.21875 
L 25.09375 0.875 
L 2.984375 54.6875 
L 12.5 54.6875 
L 29.59375 11.921875 
L 46.6875 54.6875 
L 56.203125 54.6875 
z
" id="DejaVuSans-79"/>
      <path id="DejaVuSans-20"/>
      <path d="M 8.59375 75.984375 
L 29.296875 75.984375 
L 29.296875 69 
L 17.578125 69 
L 17.578125 -6.203125 
L 29.296875 -6.203125 
L 29.296875 -13.1875 
L 8.59375 -13.1875 
z
" id="DejaVuSans-5b"/>
      <path d="M 59.515625 10.40625 
L 59.515625 29.984375 
L 43.40625 29.984375 
L 43.40625 38.09375 
L 69.28125 38.09375 
L 69.28125 6.78125 
Q 63.578125 2.734375 56.6875 0.65625 
Q 49.8125 -1.421875 42 -1.421875 
Q 24.90625 -1.421875 15.25 8.5625 
Q 5.609375 18.5625 5.609375 36.375 
Q 5.609375 54.25 15.25 64.234375 
Q 24.90625 74.21875 42 74.21875 
Q 49.125 74.21875 55.546875 72.453125 
Q 61.96875 70.703125 67.390625 67.28125 
L 67.390625 56.78125 
Q 61.921875 61.421875 55.765625 63.765625 
Q 49.609375 66.109375 42.828125 66.109375 
Q 29.4375 66.109375 22.71875 58.640625 
Q 16.015625 51.171875 16.015625 36.375 
Q 16.015625 21.625 22.71875 14.15625 
Q 29.4375 6.6875 42.828125 6.6875 
Q 48.046875 6.6875 52.140625 7.59375 
Q 56.25 8.5 59.515625 10.40625 
z
" id="DejaVuSans-47"/>
      <path d="M 9.8125 72.90625 
L 19.671875 72.90625 
L 19.671875 43.015625 
L 55.515625 43.015625 
L 55.515625 72.90625 
L 65.375 72.90625 
L 65.375 0 
L 55.515625 0 
L 55.515625 34.71875 
L 19.671875 34.71875 
L 19.671875 0 
L 9.8125 0 
z
" id="DejaVuSans-48"/>
      <path d="M 5.515625 54.6875 
L 48.1875 54.6875 
L 48.1875 46.484375 
L 14.40625 7.171875 
L 48.1875 7.171875 
L 48.1875 0 
L 4.296875 0 
L 4.296875 8.203125 
L 38.09375 47.515625 
L 5.515625 47.515625 
z
" id="DejaVuSans-7a"/>
      <path d="M 30.421875 75.984375 
L 30.421875 -13.1875 
L 9.71875 -13.1875 
L 9.71875 -6.203125 
L 21.390625 -6.203125 
L 21.390625 69 
L 9.71875 69 
L 9.71875 75.984375 
z
" id="DejaVuSans-5d"/>
     </defs>
     <g transform="translate(417.289 556.873)scale(0.144 -0.144)">
      <use xlink:href="#DejaVuSans-46"/>
      <use x="57.410156" xlink:href="#DejaVuSans-72"/>
      <use x="98.492188" xlink:href="#DejaVuSans-65"/>
      <use x="160.015625" xlink:href="#DejaVuSans-71"/>
      <use x="223.492188" xlink:href="#DejaVuSans-75"/>
      <use x="286.871094" xlink:href="#DejaVuSans-65"/>
      <use x="348.394531" xlink:href="#DejaVuSans-6e"/>
      <use x="411.773438" xlink:href="#DejaVuSans-63"/>
      <use x="466.753906" xlink:href="#DejaVuSans-79"/>
      <use x="525.933594" xlink:href="#DejaVuSans-20"/>
      <use x="557.720703" xlink:href="#DejaVuSans-5b"/>
      <use x="596.734375" xlink:href="#DejaVuSans-47"/>
      <use x="674.224609" xlink:href="#DejaVuSans-48"/>
      <use x="749.419922" xlink:href="#DejaVuSans-7a"/>
      <use x="801.910156" xlink:href="#DejaVuSans-5d"/>
     </g>
    </g>
   </g>
   <g id="matplotlib.axis_2">
    <g id="ytick_1">
     <g id="line2d_9">
      <path clip-path="url(#pc3afe251f1)" d="M 59.3365 503.615049 
L 896.3365 503.615049 
" style="fill:none;stroke:#b0b0b0;stroke-linecap:square;stroke-width:0.8;"/>
     </g>
     <g id="line2d_10"/>
     <g id="text_6">
      <!-- $\mathdefault{10^{-2}}$ -->
      <defs>
       <path d="M 12.40625 8.296875 
L 28.515625 8.296875 
L 28.515625 63.921875 
L 10.984375 60.40625 
L 10.984375 69.390625 
L 28.421875 72.90625 
L 38.28125 72.90625 
L 38.28125 8.296875 
L 54.390625 8.296875 
L 54.390625 0 
L 12.40625 0 
z
" id="DejaVuSans-31"/>
       <path d="M 10.59375 35.5 
L 73.1875 35.5 
L 73.1875 27.203125 
L 10.59375 27.203125 
z
" id="DejaVuSans-2212"/>
      </defs>
      <g style="fill:#565656;" transform="translate(25.1365 508.174111)scale(0.12 -0.12)">
       <use transform="translate(0 0.765625)" xlink:href="#DejaVuSans-31"/>
       <use transform="translate(63.623047 0.765625)" xlink:href="#DejaVuSans-30"/>
       <use transform="translate(128.203125 39.046875)scale(0.7)" xlink:href="#DejaVuSans-2212"/>
       <use transform="translate(186.855469 39.046875)scale(0.7)" xlink:href="#DejaVuSans-32"/>
      </g>
     </g>
    </g>
    <g id="ytick_2">
     <g id="line2d_11">
      <path clip-path="url(#pc3afe251f1)" d="M 59.3365 434.842994 
L 896.3365 434.842994 
" style="fill:none;stroke:#b0b0b0;stroke-linecap:square;stroke-width:0.8;"/>
     </g>
     <g id="line2d_12"/>
     <g id="text_7">
      <!-- $\mathdefault{10^{-1}}$ -->
      <g style="fill:#565656;" transform="translate(25.1365 439.402056)scale(0.12 -0.12)">
       <use transform="translate(0 0.684375)" xlink:href="#DejaVuSans-31"/>
       <use transform="translate(63.623047 0.684375)" xlink:href="#DejaVuSans-30"/>
       <use transform="translate(128.203125 38.965625)scale(0.7)" xlink:href="#DejaVuSans-2212"/>
       <use transform="translate(186.855469 38.965625)scale(0.7)" xlink:href="#DejaVuSans-31"/>
      </g>
     </g>
    </g>
    <g id="ytick_3">
     <g id="line2d_13">
      <path clip-path="url(#pc3afe251f1)" d="M 59.3365 366.070939 
L 896.3365 366.070939 
" style="fill:none;stroke:#b0b0b0;stroke-linecap:square;stroke-width:0.8;"/>
     </g>
     <g id="line2d_14"/>
     <g id="text_8">
      <!-- $\mathdefault{10^{0}}$ -->
      <g style="fill:#565656;" transform="translate(32.2165 370.630001)scale(0.12 -0.12)">
       <use transform="translate(0 0.765625)" xlink:href="#DejaVuSans-31"/>
       <use transform="translate(63.623047 0.765625)" xlink:href="#DejaVuSans-30"/>
       <use transform="translate(128.203125 39.046875)scale(0.7)" xlink:href="#DejaVuSans-30"/>
      </g>
     </g>
    </g>
    <g id="ytick_4">
     <g id="line2d_15">
      <path clip-path="url(#pc3afe251f1)" d="M 59.3365 297.298883 
L 896.3365 297.298883 
" style="fill:none;stroke:#b0b0b0;stroke-linecap:square;stroke-width:0.8;"/>
     </g>
     <g id="line2d_16"/>
     <g id="text_9">
      <!-- $\mathdefault{10^{1}}$ -->
      <g style="fill:#565656;" transform="translate(32.2165 301.857946)scale(0.12 -0.12)">
       <use transform="translate(0 0.684375)" xlink:href="#DejaVuSans-31"/>
       <use transform="translate(63.623047 0.684375)" xlink:href="#DejaVuSans-30"/>
       <use transform="translate(128.203125 38.965625)scale(0.7)" xlink:href="#DejaVuSans-31"/>
      </g>
     </g>
    </g>
    <g id="ytick_5">
     <g id="line2d_17">
      <path clip-path="url(#pc3afe251f1)" d="M 59.3365 228.526828 
L 896.3365 228.526828 
" style="fill:none;stroke:#b0b0b0;stroke-linecap:square;stroke-width:0.8;"/>
     </g>
     <g id="line2d_18"/>
     <g id="text_10">
      <!-- $\mathdefault{10^{2}}$ -->
      <g style="fill:#565656;" transform="translate(32.2165 233.085891)scale(0.12 -0.12)">
       <use transform="translate(0 0.765625)" xlink:href="#DejaVuSans-31"/>
       <use transform="translate(63.623047 0.765625)" xlink:href="#DejaVuSans-30"/>
       <use transform="translate(128.203125 39.046875)scale(0.7)" xlink:href="#DejaVuSans-32"/>
      </g>
     </g>
    </g>
    <g id="ytick_6">
     <g id="line2d_19">
      <path clip-path="url(#pc3afe251f1)" d="M 59.3365 159.754773 
L 896.3365 159.754773 
" style="fill:none;stroke:#b0b0b0;stroke-linecap:square;stroke-width:0.8;"/>
     </g>
     <g id="line2d_20"/>
     <g id="text_11">
      <!-- $\mathdefault{10^{3}}$ -->
      <defs>
       <path d="M 40.578125 39.3125 
Q 47.65625 37.796875 51.625 33 
Q 55.609375 28.21875 55.609375 21.1875 
Q 55.609375 10.40625 48.1875 4.484375 
Q 40.765625 -1.421875 27.09375 -1.421875 
Q 22.515625 -1.421875 17.65625 -0.515625 
Q 12.796875 0.390625 7.625 2.203125 
L 7.625 11.71875 
Q 11.71875 9.328125 16.59375 8.109375 
Q 21.484375 6.890625 26.8125 6.890625 
Q 36.078125 6.890625 40.9375 10.546875 
Q 45.796875 14.203125 45.796875 21.1875 
Q 45.796875 27.640625 41.28125 31.265625 
Q 36.765625 34.90625 28.71875 34.90625 
L 20.21875 34.90625 
L 20.21875 43.015625 
L 29.109375 43.015625 
Q 36.375 43.015625 40.234375 45.921875 
Q 44.09375 48.828125 44.09375 54.296875 
Q 44.09375 59.90625 40.109375 62.90625 
Q 36.140625 65.921875 28.71875 65.921875 
Q 24.65625 65.921875 20.015625 65.03125 
Q 15.375 64.15625 9.8125 62.3125 
L 9.8125 71.09375 
Q 15.4375 72.65625 20.34375 73.4375 
Q 25.25 74.21875 29.59375 74.21875 
Q 40.828125 74.21875 47.359375 69.109375 
Q 53.90625 64.015625 53.90625 55.328125 
Q 53.90625 49.265625 50.4375 45.09375 
Q 46.96875 40.921875 40.578125 39.3125 
z
" id="DejaVuSans-33"/>
      </defs>
      <g style="fill:#565656;" transform="translate(32.2165 164.313836)scale(0.12 -0.12)">
       <use transform="translate(0 0.765625)" xlink:href="#DejaVuSans-31"/>
       <use transform="translate(63.623047 0.765625)" xlink:href="#DejaVuSans-30"/>
       <use transform="translate(128.203125 39.046875)scale(0.7)" xlink:href="#DejaVuSans-33"/>
      </g>
     </g>
    </g>
    <g id="ytick_7">
     <g id="line2d_21">
      <path clip-path="url(#pc3afe251f1)" d="M 59.3365 90.982718 
L 896.3365 90.982718 
" style="fill:none;stroke:#b0b0b0;stroke-linecap:square;stroke-width:0.8;"/>
     </g>
     <g id="line2d_22"/>
     <g id="text_12">
      <!-- $\mathdefault{10^{4}}$ -->
      <g style="fill:#565656;" transform="translate(32.2165 95.541781)scale(0.12 -0.12)">
       <use transform="translate(0 0.684375)" xlink:href="#DejaVuSans-31"/>
       <use transform="translate(63.623047 0.684375)" xlink:href="#DejaVuSans-30"/>
       <use transform="translate(128.203125 38.965625)scale(0.7)" xlink:href="#DejaVuSans-34"/>
      </g>
     </g>
    </g>
    <g id="ytick_8">
     <g id="line2d_23"/>
    </g>
    <g id="ytick_9">
     <g id="line2d_24"/>
    </g>
    <g id="ytick_10">
     <g id="line2d_25"/>
    </g>
    <g id="ytick_11">
     <g id="line2d_26"/>
    </g>
    <g id="ytick_12">
     <g id="line2d_27"/>
    </g>
    <g id="ytick_13">
     <g id="line2d_28"/>
    </g>
    <g id="ytick_14">
     <g id="line2d_29"/>
    </g>
    <g id="ytick_15">
     <g id="line2d_30"/>
    </g>
    <g id="ytick_16">
     <g id="line2d_31"/>
    </g>
    <g id="ytick_17">
     <g id="line2d_32"/>
    </g>
    <g id="ytick_18">
     <g id="line2d_33"/>
    </g>
    <g id="ytick_19">
     <g id="line2d_34"/>
    </g>
    <g id="ytick_20">
     <g id="line2d_35"/>
    </g>
    <g id="ytick_21">
     <g id="line2d_36"/>
    </g>
    <g id="ytick_22">
     <g id="line2d_37"/>
    </g>
    <g id="ytick_23">
     <g id="line2d_38"/>
    </g>
    <g id="ytick_24">
     <g id="line2d_39"/>
    </g>
    <g id="ytick_25">
     <g id="line2d_40"/>
    </g>
    <g id="ytick_26">
     <g id="line2d_41"/>
    </g>
    <g id="ytick_27">
     <g id="line2d_42"/>
    </g>
    <g id="ytick_28">
     <g id="line2d_43"/>
    </g>
    <g id="ytick_29">
     <g id="line2d_44"/>
    </g>
    <g id="ytick_30">
     <g id="line2d_45"/>
    </g>
    <g id="ytick_31">
     <g id="line2d_46"/>
    </g>
    <g id="ytick_32">
     <g id="line2d_47"/>
    </g>
    <g id="ytick_33">
     <g id="line2d_48"/>
    </g>
    <g id="ytick_34">
     <g id="line2d_49"/>
    </g>
    <g id="ytick_35">
     <g id="line2d_50"/>
    </g>
    <g id="ytick_36">
     <g id="line2d_51"/>
    </g>
    <g id="ytick_37">
     <g id="line2d_52"/>
    </g>
    <g id="ytick_38">
     <g id="line2d_53"/>
    </g>
    <g id="ytick_39">
     <g id="line2d_54"/>
    </g>
    <g id="ytick_40">
     <g id="line2d_55"/>
    </g>
    <g id="ytick_41">
     <g id="line2d_56"/>
    </g>
    <g id="ytick_42">
     <g id="line2d_57"/>
    </g>
    <g id="ytick_43">
     <g id="line2d_58"/>
    </g>
    <g id="ytick_44">
     <g id="line2d_59"/>
    </g>
    <g id="ytick_45">
     <g id="line2d_60"/>
    </g>
    <g id="ytick_46">
     <g id="line2d_61"/>
    </g>
    <g id="ytick_47">
     <g id="line2d_62"/>
    </g>
    <g id="ytick_48">
     <g id="line2d_63"/>
    </g>
    <g id="ytick_49">
     <g id="line2d_64"/>
    </g>
    <g id="ytick_50">
     <g id="line2d_65"/>
    </g>
    <g id="ytick_51">
     <g id="line2d_66"/>
    </g>
    <g id="ytick_52">
     <g id="line2d_67"/>
    </g>
    <g id="ytick_53">
     <g id="line2d_68"/>
    </g>
    <g id="ytick_54">
     <g id="line2d_69"/>
    </g>
    <g id="ytick_55">
     <g id="line2d_70"/>
    </g>
    <g id="ytick_56">
     <g id="line2d_71"/>
    </g>
    <g id="ytick_57">
     <g id="line2d_72"/>
    </g>
    <g id="ytick_58">
     <g id="line2d_73"/>
    </g>
    <g id="ytick_59">
     <g id="line2d_74"/>
    </g>
    <g id="ytick_60">
     <g id="line2d_75"/>
    </g>
    <g id="ytick_61">
     <g id="line2d_76"/>
    </g>
    <g id="ytick_62">
     <g id="line2d_77"/>
    </g>
    <g id="ytick_63">
     <g id="line2d_78"/>
    </g>
    <g id="ytick_64">
     <g id="line2d_79"/>
    </g>
    <g id="ytick_65">
     <g id="line2d_80"/>
    </g>
    <g id="ytick_66">
     <g id="line2d_81"/>
    </g>
    <g id="ytick_67">
     <g id="line2d_82"/>
    </g>
    <g id="ytick_68">
     <g id="line2d_83"/>
    </g>
    <g id="text_13">
     <!-- Specific Attenuation [dB / km] -->
     <defs>
      <path d="M 53.515625 70.515625 
L 53.515625 60.890625 
Q 47.90625 63.578125 42.921875 64.890625 
Q 37.9375 66.21875 33.296875 66.21875 
Q 25.25 66.21875 20.875 63.09375 
Q 16.5 59.96875 16.5 54.203125 
Q 16.5 49.359375 19.40625 46.890625 
Q 22.3125 44.4375 30.421875 42.921875 
L 36.375 41.703125 
Q 47.40625 39.59375 52.65625 34.296875 
Q 57.90625 29 57.90625 20.125 
Q 57.90625 9.515625 50.796875 4.046875 
Q 43.703125 -1.421875 29.984375 -1.421875 
Q 24.8125 -1.421875 18.96875 -0.25 
Q 13.140625 0.921875 6.890625 3.21875 
L 6.890625 13.375 
Q 12.890625 10.015625 18.65625 8.296875 
Q 24.421875 6.59375 29.984375 6.59375 
Q 38.421875 6.59375 43.015625 9.90625 
Q 47.609375 13.234375 47.609375 19.390625 
Q 47.609375 24.75 44.3125 27.78125 
Q 41.015625 30.8125 33.5 32.328125 
L 27.484375 33.5 
Q 16.453125 35.6875 11.515625 40.375 
Q 6.59375 45.0625 6.59375 53.421875 
Q 6.59375 63.09375 13.40625 68.65625 
Q 20.21875 74.21875 32.171875 74.21875 
Q 37.3125 74.21875 42.625 73.28125 
Q 47.953125 72.359375 53.515625 70.515625 
z
" id="DejaVuSans-53"/>
      <path d="M 18.109375 8.203125 
L 18.109375 -20.796875 
L 9.078125 -20.796875 
L 9.078125 54.6875 
L 18.109375 54.6875 
L 18.109375 46.390625 
Q 20.953125 51.265625 25.265625 53.625 
Q 29.59375 56 35.59375 56 
Q 45.5625 56 51.78125 48.09375 
Q 58.015625 40.1875 58.015625 27.296875 
Q 58.015625 14.40625 51.78125 6.484375 
Q 45.5625 -1.421875 35.59375 -1.421875 
Q 29.59375 -1.421875 25.265625 0.953125 
Q 20.953125 3.328125 18.109375 8.203125 
z
M 48.6875 27.296875 
Q 48.6875 37.203125 44.609375 42.84375 
Q 40.53125 48.484375 33.40625 48.484375 
Q 26.265625 48.484375 22.1875 42.84375 
Q 18.109375 37.203125 18.109375 27.296875 
Q 18.109375 17.390625 22.1875 11.75 
Q 26.265625 6.109375 33.40625 6.109375 
Q 40.53125 6.109375 44.609375 11.75 
Q 48.6875 17.390625 48.6875 27.296875 
z
" id="DejaVuSans-70"/>
      <path d="M 9.421875 54.6875 
L 18.40625 54.6875 
L 18.40625 0 
L 9.421875 0 
z
M 9.421875 75.984375 
L 18.40625 75.984375 
L 18.40625 64.59375 
L 9.421875 64.59375 
z
" id="DejaVuSans-69"/>
      <path d="M 37.109375 75.984375 
L 37.109375 68.5 
L 28.515625 68.5 
Q 23.6875 68.5 21.796875 66.546875 
Q 19.921875 64.59375 19.921875 59.515625 
L 19.921875 54.6875 
L 34.71875 54.6875 
L 34.71875 47.703125 
L 19.921875 47.703125 
L 19.921875 0 
L 10.890625 0 
L 10.890625 47.703125 
L 2.296875 47.703125 
L 2.296875 54.6875 
L 10.890625 54.6875 
L 10.890625 58.5 
Q 10.890625 67.625 15.140625 71.796875 
Q 19.390625 75.984375 28.609375 75.984375 
z
" id="DejaVuSans-66"/>
      <path d="M 34.1875 63.1875 
L 20.796875 26.90625 
L 47.609375 26.90625 
z
M 28.609375 72.90625 
L 39.796875 72.90625 
L 67.578125 0 
L 57.328125 0 
L 50.6875 18.703125 
L 17.828125 18.703125 
L 11.1875 0 
L 0.78125 0 
z
" id="DejaVuSans-41"/>
      <path d="M 18.3125 70.21875 
L 18.3125 54.6875 
L 36.8125 54.6875 
L 36.8125 47.703125 
L 18.3125 47.703125 
L 18.3125 18.015625 
Q 18.3125 11.328125 20.140625 9.421875 
Q 21.96875 7.515625 27.59375 7.515625 
L 36.8125 7.515625 
L 36.8125 0 
L 27.59375 0 
Q 17.1875 0 13.234375 3.875 
Q 9.28125 7.765625 9.28125 18.015625 
L 9.28125 47.703125 
L 2.6875 47.703125 
L 2.6875 54.6875 
L 9.28125 54.6875 
L 9.28125 70.21875 
z
" id="DejaVuSans-74"/>
      <path d="M 34.28125 27.484375 
Q 23.390625 27.484375 19.1875 25 
Q 14.984375 22.515625 14.984375 16.5 
Q 14.984375 11.71875 18.140625 8.90625 
Q 21.296875 6.109375 26.703125 6.109375 
Q 34.1875 6.109375 38.703125 11.40625 
Q 43.21875 16.703125 43.21875 25.484375 
L 43.21875 27.484375 
z
M 52.203125 31.203125 
L 52.203125 0 
L 43.21875 0 
L 43.21875 8.296875 
Q 40.140625 3.328125 35.546875 0.953125 
Q 30.953125 -1.421875 24.3125 -1.421875 
Q 15.921875 -1.421875 10.953125 3.296875 
Q 6 8.015625 6 15.921875 
Q 6 25.140625 12.171875 29.828125 
Q 18.359375 34.515625 30.609375 34.515625 
L 43.21875 34.515625 
L 43.21875 35.40625 
Q 43.21875 41.609375 39.140625 45 
Q 35.0625 48.390625 27.6875 48.390625 
Q 23 48.390625 18.546875 47.265625 
Q 14.109375 46.140625 10.015625 43.890625 
L 10.015625 52.203125 
Q 14.9375 54.109375 19.578125 55.046875 
Q 24.21875 56 28.609375 56 
Q 40.484375 56 46.34375 49.84375 
Q 52.203125 43.703125 52.203125 31.203125 
z
" id="DejaVuSans-61"/>
      <path d="M 30.609375 48.390625 
Q 23.390625 48.390625 19.1875 42.75 
Q 14.984375 37.109375 14.984375 27.296875 
Q 14.984375 17.484375 19.15625 11.84375 
Q 23.34375 6.203125 30.609375 6.203125 
Q 37.796875 6.203125 41.984375 11.859375 
Q 46.1875 17.53125 46.1875 27.296875 
Q 46.1875 37.015625 41.984375 42.703125 
Q 37.796875 48.390625 30.609375 48.390625 
z
M 30.609375 56 
Q 42.328125 56 49.015625 48.375 
Q 55.71875 40.765625 55.71875 27.296875 
Q 55.71875 13.875 49.015625 6.21875 
Q 42.328125 -1.421875 30.609375 -1.421875 
Q 18.84375 -1.421875 12.171875 6.21875 
Q 5.515625 13.875 5.515625 27.296875 
Q 5.515625 40.765625 12.171875 48.375 
Q 18.84375 56 30.609375 56 
z
" id="DejaVuSans-6f"/>
      <path d="M 45.40625 46.390625 
L 45.40625 75.984375 
L 54.390625 75.984375 
L 54.390625 0 
L 45.40625 0 
L 45.40625 8.203125 
Q 42.578125 3.328125 38.25 0.953125 
Q 33.9375 -1.421875 27.875 -1.421875 
Q 17.96875 -1.421875 11.734375 6.484375 
Q 5.515625 14.40625 5.515625 27.296875 
Q 5.515625 40.1875 11.734375 48.09375 
Q 17.96875 56 27.875 56 
Q 33.9375 56 38.25 53.625 
Q 42.578125 51.265625 45.40625 46.390625 
z
M 14.796875 27.296875 
Q 14.796875 17.390625 18.875 11.75 
Q 22.953125 6.109375 30.078125 6.109375 
Q 37.203125 6.109375 41.296875 11.75 
Q 45.40625 17.390625 45.40625 27.296875 
Q 45.40625 37.203125 41.296875 42.84375 
Q 37.203125 48.484375 30.078125 48.484375 
Q 22.953125 48.484375 18.875 42.84375 
Q 14.796875 37.203125 14.796875 27.296875 
z
" id="DejaVuSans-64"/>
      <path d="M 19.671875 34.8125 
L 19.671875 8.109375 
L 35.5 8.109375 
Q 43.453125 8.109375 47.28125 11.40625 
Q 51.125 14.703125 51.125 21.484375 
Q 51.125 28.328125 47.28125 31.5625 
Q 43.453125 34.8125 35.5 34.8125 
z
M 19.671875 64.796875 
L 19.671875 42.828125 
L 34.28125 42.828125 
Q 41.5 42.828125 45.03125 45.53125 
Q 48.578125 48.25 48.578125 53.8125 
Q 48.578125 59.328125 45.03125 62.0625 
Q 41.5 64.796875 34.28125 64.796875 
z
M 9.8125 72.90625 
L 35.015625 72.90625 
Q 46.296875 72.90625 52.390625 68.21875 
Q 58.5 63.53125 58.5 54.890625 
Q 58.5 48.1875 55.375 44.234375 
Q 52.25 40.28125 46.1875 39.3125 
Q 53.46875 37.75 57.5 32.78125 
Q 61.53125 27.828125 61.53125 20.40625 
Q 61.53125 10.640625 54.890625 5.3125 
Q 48.25 0 35.984375 0 
L 9.8125 0 
z
" id="DejaVuSans-42"/>
      <path d="M 25.390625 72.90625 
L 33.6875 72.90625 
L 8.296875 -9.28125 
L 0 -9.28125 
z
" id="DejaVuSans-2f"/>
      <path d="M 9.078125 75.984375 
L 18.109375 75.984375 
L 18.109375 31.109375 
L 44.921875 54.6875 
L 56.390625 54.6875 
L 27.390625 29.109375 
L 57.625 0 
L 45.90625 0 
L 18.109375 26.703125 
L 18.109375 0 
L 9.078125 0 
z
" id="DejaVuSans-6b"/>
      <path d="M 52 44.1875 
Q 55.375 50.25 60.0625 53.125 
Q 64.75 56 71.09375 56 
Q 79.640625 56 84.28125 50.015625 
Q 88.921875 44.046875 88.921875 33.015625 
L 88.921875 0 
L 79.890625 0 
L 79.890625 32.71875 
Q 79.890625 40.578125 77.09375 44.375 
Q 74.3125 48.1875 68.609375 48.1875 
Q 61.625 48.1875 57.5625 43.546875 
Q 53.515625 38.921875 53.515625 30.90625 
L 53.515625 0 
L 44.484375 0 
L 44.484375 32.71875 
Q 44.484375 40.625 41.703125 44.40625 
Q 38.921875 48.1875 33.109375 48.1875 
Q 26.21875 48.1875 22.15625 43.53125 
Q 18.109375 38.875 18.109375 30.90625 
L 18.109375 0 
L 9.078125 0 
L 9.078125 54.6875 
L 18.109375 54.6875 
L 18.109375 46.1875 
Q 21.1875 51.21875 25.484375 53.609375 
Q 29.78125 56 35.6875 56 
Q 41.65625 56 45.828125 52.96875 
Q 50 49.953125 52 44.1875 
z
" id="DejaVuSans-6d"/>
     </defs>
     <g transform="translate(18.14175 383.081625)rotate(-90)scale(0.144 -0.144)">
      <use xlink:href="#DejaVuSans-53"/>
      <use x="63.476562" xlink:href="#DejaVuSans-70"/>
      <use x="126.953125" xlink:href="#DejaVuSans-65"/>
      <use x="188.476562" xlink:href="#DejaVuSans-63"/>
      <use x="243.457031" xlink:href="#DejaVuSans-69"/>
      <use x="271.240234" xlink:href="#DejaVuSans-66"/>
      <use x="306.445312" xlink:href="#DejaVuSans-69"/>
      <use x="334.228516" xlink:href="#DejaVuSans-63"/>
      <use x="389.208984" xlink:href="#DejaVuSans-20"/>
      <use x="420.996094" xlink:href="#DejaVuSans-41"/>
      <use x="489.388672" xlink:href="#DejaVuSans-74"/>
      <use x="528.597656" xlink:href="#DejaVuSans-74"/>
      <use x="567.806641" xlink:href="#DejaVuSans-65"/>
      <use x="629.330078" xlink:href="#DejaVuSans-6e"/>
      <use x="692.708984" xlink:href="#DejaVuSans-75"/>
      <use x="756.087891" xlink:href="#DejaVuSans-61"/>
      <use x="817.367188" xlink:href="#DejaVuSans-74"/>
      <use x="856.576172" xlink:href="#DejaVuSans-69"/>
      <use x="884.359375" xlink:href="#DejaVuSans-6f"/>
      <use x="945.541016" xlink:href="#DejaVuSans-6e"/>
      <use x="1008.919922" xlink:href="#DejaVuSans-20"/>
      <use x="1040.707031" xlink:href="#DejaVuSans-5b"/>
      <use x="1079.720703" xlink:href="#DejaVuSans-64"/>
      <use x="1143.197266" xlink:href="#DejaVuSans-42"/>
      <use x="1211.800781" xlink:href="#DejaVuSans-20"/>
      <use x="1243.587891" xlink:href="#DejaVuSans-2f"/>
      <use x="1277.279297" xlink:href="#DejaVuSans-20"/>
      <use x="1309.066406" xlink:href="#DejaVuSans-6b"/>
      <use x="1366.976562" xlink:href="#DejaVuSans-6d"/>
      <use x="1464.388672" xlink:href="#DejaVuSans-5d"/>
     </g>
    </g>
   </g>
   <g id="line2d_84">
    <path clip-path="url(#pc3afe251f1)" d="M 59.3365 522.989725 
L 60.175177 516.573334 
L 61.013855 515.052728 
L 61.852532 514.304584 
L 66.045919 511.330908 
L 67.723274 509.790784 
L 69.400628 507.987663 
L 71.077983 505.920192 
L 72.755338 503.590715 
L 75.27137 499.610222 
L 77.787402 495.045503 
L 80.303434 489.879955 
L 82.819466 484.072676 
L 85.335498 477.549272 
L 87.85153 470.187883 
L 89.528885 464.723245 
L 91.206239 458.718832 
L 92.883594 452.057621 
L 94.560949 444.569954 
L 96.238304 435.995927 
L 97.915658 425.899723 
L 99.593013 413.404071 
L 100.43169 405.533829 
L 101.270368 395.298149 
L 102.109045 381.366914 
L 103.7864 343.010764 
L 104.625077 323.837095 
L 105.463755 308.293626 
L 106.302432 297.727427 
L 107.141109 291.662727 
L 107.979787 288.756888 
L 108.818464 286.664318 
L 109.657141 285.862357 
L 110.495819 287.879799 
L 111.334496 295.493457 
L 112.173173 309.20439 
L 113.850528 346.574089 
L 114.689205 365.949082 
L 115.527883 382.09063 
L 116.36656 394.079012 
L 117.205237 402.836851 
L 118.043915 409.725146 
L 119.72127 420.76219 
L 121.398624 429.555576 
L 123.075979 436.853552 
L 124.753334 443.044305 
L 126.430688 448.359772 
L 128.108043 452.947757 
L 129.785398 456.90451 
L 131.462753 460.291208 
L 133.140107 463.142625 
L 134.817462 465.471427 
L 136.494817 467.269586 
L 137.333494 467.961347 
L 138.172171 468.507553 
L 139.010849 468.900661 
L 139.849526 469.131284 
L 140.688203 469.187956 
L 141.526881 469.056845 
L 142.365558 468.721397 
L 143.204235 468.161897 
L 144.042913 467.354934 
L 144.88159 466.27272 
L 145.720268 464.882247 
L 146.558945 463.144195 
L 147.397622 461.011507 
L 148.2363 458.427481 
L 149.074977 455.323151 
L 149.913654 451.613601 
L 150.752332 447.192653 
L 151.591009 441.925052 
L 152.429686 435.634869 
L 153.268364 428.088527 
L 154.107041 418.972133 
L 154.945718 407.873005 
L 155.784396 394.332961 
L 157.461751 362.866364 
L 158.300428 358.540587 
L 159.139105 370.423761 
L 160.81646 402.407238 
L 161.655137 415.042923 
L 162.493815 425.507457 
L 163.332492 434.261765 
L 164.171169 441.673653 
L 165.009847 448.017334 
L 166.687201 458.266996 
L 168.364556 466.12889 
L 170.041911 472.287232 
L 171.719266 477.188294 
L 173.39662 481.137338 
L 175.073975 484.350591 
L 176.75133 486.985323 
L 178.428684 489.158355 
L 180.106039 490.958002 
L 181.783394 492.45206 
L 183.460748 493.693297 
L 185.138103 494.723299 
L 187.654135 495.942979 
L 190.170167 496.846846 
L 192.686199 497.498755 
L 195.202231 497.946914 
L 198.556941 498.290392 
L 201.91165 498.403173 
L 206.105037 498.293433 
L 210.298424 497.969802 
L 215.330488 497.370205 
L 221.201229 496.458225 
L 228.749326 495.055636 
L 238.813454 492.93833 
L 253.909646 489.50821 
L 300.036901 478.915488 
L 339.454736 470.026436 
L 345.325478 468.431138 
L 349.518865 467.048886 
L 352.034897 466.015328 
L 353.712252 465.173894 
L 355.389606 464.135674 
L 357.066961 462.7831 
L 357.905638 461.927348 
L 358.744316 460.899079 
L 359.582993 459.637342 
L 360.42167 458.053432 
L 361.260348 456.015692 
L 362.099025 453.325203 
L 362.937702 449.677647 
L 363.77638 444.608087 
L 364.615057 437.433017 
L 365.453734 427.302429 
L 367.131089 401.385069 
L 367.969767 401.246122 
L 369.647121 426.463004 
L 370.485799 436.19056 
L 371.324476 442.945756 
L 372.163153 447.584439 
L 373.001831 450.793868 
L 373.840508 453.041115 
L 374.679185 454.631471 
L 375.517863 455.764082 
L 376.35654 456.570376 
L 377.195217 457.138558 
L 378.033895 457.528902 
L 379.711249 457.931424 
L 381.388604 457.987561 
L 383.065959 457.805919 
L 384.743314 457.443396 
L 387.259346 456.616209 
L 389.775378 455.462592 
L 391.452732 454.493986 
L 393.130087 453.336021 
L 394.807442 451.947921 
L 396.484797 450.271152 
L 398.162151 448.222966 
L 399.839506 445.686346 
L 401.516861 442.494363 
L 403.194215 438.405604 
L 404.032893 435.919828 
L 404.87157 433.064463 
L 405.710247 429.766311 
L 406.548925 425.934085 
L 407.387602 421.452673 
L 408.22628 416.174937 
L 409.064957 409.909795 
L 409.903634 402.404916 
L 410.742312 393.323379 
L 411.580989 382.222966 
L 412.419666 368.601785 
L 414.097021 336.373278 
L 414.935698 331.447607 
L 415.774376 343.110411 
L 417.45173 374.492675 
L 418.290408 386.582841 
L 419.129085 396.38802 
L 419.967763 404.39892 
L 420.80644 411.006592 
L 421.645117 416.504572 
L 422.483795 421.113443 
L 423.322472 425.001473 
L 424.161149 428.299179 
L 424.999827 431.109312 
L 425.838504 433.513765 
L 427.515859 437.356965 
L 429.193213 440.222529 
L 430.870568 442.376002 
L 432.547923 444.000023 
L 434.225278 445.222077 
L 435.902632 446.132053 
L 437.579987 446.793555 
L 439.257342 447.251256 
L 440.934696 447.535619 
L 443.450728 447.676367 
L 445.966761 447.491608 
L 447.644115 447.176551 
L 449.32147 446.682381 
L 450.998825 445.967375 
L 452.676179 444.962614 
L 454.353534 443.555694 
L 455.192211 442.647565 
L 456.030889 441.561118 
L 456.869566 440.252754 
L 457.708243 438.664932 
L 458.546921 436.721048 
L 459.385598 434.318204 
L 460.224276 431.31701 
L 461.062953 427.527188 
L 461.90163 422.68751 
L 462.740308 416.438875 
L 463.578985 408.293212 
L 464.417662 397.623937 
L 465.25634 383.833599 
L 466.095017 367.543503 
L 466.933694 355.431177 
L 467.772372 359.94465 
L 469.449726 390.534137 
L 470.288404 402.515223 
L 471.127081 411.66373 
L 471.965759 418.638396 
L 472.804436 423.996216 
L 473.643113 428.153487 
L 474.481791 431.413432 
L 475.320468 433.996402 
L 476.159145 436.063312 
L 476.997823 437.732596 
L 477.8365 439.092211 
L 478.675177 440.208119 
L 480.352532 441.896908 
L 482.029887 443.075175 
L 483.707241 443.910283 
L 485.384596 444.507395 
L 487.900628 445.099836 
L 490.41666 445.449294 
L 493.77137 445.676122 
L 497.964757 445.723267 
L 503.835498 445.539344 
L 512.222272 445.017799 
L 524.802432 443.985752 
L 549.962753 441.646784 
L 619.572973 434.910453 
L 630.475779 433.627189 
L 636.34652 432.739638 
L 640.539907 431.88265 
L 643.055939 431.180497 
L 644.733294 430.571221 
L 646.410648 429.778329 
L 648.088003 428.689656 
L 648.92668 427.97507 
L 649.765358 427.095537 
L 650.604035 425.991148 
L 651.442712 424.573837 
L 652.28139 422.711355 
L 653.120067 420.201113 
L 653.958744 416.728164 
L 654.797422 411.80247 
L 655.636099 404.689572 
L 656.474777 394.463527 
L 658.152131 368.772469 
L 658.990809 370.523977 
L 660.668163 396.491232 
L 661.506841 405.78349 
L 662.345518 412.151487 
L 663.184195 416.507069 
L 664.022873 419.529992 
L 664.86155 421.667397 
L 665.700227 423.20595 
L 666.538905 424.330304 
L 667.377582 425.161302 
L 668.21626 425.779613 
L 669.893614 426.581262 
L 671.570969 427.005259 
L 673.248324 427.189695 
L 675.764356 427.169759 
L 678.280388 426.89347 
L 680.79642 426.402101 
L 683.312452 425.689463 
L 685.828484 424.709565 
L 687.505839 423.863924 
L 689.183193 422.814686 
L 690.860548 421.497196 
L 692.537903 419.81667 
L 694.215258 417.632065 
L 695.053935 416.287758 
L 695.892612 414.729346 
L 696.73129 412.911301 
L 697.569967 410.77625 
L 698.408644 408.251406 
L 699.247322 405.243763 
L 700.085999 401.633533 
L 700.924676 397.265062 
L 701.763354 391.934085 
L 702.602031 385.369787 
L 703.440708 377.210867 
L 704.279386 366.982432 
L 705.118063 354.127586 
L 706.795418 322.19262 
L 707.634095 315.947452 
L 708.472773 326.84499 
L 710.150127 358.092883 
L 710.988805 369.90048 
L 711.827482 379.26362 
L 712.666159 386.726286 
L 713.504837 392.725222 
L 714.343514 397.589355 
L 715.182191 401.565311 
L 716.020869 404.839577 
L 716.859546 407.55465 
L 717.698223 409.820468 
L 718.536901 411.722586 
L 719.375578 413.328104 
L 721.052933 415.850475 
L 722.730288 417.695314 
L 724.407642 419.061573 
L 726.084997 420.080742 
L 727.762352 420.841339 
L 729.439706 421.40372 
L 731.955738 421.962167 
L 734.471771 422.25052 
L 736.987803 422.307982 
L 739.503835 422.134001 
L 742.019867 421.680599 
L 743.697221 421.16579 
L 745.374576 420.40224 
L 747.051931 419.265242 
L 747.890608 418.492323 
L 748.729286 417.529105 
L 749.567963 416.314948 
L 750.40664 414.763936 
L 751.245318 412.752389 
L 752.083995 410.09949 
L 752.922672 406.537363 
L 753.76135 401.666078 
L 754.600027 394.891977 
L 755.438704 385.372353 
L 756.277382 372.140817 
L 757.116059 355.491666 
L 757.954736 343.497972 
L 758.793414 350.660299 
L 759.632091 367.295756 
L 760.470769 381.601468 
L 761.309446 392.030461 
L 762.148123 399.4458 
L 762.986801 404.753711 
L 763.825478 408.61224 
L 764.664155 411.467541 
L 765.502833 413.618458 
L 766.34151 415.266301 
L 767.180187 416.548408 
L 768.018865 417.559948 
L 768.857542 418.367975 
L 770.534897 419.552563 
L 772.212252 420.352039 
L 773.889606 420.90594 
L 776.405638 421.447092 
L 779.760348 421.847719 
L 783.953734 422.068247 
L 789.824476 422.113775 
L 798.211249 421.933247 
L 812.468765 421.368044 
L 840.983795 419.96546 
L 896.3365 417.151175 
L 896.3365 417.151175 
" style="fill:none;stroke:#ff0000;stroke-linecap:square;stroke-width:1.7;"/>
   </g>
   <g id="line2d_85">
    <path clip-path="url(#pc3afe251f1)" d="M 62.27621 568.06775 
L 62.691209 561.2931 
L 63.529887 549.936911 
L 65.207241 531.441007 
L 66.884596 516.116637 
L 71.91666 473.323591 
L 73.594015 455.455002 
L 76.110047 424.467459 
L 76.948724 417.874018 
L 77.787402 416.675484 
L 78.626079 420.016123 
L 80.303434 430.380813 
L 81.142111 434.658582 
L 81.980789 437.915815 
L 82.819466 440.245716 
L 83.658143 441.807262 
L 84.496821 442.757547 
L 85.335498 443.230858 
L 86.174175 443.335423 
L 87.012853 443.156145 
L 87.85153 442.758824 
L 89.528885 441.501486 
L 91.206239 439.845845 
L 93.722272 436.967873 
L 99.593013 429.704668 
L 105.463755 422.614754 
L 112.173173 414.96448 
L 115.527883 411.155705 
L 118.882592 408.189885 
L 128.94672 399.244854 
L 134.817462 394.426969 
L 140.688203 389.898675 
L 147.397622 385.018503 
L 159.139105 376.867997 
L 175.912652 366.128947 
L 180.944716 362.613582 
L 184.299426 360.060497 
L 187.654135 357.216787 
L 190.170167 354.787152 
L 192.686199 351.970852 
L 194.363554 349.788373 
L 196.040909 347.26964 
L 197.718264 344.301214 
L 199.395618 340.724179 
L 201.072973 336.313709 
L 202.750328 330.749957 
L 203.589005 327.400348 
L 204.427682 323.579793 
L 205.26636 319.204651 
L 206.105037 314.180882 
L 206.943714 308.409834 
L 208.621069 294.338303 
L 211.137101 270.402551 
L 211.975779 266.203395 
L 212.814456 266.835572 
L 213.653133 271.837083 
L 217.007843 300.64799 
L 217.84652 306.250032 
L 218.685197 311.042508 
L 219.523875 315.119805 
L 220.362552 318.580413 
L 221.201229 321.515236 
L 222.039907 324.004018 
L 222.878584 326.11504 
L 223.717262 327.906054 
L 224.555939 329.425616 
L 226.233294 331.806599 
L 227.910648 333.510744 
L 229.588003 334.716156 
L 231.265358 335.54937 
L 232.942712 336.101252 
L 234.620067 336.437845 
L 237.136099 336.641874 
L 239.652131 336.583336 
L 243.006841 336.224535 
L 247.200227 335.478156 
L 252.232292 334.312251 
L 258.94171 332.493236 
L 268.167161 329.728642 
L 279.908644 325.970088 
L 290.81145 322.272028 
L 299.198223 319.198139 
L 305.068965 316.797548 
L 309.262352 314.828195 
L 312.617061 312.963872 
L 315.133093 311.268424 
L 316.810448 309.908194 
L 318.487803 308.26558 
L 320.165157 306.196341 
L 321.003835 304.931128 
L 321.842512 303.455675 
L 322.681189 301.70941 
L 323.519867 299.610543 
L 324.358544 297.048822 
L 325.197221 293.879817 
L 326.035899 289.936365 
L 326.874576 285.110178 
L 328.551931 273.33433 
L 330.229286 260.18915 
L 331.067963 256.848066 
L 331.90664 258.505593 
L 332.745318 264.088677 
L 334.422672 277.309103 
L 335.26135 282.574546 
L 336.100027 286.709445 
L 336.938704 289.877212 
L 337.777382 292.271877 
L 338.616059 294.064264 
L 339.454736 295.392086 
L 340.293414 296.366148 
L 341.132091 297.073246 
L 341.970769 297.569709 
L 342.809446 297.891488 
L 343.648123 298.068277 
L 345.325478 298.081228 
L 347.002833 297.74733 
L 348.680187 297.14446 
L 350.357542 296.312819 
L 352.034897 295.268056 
L 353.712252 294.007702 
L 355.389606 292.513742 
L 357.066961 290.752618 
L 358.744316 288.673123 
L 360.42167 286.20212 
L 362.099025 283.23764 
L 363.77638 279.638415 
L 365.453734 275.208406 
L 367.131089 269.674172 
L 368.808444 262.652518 
L 369.647121 258.423849 
L 370.485799 253.608552 
L 371.324476 248.110855 
L 372.163153 241.827833 
L 373.840508 226.583377 
L 376.35654 200.82488 
L 377.195217 196.777488 
L 378.033895 198.368007 
L 378.872572 204.687078 
L 381.388604 229.919249 
L 383.065959 243.236468 
L 383.904636 248.570718 
L 384.743314 253.147113 
L 386.420668 260.482733 
L 387.259346 263.431551 
L 388.098023 265.969055 
L 388.9367 268.147096 
L 390.614055 271.61792 
L 392.29141 274.161367 
L 393.968765 276.002742 
L 395.646119 277.303344 
L 397.323474 278.17971 
L 399.000829 278.716307 
L 400.678183 278.974151 
L 402.355538 278.99668 
L 404.032893 278.813703 
L 405.710247 278.443922 
L 407.387602 277.896321 
L 409.064957 277.17054 
L 410.742312 276.256169 
L 412.419666 275.130656 
L 414.097021 273.755092 
L 415.774376 272.066264 
L 417.45173 269.961291 
L 419.129085 267.265549 
L 419.967763 265.605344 
L 420.80644 263.657686 
L 421.645117 261.327792 
L 422.483795 258.471621 
L 423.322472 254.872139 
L 424.161149 250.258631 
L 425.838504 238.58443 
L 426.677181 234.067682 
L 427.515859 232.893772 
L 428.354536 232.375308 
L 429.193213 229.612567 
L 430.031891 224.828872 
L 430.870568 218.84439 
L 431.709245 211.233095 
L 433.3866 194.803712 
L 434.225278 191.506833 
L 435.063955 194.644903 
L 435.902632 202.317328 
L 437.579987 219.791508 
L 438.418664 227.108047 
L 439.257342 233.198801 
L 440.096019 238.181858 
L 440.934696 242.218847 
L 441.773374 245.464835 
L 442.612051 248.053261 
L 443.450728 250.093285 
L 444.289406 251.671153 
L 445.128083 252.852383 
L 445.966761 253.68343 
L 446.805438 254.192053 
L 447.644115 254.385589 
L 448.482793 254.245861 
L 449.32147 253.71867 
L 450.160147 252.695682 
L 450.998825 250.995236 
L 451.837502 248.408388 
L 453.514857 242.1471 
L 454.353534 240.019585 
L 455.192211 237.089114 
L 456.030889 233.753198 
L 456.869566 233.186039 
L 457.708243 236.539859 
L 458.546921 241.124805 
L 459.385598 244.846764 
L 460.224276 247.339795 
L 461.062953 248.853519 
L 461.90163 249.674333 
L 462.740308 250.002077 
L 463.578985 249.952884 
L 464.417662 249.577572 
L 465.25634 248.875781 
L 466.095017 247.822734 
L 467.772372 245.245901 
L 468.611049 244.800557 
L 471.127081 245.624456 
L 471.965759 245.460881 
L 472.804436 245.090261 
L 474.481791 243.959561 
L 476.159145 242.505285 
L 477.8365 240.799464 
L 479.513855 238.721278 
L 481.191209 236.425605 
L 482.868564 234.973122 
L 484.545919 233.077516 
L 487.061951 229.728487 
L 489.577983 226.012832 
L 492.094015 221.945485 
L 494.610047 217.491832 
L 497.126079 212.597058 
L 499.642111 207.186867 
L 502.158143 201.161513 
L 504.674175 194.383934 
L 506.35153 189.354111 
L 508.028885 183.823516 
L 509.706239 177.680093 
L 511.383594 170.759654 
L 513.060949 162.803283 
L 514.738304 153.389919 
L 516.415658 142.168601 
L 518.093013 131.09974 
L 518.93169 126.06385 
L 519.770368 120.311069 
L 521.447722 106.667793 
L 524.802432 78.368157 
L 525.641109 76.282132 
L 526.479787 78.950344 
L 527.318464 85.309592 
L 530.673173 117.727679 
L 532.350528 131.059186 
L 534.027883 142.224145 
L 535.705237 151.6916 
L 537.382592 159.842624 
L 539.059947 166.957745 
L 540.737302 173.241488 
L 542.414656 178.844871 
L 544.092011 183.881463 
L 546.608043 190.558538 
L 549.124075 196.369464 
L 551.640107 201.468305 
L 554.156139 205.965917 
L 556.672171 209.941526 
L 559.188203 213.448153 
L 561.704235 216.5122 
L 564.220268 219.124285 
L 565.897622 220.582733 
L 567.574977 221.759357 
L 569.252332 222.554176 
L 570.091009 222.752507 
L 570.929686 222.768243 
L 571.768364 222.54265 
L 572.607041 221.989576 
L 573.445718 220.982005 
L 574.284396 219.33414 
L 575.123073 216.784692 
L 575.961751 213.009182 
L 576.800428 207.758325 
L 578.477783 195.82674 
L 579.31646 194.715369 
L 580.155137 199.113946 
L 581.832492 212.44951 
L 582.671169 217.682996 
L 583.509847 221.699065 
L 584.348524 224.766414 
L 585.187201 227.140597 
L 586.025879 229.01534 
L 586.864556 230.527852 
L 587.703233 231.773538 
L 589.380588 233.710314 
L 591.057943 235.155278 
L 592.735298 236.276738 
L 594.412652 237.158746 
L 596.090007 237.822957 
L 597.767362 238.17933 
L 598.606039 238.132628 
L 599.444716 237.885159 
L 600.283394 237.835475 
L 602.799426 239.370269 
L 603.638103 239.588886 
L 605.315458 239.684167 
L 606.154135 239.563613 
L 606.992813 239.301848 
L 607.83149 238.871805 
L 609.508845 237.717535 
L 610.347522 237.489669 
L 611.186199 237.824546 
L 613.702231 239.839563 
L 614.540909 240.273956 
L 616.218264 240.794163 
L 617.895618 241.029957 
L 620.41165 241.097142 
L 622.927682 240.95464 
L 626.282392 240.530852 
L 629.637101 239.87412 
L 632.991811 238.988039 
L 636.34652 237.859504 
L 639.701229 236.464351 
L 643.055939 234.768205 
L 645.571971 233.27156 
L 648.088003 231.555984 
L 650.604035 229.592149 
L 653.120067 227.344489 
L 655.636099 224.769742 
L 658.152131 221.814987 
L 660.668163 218.414942 
L 663.184195 214.488159 
L 664.86155 211.527845 
L 666.538905 208.25064 
L 668.21626 204.611574 
L 669.893614 200.556093 
L 671.570969 196.017041 
L 673.248324 190.91033 
L 674.925678 185.12861 
L 676.603033 178.531837 
L 678.280388 170.93304 
L 679.957742 162.077032 
L 681.635097 151.610867 
L 683.312452 139.057265 
L 684.989807 123.880929 
L 688.344516 90.450554 
L 689.183193 87.549314 
L 690.021871 89.954532 
L 690.860548 96.550235 
L 694.215258 130.374785 
L 695.892612 143.955698 
L 697.569967 155.157811 
L 699.247322 164.514604 
L 700.924676 172.444364 
L 702.602031 179.250826 
L 704.279386 185.154585 
L 705.95674 190.318922 
L 707.634095 194.867511 
L 709.31145 198.896165 
L 710.988805 202.480653 
L 712.666159 205.682 
L 714.343514 208.550145 
L 716.859546 212.316384 
L 719.375578 215.537815 
L 721.89161 218.303369 
L 724.407642 220.684137 
L 726.923674 222.737748 
L 729.439706 224.511436 
L 731.955738 226.044267 
L 734.471771 227.368785 
L 737.82648 228.857269 
L 741.181189 230.076501 
L 744.535899 231.068955 
L 748.729286 232.041852 
L 752.922672 232.764724 
L 757.116059 233.272284 
L 760.470769 233.515227 
L 762.148123 233.519534 
L 763.825478 233.371962 
L 767.180187 233.763471 
L 770.534897 233.761127 
L 773.889606 233.518737 
L 775.566961 233.217051 
L 777.244316 232.642222 
L 778.92167 231.80699 
L 779.760348 231.600698 
L 780.599025 231.732884 
L 783.115057 232.607991 
L 784.792412 232.827487 
L 787.308444 232.827197 
L 790.663153 232.569616 
L 794.85654 232.037333 
L 799.049927 231.30347 
L 802.404636 230.531207 
L 804.920668 229.790394 
L 807.4367 228.822516 
L 809.114055 227.962454 
L 810.79141 226.810704 
L 814.146119 223.854559 
L 814.984797 222.938187 
L 815.823474 221.839478 
L 816.662151 220.489147 
L 820.016861 214.106052 
L 820.855538 211.865844 
L 821.694215 208.711302 
L 822.532893 204.498536 
L 823.37157 199.079981 
L 824.210247 192.399083 
L 825.887602 177.725661 
L 826.72628 173.955024 
L 827.564957 175.745949 
L 828.403634 181.857405 
L 830.080989 196.039249 
L 830.919666 201.560509 
L 831.758344 205.840024 
L 832.597021 209.134609 
L 833.435698 211.738408 
L 834.274376 213.819509 
L 835.113053 215.448779 
L 835.95173 216.695476 
L 836.790408 217.634993 
L 837.629085 218.332972 
L 838.467763 218.84065 
L 839.30644 219.196613 
L 840.983795 219.561689 
L 842.661149 219.583666 
L 844.338504 219.351813 
L 846.015859 218.917573 
L 847.693213 218.309371 
L 850.209245 217.096861 
L 852.725278 215.520589 
L 854.402632 214.247082 
L 856.079987 212.76719 
L 857.757342 211.042836 
L 859.434696 209.017877 
L 861.112051 206.607755 
L 862.789406 203.679266 
L 864.466761 200.009065 
L 865.305438 197.781271 
L 866.144115 195.195081 
L 866.982793 192.142494 
L 867.82147 188.476065 
L 868.660147 184.008763 
L 869.498825 178.559506 
L 871.176179 165.598495 
L 872.014857 161.135865 
L 872.853534 161.030885 
L 874.530889 167.390844 
L 875.369566 169.09219 
L 876.208243 169.061186 
L 877.046921 167.587717 
L 877.885598 164.973035 
L 878.724276 161.419645 
L 879.562953 157.035946 
L 880.40163 151.861166 
L 881.240308 145.888281 
L 882.917662 131.430032 
L 886.272372 98.520061 
L 887.111049 96.122687 
L 887.949726 99.173138 
L 888.788404 106.243415 
L 891.304436 132.208702 
L 892.981791 146.542312 
L 894.659145 158.028043 
L 896.3365 167.266973 
L 896.3365 167.266973 
" style="fill:none;stroke:#0000ff;stroke-linecap:square;stroke-width:1.7;"/>
   </g>
   <g id="line2d_86">
    <path clip-path="url(#pc3afe251f1)" d="M 59.3365 522.670226 
L 60.175177 515.550752 
L 61.013855 512.894204 
L 62.691209 508.203836 
L 64.368564 502.617251 
L 66.045919 496.101567 
L 67.723274 488.72659 
L 69.400628 480.317014 
L 71.077983 470.310134 
L 71.91666 464.388506 
L 72.755338 457.615467 
L 73.594015 449.806846 
L 76.110047 422.035614 
L 76.948724 415.80918 
L 77.787402 414.584534 
L 78.626079 417.55986 
L 80.303434 426.561642 
L 81.142111 430.032284 
L 81.980789 432.486685 
L 82.819466 434.049968 
L 83.658143 434.892575 
L 84.496821 435.170055 
L 85.335498 435.007958 
L 86.174175 434.502352 
L 87.012853 433.724679 
L 87.85153 432.726973 
L 89.528885 430.207712 
L 91.206239 427.113331 
L 92.883594 423.483181 
L 94.560949 419.248939 
L 96.238304 414.217848 
L 97.915658 407.997932 
L 98.754336 404.215117 
L 99.593013 399.753411 
L 100.43169 394.212566 
L 101.270368 386.587112 
L 102.109045 375.432547 
L 102.947722 359.791165 
L 104.625077 322.797264 
L 105.463755 307.650651 
L 106.302432 297.259645 
L 107.141109 291.267841 
L 107.979787 288.386753 
L 108.818464 286.307957 
L 109.657141 285.504267 
L 110.495819 287.484622 
L 111.334496 294.968281 
L 112.173173 308.351011 
L 114.689205 360.165163 
L 115.527883 372.516457 
L 116.36656 380.42857 
L 117.205237 385.350769 
L 118.043915 388.623981 
L 118.882592 390.96247 
L 119.72127 392.657903 
L 120.559947 393.880999 
L 121.398624 394.746195 
L 122.237302 395.334702 
L 123.075979 395.706106 
L 123.914656 395.905144 
L 124.753334 395.965994 
L 126.430688 395.773335 
L 128.108043 395.279308 
L 129.785398 394.579931 
L 132.30143 393.277165 
L 135.656139 391.251173 
L 139.849526 388.454218 
L 144.042913 385.435562 
L 147.397622 382.760733 
L 149.074977 381.228955 
L 150.752332 379.413201 
L 151.591009 378.313693 
L 152.429686 376.997337 
L 153.268364 375.339007 
L 154.107041 373.118858 
L 154.945718 369.941435 
L 155.784396 365.120167 
L 156.623073 357.779528 
L 157.461751 348.792867 
L 158.300428 345.816038 
L 159.977783 360.588106 
L 160.81646 365.552057 
L 161.655137 368.31206 
L 162.493815 369.782567 
L 163.332492 370.519747 
L 164.171169 370.827865 
L 165.009847 370.874329 
L 166.687201 370.52445 
L 168.364556 369.860445 
L 170.880588 368.586261 
L 174.235298 366.633348 
L 178.428684 363.95118 
L 182.622071 361.004615 
L 185.976781 358.376347 
L 188.492813 356.165902 
L 191.008845 353.652818 
L 192.686199 351.743107 
L 194.363554 349.57886 
L 196.040909 347.078554 
L 197.718264 344.129138 
L 199.395618 340.572034 
L 201.072973 336.182648 
L 202.750328 330.641159 
L 203.589005 327.303033 
L 204.427682 323.494082 
L 205.26636 319.130525 
L 206.105037 314.118134 
L 206.943714 308.358016 
L 208.621069 294.30581 
L 211.137101 270.387851 
L 211.975779 266.190583 
L 212.814456 266.822443 
L 213.653133 271.821507 
L 217.007843 300.606505 
L 217.84652 306.199783 
L 218.685197 310.983264 
L 219.523875 315.051598 
L 220.362552 318.503483 
L 221.201229 321.429972 
L 222.039907 323.910906 
L 222.878584 326.014625 
L 223.717262 327.798906 
L 224.555939 329.312305 
L 226.233294 331.682606 
L 227.910648 333.378055 
L 229.588003 334.57647 
L 231.265358 335.404096 
L 232.942712 335.951548 
L 234.620067 336.284649 
L 237.136099 336.484819 
L 239.652131 336.423676 
L 243.006841 336.062786 
L 247.200227 335.315298 
L 252.232292 334.149438 
L 258.94171 332.331831 
L 268.167161 329.570514 
L 279.908644 325.817363 
L 290.81145 322.125367 
L 299.198223 319.057199 
L 305.068965 316.661674 
L 309.262352 314.696975 
L 312.617061 312.837493 
L 315.133093 311.146776 
L 316.810448 309.790508 
L 318.487803 308.152796 
L 320.165157 306.089784 
L 321.003835 304.828348 
L 321.842512 303.357233 
L 322.681189 301.615971 
L 323.519867 299.522893 
L 324.358544 296.967864 
L 325.197221 293.806541 
L 326.035899 289.87174 
L 326.874576 285.05484 
L 328.551931 273.296537 
L 330.229286 260.164496 
L 331.067963 256.825878 
L 331.90664 258.481987 
L 332.745318 264.060036 
L 334.422672 277.263938 
L 335.26135 282.520323 
L 336.100027 286.64676 
L 336.938704 289.807048 
L 337.777382 292.19534 
L 338.616059 293.982434 
L 339.454736 295.305937 
L 340.293414 296.27651 
L 341.132091 296.980794 
L 341.970769 297.47501 
L 342.809446 297.795038 
L 343.648123 297.970499 
L 345.325478 297.981814 
L 347.002833 297.647304 
L 348.680187 297.04457 
L 350.357542 296.21362 
L 352.034897 295.169953 
L 353.712252 293.910963 
L 355.389606 292.418465 
L 357.066961 290.658634 
L 358.744316 288.579751 
L 360.42167 286.107572 
L 362.099025 283.13735 
L 363.77638 279.519417 
L 365.453734 275.025471 
L 367.131089 269.31327 
L 368.808444 262.461789 
L 369.647121 258.316451 
L 370.485799 253.542508 
L 371.324476 248.06702 
L 372.163153 241.797416 
L 373.840508 226.568164 
L 376.35654 200.819173 
L 377.195217 196.772598 
L 378.033895 198.362917 
L 378.872572 204.680842 
L 381.388604 229.904835 
L 383.065959 243.21382 
L 383.904636 248.543498 
L 384.743314 253.115173 
L 386.420668 260.441197 
L 387.259346 263.385228 
L 388.098023 265.918038 
L 388.9367 268.091514 
L 390.614055 271.55362 
L 392.29141 274.088835 
L 393.968765 275.922265 
L 395.646119 277.214897 
L 397.323474 278.082822 
L 399.000829 278.609872 
L 400.678183 278.856108 
L 402.355538 278.863431 
L 404.032893 278.658955 
L 405.710247 278.256213 
L 407.387602 277.653098 
L 409.064957 276.821781 
L 410.742312 275.669124 
L 411.580989 274.889031 
L 412.419666 273.85209 
L 413.258344 272.354016 
L 414.097021 270.293557 
L 414.935698 269.013273 
L 415.774376 269.419162 
L 416.613053 269.576676 
L 417.45173 269.072601 
L 418.290408 268.131089 
L 419.129085 266.872189 
L 419.967763 265.320273 
L 420.80644 263.443364 
L 421.645117 261.162746 
L 422.483795 258.342998 
L 423.322472 254.771989 
L 424.161149 250.181755 
L 425.838504 238.540732 
L 426.677181 234.032622 
L 427.515859 232.86201 
L 428.354536 232.345656 
L 429.193213 229.58671 
L 430.031891 224.807675 
L 430.870568 218.827612 
L 431.709245 211.220464 
L 433.3866 194.79676 
L 434.225278 191.500724 
L 435.063955 194.638228 
L 435.902632 202.308819 
L 437.579987 219.776569 
L 438.418664 227.089124 
L 439.257342 233.175758 
L 440.096019 238.154781 
L 440.934696 242.187979 
L 441.773374 245.430521 
L 442.612051 248.015901 
L 443.450728 250.053301 
L 444.289406 251.628966 
L 445.128083 252.808405 
L 445.966761 253.638063 
L 446.805438 254.145695 
L 447.644115 254.338651 
L 448.482793 254.198793 
L 449.32147 253.672003 
L 450.160147 252.65009 
L 450.998825 250.951602 
L 451.837502 248.36775 
L 453.514857 242.112807 
L 454.353534 239.986823 
L 455.192211 237.058495 
L 456.030889 233.724799 
L 456.869566 233.156928 
L 457.708243 236.505512 
L 458.546921 241.082072 
L 459.385598 244.794313 
L 460.224276 247.276762 
L 461.062953 248.778255 
L 461.90163 249.583386 
L 462.740308 249.888772 
L 463.578985 249.804385 
L 464.417662 249.368179 
L 465.25634 248.551855 
L 466.095017 247.285148 
L 466.933694 245.710076 
L 467.772372 244.61092 
L 468.611049 244.426484 
L 470.288404 245.350525 
L 471.127081 245.509636 
L 471.965759 245.370432 
L 472.804436 245.015578 
L 474.481791 243.903448 
L 476.159145 242.459536 
L 477.8365 240.760417 
L 479.513855 238.687256 
L 481.191209 236.395547 
L 482.868564 234.945424 
L 484.545919 233.052128 
L 487.061951 229.706317 
L 489.577983 225.993527 
L 492.094015 221.928769 
L 494.610047 217.477486 
L 497.126079 212.584891 
L 499.642111 207.176704 
L 502.158143 201.153183 
L 504.674175 194.377269 
L 506.35153 189.348462 
L 508.028885 183.818806 
L 509.706239 177.676245 
L 511.383594 170.75659 
L 513.060949 162.800925 
L 514.738304 153.388191 
L 516.415658 142.167409 
L 518.093013 131.098913 
L 518.93169 126.06315 
L 519.770368 120.310491 
L 521.447722 106.667425 
L 524.802432 78.368013 
L 525.641109 76.281997 
L 526.479787 78.950196 
L 527.318464 85.309409 
L 530.673173 117.727131 
L 532.350528 131.058325 
L 534.027883 142.222888 
L 535.705237 151.689865 
L 537.382592 159.840332 
L 539.059947 166.954821 
L 540.737302 173.23786 
L 542.414656 178.840471 
L 544.092011 183.876227 
L 546.608043 190.551939 
L 549.124075 196.361383 
L 551.640107 201.458643 
L 554.156139 205.954594 
L 556.672171 209.928488 
L 559.188203 213.433372 
L 561.704235 216.49569 
L 564.220268 219.106122 
L 565.897622 220.563559 
L 567.574977 221.739305 
L 569.252332 222.533474 
L 570.091009 222.731611 
L 570.929686 222.74728 
L 571.768364 222.521789 
L 572.607041 221.969043 
L 573.445718 220.9621 
L 574.284396 219.315253 
L 575.123073 216.767303 
L 575.961751 212.993816 
L 576.800428 207.745402 
L 578.477783 195.818025 
L 579.31646 194.706951 
L 580.155137 199.104165 
L 581.832492 212.434145 
L 582.671169 217.66464 
L 583.509847 221.678012 
L 584.348524 224.743022 
L 585.187201 227.115203 
L 586.025879 228.988229 
L 586.864556 230.499258 
L 587.703233 231.743647 
L 589.380588 233.67825 
L 591.057943 235.121445 
L 592.735298 236.241422 
L 594.412652 237.122177 
L 596.090007 237.785364 
L 597.767362 238.141081 
L 598.606039 238.094335 
L 599.444716 237.84708 
L 600.283394 237.797356 
L 602.799426 239.329812 
L 603.638103 239.548021 
L 605.315458 239.642946 
L 606.154135 239.522445 
L 606.992813 239.260927 
L 607.83149 238.831357 
L 609.508845 237.678402 
L 610.347522 237.450724 
L 611.186199 237.785052 
L 613.702231 239.796954 
L 614.540909 240.230599 
L 616.218264 240.749789 
L 617.895618 240.984969 
L 620.41165 241.051645 
L 622.927682 240.908938 
L 626.282392 240.485205 
L 629.637101 239.828837 
L 632.991811 238.943393 
L 636.34652 237.815735 
L 639.701229 236.421644 
L 643.055939 234.726623 
L 645.571971 233.230694 
L 648.088003 231.515394 
L 650.604035 229.550549 
L 653.120067 227.297654 
L 655.636099 224.697549 
L 657.313454 222.695944 
L 661.506841 217.115147 
L 663.184195 214.45369 
L 664.86155 211.501578 
L 666.538905 208.229109 
L 668.21626 204.593414 
L 669.893614 200.540658 
L 671.570969 196.003969 
L 673.248324 190.89938 
L 674.925678 185.119593 
L 676.603033 178.52458 
L 678.280388 170.927374 
L 679.957742 162.072776 
L 681.635097 151.60783 
L 683.312452 139.055236 
L 684.989807 123.879683 
L 688.344516 90.450124 
L 689.183193 87.548916 
L 690.021871 89.954091 
L 690.860548 96.549673 
L 694.215258 130.372798 
L 695.892612 143.952247 
L 697.569967 155.15208 
L 699.247322 164.505169 
L 700.924676 172.428295 
L 702.602031 179.220776 
L 704.279386 185.086855 
L 705.95674 190.109838 
L 709.31145 198.660489 
L 710.988805 202.371009 
L 712.666159 205.612471 
L 714.343514 208.49693 
L 716.859546 212.273137 
L 719.375578 215.498107 
L 721.89161 218.264644 
L 724.407642 220.645201 
L 726.923674 222.697988 
L 729.439706 224.470517 
L 731.955738 226.001992 
L 734.471771 227.325018 
L 737.82648 228.811308 
L 741.181189 230.027968 
L 744.535899 231.016995 
L 748.729286 231.981924 
L 752.922672 232.676058 
L 755.438704 232.912072 
L 756.277382 232.903647 
L 757.954736 232.610652 
L 761.309446 233.388593 
L 762.986801 233.345226 
L 763.825478 233.287541 
L 767.180187 233.697874 
L 770.534897 233.701805 
L 773.889606 233.462499 
L 775.566961 233.1621 
L 777.244316 232.588816 
L 778.92167 231.755399 
L 779.760348 231.549591 
L 780.599025 231.681659 
L 783.115057 232.555472 
L 784.792412 232.774667 
L 787.308444 232.774432 
L 790.663153 232.517279 
L 794.85654 231.985785 
L 799.049927 231.252968 
L 802.404636 230.481798 
L 804.920668 229.742038 
L 807.4367 228.775538 
L 809.114055 227.9167 
L 810.79141 226.76657 
L 814.146119 223.814378 
L 814.984797 222.89917 
L 815.823474 221.801819 
L 816.662151 220.453105 
L 820.016861 214.076786 
L 820.855538 211.838654 
L 821.694215 208.686803 
L 822.532893 204.477231 
L 823.37157 199.062185 
L 824.210247 192.384833 
L 825.887602 177.716917 
L 826.72628 173.947307 
L 827.564957 175.737744 
L 828.403634 181.847322 
L 830.080989 196.022995 
L 830.919666 201.540928 
L 831.758344 205.817395 
L 832.597021 209.109307 
L 833.435698 211.710763 
L 834.274376 213.789827 
L 835.113053 215.41739 
L 835.95173 216.662702 
L 836.790408 217.601125 
L 837.629085 218.298253 
L 838.467763 218.805286 
L 839.30644 219.160774 
L 840.983795 219.525306 
L 842.661149 219.547151 
L 844.338504 219.315476 
L 846.015859 218.881657 
L 847.693213 218.274077 
L 850.209245 217.062823 
L 852.725278 215.48816 
L 854.402632 214.215917 
L 856.079987 212.737445 
L 857.757342 211.014677 
L 859.434696 208.991488 
L 861.112051 206.583341 
L 862.789406 203.657067 
L 864.466761 199.989376 
L 865.305438 197.76297 
L 866.144115 195.178274 
L 866.982793 192.127297 
L 867.82147 188.462605 
L 868.660147 183.997155 
L 869.498825 178.54982 
L 871.176179 165.5922 
L 872.014857 161.130436 
L 872.853534 161.025468 
L 874.530889 167.384122 
L 875.369566 169.085064 
L 876.208243 169.054057 
L 877.046921 167.580921 
L 877.885598 164.9668 
L 878.724276 161.414102 
L 879.562953 157.031153 
L 880.40163 151.857129 
L 881.240308 145.884971 
L 882.917662 131.427986 
L 886.272372 98.519378 
L 887.111049 96.122055 
L 887.949726 99.172438 
L 888.788404 106.242526 
L 891.304436 132.206573 
L 892.981791 146.538861 
L 894.659145 158.02296 
L 896.3365 167.260028 
L 896.3365 167.260028 
" style="fill:none;stroke:#000000;stroke-linecap:square;stroke-width:1.7;"/>
   </g>
   <g id="patch_3">
    <path d="M 59.3365 524.3175 
L 59.3365 25.3575 
" style="fill:none;stroke:#aaaaaa;stroke-linecap:square;stroke-linejoin:miter;"/>
   </g>
   <g id="patch_4">
    <path d="M 896.3365 524.3175 
L 896.3365 25.3575 
" style="fill:none;stroke:#aaaaaa;stroke-linecap:square;stroke-linejoin:miter;"/>
   </g>
   <g id="patch_5">
    <path d="M 59.3365 524.3175 
L 896.3365 524.3175 
" style="fill:none;stroke:#aaaaaa;stroke-linecap:square;stroke-linejoin:miter;"/>
   </g>
   <g id="patch_6">
    <path d="M 59.3365 25.3575 
L 896.3365 25.3575 
" style="fill:none;stroke:#aaaaaa;stroke-linecap:square;stroke-linejoin:miter;"/>
   </g>
   <g id="text_14">
    <!-- Specific attenuation for standard conditions, according to ITU-R P.676 (10), annex 1 -->
    <defs>
     <path d="M 44.28125 53.078125 
L 44.28125 44.578125 
Q 40.484375 46.53125 36.375 47.5 
Q 32.28125 48.484375 27.875 48.484375 
Q 21.1875 48.484375 17.84375 46.4375 
Q 14.5 44.390625 14.5 40.28125 
Q 14.5 37.15625 16.890625 35.375 
Q 19.28125 33.59375 26.515625 31.984375 
L 29.59375 31.296875 
Q 39.15625 29.25 43.1875 25.515625 
Q 47.21875 21.78125 47.21875 15.09375 
Q 47.21875 7.46875 41.1875 3.015625 
Q 35.15625 -1.421875 24.609375 -1.421875 
Q 20.21875 -1.421875 15.453125 -0.5625 
Q 10.6875 0.296875 5.421875 2 
L 5.421875 11.28125 
Q 10.40625 8.6875 15.234375 7.390625 
Q 20.0625 6.109375 24.8125 6.109375 
Q 31.15625 6.109375 34.5625 8.28125 
Q 37.984375 10.453125 37.984375 14.40625 
Q 37.984375 18.0625 35.515625 20.015625 
Q 33.0625 21.96875 24.703125 23.78125 
L 21.578125 24.515625 
Q 13.234375 26.265625 9.515625 29.90625 
Q 5.8125 33.546875 5.8125 39.890625 
Q 5.8125 47.609375 11.28125 51.796875 
Q 16.75 56 26.8125 56 
Q 31.78125 56 36.171875 55.265625 
Q 40.578125 54.546875 44.28125 53.078125 
z
" id="DejaVuSans-73"/>
     <path d="M 11.71875 12.40625 
L 22.015625 12.40625 
L 22.015625 4 
L 14.015625 -11.625 
L 7.71875 -11.625 
L 11.71875 4 
z
" id="DejaVuSans-2c"/>
     <path d="M 45.40625 27.984375 
Q 45.40625 37.75 41.375 43.109375 
Q 37.359375 48.484375 30.078125 48.484375 
Q 22.859375 48.484375 18.828125 43.109375 
Q 14.796875 37.75 14.796875 27.984375 
Q 14.796875 18.265625 18.828125 12.890625 
Q 22.859375 7.515625 30.078125 7.515625 
Q 37.359375 7.515625 41.375 12.890625 
Q 45.40625 18.265625 45.40625 27.984375 
z
M 54.390625 6.78125 
Q 54.390625 -7.171875 48.1875 -13.984375 
Q 42 -20.796875 29.203125 -20.796875 
Q 24.46875 -20.796875 20.265625 -20.09375 
Q 16.0625 -19.390625 12.109375 -17.921875 
L 12.109375 -9.1875 
Q 16.0625 -11.328125 19.921875 -12.34375 
Q 23.78125 -13.375 27.78125 -13.375 
Q 36.625 -13.375 41.015625 -8.765625 
Q 45.40625 -4.15625 45.40625 5.171875 
L 45.40625 9.625 
Q 42.625 4.78125 38.28125 2.390625 
Q 33.9375 0 27.875 0 
Q 17.828125 0 11.671875 7.65625 
Q 5.515625 15.328125 5.515625 27.984375 
Q 5.515625 40.671875 11.671875 48.328125 
Q 17.828125 56 27.875 56 
Q 33.9375 56 38.28125 53.609375 
Q 42.625 51.21875 45.40625 46.390625 
L 45.40625 54.6875 
L 54.390625 54.6875 
z
" id="DejaVuSans-67"/>
     <path d="M 9.8125 72.90625 
L 19.671875 72.90625 
L 19.671875 0 
L 9.8125 0 
z
" id="DejaVuSans-49"/>
     <path d="M -0.296875 72.90625 
L 61.375 72.90625 
L 61.375 64.59375 
L 35.5 64.59375 
L 35.5 0 
L 25.59375 0 
L 25.59375 64.59375 
L -0.296875 64.59375 
z
" id="DejaVuSans-54"/>
     <path d="M 8.6875 72.90625 
L 18.609375 72.90625 
L 18.609375 28.609375 
Q 18.609375 16.890625 22.84375 11.734375 
Q 27.09375 6.59375 36.625 6.59375 
Q 46.09375 6.59375 50.34375 11.734375 
Q 54.59375 16.890625 54.59375 28.609375 
L 54.59375 72.90625 
L 64.5 72.90625 
L 64.5 27.390625 
Q 64.5 13.140625 57.4375 5.859375 
Q 50.390625 -1.421875 36.625 -1.421875 
Q 22.796875 -1.421875 15.734375 5.859375 
Q 8.6875 13.140625 8.6875 27.390625 
z
" id="DejaVuSans-55"/>
     <path d="M 4.890625 31.390625 
L 31.203125 31.390625 
L 31.203125 23.390625 
L 4.890625 23.390625 
z
" id="DejaVuSans-2d"/>
     <path d="M 44.390625 34.1875 
Q 47.5625 33.109375 50.5625 29.59375 
Q 53.5625 26.078125 56.59375 19.921875 
L 66.609375 0 
L 56 0 
L 46.6875 18.703125 
Q 43.0625 26.03125 39.671875 28.421875 
Q 36.28125 30.8125 30.421875 30.8125 
L 19.671875 30.8125 
L 19.671875 0 
L 9.8125 0 
L 9.8125 72.90625 
L 32.078125 72.90625 
Q 44.578125 72.90625 50.734375 67.671875 
Q 56.890625 62.453125 56.890625 51.90625 
Q 56.890625 45.015625 53.6875 40.46875 
Q 50.484375 35.9375 44.390625 34.1875 
z
M 19.671875 64.796875 
L 19.671875 38.921875 
L 32.078125 38.921875 
Q 39.203125 38.921875 42.84375 42.21875 
Q 46.484375 45.515625 46.484375 51.90625 
Q 46.484375 58.296875 42.84375 61.546875 
Q 39.203125 64.796875 32.078125 64.796875 
z
" id="DejaVuSans-52"/>
     <path d="M 19.671875 64.796875 
L 19.671875 37.40625 
L 32.078125 37.40625 
Q 38.96875 37.40625 42.71875 40.96875 
Q 46.484375 44.53125 46.484375 51.125 
Q 46.484375 57.671875 42.71875 61.234375 
Q 38.96875 64.796875 32.078125 64.796875 
z
M 9.8125 72.90625 
L 32.078125 72.90625 
Q 44.34375 72.90625 50.609375 67.359375 
Q 56.890625 61.8125 56.890625 51.125 
Q 56.890625 40.328125 50.609375 34.8125 
Q 44.34375 29.296875 32.078125 29.296875 
L 19.671875 29.296875 
L 19.671875 0 
L 9.8125 0 
z
" id="DejaVuSans-50"/>
     <path d="M 10.6875 12.40625 
L 21 12.40625 
L 21 0 
L 10.6875 0 
z
" id="DejaVuSans-2e"/>
     <path d="M 8.203125 72.90625 
L 55.078125 72.90625 
L 55.078125 68.703125 
L 28.609375 0 
L 18.3125 0 
L 43.21875 64.59375 
L 8.203125 64.59375 
z
" id="DejaVuSans-37"/>
     <path d="M 31 75.875 
Q 24.46875 64.65625 21.28125 53.65625 
Q 18.109375 42.671875 18.109375 31.390625 
Q 18.109375 20.125 21.3125 9.0625 
Q 24.515625 -2 31 -13.1875 
L 23.1875 -13.1875 
Q 15.875 -1.703125 12.234375 9.375 
Q 8.59375 20.453125 8.59375 31.390625 
Q 8.59375 42.28125 12.203125 53.3125 
Q 15.828125 64.359375 23.1875 75.875 
z
" id="DejaVuSans-28"/>
     <path d="M 8.015625 75.875 
L 15.828125 75.875 
Q 23.140625 64.359375 26.78125 53.3125 
Q 30.421875 42.28125 30.421875 31.390625 
Q 30.421875 20.453125 26.78125 9.375 
Q 23.140625 -1.703125 15.828125 -13.1875 
L 8.015625 -13.1875 
Q 14.5 -2 17.703125 9.0625 
Q 20.90625 20.125 20.90625 31.390625 
Q 20.90625 42.671875 17.703125 53.65625 
Q 14.5 64.65625 8.015625 75.875 
z
" id="DejaVuSans-29"/>
     <path d="M 54.890625 54.6875 
L 35.109375 28.078125 
L 55.90625 0 
L 45.3125 0 
L 29.390625 21.484375 
L 13.484375 0 
L 2.875 0 
L 24.125 28.609375 
L 4.6875 54.6875 
L 15.28125 54.6875 
L 29.78125 35.203125 
L 44.28125 54.6875 
z
" id="DejaVuSans-78"/>
    </defs>
    <g transform="translate(141.66275 19.3575)scale(0.16 -0.16)">
     <use xlink:href="#DejaVuSans-53"/>
     <use x="63.476562" xlink:href="#DejaVuSans-70"/>
     <use x="126.953125" xlink:href="#DejaVuSans-65"/>
     <use x="188.476562" xlink:href="#DejaVuSans-63"/>
     <use x="243.457031" xlink:href="#DejaVuSans-69"/>
     <use x="271.240234" xlink:href="#DejaVuSans-66"/>
     <use x="306.445312" xlink:href="#DejaVuSans-69"/>
     <use x="334.228516" xlink:href="#DejaVuSans-63"/>
     <use x="389.208984" xlink:href="#DejaVuSans-20"/>
     <use x="420.996094" xlink:href="#DejaVuSans-61"/>
     <use x="482.275391" xlink:href="#DejaVuSans-74"/>
     <use x="521.484375" xlink:href="#DejaVuSans-74"/>
     <use x="560.693359" xlink:href="#DejaVuSans-65"/>
     <use x="622.216797" xlink:href="#DejaVuSans-6e"/>
     <use x="685.595703" xlink:href="#DejaVuSans-75"/>
     <use x="748.974609" xlink:href="#DejaVuSans-61"/>
     <use x="810.253906" xlink:href="#DejaVuSans-74"/>
     <use x="849.462891" xlink:href="#DejaVuSans-69"/>
     <use x="877.246094" xlink:href="#DejaVuSans-6f"/>
     <use x="938.427734" xlink:href="#DejaVuSans-6e"/>
     <use x="1001.806641" xlink:href="#DejaVuSans-20"/>
     <use x="1033.59375" xlink:href="#DejaVuSans-66"/>
     <use x="1068.798828" xlink:href="#DejaVuSans-6f"/>
     <use x="1129.980469" xlink:href="#DejaVuSans-72"/>
     <use x="1171.09375" xlink:href="#DejaVuSans-20"/>
     <use x="1202.880859" xlink:href="#DejaVuSans-73"/>
     <use x="1254.980469" xlink:href="#DejaVuSans-74"/>
     <use x="1294.189453" xlink:href="#DejaVuSans-61"/>
     <use x="1355.46875" xlink:href="#DejaVuSans-6e"/>
     <use x="1418.847656" xlink:href="#DejaVuSans-64"/>
     <use x="1482.324219" xlink:href="#DejaVuSans-61"/>
     <use x="1543.603516" xlink:href="#DejaVuSans-72"/>
     <use x="1584.701172" xlink:href="#DejaVuSans-64"/>
     <use x="1648.177734" xlink:href="#DejaVuSans-20"/>
     <use x="1679.964844" xlink:href="#DejaVuSans-63"/>
     <use x="1734.945312" xlink:href="#DejaVuSans-6f"/>
     <use x="1796.126953" xlink:href="#DejaVuSans-6e"/>
     <use x="1859.505859" xlink:href="#DejaVuSans-64"/>
     <use x="1922.982422" xlink:href="#DejaVuSans-69"/>
     <use x="1950.765625" xlink:href="#DejaVuSans-74"/>
     <use x="1989.974609" xlink:href="#DejaVuSans-69"/>
     <use x="2017.757812" xlink:href="#DejaVuSans-6f"/>
     <use x="2078.939453" xlink:href="#DejaVuSans-6e"/>
     <use x="2142.318359" xlink:href="#DejaVuSans-73"/>
     <use x="2194.417969" xlink:href="#DejaVuSans-2c"/>
     <use x="2226.205078" xlink:href="#DejaVuSans-20"/>
     <use x="2257.992188" xlink:href="#DejaVuSans-61"/>
     <use x="2319.271484" xlink:href="#DejaVuSans-63"/>
     <use x="2374.251953" xlink:href="#DejaVuSans-63"/>
     <use x="2429.232422" xlink:href="#DejaVuSans-6f"/>
     <use x="2490.414062" xlink:href="#DejaVuSans-72"/>
     <use x="2531.511719" xlink:href="#DejaVuSans-64"/>
     <use x="2594.988281" xlink:href="#DejaVuSans-69"/>
     <use x="2622.771484" xlink:href="#DejaVuSans-6e"/>
     <use x="2686.150391" xlink:href="#DejaVuSans-67"/>
     <use x="2749.626953" xlink:href="#DejaVuSans-20"/>
     <use x="2781.414062" xlink:href="#DejaVuSans-74"/>
     <use x="2820.623047" xlink:href="#DejaVuSans-6f"/>
     <use x="2881.804688" xlink:href="#DejaVuSans-20"/>
     <use x="2913.591797" xlink:href="#DejaVuSans-49"/>
     <use x="2943.083984" xlink:href="#DejaVuSans-54"/>
     <use x="3004.167969" xlink:href="#DejaVuSans-55"/>
     <use x="3077.361328" xlink:href="#DejaVuSans-2d"/>
     <use x="3113.445312" xlink:href="#DejaVuSans-52"/>
     <use x="3182.927734" xlink:href="#DejaVuSans-20"/>
     <use x="3214.714844" xlink:href="#DejaVuSans-50"/>
     <use x="3274.783203" xlink:href="#DejaVuSans-2e"/>
     <use x="3306.570312" xlink:href="#DejaVuSans-36"/>
     <use x="3370.193359" xlink:href="#DejaVuSans-37"/>
     <use x="3433.816406" xlink:href="#DejaVuSans-36"/>
     <use x="3497.439453" xlink:href="#DejaVuSans-20"/>
     <use x="3529.226562" xlink:href="#DejaVuSans-28"/>
     <use x="3568.240234" xlink:href="#DejaVuSans-31"/>
     <use x="3631.863281" xlink:href="#DejaVuSans-30"/>
     <use x="3695.486328" xlink:href="#DejaVuSans-29"/>
     <use x="3734.5" xlink:href="#DejaVuSans-2c"/>
     <use x="3766.287109" xlink:href="#DejaVuSans-20"/>
     <use x="3798.074219" xlink:href="#DejaVuSans-61"/>
     <use x="3859.353516" xlink:href="#DejaVuSans-6e"/>
     <use x="3922.732422" xlink:href="#DejaVuSans-6e"/>
     <use x="3986.111328" xlink:href="#DejaVuSans-65"/>
     <use x="4047.619141" xlink:href="#DejaVuSans-78"/>
     <use x="4106.798828" xlink:href="#DejaVuSans-20"/>
     <use x="4138.585938" xlink:href="#DejaVuSans-31"/>
    </g>
   </g>
   <g id="legend_1">
    <g id="patch_7">
     <path d="M 67.7365 87.79875 
L 149.514625 87.79875 
Q 151.914625 87.79875 151.914625 85.39875 
L 151.914625 33.7575 
Q 151.914625 31.3575 149.514625 31.3575 
L 67.7365 31.3575 
Q 65.3365 31.3575 65.3365 33.7575 
L 65.3365 85.39875 
Q 65.3365 87.79875 67.7365 87.79875 
z
" style="fill:#ffffff;opacity:0.8;stroke:#cccccc;stroke-linejoin:miter;"/>
    </g>
    <g id="line2d_87">
     <path d="M 70.1365 41.075625 
L 94.1365 41.075625 
" style="fill:none;stroke:#ff0000;stroke-linecap:square;stroke-width:1.7;"/>
    </g>
    <g id="line2d_88"/>
    <g id="text_15">
     <!-- Dry air -->
     <defs>
      <path d="M 19.671875 64.796875 
L 19.671875 8.109375 
L 31.59375 8.109375 
Q 46.6875 8.109375 53.6875 14.9375 
Q 60.6875 21.78125 60.6875 36.53125 
Q 60.6875 51.171875 53.6875 57.984375 
Q 46.6875 64.796875 31.59375 64.796875 
z
M 9.8125 72.90625 
L 30.078125 72.90625 
Q 51.265625 72.90625 61.171875 64.09375 
Q 71.09375 55.28125 71.09375 36.53125 
Q 71.09375 17.671875 61.125 8.828125 
Q 51.171875 0 30.078125 0 
L 9.8125 0 
z
" id="DejaVuSans-44"/>
     </defs>
     <g transform="translate(103.7365 45.275625)scale(0.12 -0.12)">
      <use xlink:href="#DejaVuSans-44"/>
      <use x="77.001953" xlink:href="#DejaVuSans-72"/>
      <use x="118.115234" xlink:href="#DejaVuSans-79"/>
      <use x="177.294922" xlink:href="#DejaVuSans-20"/>
      <use x="209.082031" xlink:href="#DejaVuSans-61"/>
      <use x="270.361328" xlink:href="#DejaVuSans-69"/>
      <use x="298.144531" xlink:href="#DejaVuSans-72"/>
     </g>
    </g>
    <g id="line2d_89">
     <path d="M 70.1365 58.689375 
L 94.1365 58.689375 
" style="fill:none;stroke:#0000ff;stroke-linecap:square;stroke-width:1.7;"/>
    </g>
    <g id="line2d_90"/>
    <g id="text_16">
     <!-- Wet air -->
     <defs>
      <path d="M 3.328125 72.90625 
L 13.28125 72.90625 
L 28.609375 11.28125 
L 43.890625 72.90625 
L 54.984375 72.90625 
L 70.3125 11.28125 
L 85.59375 72.90625 
L 95.609375 72.90625 
L 77.296875 0 
L 64.890625 0 
L 49.515625 63.28125 
L 33.984375 0 
L 21.578125 0 
z
" id="DejaVuSans-57"/>
     </defs>
     <g transform="translate(103.7365 62.889375)scale(0.12 -0.12)">
      <use xlink:href="#DejaVuSans-57"/>
      <use x="98.798828" xlink:href="#DejaVuSans-65"/>
      <use x="160.322266" xlink:href="#DejaVuSans-74"/>
      <use x="199.53125" xlink:href="#DejaVuSans-20"/>
      <use x="231.318359" xlink:href="#DejaVuSans-61"/>
      <use x="292.597656" xlink:href="#DejaVuSans-69"/>
      <use x="320.380859" xlink:href="#DejaVuSans-72"/>
     </g>
    </g>
    <g id="line2d_91">
     <path d="M 70.1365 76.303125 
L 94.1365 76.303125 
" style="fill:none;stroke:#000000;stroke-linecap:square;stroke-width:1.7;"/>
    </g>
    <g id="line2d_92"/>
    <g id="text_17">
     <!-- Total -->
     <defs>
      <path d="M 9.421875 75.984375 
L 18.40625 75.984375 
L 18.40625 0 
L 9.421875 0 
z
" id="DejaVuSans-6c"/>
     </defs>
     <g transform="translate(103.7365 80.503125)scale(0.12 -0.12)">
      <use xlink:href="#DejaVuSans-54"/>
      <use x="60.818359" xlink:href="#DejaVuSans-6f"/>
      <use x="122" xlink:href="#DejaVuSans-74"/>
      <use x="161.208984" xlink:href="#DejaVuSans-61"/>
      <use x="222.488281" xlink:href="#DejaVuSans-6c"/>
     </g>
    </g>
   </g>
  </g>
 </g>
 <defs>
  <clipPath id="pc3afe251f1">
   <rect height="498.96" width="837" x="59.3365" y="25.3575"/>
  </clipPath>
 </defs>
</svg>
