<?xml version="1.0" encoding="utf-8" standalone="no"?>
<!DOCTYPE svg PUBLIC "-//W3C//DTD SVG 1.1//EN"
  "http://www.w3.org/Graphics/SVG/1.1/DTD/svg11.dtd">
<!-- Created with matplotlib (http://matplotlib.org/) -->
<svg height="648pt" version="1.1" viewBox="0 0 1080 648" width="1080pt" xmlns="http://www.w3.org/2000/svg" xmlns:xlink="http://www.w3.org/1999/xlink">
 <defs>
  <style type="text/css">
*{stroke-linecap:butt;stroke-linejoin:round;}
  </style>
 </defs>
 <g id="figure_1">
  <g id="patch_1">
   <path d="M 0 648 
L 1080 648 
L 1080 0 
L 0 0 
z
" style="fill:#ffffff;"/>
  </g>
  <g id="axes_1">
   <g id="patch_2">
    <path d="M 135 576.72 
L 972 576.72 
L 972 77.76 
L 135 77.76 
z
" style="fill:#ffffff;"/>
   </g>
   <g id="matplotlib.axis_1">
    <g id="xtick_1">
     <g id="line2d_1">
      <path clip-path="url(#p20c0e06267)" d="M 301.896794 576.72 
L 301.896794 77.76 
" style="fill:none;stroke:#b0b0b0;stroke-linecap:square;stroke-width:0.8;"/>
     </g>
     <g id="line2d_2">
      <defs>
       <path d="M 0 0 
L 0 3.5 
" id="me3e7f2bf40" style="stroke:#000000;stroke-width:0.8;"/>
      </defs>
      <g>
       <use style="stroke:#000000;stroke-width:0.8;" x="301.896794" xlink:href="#me3e7f2bf40" y="576.72"/>
      </g>
     </g>
     <g id="text_1">
      <!-- 200 -->
      <defs>
       <path d="M 19.1875 8.296875 
L 53.609375 8.296875 
L 53.609375 0 
L 7.328125 0 
L 7.328125 8.296875 
Q 12.9375 14.109375 22.625 23.890625 
Q 32.328125 33.6875 34.8125 36.53125 
Q 39.546875 41.84375 41.421875 45.53125 
Q 43.3125 49.21875 43.3125 52.78125 
Q 43.3125 58.59375 39.234375 62.25 
Q 35.15625 65.921875 28.609375 65.921875 
Q 23.96875 65.921875 18.8125 64.3125 
Q 13.671875 62.703125 7.8125 59.421875 
L 7.8125 69.390625 
Q 13.765625 71.78125 18.9375 73 
Q 24.125 74.21875 28.421875 74.21875 
Q 39.75 74.21875 46.484375 68.546875 
Q 53.21875 62.890625 53.21875 53.421875 
Q 53.21875 48.921875 51.53125 44.890625 
Q 49.859375 40.875 45.40625 35.40625 
Q 44.1875 33.984375 37.640625 27.21875 
Q 31.109375 20.453125 19.1875 8.296875 
z
" id="DejaVuSans-32"/>
       <path d="M 31.78125 66.40625 
Q 24.171875 66.40625 20.328125 58.90625 
Q 16.5 51.421875 16.5 36.375 
Q 16.5 21.390625 20.328125 13.890625 
Q 24.171875 6.390625 31.78125 6.390625 
Q 39.453125 6.390625 43.28125 13.890625 
Q 47.125 21.390625 47.125 36.375 
Q 47.125 51.421875 43.28125 58.90625 
Q 39.453125 66.40625 31.78125 66.40625 
z
M 31.78125 74.21875 
Q 44.046875 74.21875 50.515625 64.515625 
Q 56.984375 54.828125 56.984375 36.375 
Q 56.984375 17.96875 50.515625 8.265625 
Q 44.046875 -1.421875 31.78125 -1.421875 
Q 19.53125 -1.421875 13.0625 8.265625 
Q 6.59375 17.96875 6.59375 36.375 
Q 6.59375 54.828125 13.0625 64.515625 
Q 19.53125 74.21875 31.78125 74.21875 
z
" id="DejaVuSans-30"/>
      </defs>
      <g transform="translate(292.353044 591.318438)scale(0.1 -0.1)">
       <use xlink:href="#DejaVuSans-32"/>
       <use x="63.623047" xlink:href="#DejaVuSans-30"/>
       <use x="127.246094" xlink:href="#DejaVuSans-30"/>
      </g>
     </g>
    </g>
    <g id="xtick_2">
     <g id="line2d_3">
      <path clip-path="url(#p20c0e06267)" d="M 469.632265 576.72 
L 469.632265 77.76 
" style="fill:none;stroke:#b0b0b0;stroke-linecap:square;stroke-width:0.8;"/>
     </g>
     <g id="line2d_4">
      <g>
       <use style="stroke:#000000;stroke-width:0.8;" x="469.632265" xlink:href="#me3e7f2bf40" y="576.72"/>
      </g>
     </g>
     <g id="text_2">
      <!-- 400 -->
      <defs>
       <path d="M 37.796875 64.3125 
L 12.890625 25.390625 
L 37.796875 25.390625 
z
M 35.203125 72.90625 
L 47.609375 72.90625 
L 47.609375 25.390625 
L 58.015625 25.390625 
L 58.015625 17.1875 
L 47.609375 17.1875 
L 47.609375 0 
L 37.796875 0 
L 37.796875 17.1875 
L 4.890625 17.1875 
L 4.890625 26.703125 
z
" id="DejaVuSans-34"/>
      </defs>
      <g transform="translate(460.088515 591.318438)scale(0.1 -0.1)">
       <use xlink:href="#DejaVuSans-34"/>
       <use x="63.623047" xlink:href="#DejaVuSans-30"/>
       <use x="127.246094" xlink:href="#DejaVuSans-30"/>
      </g>
     </g>
    </g>
    <g id="xtick_3">
     <g id="line2d_5">
      <path clip-path="url(#p20c0e06267)" d="M 637.367735 576.72 
L 637.367735 77.76 
" style="fill:none;stroke:#b0b0b0;stroke-linecap:square;stroke-width:0.8;"/>
     </g>
     <g id="line2d_6">
      <g>
       <use style="stroke:#000000;stroke-width:0.8;" x="637.367735" xlink:href="#me3e7f2bf40" y="576.72"/>
      </g>
     </g>
     <g id="text_3">
      <!-- 600 -->
      <defs>
       <path d="M 33.015625 40.375 
Q 26.375 40.375 22.484375 35.828125 
Q 18.609375 31.296875 18.609375 23.390625 
Q 18.609375 15.53125 22.484375 10.953125 
Q 26.375 6.390625 33.015625 6.390625 
Q 39.65625 6.390625 43.53125 10.953125 
Q 47.40625 15.53125 47.40625 23.390625 
Q 47.40625 31.296875 43.53125 35.828125 
Q 39.65625 40.375 33.015625 40.375 
z
M 52.59375 71.296875 
L 52.59375 62.3125 
Q 48.875 64.0625 45.09375 64.984375 
Q 41.3125 65.921875 37.59375 65.921875 
Q 27.828125 65.921875 22.671875 59.328125 
Q 17.53125 52.734375 16.796875 39.40625 
Q 19.671875 43.65625 24.015625 45.921875 
Q 28.375 48.1875 33.59375 48.1875 
Q 44.578125 48.1875 50.953125 41.515625 
Q 57.328125 34.859375 57.328125 23.390625 
Q 57.328125 12.15625 50.6875 5.359375 
Q 44.046875 -1.421875 33.015625 -1.421875 
Q 20.359375 -1.421875 13.671875 8.265625 
Q 6.984375 17.96875 6.984375 36.375 
Q 6.984375 53.65625 15.1875 63.9375 
Q 23.390625 74.21875 37.203125 74.21875 
Q 40.921875 74.21875 44.703125 73.484375 
Q 48.484375 72.75 52.59375 71.296875 
z
" id="DejaVuSans-36"/>
      </defs>
      <g transform="translate(627.823985 591.318438)scale(0.1 -0.1)">
       <use xlink:href="#DejaVuSans-36"/>
       <use x="63.623047" xlink:href="#DejaVuSans-30"/>
       <use x="127.246094" xlink:href="#DejaVuSans-30"/>
      </g>
     </g>
    </g>
    <g id="xtick_4">
     <g id="line2d_7">
      <path clip-path="url(#p20c0e06267)" d="M 805.103206 576.72 
L 805.103206 77.76 
" style="fill:none;stroke:#b0b0b0;stroke-linecap:square;stroke-width:0.8;"/>
     </g>
     <g id="line2d_8">
      <g>
       <use style="stroke:#000000;stroke-width:0.8;" x="805.103206" xlink:href="#me3e7f2bf40" y="576.72"/>
      </g>
     </g>
     <g id="text_4">
      <!-- 800 -->
      <defs>
       <path d="M 31.78125 34.625 
Q 24.75 34.625 20.71875 30.859375 
Q 16.703125 27.09375 16.703125 20.515625 
Q 16.703125 13.921875 20.71875 10.15625 
Q 24.75 6.390625 31.78125 6.390625 
Q 38.8125 6.390625 42.859375 10.171875 
Q 46.921875 13.96875 46.921875 20.515625 
Q 46.921875 27.09375 42.890625 30.859375 
Q 38.875 34.625 31.78125 34.625 
z
M 21.921875 38.8125 
Q 15.578125 40.375 12.03125 44.71875 
Q 8.5 49.078125 8.5 55.328125 
Q 8.5 64.0625 14.71875 69.140625 
Q 20.953125 74.21875 31.78125 74.21875 
Q 42.671875 74.21875 48.875 69.140625 
Q 55.078125 64.0625 55.078125 55.328125 
Q 55.078125 49.078125 51.53125 44.71875 
Q 48 40.375 41.703125 38.8125 
Q 48.828125 37.15625 52.796875 32.3125 
Q 56.78125 27.484375 56.78125 20.515625 
Q 56.78125 9.90625 50.3125 4.234375 
Q 43.84375 -1.421875 31.78125 -1.421875 
Q 19.734375 -1.421875 13.25 4.234375 
Q 6.78125 9.90625 6.78125 20.515625 
Q 6.78125 27.484375 10.78125 32.3125 
Q 14.796875 37.15625 21.921875 38.8125 
z
M 18.3125 54.390625 
Q 18.3125 48.734375 21.84375 45.5625 
Q 25.390625 42.390625 31.78125 42.390625 
Q 38.140625 42.390625 41.71875 45.5625 
Q 45.3125 48.734375 45.3125 54.390625 
Q 45.3125 60.0625 41.71875 63.234375 
Q 38.140625 66.40625 31.78125 66.40625 
Q 25.390625 66.40625 21.84375 63.234375 
Q 18.3125 60.0625 18.3125 54.390625 
z
" id="DejaVuSans-38"/>
      </defs>
      <g transform="translate(795.559456 591.318438)scale(0.1 -0.1)">
       <use xlink:href="#DejaVuSans-38"/>
       <use x="63.623047" xlink:href="#DejaVuSans-30"/>
       <use x="127.246094" xlink:href="#DejaVuSans-30"/>
      </g>
     </g>
    </g>
    <g id="text_5">
     <!-- Frequency [GHz] -->
     <defs>
      <path d="M 9.8125 72.90625 
L 51.703125 72.90625 
L 51.703125 64.59375 
L 19.671875 64.59375 
L 19.671875 43.109375 
L 48.578125 43.109375 
L 48.578125 34.8125 
L 19.671875 34.8125 
L 19.671875 0 
L 9.8125 0 
z
" id="DejaVuSans-46"/>
      <path d="M 41.109375 46.296875 
Q 39.59375 47.171875 37.8125 47.578125 
Q 36.03125 48 33.890625 48 
Q 26.265625 48 22.1875 43.046875 
Q 18.109375 38.09375 18.109375 28.8125 
L 18.109375 0 
L 9.078125 0 
L 9.078125 54.6875 
L 18.109375 54.6875 
L 18.109375 46.1875 
Q 20.953125 51.171875 25.484375 53.578125 
Q 30.03125 56 36.53125 56 
Q 37.453125 56 38.578125 55.875 
Q 39.703125 55.765625 41.0625 55.515625 
z
" id="DejaVuSans-72"/>
      <path d="M 56.203125 29.59375 
L 56.203125 25.203125 
L 14.890625 25.203125 
Q 15.484375 15.921875 20.484375 11.0625 
Q 25.484375 6.203125 34.421875 6.203125 
Q 39.59375 6.203125 44.453125 7.46875 
Q 49.3125 8.734375 54.109375 11.28125 
L 54.109375 2.78125 
Q 49.265625 0.734375 44.1875 -0.34375 
Q 39.109375 -1.421875 33.890625 -1.421875 
Q 20.796875 -1.421875 13.15625 6.1875 
Q 5.515625 13.8125 5.515625 26.8125 
Q 5.515625 40.234375 12.765625 48.109375 
Q 20.015625 56 32.328125 56 
Q 43.359375 56 49.78125 48.890625 
Q 56.203125 41.796875 56.203125 29.59375 
z
M 47.21875 32.234375 
Q 47.125 39.59375 43.09375 43.984375 
Q 39.0625 48.390625 32.421875 48.390625 
Q 24.90625 48.390625 20.390625 44.140625 
Q 15.875 39.890625 15.1875 32.171875 
z
" id="DejaVuSans-65"/>
      <path d="M 14.796875 27.296875 
Q 14.796875 17.390625 18.875 11.75 
Q 22.953125 6.109375 30.078125 6.109375 
Q 37.203125 6.109375 41.296875 11.75 
Q 45.40625 17.390625 45.40625 27.296875 
Q 45.40625 37.203125 41.296875 42.84375 
Q 37.203125 48.484375 30.078125 48.484375 
Q 22.953125 48.484375 18.875 42.84375 
Q 14.796875 37.203125 14.796875 27.296875 
z
M 45.40625 8.203125 
Q 42.578125 3.328125 38.25 0.953125 
Q 33.9375 -1.421875 27.875 -1.421875 
Q 17.96875 -1.421875 11.734375 6.484375 
Q 5.515625 14.40625 5.515625 27.296875 
Q 5.515625 40.1875 11.734375 48.09375 
Q 17.96875 56 27.875 56 
Q 33.9375 56 38.25 53.625 
Q 42.578125 51.265625 45.40625 46.390625 
L 45.40625 54.6875 
L 54.390625 54.6875 
L 54.390625 -20.796875 
L 45.40625 -20.796875 
z
" id="DejaVuSans-71"/>
      <path d="M 8.5 21.578125 
L 8.5 54.6875 
L 17.484375 54.6875 
L 17.484375 21.921875 
Q 17.484375 14.15625 20.5 10.265625 
Q 23.53125 6.390625 29.59375 6.390625 
Q 36.859375 6.390625 41.078125 11.03125 
Q 45.3125 15.671875 45.3125 23.6875 
L 45.3125 54.6875 
L 54.296875 54.6875 
L 54.296875 0 
L 45.3125 0 
L 45.3125 8.40625 
Q 42.046875 3.421875 37.71875 1 
Q 33.40625 -1.421875 27.6875 -1.421875 
Q 18.265625 -1.421875 13.375 4.4375 
Q 8.5 10.296875 8.5 21.578125 
z
M 31.109375 56 
z
" id="DejaVuSans-75"/>
      <path d="M 54.890625 33.015625 
L 54.890625 0 
L 45.90625 0 
L 45.90625 32.71875 
Q 45.90625 40.484375 42.875 44.328125 
Q 39.84375 48.1875 33.796875 48.1875 
Q 26.515625 48.1875 22.3125 43.546875 
Q 18.109375 38.921875 18.109375 30.90625 
L 18.109375 0 
L 9.078125 0 
L 9.078125 54.6875 
L 18.109375 54.6875 
L 18.109375 46.1875 
Q 21.34375 51.125 25.703125 53.5625 
Q 30.078125 56 35.796875 56 
Q 45.21875 56 50.046875 50.171875 
Q 54.890625 44.34375 54.890625 33.015625 
z
" id="DejaVuSans-6e"/>
      <path d="M 48.78125 52.59375 
L 48.78125 44.1875 
Q 44.96875 46.296875 41.140625 47.34375 
Q 37.3125 48.390625 33.40625 48.390625 
Q 24.65625 48.390625 19.8125 42.84375 
Q 14.984375 37.3125 14.984375 27.296875 
Q 14.984375 17.28125 19.8125 11.734375 
Q 24.65625 6.203125 33.40625 6.203125 
Q 37.3125 6.203125 41.140625 7.25 
Q 44.96875 8.296875 48.78125 10.40625 
L 48.78125 2.09375 
Q 45.015625 0.34375 40.984375 -0.53125 
Q 36.96875 -1.421875 32.421875 -1.421875 
Q 20.0625 -1.421875 12.78125 6.34375 
Q 5.515625 14.109375 5.515625 27.296875 
Q 5.515625 40.671875 12.859375 48.328125 
Q 20.21875 56 33.015625 56 
Q 37.15625 56 41.109375 55.140625 
Q 45.0625 54.296875 48.78125 52.59375 
z
" id="DejaVuSans-63"/>
      <path d="M 32.171875 -5.078125 
Q 28.375 -14.84375 24.75 -17.8125 
Q 21.140625 -20.796875 15.09375 -20.796875 
L 7.90625 -20.796875 
L 7.90625 -13.28125 
L 13.1875 -13.28125 
Q 16.890625 -13.28125 18.9375 -11.515625 
Q 21 -9.765625 23.484375 -3.21875 
L 25.09375 0.875 
L 2.984375 54.6875 
L 12.5 54.6875 
L 29.59375 11.921875 
L 46.6875 54.6875 
L 56.203125 54.6875 
z
" id="DejaVuSans-79"/>
      <path id="DejaVuSans-20"/>
      <path d="M 8.59375 75.984375 
L 29.296875 75.984375 
L 29.296875 69 
L 17.578125 69 
L 17.578125 -6.203125 
L 29.296875 -6.203125 
L 29.296875 -13.1875 
L 8.59375 -13.1875 
z
" id="DejaVuSans-5b"/>
      <path d="M 59.515625 10.40625 
L 59.515625 29.984375 
L 43.40625 29.984375 
L 43.40625 38.09375 
L 69.28125 38.09375 
L 69.28125 6.78125 
Q 63.578125 2.734375 56.6875 0.65625 
Q 49.8125 -1.421875 42 -1.421875 
Q 24.90625 -1.421875 15.25 8.5625 
Q 5.609375 18.5625 5.609375 36.375 
Q 5.609375 54.25 15.25 64.234375 
Q 24.90625 74.21875 42 74.21875 
Q 49.125 74.21875 55.546875 72.453125 
Q 61.96875 70.703125 67.390625 67.28125 
L 67.390625 56.78125 
Q 61.921875 61.421875 55.765625 63.765625 
Q 49.609375 66.109375 42.828125 66.109375 
Q 29.4375 66.109375 22.71875 58.640625 
Q 16.015625 51.171875 16.015625 36.375 
Q 16.015625 21.625 22.71875 14.15625 
Q 29.4375 6.6875 42.828125 6.6875 
Q 48.046875 6.6875 52.140625 7.59375 
Q 56.25 8.5 59.515625 10.40625 
z
" id="DejaVuSans-47"/>
      <path d="M 9.8125 72.90625 
L 19.671875 72.90625 
L 19.671875 43.015625 
L 55.515625 43.015625 
L 55.515625 72.90625 
L 65.375 72.90625 
L 65.375 0 
L 55.515625 0 
L 55.515625 34.71875 
L 19.671875 34.71875 
L 19.671875 0 
L 9.8125 0 
z
" id="DejaVuSans-48"/>
      <path d="M 5.515625 54.6875 
L 48.1875 54.6875 
L 48.1875 46.484375 
L 14.40625 7.171875 
L 48.1875 7.171875 
L 48.1875 0 
L 4.296875 0 
L 4.296875 8.203125 
L 38.09375 47.515625 
L 5.515625 47.515625 
z
" id="DejaVuSans-7a"/>
      <path d="M 30.421875 75.984375 
L 30.421875 -13.1875 
L 9.71875 -13.1875 
L 9.71875 -6.203125 
L 21.390625 -6.203125 
L 21.390625 69 
L 9.71875 69 
L 9.71875 75.984375 
z
" id="DejaVuSans-5d"/>
     </defs>
     <g transform="translate(511.453125 604.996562)scale(0.1 -0.1)">
      <use xlink:href="#DejaVuSans-46"/>
      <use x="57.410156" xlink:href="#DejaVuSans-72"/>
      <use x="98.492188" xlink:href="#DejaVuSans-65"/>
      <use x="160.015625" xlink:href="#DejaVuSans-71"/>
      <use x="223.492188" xlink:href="#DejaVuSans-75"/>
      <use x="286.871094" xlink:href="#DejaVuSans-65"/>
      <use x="348.394531" xlink:href="#DejaVuSans-6e"/>
      <use x="411.773438" xlink:href="#DejaVuSans-63"/>
      <use x="466.753906" xlink:href="#DejaVuSans-79"/>
      <use x="525.933594" xlink:href="#DejaVuSans-20"/>
      <use x="557.720703" xlink:href="#DejaVuSans-5b"/>
      <use x="596.734375" xlink:href="#DejaVuSans-47"/>
      <use x="674.224609" xlink:href="#DejaVuSans-48"/>
      <use x="749.419922" xlink:href="#DejaVuSans-7a"/>
      <use x="801.910156" xlink:href="#DejaVuSans-5d"/>
     </g>
    </g>
   </g>
   <g id="matplotlib.axis_2">
    <g id="ytick_1">
     <g id="line2d_9">
      <path clip-path="url(#p20c0e06267)" d="M 135 556.017549 
L 972 556.017549 
" style="fill:none;stroke:#b0b0b0;stroke-linecap:square;stroke-width:0.8;"/>
     </g>
     <g id="line2d_10">
      <defs>
       <path d="M 0 0 
L -3.5 0 
" id="mee5a1a829b" style="stroke:#000000;stroke-width:0.8;"/>
      </defs>
      <g>
       <use style="stroke:#000000;stroke-width:0.8;" x="135" xlink:href="#mee5a1a829b" y="556.017549"/>
      </g>
     </g>
     <g id="text_6">
      <!-- $\mathdefault{10^{-2}}$ -->
      <defs>
       <path d="M 12.40625 8.296875 
L 28.515625 8.296875 
L 28.515625 63.921875 
L 10.984375 60.40625 
L 10.984375 69.390625 
L 28.421875 72.90625 
L 38.28125 72.90625 
L 38.28125 8.296875 
L 54.390625 8.296875 
L 54.390625 0 
L 12.40625 0 
z
" id="DejaVuSans-31"/>
       <path d="M 10.59375 35.5 
L 73.1875 35.5 
L 73.1875 27.203125 
L 10.59375 27.203125 
z
" id="DejaVuSans-2212"/>
      </defs>
      <g transform="translate(104.5 559.816767)scale(0.1 -0.1)">
       <use transform="translate(0 0.765625)" xlink:href="#DejaVuSans-31"/>
       <use transform="translate(63.623047 0.765625)" xlink:href="#DejaVuSans-30"/>
       <use transform="translate(128.203125 39.046875)scale(0.7)" xlink:href="#DejaVuSans-2212"/>
       <use transform="translate(186.855469 39.046875)scale(0.7)" xlink:href="#DejaVuSans-32"/>
      </g>
     </g>
    </g>
    <g id="ytick_2">
     <g id="line2d_11">
      <path clip-path="url(#p20c0e06267)" d="M 135 487.245494 
L 972 487.245494 
" style="fill:none;stroke:#b0b0b0;stroke-linecap:square;stroke-width:0.8;"/>
     </g>
     <g id="line2d_12">
      <g>
       <use style="stroke:#000000;stroke-width:0.8;" x="135" xlink:href="#mee5a1a829b" y="487.245494"/>
      </g>
     </g>
     <g id="text_7">
      <!-- $\mathdefault{10^{-1}}$ -->
      <g transform="translate(104.5 491.044712)scale(0.1 -0.1)">
       <use transform="translate(0 0.684375)" xlink:href="#DejaVuSans-31"/>
       <use transform="translate(63.623047 0.684375)" xlink:href="#DejaVuSans-30"/>
       <use transform="translate(128.203125 38.965625)scale(0.7)" xlink:href="#DejaVuSans-2212"/>
       <use transform="translate(186.855469 38.965625)scale(0.7)" xlink:href="#DejaVuSans-31"/>
      </g>
     </g>
    </g>
    <g id="ytick_3">
     <g id="line2d_13">
      <path clip-path="url(#p20c0e06267)" d="M 135 418.473439 
L 972 418.473439 
" style="fill:none;stroke:#b0b0b0;stroke-linecap:square;stroke-width:0.8;"/>
     </g>
     <g id="line2d_14">
      <g>
       <use style="stroke:#000000;stroke-width:0.8;" x="135" xlink:href="#mee5a1a829b" y="418.473439"/>
      </g>
     </g>
     <g id="text_8">
      <!-- $\mathdefault{10^{0}}$ -->
      <g transform="translate(110.4 422.272657)scale(0.1 -0.1)">
       <use transform="translate(0 0.765625)" xlink:href="#DejaVuSans-31"/>
       <use transform="translate(63.623047 0.765625)" xlink:href="#DejaVuSans-30"/>
       <use transform="translate(128.203125 39.046875)scale(0.7)" xlink:href="#DejaVuSans-30"/>
      </g>
     </g>
    </g>
    <g id="ytick_4">
     <g id="line2d_15">
      <path clip-path="url(#p20c0e06267)" d="M 135 349.701383 
L 972 349.701383 
" style="fill:none;stroke:#b0b0b0;stroke-linecap:square;stroke-width:0.8;"/>
     </g>
     <g id="line2d_16">
      <g>
       <use style="stroke:#000000;stroke-width:0.8;" x="135" xlink:href="#mee5a1a829b" y="349.701383"/>
      </g>
     </g>
     <g id="text_9">
      <!-- $\mathdefault{10^{1}}$ -->
      <g transform="translate(110.4 353.500602)scale(0.1 -0.1)">
       <use transform="translate(0 0.684375)" xlink:href="#DejaVuSans-31"/>
       <use transform="translate(63.623047 0.684375)" xlink:href="#DejaVuSans-30"/>
       <use transform="translate(128.203125 38.965625)scale(0.7)" xlink:href="#DejaVuSans-31"/>
      </g>
     </g>
    </g>
    <g id="ytick_5">
     <g id="line2d_17">
      <path clip-path="url(#p20c0e06267)" d="M 135 280.929328 
L 972 280.929328 
" style="fill:none;stroke:#b0b0b0;stroke-linecap:square;stroke-width:0.8;"/>
     </g>
     <g id="line2d_18">
      <g>
       <use style="stroke:#000000;stroke-width:0.8;" x="135" xlink:href="#mee5a1a829b" y="280.929328"/>
      </g>
     </g>
     <g id="text_10">
      <!-- $\mathdefault{10^{2}}$ -->
      <g transform="translate(110.4 284.728547)scale(0.1 -0.1)">
       <use transform="translate(0 0.765625)" xlink:href="#DejaVuSans-31"/>
       <use transform="translate(63.623047 0.765625)" xlink:href="#DejaVuSans-30"/>
       <use transform="translate(128.203125 39.046875)scale(0.7)" xlink:href="#DejaVuSans-32"/>
      </g>
     </g>
    </g>
    <g id="ytick_6">
     <g id="line2d_19">
      <path clip-path="url(#p20c0e06267)" d="M 135 212.157273 
L 972 212.157273 
" style="fill:none;stroke:#b0b0b0;stroke-linecap:square;stroke-width:0.8;"/>
     </g>
     <g id="line2d_20">
      <g>
       <use style="stroke:#000000;stroke-width:0.8;" x="135" xlink:href="#mee5a1a829b" y="212.157273"/>
      </g>
     </g>
     <g id="text_11">
      <!-- $\mathdefault{10^{3}}$ -->
      <defs>
       <path d="M 40.578125 39.3125 
Q 47.65625 37.796875 51.625 33 
Q 55.609375 28.21875 55.609375 21.1875 
Q 55.609375 10.40625 48.1875 4.484375 
Q 40.765625 -1.421875 27.09375 -1.421875 
Q 22.515625 -1.421875 17.65625 -0.515625 
Q 12.796875 0.390625 7.625 2.203125 
L 7.625 11.71875 
Q 11.71875 9.328125 16.59375 8.109375 
Q 21.484375 6.890625 26.8125 6.890625 
Q 36.078125 6.890625 40.9375 10.546875 
Q 45.796875 14.203125 45.796875 21.1875 
Q 45.796875 27.640625 41.28125 31.265625 
Q 36.765625 34.90625 28.71875 34.90625 
L 20.21875 34.90625 
L 20.21875 43.015625 
L 29.109375 43.015625 
Q 36.375 43.015625 40.234375 45.921875 
Q 44.09375 48.828125 44.09375 54.296875 
Q 44.09375 59.90625 40.109375 62.90625 
Q 36.140625 65.921875 28.71875 65.921875 
Q 24.65625 65.921875 20.015625 65.03125 
Q 15.375 64.15625 9.8125 62.3125 
L 9.8125 71.09375 
Q 15.4375 72.65625 20.34375 73.4375 
Q 25.25 74.21875 29.59375 74.21875 
Q 40.828125 74.21875 47.359375 69.109375 
Q 53.90625 64.015625 53.90625 55.328125 
Q 53.90625 49.265625 50.4375 45.09375 
Q 46.96875 40.921875 40.578125 39.3125 
z
" id="DejaVuSans-33"/>
      </defs>
      <g transform="translate(110.4 215.956492)scale(0.1 -0.1)">
       <use transform="translate(0 0.765625)" xlink:href="#DejaVuSans-31"/>
       <use transform="translate(63.623047 0.765625)" xlink:href="#DejaVuSans-30"/>
       <use transform="translate(128.203125 39.046875)scale(0.7)" xlink:href="#DejaVuSans-33"/>
      </g>
     </g>
    </g>
    <g id="ytick_7">
     <g id="line2d_21">
      <path clip-path="url(#p20c0e06267)" d="M 135 143.385218 
L 972 143.385218 
" style="fill:none;stroke:#b0b0b0;stroke-linecap:square;stroke-width:0.8;"/>
     </g>
     <g id="line2d_22">
      <g>
       <use style="stroke:#000000;stroke-width:0.8;" x="135" xlink:href="#mee5a1a829b" y="143.385218"/>
      </g>
     </g>
     <g id="text_12">
      <!-- $\mathdefault{10^{4}}$ -->
      <g transform="translate(110.4 147.184437)scale(0.1 -0.1)">
       <use transform="translate(0 0.684375)" xlink:href="#DejaVuSans-31"/>
       <use transform="translate(63.623047 0.684375)" xlink:href="#DejaVuSans-30"/>
       <use transform="translate(128.203125 38.965625)scale(0.7)" xlink:href="#DejaVuSans-34"/>
      </g>
     </g>
    </g>
    <g id="ytick_8">
     <g id="line2d_23">
      <defs>
       <path d="M 0 0 
L -2 0 
" id="m8b89f74a0b" style="stroke:#000000;stroke-width:0.6;"/>
      </defs>
      <g>
       <use style="stroke:#000000;stroke-width:0.6;" x="135" xlink:href="#m8b89f74a0b" y="576.72"/>
      </g>
     </g>
    </g>
    <g id="ytick_9">
     <g id="line2d_24">
      <g>
       <use style="stroke:#000000;stroke-width:0.6;" x="135" xlink:href="#m8b89f74a0b" y="571.274543"/>
      </g>
     </g>
    </g>
    <g id="ytick_10">
     <g id="line2d_25">
      <g>
       <use style="stroke:#000000;stroke-width:0.6;" x="135" xlink:href="#m8b89f74a0b" y="566.670475"/>
      </g>
     </g>
    </g>
    <g id="ytick_11">
     <g id="line2d_26">
      <g>
       <use style="stroke:#000000;stroke-width:0.6;" x="135" xlink:href="#m8b89f74a0b" y="562.682249"/>
      </g>
     </g>
    </g>
    <g id="ytick_12">
     <g id="line2d_27">
      <g>
       <use style="stroke:#000000;stroke-width:0.6;" x="135" xlink:href="#m8b89f74a0b" y="559.164385"/>
      </g>
     </g>
    </g>
    <g id="ytick_13">
     <g id="line2d_28">
      <g>
       <use style="stroke:#000000;stroke-width:0.6;" x="135" xlink:href="#m8b89f74a0b" y="535.315097"/>
      </g>
     </g>
    </g>
    <g id="ytick_14">
     <g id="line2d_29">
      <g>
       <use style="stroke:#000000;stroke-width:0.6;" x="135" xlink:href="#m8b89f74a0b" y="523.204939"/>
      </g>
     </g>
    </g>
    <g id="ytick_15">
     <g id="line2d_30">
      <g>
       <use style="stroke:#000000;stroke-width:0.6;" x="135" xlink:href="#m8b89f74a0b" y="514.612646"/>
      </g>
     </g>
    </g>
    <g id="ytick_16">
     <g id="line2d_31">
      <g>
       <use style="stroke:#000000;stroke-width:0.6;" x="135" xlink:href="#m8b89f74a0b" y="507.947945"/>
      </g>
     </g>
    </g>
    <g id="ytick_17">
     <g id="line2d_32">
      <g>
       <use style="stroke:#000000;stroke-width:0.6;" x="135" xlink:href="#m8b89f74a0b" y="502.502488"/>
      </g>
     </g>
    </g>
    <g id="ytick_18">
     <g id="line2d_33">
      <g>
       <use style="stroke:#000000;stroke-width:0.6;" x="135" xlink:href="#m8b89f74a0b" y="497.89842"/>
      </g>
     </g>
    </g>
    <g id="ytick_19">
     <g id="line2d_34">
      <g>
       <use style="stroke:#000000;stroke-width:0.6;" x="135" xlink:href="#m8b89f74a0b" y="493.910194"/>
      </g>
     </g>
    </g>
    <g id="ytick_20">
     <g id="line2d_35">
      <g>
       <use style="stroke:#000000;stroke-width:0.6;" x="135" xlink:href="#m8b89f74a0b" y="490.39233"/>
      </g>
     </g>
    </g>
    <g id="ytick_21">
     <g id="line2d_36">
      <g>
       <use style="stroke:#000000;stroke-width:0.6;" x="135" xlink:href="#m8b89f74a0b" y="466.543042"/>
      </g>
     </g>
    </g>
    <g id="ytick_22">
     <g id="line2d_37">
      <g>
       <use style="stroke:#000000;stroke-width:0.6;" x="135" xlink:href="#m8b89f74a0b" y="454.432884"/>
      </g>
     </g>
    </g>
    <g id="ytick_23">
     <g id="line2d_38">
      <g>
       <use style="stroke:#000000;stroke-width:0.6;" x="135" xlink:href="#m8b89f74a0b" y="445.840591"/>
      </g>
     </g>
    </g>
    <g id="ytick_24">
     <g id="line2d_39">
      <g>
       <use style="stroke:#000000;stroke-width:0.6;" x="135" xlink:href="#m8b89f74a0b" y="439.17589"/>
      </g>
     </g>
    </g>
    <g id="ytick_25">
     <g id="line2d_40">
      <g>
       <use style="stroke:#000000;stroke-width:0.6;" x="135" xlink:href="#m8b89f74a0b" y="433.730433"/>
      </g>
     </g>
    </g>
    <g id="ytick_26">
     <g id="line2d_41">
      <g>
       <use style="stroke:#000000;stroke-width:0.6;" x="135" xlink:href="#m8b89f74a0b" y="429.126365"/>
      </g>
     </g>
    </g>
    <g id="ytick_27">
     <g id="line2d_42">
      <g>
       <use style="stroke:#000000;stroke-width:0.6;" x="135" xlink:href="#m8b89f74a0b" y="425.138139"/>
      </g>
     </g>
    </g>
    <g id="ytick_28">
     <g id="line2d_43">
      <g>
       <use style="stroke:#000000;stroke-width:0.6;" x="135" xlink:href="#m8b89f74a0b" y="421.620275"/>
      </g>
     </g>
    </g>
    <g id="ytick_29">
     <g id="line2d_44">
      <g>
       <use style="stroke:#000000;stroke-width:0.6;" x="135" xlink:href="#m8b89f74a0b" y="397.770987"/>
      </g>
     </g>
    </g>
    <g id="ytick_30">
     <g id="line2d_45">
      <g>
       <use style="stroke:#000000;stroke-width:0.6;" x="135" xlink:href="#m8b89f74a0b" y="385.660829"/>
      </g>
     </g>
    </g>
    <g id="ytick_31">
     <g id="line2d_46">
      <g>
       <use style="stroke:#000000;stroke-width:0.6;" x="135" xlink:href="#m8b89f74a0b" y="377.068536"/>
      </g>
     </g>
    </g>
    <g id="ytick_32">
     <g id="line2d_47">
      <g>
       <use style="stroke:#000000;stroke-width:0.6;" x="135" xlink:href="#m8b89f74a0b" y="370.403835"/>
      </g>
     </g>
    </g>
    <g id="ytick_33">
     <g id="line2d_48">
      <g>
       <use style="stroke:#000000;stroke-width:0.6;" x="135" xlink:href="#m8b89f74a0b" y="364.958378"/>
      </g>
     </g>
    </g>
    <g id="ytick_34">
     <g id="line2d_49">
      <g>
       <use style="stroke:#000000;stroke-width:0.6;" x="135" xlink:href="#m8b89f74a0b" y="360.35431"/>
      </g>
     </g>
    </g>
    <g id="ytick_35">
     <g id="line2d_50">
      <g>
       <use style="stroke:#000000;stroke-width:0.6;" x="135" xlink:href="#m8b89f74a0b" y="356.366084"/>
      </g>
     </g>
    </g>
    <g id="ytick_36">
     <g id="line2d_51">
      <g>
       <use style="stroke:#000000;stroke-width:0.6;" x="135" xlink:href="#m8b89f74a0b" y="352.84822"/>
      </g>
     </g>
    </g>
    <g id="ytick_37">
     <g id="line2d_52">
      <g>
       <use style="stroke:#000000;stroke-width:0.6;" x="135" xlink:href="#m8b89f74a0b" y="328.998932"/>
      </g>
     </g>
    </g>
    <g id="ytick_38">
     <g id="line2d_53">
      <g>
       <use style="stroke:#000000;stroke-width:0.6;" x="135" xlink:href="#m8b89f74a0b" y="316.888774"/>
      </g>
     </g>
    </g>
    <g id="ytick_39">
     <g id="line2d_54">
      <g>
       <use style="stroke:#000000;stroke-width:0.6;" x="135" xlink:href="#m8b89f74a0b" y="308.296481"/>
      </g>
     </g>
    </g>
    <g id="ytick_40">
     <g id="line2d_55">
      <g>
       <use style="stroke:#000000;stroke-width:0.6;" x="135" xlink:href="#m8b89f74a0b" y="301.63178"/>
      </g>
     </g>
    </g>
    <g id="ytick_41">
     <g id="line2d_56">
      <g>
       <use style="stroke:#000000;stroke-width:0.6;" x="135" xlink:href="#m8b89f74a0b" y="296.186323"/>
      </g>
     </g>
    </g>
    <g id="ytick_42">
     <g id="line2d_57">
      <g>
       <use style="stroke:#000000;stroke-width:0.6;" x="135" xlink:href="#m8b89f74a0b" y="291.582255"/>
      </g>
     </g>
    </g>
    <g id="ytick_43">
     <g id="line2d_58">
      <g>
       <use style="stroke:#000000;stroke-width:0.6;" x="135" xlink:href="#m8b89f74a0b" y="287.594029"/>
      </g>
     </g>
    </g>
    <g id="ytick_44">
     <g id="line2d_59">
      <g>
       <use style="stroke:#000000;stroke-width:0.6;" x="135" xlink:href="#m8b89f74a0b" y="284.076165"/>
      </g>
     </g>
    </g>
    <g id="ytick_45">
     <g id="line2d_60">
      <g>
       <use style="stroke:#000000;stroke-width:0.6;" x="135" xlink:href="#m8b89f74a0b" y="260.226877"/>
      </g>
     </g>
    </g>
    <g id="ytick_46">
     <g id="line2d_61">
      <g>
       <use style="stroke:#000000;stroke-width:0.6;" x="135" xlink:href="#m8b89f74a0b" y="248.116719"/>
      </g>
     </g>
    </g>
    <g id="ytick_47">
     <g id="line2d_62">
      <g>
       <use style="stroke:#000000;stroke-width:0.6;" x="135" xlink:href="#m8b89f74a0b" y="239.524426"/>
      </g>
     </g>
    </g>
    <g id="ytick_48">
     <g id="line2d_63">
      <g>
       <use style="stroke:#000000;stroke-width:0.6;" x="135" xlink:href="#m8b89f74a0b" y="232.859725"/>
      </g>
     </g>
    </g>
    <g id="ytick_49">
     <g id="line2d_64">
      <g>
       <use style="stroke:#000000;stroke-width:0.6;" x="135" xlink:href="#m8b89f74a0b" y="227.414268"/>
      </g>
     </g>
    </g>
    <g id="ytick_50">
     <g id="line2d_65">
      <g>
       <use style="stroke:#000000;stroke-width:0.6;" x="135" xlink:href="#m8b89f74a0b" y="222.8102"/>
      </g>
     </g>
    </g>
    <g id="ytick_51">
     <g id="line2d_66">
      <g>
       <use style="stroke:#000000;stroke-width:0.6;" x="135" xlink:href="#m8b89f74a0b" y="218.821974"/>
      </g>
     </g>
    </g>
    <g id="ytick_52">
     <g id="line2d_67">
      <g>
       <use style="stroke:#000000;stroke-width:0.6;" x="135" xlink:href="#m8b89f74a0b" y="215.30411"/>
      </g>
     </g>
    </g>
    <g id="ytick_53">
     <g id="line2d_68">
      <g>
       <use style="stroke:#000000;stroke-width:0.6;" x="135" xlink:href="#m8b89f74a0b" y="191.454822"/>
      </g>
     </g>
    </g>
    <g id="ytick_54">
     <g id="line2d_69">
      <g>
       <use style="stroke:#000000;stroke-width:0.6;" x="135" xlink:href="#m8b89f74a0b" y="179.344664"/>
      </g>
     </g>
    </g>
    <g id="ytick_55">
     <g id="line2d_70">
      <g>
       <use style="stroke:#000000;stroke-width:0.6;" x="135" xlink:href="#m8b89f74a0b" y="170.752371"/>
      </g>
     </g>
    </g>
    <g id="ytick_56">
     <g id="line2d_71">
      <g>
       <use style="stroke:#000000;stroke-width:0.6;" x="135" xlink:href="#m8b89f74a0b" y="164.08767"/>
      </g>
     </g>
    </g>
    <g id="ytick_57">
     <g id="line2d_72">
      <g>
       <use style="stroke:#000000;stroke-width:0.6;" x="135" xlink:href="#m8b89f74a0b" y="158.642213"/>
      </g>
     </g>
    </g>
    <g id="ytick_58">
     <g id="line2d_73">
      <g>
       <use style="stroke:#000000;stroke-width:0.6;" x="135" xlink:href="#m8b89f74a0b" y="154.038144"/>
      </g>
     </g>
    </g>
    <g id="ytick_59">
     <g id="line2d_74">
      <g>
       <use style="stroke:#000000;stroke-width:0.6;" x="135" xlink:href="#m8b89f74a0b" y="150.049919"/>
      </g>
     </g>
    </g>
    <g id="ytick_60">
     <g id="line2d_75">
      <g>
       <use style="stroke:#000000;stroke-width:0.6;" x="135" xlink:href="#m8b89f74a0b" y="146.532055"/>
      </g>
     </g>
    </g>
    <g id="ytick_61">
     <g id="line2d_76">
      <g>
       <use style="stroke:#000000;stroke-width:0.6;" x="135" xlink:href="#m8b89f74a0b" y="122.682767"/>
      </g>
     </g>
    </g>
    <g id="ytick_62">
     <g id="line2d_77">
      <g>
       <use style="stroke:#000000;stroke-width:0.6;" x="135" xlink:href="#m8b89f74a0b" y="110.572609"/>
      </g>
     </g>
    </g>
    <g id="ytick_63">
     <g id="line2d_78">
      <g>
       <use style="stroke:#000000;stroke-width:0.6;" x="135" xlink:href="#m8b89f74a0b" y="101.980316"/>
      </g>
     </g>
    </g>
    <g id="ytick_64">
     <g id="line2d_79">
      <g>
       <use style="stroke:#000000;stroke-width:0.6;" x="135" xlink:href="#m8b89f74a0b" y="95.315615"/>
      </g>
     </g>
    </g>
    <g id="ytick_65">
     <g id="line2d_80">
      <g>
       <use style="stroke:#000000;stroke-width:0.6;" x="135" xlink:href="#m8b89f74a0b" y="89.870158"/>
      </g>
     </g>
    </g>
    <g id="ytick_66">
     <g id="line2d_81">
      <g>
       <use style="stroke:#000000;stroke-width:0.6;" x="135" xlink:href="#m8b89f74a0b" y="85.266089"/>
      </g>
     </g>
    </g>
    <g id="ytick_67">
     <g id="line2d_82">
      <g>
       <use style="stroke:#000000;stroke-width:0.6;" x="135" xlink:href="#m8b89f74a0b" y="81.277864"/>
      </g>
     </g>
    </g>
    <g id="ytick_68">
     <g id="line2d_83">
      <g>
       <use style="stroke:#000000;stroke-width:0.6;" x="135" xlink:href="#m8b89f74a0b" y="77.76"/>
      </g>
     </g>
    </g>
    <g id="text_13">
     <!-- Specific Attenuation [dB / km] -->
     <defs>
      <path d="M 53.515625 70.515625 
L 53.515625 60.890625 
Q 47.90625 63.578125 42.921875 64.890625 
Q 37.9375 66.21875 33.296875 66.21875 
Q 25.25 66.21875 20.875 63.09375 
Q 16.5 59.96875 16.5 54.203125 
Q 16.5 49.359375 19.40625 46.890625 
Q 22.3125 44.4375 30.421875 42.921875 
L 36.375 41.703125 
Q 47.40625 39.59375 52.65625 34.296875 
Q 57.90625 29 57.90625 20.125 
Q 57.90625 9.515625 50.796875 4.046875 
Q 43.703125 -1.421875 29.984375 -1.421875 
Q 24.8125 -1.421875 18.96875 -0.25 
Q 13.140625 0.921875 6.890625 3.21875 
L 6.890625 13.375 
Q 12.890625 10.015625 18.65625 8.296875 
Q 24.421875 6.59375 29.984375 6.59375 
Q 38.421875 6.59375 43.015625 9.90625 
Q 47.609375 13.234375 47.609375 19.390625 
Q 47.609375 24.75 44.3125 27.78125 
Q 41.015625 30.8125 33.5 32.328125 
L 27.484375 33.5 
Q 16.453125 35.6875 11.515625 40.375 
Q 6.59375 45.0625 6.59375 53.421875 
Q 6.59375 63.09375 13.40625 68.65625 
Q 20.21875 74.21875 32.171875 74.21875 
Q 37.3125 74.21875 42.625 73.28125 
Q 47.953125 72.359375 53.515625 70.515625 
z
" id="DejaVuSans-53"/>
      <path d="M 18.109375 8.203125 
L 18.109375 -20.796875 
L 9.078125 -20.796875 
L 9.078125 54.6875 
L 18.109375 54.6875 
L 18.109375 46.390625 
Q 20.953125 51.265625 25.265625 53.625 
Q 29.59375 56 35.59375 56 
Q 45.5625 56 51.78125 48.09375 
Q 58.015625 40.1875 58.015625 27.296875 
Q 58.015625 14.40625 51.78125 6.484375 
Q 45.5625 -1.421875 35.59375 -1.421875 
Q 29.59375 -1.421875 25.265625 0.953125 
Q 20.953125 3.328125 18.109375 8.203125 
z
M 48.6875 27.296875 
Q 48.6875 37.203125 44.609375 42.84375 
Q 40.53125 48.484375 33.40625 48.484375 
Q 26.265625 48.484375 22.1875 42.84375 
Q 18.109375 37.203125 18.109375 27.296875 
Q 18.109375 17.390625 22.1875 11.75 
Q 26.265625 6.109375 33.40625 6.109375 
Q 40.53125 6.109375 44.609375 11.75 
Q 48.6875 17.390625 48.6875 27.296875 
z
" id="DejaVuSans-70"/>
      <path d="M 9.421875 54.6875 
L 18.40625 54.6875 
L 18.40625 0 
L 9.421875 0 
z
M 9.421875 75.984375 
L 18.40625 75.984375 
L 18.40625 64.59375 
L 9.421875 64.59375 
z
" id="DejaVuSans-69"/>
      <path d="M 37.109375 75.984375 
L 37.109375 68.5 
L 28.515625 68.5 
Q 23.6875 68.5 21.796875 66.546875 
Q 19.921875 64.59375 19.921875 59.515625 
L 19.921875 54.6875 
L 34.71875 54.6875 
L 34.71875 47.703125 
L 19.921875 47.703125 
L 19.921875 0 
L 10.890625 0 
L 10.890625 47.703125 
L 2.296875 47.703125 
L 2.296875 54.6875 
L 10.890625 54.6875 
L 10.890625 58.5 
Q 10.890625 67.625 15.140625 71.796875 
Q 19.390625 75.984375 28.609375 75.984375 
z
" id="DejaVuSans-66"/>
      <path d="M 34.1875 63.1875 
L 20.796875 26.90625 
L 47.609375 26.90625 
z
M 28.609375 72.90625 
L 39.796875 72.90625 
L 67.578125 0 
L 57.328125 0 
L 50.6875 18.703125 
L 17.828125 18.703125 
L 11.1875 0 
L 0.78125 0 
z
" id="DejaVuSans-41"/>
      <path d="M 18.3125 70.21875 
L 18.3125 54.6875 
L 36.8125 54.6875 
L 36.8125 47.703125 
L 18.3125 47.703125 
L 18.3125 18.015625 
Q 18.3125 11.328125 20.140625 9.421875 
Q 21.96875 7.515625 27.59375 7.515625 
L 36.8125 7.515625 
L 36.8125 0 
L 27.59375 0 
Q 17.1875 0 13.234375 3.875 
Q 9.28125 7.765625 9.28125 18.015625 
L 9.28125 47.703125 
L 2.6875 47.703125 
L 2.6875 54.6875 
L 9.28125 54.6875 
L 9.28125 70.21875 
z
" id="DejaVuSans-74"/>
      <path d="M 34.28125 27.484375 
Q 23.390625 27.484375 19.1875 25 
Q 14.984375 22.515625 14.984375 16.5 
Q 14.984375 11.71875 18.140625 8.90625 
Q 21.296875 6.109375 26.703125 6.109375 
Q 34.1875 6.109375 38.703125 11.40625 
Q 43.21875 16.703125 43.21875 25.484375 
L 43.21875 27.484375 
z
M 52.203125 31.203125 
L 52.203125 0 
L 43.21875 0 
L 43.21875 8.296875 
Q 40.140625 3.328125 35.546875 0.953125 
Q 30.953125 -1.421875 24.3125 -1.421875 
Q 15.921875 -1.421875 10.953125 3.296875 
Q 6 8.015625 6 15.921875 
Q 6 25.140625 12.171875 29.828125 
Q 18.359375 34.515625 30.609375 34.515625 
L 43.21875 34.515625 
L 43.21875 35.40625 
Q 43.21875 41.609375 39.140625 45 
Q 35.0625 48.390625 27.6875 48.390625 
Q 23 48.390625 18.546875 47.265625 
Q 14.109375 46.140625 10.015625 43.890625 
L 10.015625 52.203125 
Q 14.9375 54.109375 19.578125 55.046875 
Q 24.21875 56 28.609375 56 
Q 40.484375 56 46.34375 49.84375 
Q 52.203125 43.703125 52.203125 31.203125 
z
" id="DejaVuSans-61"/>
      <path d="M 30.609375 48.390625 
Q 23.390625 48.390625 19.1875 42.75 
Q 14.984375 37.109375 14.984375 27.296875 
Q 14.984375 17.484375 19.15625 11.84375 
Q 23.34375 6.203125 30.609375 6.203125 
Q 37.796875 6.203125 41.984375 11.859375 
Q 46.1875 17.53125 46.1875 27.296875 
Q 46.1875 37.015625 41.984375 42.703125 
Q 37.796875 48.390625 30.609375 48.390625 
z
M 30.609375 56 
Q 42.328125 56 49.015625 48.375 
Q 55.71875 40.765625 55.71875 27.296875 
Q 55.71875 13.875 49.015625 6.21875 
Q 42.328125 -1.421875 30.609375 -1.421875 
Q 18.84375 -1.421875 12.171875 6.21875 
Q 5.515625 13.875 5.515625 27.296875 
Q 5.515625 40.765625 12.171875 48.375 
Q 18.84375 56 30.609375 56 
z
" id="DejaVuSans-6f"/>
      <path d="M 45.40625 46.390625 
L 45.40625 75.984375 
L 54.390625 75.984375 
L 54.390625 0 
L 45.40625 0 
L 45.40625 8.203125 
Q 42.578125 3.328125 38.25 0.953125 
Q 33.9375 -1.421875 27.875 -1.421875 
Q 17.96875 -1.421875 11.734375 6.484375 
Q 5.515625 14.40625 5.515625 27.296875 
Q 5.515625 40.1875 11.734375 48.09375 
Q 17.96875 56 27.875 56 
Q 33.9375 56 38.25 53.625 
Q 42.578125 51.265625 45.40625 46.390625 
z
M 14.796875 27.296875 
Q 14.796875 17.390625 18.875 11.75 
Q 22.953125 6.109375 30.078125 6.109375 
Q 37.203125 6.109375 41.296875 11.75 
Q 45.40625 17.390625 45.40625 27.296875 
Q 45.40625 37.203125 41.296875 42.84375 
Q 37.203125 48.484375 30.078125 48.484375 
Q 22.953125 48.484375 18.875 42.84375 
Q 14.796875 37.203125 14.796875 27.296875 
z
" id="DejaVuSans-64"/>
      <path d="M 19.671875 34.8125 
L 19.671875 8.109375 
L 35.5 8.109375 
Q 43.453125 8.109375 47.28125 11.40625 
Q 51.125 14.703125 51.125 21.484375 
Q 51.125 28.328125 47.28125 31.5625 
Q 43.453125 34.8125 35.5 34.8125 
z
M 19.671875 64.796875 
L 19.671875 42.828125 
L 34.28125 42.828125 
Q 41.5 42.828125 45.03125 45.53125 
Q 48.578125 48.25 48.578125 53.8125 
Q 48.578125 59.328125 45.03125 62.0625 
Q 41.5 64.796875 34.28125 64.796875 
z
M 9.8125 72.90625 
L 35.015625 72.90625 
Q 46.296875 72.90625 52.390625 68.21875 
Q 58.5 63.53125 58.5 54.890625 
Q 58.5 48.1875 55.375 44.234375 
Q 52.25 40.28125 46.1875 39.3125 
Q 53.46875 37.75 57.5 32.78125 
Q 61.53125 27.828125 61.53125 20.40625 
Q 61.53125 10.640625 54.890625 5.3125 
Q 48.25 0 35.984375 0 
L 9.8125 0 
z
" id="DejaVuSans-42"/>
      <path d="M 25.390625 72.90625 
L 33.6875 72.90625 
L 8.296875 -9.28125 
L 0 -9.28125 
z
" id="DejaVuSans-2f"/>
      <path d="M 9.078125 75.984375 
L 18.109375 75.984375 
L 18.109375 31.109375 
L 44.921875 54.6875 
L 56.390625 54.6875 
L 27.390625 29.109375 
L 57.625 0 
L 45.90625 0 
L 18.109375 26.703125 
L 18.109375 0 
L 9.078125 0 
z
" id="DejaVuSans-6b"/>
      <path d="M 52 44.1875 
Q 55.375 50.25 60.0625 53.125 
Q 64.75 56 71.09375 56 
Q 79.640625 56 84.28125 50.015625 
Q 88.921875 44.046875 88.921875 33.015625 
L 88.921875 0 
L 79.890625 0 
L 79.890625 32.71875 
Q 79.890625 40.578125 77.09375 44.375 
Q 74.3125 48.1875 68.609375 48.1875 
Q 61.625 48.1875 57.5625 43.546875 
Q 53.515625 38.921875 53.515625 30.90625 
L 53.515625 0 
L 44.484375 0 
L 44.484375 32.71875 
Q 44.484375 40.625 41.703125 44.40625 
Q 38.921875 48.1875 33.109375 48.1875 
Q 26.21875 48.1875 22.15625 43.53125 
Q 18.109375 38.875 18.109375 30.90625 
L 18.109375 0 
L 9.078125 0 
L 9.078125 54.6875 
L 18.109375 54.6875 
L 18.109375 46.1875 
Q 21.1875 51.21875 25.484375 53.609375 
Q 29.78125 56 35.6875 56 
Q 41.65625 56 45.828125 52.96875 
Q 50 49.953125 52 44.1875 
z
" id="DejaVuSans-6d"/>
     </defs>
     <g transform="translate(98.420312 402.409531)rotate(-90)scale(0.1 -0.1)">
      <use xlink:href="#DejaVuSans-53"/>
      <use x="63.476562" xlink:href="#DejaVuSans-70"/>
      <use x="126.953125" xlink:href="#DejaVuSans-65"/>
      <use x="188.476562" xlink:href="#DejaVuSans-63"/>
      <use x="243.457031" xlink:href="#DejaVuSans-69"/>
      <use x="271.240234" xlink:href="#DejaVuSans-66"/>
      <use x="306.445312" xlink:href="#DejaVuSans-69"/>
      <use x="334.228516" xlink:href="#DejaVuSans-63"/>
      <use x="389.208984" xlink:href="#DejaVuSans-20"/>
      <use x="420.996094" xlink:href="#DejaVuSans-41"/>
      <use x="489.388672" xlink:href="#DejaVuSans-74"/>
      <use x="528.597656" xlink:href="#DejaVuSans-74"/>
      <use x="567.806641" xlink:href="#DejaVuSans-65"/>
      <use x="629.330078" xlink:href="#DejaVuSans-6e"/>
      <use x="692.708984" xlink:href="#DejaVuSans-75"/>
      <use x="756.087891" xlink:href="#DejaVuSans-61"/>
      <use x="817.367188" xlink:href="#DejaVuSans-74"/>
      <use x="856.576172" xlink:href="#DejaVuSans-69"/>
      <use x="884.359375" xlink:href="#DejaVuSans-6f"/>
      <use x="945.541016" xlink:href="#DejaVuSans-6e"/>
      <use x="1008.919922" xlink:href="#DejaVuSans-20"/>
      <use x="1040.707031" xlink:href="#DejaVuSans-5b"/>
      <use x="1079.720703" xlink:href="#DejaVuSans-64"/>
      <use x="1143.197266" xlink:href="#DejaVuSans-42"/>
      <use x="1211.800781" xlink:href="#DejaVuSans-20"/>
      <use x="1243.587891" xlink:href="#DejaVuSans-2f"/>
      <use x="1277.279297" xlink:href="#DejaVuSans-20"/>
      <use x="1309.066406" xlink:href="#DejaVuSans-6b"/>
      <use x="1366.976562" xlink:href="#DejaVuSans-6d"/>
      <use x="1464.388672" xlink:href="#DejaVuSans-5d"/>
     </g>
    </g>
   </g>
   <g id="line2d_84">
    <path clip-path="url(#p20c0e06267)" d="M 135 575.392225 
L 135.838677 568.975834 
L 136.677355 567.455228 
L 137.516032 566.707084 
L 141.709419 563.733408 
L 143.386774 562.193284 
L 145.064128 560.390163 
L 146.741483 558.322692 
L 148.418838 555.993215 
L 150.93487 552.012722 
L 153.450902 547.448003 
L 155.966934 542.282455 
L 158.482966 536.475176 
L 160.998998 529.951772 
L 163.51503 522.590383 
L 165.192385 517.125745 
L 166.869739 511.121332 
L 168.547094 504.460121 
L 170.224449 496.972454 
L 171.901804 488.398427 
L 173.579158 478.302223 
L 175.256513 465.806571 
L 176.09519 457.936329 
L 176.933868 447.700649 
L 177.772545 433.769414 
L 179.4499 395.413264 
L 180.288577 376.239595 
L 181.127255 360.696126 
L 181.965932 350.129927 
L 182.804609 344.065227 
L 183.643287 341.159388 
L 184.481964 339.066818 
L 185.320641 338.264857 
L 186.159319 340.282299 
L 186.997996 347.895957 
L 187.836673 361.60689 
L 189.514028 398.976589 
L 190.352705 418.351582 
L 191.191383 434.49313 
L 192.03006 446.481512 
L 192.868737 455.239351 
L 193.707415 462.127646 
L 195.38477 473.16469 
L 197.062124 481.958076 
L 198.739479 489.256052 
L 200.416834 495.446805 
L 202.094188 500.762272 
L 203.771543 505.350257 
L 205.448898 509.30701 
L 207.126253 512.693708 
L 208.803607 515.545125 
L 210.480962 517.873927 
L 212.158317 519.672086 
L 212.996994 520.363847 
L 213.835671 520.910053 
L 214.674349 521.303161 
L 215.513026 521.533784 
L 216.351703 521.590456 
L 217.190381 521.459345 
L 218.029058 521.123897 
L 218.867735 520.564397 
L 219.706413 519.757434 
L 220.54509 518.67522 
L 221.383768 517.284747 
L 222.222445 515.546695 
L 223.061122 513.414007 
L 223.8998 510.829981 
L 224.738477 507.725651 
L 225.577154 504.016101 
L 226.415832 499.595153 
L 227.254509 494.327552 
L 228.093186 488.037369 
L 228.931864 480.491027 
L 229.770541 471.374633 
L 230.609218 460.275505 
L 231.447896 446.735461 
L 233.125251 415.268864 
L 233.963928 410.943087 
L 234.802605 422.826261 
L 236.47996 454.809738 
L 237.318637 467.445423 
L 238.157315 477.909957 
L 238.995992 486.664265 
L 239.834669 494.076153 
L 240.673347 500.419834 
L 242.350701 510.669496 
L 244.028056 518.53139 
L 245.705411 524.689732 
L 247.382766 529.590794 
L 249.06012 533.539838 
L 250.737475 536.753091 
L 252.41483 539.387823 
L 254.092184 541.560855 
L 255.769539 543.360502 
L 257.446894 544.85456 
L 259.124248 546.095797 
L 260.801603 547.125799 
L 263.317635 548.345479 
L 265.833667 549.249346 
L 268.349699 549.901255 
L 270.865731 550.349414 
L 274.220441 550.692892 
L 277.57515 550.805673 
L 281.768537 550.695933 
L 285.961924 550.372302 
L 290.993988 549.772705 
L 296.864729 548.860725 
L 304.412826 547.458136 
L 314.476954 545.34083 
L 329.573146 541.91071 
L 375.700401 531.317988 
L 415.118236 522.428936 
L 420.988978 520.833638 
L 425.182365 519.451386 
L 427.698397 518.417828 
L 429.375752 517.576394 
L 431.053106 516.538174 
L 432.730461 515.1856 
L 433.569138 514.329848 
L 434.407816 513.301579 
L 435.246493 512.039842 
L 436.08517 510.455932 
L 436.923848 508.418192 
L 437.762525 505.727703 
L 438.601202 502.080147 
L 439.43988 497.010587 
L 440.278557 489.835517 
L 441.117234 479.704929 
L 442.794589 453.787569 
L 443.633267 453.648622 
L 445.310621 478.865504 
L 446.149299 488.59306 
L 446.987976 495.348256 
L 447.826653 499.986939 
L 448.665331 503.196368 
L 449.504008 505.443615 
L 450.342685 507.033971 
L 451.181363 508.166582 
L 452.02004 508.972876 
L 452.858717 509.541058 
L 453.697395 509.931402 
L 455.374749 510.333924 
L 457.052104 510.390061 
L 458.729459 510.208419 
L 460.406814 509.845896 
L 462.922846 509.018709 
L 465.438878 507.865092 
L 467.116232 506.896486 
L 468.793587 505.738521 
L 470.470942 504.350421 
L 472.148297 502.673652 
L 473.825651 500.625466 
L 475.503006 498.088846 
L 477.180361 494.896863 
L 478.857715 490.808104 
L 479.696393 488.322328 
L 480.53507 485.466963 
L 481.373747 482.168811 
L 482.212425 478.336585 
L 483.051102 473.855173 
L 483.88978 468.577437 
L 484.728457 462.312295 
L 485.567134 454.807416 
L 486.405812 445.725879 
L 487.244489 434.625466 
L 488.083166 421.004285 
L 489.760521 388.775778 
L 490.599198 383.850107 
L 491.437876 395.512911 
L 493.11523 426.895175 
L 493.953908 438.985341 
L 494.792585 448.79052 
L 495.631263 456.80142 
L 496.46994 463.409092 
L 497.308617 468.907072 
L 498.147295 473.515943 
L 498.985972 477.403973 
L 499.824649 480.701679 
L 500.663327 483.511812 
L 501.502004 485.916265 
L 503.179359 489.759465 
L 504.856713 492.625029 
L 506.534068 494.778502 
L 508.211423 496.402523 
L 509.888778 497.624577 
L 511.566132 498.534553 
L 513.243487 499.196055 
L 514.920842 499.653756 
L 516.598196 499.938119 
L 519.114228 500.078867 
L 521.630261 499.894108 
L 523.307615 499.579051 
L 524.98497 499.084881 
L 526.662325 498.369875 
L 528.339679 497.365114 
L 530.017034 495.958194 
L 530.855711 495.050065 
L 531.694389 493.963618 
L 532.533066 492.655254 
L 533.371743 491.067432 
L 534.210421 489.123548 
L 535.049098 486.720704 
L 535.887776 483.71951 
L 536.726453 479.929688 
L 537.56513 475.09001 
L 538.403808 468.841375 
L 539.242485 460.695712 
L 540.081162 450.026437 
L 540.91984 436.236099 
L 541.758517 419.946003 
L 542.597194 407.833677 
L 543.435872 412.34715 
L 545.113226 442.936637 
L 545.951904 454.917723 
L 546.790581 464.06623 
L 547.629259 471.040896 
L 548.467936 476.398716 
L 549.306613 480.555987 
L 550.145291 483.815932 
L 550.983968 486.398902 
L 551.822645 488.465812 
L 552.661323 490.135096 
L 553.5 491.494711 
L 554.338677 492.610619 
L 556.016032 494.299408 
L 557.693387 495.477675 
L 559.370741 496.312783 
L 561.048096 496.909895 
L 563.564128 497.502336 
L 566.08016 497.851794 
L 569.43487 498.078622 
L 573.628257 498.125767 
L 579.498998 497.941844 
L 587.885772 497.420299 
L 600.465932 496.388252 
L 625.626253 494.049284 
L 695.236473 487.312953 
L 706.139279 486.029689 
L 712.01002 485.142138 
L 716.203407 484.28515 
L 718.719439 483.582997 
L 720.396794 482.973721 
L 722.074148 482.180829 
L 723.751503 481.092156 
L 724.59018 480.37757 
L 725.428858 479.498037 
L 726.267535 478.393648 
L 727.106212 476.976337 
L 727.94489 475.113855 
L 728.783567 472.603613 
L 729.622244 469.130664 
L 730.460922 464.20497 
L 731.299599 457.092072 
L 732.138277 446.866027 
L 733.815631 421.174969 
L 734.654309 422.926477 
L 736.331663 448.893732 
L 737.170341 458.18599 
L 738.009018 464.553987 
L 738.847695 468.909569 
L 739.686373 471.932492 
L 740.52505 474.069897 
L 741.363727 475.60845 
L 742.202405 476.732804 
L 743.041082 477.563802 
L 743.87976 478.182113 
L 745.557114 478.983762 
L 747.234469 479.407759 
L 748.911824 479.592195 
L 751.427856 479.572259 
L 753.943888 479.29597 
L 756.45992 478.804601 
L 758.975952 478.091963 
L 761.491984 477.112065 
L 763.169339 476.266424 
L 764.846693 475.217186 
L 766.524048 473.899696 
L 768.201403 472.21917 
L 769.878758 470.034565 
L 770.717435 468.690258 
L 771.556112 467.131846 
L 772.39479 465.313801 
L 773.233467 463.17875 
L 774.072144 460.653906 
L 774.910822 457.646263 
L 775.749499 454.036033 
L 776.588176 449.667562 
L 777.426854 444.336585 
L 778.265531 437.772287 
L 779.104208 429.613367 
L 779.942886 419.384932 
L 780.781563 406.530086 
L 782.458918 374.59512 
L 783.297595 368.349952 
L 784.136273 379.24749 
L 785.813627 410.495383 
L 786.652305 422.30298 
L 787.490982 431.66612 
L 788.329659 439.128786 
L 789.168337 445.127722 
L 790.007014 449.991855 
L 790.845691 453.967811 
L 791.684369 457.242077 
L 792.523046 459.95715 
L 793.361723 462.222968 
L 794.200401 464.125086 
L 795.039078 465.730604 
L 796.716433 468.252975 
L 798.393788 470.097814 
L 800.071142 471.464073 
L 801.748497 472.483242 
L 803.425852 473.243839 
L 805.103206 473.80622 
L 807.619238 474.364667 
L 810.135271 474.65302 
L 812.651303 474.710482 
L 815.167335 474.536501 
L 817.683367 474.083099 
L 819.360721 473.56829 
L 821.038076 472.80474 
L 822.715431 471.667742 
L 823.554108 470.894823 
L 824.392786 469.931605 
L 825.231463 468.717448 
L 826.07014 467.166436 
L 826.908818 465.154889 
L 827.747495 462.50199 
L 828.586172 458.939863 
L 829.42485 454.068578 
L 830.263527 447.294477 
L 831.102204 437.774853 
L 831.940882 424.543317 
L 832.779559 407.894166 
L 833.618236 395.900472 
L 834.456914 403.062799 
L 835.295591 419.698256 
L 836.134269 434.003968 
L 836.972946 444.432961 
L 837.811623 451.8483 
L 838.650301 457.156211 
L 839.488978 461.01474 
L 840.327655 463.870041 
L 841.166333 466.020958 
L 842.00501 467.668801 
L 842.843687 468.950908 
L 843.682365 469.962448 
L 844.521042 470.770475 
L 846.198397 471.955063 
L 847.875752 472.754539 
L 849.553106 473.30844 
L 852.069138 473.849592 
L 855.423848 474.250219 
L 859.617234 474.470747 
L 865.487976 474.516275 
L 873.874749 474.335747 
L 888.132265 473.770544 
L 916.647295 472.36796 
L 972 469.553675 
L 972 469.553675 
" style="fill:none;stroke:#ff0000;stroke-linecap:square;stroke-width:1.5;"/>
   </g>
   <g id="line2d_85">
    <path clip-path="url(#p20c0e06267)" d="M 136.534447 649 
L 136.677355 644.841092 
L 137.516032 627.386576 
L 138.354709 613.6956 
L 139.193387 602.339411 
L 140.870741 583.843507 
L 142.548096 568.519137 
L 147.58016 525.726091 
L 149.257515 507.857502 
L 151.773547 476.869959 
L 152.612224 470.276518 
L 153.450902 469.077984 
L 154.289579 472.418623 
L 155.966934 482.783313 
L 156.805611 487.061082 
L 157.644289 490.318315 
L 158.482966 492.648216 
L 159.321643 494.209762 
L 160.160321 495.160047 
L 160.998998 495.633358 
L 161.837675 495.737923 
L 162.676353 495.558645 
L 163.51503 495.161324 
L 165.192385 493.903986 
L 166.869739 492.248345 
L 169.385772 489.370373 
L 175.256513 482.107168 
L 181.127255 475.017254 
L 187.836673 467.36698 
L 191.191383 463.558205 
L 194.546092 460.592385 
L 204.61022 451.647354 
L 210.480962 446.829469 
L 216.351703 442.301175 
L 223.061122 437.421003 
L 234.802605 429.270497 
L 251.576152 418.531447 
L 256.608216 415.016082 
L 259.962926 412.462997 
L 263.317635 409.619287 
L 265.833667 407.189652 
L 268.349699 404.373352 
L 270.027054 402.190873 
L 271.704409 399.67214 
L 273.381764 396.703714 
L 275.059118 393.126679 
L 276.736473 388.716209 
L 278.413828 383.152457 
L 279.252505 379.802848 
L 280.091182 375.982293 
L 280.92986 371.607151 
L 281.768537 366.583382 
L 282.607214 360.812334 
L 284.284569 346.740803 
L 286.800601 322.805051 
L 287.639279 318.605895 
L 288.477956 319.238072 
L 289.316633 324.239583 
L 292.671343 353.05049 
L 293.51002 358.652532 
L 294.348697 363.445008 
L 295.187375 367.522305 
L 296.026052 370.982913 
L 296.864729 373.917736 
L 297.703407 376.406518 
L 298.542084 378.51754 
L 299.380762 380.308554 
L 300.219439 381.828116 
L 301.896794 384.209099 
L 303.574148 385.913244 
L 305.251503 387.118656 
L 306.928858 387.95187 
L 308.606212 388.503752 
L 310.283567 388.840345 
L 312.799599 389.044374 
L 315.315631 388.985836 
L 318.670341 388.627035 
L 322.863727 387.880656 
L 327.895792 386.714751 
L 334.60521 384.895736 
L 343.830661 382.131142 
L 355.572144 378.372588 
L 366.47495 374.674528 
L 374.861723 371.600639 
L 380.732465 369.200048 
L 384.925852 367.230695 
L 388.280561 365.366372 
L 390.796593 363.670924 
L 392.473948 362.310694 
L 394.151303 360.66808 
L 395.828657 358.598841 
L 396.667335 357.333628 
L 397.506012 355.858175 
L 398.344689 354.11191 
L 399.183367 352.013043 
L 400.022044 349.451322 
L 400.860721 346.282317 
L 401.699399 342.338865 
L 402.538076 337.512678 
L 404.215431 325.73683 
L 405.892786 312.59165 
L 406.731463 309.250566 
L 407.57014 310.908093 
L 408.408818 316.491177 
L 410.086172 329.711603 
L 410.92485 334.977046 
L 411.763527 339.111945 
L 412.602204 342.279712 
L 413.440882 344.674377 
L 414.279559 346.466764 
L 415.118236 347.794586 
L 415.956914 348.768648 
L 416.795591 349.475746 
L 417.634269 349.972209 
L 418.472946 350.293988 
L 419.311623 350.470777 
L 420.988978 350.483728 
L 422.666333 350.14983 
L 424.343687 349.54696 
L 426.021042 348.715319 
L 427.698397 347.670556 
L 429.375752 346.410202 
L 431.053106 344.916242 
L 432.730461 343.155118 
L 434.407816 341.075623 
L 436.08517 338.60462 
L 437.762525 335.64014 
L 439.43988 332.040915 
L 441.117234 327.610906 
L 442.794589 322.076672 
L 444.471944 315.055018 
L 445.310621 310.826349 
L 446.149299 306.011052 
L 446.987976 300.513355 
L 447.826653 294.230333 
L 449.504008 278.985877 
L 452.02004 253.22738 
L 452.858717 249.179988 
L 453.697395 250.770507 
L 454.536072 257.089578 
L 457.052104 282.321749 
L 458.729459 295.638968 
L 459.568136 300.973218 
L 460.406814 305.549613 
L 462.084168 312.885233 
L 462.922846 315.834051 
L 463.761523 318.371555 
L 464.6002 320.549596 
L 466.277555 324.02042 
L 467.95491 326.563867 
L 469.632265 328.405242 
L 471.309619 329.705844 
L 472.986974 330.58221 
L 474.664329 331.118807 
L 476.341683 331.376651 
L 478.019038 331.39918 
L 479.696393 331.216203 
L 481.373747 330.846422 
L 483.051102 330.298821 
L 484.728457 329.57304 
L 486.405812 328.658669 
L 488.083166 327.533156 
L 489.760521 326.157592 
L 491.437876 324.468764 
L 493.11523 322.363791 
L 494.792585 319.668049 
L 495.631263 318.007844 
L 496.46994 316.060186 
L 497.308617 313.730292 
L 498.147295 310.874121 
L 498.985972 307.274639 
L 499.824649 302.661131 
L 501.502004 290.98693 
L 502.340681 286.470182 
L 503.179359 285.296272 
L 504.018036 284.777808 
L 504.856713 282.015067 
L 505.695391 277.231372 
L 506.534068 271.24689 
L 507.372745 263.635595 
L 509.0501 247.206212 
L 509.888778 243.909333 
L 510.727455 247.047403 
L 511.566132 254.719828 
L 513.243487 272.194008 
L 514.082164 279.510547 
L 514.920842 285.601301 
L 515.759519 290.584358 
L 516.598196 294.621347 
L 517.436874 297.867335 
L 518.275551 300.455761 
L 519.114228 302.495785 
L 519.952906 304.073653 
L 520.791583 305.254883 
L 521.630261 306.08593 
L 522.468938 306.594553 
L 523.307615 306.788089 
L 524.146293 306.648361 
L 524.98497 306.12117 
L 525.823647 305.098182 
L 526.662325 303.397736 
L 527.501002 300.810888 
L 529.178357 294.5496 
L 530.017034 292.422085 
L 530.855711 289.491614 
L 531.694389 286.155698 
L 532.533066 285.588539 
L 533.371743 288.942359 
L 534.210421 293.527305 
L 535.049098 297.249264 
L 535.887776 299.742295 
L 536.726453 301.256019 
L 537.56513 302.076833 
L 538.403808 302.404577 
L 539.242485 302.355384 
L 540.081162 301.980072 
L 540.91984 301.278281 
L 541.758517 300.225234 
L 543.435872 297.648401 
L 544.274549 297.203057 
L 546.790581 298.026956 
L 547.629259 297.863381 
L 548.467936 297.492761 
L 550.145291 296.362061 
L 551.822645 294.907785 
L 553.5 293.201964 
L 555.177355 291.123778 
L 556.854709 288.828105 
L 558.532064 287.375622 
L 560.209419 285.480016 
L 562.725451 282.130987 
L 565.241483 278.415332 
L 567.757515 274.347985 
L 570.273547 269.894332 
L 572.789579 264.999558 
L 575.305611 259.589367 
L 577.821643 253.564013 
L 580.337675 246.786434 
L 582.01503 241.756611 
L 583.692385 236.226016 
L 585.369739 230.082593 
L 587.047094 223.162154 
L 588.724449 215.205783 
L 590.401804 205.792419 
L 592.079158 194.571101 
L 593.756513 183.50224 
L 594.59519 178.46635 
L 595.433868 172.713569 
L 597.111222 159.070293 
L 600.465932 130.770657 
L 601.304609 128.684632 
L 602.143287 131.352844 
L 602.981964 137.712092 
L 606.336673 170.130179 
L 608.014028 183.461686 
L 609.691383 194.626645 
L 611.368737 204.0941 
L 613.046092 212.245124 
L 614.723447 219.360245 
L 616.400802 225.643988 
L 618.078156 231.247371 
L 619.755511 236.283963 
L 622.271543 242.961038 
L 624.787575 248.771964 
L 627.303607 253.870805 
L 629.819639 258.368417 
L 632.335671 262.344026 
L 634.851703 265.850653 
L 637.367735 268.9147 
L 639.883768 271.526785 
L 641.561122 272.985233 
L 643.238477 274.161857 
L 644.915832 274.956676 
L 645.754509 275.155007 
L 646.593186 275.170743 
L 647.431864 274.94515 
L 648.270541 274.392076 
L 649.109218 273.384505 
L 649.947896 271.73664 
L 650.786573 269.187192 
L 651.625251 265.411682 
L 652.463928 260.160825 
L 654.141283 248.22924 
L 654.97996 247.117869 
L 655.818637 251.516446 
L 657.495992 264.85201 
L 658.334669 270.085496 
L 659.173347 274.101565 
L 660.012024 277.168914 
L 660.850701 279.543097 
L 661.689379 281.41784 
L 662.528056 282.930352 
L 663.366733 284.176038 
L 665.044088 286.112814 
L 666.721443 287.557778 
L 668.398798 288.679238 
L 670.076152 289.561246 
L 671.753507 290.225457 
L 673.430862 290.58183 
L 674.269539 290.535128 
L 675.108216 290.287659 
L 675.946894 290.237975 
L 678.462926 291.772769 
L 679.301603 291.991386 
L 680.978958 292.086667 
L 681.817635 291.966113 
L 682.656313 291.704348 
L 683.49499 291.274305 
L 685.172345 290.120035 
L 686.011022 289.892169 
L 686.849699 290.227046 
L 689.365731 292.242063 
L 690.204409 292.676456 
L 691.881764 293.196663 
L 693.559118 293.432457 
L 696.07515 293.499642 
L 698.591182 293.35714 
L 701.945892 292.933352 
L 705.300601 292.27662 
L 708.655311 291.390539 
L 712.01002 290.262004 
L 715.364729 288.866851 
L 718.719439 287.170705 
L 721.235471 285.67406 
L 723.751503 283.958484 
L 726.267535 281.994649 
L 728.783567 279.746989 
L 731.299599 277.172242 
L 733.815631 274.217487 
L 736.331663 270.817442 
L 738.847695 266.890659 
L 740.52505 263.930345 
L 742.202405 260.65314 
L 743.87976 257.014074 
L 745.557114 252.958593 
L 747.234469 248.419541 
L 748.911824 243.31283 
L 750.589178 237.53111 
L 752.266533 230.934337 
L 753.943888 223.33554 
L 755.621242 214.479532 
L 757.298597 204.013367 
L 758.975952 191.459765 
L 760.653307 176.283429 
L 764.008016 142.853054 
L 764.846693 139.951814 
L 765.685371 142.357032 
L 766.524048 148.952735 
L 769.878758 182.777285 
L 771.556112 196.358198 
L 773.233467 207.560311 
L 774.910822 216.917104 
L 776.588176 224.846864 
L 778.265531 231.653326 
L 779.942886 237.557085 
L 781.62024 242.721422 
L 783.297595 247.270011 
L 784.97495 251.298665 
L 786.652305 254.883153 
L 788.329659 258.0845 
L 790.007014 260.952645 
L 792.523046 264.718884 
L 795.039078 267.940315 
L 797.55511 270.705869 
L 800.071142 273.086637 
L 802.587174 275.140248 
L 805.103206 276.913936 
L 807.619238 278.446767 
L 810.135271 279.771285 
L 813.48998 281.259769 
L 816.844689 282.479001 
L 820.199399 283.471455 
L 824.392786 284.444352 
L 828.586172 285.167224 
L 832.779559 285.674784 
L 836.134269 285.917727 
L 837.811623 285.922034 
L 839.488978 285.774462 
L 842.843687 286.165971 
L 846.198397 286.163627 
L 849.553106 285.921237 
L 851.230461 285.619551 
L 852.907816 285.044722 
L 854.58517 284.20949 
L 855.423848 284.003198 
L 856.262525 284.135384 
L 858.778557 285.010491 
L 860.455912 285.229987 
L 862.971944 285.229697 
L 866.326653 284.972116 
L 870.52004 284.439833 
L 874.713427 283.70597 
L 878.068136 282.933707 
L 880.584168 282.192894 
L 883.1002 281.225016 
L 884.777555 280.364954 
L 886.45491 279.213204 
L 889.809619 276.257059 
L 890.648297 275.340687 
L 891.486974 274.241978 
L 892.325651 272.891647 
L 895.680361 266.508552 
L 896.519038 264.268344 
L 897.357715 261.113802 
L 898.196393 256.901036 
L 899.03507 251.482481 
L 899.873747 244.801583 
L 901.551102 230.128161 
L 902.38978 226.357524 
L 903.228457 228.148449 
L 904.067134 234.259905 
L 905.744489 248.441749 
L 906.583166 253.963009 
L 907.421844 258.242524 
L 908.260521 261.537109 
L 909.099198 264.140908 
L 909.937876 266.222009 
L 910.776553 267.851279 
L 911.61523 269.097976 
L 912.453908 270.037493 
L 913.292585 270.735472 
L 914.131263 271.24315 
L 914.96994 271.599113 
L 916.647295 271.964189 
L 918.324649 271.986166 
L 920.002004 271.754313 
L 921.679359 271.320073 
L 923.356713 270.711871 
L 925.872745 269.499361 
L 928.388778 267.923089 
L 930.066132 266.649582 
L 931.743487 265.16969 
L 933.420842 263.445336 
L 935.098196 261.420377 
L 936.775551 259.010255 
L 938.452906 256.081766 
L 940.130261 252.411565 
L 940.968938 250.183771 
L 941.807615 247.597581 
L 942.646293 244.544994 
L 943.48497 240.878565 
L 944.323647 236.411263 
L 945.162325 230.962006 
L 946.839679 218.000995 
L 947.678357 213.538365 
L 948.517034 213.433385 
L 950.194389 219.793344 
L 951.033066 221.49469 
L 951.871743 221.463686 
L 952.710421 219.990217 
L 953.549098 217.375535 
L 954.387776 213.822145 
L 955.226453 209.438446 
L 956.06513 204.263666 
L 956.903808 198.290781 
L 958.581162 183.832532 
L 961.935872 150.922561 
L 962.774549 148.525187 
L 963.613226 151.575638 
L 964.451904 158.645915 
L 966.967936 184.611202 
L 968.645291 198.944812 
L 970.322645 210.430543 
L 972 219.669473 
L 972 219.669473 
" style="fill:none;stroke:#0000ff;stroke-linecap:square;stroke-width:1.5;"/>
   </g>
   <g id="line2d_86">
    <path clip-path="url(#p20c0e06267)" d="M 135 575.072726 
L 135.838677 567.953252 
L 136.677355 565.296704 
L 138.354709 560.606336 
L 140.032064 555.019751 
L 141.709419 548.504067 
L 143.386774 541.12909 
L 145.064128 532.719514 
L 146.741483 522.712634 
L 147.58016 516.791006 
L 148.418838 510.017967 
L 149.257515 502.209346 
L 151.773547 474.438114 
L 152.612224 468.21168 
L 153.450902 466.987034 
L 154.289579 469.96236 
L 155.966934 478.964142 
L 156.805611 482.434784 
L 157.644289 484.889185 
L 158.482966 486.452468 
L 159.321643 487.295075 
L 160.160321 487.572555 
L 160.998998 487.410458 
L 161.837675 486.904852 
L 162.676353 486.127179 
L 163.51503 485.129473 
L 165.192385 482.610212 
L 166.869739 479.515831 
L 168.547094 475.885681 
L 170.224449 471.651439 
L 171.901804 466.620348 
L 173.579158 460.400432 
L 174.417836 456.617617 
L 175.256513 452.155911 
L 176.09519 446.615066 
L 176.933868 438.989612 
L 177.772545 427.835047 
L 178.611222 412.193665 
L 180.288577 375.199764 
L 181.127255 360.053151 
L 181.965932 349.662145 
L 182.804609 343.670341 
L 183.643287 340.789253 
L 184.481964 338.710457 
L 185.320641 337.906767 
L 186.159319 339.887122 
L 186.997996 347.370781 
L 187.836673 360.753511 
L 190.352705 412.567663 
L 191.191383 424.918957 
L 192.03006 432.83107 
L 192.868737 437.753269 
L 193.707415 441.026481 
L 194.546092 443.36497 
L 195.38477 445.060403 
L 196.223447 446.283499 
L 197.062124 447.148695 
L 197.900802 447.737202 
L 198.739479 448.108606 
L 199.578156 448.307644 
L 200.416834 448.368494 
L 202.094188 448.175835 
L 203.771543 447.681808 
L 205.448898 446.982431 
L 207.96493 445.679665 
L 211.319639 443.653673 
L 215.513026 440.856718 
L 219.706413 437.838062 
L 223.061122 435.163233 
L 224.738477 433.631455 
L 226.415832 431.815701 
L 227.254509 430.716193 
L 228.093186 429.399837 
L 228.931864 427.741507 
L 229.770541 425.521358 
L 230.609218 422.343935 
L 231.447896 417.522667 
L 232.286573 410.182028 
L 233.125251 401.195367 
L 233.963928 398.218538 
L 235.641283 412.990606 
L 236.47996 417.954557 
L 237.318637 420.71456 
L 238.157315 422.185067 
L 238.995992 422.922247 
L 239.834669 423.230365 
L 240.673347 423.276829 
L 242.350701 422.92695 
L 244.028056 422.262945 
L 246.544088 420.988761 
L 249.898798 419.035848 
L 254.092184 416.35368 
L 258.285571 413.407115 
L 261.640281 410.778847 
L 264.156313 408.568402 
L 266.672345 406.055318 
L 268.349699 404.145607 
L 270.027054 401.98136 
L 271.704409 399.481054 
L 273.381764 396.531638 
L 275.059118 392.974534 
L 276.736473 388.585148 
L 278.413828 383.043659 
L 279.252505 379.705533 
L 280.091182 375.896582 
L 280.92986 371.533025 
L 281.768537 366.520634 
L 282.607214 360.760516 
L 284.284569 346.70831 
L 286.800601 322.790351 
L 287.639279 318.593083 
L 288.477956 319.224943 
L 289.316633 324.224007 
L 292.671343 353.009005 
L 293.51002 358.602283 
L 294.348697 363.385764 
L 295.187375 367.454098 
L 296.026052 370.905983 
L 296.864729 373.832472 
L 297.703407 376.313406 
L 298.542084 378.417125 
L 299.380762 380.201406 
L 300.219439 381.714805 
L 301.896794 384.085106 
L 303.574148 385.780555 
L 305.251503 386.97897 
L 306.928858 387.806596 
L 308.606212 388.354048 
L 310.283567 388.687149 
L 312.799599 388.887319 
L 315.315631 388.826176 
L 318.670341 388.465286 
L 322.863727 387.717798 
L 327.895792 386.551938 
L 334.60521 384.734331 
L 343.830661 381.973014 
L 355.572144 378.219863 
L 366.47495 374.527867 
L 374.861723 371.459699 
L 380.732465 369.064174 
L 384.925852 367.099475 
L 388.280561 365.239993 
L 390.796593 363.549276 
L 392.473948 362.193008 
L 394.151303 360.555296 
L 395.828657 358.492284 
L 396.667335 357.230848 
L 397.506012 355.759733 
L 398.344689 354.018471 
L 399.183367 351.925393 
L 400.022044 349.370364 
L 400.860721 346.209041 
L 401.699399 342.27424 
L 402.538076 337.45734 
L 404.215431 325.699037 
L 405.892786 312.566996 
L 406.731463 309.228378 
L 407.57014 310.884487 
L 408.408818 316.462536 
L 410.086172 329.666438 
L 410.92485 334.922823 
L 411.763527 339.04926 
L 412.602204 342.209548 
L 413.440882 344.59784 
L 414.279559 346.384934 
L 415.118236 347.708437 
L 415.956914 348.67901 
L 416.795591 349.383294 
L 417.634269 349.87751 
L 418.472946 350.197538 
L 419.311623 350.372999 
L 420.988978 350.384314 
L 422.666333 350.049804 
L 424.343687 349.44707 
L 426.021042 348.61612 
L 427.698397 347.572453 
L 429.375752 346.313463 
L 431.053106 344.820965 
L 432.730461 343.061134 
L 434.407816 340.982251 
L 436.08517 338.510072 
L 437.762525 335.53985 
L 439.43988 331.921917 
L 441.117234 327.427971 
L 442.794589 321.71577 
L 444.471944 314.864289 
L 445.310621 310.718951 
L 446.149299 305.945008 
L 446.987976 300.46952 
L 447.826653 294.199916 
L 449.504008 278.970664 
L 452.02004 253.221673 
L 452.858717 249.175098 
L 453.697395 250.765417 
L 454.536072 257.083342 
L 457.052104 282.307335 
L 458.729459 295.61632 
L 459.568136 300.945998 
L 460.406814 305.517673 
L 462.084168 312.843697 
L 462.922846 315.787728 
L 463.761523 318.320538 
L 464.6002 320.494014 
L 466.277555 323.95612 
L 467.95491 326.491335 
L 469.632265 328.324765 
L 471.309619 329.617397 
L 472.986974 330.485322 
L 474.664329 331.012372 
L 476.341683 331.258608 
L 478.019038 331.265931 
L 479.696393 331.061455 
L 481.373747 330.658713 
L 483.051102 330.055598 
L 484.728457 329.224281 
L 486.405812 328.071624 
L 487.244489 327.291531 
L 488.083166 326.25459 
L 488.921844 324.756516 
L 489.760521 322.696057 
L 490.599198 321.415773 
L 491.437876 321.821662 
L 492.276553 321.979176 
L 493.11523 321.475101 
L 493.953908 320.533589 
L 494.792585 319.274689 
L 495.631263 317.722773 
L 496.46994 315.845864 
L 497.308617 313.565246 
L 498.147295 310.745498 
L 498.985972 307.174489 
L 499.824649 302.584255 
L 501.502004 290.943232 
L 502.340681 286.435122 
L 503.179359 285.26451 
L 504.018036 284.748156 
L 504.856713 281.98921 
L 505.695391 277.210175 
L 506.534068 271.230112 
L 507.372745 263.622964 
L 509.0501 247.19926 
L 509.888778 243.903224 
L 510.727455 247.040728 
L 511.566132 254.711319 
L 513.243487 272.179069 
L 514.082164 279.491624 
L 514.920842 285.578258 
L 515.759519 290.557281 
L 516.598196 294.590479 
L 517.436874 297.833021 
L 518.275551 300.418401 
L 519.114228 302.455801 
L 519.952906 304.031466 
L 520.791583 305.210905 
L 521.630261 306.040563 
L 522.468938 306.548195 
L 523.307615 306.741151 
L 524.146293 306.601293 
L 524.98497 306.074503 
L 525.823647 305.05259 
L 526.662325 303.354102 
L 527.501002 300.77025 
L 529.178357 294.515307 
L 530.017034 292.389323 
L 530.855711 289.460995 
L 531.694389 286.127299 
L 532.533066 285.559428 
L 533.371743 288.908012 
L 534.210421 293.484572 
L 535.049098 297.196813 
L 535.887776 299.679262 
L 536.726453 301.180755 
L 537.56513 301.985886 
L 538.403808 302.291272 
L 539.242485 302.206885 
L 540.081162 301.770679 
L 540.91984 300.954355 
L 541.758517 299.687648 
L 542.597194 298.112576 
L 543.435872 297.01342 
L 544.274549 296.828984 
L 545.951904 297.753025 
L 546.790581 297.912136 
L 547.629259 297.772932 
L 548.467936 297.418078 
L 550.145291 296.305948 
L 551.822645 294.862036 
L 553.5 293.162917 
L 555.177355 291.089756 
L 556.854709 288.798047 
L 558.532064 287.347924 
L 560.209419 285.454628 
L 562.725451 282.108817 
L 565.241483 278.396027 
L 567.757515 274.331269 
L 570.273547 269.879986 
L 572.789579 264.987391 
L 575.305611 259.579204 
L 577.821643 253.555683 
L 580.337675 246.779769 
L 582.01503 241.750962 
L 583.692385 236.221306 
L 585.369739 230.078745 
L 587.047094 223.15909 
L 588.724449 215.203425 
L 590.401804 205.790691 
L 592.079158 194.569909 
L 593.756513 183.501413 
L 594.59519 178.46565 
L 595.433868 172.712991 
L 597.111222 159.069925 
L 600.465932 130.770513 
L 601.304609 128.684497 
L 602.143287 131.352696 
L 602.981964 137.711909 
L 606.336673 170.129631 
L 608.014028 183.460825 
L 609.691383 194.625388 
L 611.368737 204.092365 
L 613.046092 212.242832 
L 614.723447 219.357321 
L 616.400802 225.64036 
L 618.078156 231.242971 
L 619.755511 236.278727 
L 622.271543 242.954439 
L 624.787575 248.763883 
L 627.303607 253.861143 
L 629.819639 258.357094 
L 632.335671 262.330988 
L 634.851703 265.835872 
L 637.367735 268.89819 
L 639.883768 271.508622 
L 641.561122 272.966059 
L 643.238477 274.141805 
L 644.915832 274.935974 
L 645.754509 275.134111 
L 646.593186 275.14978 
L 647.431864 274.924289 
L 648.270541 274.371543 
L 649.109218 273.3646 
L 649.947896 271.717753 
L 650.786573 269.169803 
L 651.625251 265.396316 
L 652.463928 260.147902 
L 654.141283 248.220525 
L 654.97996 247.109451 
L 655.818637 251.506665 
L 657.495992 264.836645 
L 658.334669 270.06714 
L 659.173347 274.080512 
L 660.012024 277.145522 
L 660.850701 279.517703 
L 661.689379 281.390729 
L 662.528056 282.901758 
L 663.366733 284.146147 
L 665.044088 286.08075 
L 666.721443 287.523945 
L 668.398798 288.643922 
L 670.076152 289.524677 
L 671.753507 290.187864 
L 673.430862 290.543581 
L 674.269539 290.496835 
L 675.108216 290.24958 
L 675.946894 290.199856 
L 678.462926 291.732312 
L 679.301603 291.950521 
L 680.978958 292.045446 
L 681.817635 291.924945 
L 682.656313 291.663427 
L 683.49499 291.233857 
L 685.172345 290.080902 
L 686.011022 289.853224 
L 686.849699 290.187552 
L 689.365731 292.199454 
L 690.204409 292.633099 
L 691.881764 293.152289 
L 693.559118 293.387469 
L 696.07515 293.454145 
L 698.591182 293.311438 
L 701.945892 292.887705 
L 705.300601 292.231337 
L 708.655311 291.345893 
L 712.01002 290.218235 
L 715.364729 288.824144 
L 718.719439 287.129123 
L 721.235471 285.633194 
L 723.751503 283.917894 
L 726.267535 281.953049 
L 728.783567 279.700154 
L 731.299599 277.100049 
L 732.976954 275.098444 
L 737.170341 269.517647 
L 738.847695 266.85619 
L 740.52505 263.904078 
L 742.202405 260.631609 
L 743.87976 256.995914 
L 745.557114 252.943158 
L 747.234469 248.406469 
L 748.911824 243.30188 
L 750.589178 237.522093 
L 752.266533 230.92708 
L 753.943888 223.329874 
L 755.621242 214.475276 
L 757.298597 204.01033 
L 758.975952 191.457736 
L 760.653307 176.282183 
L 764.008016 142.852624 
L 764.846693 139.951416 
L 765.685371 142.356591 
L 766.524048 148.952173 
L 769.878758 182.775298 
L 771.556112 196.354747 
L 773.233467 207.55458 
L 774.910822 216.907669 
L 776.588176 224.830795 
L 778.265531 231.623276 
L 779.942886 237.489355 
L 781.62024 242.512338 
L 784.97495 251.062989 
L 786.652305 254.773509 
L 788.329659 258.014971 
L 790.007014 260.89943 
L 792.523046 264.675637 
L 795.039078 267.900607 
L 797.55511 270.667144 
L 800.071142 273.047701 
L 802.587174 275.100488 
L 805.103206 276.873017 
L 807.619238 278.404492 
L 810.135271 279.727518 
L 813.48998 281.213808 
L 816.844689 282.430468 
L 820.199399 283.419495 
L 824.392786 284.384424 
L 828.586172 285.078558 
L 831.102204 285.314572 
L 831.940882 285.306147 
L 833.618236 285.013152 
L 836.972946 285.791093 
L 838.650301 285.747726 
L 839.488978 285.690041 
L 842.843687 286.100374 
L 846.198397 286.104305 
L 849.553106 285.864999 
L 851.230461 285.5646 
L 852.907816 284.991316 
L 854.58517 284.157899 
L 855.423848 283.952091 
L 856.262525 284.084159 
L 858.778557 284.957972 
L 860.455912 285.177167 
L 862.971944 285.176932 
L 866.326653 284.919779 
L 870.52004 284.388285 
L 874.713427 283.655468 
L 878.068136 282.884298 
L 880.584168 282.144538 
L 883.1002 281.178038 
L 884.777555 280.3192 
L 886.45491 279.16907 
L 889.809619 276.216878 
L 890.648297 275.30167 
L 891.486974 274.204319 
L 892.325651 272.855605 
L 895.680361 266.479286 
L 896.519038 264.241154 
L 897.357715 261.089303 
L 898.196393 256.879731 
L 899.03507 251.464685 
L 899.873747 244.787333 
L 901.551102 230.119417 
L 902.38978 226.349807 
L 903.228457 228.140244 
L 904.067134 234.249822 
L 905.744489 248.425495 
L 906.583166 253.943428 
L 907.421844 258.219895 
L 908.260521 261.511807 
L 909.099198 264.113263 
L 909.937876 266.192327 
L 910.776553 267.81989 
L 911.61523 269.065202 
L 912.453908 270.003625 
L 913.292585 270.700753 
L 914.131263 271.207786 
L 914.96994 271.563274 
L 916.647295 271.927806 
L 918.324649 271.949651 
L 920.002004 271.717976 
L 921.679359 271.284157 
L 923.356713 270.676577 
L 925.872745 269.465323 
L 928.388778 267.89066 
L 930.066132 266.618417 
L 931.743487 265.139945 
L 933.420842 263.417177 
L 935.098196 261.393988 
L 936.775551 258.985841 
L 938.452906 256.059567 
L 940.130261 252.391876 
L 940.968938 250.16547 
L 941.807615 247.580774 
L 942.646293 244.529797 
L 943.48497 240.865105 
L 944.323647 236.399655 
L 945.162325 230.95232 
L 946.839679 217.9947 
L 947.678357 213.532936 
L 948.517034 213.427968 
L 950.194389 219.786622 
L 951.033066 221.487564 
L 951.871743 221.456557 
L 952.710421 219.983421 
L 953.549098 217.3693 
L 954.387776 213.816602 
L 955.226453 209.433653 
L 956.06513 204.259629 
L 956.903808 198.287471 
L 958.581162 183.830486 
L 961.935872 150.921878 
L 962.774549 148.524555 
L 963.613226 151.574938 
L 964.451904 158.645026 
L 966.967936 184.609073 
L 968.645291 198.941361 
L 970.322645 210.42546 
L 972 219.662528 
L 972 219.662528 
" style="fill:none;stroke:#000000;stroke-linecap:square;stroke-width:1.5;"/>
   </g>
   <g id="patch_3">
    <path d="M 135 576.72 
L 135 77.76 
" style="fill:none;stroke:#000000;stroke-linecap:square;stroke-linejoin:miter;stroke-width:0.8;"/>
   </g>
   <g id="patch_4">
    <path d="M 972 576.72 
L 972 77.76 
" style="fill:none;stroke:#000000;stroke-linecap:square;stroke-linejoin:miter;stroke-width:0.8;"/>
   </g>
   <g id="patch_5">
    <path d="M 135 576.72 
L 972 576.72 
" style="fill:none;stroke:#000000;stroke-linecap:square;stroke-linejoin:miter;stroke-width:0.8;"/>
   </g>
   <g id="patch_6">
    <path d="M 135 77.76 
L 972 77.76 
" style="fill:none;stroke:#000000;stroke-linecap:square;stroke-linejoin:miter;stroke-width:0.8;"/>
   </g>
   <g id="text_14">
    <!-- Specific attenuation for standard conditions, according to ITU-R P.676 (10), annex 1 -->
    <defs>
     <path d="M 44.28125 53.078125 
L 44.28125 44.578125 
Q 40.484375 46.53125 36.375 47.5 
Q 32.28125 48.484375 27.875 48.484375 
Q 21.1875 48.484375 17.84375 46.4375 
Q 14.5 44.390625 14.5 40.28125 
Q 14.5 37.15625 16.890625 35.375 
Q 19.28125 33.59375 26.515625 31.984375 
L 29.59375 31.296875 
Q 39.15625 29.25 43.1875 25.515625 
Q 47.21875 21.78125 47.21875 15.09375 
Q 47.21875 7.46875 41.1875 3.015625 
Q 35.15625 -1.421875 24.609375 -1.421875 
Q 20.21875 -1.421875 15.453125 -0.5625 
Q 10.6875 0.296875 5.421875 2 
L 5.421875 11.28125 
Q 10.40625 8.6875 15.234375 7.390625 
Q 20.0625 6.109375 24.8125 6.109375 
Q 31.15625 6.109375 34.5625 8.28125 
Q 37.984375 10.453125 37.984375 14.40625 
Q 37.984375 18.0625 35.515625 20.015625 
Q 33.0625 21.96875 24.703125 23.78125 
L 21.578125 24.515625 
Q 13.234375 26.265625 9.515625 29.90625 
Q 5.8125 33.546875 5.8125 39.890625 
Q 5.8125 47.609375 11.28125 51.796875 
Q 16.75 56 26.8125 56 
Q 31.78125 56 36.171875 55.265625 
Q 40.578125 54.546875 44.28125 53.078125 
z
" id="DejaVuSans-73"/>
     <path d="M 11.71875 12.40625 
L 22.015625 12.40625 
L 22.015625 4 
L 14.015625 -11.625 
L 7.71875 -11.625 
L 11.71875 4 
z
" id="DejaVuSans-2c"/>
     <path d="M 45.40625 27.984375 
Q 45.40625 37.75 41.375 43.109375 
Q 37.359375 48.484375 30.078125 48.484375 
Q 22.859375 48.484375 18.828125 43.109375 
Q 14.796875 37.75 14.796875 27.984375 
Q 14.796875 18.265625 18.828125 12.890625 
Q 22.859375 7.515625 30.078125 7.515625 
Q 37.359375 7.515625 41.375 12.890625 
Q 45.40625 18.265625 45.40625 27.984375 
z
M 54.390625 6.78125 
Q 54.390625 -7.171875 48.1875 -13.984375 
Q 42 -20.796875 29.203125 -20.796875 
Q 24.46875 -20.796875 20.265625 -20.09375 
Q 16.0625 -19.390625 12.109375 -17.921875 
L 12.109375 -9.1875 
Q 16.0625 -11.328125 19.921875 -12.34375 
Q 23.78125 -13.375 27.78125 -13.375 
Q 36.625 -13.375 41.015625 -8.765625 
Q 45.40625 -4.15625 45.40625 5.171875 
L 45.40625 9.625 
Q 42.625 4.78125 38.28125 2.390625 
Q 33.9375 0 27.875 0 
Q 17.828125 0 11.671875 7.65625 
Q 5.515625 15.328125 5.515625 27.984375 
Q 5.515625 40.671875 11.671875 48.328125 
Q 17.828125 56 27.875 56 
Q 33.9375 56 38.28125 53.609375 
Q 42.625 51.21875 45.40625 46.390625 
L 45.40625 54.6875 
L 54.390625 54.6875 
z
" id="DejaVuSans-67"/>
     <path d="M 9.8125 72.90625 
L 19.671875 72.90625 
L 19.671875 0 
L 9.8125 0 
z
" id="DejaVuSans-49"/>
     <path d="M -0.296875 72.90625 
L 61.375 72.90625 
L 61.375 64.59375 
L 35.5 64.59375 
L 35.5 0 
L 25.59375 0 
L 25.59375 64.59375 
L -0.296875 64.59375 
z
" id="DejaVuSans-54"/>
     <path d="M 8.6875 72.90625 
L 18.609375 72.90625 
L 18.609375 28.609375 
Q 18.609375 16.890625 22.84375 11.734375 
Q 27.09375 6.59375 36.625 6.59375 
Q 46.09375 6.59375 50.34375 11.734375 
Q 54.59375 16.890625 54.59375 28.609375 
L 54.59375 72.90625 
L 64.5 72.90625 
L 64.5 27.390625 
Q 64.5 13.140625 57.4375 5.859375 
Q 50.390625 -1.421875 36.625 -1.421875 
Q 22.796875 -1.421875 15.734375 5.859375 
Q 8.6875 13.140625 8.6875 27.390625 
z
" id="DejaVuSans-55"/>
     <path d="M 4.890625 31.390625 
L 31.203125 31.390625 
L 31.203125 23.390625 
L 4.890625 23.390625 
z
" id="DejaVuSans-2d"/>
     <path d="M 44.390625 34.1875 
Q 47.5625 33.109375 50.5625 29.59375 
Q 53.5625 26.078125 56.59375 19.921875 
L 66.609375 0 
L 56 0 
L 46.6875 18.703125 
Q 43.0625 26.03125 39.671875 28.421875 
Q 36.28125 30.8125 30.421875 30.8125 
L 19.671875 30.8125 
L 19.671875 0 
L 9.8125 0 
L 9.8125 72.90625 
L 32.078125 72.90625 
Q 44.578125 72.90625 50.734375 67.671875 
Q 56.890625 62.453125 56.890625 51.90625 
Q 56.890625 45.015625 53.6875 40.46875 
Q 50.484375 35.9375 44.390625 34.1875 
z
M 19.671875 64.796875 
L 19.671875 38.921875 
L 32.078125 38.921875 
Q 39.203125 38.921875 42.84375 42.21875 
Q 46.484375 45.515625 46.484375 51.90625 
Q 46.484375 58.296875 42.84375 61.546875 
Q 39.203125 64.796875 32.078125 64.796875 
z
" id="DejaVuSans-52"/>
     <path d="M 19.671875 64.796875 
L 19.671875 37.40625 
L 32.078125 37.40625 
Q 38.96875 37.40625 42.71875 40.96875 
Q 46.484375 44.53125 46.484375 51.125 
Q 46.484375 57.671875 42.71875 61.234375 
Q 38.96875 64.796875 32.078125 64.796875 
z
M 9.8125 72.90625 
L 32.078125 72.90625 
Q 44.34375 72.90625 50.609375 67.359375 
Q 56.890625 61.8125 56.890625 51.125 
Q 56.890625 40.328125 50.609375 34.8125 
Q 44.34375 29.296875 32.078125 29.296875 
L 19.671875 29.296875 
L 19.671875 0 
L 9.8125 0 
z
" id="DejaVuSans-50"/>
     <path d="M 10.6875 12.40625 
L 21 12.40625 
L 21 0 
L 10.6875 0 
z
" id="DejaVuSans-2e"/>
     <path d="M 8.203125 72.90625 
L 55.078125 72.90625 
L 55.078125 68.703125 
L 28.609375 0 
L 18.3125 0 
L 43.21875 64.59375 
L 8.203125 64.59375 
z
" id="DejaVuSans-37"/>
     <path d="M 31 75.875 
Q 24.46875 64.65625 21.28125 53.65625 
Q 18.109375 42.671875 18.109375 31.390625 
Q 18.109375 20.125 21.3125 9.0625 
Q 24.515625 -2 31 -13.1875 
L 23.1875 -13.1875 
Q 15.875 -1.703125 12.234375 9.375 
Q 8.59375 20.453125 8.59375 31.390625 
Q 8.59375 42.28125 12.203125 53.3125 
Q 15.828125 64.359375 23.1875 75.875 
z
" id="DejaVuSans-28"/>
     <path d="M 8.015625 75.875 
L 15.828125 75.875 
Q 23.140625 64.359375 26.78125 53.3125 
Q 30.421875 42.28125 30.421875 31.390625 
Q 30.421875 20.453125 26.78125 9.375 
Q 23.140625 -1.703125 15.828125 -13.1875 
L 8.015625 -13.1875 
Q 14.5 -2 17.703125 9.0625 
Q 20.90625 20.125 20.90625 31.390625 
Q 20.90625 42.671875 17.703125 53.65625 
Q 14.5 64.65625 8.015625 75.875 
z
" id="DejaVuSans-29"/>
     <path d="M 54.890625 54.6875 
L 35.109375 28.078125 
L 55.90625 0 
L 45.3125 0 
L 29.390625 21.484375 
L 13.484375 0 
L 2.875 0 
L 24.125 28.609375 
L 4.6875 54.6875 
L 15.28125 54.6875 
L 29.78125 35.203125 
L 44.28125 54.6875 
z
" id="DejaVuSans-78"/>
    </defs>
    <g transform="translate(217.32625 71.76)scale(0.16 -0.16)">
     <use xlink:href="#DejaVuSans-53"/>
     <use x="63.476562" xlink:href="#DejaVuSans-70"/>
     <use x="126.953125" xlink:href="#DejaVuSans-65"/>
     <use x="188.476562" xlink:href="#DejaVuSans-63"/>
     <use x="243.457031" xlink:href="#DejaVuSans-69"/>
     <use x="271.240234" xlink:href="#DejaVuSans-66"/>
     <use x="306.445312" xlink:href="#DejaVuSans-69"/>
     <use x="334.228516" xlink:href="#DejaVuSans-63"/>
     <use x="389.208984" xlink:href="#DejaVuSans-20"/>
     <use x="420.996094" xlink:href="#DejaVuSans-61"/>
     <use x="482.275391" xlink:href="#DejaVuSans-74"/>
     <use x="521.484375" xlink:href="#DejaVuSans-74"/>
     <use x="560.693359" xlink:href="#DejaVuSans-65"/>
     <use x="622.216797" xlink:href="#DejaVuSans-6e"/>
     <use x="685.595703" xlink:href="#DejaVuSans-75"/>
     <use x="748.974609" xlink:href="#DejaVuSans-61"/>
     <use x="810.253906" xlink:href="#DejaVuSans-74"/>
     <use x="849.462891" xlink:href="#DejaVuSans-69"/>
     <use x="877.246094" xlink:href="#DejaVuSans-6f"/>
     <use x="938.427734" xlink:href="#DejaVuSans-6e"/>
     <use x="1001.806641" xlink:href="#DejaVuSans-20"/>
     <use x="1033.59375" xlink:href="#DejaVuSans-66"/>
     <use x="1068.798828" xlink:href="#DejaVuSans-6f"/>
     <use x="1129.980469" xlink:href="#DejaVuSans-72"/>
     <use x="1171.09375" xlink:href="#DejaVuSans-20"/>
     <use x="1202.880859" xlink:href="#DejaVuSans-73"/>
     <use x="1254.980469" xlink:href="#DejaVuSans-74"/>
     <use x="1294.189453" xlink:href="#DejaVuSans-61"/>
     <use x="1355.46875" xlink:href="#DejaVuSans-6e"/>
     <use x="1418.847656" xlink:href="#DejaVuSans-64"/>
     <use x="1482.324219" xlink:href="#DejaVuSans-61"/>
     <use x="1543.603516" xlink:href="#DejaVuSans-72"/>
     <use x="1584.701172" xlink:href="#DejaVuSans-64"/>
     <use x="1648.177734" xlink:href="#DejaVuSans-20"/>
     <use x="1679.964844" xlink:href="#DejaVuSans-63"/>
     <use x="1734.945312" xlink:href="#DejaVuSans-6f"/>
     <use x="1796.126953" xlink:href="#DejaVuSans-6e"/>
     <use x="1859.505859" xlink:href="#DejaVuSans-64"/>
     <use x="1922.982422" xlink:href="#DejaVuSans-69"/>
     <use x="1950.765625" xlink:href="#DejaVuSans-74"/>
     <use x="1989.974609" xlink:href="#DejaVuSans-69"/>
     <use x="2017.757812" xlink:href="#DejaVuSans-6f"/>
     <use x="2078.939453" xlink:href="#DejaVuSans-6e"/>
     <use x="2142.318359" xlink:href="#DejaVuSans-73"/>
     <use x="2194.417969" xlink:href="#DejaVuSans-2c"/>
     <use x="2226.205078" xlink:href="#DejaVuSans-20"/>
     <use x="2257.992188" xlink:href="#DejaVuSans-61"/>
     <use x="2319.271484" xlink:href="#DejaVuSans-63"/>
     <use x="2374.251953" xlink:href="#DejaVuSans-63"/>
     <use x="2429.232422" xlink:href="#DejaVuSans-6f"/>
     <use x="2490.414062" xlink:href="#DejaVuSans-72"/>
     <use x="2531.511719" xlink:href="#DejaVuSans-64"/>
     <use x="2594.988281" xlink:href="#DejaVuSans-69"/>
     <use x="2622.771484" xlink:href="#DejaVuSans-6e"/>
     <use x="2686.150391" xlink:href="#DejaVuSans-67"/>
     <use x="2749.626953" xlink:href="#DejaVuSans-20"/>
     <use x="2781.414062" xlink:href="#DejaVuSans-74"/>
     <use x="2820.623047" xlink:href="#DejaVuSans-6f"/>
     <use x="2881.804688" xlink:href="#DejaVuSans-20"/>
     <use x="2913.591797" xlink:href="#DejaVuSans-49"/>
     <use x="2943.083984" xlink:href="#DejaVuSans-54"/>
     <use x="3004.167969" xlink:href="#DejaVuSans-55"/>
     <use x="3077.361328" xlink:href="#DejaVuSans-2d"/>
     <use x="3113.445312" xlink:href="#DejaVuSans-52"/>
     <use x="3182.927734" xlink:href="#DejaVuSans-20"/>
     <use x="3214.714844" xlink:href="#DejaVuSans-50"/>
     <use x="3274.783203" xlink:href="#DejaVuSans-2e"/>
     <use x="3306.570312" xlink:href="#DejaVuSans-36"/>
     <use x="3370.193359" xlink:href="#DejaVuSans-37"/>
     <use x="3433.816406" xlink:href="#DejaVuSans-36"/>
     <use x="3497.439453" xlink:href="#DejaVuSans-20"/>
     <use x="3529.226562" xlink:href="#DejaVuSans-28"/>
     <use x="3568.240234" xlink:href="#DejaVuSans-31"/>
     <use x="3631.863281" xlink:href="#DejaVuSans-30"/>
     <use x="3695.486328" xlink:href="#DejaVuSans-29"/>
     <use x="3734.5" xlink:href="#DejaVuSans-2c"/>
     <use x="3766.287109" xlink:href="#DejaVuSans-20"/>
     <use x="3798.074219" xlink:href="#DejaVuSans-61"/>
     <use x="3859.353516" xlink:href="#DejaVuSans-6e"/>
     <use x="3922.732422" xlink:href="#DejaVuSans-6e"/>
     <use x="3986.111328" xlink:href="#DejaVuSans-65"/>
     <use x="4047.619141" xlink:href="#DejaVuSans-78"/>
     <use x="4106.798828" xlink:href="#DejaVuSans-20"/>
     <use x="4138.585938" xlink:href="#DejaVuSans-31"/>
    </g>
   </g>
   <g id="legend_1">
    <g id="patch_7">
     <path d="M 142 129.794375 
L 210.148438 129.794375 
Q 212.148438 129.794375 212.148438 127.794375 
L 212.148438 84.76 
Q 212.148438 82.76 210.148438 82.76 
L 142 82.76 
Q 140 82.76 140 84.76 
L 140 127.794375 
Q 140 129.794375 142 129.794375 
z
" style="fill:#ffffff;opacity:0.8;stroke:#cccccc;stroke-linejoin:miter;"/>
    </g>
    <g id="line2d_87">
     <path d="M 144 90.858437 
L 164 90.858437 
" style="fill:none;stroke:#ff0000;stroke-linecap:square;stroke-width:1.5;"/>
    </g>
    <g id="line2d_88"/>
    <g id="text_15">
     <!-- Dry air -->
     <defs>
      <path d="M 19.671875 64.796875 
L 19.671875 8.109375 
L 31.59375 8.109375 
Q 46.6875 8.109375 53.6875 14.9375 
Q 60.6875 21.78125 60.6875 36.53125 
Q 60.6875 51.171875 53.6875 57.984375 
Q 46.6875 64.796875 31.59375 64.796875 
z
M 9.8125 72.90625 
L 30.078125 72.90625 
Q 51.265625 72.90625 61.171875 64.09375 
Q 71.09375 55.28125 71.09375 36.53125 
Q 71.09375 17.671875 61.125 8.828125 
Q 51.171875 0 30.078125 0 
L 9.8125 0 
z
" id="DejaVuSans-44"/>
     </defs>
     <g transform="translate(172 94.358437)scale(0.1 -0.1)">
      <use xlink:href="#DejaVuSans-44"/>
      <use x="77.001953" xlink:href="#DejaVuSans-72"/>
      <use x="118.115234" xlink:href="#DejaVuSans-79"/>
      <use x="177.294922" xlink:href="#DejaVuSans-20"/>
      <use x="209.082031" xlink:href="#DejaVuSans-61"/>
      <use x="270.361328" xlink:href="#DejaVuSans-69"/>
      <use x="298.144531" xlink:href="#DejaVuSans-72"/>
     </g>
    </g>
    <g id="line2d_89">
     <path d="M 144 105.536562 
L 164 105.536562 
" style="fill:none;stroke:#0000ff;stroke-linecap:square;stroke-width:1.5;"/>
    </g>
    <g id="line2d_90"/>
    <g id="text_16">
     <!-- Wet air -->
     <defs>
      <path d="M 3.328125 72.90625 
L 13.28125 72.90625 
L 28.609375 11.28125 
L 43.890625 72.90625 
L 54.984375 72.90625 
L 70.3125 11.28125 
L 85.59375 72.90625 
L 95.609375 72.90625 
L 77.296875 0 
L 64.890625 0 
L 49.515625 63.28125 
L 33.984375 0 
L 21.578125 0 
z
" id="DejaVuSans-57"/>
     </defs>
     <g transform="translate(172 109.036562)scale(0.1 -0.1)">
      <use xlink:href="#DejaVuSans-57"/>
      <use x="98.798828" xlink:href="#DejaVuSans-65"/>
      <use x="160.322266" xlink:href="#DejaVuSans-74"/>
      <use x="199.53125" xlink:href="#DejaVuSans-20"/>
      <use x="231.318359" xlink:href="#DejaVuSans-61"/>
      <use x="292.597656" xlink:href="#DejaVuSans-69"/>
      <use x="320.380859" xlink:href="#DejaVuSans-72"/>
     </g>
    </g>
    <g id="line2d_91">
     <path d="M 144 120.214687 
L 164 120.214687 
" style="fill:none;stroke:#000000;stroke-linecap:square;stroke-width:1.5;"/>
    </g>
    <g id="line2d_92"/>
    <g id="text_17">
     <!-- Total -->
     <defs>
      <path d="M 9.421875 75.984375 
L 18.40625 75.984375 
L 18.40625 0 
L 9.421875 0 
z
" id="DejaVuSans-6c"/>
     </defs>
     <g transform="translate(172 123.714687)scale(0.1 -0.1)">
      <use xlink:href="#DejaVuSans-54"/>
      <use x="60.818359" xlink:href="#DejaVuSans-6f"/>
      <use x="122" xlink:href="#DejaVuSans-74"/>
      <use x="161.208984" xlink:href="#DejaVuSans-61"/>
      <use x="222.488281" xlink:href="#DejaVuSans-6c"/>
     </g>
    </g>
   </g>
  </g>
 </g>
 <defs>
  <clipPath id="p20c0e06267">
   <rect height="498.96" width="837" x="135" y="77.76"/>
  </clipPath>
 </defs>
</svg>
