<?xml version="1.0" encoding="utf-8" standalone="no"?>
<!DOCTYPE svg PUBLIC "-//W3C//DTD SVG 1.1//EN"
  "http://www.w3.org/Graphics/SVG/1.1/DTD/svg11.dtd">
<!-- Created with matplotlib (https://matplotlib.org/) -->
<svg height="432pt" version="1.1" viewBox="0 0 864 432" width="864pt" xmlns="http://www.w3.org/2000/svg" xmlns:xlink="http://www.w3.org/1999/xlink">
 <defs>
  <style type="text/css">
*{stroke-linecap:butt;stroke-linejoin:round;white-space:pre;}
  </style>
 </defs>
 <g id="figure_1">
  <g id="patch_1">
   <path d="M 0 432 
L 864 432 
L 864 0 
L 0 0 
z
" style="fill:#ffffff;"/>
  </g>
  <g id="axes_1">
   <g id="patch_2">
    <path d="M 108 318.6 
L 777.6 318.6 
L 777.6 117.72 
L 108 117.72 
z
" style="fill:#ffffff;"/>
   </g>
   <g id="matplotlib.axis_1">
    <g id="xtick_1">
     <g id="line2d_1">
      <defs>
       <path d="M 0 0 
L 0 3.5 
" id="mc34e22b30b" style="stroke:#000000;stroke-width:0.8;"/>
      </defs>
      <g>
       <use style="stroke:#000000;stroke-width:0.8;" x="108" xlink:href="#mc34e22b30b" y="318.6"/>
      </g>
     </g>
     <g id="text_1">
      <!-- 0 -->
      <defs>
       <path d="M 31.78125 66.40625 
Q 24.171875 66.40625 20.328125 58.90625 
Q 16.5 51.421875 16.5 36.375 
Q 16.5 21.390625 20.328125 13.890625 
Q 24.171875 6.390625 31.78125 6.390625 
Q 39.453125 6.390625 43.28125 13.890625 
Q 47.125 21.390625 47.125 36.375 
Q 47.125 51.421875 43.28125 58.90625 
Q 39.453125 66.40625 31.78125 66.40625 
z
M 31.78125 74.21875 
Q 44.046875 74.21875 50.515625 64.515625 
Q 56.984375 54.828125 56.984375 36.375 
Q 56.984375 17.96875 50.515625 8.265625 
Q 44.046875 -1.421875 31.78125 -1.421875 
Q 19.53125 -1.421875 13.0625 8.265625 
Q 6.59375 17.96875 6.59375 36.375 
Q 6.59375 54.828125 13.0625 64.515625 
Q 19.53125 74.21875 31.78125 74.21875 
z
" id="DejaVuSans-48"/>
      </defs>
      <g transform="translate(104.81875 333.198438)scale(0.1 -0.1)">
       <use xlink:href="#DejaVuSans-48"/>
      </g>
     </g>
    </g>
    <g id="xtick_2">
     <g id="line2d_2">
      <g>
       <use style="stroke:#000000;stroke-width:0.8;" x="223.448276" xlink:href="#mc34e22b30b" y="318.6"/>
      </g>
     </g>
     <g id="text_2">
      <!-- 50 -->
      <defs>
       <path d="M 10.796875 72.90625 
L 49.515625 72.90625 
L 49.515625 64.59375 
L 19.828125 64.59375 
L 19.828125 46.734375 
Q 21.96875 47.46875 24.109375 47.828125 
Q 26.265625 48.1875 28.421875 48.1875 
Q 40.625 48.1875 47.75 41.5 
Q 54.890625 34.8125 54.890625 23.390625 
Q 54.890625 11.625 47.5625 5.09375 
Q 40.234375 -1.421875 26.90625 -1.421875 
Q 22.3125 -1.421875 17.546875 -0.640625 
Q 12.796875 0.140625 7.71875 1.703125 
L 7.71875 11.625 
Q 12.109375 9.234375 16.796875 8.0625 
Q 21.484375 6.890625 26.703125 6.890625 
Q 35.15625 6.890625 40.078125 11.328125 
Q 45.015625 15.765625 45.015625 23.390625 
Q 45.015625 31 40.078125 35.4375 
Q 35.15625 39.890625 26.703125 39.890625 
Q 22.75 39.890625 18.8125 39.015625 
Q 14.890625 38.140625 10.796875 36.28125 
z
" id="DejaVuSans-53"/>
      </defs>
      <g transform="translate(217.085776 333.198438)scale(0.1 -0.1)">
       <use xlink:href="#DejaVuSans-53"/>
       <use x="63.623047" xlink:href="#DejaVuSans-48"/>
      </g>
     </g>
    </g>
    <g id="xtick_3">
     <g id="line2d_3">
      <g>
       <use style="stroke:#000000;stroke-width:0.8;" x="338.896552" xlink:href="#mc34e22b30b" y="318.6"/>
      </g>
     </g>
     <g id="text_3">
      <!-- 100 -->
      <defs>
       <path d="M 12.40625 8.296875 
L 28.515625 8.296875 
L 28.515625 63.921875 
L 10.984375 60.40625 
L 10.984375 69.390625 
L 28.421875 72.90625 
L 38.28125 72.90625 
L 38.28125 8.296875 
L 54.390625 8.296875 
L 54.390625 0 
L 12.40625 0 
z
" id="DejaVuSans-49"/>
      </defs>
      <g transform="translate(329.352802 333.198438)scale(0.1 -0.1)">
       <use xlink:href="#DejaVuSans-49"/>
       <use x="63.623047" xlink:href="#DejaVuSans-48"/>
       <use x="127.246094" xlink:href="#DejaVuSans-48"/>
      </g>
     </g>
    </g>
    <g id="xtick_4">
     <g id="line2d_4">
      <g>
       <use style="stroke:#000000;stroke-width:0.8;" x="454.344828" xlink:href="#mc34e22b30b" y="318.6"/>
      </g>
     </g>
     <g id="text_4">
      <!-- 150 -->
      <g transform="translate(444.801078 333.198438)scale(0.1 -0.1)">
       <use xlink:href="#DejaVuSans-49"/>
       <use x="63.623047" xlink:href="#DejaVuSans-53"/>
       <use x="127.246094" xlink:href="#DejaVuSans-48"/>
      </g>
     </g>
    </g>
    <g id="xtick_5">
     <g id="line2d_5">
      <g>
       <use style="stroke:#000000;stroke-width:0.8;" x="569.793103" xlink:href="#mc34e22b30b" y="318.6"/>
      </g>
     </g>
     <g id="text_5">
      <!-- 200 -->
      <defs>
       <path d="M 19.1875 8.296875 
L 53.609375 8.296875 
L 53.609375 0 
L 7.328125 0 
L 7.328125 8.296875 
Q 12.9375 14.109375 22.625 23.890625 
Q 32.328125 33.6875 34.8125 36.53125 
Q 39.546875 41.84375 41.421875 45.53125 
Q 43.3125 49.21875 43.3125 52.78125 
Q 43.3125 58.59375 39.234375 62.25 
Q 35.15625 65.921875 28.609375 65.921875 
Q 23.96875 65.921875 18.8125 64.3125 
Q 13.671875 62.703125 7.8125 59.421875 
L 7.8125 69.390625 
Q 13.765625 71.78125 18.9375 73 
Q 24.125 74.21875 28.421875 74.21875 
Q 39.75 74.21875 46.484375 68.546875 
Q 53.21875 62.890625 53.21875 53.421875 
Q 53.21875 48.921875 51.53125 44.890625 
Q 49.859375 40.875 45.40625 35.40625 
Q 44.1875 33.984375 37.640625 27.21875 
Q 31.109375 20.453125 19.1875 8.296875 
z
" id="DejaVuSans-50"/>
      </defs>
      <g transform="translate(560.249353 333.198438)scale(0.1 -0.1)">
       <use xlink:href="#DejaVuSans-50"/>
       <use x="63.623047" xlink:href="#DejaVuSans-48"/>
       <use x="127.246094" xlink:href="#DejaVuSans-48"/>
      </g>
     </g>
    </g>
    <g id="xtick_6">
     <g id="line2d_6">
      <g>
       <use style="stroke:#000000;stroke-width:0.8;" x="685.241379" xlink:href="#mc34e22b30b" y="318.6"/>
      </g>
     </g>
     <g id="text_6">
      <!-- 250 -->
      <g transform="translate(675.697629 333.198438)scale(0.1 -0.1)">
       <use xlink:href="#DejaVuSans-50"/>
       <use x="63.623047" xlink:href="#DejaVuSans-53"/>
       <use x="127.246094" xlink:href="#DejaVuSans-48"/>
      </g>
     </g>
    </g>
    <g id="text_7">
     <!-- Projected distance (km) -->
     <defs>
      <path d="M 19.671875 64.796875 
L 19.671875 37.40625 
L 32.078125 37.40625 
Q 38.96875 37.40625 42.71875 40.96875 
Q 46.484375 44.53125 46.484375 51.125 
Q 46.484375 57.671875 42.71875 61.234375 
Q 38.96875 64.796875 32.078125 64.796875 
z
M 9.8125 72.90625 
L 32.078125 72.90625 
Q 44.34375 72.90625 50.609375 67.359375 
Q 56.890625 61.8125 56.890625 51.125 
Q 56.890625 40.328125 50.609375 34.8125 
Q 44.34375 29.296875 32.078125 29.296875 
L 19.671875 29.296875 
L 19.671875 0 
L 9.8125 0 
z
" id="DejaVuSans-80"/>
      <path d="M 41.109375 46.296875 
Q 39.59375 47.171875 37.8125 47.578125 
Q 36.03125 48 33.890625 48 
Q 26.265625 48 22.1875 43.046875 
Q 18.109375 38.09375 18.109375 28.8125 
L 18.109375 0 
L 9.078125 0 
L 9.078125 54.6875 
L 18.109375 54.6875 
L 18.109375 46.1875 
Q 20.953125 51.171875 25.484375 53.578125 
Q 30.03125 56 36.53125 56 
Q 37.453125 56 38.578125 55.875 
Q 39.703125 55.765625 41.0625 55.515625 
z
" id="DejaVuSans-114"/>
      <path d="M 30.609375 48.390625 
Q 23.390625 48.390625 19.1875 42.75 
Q 14.984375 37.109375 14.984375 27.296875 
Q 14.984375 17.484375 19.15625 11.84375 
Q 23.34375 6.203125 30.609375 6.203125 
Q 37.796875 6.203125 41.984375 11.859375 
Q 46.1875 17.53125 46.1875 27.296875 
Q 46.1875 37.015625 41.984375 42.703125 
Q 37.796875 48.390625 30.609375 48.390625 
z
M 30.609375 56 
Q 42.328125 56 49.015625 48.375 
Q 55.71875 40.765625 55.71875 27.296875 
Q 55.71875 13.875 49.015625 6.21875 
Q 42.328125 -1.421875 30.609375 -1.421875 
Q 18.84375 -1.421875 12.171875 6.21875 
Q 5.515625 13.875 5.515625 27.296875 
Q 5.515625 40.765625 12.171875 48.375 
Q 18.84375 56 30.609375 56 
z
" id="DejaVuSans-111"/>
      <path d="M 9.421875 54.6875 
L 18.40625 54.6875 
L 18.40625 -0.984375 
Q 18.40625 -11.421875 14.421875 -16.109375 
Q 10.453125 -20.796875 1.609375 -20.796875 
L -1.8125 -20.796875 
L -1.8125 -13.1875 
L 0.59375 -13.1875 
Q 5.71875 -13.1875 7.5625 -10.8125 
Q 9.421875 -8.453125 9.421875 -0.984375 
z
M 9.421875 75.984375 
L 18.40625 75.984375 
L 18.40625 64.59375 
L 9.421875 64.59375 
z
" id="DejaVuSans-106"/>
      <path d="M 56.203125 29.59375 
L 56.203125 25.203125 
L 14.890625 25.203125 
Q 15.484375 15.921875 20.484375 11.0625 
Q 25.484375 6.203125 34.421875 6.203125 
Q 39.59375 6.203125 44.453125 7.46875 
Q 49.3125 8.734375 54.109375 11.28125 
L 54.109375 2.78125 
Q 49.265625 0.734375 44.1875 -0.34375 
Q 39.109375 -1.421875 33.890625 -1.421875 
Q 20.796875 -1.421875 13.15625 6.1875 
Q 5.515625 13.8125 5.515625 26.8125 
Q 5.515625 40.234375 12.765625 48.109375 
Q 20.015625 56 32.328125 56 
Q 43.359375 56 49.78125 48.890625 
Q 56.203125 41.796875 56.203125 29.59375 
z
M 47.21875 32.234375 
Q 47.125 39.59375 43.09375 43.984375 
Q 39.0625 48.390625 32.421875 48.390625 
Q 24.90625 48.390625 20.390625 44.140625 
Q 15.875 39.890625 15.1875 32.171875 
z
" id="DejaVuSans-101"/>
      <path d="M 48.78125 52.59375 
L 48.78125 44.1875 
Q 44.96875 46.296875 41.140625 47.34375 
Q 37.3125 48.390625 33.40625 48.390625 
Q 24.65625 48.390625 19.8125 42.84375 
Q 14.984375 37.3125 14.984375 27.296875 
Q 14.984375 17.28125 19.8125 11.734375 
Q 24.65625 6.203125 33.40625 6.203125 
Q 37.3125 6.203125 41.140625 7.25 
Q 44.96875 8.296875 48.78125 10.40625 
L 48.78125 2.09375 
Q 45.015625 0.34375 40.984375 -0.53125 
Q 36.96875 -1.421875 32.421875 -1.421875 
Q 20.0625 -1.421875 12.78125 6.34375 
Q 5.515625 14.109375 5.515625 27.296875 
Q 5.515625 40.671875 12.859375 48.328125 
Q 20.21875 56 33.015625 56 
Q 37.15625 56 41.109375 55.140625 
Q 45.0625 54.296875 48.78125 52.59375 
z
" id="DejaVuSans-99"/>
      <path d="M 18.3125 70.21875 
L 18.3125 54.6875 
L 36.8125 54.6875 
L 36.8125 47.703125 
L 18.3125 47.703125 
L 18.3125 18.015625 
Q 18.3125 11.328125 20.140625 9.421875 
Q 21.96875 7.515625 27.59375 7.515625 
L 36.8125 7.515625 
L 36.8125 0 
L 27.59375 0 
Q 17.1875 0 13.234375 3.875 
Q 9.28125 7.765625 9.28125 18.015625 
L 9.28125 47.703125 
L 2.6875 47.703125 
L 2.6875 54.6875 
L 9.28125 54.6875 
L 9.28125 70.21875 
z
" id="DejaVuSans-116"/>
      <path d="M 45.40625 46.390625 
L 45.40625 75.984375 
L 54.390625 75.984375 
L 54.390625 0 
L 45.40625 0 
L 45.40625 8.203125 
Q 42.578125 3.328125 38.25 0.953125 
Q 33.9375 -1.421875 27.875 -1.421875 
Q 17.96875 -1.421875 11.734375 6.484375 
Q 5.515625 14.40625 5.515625 27.296875 
Q 5.515625 40.1875 11.734375 48.09375 
Q 17.96875 56 27.875 56 
Q 33.9375 56 38.25 53.625 
Q 42.578125 51.265625 45.40625 46.390625 
z
M 14.796875 27.296875 
Q 14.796875 17.390625 18.875 11.75 
Q 22.953125 6.109375 30.078125 6.109375 
Q 37.203125 6.109375 41.296875 11.75 
Q 45.40625 17.390625 45.40625 27.296875 
Q 45.40625 37.203125 41.296875 42.84375 
Q 37.203125 48.484375 30.078125 48.484375 
Q 22.953125 48.484375 18.875 42.84375 
Q 14.796875 37.203125 14.796875 27.296875 
z
" id="DejaVuSans-100"/>
      <path id="DejaVuSans-32"/>
      <path d="M 9.421875 54.6875 
L 18.40625 54.6875 
L 18.40625 0 
L 9.421875 0 
z
M 9.421875 75.984375 
L 18.40625 75.984375 
L 18.40625 64.59375 
L 9.421875 64.59375 
z
" id="DejaVuSans-105"/>
      <path d="M 44.28125 53.078125 
L 44.28125 44.578125 
Q 40.484375 46.53125 36.375 47.5 
Q 32.28125 48.484375 27.875 48.484375 
Q 21.1875 48.484375 17.84375 46.4375 
Q 14.5 44.390625 14.5 40.28125 
Q 14.5 37.15625 16.890625 35.375 
Q 19.28125 33.59375 26.515625 31.984375 
L 29.59375 31.296875 
Q 39.15625 29.25 43.1875 25.515625 
Q 47.21875 21.78125 47.21875 15.09375 
Q 47.21875 7.46875 41.1875 3.015625 
Q 35.15625 -1.421875 24.609375 -1.421875 
Q 20.21875 -1.421875 15.453125 -0.5625 
Q 10.6875 0.296875 5.421875 2 
L 5.421875 11.28125 
Q 10.40625 8.6875 15.234375 7.390625 
Q 20.0625 6.109375 24.8125 6.109375 
Q 31.15625 6.109375 34.5625 8.28125 
Q 37.984375 10.453125 37.984375 14.40625 
Q 37.984375 18.0625 35.515625 20.015625 
Q 33.0625 21.96875 24.703125 23.78125 
L 21.578125 24.515625 
Q 13.234375 26.265625 9.515625 29.90625 
Q 5.8125 33.546875 5.8125 39.890625 
Q 5.8125 47.609375 11.28125 51.796875 
Q 16.75 56 26.8125 56 
Q 31.78125 56 36.171875 55.265625 
Q 40.578125 54.546875 44.28125 53.078125 
z
" id="DejaVuSans-115"/>
      <path d="M 34.28125 27.484375 
Q 23.390625 27.484375 19.1875 25 
Q 14.984375 22.515625 14.984375 16.5 
Q 14.984375 11.71875 18.140625 8.90625 
Q 21.296875 6.109375 26.703125 6.109375 
Q 34.1875 6.109375 38.703125 11.40625 
Q 43.21875 16.703125 43.21875 25.484375 
L 43.21875 27.484375 
z
M 52.203125 31.203125 
L 52.203125 0 
L 43.21875 0 
L 43.21875 8.296875 
Q 40.140625 3.328125 35.546875 0.953125 
Q 30.953125 -1.421875 24.3125 -1.421875 
Q 15.921875 -1.421875 10.953125 3.296875 
Q 6 8.015625 6 15.921875 
Q 6 25.140625 12.171875 29.828125 
Q 18.359375 34.515625 30.609375 34.515625 
L 43.21875 34.515625 
L 43.21875 35.40625 
Q 43.21875 41.609375 39.140625 45 
Q 35.0625 48.390625 27.6875 48.390625 
Q 23 48.390625 18.546875 47.265625 
Q 14.109375 46.140625 10.015625 43.890625 
L 10.015625 52.203125 
Q 14.9375 54.109375 19.578125 55.046875 
Q 24.21875 56 28.609375 56 
Q 40.484375 56 46.34375 49.84375 
Q 52.203125 43.703125 52.203125 31.203125 
z
" id="DejaVuSans-97"/>
      <path d="M 54.890625 33.015625 
L 54.890625 0 
L 45.90625 0 
L 45.90625 32.71875 
Q 45.90625 40.484375 42.875 44.328125 
Q 39.84375 48.1875 33.796875 48.1875 
Q 26.515625 48.1875 22.3125 43.546875 
Q 18.109375 38.921875 18.109375 30.90625 
L 18.109375 0 
L 9.078125 0 
L 9.078125 54.6875 
L 18.109375 54.6875 
L 18.109375 46.1875 
Q 21.34375 51.125 25.703125 53.5625 
Q 30.078125 56 35.796875 56 
Q 45.21875 56 50.046875 50.171875 
Q 54.890625 44.34375 54.890625 33.015625 
z
" id="DejaVuSans-110"/>
      <path d="M 31 75.875 
Q 24.46875 64.65625 21.28125 53.65625 
Q 18.109375 42.671875 18.109375 31.390625 
Q 18.109375 20.125 21.3125 9.0625 
Q 24.515625 -2 31 -13.1875 
L 23.1875 -13.1875 
Q 15.875 -1.703125 12.234375 9.375 
Q 8.59375 20.453125 8.59375 31.390625 
Q 8.59375 42.28125 12.203125 53.3125 
Q 15.828125 64.359375 23.1875 75.875 
z
" id="DejaVuSans-40"/>
      <path d="M 9.078125 75.984375 
L 18.109375 75.984375 
L 18.109375 31.109375 
L 44.921875 54.6875 
L 56.390625 54.6875 
L 27.390625 29.109375 
L 57.625 0 
L 45.90625 0 
L 18.109375 26.703125 
L 18.109375 0 
L 9.078125 0 
z
" id="DejaVuSans-107"/>
      <path d="M 52 44.1875 
Q 55.375 50.25 60.0625 53.125 
Q 64.75 56 71.09375 56 
Q 79.640625 56 84.28125 50.015625 
Q 88.921875 44.046875 88.921875 33.015625 
L 88.921875 0 
L 79.890625 0 
L 79.890625 32.71875 
Q 79.890625 40.578125 77.09375 44.375 
Q 74.3125 48.1875 68.609375 48.1875 
Q 61.625 48.1875 57.5625 43.546875 
Q 53.515625 38.921875 53.515625 30.90625 
L 53.515625 0 
L 44.484375 0 
L 44.484375 32.71875 
Q 44.484375 40.625 41.703125 44.40625 
Q 38.921875 48.1875 33.109375 48.1875 
Q 26.21875 48.1875 22.15625 43.53125 
Q 18.109375 38.875 18.109375 30.90625 
L 18.109375 0 
L 9.078125 0 
L 9.078125 54.6875 
L 18.109375 54.6875 
L 18.109375 46.1875 
Q 21.1875 51.21875 25.484375 53.609375 
Q 29.78125 56 35.6875 56 
Q 41.65625 56 45.828125 52.96875 
Q 50 49.953125 52 44.1875 
z
" id="DejaVuSans-109"/>
      <path d="M 8.015625 75.875 
L 15.828125 75.875 
Q 23.140625 64.359375 26.78125 53.3125 
Q 30.421875 42.28125 30.421875 31.390625 
Q 30.421875 20.453125 26.78125 9.375 
Q 23.140625 -1.703125 15.828125 -13.1875 
L 8.015625 -13.1875 
Q 14.5 -2 17.703125 9.0625 
Q 20.90625 20.125 20.90625 31.390625 
Q 20.90625 42.671875 17.703125 53.65625 
Q 14.5 64.65625 8.015625 75.875 
z
" id="DejaVuSans-41"/>
     </defs>
     <g transform="translate(383.214844 346.876562)scale(0.1 -0.1)">
      <use xlink:href="#DejaVuSans-80"/>
      <use x="60.287109" xlink:href="#DejaVuSans-114"/>
      <use x="101.369141" xlink:href="#DejaVuSans-111"/>
      <use x="162.550781" xlink:href="#DejaVuSans-106"/>
      <use x="190.333984" xlink:href="#DejaVuSans-101"/>
      <use x="251.857422" xlink:href="#DejaVuSans-99"/>
      <use x="306.837891" xlink:href="#DejaVuSans-116"/>
      <use x="346.046875" xlink:href="#DejaVuSans-101"/>
      <use x="407.570312" xlink:href="#DejaVuSans-100"/>
      <use x="471.046875" xlink:href="#DejaVuSans-32"/>
      <use x="502.833984" xlink:href="#DejaVuSans-100"/>
      <use x="566.310547" xlink:href="#DejaVuSans-105"/>
      <use x="594.09375" xlink:href="#DejaVuSans-115"/>
      <use x="646.193359" xlink:href="#DejaVuSans-116"/>
      <use x="685.402344" xlink:href="#DejaVuSans-97"/>
      <use x="746.681641" xlink:href="#DejaVuSans-110"/>
      <use x="810.060547" xlink:href="#DejaVuSans-99"/>
      <use x="865.041016" xlink:href="#DejaVuSans-101"/>
      <use x="926.564453" xlink:href="#DejaVuSans-32"/>
      <use x="958.351562" xlink:href="#DejaVuSans-40"/>
      <use x="997.365234" xlink:href="#DejaVuSans-107"/>
      <use x="1055.275391" xlink:href="#DejaVuSans-109"/>
      <use x="1152.6875" xlink:href="#DejaVuSans-41"/>
     </g>
    </g>
   </g>
   <g id="matplotlib.axis_2">
    <g id="ytick_1">
     <g id="line2d_7">
      <defs>
       <path d="M 0 0 
L -3.5 0 
" id="m1a14c76d67" style="stroke:#000000;stroke-width:0.8;"/>
      </defs>
      <g>
       <use style="stroke:#000000;stroke-width:0.8;" x="108" xlink:href="#m1a14c76d67" y="309.364138"/>
      </g>
     </g>
     <g id="text_8">
      <!-- 6370 -->
      <defs>
       <path d="M 33.015625 40.375 
Q 26.375 40.375 22.484375 35.828125 
Q 18.609375 31.296875 18.609375 23.390625 
Q 18.609375 15.53125 22.484375 10.953125 
Q 26.375 6.390625 33.015625 6.390625 
Q 39.65625 6.390625 43.53125 10.953125 
Q 47.40625 15.53125 47.40625 23.390625 
Q 47.40625 31.296875 43.53125 35.828125 
Q 39.65625 40.375 33.015625 40.375 
z
M 52.59375 71.296875 
L 52.59375 62.3125 
Q 48.875 64.0625 45.09375 64.984375 
Q 41.3125 65.921875 37.59375 65.921875 
Q 27.828125 65.921875 22.671875 59.328125 
Q 17.53125 52.734375 16.796875 39.40625 
Q 19.671875 43.65625 24.015625 45.921875 
Q 28.375 48.1875 33.59375 48.1875 
Q 44.578125 48.1875 50.953125 41.515625 
Q 57.328125 34.859375 57.328125 23.390625 
Q 57.328125 12.15625 50.6875 5.359375 
Q 44.046875 -1.421875 33.015625 -1.421875 
Q 20.359375 -1.421875 13.671875 8.265625 
Q 6.984375 17.96875 6.984375 36.375 
Q 6.984375 53.65625 15.1875 63.9375 
Q 23.390625 74.21875 37.203125 74.21875 
Q 40.921875 74.21875 44.703125 73.484375 
Q 48.484375 72.75 52.59375 71.296875 
z
" id="DejaVuSans-54"/>
       <path d="M 40.578125 39.3125 
Q 47.65625 37.796875 51.625 33 
Q 55.609375 28.21875 55.609375 21.1875 
Q 55.609375 10.40625 48.1875 4.484375 
Q 40.765625 -1.421875 27.09375 -1.421875 
Q 22.515625 -1.421875 17.65625 -0.515625 
Q 12.796875 0.390625 7.625 2.203125 
L 7.625 11.71875 
Q 11.71875 9.328125 16.59375 8.109375 
Q 21.484375 6.890625 26.8125 6.890625 
Q 36.078125 6.890625 40.9375 10.546875 
Q 45.796875 14.203125 45.796875 21.1875 
Q 45.796875 27.640625 41.28125 31.265625 
Q 36.765625 34.90625 28.71875 34.90625 
L 20.21875 34.90625 
L 20.21875 43.015625 
L 29.109375 43.015625 
Q 36.375 43.015625 40.234375 45.921875 
Q 44.09375 48.828125 44.09375 54.296875 
Q 44.09375 59.90625 40.109375 62.90625 
Q 36.140625 65.921875 28.71875 65.921875 
Q 24.65625 65.921875 20.015625 65.03125 
Q 15.375 64.15625 9.8125 62.3125 
L 9.8125 71.09375 
Q 15.4375 72.65625 20.34375 73.4375 
Q 25.25 74.21875 29.59375 74.21875 
Q 40.828125 74.21875 47.359375 69.109375 
Q 53.90625 64.015625 53.90625 55.328125 
Q 53.90625 49.265625 50.4375 45.09375 
Q 46.96875 40.921875 40.578125 39.3125 
z
" id="DejaVuSans-51"/>
       <path d="M 8.203125 72.90625 
L 55.078125 72.90625 
L 55.078125 68.703125 
L 28.609375 0 
L 18.3125 0 
L 43.21875 64.59375 
L 8.203125 64.59375 
z
" id="DejaVuSans-55"/>
      </defs>
      <g transform="translate(75.55 313.163357)scale(0.1 -0.1)">
       <use xlink:href="#DejaVuSans-54"/>
       <use x="63.623047" xlink:href="#DejaVuSans-51"/>
       <use x="127.246094" xlink:href="#DejaVuSans-55"/>
       <use x="190.869141" xlink:href="#DejaVuSans-48"/>
      </g>
     </g>
    </g>
    <g id="ytick_2">
     <g id="line2d_8">
      <g>
       <use style="stroke:#000000;stroke-width:0.8;" x="108" xlink:href="#m1a14c76d67" y="286.274483"/>
      </g>
     </g>
     <g id="text_9">
      <!-- 6380 -->
      <defs>
       <path d="M 31.78125 34.625 
Q 24.75 34.625 20.71875 30.859375 
Q 16.703125 27.09375 16.703125 20.515625 
Q 16.703125 13.921875 20.71875 10.15625 
Q 24.75 6.390625 31.78125 6.390625 
Q 38.8125 6.390625 42.859375 10.171875 
Q 46.921875 13.96875 46.921875 20.515625 
Q 46.921875 27.09375 42.890625 30.859375 
Q 38.875 34.625 31.78125 34.625 
z
M 21.921875 38.8125 
Q 15.578125 40.375 12.03125 44.71875 
Q 8.5 49.078125 8.5 55.328125 
Q 8.5 64.0625 14.71875 69.140625 
Q 20.953125 74.21875 31.78125 74.21875 
Q 42.671875 74.21875 48.875 69.140625 
Q 55.078125 64.0625 55.078125 55.328125 
Q 55.078125 49.078125 51.53125 44.71875 
Q 48 40.375 41.703125 38.8125 
Q 48.828125 37.15625 52.796875 32.3125 
Q 56.78125 27.484375 56.78125 20.515625 
Q 56.78125 9.90625 50.3125 4.234375 
Q 43.84375 -1.421875 31.78125 -1.421875 
Q 19.734375 -1.421875 13.25 4.234375 
Q 6.78125 9.90625 6.78125 20.515625 
Q 6.78125 27.484375 10.78125 32.3125 
Q 14.796875 37.15625 21.921875 38.8125 
z
M 18.3125 54.390625 
Q 18.3125 48.734375 21.84375 45.5625 
Q 25.390625 42.390625 31.78125 42.390625 
Q 38.140625 42.390625 41.71875 45.5625 
Q 45.3125 48.734375 45.3125 54.390625 
Q 45.3125 60.0625 41.71875 63.234375 
Q 38.140625 66.40625 31.78125 66.40625 
Q 25.390625 66.40625 21.84375 63.234375 
Q 18.3125 60.0625 18.3125 54.390625 
z
" id="DejaVuSans-56"/>
      </defs>
      <g transform="translate(75.55 290.073702)scale(0.1 -0.1)">
       <use xlink:href="#DejaVuSans-54"/>
       <use x="63.623047" xlink:href="#DejaVuSans-51"/>
       <use x="127.246094" xlink:href="#DejaVuSans-56"/>
       <use x="190.869141" xlink:href="#DejaVuSans-48"/>
      </g>
     </g>
    </g>
    <g id="ytick_3">
     <g id="line2d_9">
      <g>
       <use style="stroke:#000000;stroke-width:0.8;" x="108" xlink:href="#m1a14c76d67" y="263.184828"/>
      </g>
     </g>
     <g id="text_10">
      <!-- 6390 -->
      <defs>
       <path d="M 10.984375 1.515625 
L 10.984375 10.5 
Q 14.703125 8.734375 18.5 7.8125 
Q 22.3125 6.890625 25.984375 6.890625 
Q 35.75 6.890625 40.890625 13.453125 
Q 46.046875 20.015625 46.78125 33.40625 
Q 43.953125 29.203125 39.59375 26.953125 
Q 35.25 24.703125 29.984375 24.703125 
Q 19.046875 24.703125 12.671875 31.3125 
Q 6.296875 37.9375 6.296875 49.421875 
Q 6.296875 60.640625 12.9375 67.421875 
Q 19.578125 74.21875 30.609375 74.21875 
Q 43.265625 74.21875 49.921875 64.515625 
Q 56.59375 54.828125 56.59375 36.375 
Q 56.59375 19.140625 48.40625 8.859375 
Q 40.234375 -1.421875 26.421875 -1.421875 
Q 22.703125 -1.421875 18.890625 -0.6875 
Q 15.09375 0.046875 10.984375 1.515625 
z
M 30.609375 32.421875 
Q 37.25 32.421875 41.125 36.953125 
Q 45.015625 41.5 45.015625 49.421875 
Q 45.015625 57.28125 41.125 61.84375 
Q 37.25 66.40625 30.609375 66.40625 
Q 23.96875 66.40625 20.09375 61.84375 
Q 16.21875 57.28125 16.21875 49.421875 
Q 16.21875 41.5 20.09375 36.953125 
Q 23.96875 32.421875 30.609375 32.421875 
z
" id="DejaVuSans-57"/>
      </defs>
      <g transform="translate(75.55 266.984046)scale(0.1 -0.1)">
       <use xlink:href="#DejaVuSans-54"/>
       <use x="63.623047" xlink:href="#DejaVuSans-51"/>
       <use x="127.246094" xlink:href="#DejaVuSans-57"/>
       <use x="190.869141" xlink:href="#DejaVuSans-48"/>
      </g>
     </g>
    </g>
    <g id="ytick_4">
     <g id="line2d_10">
      <g>
       <use style="stroke:#000000;stroke-width:0.8;" x="108" xlink:href="#m1a14c76d67" y="240.095172"/>
      </g>
     </g>
     <g id="text_11">
      <!-- 6400 -->
      <defs>
       <path d="M 37.796875 64.3125 
L 12.890625 25.390625 
L 37.796875 25.390625 
z
M 35.203125 72.90625 
L 47.609375 72.90625 
L 47.609375 25.390625 
L 58.015625 25.390625 
L 58.015625 17.1875 
L 47.609375 17.1875 
L 47.609375 0 
L 37.796875 0 
L 37.796875 17.1875 
L 4.890625 17.1875 
L 4.890625 26.703125 
z
" id="DejaVuSans-52"/>
      </defs>
      <g transform="translate(75.55 243.894391)scale(0.1 -0.1)">
       <use xlink:href="#DejaVuSans-54"/>
       <use x="63.623047" xlink:href="#DejaVuSans-52"/>
       <use x="127.246094" xlink:href="#DejaVuSans-48"/>
       <use x="190.869141" xlink:href="#DejaVuSans-48"/>
      </g>
     </g>
    </g>
    <g id="ytick_5">
     <g id="line2d_11">
      <g>
       <use style="stroke:#000000;stroke-width:0.8;" x="108" xlink:href="#m1a14c76d67" y="217.005517"/>
      </g>
     </g>
     <g id="text_12">
      <!-- 6410 -->
      <g transform="translate(75.55 220.804736)scale(0.1 -0.1)">
       <use xlink:href="#DejaVuSans-54"/>
       <use x="63.623047" xlink:href="#DejaVuSans-52"/>
       <use x="127.246094" xlink:href="#DejaVuSans-49"/>
       <use x="190.869141" xlink:href="#DejaVuSans-48"/>
      </g>
     </g>
    </g>
    <g id="ytick_6">
     <g id="line2d_12">
      <g>
       <use style="stroke:#000000;stroke-width:0.8;" x="108" xlink:href="#m1a14c76d67" y="193.915862"/>
      </g>
     </g>
     <g id="text_13">
      <!-- 6420 -->
      <g transform="translate(75.55 197.715081)scale(0.1 -0.1)">
       <use xlink:href="#DejaVuSans-54"/>
       <use x="63.623047" xlink:href="#DejaVuSans-52"/>
       <use x="127.246094" xlink:href="#DejaVuSans-50"/>
       <use x="190.869141" xlink:href="#DejaVuSans-48"/>
      </g>
     </g>
    </g>
    <g id="ytick_7">
     <g id="line2d_13">
      <g>
       <use style="stroke:#000000;stroke-width:0.8;" x="108" xlink:href="#m1a14c76d67" y="170.826207"/>
      </g>
     </g>
     <g id="text_14">
      <!-- 6430 -->
      <g transform="translate(75.55 174.625426)scale(0.1 -0.1)">
       <use xlink:href="#DejaVuSans-54"/>
       <use x="63.623047" xlink:href="#DejaVuSans-52"/>
       <use x="127.246094" xlink:href="#DejaVuSans-51"/>
       <use x="190.869141" xlink:href="#DejaVuSans-48"/>
      </g>
     </g>
    </g>
    <g id="ytick_8">
     <g id="line2d_14">
      <g>
       <use style="stroke:#000000;stroke-width:0.8;" x="108" xlink:href="#m1a14c76d67" y="147.736552"/>
      </g>
     </g>
     <g id="text_15">
      <!-- 6440 -->
      <g transform="translate(75.55 151.53577)scale(0.1 -0.1)">
       <use xlink:href="#DejaVuSans-54"/>
       <use x="63.623047" xlink:href="#DejaVuSans-52"/>
       <use x="127.246094" xlink:href="#DejaVuSans-52"/>
       <use x="190.869141" xlink:href="#DejaVuSans-48"/>
      </g>
     </g>
    </g>
    <g id="ytick_9">
     <g id="line2d_15">
      <g>
       <use style="stroke:#000000;stroke-width:0.8;" x="108" xlink:href="#m1a14c76d67" y="124.646897"/>
      </g>
     </g>
     <g id="text_16">
      <!-- 6450 -->
      <g transform="translate(75.55 128.446115)scale(0.1 -0.1)">
       <use xlink:href="#DejaVuSans-54"/>
       <use x="63.623047" xlink:href="#DejaVuSans-52"/>
       <use x="127.246094" xlink:href="#DejaVuSans-53"/>
       <use x="190.869141" xlink:href="#DejaVuSans-48"/>
      </g>
     </g>
    </g>
    <g id="text_17">
     <!-- Distance to Earth center (km) -->
     <defs>
      <path d="M 19.671875 64.796875 
L 19.671875 8.109375 
L 31.59375 8.109375 
Q 46.6875 8.109375 53.6875 14.9375 
Q 60.6875 21.78125 60.6875 36.53125 
Q 60.6875 51.171875 53.6875 57.984375 
Q 46.6875 64.796875 31.59375 64.796875 
z
M 9.8125 72.90625 
L 30.078125 72.90625 
Q 51.265625 72.90625 61.171875 64.09375 
Q 71.09375 55.28125 71.09375 36.53125 
Q 71.09375 17.671875 61.125 8.828125 
Q 51.171875 0 30.078125 0 
L 9.8125 0 
z
" id="DejaVuSans-68"/>
      <path d="M 9.8125 72.90625 
L 55.90625 72.90625 
L 55.90625 64.59375 
L 19.671875 64.59375 
L 19.671875 43.015625 
L 54.390625 43.015625 
L 54.390625 34.71875 
L 19.671875 34.71875 
L 19.671875 8.296875 
L 56.78125 8.296875 
L 56.78125 0 
L 9.8125 0 
z
" id="DejaVuSans-69"/>
      <path d="M 54.890625 33.015625 
L 54.890625 0 
L 45.90625 0 
L 45.90625 32.71875 
Q 45.90625 40.484375 42.875 44.328125 
Q 39.84375 48.1875 33.796875 48.1875 
Q 26.515625 48.1875 22.3125 43.546875 
Q 18.109375 38.921875 18.109375 30.90625 
L 18.109375 0 
L 9.078125 0 
L 9.078125 75.984375 
L 18.109375 75.984375 
L 18.109375 46.1875 
Q 21.34375 51.125 25.703125 53.5625 
Q 30.078125 56 35.796875 56 
Q 45.21875 56 50.046875 50.171875 
Q 54.890625 44.34375 54.890625 33.015625 
z
" id="DejaVuSans-104"/>
     </defs>
     <g transform="translate(69.470312 292.56)rotate(-90)scale(0.1 -0.1)">
      <use xlink:href="#DejaVuSans-68"/>
      <use x="77.001953" xlink:href="#DejaVuSans-105"/>
      <use x="104.785156" xlink:href="#DejaVuSans-115"/>
      <use x="156.884766" xlink:href="#DejaVuSans-116"/>
      <use x="196.09375" xlink:href="#DejaVuSans-97"/>
      <use x="257.373047" xlink:href="#DejaVuSans-110"/>
      <use x="320.751953" xlink:href="#DejaVuSans-99"/>
      <use x="375.732422" xlink:href="#DejaVuSans-101"/>
      <use x="437.255859" xlink:href="#DejaVuSans-32"/>
      <use x="469.042969" xlink:href="#DejaVuSans-116"/>
      <use x="508.251953" xlink:href="#DejaVuSans-111"/>
      <use x="569.433594" xlink:href="#DejaVuSans-32"/>
      <use x="601.220703" xlink:href="#DejaVuSans-69"/>
      <use x="664.404297" xlink:href="#DejaVuSans-97"/>
      <use x="725.683594" xlink:href="#DejaVuSans-114"/>
      <use x="766.796875" xlink:href="#DejaVuSans-116"/>
      <use x="806.005859" xlink:href="#DejaVuSans-104"/>
      <use x="869.384766" xlink:href="#DejaVuSans-32"/>
      <use x="901.171875" xlink:href="#DejaVuSans-99"/>
      <use x="956.152344" xlink:href="#DejaVuSans-101"/>
      <use x="1017.675781" xlink:href="#DejaVuSans-110"/>
      <use x="1081.054688" xlink:href="#DejaVuSans-116"/>
      <use x="1120.263672" xlink:href="#DejaVuSans-101"/>
      <use x="1181.787109" xlink:href="#DejaVuSans-114"/>
      <use x="1222.900391" xlink:href="#DejaVuSans-32"/>
      <use x="1254.6875" xlink:href="#DejaVuSans-40"/>
      <use x="1293.701172" xlink:href="#DejaVuSans-107"/>
      <use x="1351.611328" xlink:href="#DejaVuSans-109"/>
      <use x="1449.023438" xlink:href="#DejaVuSans-41"/>
     </g>
    </g>
   </g>
   <g id="line2d_16">
    <path clip-path="url(#pc00cf002b8)" d="M 108 307.055172 
L 122.710417 307.062528 
L 137.420819 307.084593 
L 152.131192 307.121369 
L 166.84152 307.172856 
L 181.55179 307.239052 
L 196.261986 307.319959 
L 210.972094 307.415576 
L 225.682099 307.525903 
L 240.391986 307.65094 
L 255.101741 307.790687 
L 269.811349 307.945144 
L 284.520795 308.11431 
L 299.230065 308.298185 
L 313.939143 308.49677 
L 328.648015 308.710064 
L 343.356667 308.938066 
L 358.065083 309.180777 
L 372.773249 309.438196 
L 387.481151 309.710323 
L 402.188773 309.997158 
L 416.8961 310.298701 
L 431.603119 310.61495 
L 446.309815 310.945907 
L 461.016172 311.29157 
L 475.722176 311.651939 
L 490.427812 312.027014 
L 505.133066 312.416795 
L 519.837922 312.82128 
L 534.542367 313.24047 
L 549.246385 313.674365 
L 563.949962 314.122963 
L 578.653084 314.586264 
L 593.355734 315.064269 
L 608.057899 315.556976 
L 622.759564 316.064384 
L 637.460714 316.586495 
L 652.161335 317.123306 
L 666.861412 317.674817 
L 681.56093 318.241028 
L 696.259874 318.821939 
L 710.95823 319.417548 
L 725.655983 320.027855 
L 740.353118 320.65286 
L 755.049621 321.292561 
L 769.745477 321.946959 
L 784.440671 322.616052 
L 799.135189 323.29984 
L 813.829016 323.998322 
L 828.522136 324.711498 
L 843.214537 325.439366 
L 857.906202 326.181926 
L 865 326.54758 
" style="fill:none;stroke:#000000;stroke-linecap:square;stroke-width:1.5;"/>
   </g>
   <g id="line2d_17">
    <path clip-path="url(#pc00cf002b8)" d="M 108 120.914661 
L 122.896557 120.922109 
L 137.7931 120.944454 
L 152.689612 120.981695 
L 167.58608 121.033833 
L 182.482489 121.100868 
L 197.378823 121.182798 
L 212.275067 121.279625 
L 227.171207 121.391348 
L 242.067228 121.517968 
L 256.963115 121.659483 
L 271.858854 121.815894 
L 286.754428 121.9872 
L 301.649823 122.173403 
L 316.545025 122.3745 
L 331.440018 122.590493 
L 346.334788 122.82138 
L 361.229319 123.067162 
L 376.123598 123.327839 
L 391.017608 123.603409 
L 405.911335 123.893874 
L 420.804764 124.199232 
L 435.69788 124.519483 
L 450.590669 124.854627 
L 465.483115 125.204664 
L 480.375204 125.569594 
L 495.26692 125.949415 
L 510.158249 126.344127 
L 525.049176 126.753731 
L 539.939685 127.178225 
L 554.829763 127.61761 
L 569.719394 128.071885 
L 584.608563 128.541049 
L 599.497256 129.025102 
L 614.385457 129.524043 
L 629.273152 130.037873 
L 644.160325 130.566589 
L 659.046963 131.110193 
L 673.933049 131.668683 
L 688.818569 132.242059 
L 703.703509 132.83032 
L 718.587853 133.433466 
L 733.471586 134.051495 
L 748.354694 134.684409 
L 763.237161 135.332205 
L 778.118973 135.994883 
L 793.000115 136.672442 
L 807.880573 137.364883 
L 822.76033 138.072203 
L 837.639372 138.794403 
L 852.517685 139.531482 
L 865 140.162375 
" style="fill:none;stroke:#000000;stroke-linecap:square;stroke-width:1.5;"/>
   </g>
   <g id="line2d_18">
    <path clip-path="url(#pc00cf002b8)" d="M 108 306.908388 
L 122.710564 306.915743 
L 137.421113 306.937809 
L 152.131632 306.974585 
L 166.842107 307.026072 
L 181.552524 307.092269 
L 196.262867 307.173177 
L 210.973122 307.268795 
L 225.683273 307.379123 
L 240.393308 307.504162 
L 255.103209 307.64391 
L 269.812964 307.798368 
L 284.522557 307.967536 
L 299.231973 308.151413 
L 313.941198 308.35 
L 328.650217 308.563295 
L 343.359015 308.7913 
L 358.067578 309.034013 
L 372.775891 309.291435 
L 387.483939 309.563565 
L 402.191708 309.850403 
L 416.899183 310.151948 
L 431.606348 310.468201 
L 446.31319 310.799161 
L 461.019694 311.144827 
L 475.725845 311.5052 
L 490.431628 311.880279 
L 505.137028 312.270063 
L 519.842032 312.674553 
L 534.546623 313.093747 
L 549.250788 313.527646 
L 563.954512 313.976249 
L 578.65778 314.439555 
L 593.360577 314.917564 
L 608.062889 315.410276 
L 622.764701 315.91769 
L 637.465997 316.439805 
L 652.166765 316.976621 
L 666.866988 317.528138 
L 681.566653 318.094355 
L 696.265744 318.675272 
L 710.964246 319.270887 
L 725.662146 319.8812 
L 740.359428 320.506211 
L 755.056078 321.145918 
L 769.75208 321.800323 
L 784.447421 322.469422 
L 799.142085 323.153217 
L 813.836059 323.851706 
L 828.529326 324.564889 
L 843.221873 325.292765 
L 857.913685 326.035333 
L 865 326.400601 
" style="fill:none;stroke:#000000;stroke-dasharray:5.55,2.4;stroke-dashoffset:0;stroke-opacity:0.5;stroke-width:1.5;"/>
   </g>
   <g id="line2d_19">
    <path clip-path="url(#pc00cf002b8)" d="M 108 303.668444 
L 122.713804 303.675801 
L 137.427592 303.697871 
L 152.141352 303.734656 
L 166.855067 303.786154 
L 181.568724 303.852366 
L 196.282307 303.933291 
L 210.995801 304.02893 
L 225.709193 304.139283 
L 240.422467 304.264349 
L 255.135608 304.404128 
L 269.848602 304.55862 
L 284.561435 304.727825 
L 299.274091 304.911743 
L 313.986555 305.110373 
L 328.698814 305.323716 
L 343.410852 305.551771 
L 358.122655 305.794537 
L 372.834207 306.052016 
L 387.545495 306.324206 
L 402.256503 306.611107 
L 416.967217 306.912719 
L 431.677621 307.229041 
L 446.387703 307.560074 
L 461.097445 307.905816 
L 475.806835 308.266269 
L 490.515857 308.64143 
L 505.224496 309.0313 
L 519.932738 309.435879 
L 534.640568 309.855165 
L 549.347972 310.28916 
L 564.054934 310.737861 
L 578.76144 311.201269 
L 593.467476 311.679384 
L 608.173026 312.172204 
L 622.878075 312.67973 
L 637.58261 313.20196 
L 652.286616 313.738895 
L 666.990077 314.290533 
L 681.692979 314.856875 
L 696.395307 315.437919 
L 711.097047 316.033665 
L 725.798184 316.644113 
L 740.498703 317.269261 
L 755.198589 317.90911 
L 769.897828 318.563658 
L 784.596406 319.232906 
L 799.294307 319.916851 
L 813.991516 320.615494 
L 828.68802 321.328834 
L 843.383803 322.05687 
L 858.07885 322.799601 
L 865 323.156356 
" style="fill:none;stroke:#000000;stroke-dasharray:5.55,2.4;stroke-dashoffset:0;stroke-opacity:0.5;stroke-width:1.5;"/>
   </g>
   <g id="line2d_20">
    <path clip-path="url(#pc00cf002b8)" d="M 108 297.809613 
L 122.719662 297.816972 
L 137.43931 297.839052 
L 152.158928 297.875851 
L 166.878502 297.92737 
L 181.598018 297.993608 
L 196.317459 298.074566 
L 211.036813 298.170243 
L 225.756063 298.280639 
L 240.475195 298.405755 
L 255.194195 298.54559 
L 269.913048 298.700143 
L 284.631739 298.869416 
L 299.350254 299.053407 
L 314.068576 299.252116 
L 328.786693 299.465544 
L 343.504589 299.69369 
L 358.22225 299.936553 
L 372.93966 300.194134 
L 387.656806 300.466432 
L 402.373672 300.753447 
L 417.090243 301.055179 
L 431.806505 301.371628 
L 446.522444 301.702792 
L 461.238044 302.048673 
L 475.95329 302.409268 
L 490.668169 302.784579 
L 505.382665 303.174605 
L 520.096764 303.579344 
L 534.810451 303.998798 
L 549.523711 304.432965 
L 564.236529 304.881845 
L 578.948891 305.345438 
L 593.660782 305.823743 
L 608.372188 306.316759 
L 623.083093 306.824487 
L 637.793483 307.346925 
L 652.503343 307.884074 
L 667.212659 308.435932 
L 681.921415 309.002499 
L 696.629598 309.583775 
L 711.337192 310.179758 
L 726.044182 310.790449 
L 740.750555 311.415846 
L 755.456295 312.05595 
L 770.161387 312.710758 
L 784.865817 313.380272 
L 799.56957 314.06449 
L 814.272632 314.763411 
L 828.974988 315.477035 
L 843.676622 316.205361 
L 858.377521 316.948388 
L 865 317.289747 
" style="fill:none;stroke:#000000;stroke-dasharray:5.55,2.4;stroke-dashoffset:0;stroke-opacity:0.5;stroke-width:1.5;"/>
   </g>
   <g id="line2d_21">
    <path clip-path="url(#pc00cf002b8)" d="M 108 281.883659 
L 122.735588 281.891027 
L 137.471162 281.91313 
L 152.206706 281.949969 
L 166.942206 282.001543 
L 181.677647 282.067853 
L 196.413014 282.148899 
L 211.148293 282.244679 
L 225.883469 282.355195 
L 240.618527 282.480446 
L 255.353452 282.620432 
L 270.08823 282.775153 
L 284.822846 282.944609 
L 299.557285 283.128799 
L 314.291533 283.327723 
L 329.025574 283.541382 
L 343.759394 283.769774 
L 358.492978 284.0129 
L 373.226312 284.27076 
L 387.959381 284.543353 
L 402.692169 284.830679 
L 417.424663 285.132737 
L 432.156848 285.449528 
L 446.888708 285.781051 
L 461.62023 286.127305 
L 476.351398 286.488291 
L 491.082197 286.864008 
L 505.812614 287.254455 
L 520.542633 287.659633 
L 535.272239 288.07954 
L 550.001418 288.514177 
L 564.730154 288.963543 
L 579.458435 289.427637 
L 594.186243 289.90646 
L 608.913566 290.40001 
L 623.640387 290.908287 
L 638.366693 291.43129 
L 653.092469 291.96902 
L 667.817699 292.521475 
L 682.54237 293.088655 
L 697.266466 293.67056 
L 711.989973 294.267188 
L 726.712876 294.878539 
L 741.43516 295.504613 
L 756.15681 296.14541 
L 770.877813 296.800927 
L 785.598153 297.471165 
L 800.317815 298.156123 
L 815.036784 298.8558 
L 829.755047 299.570196 
L 844.472588 300.29931 
L 859.189393 301.043141 
L 865 301.342652 
" style="fill:none;stroke:#000000;stroke-dasharray:5.55,2.4;stroke-dashoffset:0;stroke-opacity:0.5;stroke-width:1.5;"/>
   </g>
   <g id="line2d_22">
    <path clip-path="url(#pc00cf002b8)" d="M 108 238.592428 
L 122.77888 238.599817 
L 137.557744 238.621985 
L 152.33658 238.658933 
L 167.115371 238.710659 
L 181.894102 238.777163 
L 196.67276 238.858447 
L 211.45133 238.954509 
L 226.229795 239.065349 
L 241.008143 239.190968 
L 255.786357 239.331366 
L 270.564424 239.486541 
L 285.342328 239.656494 
L 300.120055 239.841226 
L 314.89759 240.040734 
L 329.674918 240.255021 
L 344.452024 240.484084 
L 359.228894 240.727925 
L 374.005512 240.986542 
L 388.781865 241.259936 
L 403.557936 241.548106 
L 418.333712 241.851051 
L 433.109178 242.168773 
L 447.884319 242.50127 
L 462.65912 242.848541 
L 477.433566 243.210588 
L 492.207643 243.587408 
L 506.981335 243.979003 
L 521.754629 244.385371 
L 536.527508 244.806512 
L 551.29996 245.242426 
L 566.071968 245.693112 
L 580.843517 246.15857 
L 595.614595 246.638799 
L 610.385184 247.133799 
L 625.155271 247.643569 
L 639.924841 248.168109 
L 654.693879 248.707418 
L 669.46237 249.261497 
L 684.2303 249.830343 
L 698.997653 250.413957 
L 713.764416 251.012338 
L 728.530573 251.625486 
L 743.296109 252.253399 
L 758.06101 252.896078 
L 772.825261 253.553521 
L 787.588847 254.225728 
L 802.351754 254.912698 
L 817.113966 255.614431 
L 831.875469 256.330926 
L 846.636248 257.062182 
L 861.396288 257.808198 
L 865 257.993954 
" style="fill:none;stroke:#000000;stroke-dasharray:5.55,2.4;stroke-dashoffset:0;stroke-opacity:0.5;stroke-width:1.5;"/>
   </g>
   <g id="line2d_23">
    <path clip-path="url(#pc00cf002b8)" d="M 108 194.164285 
L 122.823308 194.171697 
L 137.646601 194.193932 
L 152.469864 194.23099 
L 167.293083 194.282871 
L 182.116242 194.349576 
L 196.939328 194.431104 
L 211.762324 194.527455 
L 226.585217 194.638628 
L 241.407991 194.764625 
L 256.230631 194.905444 
L 271.053124 195.061086 
L 285.875453 195.23155 
L 300.697605 195.416837 
L 315.519564 195.616946 
L 330.341315 195.831876 
L 345.162844 196.061628 
L 359.984136 196.306202 
L 374.805176 196.565596 
L 389.625949 196.839812 
L 404.44644 197.128848 
L 419.266635 197.432705 
L 434.086519 197.751381 
L 448.906076 198.084878 
L 463.725293 198.433193 
L 478.544154 198.796328 
L 493.362644 199.174282 
L 508.180749 199.567053 
L 522.998454 199.974643 
L 537.815744 200.39705 
L 552.632604 200.834274 
L 567.449019 201.286315 
L 582.264975 201.753172 
L 597.080457 202.234845 
L 611.89545 202.731333 
L 626.709939 203.242636 
L 641.523909 203.768753 
L 656.337345 204.309683 
L 671.150233 204.865427 
L 685.962558 205.435984 
L 700.774305 206.021352 
L 715.58546 206.621532 
L 730.396006 207.236523 
L 745.205931 207.866324 
L 760.015218 208.510934 
L 774.823853 209.170354 
L 789.631821 209.844582 
L 804.439108 210.533617 
L 819.245698 211.23746 
L 834.051577 211.956109 
L 848.85673 212.689563 
L 863.661142 213.437822 
L 865 213.506834 
" style="fill:none;stroke:#000000;stroke-dasharray:5.55,2.4;stroke-dashoffset:0;stroke-opacity:0.5;stroke-width:1.5;"/>
   </g>
   <g id="line2d_24">
    <path clip-path="url(#pc00cf002b8)" d="M 108 306.362483 
L 248.034232 281.781734 
L 615.353112 217.609265 
L 865 174.015791 
L 865 174.015791 
" style="fill:none;stroke:#1f77b4;stroke-linecap:square;stroke-width:1.5;"/>
   </g>
   <g id="line2d_25">
    <path clip-path="url(#pc00cf002b8)" d="M 108 306.362483 
L 280.785778 243.591086 
L 607.170005 125.099637 
L 607.170005 125.099637 
" style="fill:none;stroke:#ff7f0e;stroke-linecap:square;stroke-width:1.5;"/>
   </g>
   <g id="line2d_26">
    <path clip-path="url(#pc00cf002b8)" d="M 108 249.331034 
L 507.146915 284.359909 
L 716.185666 302.921298 
L 798.004327 310.26317 
L 798.004327 310.26317 
" style="fill:none;stroke:#2ca02c;stroke-linecap:square;stroke-width:1.5;"/>
   </g>
   <g id="line2d_27">
    <path clip-path="url(#pc00cf002b8)" d="M 108 191.606897 
L 223.893721 307.511705 
L 223.893721 307.511705 
" style="fill:none;stroke:#d62728;stroke-linecap:square;stroke-width:1.5;"/>
   </g>
   <g id="patch_3">
    <path d="M 108 318.6 
L 108 117.72 
" style="fill:none;stroke:#000000;stroke-linecap:square;stroke-linejoin:miter;stroke-width:0.8;"/>
   </g>
   <g id="patch_4">
    <path d="M 777.6 318.6 
L 777.6 117.72 
" style="fill:none;stroke:#000000;stroke-linecap:square;stroke-linejoin:miter;stroke-width:0.8;"/>
   </g>
   <g id="patch_5">
    <path d="M 108 318.6 
L 777.6 318.6 
" style="fill:none;stroke:#000000;stroke-linecap:square;stroke-linejoin:miter;stroke-width:0.8;"/>
   </g>
   <g id="patch_6">
    <path d="M 108 117.72 
L 777.6 117.72 
" style="fill:none;stroke:#000000;stroke-linecap:square;stroke-linejoin:miter;stroke-width:0.8;"/>
   </g>
   <g id="text_18">
    <!-- Path propagation through layered atmosphere -->
    <defs>
     <path d="M 18.109375 8.203125 
L 18.109375 -20.796875 
L 9.078125 -20.796875 
L 9.078125 54.6875 
L 18.109375 54.6875 
L 18.109375 46.390625 
Q 20.953125 51.265625 25.265625 53.625 
Q 29.59375 56 35.59375 56 
Q 45.5625 56 51.78125 48.09375 
Q 58.015625 40.1875 58.015625 27.296875 
Q 58.015625 14.40625 51.78125 6.484375 
Q 45.5625 -1.421875 35.59375 -1.421875 
Q 29.59375 -1.421875 25.265625 0.953125 
Q 20.953125 3.328125 18.109375 8.203125 
z
M 48.6875 27.296875 
Q 48.6875 37.203125 44.609375 42.84375 
Q 40.53125 48.484375 33.40625 48.484375 
Q 26.265625 48.484375 22.1875 42.84375 
Q 18.109375 37.203125 18.109375 27.296875 
Q 18.109375 17.390625 22.1875 11.75 
Q 26.265625 6.109375 33.40625 6.109375 
Q 40.53125 6.109375 44.609375 11.75 
Q 48.6875 17.390625 48.6875 27.296875 
z
" id="DejaVuSans-112"/>
     <path d="M 45.40625 27.984375 
Q 45.40625 37.75 41.375 43.109375 
Q 37.359375 48.484375 30.078125 48.484375 
Q 22.859375 48.484375 18.828125 43.109375 
Q 14.796875 37.75 14.796875 27.984375 
Q 14.796875 18.265625 18.828125 12.890625 
Q 22.859375 7.515625 30.078125 7.515625 
Q 37.359375 7.515625 41.375 12.890625 
Q 45.40625 18.265625 45.40625 27.984375 
z
M 54.390625 6.78125 
Q 54.390625 -7.171875 48.1875 -13.984375 
Q 42 -20.796875 29.203125 -20.796875 
Q 24.46875 -20.796875 20.265625 -20.09375 
Q 16.0625 -19.390625 12.109375 -17.921875 
L 12.109375 -9.1875 
Q 16.0625 -11.328125 19.921875 -12.34375 
Q 23.78125 -13.375 27.78125 -13.375 
Q 36.625 -13.375 41.015625 -8.765625 
Q 45.40625 -4.15625 45.40625 5.171875 
L 45.40625 9.625 
Q 42.625 4.78125 38.28125 2.390625 
Q 33.9375 0 27.875 0 
Q 17.828125 0 11.671875 7.65625 
Q 5.515625 15.328125 5.515625 27.984375 
Q 5.515625 40.671875 11.671875 48.328125 
Q 17.828125 56 27.875 56 
Q 33.9375 56 38.28125 53.609375 
Q 42.625 51.21875 45.40625 46.390625 
L 45.40625 54.6875 
L 54.390625 54.6875 
z
" id="DejaVuSans-103"/>
     <path d="M 8.5 21.578125 
L 8.5 54.6875 
L 17.484375 54.6875 
L 17.484375 21.921875 
Q 17.484375 14.15625 20.5 10.265625 
Q 23.53125 6.390625 29.59375 6.390625 
Q 36.859375 6.390625 41.078125 11.03125 
Q 45.3125 15.671875 45.3125 23.6875 
L 45.3125 54.6875 
L 54.296875 54.6875 
L 54.296875 0 
L 45.3125 0 
L 45.3125 8.40625 
Q 42.046875 3.421875 37.71875 1 
Q 33.40625 -1.421875 27.6875 -1.421875 
Q 18.265625 -1.421875 13.375 4.4375 
Q 8.5 10.296875 8.5 21.578125 
z
M 31.109375 56 
z
" id="DejaVuSans-117"/>
     <path d="M 9.421875 75.984375 
L 18.40625 75.984375 
L 18.40625 0 
L 9.421875 0 
z
" id="DejaVuSans-108"/>
     <path d="M 32.171875 -5.078125 
Q 28.375 -14.84375 24.75 -17.8125 
Q 21.140625 -20.796875 15.09375 -20.796875 
L 7.90625 -20.796875 
L 7.90625 -13.28125 
L 13.1875 -13.28125 
Q 16.890625 -13.28125 18.9375 -11.515625 
Q 21 -9.765625 23.484375 -3.21875 
L 25.09375 0.875 
L 2.984375 54.6875 
L 12.5 54.6875 
L 29.59375 11.921875 
L 46.6875 54.6875 
L 56.203125 54.6875 
z
" id="DejaVuSans-121"/>
    </defs>
    <g transform="translate(302.929688 111.72)scale(0.12 -0.12)">
     <use xlink:href="#DejaVuSans-80"/>
     <use x="60.240234" xlink:href="#DejaVuSans-97"/>
     <use x="121.519531" xlink:href="#DejaVuSans-116"/>
     <use x="160.728516" xlink:href="#DejaVuSans-104"/>
     <use x="224.107422" xlink:href="#DejaVuSans-32"/>
     <use x="255.894531" xlink:href="#DejaVuSans-112"/>
     <use x="319.371094" xlink:href="#DejaVuSans-114"/>
     <use x="360.453125" xlink:href="#DejaVuSans-111"/>
     <use x="421.634766" xlink:href="#DejaVuSans-112"/>
     <use x="485.111328" xlink:href="#DejaVuSans-97"/>
     <use x="546.390625" xlink:href="#DejaVuSans-103"/>
     <use x="609.867188" xlink:href="#DejaVuSans-97"/>
     <use x="671.146484" xlink:href="#DejaVuSans-116"/>
     <use x="710.355469" xlink:href="#DejaVuSans-105"/>
     <use x="738.138672" xlink:href="#DejaVuSans-111"/>
     <use x="799.320312" xlink:href="#DejaVuSans-110"/>
     <use x="862.699219" xlink:href="#DejaVuSans-32"/>
     <use x="894.486328" xlink:href="#DejaVuSans-116"/>
     <use x="933.695312" xlink:href="#DejaVuSans-104"/>
     <use x="997.074219" xlink:href="#DejaVuSans-114"/>
     <use x="1038.15625" xlink:href="#DejaVuSans-111"/>
     <use x="1099.337891" xlink:href="#DejaVuSans-117"/>
     <use x="1162.716797" xlink:href="#DejaVuSans-103"/>
     <use x="1226.193359" xlink:href="#DejaVuSans-104"/>
     <use x="1289.572266" xlink:href="#DejaVuSans-32"/>
     <use x="1321.359375" xlink:href="#DejaVuSans-108"/>
     <use x="1349.142578" xlink:href="#DejaVuSans-97"/>
     <use x="1410.421875" xlink:href="#DejaVuSans-121"/>
     <use x="1469.601562" xlink:href="#DejaVuSans-101"/>
     <use x="1531.125" xlink:href="#DejaVuSans-114"/>
     <use x="1572.207031" xlink:href="#DejaVuSans-101"/>
     <use x="1633.730469" xlink:href="#DejaVuSans-100"/>
     <use x="1697.207031" xlink:href="#DejaVuSans-32"/>
     <use x="1728.994141" xlink:href="#DejaVuSans-97"/>
     <use x="1790.273438" xlink:href="#DejaVuSans-116"/>
     <use x="1829.482422" xlink:href="#DejaVuSans-109"/>
     <use x="1926.894531" xlink:href="#DejaVuSans-111"/>
     <use x="1988.076172" xlink:href="#DejaVuSans-115"/>
     <use x="2040.175781" xlink:href="#DejaVuSans-112"/>
     <use x="2103.652344" xlink:href="#DejaVuSans-104"/>
     <use x="2167.03125" xlink:href="#DejaVuSans-101"/>
     <use x="2228.554688" xlink:href="#DejaVuSans-114"/>
     <use x="2269.636719" xlink:href="#DejaVuSans-101"/>
    </g>
   </g>
   <g id="legend_1">
    <g id="patch_7">
     <path d="M 115 184.4325 
L 178.95 184.4325 
Q 180.95 184.4325 180.95 182.4325 
L 180.95 124.72 
Q 180.95 122.72 178.95 122.72 
L 115 122.72 
Q 113 122.72 113 124.72 
L 113 182.4325 
Q 113 184.4325 115 184.4325 
z
" style="fill:#ffffff;opacity:0.8;stroke:#cccccc;stroke-linejoin:miter;"/>
    </g>
    <g id="line2d_28">
     <path d="M 117 130.818437 
L 137 130.818437 
" style="fill:none;stroke:#1f77b4;stroke-linecap:square;stroke-width:1.5;"/>
    </g>
    <g id="line2d_29"/>
    <g id="text_19">
     <!-- Path 1 -->
     <g transform="translate(145 134.318437)scale(0.1 -0.1)">
      <use xlink:href="#DejaVuSans-80"/>
      <use x="60.240234" xlink:href="#DejaVuSans-97"/>
      <use x="121.519531" xlink:href="#DejaVuSans-116"/>
      <use x="160.728516" xlink:href="#DejaVuSans-104"/>
      <use x="224.107422" xlink:href="#DejaVuSans-32"/>
      <use x="255.894531" xlink:href="#DejaVuSans-49"/>
     </g>
    </g>
    <g id="line2d_30">
     <path d="M 117 145.496562 
L 137 145.496562 
" style="fill:none;stroke:#ff7f0e;stroke-linecap:square;stroke-width:1.5;"/>
    </g>
    <g id="line2d_31"/>
    <g id="text_20">
     <!-- Path 2 -->
     <g transform="translate(145 148.996562)scale(0.1 -0.1)">
      <use xlink:href="#DejaVuSans-80"/>
      <use x="60.240234" xlink:href="#DejaVuSans-97"/>
      <use x="121.519531" xlink:href="#DejaVuSans-116"/>
      <use x="160.728516" xlink:href="#DejaVuSans-104"/>
      <use x="224.107422" xlink:href="#DejaVuSans-32"/>
      <use x="255.894531" xlink:href="#DejaVuSans-50"/>
     </g>
    </g>
    <g id="line2d_32">
     <path d="M 117 160.174687 
L 137 160.174687 
" style="fill:none;stroke:#2ca02c;stroke-linecap:square;stroke-width:1.5;"/>
    </g>
    <g id="line2d_33"/>
    <g id="text_21">
     <!-- Path 3 -->
     <g transform="translate(145 163.674687)scale(0.1 -0.1)">
      <use xlink:href="#DejaVuSans-80"/>
      <use x="60.240234" xlink:href="#DejaVuSans-97"/>
      <use x="121.519531" xlink:href="#DejaVuSans-116"/>
      <use x="160.728516" xlink:href="#DejaVuSans-104"/>
      <use x="224.107422" xlink:href="#DejaVuSans-32"/>
      <use x="255.894531" xlink:href="#DejaVuSans-51"/>
     </g>
    </g>
    <g id="line2d_34">
     <path d="M 117 174.852812 
L 137 174.852812 
" style="fill:none;stroke:#d62728;stroke-linecap:square;stroke-width:1.5;"/>
    </g>
    <g id="line2d_35"/>
    <g id="text_22">
     <!-- Path 4 -->
     <g transform="translate(145 178.352812)scale(0.1 -0.1)">
      <use xlink:href="#DejaVuSans-80"/>
      <use x="60.240234" xlink:href="#DejaVuSans-97"/>
      <use x="121.519531" xlink:href="#DejaVuSans-116"/>
      <use x="160.728516" xlink:href="#DejaVuSans-104"/>
      <use x="224.107422" xlink:href="#DejaVuSans-32"/>
      <use x="255.894531" xlink:href="#DejaVuSans-52"/>
     </g>
    </g>
   </g>
  </g>
 </g>
 <defs>
  <clipPath id="pc00cf002b8">
   <rect height="200.88" width="669.6" x="108" y="117.72"/>
  </clipPath>
 </defs>
</svg>
