<?xml version="1.0" encoding="utf-8" standalone="no"?>
<!DOCTYPE svg PUBLIC "-//W3C//DTD SVG 1.1//EN"
  "http://www.w3.org/Graphics/SVG/1.1/DTD/svg11.dtd">
<!-- Created with matplotlib (https://matplotlib.org/) -->
<svg height="504pt" version="1.1" viewBox="0 0 864 504" width="864pt" xmlns="http://www.w3.org/2000/svg" xmlns:xlink="http://www.w3.org/1999/xlink">
 <defs>
  <style type="text/css">
*{stroke-linecap:butt;stroke-linejoin:round;white-space:pre;}
  </style>
 </defs>
 <g id="figure_1">
  <g id="patch_1">
   <path d="M 0 504 
L 864 504 
L 864 0 
L 0 0 
z
" style="fill:#ffffff;"/>
  </g>
  <g id="axes_1">
   <g id="patch_2">
    <path d="M 108 448.56 
L 777.6 448.56 
L 777.6 60.48 
L 108 60.48 
z
" style="fill:#ffffff;"/>
   </g>
   <g id="matplotlib.axis_1">
    <g id="xtick_1">
     <g id="line2d_1">
      <path clip-path="url(#p52c1cfe142)" d="M 241.517435 448.56 
L 241.517435 60.48 
" style="fill:none;stroke:#b0b0b0;stroke-linecap:square;stroke-width:0.8;"/>
     </g>
     <g id="line2d_2">
      <defs>
       <path d="M 0 0 
L 0 3.5 
" id="me41a387d88" style="stroke:#000000;stroke-width:0.8;"/>
      </defs>
      <g>
       <use style="stroke:#000000;stroke-width:0.8;" x="241.517435" xlink:href="#me41a387d88" y="448.56"/>
      </g>
     </g>
     <g id="text_1">
      <!-- 200 -->
      <defs>
       <path d="M 19.1875 8.296875 
L 53.609375 8.296875 
L 53.609375 0 
L 7.328125 0 
L 7.328125 8.296875 
Q 12.9375 14.109375 22.625 23.890625 
Q 32.328125 33.6875 34.8125 36.53125 
Q 39.546875 41.84375 41.421875 45.53125 
Q 43.3125 49.21875 43.3125 52.78125 
Q 43.3125 58.59375 39.234375 62.25 
Q 35.15625 65.921875 28.609375 65.921875 
Q 23.96875 65.921875 18.8125 64.3125 
Q 13.671875 62.703125 7.8125 59.421875 
L 7.8125 69.390625 
Q 13.765625 71.78125 18.9375 73 
Q 24.125 74.21875 28.421875 74.21875 
Q 39.75 74.21875 46.484375 68.546875 
Q 53.21875 62.890625 53.21875 53.421875 
Q 53.21875 48.921875 51.53125 44.890625 
Q 49.859375 40.875 45.40625 35.40625 
Q 44.1875 33.984375 37.640625 27.21875 
Q 31.109375 20.453125 19.1875 8.296875 
z
" id="DejaVuSans-50"/>
       <path d="M 31.78125 66.40625 
Q 24.171875 66.40625 20.328125 58.90625 
Q 16.5 51.421875 16.5 36.375 
Q 16.5 21.390625 20.328125 13.890625 
Q 24.171875 6.390625 31.78125 6.390625 
Q 39.453125 6.390625 43.28125 13.890625 
Q 47.125 21.390625 47.125 36.375 
Q 47.125 51.421875 43.28125 58.90625 
Q 39.453125 66.40625 31.78125 66.40625 
z
M 31.78125 74.21875 
Q 44.046875 74.21875 50.515625 64.515625 
Q 56.984375 54.828125 56.984375 36.375 
Q 56.984375 17.96875 50.515625 8.265625 
Q 44.046875 -1.421875 31.78125 -1.421875 
Q 19.53125 -1.421875 13.0625 8.265625 
Q 6.59375 17.96875 6.59375 36.375 
Q 6.59375 54.828125 13.0625 64.515625 
Q 19.53125 74.21875 31.78125 74.21875 
z
" id="DejaVuSans-48"/>
      </defs>
      <g transform="translate(231.973685 463.158437)scale(0.1 -0.1)">
       <use xlink:href="#DejaVuSans-50"/>
       <use x="63.623047" xlink:href="#DejaVuSans-48"/>
       <use x="127.246094" xlink:href="#DejaVuSans-48"/>
      </g>
     </g>
    </g>
    <g id="xtick_2">
     <g id="line2d_3">
      <path clip-path="url(#p52c1cfe142)" d="M 375.705812 448.56 
L 375.705812 60.48 
" style="fill:none;stroke:#b0b0b0;stroke-linecap:square;stroke-width:0.8;"/>
     </g>
     <g id="line2d_4">
      <g>
       <use style="stroke:#000000;stroke-width:0.8;" x="375.705812" xlink:href="#me41a387d88" y="448.56"/>
      </g>
     </g>
     <g id="text_2">
      <!-- 400 -->
      <defs>
       <path d="M 37.796875 64.3125 
L 12.890625 25.390625 
L 37.796875 25.390625 
z
M 35.203125 72.90625 
L 47.609375 72.90625 
L 47.609375 25.390625 
L 58.015625 25.390625 
L 58.015625 17.1875 
L 47.609375 17.1875 
L 47.609375 0 
L 37.796875 0 
L 37.796875 17.1875 
L 4.890625 17.1875 
L 4.890625 26.703125 
z
" id="DejaVuSans-52"/>
      </defs>
      <g transform="translate(366.162062 463.158437)scale(0.1 -0.1)">
       <use xlink:href="#DejaVuSans-52"/>
       <use x="63.623047" xlink:href="#DejaVuSans-48"/>
       <use x="127.246094" xlink:href="#DejaVuSans-48"/>
      </g>
     </g>
    </g>
    <g id="xtick_3">
     <g id="line2d_5">
      <path clip-path="url(#p52c1cfe142)" d="M 509.894188 448.56 
L 509.894188 60.48 
" style="fill:none;stroke:#b0b0b0;stroke-linecap:square;stroke-width:0.8;"/>
     </g>
     <g id="line2d_6">
      <g>
       <use style="stroke:#000000;stroke-width:0.8;" x="509.894188" xlink:href="#me41a387d88" y="448.56"/>
      </g>
     </g>
     <g id="text_3">
      <!-- 600 -->
      <defs>
       <path d="M 33.015625 40.375 
Q 26.375 40.375 22.484375 35.828125 
Q 18.609375 31.296875 18.609375 23.390625 
Q 18.609375 15.53125 22.484375 10.953125 
Q 26.375 6.390625 33.015625 6.390625 
Q 39.65625 6.390625 43.53125 10.953125 
Q 47.40625 15.53125 47.40625 23.390625 
Q 47.40625 31.296875 43.53125 35.828125 
Q 39.65625 40.375 33.015625 40.375 
z
M 52.59375 71.296875 
L 52.59375 62.3125 
Q 48.875 64.0625 45.09375 64.984375 
Q 41.3125 65.921875 37.59375 65.921875 
Q 27.828125 65.921875 22.671875 59.328125 
Q 17.53125 52.734375 16.796875 39.40625 
Q 19.671875 43.65625 24.015625 45.921875 
Q 28.375 48.1875 33.59375 48.1875 
Q 44.578125 48.1875 50.953125 41.515625 
Q 57.328125 34.859375 57.328125 23.390625 
Q 57.328125 12.15625 50.6875 5.359375 
Q 44.046875 -1.421875 33.015625 -1.421875 
Q 20.359375 -1.421875 13.671875 8.265625 
Q 6.984375 17.96875 6.984375 36.375 
Q 6.984375 53.65625 15.1875 63.9375 
Q 23.390625 74.21875 37.203125 74.21875 
Q 40.921875 74.21875 44.703125 73.484375 
Q 48.484375 72.75 52.59375 71.296875 
z
" id="DejaVuSans-54"/>
      </defs>
      <g transform="translate(500.350438 463.158437)scale(0.1 -0.1)">
       <use xlink:href="#DejaVuSans-54"/>
       <use x="63.623047" xlink:href="#DejaVuSans-48"/>
       <use x="127.246094" xlink:href="#DejaVuSans-48"/>
      </g>
     </g>
    </g>
    <g id="xtick_4">
     <g id="line2d_7">
      <path clip-path="url(#p52c1cfe142)" d="M 644.082565 448.56 
L 644.082565 60.48 
" style="fill:none;stroke:#b0b0b0;stroke-linecap:square;stroke-width:0.8;"/>
     </g>
     <g id="line2d_8">
      <g>
       <use style="stroke:#000000;stroke-width:0.8;" x="644.082565" xlink:href="#me41a387d88" y="448.56"/>
      </g>
     </g>
     <g id="text_4">
      <!-- 800 -->
      <defs>
       <path d="M 31.78125 34.625 
Q 24.75 34.625 20.71875 30.859375 
Q 16.703125 27.09375 16.703125 20.515625 
Q 16.703125 13.921875 20.71875 10.15625 
Q 24.75 6.390625 31.78125 6.390625 
Q 38.8125 6.390625 42.859375 10.171875 
Q 46.921875 13.96875 46.921875 20.515625 
Q 46.921875 27.09375 42.890625 30.859375 
Q 38.875 34.625 31.78125 34.625 
z
M 21.921875 38.8125 
Q 15.578125 40.375 12.03125 44.71875 
Q 8.5 49.078125 8.5 55.328125 
Q 8.5 64.0625 14.71875 69.140625 
Q 20.953125 74.21875 31.78125 74.21875 
Q 42.671875 74.21875 48.875 69.140625 
Q 55.078125 64.0625 55.078125 55.328125 
Q 55.078125 49.078125 51.53125 44.71875 
Q 48 40.375 41.703125 38.8125 
Q 48.828125 37.15625 52.796875 32.3125 
Q 56.78125 27.484375 56.78125 20.515625 
Q 56.78125 9.90625 50.3125 4.234375 
Q 43.84375 -1.421875 31.78125 -1.421875 
Q 19.734375 -1.421875 13.25 4.234375 
Q 6.78125 9.90625 6.78125 20.515625 
Q 6.78125 27.484375 10.78125 32.3125 
Q 14.796875 37.15625 21.921875 38.8125 
z
M 18.3125 54.390625 
Q 18.3125 48.734375 21.84375 45.5625 
Q 25.390625 42.390625 31.78125 42.390625 
Q 38.140625 42.390625 41.71875 45.5625 
Q 45.3125 48.734375 45.3125 54.390625 
Q 45.3125 60.0625 41.71875 63.234375 
Q 38.140625 66.40625 31.78125 66.40625 
Q 25.390625 66.40625 21.84375 63.234375 
Q 18.3125 60.0625 18.3125 54.390625 
z
" id="DejaVuSans-56"/>
      </defs>
      <g transform="translate(634.538815 463.158437)scale(0.1 -0.1)">
       <use xlink:href="#DejaVuSans-56"/>
       <use x="63.623047" xlink:href="#DejaVuSans-48"/>
       <use x="127.246094" xlink:href="#DejaVuSans-48"/>
      </g>
     </g>
    </g>
    <g id="text_5">
     <!-- Frequency [GHz] -->
     <defs>
      <path d="M 9.8125 72.90625 
L 51.703125 72.90625 
L 51.703125 64.59375 
L 19.671875 64.59375 
L 19.671875 43.109375 
L 48.578125 43.109375 
L 48.578125 34.8125 
L 19.671875 34.8125 
L 19.671875 0 
L 9.8125 0 
z
" id="DejaVuSans-70"/>
      <path d="M 41.109375 46.296875 
Q 39.59375 47.171875 37.8125 47.578125 
Q 36.03125 48 33.890625 48 
Q 26.265625 48 22.1875 43.046875 
Q 18.109375 38.09375 18.109375 28.8125 
L 18.109375 0 
L 9.078125 0 
L 9.078125 54.6875 
L 18.109375 54.6875 
L 18.109375 46.1875 
Q 20.953125 51.171875 25.484375 53.578125 
Q 30.03125 56 36.53125 56 
Q 37.453125 56 38.578125 55.875 
Q 39.703125 55.765625 41.0625 55.515625 
z
" id="DejaVuSans-114"/>
      <path d="M 56.203125 29.59375 
L 56.203125 25.203125 
L 14.890625 25.203125 
Q 15.484375 15.921875 20.484375 11.0625 
Q 25.484375 6.203125 34.421875 6.203125 
Q 39.59375 6.203125 44.453125 7.46875 
Q 49.3125 8.734375 54.109375 11.28125 
L 54.109375 2.78125 
Q 49.265625 0.734375 44.1875 -0.34375 
Q 39.109375 -1.421875 33.890625 -1.421875 
Q 20.796875 -1.421875 13.15625 6.1875 
Q 5.515625 13.8125 5.515625 26.8125 
Q 5.515625 40.234375 12.765625 48.109375 
Q 20.015625 56 32.328125 56 
Q 43.359375 56 49.78125 48.890625 
Q 56.203125 41.796875 56.203125 29.59375 
z
M 47.21875 32.234375 
Q 47.125 39.59375 43.09375 43.984375 
Q 39.0625 48.390625 32.421875 48.390625 
Q 24.90625 48.390625 20.390625 44.140625 
Q 15.875 39.890625 15.1875 32.171875 
z
" id="DejaVuSans-101"/>
      <path d="M 14.796875 27.296875 
Q 14.796875 17.390625 18.875 11.75 
Q 22.953125 6.109375 30.078125 6.109375 
Q 37.203125 6.109375 41.296875 11.75 
Q 45.40625 17.390625 45.40625 27.296875 
Q 45.40625 37.203125 41.296875 42.84375 
Q 37.203125 48.484375 30.078125 48.484375 
Q 22.953125 48.484375 18.875 42.84375 
Q 14.796875 37.203125 14.796875 27.296875 
z
M 45.40625 8.203125 
Q 42.578125 3.328125 38.25 0.953125 
Q 33.9375 -1.421875 27.875 -1.421875 
Q 17.96875 -1.421875 11.734375 6.484375 
Q 5.515625 14.40625 5.515625 27.296875 
Q 5.515625 40.1875 11.734375 48.09375 
Q 17.96875 56 27.875 56 
Q 33.9375 56 38.25 53.625 
Q 42.578125 51.265625 45.40625 46.390625 
L 45.40625 54.6875 
L 54.390625 54.6875 
L 54.390625 -20.796875 
L 45.40625 -20.796875 
z
" id="DejaVuSans-113"/>
      <path d="M 8.5 21.578125 
L 8.5 54.6875 
L 17.484375 54.6875 
L 17.484375 21.921875 
Q 17.484375 14.15625 20.5 10.265625 
Q 23.53125 6.390625 29.59375 6.390625 
Q 36.859375 6.390625 41.078125 11.03125 
Q 45.3125 15.671875 45.3125 23.6875 
L 45.3125 54.6875 
L 54.296875 54.6875 
L 54.296875 0 
L 45.3125 0 
L 45.3125 8.40625 
Q 42.046875 3.421875 37.71875 1 
Q 33.40625 -1.421875 27.6875 -1.421875 
Q 18.265625 -1.421875 13.375 4.4375 
Q 8.5 10.296875 8.5 21.578125 
z
M 31.109375 56 
z
" id="DejaVuSans-117"/>
      <path d="M 54.890625 33.015625 
L 54.890625 0 
L 45.90625 0 
L 45.90625 32.71875 
Q 45.90625 40.484375 42.875 44.328125 
Q 39.84375 48.1875 33.796875 48.1875 
Q 26.515625 48.1875 22.3125 43.546875 
Q 18.109375 38.921875 18.109375 30.90625 
L 18.109375 0 
L 9.078125 0 
L 9.078125 54.6875 
L 18.109375 54.6875 
L 18.109375 46.1875 
Q 21.34375 51.125 25.703125 53.5625 
Q 30.078125 56 35.796875 56 
Q 45.21875 56 50.046875 50.171875 
Q 54.890625 44.34375 54.890625 33.015625 
z
" id="DejaVuSans-110"/>
      <path d="M 48.78125 52.59375 
L 48.78125 44.1875 
Q 44.96875 46.296875 41.140625 47.34375 
Q 37.3125 48.390625 33.40625 48.390625 
Q 24.65625 48.390625 19.8125 42.84375 
Q 14.984375 37.3125 14.984375 27.296875 
Q 14.984375 17.28125 19.8125 11.734375 
Q 24.65625 6.203125 33.40625 6.203125 
Q 37.3125 6.203125 41.140625 7.25 
Q 44.96875 8.296875 48.78125 10.40625 
L 48.78125 2.09375 
Q 45.015625 0.34375 40.984375 -0.53125 
Q 36.96875 -1.421875 32.421875 -1.421875 
Q 20.0625 -1.421875 12.78125 6.34375 
Q 5.515625 14.109375 5.515625 27.296875 
Q 5.515625 40.671875 12.859375 48.328125 
Q 20.21875 56 33.015625 56 
Q 37.15625 56 41.109375 55.140625 
Q 45.0625 54.296875 48.78125 52.59375 
z
" id="DejaVuSans-99"/>
      <path d="M 32.171875 -5.078125 
Q 28.375 -14.84375 24.75 -17.8125 
Q 21.140625 -20.796875 15.09375 -20.796875 
L 7.90625 -20.796875 
L 7.90625 -13.28125 
L 13.1875 -13.28125 
Q 16.890625 -13.28125 18.9375 -11.515625 
Q 21 -9.765625 23.484375 -3.21875 
L 25.09375 0.875 
L 2.984375 54.6875 
L 12.5 54.6875 
L 29.59375 11.921875 
L 46.6875 54.6875 
L 56.203125 54.6875 
z
" id="DejaVuSans-121"/>
      <path id="DejaVuSans-32"/>
      <path d="M 8.59375 75.984375 
L 29.296875 75.984375 
L 29.296875 69 
L 17.578125 69 
L 17.578125 -6.203125 
L 29.296875 -6.203125 
L 29.296875 -13.1875 
L 8.59375 -13.1875 
z
" id="DejaVuSans-91"/>
      <path d="M 59.515625 10.40625 
L 59.515625 29.984375 
L 43.40625 29.984375 
L 43.40625 38.09375 
L 69.28125 38.09375 
L 69.28125 6.78125 
Q 63.578125 2.734375 56.6875 0.65625 
Q 49.8125 -1.421875 42 -1.421875 
Q 24.90625 -1.421875 15.25 8.5625 
Q 5.609375 18.5625 5.609375 36.375 
Q 5.609375 54.25 15.25 64.234375 
Q 24.90625 74.21875 42 74.21875 
Q 49.125 74.21875 55.546875 72.453125 
Q 61.96875 70.703125 67.390625 67.28125 
L 67.390625 56.78125 
Q 61.921875 61.421875 55.765625 63.765625 
Q 49.609375 66.109375 42.828125 66.109375 
Q 29.4375 66.109375 22.71875 58.640625 
Q 16.015625 51.171875 16.015625 36.375 
Q 16.015625 21.625 22.71875 14.15625 
Q 29.4375 6.6875 42.828125 6.6875 
Q 48.046875 6.6875 52.140625 7.59375 
Q 56.25 8.5 59.515625 10.40625 
z
" id="DejaVuSans-71"/>
      <path d="M 9.8125 72.90625 
L 19.671875 72.90625 
L 19.671875 43.015625 
L 55.515625 43.015625 
L 55.515625 72.90625 
L 65.375 72.90625 
L 65.375 0 
L 55.515625 0 
L 55.515625 34.71875 
L 19.671875 34.71875 
L 19.671875 0 
L 9.8125 0 
z
" id="DejaVuSans-72"/>
      <path d="M 5.515625 54.6875 
L 48.1875 54.6875 
L 48.1875 46.484375 
L 14.40625 7.171875 
L 48.1875 7.171875 
L 48.1875 0 
L 4.296875 0 
L 4.296875 8.203125 
L 38.09375 47.515625 
L 5.515625 47.515625 
z
" id="DejaVuSans-122"/>
      <path d="M 30.421875 75.984375 
L 30.421875 -13.1875 
L 9.71875 -13.1875 
L 9.71875 -6.203125 
L 21.390625 -6.203125 
L 21.390625 69 
L 9.71875 69 
L 9.71875 75.984375 
z
" id="DejaVuSans-93"/>
     </defs>
     <g transform="translate(400.753125 476.836563)scale(0.1 -0.1)">
      <use xlink:href="#DejaVuSans-70"/>
      <use x="57.410156" xlink:href="#DejaVuSans-114"/>
      <use x="98.492188" xlink:href="#DejaVuSans-101"/>
      <use x="160.015625" xlink:href="#DejaVuSans-113"/>
      <use x="223.492188" xlink:href="#DejaVuSans-117"/>
      <use x="286.871094" xlink:href="#DejaVuSans-101"/>
      <use x="348.394531" xlink:href="#DejaVuSans-110"/>
      <use x="411.773438" xlink:href="#DejaVuSans-99"/>
      <use x="466.753906" xlink:href="#DejaVuSans-121"/>
      <use x="525.933594" xlink:href="#DejaVuSans-32"/>
      <use x="557.720703" xlink:href="#DejaVuSans-91"/>
      <use x="596.734375" xlink:href="#DejaVuSans-71"/>
      <use x="674.224609" xlink:href="#DejaVuSans-72"/>
      <use x="749.419922" xlink:href="#DejaVuSans-122"/>
      <use x="801.910156" xlink:href="#DejaVuSans-93"/>
     </g>
    </g>
   </g>
   <g id="matplotlib.axis_2">
    <g id="ytick_1">
     <g id="line2d_9">
      <path clip-path="url(#p52c1cfe142)" d="M 108 432.458093 
L 777.6 432.458093 
" style="fill:none;stroke:#b0b0b0;stroke-linecap:square;stroke-width:0.8;"/>
     </g>
     <g id="line2d_10">
      <defs>
       <path d="M 0 0 
L -3.5 0 
" id="mf11a97b522" style="stroke:#000000;stroke-width:0.8;"/>
      </defs>
      <g>
       <use style="stroke:#000000;stroke-width:0.8;" x="108" xlink:href="#mf11a97b522" y="432.458093"/>
      </g>
     </g>
     <g id="text_6">
      <!-- $\mathdefault{10^{-2}}$ -->
      <defs>
       <path d="M 12.40625 8.296875 
L 28.515625 8.296875 
L 28.515625 63.921875 
L 10.984375 60.40625 
L 10.984375 69.390625 
L 28.421875 72.90625 
L 38.28125 72.90625 
L 38.28125 8.296875 
L 54.390625 8.296875 
L 54.390625 0 
L 12.40625 0 
z
" id="DejaVuSans-49"/>
       <path d="M 10.59375 35.5 
L 73.1875 35.5 
L 73.1875 27.203125 
L 10.59375 27.203125 
z
" id="DejaVuSans-8722"/>
      </defs>
      <g transform="translate(77.5 436.257312)scale(0.1 -0.1)">
       <use transform="translate(0 0.765625)" xlink:href="#DejaVuSans-49"/>
       <use transform="translate(63.623047 0.765625)" xlink:href="#DejaVuSans-48"/>
       <use transform="translate(128.203125 39.046875)scale(0.7)" xlink:href="#DejaVuSans-8722"/>
       <use transform="translate(186.855469 39.046875)scale(0.7)" xlink:href="#DejaVuSans-50"/>
      </g>
     </g>
    </g>
    <g id="ytick_2">
     <g id="line2d_11">
      <path clip-path="url(#p52c1cfe142)" d="M 108 378.968717 
L 777.6 378.968717 
" style="fill:none;stroke:#b0b0b0;stroke-linecap:square;stroke-width:0.8;"/>
     </g>
     <g id="line2d_12">
      <g>
       <use style="stroke:#000000;stroke-width:0.8;" x="108" xlink:href="#mf11a97b522" y="378.968717"/>
      </g>
     </g>
     <g id="text_7">
      <!-- $\mathdefault{10^{-1}}$ -->
      <g transform="translate(77.5 382.767936)scale(0.1 -0.1)">
       <use transform="translate(0 0.684375)" xlink:href="#DejaVuSans-49"/>
       <use transform="translate(63.623047 0.684375)" xlink:href="#DejaVuSans-48"/>
       <use transform="translate(128.203125 38.965625)scale(0.7)" xlink:href="#DejaVuSans-8722"/>
       <use transform="translate(186.855469 38.965625)scale(0.7)" xlink:href="#DejaVuSans-49"/>
      </g>
     </g>
    </g>
    <g id="ytick_3">
     <g id="line2d_13">
      <path clip-path="url(#p52c1cfe142)" d="M 108 325.479341 
L 777.6 325.479341 
" style="fill:none;stroke:#b0b0b0;stroke-linecap:square;stroke-width:0.8;"/>
     </g>
     <g id="line2d_14">
      <g>
       <use style="stroke:#000000;stroke-width:0.8;" x="108" xlink:href="#mf11a97b522" y="325.479341"/>
      </g>
     </g>
     <g id="text_8">
      <!-- $\mathdefault{10^{0}}$ -->
      <g transform="translate(83.4 329.27856)scale(0.1 -0.1)">
       <use transform="translate(0 0.765625)" xlink:href="#DejaVuSans-49"/>
       <use transform="translate(63.623047 0.765625)" xlink:href="#DejaVuSans-48"/>
       <use transform="translate(128.203125 39.046875)scale(0.7)" xlink:href="#DejaVuSans-48"/>
      </g>
     </g>
    </g>
    <g id="ytick_4">
     <g id="line2d_15">
      <path clip-path="url(#p52c1cfe142)" d="M 108 271.989965 
L 777.6 271.989965 
" style="fill:none;stroke:#b0b0b0;stroke-linecap:square;stroke-width:0.8;"/>
     </g>
     <g id="line2d_16">
      <g>
       <use style="stroke:#000000;stroke-width:0.8;" x="108" xlink:href="#mf11a97b522" y="271.989965"/>
      </g>
     </g>
     <g id="text_9">
      <!-- $\mathdefault{10^{1}}$ -->
      <g transform="translate(83.4 275.789184)scale(0.1 -0.1)">
       <use transform="translate(0 0.684375)" xlink:href="#DejaVuSans-49"/>
       <use transform="translate(63.623047 0.684375)" xlink:href="#DejaVuSans-48"/>
       <use transform="translate(128.203125 38.965625)scale(0.7)" xlink:href="#DejaVuSans-49"/>
      </g>
     </g>
    </g>
    <g id="ytick_5">
     <g id="line2d_17">
      <path clip-path="url(#p52c1cfe142)" d="M 108 218.500589 
L 777.6 218.500589 
" style="fill:none;stroke:#b0b0b0;stroke-linecap:square;stroke-width:0.8;"/>
     </g>
     <g id="line2d_18">
      <g>
       <use style="stroke:#000000;stroke-width:0.8;" x="108" xlink:href="#mf11a97b522" y="218.500589"/>
      </g>
     </g>
     <g id="text_10">
      <!-- $\mathdefault{10^{2}}$ -->
      <g transform="translate(83.4 222.299808)scale(0.1 -0.1)">
       <use transform="translate(0 0.765625)" xlink:href="#DejaVuSans-49"/>
       <use transform="translate(63.623047 0.765625)" xlink:href="#DejaVuSans-48"/>
       <use transform="translate(128.203125 39.046875)scale(0.7)" xlink:href="#DejaVuSans-50"/>
      </g>
     </g>
    </g>
    <g id="ytick_6">
     <g id="line2d_19">
      <path clip-path="url(#p52c1cfe142)" d="M 108 165.011213 
L 777.6 165.011213 
" style="fill:none;stroke:#b0b0b0;stroke-linecap:square;stroke-width:0.8;"/>
     </g>
     <g id="line2d_20">
      <g>
       <use style="stroke:#000000;stroke-width:0.8;" x="108" xlink:href="#mf11a97b522" y="165.011213"/>
      </g>
     </g>
     <g id="text_11">
      <!-- $\mathdefault{10^{3}}$ -->
      <defs>
       <path d="M 40.578125 39.3125 
Q 47.65625 37.796875 51.625 33 
Q 55.609375 28.21875 55.609375 21.1875 
Q 55.609375 10.40625 48.1875 4.484375 
Q 40.765625 -1.421875 27.09375 -1.421875 
Q 22.515625 -1.421875 17.65625 -0.515625 
Q 12.796875 0.390625 7.625 2.203125 
L 7.625 11.71875 
Q 11.71875 9.328125 16.59375 8.109375 
Q 21.484375 6.890625 26.8125 6.890625 
Q 36.078125 6.890625 40.9375 10.546875 
Q 45.796875 14.203125 45.796875 21.1875 
Q 45.796875 27.640625 41.28125 31.265625 
Q 36.765625 34.90625 28.71875 34.90625 
L 20.21875 34.90625 
L 20.21875 43.015625 
L 29.109375 43.015625 
Q 36.375 43.015625 40.234375 45.921875 
Q 44.09375 48.828125 44.09375 54.296875 
Q 44.09375 59.90625 40.109375 62.90625 
Q 36.140625 65.921875 28.71875 65.921875 
Q 24.65625 65.921875 20.015625 65.03125 
Q 15.375 64.15625 9.8125 62.3125 
L 9.8125 71.09375 
Q 15.4375 72.65625 20.34375 73.4375 
Q 25.25 74.21875 29.59375 74.21875 
Q 40.828125 74.21875 47.359375 69.109375 
Q 53.90625 64.015625 53.90625 55.328125 
Q 53.90625 49.265625 50.4375 45.09375 
Q 46.96875 40.921875 40.578125 39.3125 
z
" id="DejaVuSans-51"/>
      </defs>
      <g transform="translate(83.4 168.810431)scale(0.1 -0.1)">
       <use transform="translate(0 0.765625)" xlink:href="#DejaVuSans-49"/>
       <use transform="translate(63.623047 0.765625)" xlink:href="#DejaVuSans-48"/>
       <use transform="translate(128.203125 39.046875)scale(0.7)" xlink:href="#DejaVuSans-51"/>
      </g>
     </g>
    </g>
    <g id="ytick_7">
     <g id="line2d_21">
      <path clip-path="url(#p52c1cfe142)" d="M 108 111.521837 
L 777.6 111.521837 
" style="fill:none;stroke:#b0b0b0;stroke-linecap:square;stroke-width:0.8;"/>
     </g>
     <g id="line2d_22">
      <g>
       <use style="stroke:#000000;stroke-width:0.8;" x="108" xlink:href="#mf11a97b522" y="111.521837"/>
      </g>
     </g>
     <g id="text_12">
      <!-- $\mathdefault{10^{4}}$ -->
      <g transform="translate(83.4 115.321055)scale(0.1 -0.1)">
       <use transform="translate(0 0.684375)" xlink:href="#DejaVuSans-49"/>
       <use transform="translate(63.623047 0.684375)" xlink:href="#DejaVuSans-48"/>
       <use transform="translate(128.203125 38.965625)scale(0.7)" xlink:href="#DejaVuSans-52"/>
      </g>
     </g>
    </g>
    <g id="ytick_8">
     <g id="line2d_23">
      <defs>
       <path d="M 0 0 
L -2 0 
" id="mce6890b0f5" style="stroke:#000000;stroke-width:0.6;"/>
      </defs>
      <g>
       <use style="stroke:#000000;stroke-width:0.6;" x="108" xlink:href="#mce6890b0f5" y="448.56"/>
      </g>
     </g>
    </g>
    <g id="ytick_9">
     <g id="line2d_24">
      <g>
       <use style="stroke:#000000;stroke-width:0.6;" x="108" xlink:href="#mce6890b0f5" y="444.324645"/>
      </g>
     </g>
    </g>
    <g id="ytick_10">
     <g id="line2d_25">
      <g>
       <use style="stroke:#000000;stroke-width:0.6;" x="108" xlink:href="#mce6890b0f5" y="440.743703"/>
      </g>
     </g>
    </g>
    <g id="ytick_11">
     <g id="line2d_26">
      <g>
       <use style="stroke:#000000;stroke-width:0.6;" x="108" xlink:href="#mce6890b0f5" y="437.641749"/>
      </g>
     </g>
    </g>
    <g id="ytick_12">
     <g id="line2d_27">
      <g>
       <use style="stroke:#000000;stroke-width:0.6;" x="108" xlink:href="#mce6890b0f5" y="434.905633"/>
      </g>
     </g>
    </g>
    <g id="ytick_13">
     <g id="line2d_28">
      <g>
       <use style="stroke:#000000;stroke-width:0.6;" x="108" xlink:href="#mce6890b0f5" y="416.356187"/>
      </g>
     </g>
    </g>
    <g id="ytick_14">
     <g id="line2d_29">
      <g>
       <use style="stroke:#000000;stroke-width:0.6;" x="108" xlink:href="#mce6890b0f5" y="406.937175"/>
      </g>
     </g>
    </g>
    <g id="ytick_15">
     <g id="line2d_30">
      <g>
       <use style="stroke:#000000;stroke-width:0.6;" x="108" xlink:href="#mce6890b0f5" y="400.25428"/>
      </g>
     </g>
    </g>
    <g id="ytick_16">
     <g id="line2d_31">
      <g>
       <use style="stroke:#000000;stroke-width:0.6;" x="108" xlink:href="#mce6890b0f5" y="395.070624"/>
      </g>
     </g>
    </g>
    <g id="ytick_17">
     <g id="line2d_32">
      <g>
       <use style="stroke:#000000;stroke-width:0.6;" x="108" xlink:href="#mce6890b0f5" y="390.835268"/>
      </g>
     </g>
    </g>
    <g id="ytick_18">
     <g id="line2d_33">
      <g>
       <use style="stroke:#000000;stroke-width:0.6;" x="108" xlink:href="#mce6890b0f5" y="387.254326"/>
      </g>
     </g>
    </g>
    <g id="ytick_19">
     <g id="line2d_34">
      <g>
       <use style="stroke:#000000;stroke-width:0.6;" x="108" xlink:href="#mce6890b0f5" y="384.152373"/>
      </g>
     </g>
    </g>
    <g id="ytick_20">
     <g id="line2d_35">
      <g>
       <use style="stroke:#000000;stroke-width:0.6;" x="108" xlink:href="#mce6890b0f5" y="381.416257"/>
      </g>
     </g>
    </g>
    <g id="ytick_21">
     <g id="line2d_36">
      <g>
       <use style="stroke:#000000;stroke-width:0.6;" x="108" xlink:href="#mce6890b0f5" y="362.866811"/>
      </g>
     </g>
    </g>
    <g id="ytick_22">
     <g id="line2d_37">
      <g>
       <use style="stroke:#000000;stroke-width:0.6;" x="108" xlink:href="#mce6890b0f5" y="353.447799"/>
      </g>
     </g>
    </g>
    <g id="ytick_23">
     <g id="line2d_38">
      <g>
       <use style="stroke:#000000;stroke-width:0.6;" x="108" xlink:href="#mce6890b0f5" y="346.764904"/>
      </g>
     </g>
    </g>
    <g id="ytick_24">
     <g id="line2d_39">
      <g>
       <use style="stroke:#000000;stroke-width:0.6;" x="108" xlink:href="#mce6890b0f5" y="341.581248"/>
      </g>
     </g>
    </g>
    <g id="ytick_25">
     <g id="line2d_40">
      <g>
       <use style="stroke:#000000;stroke-width:0.6;" x="108" xlink:href="#mce6890b0f5" y="337.345892"/>
      </g>
     </g>
    </g>
    <g id="ytick_26">
     <g id="line2d_41">
      <g>
       <use style="stroke:#000000;stroke-width:0.6;" x="108" xlink:href="#mce6890b0f5" y="333.76495"/>
      </g>
     </g>
    </g>
    <g id="ytick_27">
     <g id="line2d_42">
      <g>
       <use style="stroke:#000000;stroke-width:0.6;" x="108" xlink:href="#mce6890b0f5" y="330.662997"/>
      </g>
     </g>
    </g>
    <g id="ytick_28">
     <g id="line2d_43">
      <g>
       <use style="stroke:#000000;stroke-width:0.6;" x="108" xlink:href="#mce6890b0f5" y="327.926881"/>
      </g>
     </g>
    </g>
    <g id="ytick_29">
     <g id="line2d_44">
      <g>
       <use style="stroke:#000000;stroke-width:0.6;" x="108" xlink:href="#mce6890b0f5" y="309.377434"/>
      </g>
     </g>
    </g>
    <g id="ytick_30">
     <g id="line2d_45">
      <g>
       <use style="stroke:#000000;stroke-width:0.6;" x="108" xlink:href="#mce6890b0f5" y="299.958423"/>
      </g>
     </g>
    </g>
    <g id="ytick_31">
     <g id="line2d_46">
      <g>
       <use style="stroke:#000000;stroke-width:0.6;" x="108" xlink:href="#mce6890b0f5" y="293.275528"/>
      </g>
     </g>
    </g>
    <g id="ytick_32">
     <g id="line2d_47">
      <g>
       <use style="stroke:#000000;stroke-width:0.6;" x="108" xlink:href="#mce6890b0f5" y="288.091872"/>
      </g>
     </g>
    </g>
    <g id="ytick_33">
     <g id="line2d_48">
      <g>
       <use style="stroke:#000000;stroke-width:0.6;" x="108" xlink:href="#mce6890b0f5" y="283.856516"/>
      </g>
     </g>
    </g>
    <g id="ytick_34">
     <g id="line2d_49">
      <g>
       <use style="stroke:#000000;stroke-width:0.6;" x="108" xlink:href="#mce6890b0f5" y="280.275574"/>
      </g>
     </g>
    </g>
    <g id="ytick_35">
     <g id="line2d_50">
      <g>
       <use style="stroke:#000000;stroke-width:0.6;" x="108" xlink:href="#mce6890b0f5" y="277.173621"/>
      </g>
     </g>
    </g>
    <g id="ytick_36">
     <g id="line2d_51">
      <g>
       <use style="stroke:#000000;stroke-width:0.6;" x="108" xlink:href="#mce6890b0f5" y="274.437505"/>
      </g>
     </g>
    </g>
    <g id="ytick_37">
     <g id="line2d_52">
      <g>
       <use style="stroke:#000000;stroke-width:0.6;" x="108" xlink:href="#mce6890b0f5" y="255.888058"/>
      </g>
     </g>
    </g>
    <g id="ytick_38">
     <g id="line2d_53">
      <g>
       <use style="stroke:#000000;stroke-width:0.6;" x="108" xlink:href="#mce6890b0f5" y="246.469047"/>
      </g>
     </g>
    </g>
    <g id="ytick_39">
     <g id="line2d_54">
      <g>
       <use style="stroke:#000000;stroke-width:0.6;" x="108" xlink:href="#mce6890b0f5" y="239.786152"/>
      </g>
     </g>
    </g>
    <g id="ytick_40">
     <g id="line2d_55">
      <g>
       <use style="stroke:#000000;stroke-width:0.6;" x="108" xlink:href="#mce6890b0f5" y="234.602495"/>
      </g>
     </g>
    </g>
    <g id="ytick_41">
     <g id="line2d_56">
      <g>
       <use style="stroke:#000000;stroke-width:0.6;" x="108" xlink:href="#mce6890b0f5" y="230.36714"/>
      </g>
     </g>
    </g>
    <g id="ytick_42">
     <g id="line2d_57">
      <g>
       <use style="stroke:#000000;stroke-width:0.6;" x="108" xlink:href="#mce6890b0f5" y="226.786198"/>
      </g>
     </g>
    </g>
    <g id="ytick_43">
     <g id="line2d_58">
      <g>
       <use style="stroke:#000000;stroke-width:0.6;" x="108" xlink:href="#mce6890b0f5" y="223.684245"/>
      </g>
     </g>
    </g>
    <g id="ytick_44">
     <g id="line2d_59">
      <g>
       <use style="stroke:#000000;stroke-width:0.6;" x="108" xlink:href="#mce6890b0f5" y="220.948128"/>
      </g>
     </g>
    </g>
    <g id="ytick_45">
     <g id="line2d_60">
      <g>
       <use style="stroke:#000000;stroke-width:0.6;" x="108" xlink:href="#mce6890b0f5" y="202.398682"/>
      </g>
     </g>
    </g>
    <g id="ytick_46">
     <g id="line2d_61">
      <g>
       <use style="stroke:#000000;stroke-width:0.6;" x="108" xlink:href="#mce6890b0f5" y="192.979671"/>
      </g>
     </g>
    </g>
    <g id="ytick_47">
     <g id="line2d_62">
      <g>
       <use style="stroke:#000000;stroke-width:0.6;" x="108" xlink:href="#mce6890b0f5" y="186.296775"/>
      </g>
     </g>
    </g>
    <g id="ytick_48">
     <g id="line2d_63">
      <g>
       <use style="stroke:#000000;stroke-width:0.6;" x="108" xlink:href="#mce6890b0f5" y="181.113119"/>
      </g>
     </g>
    </g>
    <g id="ytick_49">
     <g id="line2d_64">
      <g>
       <use style="stroke:#000000;stroke-width:0.6;" x="108" xlink:href="#mce6890b0f5" y="176.877764"/>
      </g>
     </g>
    </g>
    <g id="ytick_50">
     <g id="line2d_65">
      <g>
       <use style="stroke:#000000;stroke-width:0.6;" x="108" xlink:href="#mce6890b0f5" y="173.296822"/>
      </g>
     </g>
    </g>
    <g id="ytick_51">
     <g id="line2d_66">
      <g>
       <use style="stroke:#000000;stroke-width:0.6;" x="108" xlink:href="#mce6890b0f5" y="170.194869"/>
      </g>
     </g>
    </g>
    <g id="ytick_52">
     <g id="line2d_67">
      <g>
       <use style="stroke:#000000;stroke-width:0.6;" x="108" xlink:href="#mce6890b0f5" y="167.458752"/>
      </g>
     </g>
    </g>
    <g id="ytick_53">
     <g id="line2d_68">
      <g>
       <use style="stroke:#000000;stroke-width:0.6;" x="108" xlink:href="#mce6890b0f5" y="148.909306"/>
      </g>
     </g>
    </g>
    <g id="ytick_54">
     <g id="line2d_69">
      <g>
       <use style="stroke:#000000;stroke-width:0.6;" x="108" xlink:href="#mce6890b0f5" y="139.490294"/>
      </g>
     </g>
    </g>
    <g id="ytick_55">
     <g id="line2d_70">
      <g>
       <use style="stroke:#000000;stroke-width:0.6;" x="108" xlink:href="#mce6890b0f5" y="132.807399"/>
      </g>
     </g>
    </g>
    <g id="ytick_56">
     <g id="line2d_71">
      <g>
       <use style="stroke:#000000;stroke-width:0.6;" x="108" xlink:href="#mce6890b0f5" y="127.623743"/>
      </g>
     </g>
    </g>
    <g id="ytick_57">
     <g id="line2d_72">
      <g>
       <use style="stroke:#000000;stroke-width:0.6;" x="108" xlink:href="#mce6890b0f5" y="123.388388"/>
      </g>
     </g>
    </g>
    <g id="ytick_58">
     <g id="line2d_73">
      <g>
       <use style="stroke:#000000;stroke-width:0.6;" x="108" xlink:href="#mce6890b0f5" y="119.807446"/>
      </g>
     </g>
    </g>
    <g id="ytick_59">
     <g id="line2d_74">
      <g>
       <use style="stroke:#000000;stroke-width:0.6;" x="108" xlink:href="#mce6890b0f5" y="116.705493"/>
      </g>
     </g>
    </g>
    <g id="ytick_60">
     <g id="line2d_75">
      <g>
       <use style="stroke:#000000;stroke-width:0.6;" x="108" xlink:href="#mce6890b0f5" y="113.969376"/>
      </g>
     </g>
    </g>
    <g id="ytick_61">
     <g id="line2d_76">
      <g>
       <use style="stroke:#000000;stroke-width:0.6;" x="108" xlink:href="#mce6890b0f5" y="95.41993"/>
      </g>
     </g>
    </g>
    <g id="ytick_62">
     <g id="line2d_77">
      <g>
       <use style="stroke:#000000;stroke-width:0.6;" x="108" xlink:href="#mce6890b0f5" y="86.000918"/>
      </g>
     </g>
    </g>
    <g id="ytick_63">
     <g id="line2d_78">
      <g>
       <use style="stroke:#000000;stroke-width:0.6;" x="108" xlink:href="#mce6890b0f5" y="79.318023"/>
      </g>
     </g>
    </g>
    <g id="ytick_64">
     <g id="line2d_79">
      <g>
       <use style="stroke:#000000;stroke-width:0.6;" x="108" xlink:href="#mce6890b0f5" y="74.134367"/>
      </g>
     </g>
    </g>
    <g id="ytick_65">
     <g id="line2d_80">
      <g>
       <use style="stroke:#000000;stroke-width:0.6;" x="108" xlink:href="#mce6890b0f5" y="69.899012"/>
      </g>
     </g>
    </g>
    <g id="ytick_66">
     <g id="line2d_81">
      <g>
       <use style="stroke:#000000;stroke-width:0.6;" x="108" xlink:href="#mce6890b0f5" y="66.31807"/>
      </g>
     </g>
    </g>
    <g id="ytick_67">
     <g id="line2d_82">
      <g>
       <use style="stroke:#000000;stroke-width:0.6;" x="108" xlink:href="#mce6890b0f5" y="63.216117"/>
      </g>
     </g>
    </g>
    <g id="ytick_68">
     <g id="line2d_83">
      <g>
       <use style="stroke:#000000;stroke-width:0.6;" x="108" xlink:href="#mce6890b0f5" y="60.48"/>
      </g>
     </g>
    </g>
    <g id="text_13">
     <!-- Specific Attenuation [dB / km] -->
     <defs>
      <path d="M 53.515625 70.515625 
L 53.515625 60.890625 
Q 47.90625 63.578125 42.921875 64.890625 
Q 37.9375 66.21875 33.296875 66.21875 
Q 25.25 66.21875 20.875 63.09375 
Q 16.5 59.96875 16.5 54.203125 
Q 16.5 49.359375 19.40625 46.890625 
Q 22.3125 44.4375 30.421875 42.921875 
L 36.375 41.703125 
Q 47.40625 39.59375 52.65625 34.296875 
Q 57.90625 29 57.90625 20.125 
Q 57.90625 9.515625 50.796875 4.046875 
Q 43.703125 -1.421875 29.984375 -1.421875 
Q 24.8125 -1.421875 18.96875 -0.25 
Q 13.140625 0.921875 6.890625 3.21875 
L 6.890625 13.375 
Q 12.890625 10.015625 18.65625 8.296875 
Q 24.421875 6.59375 29.984375 6.59375 
Q 38.421875 6.59375 43.015625 9.90625 
Q 47.609375 13.234375 47.609375 19.390625 
Q 47.609375 24.75 44.3125 27.78125 
Q 41.015625 30.8125 33.5 32.328125 
L 27.484375 33.5 
Q 16.453125 35.6875 11.515625 40.375 
Q 6.59375 45.0625 6.59375 53.421875 
Q 6.59375 63.09375 13.40625 68.65625 
Q 20.21875 74.21875 32.171875 74.21875 
Q 37.3125 74.21875 42.625 73.28125 
Q 47.953125 72.359375 53.515625 70.515625 
z
" id="DejaVuSans-83"/>
      <path d="M 18.109375 8.203125 
L 18.109375 -20.796875 
L 9.078125 -20.796875 
L 9.078125 54.6875 
L 18.109375 54.6875 
L 18.109375 46.390625 
Q 20.953125 51.265625 25.265625 53.625 
Q 29.59375 56 35.59375 56 
Q 45.5625 56 51.78125 48.09375 
Q 58.015625 40.1875 58.015625 27.296875 
Q 58.015625 14.40625 51.78125 6.484375 
Q 45.5625 -1.421875 35.59375 -1.421875 
Q 29.59375 -1.421875 25.265625 0.953125 
Q 20.953125 3.328125 18.109375 8.203125 
z
M 48.6875 27.296875 
Q 48.6875 37.203125 44.609375 42.84375 
Q 40.53125 48.484375 33.40625 48.484375 
Q 26.265625 48.484375 22.1875 42.84375 
Q 18.109375 37.203125 18.109375 27.296875 
Q 18.109375 17.390625 22.1875 11.75 
Q 26.265625 6.109375 33.40625 6.109375 
Q 40.53125 6.109375 44.609375 11.75 
Q 48.6875 17.390625 48.6875 27.296875 
z
" id="DejaVuSans-112"/>
      <path d="M 9.421875 54.6875 
L 18.40625 54.6875 
L 18.40625 0 
L 9.421875 0 
z
M 9.421875 75.984375 
L 18.40625 75.984375 
L 18.40625 64.59375 
L 9.421875 64.59375 
z
" id="DejaVuSans-105"/>
      <path d="M 37.109375 75.984375 
L 37.109375 68.5 
L 28.515625 68.5 
Q 23.6875 68.5 21.796875 66.546875 
Q 19.921875 64.59375 19.921875 59.515625 
L 19.921875 54.6875 
L 34.71875 54.6875 
L 34.71875 47.703125 
L 19.921875 47.703125 
L 19.921875 0 
L 10.890625 0 
L 10.890625 47.703125 
L 2.296875 47.703125 
L 2.296875 54.6875 
L 10.890625 54.6875 
L 10.890625 58.5 
Q 10.890625 67.625 15.140625 71.796875 
Q 19.390625 75.984375 28.609375 75.984375 
z
" id="DejaVuSans-102"/>
      <path d="M 34.1875 63.1875 
L 20.796875 26.90625 
L 47.609375 26.90625 
z
M 28.609375 72.90625 
L 39.796875 72.90625 
L 67.578125 0 
L 57.328125 0 
L 50.6875 18.703125 
L 17.828125 18.703125 
L 11.1875 0 
L 0.78125 0 
z
" id="DejaVuSans-65"/>
      <path d="M 18.3125 70.21875 
L 18.3125 54.6875 
L 36.8125 54.6875 
L 36.8125 47.703125 
L 18.3125 47.703125 
L 18.3125 18.015625 
Q 18.3125 11.328125 20.140625 9.421875 
Q 21.96875 7.515625 27.59375 7.515625 
L 36.8125 7.515625 
L 36.8125 0 
L 27.59375 0 
Q 17.1875 0 13.234375 3.875 
Q 9.28125 7.765625 9.28125 18.015625 
L 9.28125 47.703125 
L 2.6875 47.703125 
L 2.6875 54.6875 
L 9.28125 54.6875 
L 9.28125 70.21875 
z
" id="DejaVuSans-116"/>
      <path d="M 34.28125 27.484375 
Q 23.390625 27.484375 19.1875 25 
Q 14.984375 22.515625 14.984375 16.5 
Q 14.984375 11.71875 18.140625 8.90625 
Q 21.296875 6.109375 26.703125 6.109375 
Q 34.1875 6.109375 38.703125 11.40625 
Q 43.21875 16.703125 43.21875 25.484375 
L 43.21875 27.484375 
z
M 52.203125 31.203125 
L 52.203125 0 
L 43.21875 0 
L 43.21875 8.296875 
Q 40.140625 3.328125 35.546875 0.953125 
Q 30.953125 -1.421875 24.3125 -1.421875 
Q 15.921875 -1.421875 10.953125 3.296875 
Q 6 8.015625 6 15.921875 
Q 6 25.140625 12.171875 29.828125 
Q 18.359375 34.515625 30.609375 34.515625 
L 43.21875 34.515625 
L 43.21875 35.40625 
Q 43.21875 41.609375 39.140625 45 
Q 35.0625 48.390625 27.6875 48.390625 
Q 23 48.390625 18.546875 47.265625 
Q 14.109375 46.140625 10.015625 43.890625 
L 10.015625 52.203125 
Q 14.9375 54.109375 19.578125 55.046875 
Q 24.21875 56 28.609375 56 
Q 40.484375 56 46.34375 49.84375 
Q 52.203125 43.703125 52.203125 31.203125 
z
" id="DejaVuSans-97"/>
      <path d="M 30.609375 48.390625 
Q 23.390625 48.390625 19.1875 42.75 
Q 14.984375 37.109375 14.984375 27.296875 
Q 14.984375 17.484375 19.15625 11.84375 
Q 23.34375 6.203125 30.609375 6.203125 
Q 37.796875 6.203125 41.984375 11.859375 
Q 46.1875 17.53125 46.1875 27.296875 
Q 46.1875 37.015625 41.984375 42.703125 
Q 37.796875 48.390625 30.609375 48.390625 
z
M 30.609375 56 
Q 42.328125 56 49.015625 48.375 
Q 55.71875 40.765625 55.71875 27.296875 
Q 55.71875 13.875 49.015625 6.21875 
Q 42.328125 -1.421875 30.609375 -1.421875 
Q 18.84375 -1.421875 12.171875 6.21875 
Q 5.515625 13.875 5.515625 27.296875 
Q 5.515625 40.765625 12.171875 48.375 
Q 18.84375 56 30.609375 56 
z
" id="DejaVuSans-111"/>
      <path d="M 45.40625 46.390625 
L 45.40625 75.984375 
L 54.390625 75.984375 
L 54.390625 0 
L 45.40625 0 
L 45.40625 8.203125 
Q 42.578125 3.328125 38.25 0.953125 
Q 33.9375 -1.421875 27.875 -1.421875 
Q 17.96875 -1.421875 11.734375 6.484375 
Q 5.515625 14.40625 5.515625 27.296875 
Q 5.515625 40.1875 11.734375 48.09375 
Q 17.96875 56 27.875 56 
Q 33.9375 56 38.25 53.625 
Q 42.578125 51.265625 45.40625 46.390625 
z
M 14.796875 27.296875 
Q 14.796875 17.390625 18.875 11.75 
Q 22.953125 6.109375 30.078125 6.109375 
Q 37.203125 6.109375 41.296875 11.75 
Q 45.40625 17.390625 45.40625 27.296875 
Q 45.40625 37.203125 41.296875 42.84375 
Q 37.203125 48.484375 30.078125 48.484375 
Q 22.953125 48.484375 18.875 42.84375 
Q 14.796875 37.203125 14.796875 27.296875 
z
" id="DejaVuSans-100"/>
      <path d="M 19.671875 34.8125 
L 19.671875 8.109375 
L 35.5 8.109375 
Q 43.453125 8.109375 47.28125 11.40625 
Q 51.125 14.703125 51.125 21.484375 
Q 51.125 28.328125 47.28125 31.5625 
Q 43.453125 34.8125 35.5 34.8125 
z
M 19.671875 64.796875 
L 19.671875 42.828125 
L 34.28125 42.828125 
Q 41.5 42.828125 45.03125 45.53125 
Q 48.578125 48.25 48.578125 53.8125 
Q 48.578125 59.328125 45.03125 62.0625 
Q 41.5 64.796875 34.28125 64.796875 
z
M 9.8125 72.90625 
L 35.015625 72.90625 
Q 46.296875 72.90625 52.390625 68.21875 
Q 58.5 63.53125 58.5 54.890625 
Q 58.5 48.1875 55.375 44.234375 
Q 52.25 40.28125 46.1875 39.3125 
Q 53.46875 37.75 57.5 32.78125 
Q 61.53125 27.828125 61.53125 20.40625 
Q 61.53125 10.640625 54.890625 5.3125 
Q 48.25 0 35.984375 0 
L 9.8125 0 
z
" id="DejaVuSans-66"/>
      <path d="M 25.390625 72.90625 
L 33.6875 72.90625 
L 8.296875 -9.28125 
L 0 -9.28125 
z
" id="DejaVuSans-47"/>
      <path d="M 9.078125 75.984375 
L 18.109375 75.984375 
L 18.109375 31.109375 
L 44.921875 54.6875 
L 56.390625 54.6875 
L 27.390625 29.109375 
L 57.625 0 
L 45.90625 0 
L 18.109375 26.703125 
L 18.109375 0 
L 9.078125 0 
z
" id="DejaVuSans-107"/>
      <path d="M 52 44.1875 
Q 55.375 50.25 60.0625 53.125 
Q 64.75 56 71.09375 56 
Q 79.640625 56 84.28125 50.015625 
Q 88.921875 44.046875 88.921875 33.015625 
L 88.921875 0 
L 79.890625 0 
L 79.890625 32.71875 
Q 79.890625 40.578125 77.09375 44.375 
Q 74.3125 48.1875 68.609375 48.1875 
Q 61.625 48.1875 57.5625 43.546875 
Q 53.515625 38.921875 53.515625 30.90625 
L 53.515625 0 
L 44.484375 0 
L 44.484375 32.71875 
Q 44.484375 40.625 41.703125 44.40625 
Q 38.921875 48.1875 33.109375 48.1875 
Q 26.21875 48.1875 22.15625 43.53125 
Q 18.109375 38.875 18.109375 30.90625 
L 18.109375 0 
L 9.078125 0 
L 9.078125 54.6875 
L 18.109375 54.6875 
L 18.109375 46.1875 
Q 21.1875 51.21875 25.484375 53.609375 
Q 29.78125 56 35.6875 56 
Q 41.65625 56 45.828125 52.96875 
Q 50 49.953125 52 44.1875 
z
" id="DejaVuSans-109"/>
     </defs>
     <g transform="translate(71.420312 329.689531)rotate(-90)scale(0.1 -0.1)">
      <use xlink:href="#DejaVuSans-83"/>
      <use x="63.476562" xlink:href="#DejaVuSans-112"/>
      <use x="126.953125" xlink:href="#DejaVuSans-101"/>
      <use x="188.476562" xlink:href="#DejaVuSans-99"/>
      <use x="243.457031" xlink:href="#DejaVuSans-105"/>
      <use x="271.240234" xlink:href="#DejaVuSans-102"/>
      <use x="306.445312" xlink:href="#DejaVuSans-105"/>
      <use x="334.228516" xlink:href="#DejaVuSans-99"/>
      <use x="389.208984" xlink:href="#DejaVuSans-32"/>
      <use x="420.996094" xlink:href="#DejaVuSans-65"/>
      <use x="489.388672" xlink:href="#DejaVuSans-116"/>
      <use x="528.597656" xlink:href="#DejaVuSans-116"/>
      <use x="567.806641" xlink:href="#DejaVuSans-101"/>
      <use x="629.330078" xlink:href="#DejaVuSans-110"/>
      <use x="692.708984" xlink:href="#DejaVuSans-117"/>
      <use x="756.087891" xlink:href="#DejaVuSans-97"/>
      <use x="817.367188" xlink:href="#DejaVuSans-116"/>
      <use x="856.576172" xlink:href="#DejaVuSans-105"/>
      <use x="884.359375" xlink:href="#DejaVuSans-111"/>
      <use x="945.541016" xlink:href="#DejaVuSans-110"/>
      <use x="1008.919922" xlink:href="#DejaVuSans-32"/>
      <use x="1040.707031" xlink:href="#DejaVuSans-91"/>
      <use x="1079.720703" xlink:href="#DejaVuSans-100"/>
      <use x="1143.197266" xlink:href="#DejaVuSans-66"/>
      <use x="1211.800781" xlink:href="#DejaVuSans-32"/>
      <use x="1243.587891" xlink:href="#DejaVuSans-47"/>
      <use x="1277.279297" xlink:href="#DejaVuSans-32"/>
      <use x="1309.066406" xlink:href="#DejaVuSans-107"/>
      <use x="1366.976562" xlink:href="#DejaVuSans-109"/>
      <use x="1464.388672" xlink:href="#DejaVuSans-93"/>
     </g>
    </g>
   </g>
   <g id="line2d_84">
    <path clip-path="url(#p52c1cfe142)" d="M 108 447.527286 
L 108.670942 442.53676 
L 109.341884 441.354066 
L 110.683768 440.329311 
L 112.696593 438.984292 
L 114.038477 437.885629 
L 115.380361 436.585982 
L 117.393186 434.250982 
L 119.406012 431.457479 
L 121.418838 428.210586 
L 123.431663 424.506722 
L 125.444489 420.327349 
L 127.457315 415.63289 
L 129.47014 410.354664 
L 131.482966 404.381974 
L 133.495792 397.538814 
L 134.837675 392.357872 
L 136.179559 386.534131 
L 137.521443 379.865443 
L 138.863327 372.01284 
L 140.20521 362.294 
L 140.876152 356.172701 
L 141.547094 348.211616 
L 142.218036 337.376211 
L 143.55992 307.54365 
L 144.230862 292.630796 
L 144.901804 280.541431 
L 145.572745 272.323276 
L 146.243687 267.606287 
L 146.914629 265.346191 
L 147.585571 263.718636 
L 148.256513 263.094889 
L 148.927455 264.66401 
L 149.598397 270.585745 
L 150.269339 281.249804 
L 151.611222 310.315125 
L 152.282164 325.384564 
L 152.953106 337.939101 
L 153.624048 347.263398 
L 154.29499 354.075051 
L 155.636874 364.000522 
L 156.978758 371.608516 
L 158.320641 377.817026 
L 159.662525 383.034406 
L 161.004409 387.491402 
L 162.346293 391.331282 
L 163.688176 394.646794 
L 165.03006 397.498026 
L 166.371944 399.921702 
L 167.713828 401.93601 
L 169.055711 403.542732 
L 170.397595 404.727436 
L 171.739479 405.458014 
L 172.410421 405.637388 
L 173.081363 405.681466 
L 173.752305 405.579491 
L 174.423246 405.318586 
L 175.094188 404.88342 
L 175.76513 404.255782 
L 176.436072 403.41406 
L 177.107014 402.332581 
L 177.777956 400.980763 
L 178.448898 399.322005 
L 179.11984 397.312208 
L 179.790782 394.897729 
L 180.461723 392.012523 
L 181.132665 388.574008 
L 181.803607 384.476985 
L 182.474549 379.58462 
L 183.145491 373.715243 
L 183.816433 366.624714 
L 184.487375 357.992059 
L 185.158317 347.460914 
L 186.5002 322.986895 
L 187.171142 319.622401 
L 187.842084 328.86487 
L 189.183968 353.740908 
L 189.85491 363.568662 
L 191.196794 378.51665 
L 192.538677 389.215426 
L 193.880561 397.187386 
L 195.222445 403.302192 
L 196.564329 408.092014 
L 197.906212 411.903951 
L 199.248096 414.975429 
L 200.58998 417.474626 
L 201.931864 419.523863 
L 203.273747 421.213998 
L 204.615631 422.613724 
L 205.957515 423.775769 
L 207.970341 425.160523 
L 209.983166 426.2049 
L 211.995992 426.983535 
L 214.008818 427.551217 
L 216.692585 428.049544 
L 219.376353 428.316694 
L 222.731062 428.403017 
L 226.756713 428.235832 
L 231.453307 427.773325 
L 236.820842 427.001785 
L 243.530261 425.800773 
L 252.923447 423.865824 
L 269.026052 420.271752 
L 299.218437 413.538339 
L 332.765531 406.16738 
L 337.462124 404.895451 
L 340.816834 403.767893 
L 342.829659 402.901848 
L 344.842485 401.751913 
L 346.184369 400.699911 
L 347.526253 399.234562 
L 348.197194 398.253211 
L 348.868136 397.02128 
L 349.539078 395.436371 
L 350.21002 393.343769 
L 350.880962 390.506781 
L 351.551904 386.56379 
L 352.222846 380.98318 
L 352.893788 373.103834 
L 354.235671 352.945887 
L 354.906613 352.837817 
L 356.919439 380.016824 
L 357.590381 385.270866 
L 358.261323 388.87873 
L 358.932265 391.374953 
L 359.603206 393.122812 
L 360.274148 394.359755 
L 360.94509 395.240675 
L 361.616032 395.867792 
L 362.286974 396.309712 
L 363.628858 396.811195 
L 364.970741 396.975365 
L 366.312625 396.919087 
L 368.325451 396.546808 
L 370.338277 395.90344 
L 372.351102 395.006183 
L 374.363928 393.822615 
L 375.705812 392.837215 
L 377.047695 391.652044 
L 378.389579 390.212936 
L 379.731463 388.443409 
L 381.073347 386.234914 
L 382.41523 383.431626 
L 383.757114 379.806255 
L 385.098998 375.020186 
L 386.440882 368.554023 
L 387.111824 364.449118 
L 387.782766 359.576229 
L 388.453707 353.739101 
L 389.124649 346.675684 
L 389.795591 338.042029 
L 390.466533 327.447777 
L 391.808417 302.381161 
L 392.479359 298.550083 
L 393.150301 307.621153 
L 394.492184 332.029581 
L 395.163126 341.433043 
L 395.834068 349.059293 
L 396.50501 355.289993 
L 397.175952 360.429294 
L 398.517836 368.290178 
L 399.859719 373.879084 
L 401.201603 377.934873 
L 402.543487 380.924028 
L 403.885371 383.1528 
L 405.227255 384.827724 
L 406.569138 386.090851 
L 407.911022 387.041338 
L 409.252906 387.749096 
L 410.59479 388.263599 
L 412.607615 388.745907 
L 414.620441 388.942012 
L 416.633267 388.882977 
L 418.646092 388.561484 
L 419.987976 388.177129 
L 421.32986 387.621014 
L 422.671743 386.839533 
L 424.013627 385.745262 
L 425.355511 384.193925 
L 426.026453 383.176309 
L 426.697395 381.941336 
L 427.368337 380.429426 
L 428.039279 378.560548 
L 428.71022 376.226286 
L 429.381162 373.278647 
L 430.052104 369.514452 
L 430.723046 364.654403 
L 431.393988 358.318887 
L 432.06493 350.020562 
L 432.735872 339.294743 
L 433.406814 326.624669 
L 434.077756 317.203971 
L 434.748697 320.71445 
L 436.090581 344.506273 
L 436.761523 353.824896 
L 437.432465 360.940401 
L 438.103407 366.365141 
L 438.774349 370.532335 
L 439.445291 373.765767 
L 440.116232 376.301281 
L 440.787174 378.310257 
L 441.458116 379.917854 
L 442.8 382.273664 
L 444.141884 383.858827 
L 445.483768 384.953358 
L 446.825651 385.723693 
L 448.167535 386.272569 
L 450.180361 386.817923 
L 452.193186 387.143796 
L 454.876954 387.365617 
L 458.902605 387.431152 
L 464.27014 387.255736 
L 472.321443 386.734782 
L 485.740281 385.609179 
L 525.325852 381.960192 
L 558.202004 378.807965 
L 566.253307 377.843517 
L 570.9499 377.091687 
L 574.304609 376.319938 
L 576.317435 375.646227 
L 577.659319 375.029534 
L 579.001202 374.182788 
L 580.343086 372.942917 
L 581.014028 372.083948 
L 581.68497 370.981596 
L 582.355912 369.532999 
L 583.026854 367.580588 
L 583.697796 364.879405 
L 584.368737 361.04831 
L 585.039679 355.516056 
L 585.710621 347.562466 
L 587.052505 327.580532 
L 587.723447 328.942815 
L 589.065331 349.139569 
L 589.736273 356.366881 
L 590.407214 361.319768 
L 591.078156 364.707443 
L 591.749098 367.058605 
L 592.42004 368.721031 
L 593.090982 369.917684 
L 593.761924 370.792181 
L 594.432866 371.438512 
L 595.774749 372.277658 
L 597.116633 372.73624 
L 598.458517 372.963309 
L 600.471343 373.030961 
L 602.484168 372.876661 
L 605.167936 372.403578 
L 607.180762 371.849305 
L 609.193587 371.087162 
L 611.206413 370.0439 
L 612.548297 369.131031 
L 613.89018 367.97623 
L 615.232064 366.489768 
L 616.573948 364.536867 
L 617.915832 361.910734 
L 618.586774 360.250139 
L 619.257715 358.286372 
L 619.928657 355.947094 
L 620.599599 353.139137 
L 621.270541 349.741437 
L 621.941483 345.595121 
L 622.612425 340.489556 
L 623.283367 334.14373 
L 623.954309 326.18828 
L 624.625251 316.190067 
L 625.967134 291.35176 
L 626.638076 286.494407 
L 627.309018 294.97027 
L 628.650902 319.274186 
L 629.321844 328.457873 
L 629.992786 335.740316 
L 630.663727 341.544612 
L 631.334669 346.21045 
L 632.005611 349.993665 
L 632.676553 353.086075 
L 634.018437 357.74445 
L 635.360321 360.986178 
L 636.702204 363.294182 
L 638.044088 364.968872 
L 639.385972 366.202133 
L 640.727856 367.119443 
L 642.069739 367.804545 
L 644.082565 368.515949 
L 646.095391 368.950297 
L 648.108216 369.174571 
L 650.121042 369.219263 
L 652.133868 369.083945 
L 654.146693 368.731299 
L 655.488577 368.330892 
L 656.830461 367.73702 
L 658.172345 366.852688 
L 659.514228 365.50236 
L 660.18517 364.558015 
L 660.856112 363.351672 
L 661.527054 361.787136 
L 662.197996 359.72377 
L 662.868938 356.953227 
L 663.53988 353.16445 
L 664.210822 347.895704 
L 664.881764 340.491552 
L 665.552705 330.200357 
L 666.223647 317.251018 
L 666.894589 307.922589 
L 667.565531 313.493288 
L 668.907415 337.558642 
L 669.578357 345.670081 
L 670.249299 351.437567 
L 670.92024 355.565942 
L 671.591182 358.56702 
L 672.262124 360.787809 
L 672.933066 362.460745 
L 673.604008 363.742401 
L 674.27495 364.739595 
L 675.616834 366.154814 
L 676.958717 367.07616 
L 678.300601 367.697975 
L 680.313427 368.293653 
L 682.326253 368.648594 
L 685.01002 368.910493 
L 689.035671 369.060834 
L 695.074148 369.030207 
L 705.138277 368.713385 
L 724.595591 367.827468 
L 777.6 365.208414 
L 777.6 365.208414 
" style="fill:none;stroke:#ff0000;stroke-linecap:square;stroke-width:1.5;"/>
   </g>
   <g id="line2d_85">
    <path clip-path="url(#p52c1cfe142)" d="M 109.219704 505 
L 109.341884 501.543072 
L 110.012826 487.967337 
L 110.683768 477.3188 
L 112.025651 460.869236 
L 113.367535 447.932137 
L 115.380361 431.365162 
L 117.393186 414.957323 
L 118.73507 402.290029 
L 120.076954 387.008751 
L 121.418838 370.898857 
L 122.08978 365.770625 
L 122.760721 364.838432 
L 123.431663 367.436707 
L 124.773547 375.498132 
L 125.444489 378.825286 
L 126.115431 381.358689 
L 126.786373 383.170835 
L 127.457315 384.385371 
L 128.128257 385.124481 
L 128.799198 385.492612 
L 129.47014 385.57394 
L 130.141082 385.434502 
L 130.812024 385.125474 
L 132.153908 384.147545 
L 133.495792 382.859824 
L 136.179559 379.83151 
L 146.243687 367.944372 
L 152.953106 360.54527 
L 158.320641 355.868983 
L 163.688176 351.281275 
L 169.055711 347.017905 
L 174.423246 343.042149 
L 180.461723 338.844116 
L 189.183968 333.069077 
L 194.551503 329.789856 
L 202.602806 324.636149 
L 206.628457 321.819332 
L 209.312224 319.734103 
L 211.995992 317.360831 
L 214.008818 315.283929 
L 216.021643 312.815123 
L 217.363527 310.856109 
L 218.705411 308.547333 
L 220.047295 305.765195 
L 221.389178 302.334829 
L 222.731062 298.007466 
L 224.072946 292.430672 
L 225.41483 285.120408 
L 226.756713 275.495025 
L 228.098597 263.31274 
L 229.440481 251.070596 
L 230.111423 247.804585 
L 230.782365 248.296278 
L 231.453307 252.186342 
L 234.137074 274.594826 
L 235.478958 282.679451 
L 236.820842 288.542265 
L 238.162725 292.760625 
L 239.504609 295.795542 
L 240.846493 297.979835 
L 242.188377 299.548049 
L 243.530261 300.665081 
L 244.872144 301.447549 
L 246.214028 301.978731 
L 247.555912 302.318786 
L 249.568737 302.563523 
L 251.581563 302.578276 
L 254.265331 302.353935 
L 257.62004 301.816653 
L 261.645691 300.940848 
L 267.684168 299.36335 
L 275.735471 297.010131 
L 286.470541 293.641587 
L 295.863727 290.483327 
L 301.902204 288.250441 
L 305.927856 286.569943 
L 309.282565 284.932387 
L 311.295391 283.762374 
L 313.308216 282.348588 
L 314.6501 281.191563 
L 315.991984 279.765878 
L 317.333868 277.926155 
L 318.675752 275.420374 
L 319.346693 273.787923 
L 320.017635 271.795473 
L 320.688577 269.330691 
L 321.359519 266.263561 
L 322.701403 258.16312 
L 324.714228 243.126839 
L 325.38517 240.528218 
L 326.056112 241.817406 
L 326.727054 246.159804 
L 328.068938 256.442358 
L 328.73988 260.537703 
L 329.410822 263.753735 
L 330.081764 266.217554 
L 330.752705 268.080071 
L 331.423647 269.47415 
L 332.094589 270.5069 
L 332.765531 271.264504 
L 333.436473 271.814469 
L 334.107415 272.200607 
L 335.449299 272.588382 
L 336.791182 272.598455 
L 338.133066 272.338756 
L 339.47495 271.869858 
L 340.816834 271.223026 
L 342.829659 269.941856 
L 344.842485 268.268188 
L 346.184369 266.898425 
L 347.526253 265.28104 
L 348.868136 263.359149 
L 350.21002 261.053442 
L 351.551904 258.254045 
L 352.893788 254.808483 
L 354.235671 250.504078 
L 355.577555 245.042791 
L 356.919439 238.008596 
L 358.261323 228.845814 
L 359.603206 216.989015 
L 361.616032 196.954629 
L 362.286974 193.806658 
L 362.957916 195.043728 
L 363.628858 199.958561 
L 365.641683 219.583583 
L 366.983567 229.94142 
L 368.325451 237.649699 
L 369.667335 243.355181 
L 371.009218 247.622321 
L 372.351102 250.769739 
L 373.692986 253.08282 
L 375.03487 254.769665 
L 376.376754 255.978318 
L 377.718637 256.815333 
L 379.060521 257.357875 
L 380.402405 257.661834 
L 381.744289 257.767364 
L 383.086172 257.702645 
L 385.098998 257.324995 
L 387.111824 256.634468 
L 389.124649 255.623409 
L 390.466533 254.748011 
L 391.808417 253.678127 
L 393.150301 252.364594 
L 394.492184 250.727393 
L 395.834068 248.630705 
L 397.175952 245.824589 
L 397.846894 244.012449 
L 398.517836 241.790983 
L 399.188778 238.991386 
L 399.859719 235.403102 
L 401.872545 222.810142 
L 402.543487 221.897101 
L 403.214429 221.493851 
L 403.885371 219.345052 
L 404.556313 215.624401 
L 405.227255 210.969804 
L 407.24008 192.271498 
L 407.911022 189.707259 
L 408.581964 192.14798 
L 409.252906 198.115422 
L 410.59479 211.70645 
L 411.265731 217.397092 
L 411.936673 222.134345 
L 412.607615 226.010056 
L 413.278557 229.149937 
L 413.949499 231.674594 
L 414.620441 233.687814 
L 415.291383 235.2745 
L 415.962325 236.50173 
L 416.633267 237.420465 
L 417.304208 238.066834 
L 417.97515 238.46243 
L 418.646092 238.612958 
L 419.317034 238.504281 
L 419.987976 238.094243 
L 420.658918 237.298586 
L 421.32986 235.976017 
L 422.000802 233.964024 
L 423.342685 229.094134 
L 424.013627 227.4394 
L 425.355511 222.565543 
L 426.026453 222.12442 
L 426.697395 224.732946 
L 427.368337 228.299015 
L 428.039279 231.193872 
L 428.71022 233.132896 
L 429.381162 234.310237 
L 430.052104 234.948648 
L 430.723046 235.20356 
L 431.393988 235.165299 
L 432.06493 234.873389 
L 432.735872 234.327552 
L 433.406814 233.508515 
L 434.748697 231.504312 
L 435.419639 231.157933 
L 437.432465 231.798744 
L 438.103407 231.671518 
L 439.445291 230.983388 
L 440.787174 229.963527 
L 442.8 228.045972 
L 444.141884 226.429605 
L 445.483768 224.644081 
L 446.825651 223.514372 
L 448.167535 222.040013 
L 450.180361 219.435212 
L 452.864128 215.522095 
L 455.547896 211.108192 
L 457.560721 207.421125 
L 459.573547 203.354329 
L 461.586373 198.837587 
L 463.599198 193.775373 
L 465.612024 188.03292 
L 467.62485 181.408572 
L 468.966733 176.34769 
L 470.308617 170.59405 
L 471.650501 163.889221 
L 472.992385 155.856278 
L 475.00521 142.723964 
L 476.347094 134.332776 
L 478.35992 118.113153 
L 479.701804 106.27369 
L 480.372745 101.710511 
L 481.043687 100.088047 
L 481.714629 102.163323 
L 482.385571 107.109405 
L 485.740281 137.741496 
L 487.082164 147.221246 
L 488.424048 155.202565 
L 489.765932 162.022424 
L 491.107816 167.936148 
L 492.449699 173.129883 
L 494.462525 179.859066 
L 496.475351 185.59156 
L 498.488176 190.544338 
L 500.501002 194.867926 
L 502.513828 198.669585 
L 504.526653 202.0266 
L 506.539479 204.993538 
L 508.552305 207.605027 
L 510.56513 209.873598 
L 512.577956 211.778974 
L 513.91984 212.810481 
L 515.261723 213.590394 
L 516.603607 214.00945 
L 517.274549 214.021689 
L 517.945491 213.846228 
L 518.616433 213.416059 
L 519.287375 212.632393 
L 519.958317 211.35072 
L 520.629259 209.367816 
L 521.3002 206.431308 
L 521.971142 202.347308 
L 523.313026 193.067187 
L 523.983968 192.202787 
L 524.65491 195.623902 
L 525.996794 205.996008 
L 526.667735 210.066497 
L 527.338677 213.190106 
L 528.009619 215.575822 
L 528.680561 217.422409 
L 529.351503 218.880542 
L 530.693387 221.025808 
L 532.035271 222.532189 
L 533.377154 223.65605 
L 534.719038 224.528296 
L 536.731864 225.495003 
L 538.073747 225.910778 
L 538.744689 226.00809 
L 539.415631 225.971766 
L 540.086573 225.779291 
L 540.757515 225.740647 
L 542.770341 226.934376 
L 544.112224 227.182422 
L 545.454108 227.084754 
L 546.12505 226.88116 
L 547.466934 226.094607 
L 548.137876 225.648916 
L 548.808818 225.471687 
L 549.47976 225.732147 
L 551.492585 227.299382 
L 552.834469 227.876261 
L 554.176353 228.153625 
L 556.189178 228.281942 
L 558.872946 228.166665 
L 561.556713 227.837052 
L 564.911423 227.170921 
L 567.59519 226.435927 
L 570.278958 225.508403 
L 572.962725 224.367586 
L 575.646493 222.984658 
L 578.330261 221.321615 
L 581.014028 219.329172 
L 583.026854 217.580991 
L 585.039679 215.578411 
L 587.052505 213.280267 
L 589.065331 210.635788 
L 591.078156 207.581624 
L 593.090982 204.037531 
L 595.103808 199.899835 
L 597.116633 195.03113 
L 598.458517 191.289168 
L 599.800401 187.066596 
L 601.142285 182.268319 
L 602.484168 176.768848 
L 603.826052 170.398715 
L 605.167936 162.924612 
L 606.50982 154.024929 
L 607.851703 143.287133 
L 609.193587 130.402308 
L 610.535471 116.516126 
L 611.206413 111.107931 
L 611.877355 108.851411 
L 612.548297 110.722136 
L 613.219238 115.852127 
L 615.903006 142.160111 
L 617.24489 152.723043 
L 618.586774 161.435798 
L 619.928657 168.713303 
L 621.270541 174.880894 
L 622.612425 180.174809 
L 623.954309 184.766622 
L 625.296192 188.783328 
L 627.309018 193.934375 
L 629.321844 198.242452 
L 631.334669 201.878023 
L 633.347495 204.967016 
L 635.360321 207.605324 
L 637.373146 209.867754 
L 639.385972 211.813782 
L 641.398798 213.491413 
L 643.411623 214.939861 
L 646.095391 216.569708 
L 648.779158 217.911046 
L 651.462926 219.012888 
L 654.817635 220.112099 
L 658.172345 220.95713 
L 661.527054 221.593102 
L 665.552705 222.125324 
L 668.907415 222.380454 
L 670.92024 222.323106 
L 671.591182 222.269026 
L 674.27495 222.573533 
L 677.629659 222.545726 
L 680.313427 222.284609 
L 681.655311 221.959607 
L 682.997194 221.375792 
L 683.668136 221.051826 
L 684.339078 220.891376 
L 685.01002 220.994188 
L 687.022846 221.674826 
L 688.364729 221.845545 
L 690.377555 221.84532 
L 693.732265 221.574637 
L 697.757916 221.022746 
L 701.112625 220.379287 
L 703.796393 219.690806 
L 705.809218 219.007711 
L 707.822044 218.061631 
L 709.163928 217.165825 
L 711.847695 214.866601 
L 713.189579 213.299316 
L 713.860521 212.249059 
L 716.544289 207.284429 
L 717.21523 205.542045 
L 717.886172 203.088512 
L 718.557114 199.811917 
L 719.228056 195.597485 
L 720.56994 184.50024 
L 721.240882 178.98857 
L 721.911824 176.055852 
L 722.582766 177.448794 
L 723.253707 182.202148 
L 724.595591 193.232471 
L 725.266533 197.526785 
L 725.937475 200.855297 
L 726.608417 203.417752 
L 727.279359 205.442929 
L 727.950301 207.061562 
L 728.621242 208.328773 
L 729.292184 209.298425 
L 729.963126 210.029161 
L 730.634068 210.572034 
L 731.975952 211.243755 
L 733.317836 211.527703 
L 734.659719 211.544795 
L 736.001603 211.364466 
L 738.014429 210.80624 
L 740.027255 209.955655 
L 742.04008 208.826186 
L 744.052906 207.394119 
L 746.065731 205.598607 
L 747.407615 204.147129 
L 748.749499 202.43246 
L 750.091383 200.372618 
L 751.433267 197.834604 
L 752.77515 194.587377 
L 753.446092 192.575896 
L 754.117034 190.201662 
L 754.787976 187.349995 
L 755.458918 183.875427 
L 756.12986 179.637116 
L 757.471743 169.556329 
L 758.142685 166.085395 
L 758.813627 166.003744 
L 760.155511 170.950378 
L 760.826453 172.273648 
L 761.497395 172.249534 
L 762.168337 171.103502 
L 762.839279 169.06986 
L 763.51022 166.306113 
L 764.181162 162.896569 
L 765.523046 154.226163 
L 766.86493 142.980858 
L 769.548697 117.384214 
L 770.219639 115.51959 
L 770.890581 117.892163 
L 771.561523 123.391267 
L 773.574349 143.586491 
L 774.916232 154.734854 
L 776.258116 163.6682 
L 777.6 170.854034 
L 777.6 170.854034 
" style="fill:none;stroke:#0000ff;stroke-linecap:square;stroke-width:1.5;"/>
   </g>
   <g id="line2d_86">
    <path clip-path="url(#p52c1cfe142)" d="M 108 447.278787 
L 108.670942 441.741418 
L 110.012826 437.91001 
L 111.354709 433.951758 
L 112.696593 429.232047 
L 114.038477 423.83252 
L 115.380361 417.727305 
L 116.722244 410.643569 
L 118.064128 401.94856 
L 119.406012 390.607269 
L 121.418838 369.007422 
L 122.08978 364.16464 
L 122.760721 363.212138 
L 123.431663 365.52628 
L 124.773547 372.527666 
L 125.444489 375.227054 
L 126.115431 377.136033 
L 126.786373 378.35192 
L 127.457315 379.00728 
L 128.128257 379.223099 
L 128.799198 379.097023 
L 129.47014 378.703774 
L 130.141082 378.098917 
L 131.482966 376.404565 
L 132.82485 374.212111 
L 134.166733 371.598481 
L 135.508617 368.552109 
L 136.850501 364.975204 
L 138.192385 360.652092 
L 139.534269 355.147036 
L 140.20521 351.67682 
L 140.876152 347.367274 
L 141.547094 341.436365 
L 142.218036 332.760592 
L 142.888978 320.595072 
L 144.230862 291.822039 
L 144.901804 280.04134 
L 145.572745 271.959446 
L 146.243687 267.299154 
L 146.914629 265.058308 
L 147.585571 263.441467 
L 148.256513 262.816374 
L 148.927455 264.356651 
L 149.598397 270.177274 
L 150.269339 280.586064 
L 152.282164 320.88596 
L 152.953106 330.492522 
L 153.624048 336.646388 
L 154.29499 340.474765 
L 154.965932 343.020597 
L 155.636874 344.839421 
L 156.307816 346.158091 
L 156.978758 347.109388 
L 157.649699 347.782318 
L 158.320641 348.240046 
L 158.991583 348.528916 
L 160.333467 348.731051 
L 161.675351 348.581205 
L 163.017234 348.196962 
L 165.03006 347.337096 
L 167.713828 345.876046 
L 171.068537 343.779717 
L 175.094188 341.02633 
L 177.777956 339.008254 
L 179.790782 337.26891 
L 181.132665 335.856656 
L 182.474549 333.977651 
L 183.145491 332.687839 
L 183.816433 330.961056 
L 184.487375 328.489727 
L 185.158317 324.739852 
L 185.829259 319.030467 
L 186.5002 312.040841 
L 187.171142 309.72553 
L 189.183968 325.075767 
L 189.85491 327.222435 
L 190.525852 328.366163 
L 191.196794 328.939525 
L 191.867735 329.179173 
L 192.538677 329.215312 
L 193.880561 328.943183 
L 195.893387 328.117468 
L 198.577154 326.696399 
L 202.602806 324.262852 
L 206.628457 321.538867 
L 209.312224 319.494659 
L 211.995992 317.15444 
L 214.008818 315.099658 
L 216.021643 312.652169 
L 217.363527 310.707487 
L 218.705411 308.413496 
L 220.047295 305.646859 
L 221.389178 302.232893 
L 222.731062 297.922846 
L 224.072946 292.364008 
L 225.41483 285.071604 
L 226.756713 275.46265 
L 228.098597 263.293483 
L 229.440481 251.059162 
L 230.111423 247.79462 
L 230.782365 248.286067 
L 231.453307 252.174228 
L 234.137074 274.562559 
L 235.478958 282.633372 
L 236.820842 288.482431 
L 238.162725 292.688205 
L 239.504609 295.712205 
L 240.846493 297.887344 
L 242.188377 299.448049 
L 243.530261 300.559007 
L 244.872144 301.336607 
L 246.214028 301.863916 
L 247.555912 302.20091 
L 249.568737 302.442245 
L 251.581563 302.454681 
L 254.265331 302.228443 
L 257.62004 301.690078 
L 261.645691 300.81415 
L 267.684168 299.237813 
L 275.735471 296.887412 
L 286.470541 293.523813 
L 295.863727 290.370921 
L 301.902204 288.142393 
L 305.927856 286.465604 
L 309.282565 284.832083 
L 311.295391 283.665205 
L 313.308216 282.255437 
L 314.6501 281.101829 
L 315.991984 279.680427 
L 317.333868 277.846215 
L 318.675752 275.3477 
L 319.346693 273.71975 
L 320.017635 271.732505 
L 320.688577 269.273699 
L 321.359519 266.213297 
L 322.701403 258.127193 
L 324.714228 243.107663 
L 325.38517 240.510961 
L 326.056112 241.799046 
L 326.727054 246.137528 
L 328.068938 256.407229 
L 328.73988 260.495529 
L 329.410822 263.70498 
L 330.081764 266.162981 
L 330.752705 268.020542 
L 331.423647 269.410504 
L 332.094589 270.439896 
L 332.765531 271.194785 
L 333.436473 271.742562 
L 334.107415 272.126952 
L 335.449299 272.512332 
L 336.791182 272.521133 
L 338.133066 272.260959 
L 339.47495 271.792166 
L 340.816834 271.145871 
L 342.829659 269.866065 
L 344.842485 268.194084 
L 346.184369 266.825327 
L 347.526253 265.208417 
L 348.868136 263.285611 
L 350.21002 260.975439 
L 351.551904 258.161491 
L 352.893788 254.666199 
L 354.235671 250.223377 
L 355.577555 244.894447 
L 356.919439 237.957229 
L 358.261323 228.822157 
L 359.603206 216.977183 
L 361.616032 196.95019 
L 362.286974 193.802854 
L 362.957916 195.039769 
L 363.628858 199.95371 
L 365.641683 219.572371 
L 366.983567 229.923805 
L 368.325451 237.624857 
L 369.667335 243.322875 
L 371.009218 247.582641 
L 372.351102 250.723066 
L 373.692986 253.029568 
L 375.03487 254.710146 
L 376.376754 255.912646 
L 377.718637 256.743331 
L 379.060521 257.278951 
L 380.402405 257.574798 
L 381.744289 257.670092 
L 383.086172 257.591445 
L 384.428056 257.35467 
L 385.76994 256.964648 
L 387.111824 256.41145 
L 388.453707 255.654982 
L 389.795591 254.56008 
L 390.466533 253.75357 
L 391.137475 252.588401 
L 391.808417 250.985822 
L 392.479359 249.990046 
L 393.150301 250.305737 
L 393.821242 250.428248 
L 394.492184 250.036189 
L 395.163126 249.303903 
L 395.834068 248.324758 
L 396.50501 247.117712 
L 397.175952 245.657894 
L 397.846894 243.884081 
L 398.517836 241.690943 
L 399.188778 238.913491 
L 399.859719 235.34331 
L 401.872545 222.782873 
L 402.543487 221.872397 
L 403.214429 221.470788 
L 403.885371 219.324941 
L 404.556313 215.607914 
L 405.227255 210.956754 
L 407.24008 192.266091 
L 407.911022 189.702508 
L 408.581964 192.142789 
L 409.252906 198.108804 
L 410.59479 211.694832 
L 411.265731 217.382374 
L 411.936673 222.116423 
L 412.607615 225.988996 
L 413.278557 229.125928 
L 413.949499 231.647905 
L 414.620441 233.658757 
L 415.291383 235.243401 
L 415.962325 236.468918 
L 416.633267 237.386259 
L 417.304208 238.031549 
L 417.97515 238.426374 
L 418.646092 238.576451 
L 419.317034 238.467672 
L 419.987976 238.057947 
L 420.658918 237.263126 
L 421.32986 235.942079 
L 422.000802 233.932417 
L 423.342685 229.067461 
L 424.013627 227.413918 
L 425.355511 222.543455 
L 426.026453 222.101777 
L 426.697395 224.706231 
L 427.368337 228.265778 
L 428.039279 231.153077 
L 428.71022 233.083871 
L 429.381162 234.251698 
L 430.052104 234.877911 
L 430.723046 235.115434 
L 431.393988 235.0498 
L 432.06493 234.710528 
L 432.735872 234.07561 
L 433.406814 233.090393 
L 434.077756 231.865337 
L 434.748697 231.010438 
L 435.419639 230.866987 
L 436.761523 231.585686 
L 437.432465 231.709439 
L 438.103407 231.60117 
L 439.445291 230.933702 
L 440.787174 229.924416 
L 442.8 228.015602 
L 444.141884 226.403144 
L 445.483768 224.620704 
L 446.825651 223.49283 
L 448.167535 222.020266 
L 450.180361 219.417969 
L 452.864128 215.507773 
L 455.547896 211.096438 
L 457.560721 207.411112 
L 459.573547 203.34592 
L 461.586373 198.830647 
L 463.599198 193.769773 
L 465.612024 188.028526 
L 467.62485 181.405251 
L 468.966733 176.345009 
L 470.308617 170.591949 
L 471.650501 163.88764 
L 472.992385 155.855154 
L 475.00521 142.723321 
L 476.347094 134.332326 
L 478.35992 118.112927 
L 479.701804 106.273554 
L 480.372745 101.710399 
L 481.043687 100.087942 
L 481.714629 102.163208 
L 482.385571 107.109262 
L 485.740281 137.740956 
L 487.082164 147.220431 
L 488.424048 155.201409 
L 489.765932 162.020865 
L 491.107816 167.934126 
L 492.449699 173.127342 
L 494.462525 179.855644 
L 496.475351 185.587145 
L 498.488176 190.538831 
L 500.501002 194.861239 
L 502.513828 198.661646 
L 504.526653 202.017353 
L 506.539479 204.982946 
L 508.552305 207.59308 
L 510.56513 209.860319 
L 512.577956 211.764444 
L 513.91984 212.795211 
L 515.261723 213.574517 
L 516.603607 213.993197 
L 517.274549 214.005385 
L 517.945491 213.830002 
L 518.616433 213.400089 
L 519.287375 212.616911 
L 519.958317 211.33603 
L 520.629259 209.354291 
L 521.3002 206.419357 
L 521.971142 202.337257 
L 523.313026 193.060409 
L 523.983968 192.196239 
L 524.65491 195.616295 
L 525.996794 205.984057 
L 526.667735 210.05222 
L 527.338677 213.173732 
L 528.009619 215.557628 
L 528.680561 217.402658 
L 529.351503 218.859456 
L 530.693387 221.002559 
L 532.035271 222.50725 
L 533.377154 223.629735 
L 534.719038 224.500828 
L 536.731864 225.466137 
L 538.073747 225.881232 
L 538.744689 225.978341 
L 539.415631 225.941983 
L 540.086573 225.749673 
L 540.757515 225.710999 
L 542.770341 226.902909 
L 544.112224 227.150444 
L 545.454108 227.052735 
L 546.12505 226.849332 
L 547.466934 226.063667 
L 548.137876 225.618479 
L 548.808818 225.441397 
L 549.47976 225.70143 
L 551.492585 227.266242 
L 552.834469 227.842092 
L 554.176353 228.118844 
L 556.189178 228.246655 
L 558.872946 228.131118 
L 561.556713 227.801548 
L 564.911423 227.135805 
L 567.59519 226.401356 
L 570.278958 225.474556 
L 572.962725 224.334589 
L 575.646493 222.952521 
L 578.330261 221.290038 
L 581.014028 219.296816 
L 583.026854 217.544564 
L 585.039679 215.52226 
L 587.052505 213.111381 
L 589.065331 210.576068 
L 591.078156 207.554815 
L 593.090982 204.019136 
L 595.103808 199.885711 
L 597.116633 195.020071 
L 598.458517 191.279845 
L 599.800401 187.058848 
L 601.142285 182.262007 
L 602.484168 176.76384 
L 603.826052 170.394875 
L 605.167936 162.921796 
L 606.50982 154.02298 
L 607.851703 143.285882 
L 609.193587 130.401573 
L 610.535471 116.51571 
L 611.206413 111.107596 
L 611.877355 108.851101 
L 612.548297 110.721793 
L 613.219238 115.85169 
L 615.903006 142.158565 
L 617.24489 152.720359 
L 618.586774 161.43134 
L 619.928657 168.705965 
L 621.270541 174.868396 
L 622.612425 180.151437 
L 623.954309 184.713943 
L 625.296192 188.620707 
L 628.650902 196.7691 
L 630.663727 200.678311 
L 632.676553 203.953787 
L 634.689379 206.738604 
L 636.702204 209.120956 
L 638.71503 211.166995 
L 640.727856 212.928989 
L 642.740681 214.449186 
L 645.424449 216.158951 
L 648.108216 217.565847 
L 650.791984 218.721851 
L 653.475752 219.668141 
L 656.830461 220.605163 
L 660.18517 221.312618 
L 663.53988 221.807037 
L 665.552705 221.904781 
L 666.894589 221.676896 
L 669.578357 222.281961 
L 670.92024 222.248231 
L 671.591182 222.203366 
L 674.27495 222.522513 
L 676.958717 222.525571 
L 679.642485 222.339443 
L 680.984369 222.1058 
L 682.326253 221.659913 
L 683.668136 221.011699 
L 684.339078 220.851626 
L 685.01002 220.954346 
L 687.022846 221.633979 
L 688.364729 221.804463 
L 690.377555 221.80428 
L 693.732265 221.534038 
L 697.757916 220.982951 
L 701.112625 220.340405 
L 703.796393 219.6529 
L 705.809218 218.970778 
L 707.822044 218.026044 
L 709.163928 217.131499 
L 711.847695 214.83535 
L 713.189579 213.270026 
L 713.860521 212.221026 
L 716.544289 207.261667 
L 717.21523 205.520898 
L 717.886172 203.069458 
L 718.557114 199.795346 
L 719.228056 195.583644 
L 720.56994 184.49163 
L 721.240882 178.981769 
L 721.911824 176.04985 
L 722.582766 177.442412 
L 723.253707 182.194306 
L 724.595591 193.219829 
L 725.266533 197.511555 
L 725.937475 200.837696 
L 726.608417 203.398072 
L 727.279359 205.421427 
L 727.950301 207.038476 
L 728.621242 208.304359 
L 729.292184 209.272935 
L 729.963126 210.002819 
L 730.634068 210.54503 
L 731.975952 211.21588 
L 733.317836 211.499404 
L 734.659719 211.516395 
L 736.001603 211.336204 
L 738.014429 210.778529 
L 740.027255 209.928825 
L 742.04008 208.800517 
L 744.052906 207.36988 
L 746.065731 205.576073 
L 747.407615 204.125897 
L 748.749499 202.412682 
L 750.091383 200.354465 
L 751.433267 197.818283 
L 752.77515 194.573143 
L 753.446092 192.562824 
L 754.117034 190.189842 
L 754.787976 187.339526 
L 755.458918 183.866399 
L 756.12986 179.629582 
L 757.471743 169.551434 
L 758.142685 166.081172 
L 758.813627 165.999531 
L 760.155511 170.94515 
L 760.826453 172.268105 
L 761.497395 172.243989 
L 762.168337 171.098217 
L 762.839279 169.065011 
L 763.51022 166.301801 
L 764.181162 162.892841 
L 765.523046 154.223589 
L 766.86493 142.979267 
L 769.548697 117.383683 
L 770.219639 115.519099 
L 770.890581 117.891618 
L 771.561523 123.390576 
L 773.574349 143.584835 
L 774.916232 154.73217 
L 776.258116 163.664247 
L 777.6 170.848633 
L 777.6 170.848633 
" style="fill:none;stroke:#000000;stroke-linecap:square;stroke-width:1.5;"/>
   </g>
   <g id="patch_3">
    <path d="M 108 448.56 
L 108 60.48 
" style="fill:none;stroke:#000000;stroke-linecap:square;stroke-linejoin:miter;stroke-width:0.8;"/>
   </g>
   <g id="patch_4">
    <path d="M 777.6 448.56 
L 777.6 60.48 
" style="fill:none;stroke:#000000;stroke-linecap:square;stroke-linejoin:miter;stroke-width:0.8;"/>
   </g>
   <g id="patch_5">
    <path d="M 108 448.56 
L 777.6 448.56 
" style="fill:none;stroke:#000000;stroke-linecap:square;stroke-linejoin:miter;stroke-width:0.8;"/>
   </g>
   <g id="patch_6">
    <path d="M 108 60.48 
L 777.6 60.48 
" style="fill:none;stroke:#000000;stroke-linecap:square;stroke-linejoin:miter;stroke-width:0.8;"/>
   </g>
   <g id="text_14">
    <!-- Specific attenuation for standard conditions, according to ITU-R P.676 (10), annex 1 -->
    <defs>
     <path d="M 44.28125 53.078125 
L 44.28125 44.578125 
Q 40.484375 46.53125 36.375 47.5 
Q 32.28125 48.484375 27.875 48.484375 
Q 21.1875 48.484375 17.84375 46.4375 
Q 14.5 44.390625 14.5 40.28125 
Q 14.5 37.15625 16.890625 35.375 
Q 19.28125 33.59375 26.515625 31.984375 
L 29.59375 31.296875 
Q 39.15625 29.25 43.1875 25.515625 
Q 47.21875 21.78125 47.21875 15.09375 
Q 47.21875 7.46875 41.1875 3.015625 
Q 35.15625 -1.421875 24.609375 -1.421875 
Q 20.21875 -1.421875 15.453125 -0.5625 
Q 10.6875 0.296875 5.421875 2 
L 5.421875 11.28125 
Q 10.40625 8.6875 15.234375 7.390625 
Q 20.0625 6.109375 24.8125 6.109375 
Q 31.15625 6.109375 34.5625 8.28125 
Q 37.984375 10.453125 37.984375 14.40625 
Q 37.984375 18.0625 35.515625 20.015625 
Q 33.0625 21.96875 24.703125 23.78125 
L 21.578125 24.515625 
Q 13.234375 26.265625 9.515625 29.90625 
Q 5.8125 33.546875 5.8125 39.890625 
Q 5.8125 47.609375 11.28125 51.796875 
Q 16.75 56 26.8125 56 
Q 31.78125 56 36.171875 55.265625 
Q 40.578125 54.546875 44.28125 53.078125 
z
" id="DejaVuSans-115"/>
     <path d="M 11.71875 12.40625 
L 22.015625 12.40625 
L 22.015625 4 
L 14.015625 -11.625 
L 7.71875 -11.625 
L 11.71875 4 
z
" id="DejaVuSans-44"/>
     <path d="M 45.40625 27.984375 
Q 45.40625 37.75 41.375 43.109375 
Q 37.359375 48.484375 30.078125 48.484375 
Q 22.859375 48.484375 18.828125 43.109375 
Q 14.796875 37.75 14.796875 27.984375 
Q 14.796875 18.265625 18.828125 12.890625 
Q 22.859375 7.515625 30.078125 7.515625 
Q 37.359375 7.515625 41.375 12.890625 
Q 45.40625 18.265625 45.40625 27.984375 
z
M 54.390625 6.78125 
Q 54.390625 -7.171875 48.1875 -13.984375 
Q 42 -20.796875 29.203125 -20.796875 
Q 24.46875 -20.796875 20.265625 -20.09375 
Q 16.0625 -19.390625 12.109375 -17.921875 
L 12.109375 -9.1875 
Q 16.0625 -11.328125 19.921875 -12.34375 
Q 23.78125 -13.375 27.78125 -13.375 
Q 36.625 -13.375 41.015625 -8.765625 
Q 45.40625 -4.15625 45.40625 5.171875 
L 45.40625 9.625 
Q 42.625 4.78125 38.28125 2.390625 
Q 33.9375 0 27.875 0 
Q 17.828125 0 11.671875 7.65625 
Q 5.515625 15.328125 5.515625 27.984375 
Q 5.515625 40.671875 11.671875 48.328125 
Q 17.828125 56 27.875 56 
Q 33.9375 56 38.28125 53.609375 
Q 42.625 51.21875 45.40625 46.390625 
L 45.40625 54.6875 
L 54.390625 54.6875 
z
" id="DejaVuSans-103"/>
     <path d="M 9.8125 72.90625 
L 19.671875 72.90625 
L 19.671875 0 
L 9.8125 0 
z
" id="DejaVuSans-73"/>
     <path d="M -0.296875 72.90625 
L 61.375 72.90625 
L 61.375 64.59375 
L 35.5 64.59375 
L 35.5 0 
L 25.59375 0 
L 25.59375 64.59375 
L -0.296875 64.59375 
z
" id="DejaVuSans-84"/>
     <path d="M 8.6875 72.90625 
L 18.609375 72.90625 
L 18.609375 28.609375 
Q 18.609375 16.890625 22.84375 11.734375 
Q 27.09375 6.59375 36.625 6.59375 
Q 46.09375 6.59375 50.34375 11.734375 
Q 54.59375 16.890625 54.59375 28.609375 
L 54.59375 72.90625 
L 64.5 72.90625 
L 64.5 27.390625 
Q 64.5 13.140625 57.4375 5.859375 
Q 50.390625 -1.421875 36.625 -1.421875 
Q 22.796875 -1.421875 15.734375 5.859375 
Q 8.6875 13.140625 8.6875 27.390625 
z
" id="DejaVuSans-85"/>
     <path d="M 4.890625 31.390625 
L 31.203125 31.390625 
L 31.203125 23.390625 
L 4.890625 23.390625 
z
" id="DejaVuSans-45"/>
     <path d="M 44.390625 34.1875 
Q 47.5625 33.109375 50.5625 29.59375 
Q 53.5625 26.078125 56.59375 19.921875 
L 66.609375 0 
L 56 0 
L 46.6875 18.703125 
Q 43.0625 26.03125 39.671875 28.421875 
Q 36.28125 30.8125 30.421875 30.8125 
L 19.671875 30.8125 
L 19.671875 0 
L 9.8125 0 
L 9.8125 72.90625 
L 32.078125 72.90625 
Q 44.578125 72.90625 50.734375 67.671875 
Q 56.890625 62.453125 56.890625 51.90625 
Q 56.890625 45.015625 53.6875 40.46875 
Q 50.484375 35.9375 44.390625 34.1875 
z
M 19.671875 64.796875 
L 19.671875 38.921875 
L 32.078125 38.921875 
Q 39.203125 38.921875 42.84375 42.21875 
Q 46.484375 45.515625 46.484375 51.90625 
Q 46.484375 58.296875 42.84375 61.546875 
Q 39.203125 64.796875 32.078125 64.796875 
z
" id="DejaVuSans-82"/>
     <path d="M 19.671875 64.796875 
L 19.671875 37.40625 
L 32.078125 37.40625 
Q 38.96875 37.40625 42.71875 40.96875 
Q 46.484375 44.53125 46.484375 51.125 
Q 46.484375 57.671875 42.71875 61.234375 
Q 38.96875 64.796875 32.078125 64.796875 
z
M 9.8125 72.90625 
L 32.078125 72.90625 
Q 44.34375 72.90625 50.609375 67.359375 
Q 56.890625 61.8125 56.890625 51.125 
Q 56.890625 40.328125 50.609375 34.8125 
Q 44.34375 29.296875 32.078125 29.296875 
L 19.671875 29.296875 
L 19.671875 0 
L 9.8125 0 
z
" id="DejaVuSans-80"/>
     <path d="M 10.6875 12.40625 
L 21 12.40625 
L 21 0 
L 10.6875 0 
z
" id="DejaVuSans-46"/>
     <path d="M 8.203125 72.90625 
L 55.078125 72.90625 
L 55.078125 68.703125 
L 28.609375 0 
L 18.3125 0 
L 43.21875 64.59375 
L 8.203125 64.59375 
z
" id="DejaVuSans-55"/>
     <path d="M 31 75.875 
Q 24.46875 64.65625 21.28125 53.65625 
Q 18.109375 42.671875 18.109375 31.390625 
Q 18.109375 20.125 21.3125 9.0625 
Q 24.515625 -2 31 -13.1875 
L 23.1875 -13.1875 
Q 15.875 -1.703125 12.234375 9.375 
Q 8.59375 20.453125 8.59375 31.390625 
Q 8.59375 42.28125 12.203125 53.3125 
Q 15.828125 64.359375 23.1875 75.875 
z
" id="DejaVuSans-40"/>
     <path d="M 8.015625 75.875 
L 15.828125 75.875 
Q 23.140625 64.359375 26.78125 53.3125 
Q 30.421875 42.28125 30.421875 31.390625 
Q 30.421875 20.453125 26.78125 9.375 
Q 23.140625 -1.703125 15.828125 -13.1875 
L 8.015625 -13.1875 
Q 14.5 -2 17.703125 9.0625 
Q 20.90625 20.125 20.90625 31.390625 
Q 20.90625 42.671875 17.703125 53.65625 
Q 14.5 64.65625 8.015625 75.875 
z
" id="DejaVuSans-41"/>
     <path d="M 54.890625 54.6875 
L 35.109375 28.078125 
L 55.90625 0 
L 45.3125 0 
L 29.390625 21.484375 
L 13.484375 0 
L 2.875 0 
L 24.125 28.609375 
L 4.6875 54.6875 
L 15.28125 54.6875 
L 29.78125 35.203125 
L 44.28125 54.6875 
z
" id="DejaVuSans-120"/>
    </defs>
    <g transform="translate(106.62625 54.48)scale(0.16 -0.16)">
     <use xlink:href="#DejaVuSans-83"/>
     <use x="63.476562" xlink:href="#DejaVuSans-112"/>
     <use x="126.953125" xlink:href="#DejaVuSans-101"/>
     <use x="188.476562" xlink:href="#DejaVuSans-99"/>
     <use x="243.457031" xlink:href="#DejaVuSans-105"/>
     <use x="271.240234" xlink:href="#DejaVuSans-102"/>
     <use x="306.445312" xlink:href="#DejaVuSans-105"/>
     <use x="334.228516" xlink:href="#DejaVuSans-99"/>
     <use x="389.208984" xlink:href="#DejaVuSans-32"/>
     <use x="420.996094" xlink:href="#DejaVuSans-97"/>
     <use x="482.275391" xlink:href="#DejaVuSans-116"/>
     <use x="521.484375" xlink:href="#DejaVuSans-116"/>
     <use x="560.693359" xlink:href="#DejaVuSans-101"/>
     <use x="622.216797" xlink:href="#DejaVuSans-110"/>
     <use x="685.595703" xlink:href="#DejaVuSans-117"/>
     <use x="748.974609" xlink:href="#DejaVuSans-97"/>
     <use x="810.253906" xlink:href="#DejaVuSans-116"/>
     <use x="849.462891" xlink:href="#DejaVuSans-105"/>
     <use x="877.246094" xlink:href="#DejaVuSans-111"/>
     <use x="938.427734" xlink:href="#DejaVuSans-110"/>
     <use x="1001.806641" xlink:href="#DejaVuSans-32"/>
     <use x="1033.59375" xlink:href="#DejaVuSans-102"/>
     <use x="1068.798828" xlink:href="#DejaVuSans-111"/>
     <use x="1129.980469" xlink:href="#DejaVuSans-114"/>
     <use x="1171.09375" xlink:href="#DejaVuSans-32"/>
     <use x="1202.880859" xlink:href="#DejaVuSans-115"/>
     <use x="1254.980469" xlink:href="#DejaVuSans-116"/>
     <use x="1294.189453" xlink:href="#DejaVuSans-97"/>
     <use x="1355.46875" xlink:href="#DejaVuSans-110"/>
     <use x="1418.847656" xlink:href="#DejaVuSans-100"/>
     <use x="1482.324219" xlink:href="#DejaVuSans-97"/>
     <use x="1543.603516" xlink:href="#DejaVuSans-114"/>
     <use x="1584.701172" xlink:href="#DejaVuSans-100"/>
     <use x="1648.177734" xlink:href="#DejaVuSans-32"/>
     <use x="1679.964844" xlink:href="#DejaVuSans-99"/>
     <use x="1734.945312" xlink:href="#DejaVuSans-111"/>
     <use x="1796.126953" xlink:href="#DejaVuSans-110"/>
     <use x="1859.505859" xlink:href="#DejaVuSans-100"/>
     <use x="1922.982422" xlink:href="#DejaVuSans-105"/>
     <use x="1950.765625" xlink:href="#DejaVuSans-116"/>
     <use x="1989.974609" xlink:href="#DejaVuSans-105"/>
     <use x="2017.757812" xlink:href="#DejaVuSans-111"/>
     <use x="2078.939453" xlink:href="#DejaVuSans-110"/>
     <use x="2142.318359" xlink:href="#DejaVuSans-115"/>
     <use x="2194.417969" xlink:href="#DejaVuSans-44"/>
     <use x="2226.205078" xlink:href="#DejaVuSans-32"/>
     <use x="2257.992188" xlink:href="#DejaVuSans-97"/>
     <use x="2319.271484" xlink:href="#DejaVuSans-99"/>
     <use x="2374.251953" xlink:href="#DejaVuSans-99"/>
     <use x="2429.232422" xlink:href="#DejaVuSans-111"/>
     <use x="2490.414062" xlink:href="#DejaVuSans-114"/>
     <use x="2531.511719" xlink:href="#DejaVuSans-100"/>
     <use x="2594.988281" xlink:href="#DejaVuSans-105"/>
     <use x="2622.771484" xlink:href="#DejaVuSans-110"/>
     <use x="2686.150391" xlink:href="#DejaVuSans-103"/>
     <use x="2749.626953" xlink:href="#DejaVuSans-32"/>
     <use x="2781.414062" xlink:href="#DejaVuSans-116"/>
     <use x="2820.623047" xlink:href="#DejaVuSans-111"/>
     <use x="2881.804688" xlink:href="#DejaVuSans-32"/>
     <use x="2913.591797" xlink:href="#DejaVuSans-73"/>
     <use x="2943.083984" xlink:href="#DejaVuSans-84"/>
     <use x="3004.167969" xlink:href="#DejaVuSans-85"/>
     <use x="3077.361328" xlink:href="#DejaVuSans-45"/>
     <use x="3113.445312" xlink:href="#DejaVuSans-82"/>
     <use x="3182.927734" xlink:href="#DejaVuSans-32"/>
     <use x="3214.714844" xlink:href="#DejaVuSans-80"/>
     <use x="3274.783203" xlink:href="#DejaVuSans-46"/>
     <use x="3306.570312" xlink:href="#DejaVuSans-54"/>
     <use x="3370.193359" xlink:href="#DejaVuSans-55"/>
     <use x="3433.816406" xlink:href="#DejaVuSans-54"/>
     <use x="3497.439453" xlink:href="#DejaVuSans-32"/>
     <use x="3529.226562" xlink:href="#DejaVuSans-40"/>
     <use x="3568.240234" xlink:href="#DejaVuSans-49"/>
     <use x="3631.863281" xlink:href="#DejaVuSans-48"/>
     <use x="3695.486328" xlink:href="#DejaVuSans-41"/>
     <use x="3734.5" xlink:href="#DejaVuSans-44"/>
     <use x="3766.287109" xlink:href="#DejaVuSans-32"/>
     <use x="3798.074219" xlink:href="#DejaVuSans-97"/>
     <use x="3859.353516" xlink:href="#DejaVuSans-110"/>
     <use x="3922.732422" xlink:href="#DejaVuSans-110"/>
     <use x="3986.111328" xlink:href="#DejaVuSans-101"/>
     <use x="4047.619141" xlink:href="#DejaVuSans-120"/>
     <use x="4106.798828" xlink:href="#DejaVuSans-32"/>
     <use x="4138.585938" xlink:href="#DejaVuSans-49"/>
    </g>
   </g>
   <g id="legend_1">
    <g id="patch_7">
     <path d="M 115 112.514375 
L 183.148438 112.514375 
Q 185.148438 112.514375 185.148438 110.514375 
L 185.148438 67.48 
Q 185.148438 65.48 183.148438 65.48 
L 115 65.48 
Q 113 65.48 113 67.48 
L 113 110.514375 
Q 113 112.514375 115 112.514375 
z
" style="fill:#ffffff;opacity:0.8;stroke:#cccccc;stroke-linejoin:miter;"/>
    </g>
    <g id="line2d_87">
     <path d="M 117 73.578438 
L 137 73.578438 
" style="fill:none;stroke:#ff0000;stroke-linecap:square;stroke-width:1.5;"/>
    </g>
    <g id="line2d_88"/>
    <g id="text_15">
     <!-- Dry air -->
     <defs>
      <path d="M 19.671875 64.796875 
L 19.671875 8.109375 
L 31.59375 8.109375 
Q 46.6875 8.109375 53.6875 14.9375 
Q 60.6875 21.78125 60.6875 36.53125 
Q 60.6875 51.171875 53.6875 57.984375 
Q 46.6875 64.796875 31.59375 64.796875 
z
M 9.8125 72.90625 
L 30.078125 72.90625 
Q 51.265625 72.90625 61.171875 64.09375 
Q 71.09375 55.28125 71.09375 36.53125 
Q 71.09375 17.671875 61.125 8.828125 
Q 51.171875 0 30.078125 0 
L 9.8125 0 
z
" id="DejaVuSans-68"/>
     </defs>
     <g transform="translate(145 77.078438)scale(0.1 -0.1)">
      <use xlink:href="#DejaVuSans-68"/>
      <use x="77.001953" xlink:href="#DejaVuSans-114"/>
      <use x="118.115234" xlink:href="#DejaVuSans-121"/>
      <use x="177.294922" xlink:href="#DejaVuSans-32"/>
      <use x="209.082031" xlink:href="#DejaVuSans-97"/>
      <use x="270.361328" xlink:href="#DejaVuSans-105"/>
      <use x="298.144531" xlink:href="#DejaVuSans-114"/>
     </g>
    </g>
    <g id="line2d_89">
     <path d="M 117 88.256563 
L 137 88.256563 
" style="fill:none;stroke:#0000ff;stroke-linecap:square;stroke-width:1.5;"/>
    </g>
    <g id="line2d_90"/>
    <g id="text_16">
     <!-- Wet air -->
     <defs>
      <path d="M 3.328125 72.90625 
L 13.28125 72.90625 
L 28.609375 11.28125 
L 43.890625 72.90625 
L 54.984375 72.90625 
L 70.3125 11.28125 
L 85.59375 72.90625 
L 95.609375 72.90625 
L 77.296875 0 
L 64.890625 0 
L 49.515625 63.28125 
L 33.984375 0 
L 21.578125 0 
z
" id="DejaVuSans-87"/>
     </defs>
     <g transform="translate(145 91.756563)scale(0.1 -0.1)">
      <use xlink:href="#DejaVuSans-87"/>
      <use x="98.798828" xlink:href="#DejaVuSans-101"/>
      <use x="160.322266" xlink:href="#DejaVuSans-116"/>
      <use x="199.53125" xlink:href="#DejaVuSans-32"/>
      <use x="231.318359" xlink:href="#DejaVuSans-97"/>
      <use x="292.597656" xlink:href="#DejaVuSans-105"/>
      <use x="320.380859" xlink:href="#DejaVuSans-114"/>
     </g>
    </g>
    <g id="line2d_91">
     <path d="M 117 102.934687 
L 137 102.934687 
" style="fill:none;stroke:#000000;stroke-linecap:square;stroke-width:1.5;"/>
    </g>
    <g id="line2d_92"/>
    <g id="text_17">
     <!-- Total -->
     <defs>
      <path d="M 9.421875 75.984375 
L 18.40625 75.984375 
L 18.40625 0 
L 9.421875 0 
z
" id="DejaVuSans-108"/>
     </defs>
     <g transform="translate(145 106.434687)scale(0.1 -0.1)">
      <use xlink:href="#DejaVuSans-84"/>
      <use x="60.818359" xlink:href="#DejaVuSans-111"/>
      <use x="122" xlink:href="#DejaVuSans-116"/>
      <use x="161.208984" xlink:href="#DejaVuSans-97"/>
      <use x="222.488281" xlink:href="#DejaVuSans-108"/>
     </g>
    </g>
   </g>
  </g>
 </g>
 <defs>
  <clipPath id="p52c1cfe142">
   <rect height="388.08" width="669.6" x="108" y="60.48"/>
  </clipPath>
 </defs>
</svg>
