<?xml version="1.0" encoding="utf-8" standalone="no"?>
<!DOCTYPE svg PUBLIC "-//W3C//DTD SVG 1.1//EN"
  "http://www.w3.org/Graphics/SVG/1.1/DTD/svg11.dtd">
<svg xmlns:xlink="http://www.w3.org/1999/xlink" width="730.11375pt" height="452.929375pt" viewBox="0 0 730.11375 452.929375" xmlns="http://www.w3.org/2000/svg" version="1.1">
 <metadata>
  <rdf:RDF xmlns:dc="http://purl.org/dc/elements/1.1/" xmlns:cc="http://creativecommons.org/ns#" xmlns:rdf="http://www.w3.org/1999/02/22-rdf-syntax-ns#">
   <cc:Work>
    <dc:type rdf:resource="http://purl.org/dc/dcmitype/StillImage"/>
    <dc:date>2025-02-01T18:30:36.571467</dc:date>
    <dc:format>image/svg+xml</dc:format>
    <dc:creator>
     <cc:Agent>
      <dc:title>Matplotlib v3.10.0, https://matplotlib.org/</dc:title>
     </cc:Agent>
    </dc:creator>
   </cc:Work>
  </rdf:RDF>
 </metadata>
 <defs>
  <style type="text/css">*{stroke-linejoin: round; stroke-linecap: butt}</style>
 </defs>
 <g id="figure_1">
  <g id="patch_1">
   <path d="M 0 452.929375 
L 730.11375 452.929375 
L 730.11375 0 
L 0 0 
L 0 452.929375 
z
" style="fill: none"/>
  </g>
  <g id="axes_1">
   <g id="patch_2">
    <path d="M 53.31375 413.4375 
L 722.91375 413.4375 
L 722.91375 25.3575 
L 53.31375 25.3575 
z
" style="fill: #ffffff"/>
   </g>
   <g id="matplotlib.axis_1">
    <g id="xtick_1">
     <g id="line2d_1">
      <path d="M 186.831185 413.4375 
L 186.831185 25.3575 
" clip-path="url(#pbe3b62f3db)" style="fill: none; stroke: #b0b0b0; stroke-width: 0.8; stroke-linecap: square"/>
     </g>
     <g id="line2d_2">
      <defs>
       <path id="m01ad1104b5" d="M 0 0 
L 0 3.5 
" style="stroke: #000000; stroke-width: 0.8"/>
      </defs>
      <g>
       <use xlink:href="#m01ad1104b5" x="186.831185" y="413.4375" style="stroke: #000000; stroke-width: 0.8"/>
      </g>
     </g>
     <g id="text_1">
      <!-- 200 -->
      <g transform="translate(177.287435 428.035937) scale(0.1 -0.1)">
       <defs>
        <path id="DejaVuSans-32" d="M 1228 531 
L 3431 531 
L 3431 0 
L 469 0 
L 469 531 
Q 828 903 1448 1529 
Q 2069 2156 2228 2338 
Q 2531 2678 2651 2914 
Q 2772 3150 2772 3378 
Q 2772 3750 2511 3984 
Q 2250 4219 1831 4219 
Q 1534 4219 1204 4116 
Q 875 4013 500 3803 
L 500 4441 
Q 881 4594 1212 4672 
Q 1544 4750 1819 4750 
Q 2544 4750 2975 4387 
Q 3406 4025 3406 3419 
Q 3406 3131 3298 2873 
Q 3191 2616 2906 2266 
Q 2828 2175 2409 1742 
Q 1991 1309 1228 531 
z
" transform="scale(0.015625)"/>
        <path id="DejaVuSans-30" d="M 2034 4250 
Q 1547 4250 1301 3770 
Q 1056 3291 1056 2328 
Q 1056 1369 1301 889 
Q 1547 409 2034 409 
Q 2525 409 2770 889 
Q 3016 1369 3016 2328 
Q 3016 3291 2770 3770 
Q 2525 4250 2034 4250 
z
M 2034 4750 
Q 2819 4750 3233 4129 
Q 3647 3509 3647 2328 
Q 3647 1150 3233 529 
Q 2819 -91 2034 -91 
Q 1250 -91 836 529 
Q 422 1150 422 2328 
Q 422 3509 836 4129 
Q 1250 4750 2034 4750 
z
" transform="scale(0.015625)"/>
       </defs>
       <use xlink:href="#DejaVuSans-32"/>
       <use xlink:href="#DejaVuSans-30" transform="translate(63.623047 0)"/>
       <use xlink:href="#DejaVuSans-30" transform="translate(127.246094 0)"/>
      </g>
     </g>
    </g>
    <g id="xtick_2">
     <g id="line2d_3">
      <path d="M 321.019562 413.4375 
L 321.019562 25.3575 
" clip-path="url(#pbe3b62f3db)" style="fill: none; stroke: #b0b0b0; stroke-width: 0.8; stroke-linecap: square"/>
     </g>
     <g id="line2d_4">
      <g>
       <use xlink:href="#m01ad1104b5" x="321.019562" y="413.4375" style="stroke: #000000; stroke-width: 0.8"/>
      </g>
     </g>
     <g id="text_2">
      <!-- 400 -->
      <g transform="translate(311.475812 428.035937) scale(0.1 -0.1)">
       <defs>
        <path id="DejaVuSans-34" d="M 2419 4116 
L 825 1625 
L 2419 1625 
L 2419 4116 
z
M 2253 4666 
L 3047 4666 
L 3047 1625 
L 3713 1625 
L 3713 1100 
L 3047 1100 
L 3047 0 
L 2419 0 
L 2419 1100 
L 313 1100 
L 313 1709 
L 2253 4666 
z
" transform="scale(0.015625)"/>
       </defs>
       <use xlink:href="#DejaVuSans-34"/>
       <use xlink:href="#DejaVuSans-30" transform="translate(63.623047 0)"/>
       <use xlink:href="#DejaVuSans-30" transform="translate(127.246094 0)"/>
      </g>
     </g>
    </g>
    <g id="xtick_3">
     <g id="line2d_5">
      <path d="M 455.207938 413.4375 
L 455.207938 25.3575 
" clip-path="url(#pbe3b62f3db)" style="fill: none; stroke: #b0b0b0; stroke-width: 0.8; stroke-linecap: square"/>
     </g>
     <g id="line2d_6">
      <g>
       <use xlink:href="#m01ad1104b5" x="455.207938" y="413.4375" style="stroke: #000000; stroke-width: 0.8"/>
      </g>
     </g>
     <g id="text_3">
      <!-- 600 -->
      <g transform="translate(445.664188 428.035937) scale(0.1 -0.1)">
       <defs>
        <path id="DejaVuSans-36" d="M 2113 2584 
Q 1688 2584 1439 2293 
Q 1191 2003 1191 1497 
Q 1191 994 1439 701 
Q 1688 409 2113 409 
Q 2538 409 2786 701 
Q 3034 994 3034 1497 
Q 3034 2003 2786 2293 
Q 2538 2584 2113 2584 
z
M 3366 4563 
L 3366 3988 
Q 3128 4100 2886 4159 
Q 2644 4219 2406 4219 
Q 1781 4219 1451 3797 
Q 1122 3375 1075 2522 
Q 1259 2794 1537 2939 
Q 1816 3084 2150 3084 
Q 2853 3084 3261 2657 
Q 3669 2231 3669 1497 
Q 3669 778 3244 343 
Q 2819 -91 2113 -91 
Q 1303 -91 875 529 
Q 447 1150 447 2328 
Q 447 3434 972 4092 
Q 1497 4750 2381 4750 
Q 2619 4750 2861 4703 
Q 3103 4656 3366 4563 
z
" transform="scale(0.015625)"/>
       </defs>
       <use xlink:href="#DejaVuSans-36"/>
       <use xlink:href="#DejaVuSans-30" transform="translate(63.623047 0)"/>
       <use xlink:href="#DejaVuSans-30" transform="translate(127.246094 0)"/>
      </g>
     </g>
    </g>
    <g id="xtick_4">
     <g id="line2d_7">
      <path d="M 589.396315 413.4375 
L 589.396315 25.3575 
" clip-path="url(#pbe3b62f3db)" style="fill: none; stroke: #b0b0b0; stroke-width: 0.8; stroke-linecap: square"/>
     </g>
     <g id="line2d_8">
      <g>
       <use xlink:href="#m01ad1104b5" x="589.396315" y="413.4375" style="stroke: #000000; stroke-width: 0.8"/>
      </g>
     </g>
     <g id="text_4">
      <!-- 800 -->
      <g transform="translate(579.852565 428.035937) scale(0.1 -0.1)">
       <defs>
        <path id="DejaVuSans-38" d="M 2034 2216 
Q 1584 2216 1326 1975 
Q 1069 1734 1069 1313 
Q 1069 891 1326 650 
Q 1584 409 2034 409 
Q 2484 409 2743 651 
Q 3003 894 3003 1313 
Q 3003 1734 2745 1975 
Q 2488 2216 2034 2216 
z
M 1403 2484 
Q 997 2584 770 2862 
Q 544 3141 544 3541 
Q 544 4100 942 4425 
Q 1341 4750 2034 4750 
Q 2731 4750 3128 4425 
Q 3525 4100 3525 3541 
Q 3525 3141 3298 2862 
Q 3072 2584 2669 2484 
Q 3125 2378 3379 2068 
Q 3634 1759 3634 1313 
Q 3634 634 3220 271 
Q 2806 -91 2034 -91 
Q 1263 -91 848 271 
Q 434 634 434 1313 
Q 434 1759 690 2068 
Q 947 2378 1403 2484 
z
M 1172 3481 
Q 1172 3119 1398 2916 
Q 1625 2713 2034 2713 
Q 2441 2713 2670 2916 
Q 2900 3119 2900 3481 
Q 2900 3844 2670 4047 
Q 2441 4250 2034 4250 
Q 1625 4250 1398 4047 
Q 1172 3844 1172 3481 
z
" transform="scale(0.015625)"/>
       </defs>
       <use xlink:href="#DejaVuSans-38"/>
       <use xlink:href="#DejaVuSans-30" transform="translate(63.623047 0)"/>
       <use xlink:href="#DejaVuSans-30" transform="translate(127.246094 0)"/>
      </g>
     </g>
    </g>
    <g id="text_5">
     <!-- Frequency [GHz] -->
     <g transform="translate(338.219063 443.23375) scale(0.12 -0.12)">
      <defs>
       <path id="DejaVuSans-46" d="M 628 4666 
L 3309 4666 
L 3309 4134 
L 1259 4134 
L 1259 2759 
L 3109 2759 
L 3109 2228 
L 1259 2228 
L 1259 0 
L 628 0 
L 628 4666 
z
" transform="scale(0.015625)"/>
       <path id="DejaVuSans-72" d="M 2631 2963 
Q 2534 3019 2420 3045 
Q 2306 3072 2169 3072 
Q 1681 3072 1420 2755 
Q 1159 2438 1159 1844 
L 1159 0 
L 581 0 
L 581 3500 
L 1159 3500 
L 1159 2956 
Q 1341 3275 1631 3429 
Q 1922 3584 2338 3584 
Q 2397 3584 2469 3576 
Q 2541 3569 2628 3553 
L 2631 2963 
z
" transform="scale(0.015625)"/>
       <path id="DejaVuSans-65" d="M 3597 1894 
L 3597 1613 
L 953 1613 
Q 991 1019 1311 708 
Q 1631 397 2203 397 
Q 2534 397 2845 478 
Q 3156 559 3463 722 
L 3463 178 
Q 3153 47 2828 -22 
Q 2503 -91 2169 -91 
Q 1331 -91 842 396 
Q 353 884 353 1716 
Q 353 2575 817 3079 
Q 1281 3584 2069 3584 
Q 2775 3584 3186 3129 
Q 3597 2675 3597 1894 
z
M 3022 2063 
Q 3016 2534 2758 2815 
Q 2500 3097 2075 3097 
Q 1594 3097 1305 2825 
Q 1016 2553 972 2059 
L 3022 2063 
z
" transform="scale(0.015625)"/>
       <path id="DejaVuSans-71" d="M 947 1747 
Q 947 1113 1208 752 
Q 1469 391 1925 391 
Q 2381 391 2643 752 
Q 2906 1113 2906 1747 
Q 2906 2381 2643 2742 
Q 2381 3103 1925 3103 
Q 1469 3103 1208 2742 
Q 947 2381 947 1747 
z
M 2906 525 
Q 2725 213 2448 61 
Q 2172 -91 1784 -91 
Q 1150 -91 751 415 
Q 353 922 353 1747 
Q 353 2572 751 3078 
Q 1150 3584 1784 3584 
Q 2172 3584 2448 3432 
Q 2725 3281 2906 2969 
L 2906 3500 
L 3481 3500 
L 3481 -1331 
L 2906 -1331 
L 2906 525 
z
" transform="scale(0.015625)"/>
       <path id="DejaVuSans-75" d="M 544 1381 
L 544 3500 
L 1119 3500 
L 1119 1403 
Q 1119 906 1312 657 
Q 1506 409 1894 409 
Q 2359 409 2629 706 
Q 2900 1003 2900 1516 
L 2900 3500 
L 3475 3500 
L 3475 0 
L 2900 0 
L 2900 538 
Q 2691 219 2414 64 
Q 2138 -91 1772 -91 
Q 1169 -91 856 284 
Q 544 659 544 1381 
z
M 1991 3584 
L 1991 3584 
z
" transform="scale(0.015625)"/>
       <path id="DejaVuSans-6e" d="M 3513 2113 
L 3513 0 
L 2938 0 
L 2938 2094 
Q 2938 2591 2744 2837 
Q 2550 3084 2163 3084 
Q 1697 3084 1428 2787 
Q 1159 2491 1159 1978 
L 1159 0 
L 581 0 
L 581 3500 
L 1159 3500 
L 1159 2956 
Q 1366 3272 1645 3428 
Q 1925 3584 2291 3584 
Q 2894 3584 3203 3211 
Q 3513 2838 3513 2113 
z
" transform="scale(0.015625)"/>
       <path id="DejaVuSans-63" d="M 3122 3366 
L 3122 2828 
Q 2878 2963 2633 3030 
Q 2388 3097 2138 3097 
Q 1578 3097 1268 2742 
Q 959 2388 959 1747 
Q 959 1106 1268 751 
Q 1578 397 2138 397 
Q 2388 397 2633 464 
Q 2878 531 3122 666 
L 3122 134 
Q 2881 22 2623 -34 
Q 2366 -91 2075 -91 
Q 1284 -91 818 406 
Q 353 903 353 1747 
Q 353 2603 823 3093 
Q 1294 3584 2113 3584 
Q 2378 3584 2631 3529 
Q 2884 3475 3122 3366 
z
" transform="scale(0.015625)"/>
       <path id="DejaVuSans-79" d="M 2059 -325 
Q 1816 -950 1584 -1140 
Q 1353 -1331 966 -1331 
L 506 -1331 
L 506 -850 
L 844 -850 
Q 1081 -850 1212 -737 
Q 1344 -625 1503 -206 
L 1606 56 
L 191 3500 
L 800 3500 
L 1894 763 
L 2988 3500 
L 3597 3500 
L 2059 -325 
z
" transform="scale(0.015625)"/>
       <path id="DejaVuSans-20" transform="scale(0.015625)"/>
       <path id="DejaVuSans-5b" d="M 550 4863 
L 1875 4863 
L 1875 4416 
L 1125 4416 
L 1125 -397 
L 1875 -397 
L 1875 -844 
L 550 -844 
L 550 4863 
z
" transform="scale(0.015625)"/>
       <path id="DejaVuSans-47" d="M 3809 666 
L 3809 1919 
L 2778 1919 
L 2778 2438 
L 4434 2438 
L 4434 434 
Q 4069 175 3628 42 
Q 3188 -91 2688 -91 
Q 1594 -91 976 548 
Q 359 1188 359 2328 
Q 359 3472 976 4111 
Q 1594 4750 2688 4750 
Q 3144 4750 3555 4637 
Q 3966 4525 4313 4306 
L 4313 3634 
Q 3963 3931 3569 4081 
Q 3175 4231 2741 4231 
Q 1884 4231 1454 3753 
Q 1025 3275 1025 2328 
Q 1025 1384 1454 906 
Q 1884 428 2741 428 
Q 3075 428 3337 486 
Q 3600 544 3809 666 
z
" transform="scale(0.015625)"/>
       <path id="DejaVuSans-48" d="M 628 4666 
L 1259 4666 
L 1259 2753 
L 3553 2753 
L 3553 4666 
L 4184 4666 
L 4184 0 
L 3553 0 
L 3553 2222 
L 1259 2222 
L 1259 0 
L 628 0 
L 628 4666 
z
" transform="scale(0.015625)"/>
       <path id="DejaVuSans-7a" d="M 353 3500 
L 3084 3500 
L 3084 2975 
L 922 459 
L 3084 459 
L 3084 0 
L 275 0 
L 275 525 
L 2438 3041 
L 353 3041 
L 353 3500 
z
" transform="scale(0.015625)"/>
       <path id="DejaVuSans-5d" d="M 1947 4863 
L 1947 -844 
L 622 -844 
L 622 -397 
L 1369 -397 
L 1369 4416 
L 622 4416 
L 622 4863 
L 1947 4863 
z
" transform="scale(0.015625)"/>
      </defs>
      <use xlink:href="#DejaVuSans-46"/>
      <use xlink:href="#DejaVuSans-72" transform="translate(50.269531 0)"/>
      <use xlink:href="#DejaVuSans-65" transform="translate(89.132812 0)"/>
      <use xlink:href="#DejaVuSans-71" transform="translate(150.65625 0)"/>
      <use xlink:href="#DejaVuSans-75" transform="translate(214.132812 0)"/>
      <use xlink:href="#DejaVuSans-65" transform="translate(277.511719 0)"/>
      <use xlink:href="#DejaVuSans-6e" transform="translate(339.035156 0)"/>
      <use xlink:href="#DejaVuSans-63" transform="translate(402.414062 0)"/>
      <use xlink:href="#DejaVuSans-79" transform="translate(457.394531 0)"/>
      <use xlink:href="#DejaVuSans-20" transform="translate(516.574219 0)"/>
      <use xlink:href="#DejaVuSans-5b" transform="translate(548.361328 0)"/>
      <use xlink:href="#DejaVuSans-47" transform="translate(587.375 0)"/>
      <use xlink:href="#DejaVuSans-48" transform="translate(664.865234 0)"/>
      <use xlink:href="#DejaVuSans-7a" transform="translate(740.060547 0)"/>
      <use xlink:href="#DejaVuSans-5d" transform="translate(792.550781 0)"/>
     </g>
    </g>
   </g>
   <g id="matplotlib.axis_2">
    <g id="ytick_1">
     <g id="line2d_9">
      <path d="M 53.31375 397.335593 
L 722.91375 397.335593 
" clip-path="url(#pbe3b62f3db)" style="fill: none; stroke: #b0b0b0; stroke-width: 0.8; stroke-linecap: square"/>
     </g>
     <g id="line2d_10">
      <defs>
       <path id="me084b4528d" d="M 0 0 
L -3.5 0 
" style="stroke: #000000; stroke-width: 0.8"/>
      </defs>
      <g>
       <use xlink:href="#me084b4528d" x="53.31375" y="397.335593" style="stroke: #000000; stroke-width: 0.8"/>
      </g>
     </g>
     <g id="text_6">
      <!-- $\mathdefault{10^{-2}}$ -->
      <g transform="translate(22.81375 401.134812) scale(0.1 -0.1)">
       <defs>
        <path id="DejaVuSans-31" d="M 794 531 
L 1825 531 
L 1825 4091 
L 703 3866 
L 703 4441 
L 1819 4666 
L 2450 4666 
L 2450 531 
L 3481 531 
L 3481 0 
L 794 0 
L 794 531 
z
" transform="scale(0.015625)"/>
        <path id="DejaVuSans-2212" d="M 678 2272 
L 4684 2272 
L 4684 1741 
L 678 1741 
L 678 2272 
z
" transform="scale(0.015625)"/>
       </defs>
       <use xlink:href="#DejaVuSans-31" transform="translate(0 0.765625)"/>
       <use xlink:href="#DejaVuSans-30" transform="translate(63.623047 0.765625)"/>
       <use xlink:href="#DejaVuSans-2212" transform="translate(128.203125 39.046875) scale(0.7)"/>
       <use xlink:href="#DejaVuSans-32" transform="translate(186.855469 39.046875) scale(0.7)"/>
      </g>
     </g>
    </g>
    <g id="ytick_2">
     <g id="line2d_11">
      <path d="M 53.31375 343.846217 
L 722.91375 343.846217 
" clip-path="url(#pbe3b62f3db)" style="fill: none; stroke: #b0b0b0; stroke-width: 0.8; stroke-linecap: square"/>
     </g>
     <g id="line2d_12">
      <g>
       <use xlink:href="#me084b4528d" x="53.31375" y="343.846217" style="stroke: #000000; stroke-width: 0.8"/>
      </g>
     </g>
     <g id="text_7">
      <!-- $\mathdefault{10^{-1}}$ -->
      <g transform="translate(22.81375 347.645436) scale(0.1 -0.1)">
       <use xlink:href="#DejaVuSans-31" transform="translate(0 0.684375)"/>
       <use xlink:href="#DejaVuSans-30" transform="translate(63.623047 0.684375)"/>
       <use xlink:href="#DejaVuSans-2212" transform="translate(128.203125 38.965625) scale(0.7)"/>
       <use xlink:href="#DejaVuSans-31" transform="translate(186.855469 38.965625) scale(0.7)"/>
      </g>
     </g>
    </g>
    <g id="ytick_3">
     <g id="line2d_13">
      <path d="M 53.31375 290.356841 
L 722.91375 290.356841 
" clip-path="url(#pbe3b62f3db)" style="fill: none; stroke: #b0b0b0; stroke-width: 0.8; stroke-linecap: square"/>
     </g>
     <g id="line2d_14">
      <g>
       <use xlink:href="#me084b4528d" x="53.31375" y="290.356841" style="stroke: #000000; stroke-width: 0.8"/>
      </g>
     </g>
     <g id="text_8">
      <!-- $\mathdefault{10^{0}}$ -->
      <g transform="translate(28.71375 294.15606) scale(0.1 -0.1)">
       <use xlink:href="#DejaVuSans-31" transform="translate(0 0.765625)"/>
       <use xlink:href="#DejaVuSans-30" transform="translate(63.623047 0.765625)"/>
       <use xlink:href="#DejaVuSans-30" transform="translate(128.203125 39.046875) scale(0.7)"/>
      </g>
     </g>
    </g>
    <g id="ytick_4">
     <g id="line2d_15">
      <path d="M 53.31375 236.867465 
L 722.91375 236.867465 
" clip-path="url(#pbe3b62f3db)" style="fill: none; stroke: #b0b0b0; stroke-width: 0.8; stroke-linecap: square"/>
     </g>
     <g id="line2d_16">
      <g>
       <use xlink:href="#me084b4528d" x="53.31375" y="236.867465" style="stroke: #000000; stroke-width: 0.8"/>
      </g>
     </g>
     <g id="text_9">
      <!-- $\mathdefault{10^{1}}$ -->
      <g transform="translate(28.71375 240.666684) scale(0.1 -0.1)">
       <use xlink:href="#DejaVuSans-31" transform="translate(0 0.684375)"/>
       <use xlink:href="#DejaVuSans-30" transform="translate(63.623047 0.684375)"/>
       <use xlink:href="#DejaVuSans-31" transform="translate(128.203125 38.965625) scale(0.7)"/>
      </g>
     </g>
    </g>
    <g id="ytick_5">
     <g id="line2d_17">
      <path d="M 53.31375 183.378089 
L 722.91375 183.378089 
" clip-path="url(#pbe3b62f3db)" style="fill: none; stroke: #b0b0b0; stroke-width: 0.8; stroke-linecap: square"/>
     </g>
     <g id="line2d_18">
      <g>
       <use xlink:href="#me084b4528d" x="53.31375" y="183.378089" style="stroke: #000000; stroke-width: 0.8"/>
      </g>
     </g>
     <g id="text_10">
      <!-- $\mathdefault{10^{2}}$ -->
      <g transform="translate(28.71375 187.177308) scale(0.1 -0.1)">
       <use xlink:href="#DejaVuSans-31" transform="translate(0 0.765625)"/>
       <use xlink:href="#DejaVuSans-30" transform="translate(63.623047 0.765625)"/>
       <use xlink:href="#DejaVuSans-32" transform="translate(128.203125 39.046875) scale(0.7)"/>
      </g>
     </g>
    </g>
    <g id="ytick_6">
     <g id="line2d_19">
      <path d="M 53.31375 129.888713 
L 722.91375 129.888713 
" clip-path="url(#pbe3b62f3db)" style="fill: none; stroke: #b0b0b0; stroke-width: 0.8; stroke-linecap: square"/>
     </g>
     <g id="line2d_20">
      <g>
       <use xlink:href="#me084b4528d" x="53.31375" y="129.888713" style="stroke: #000000; stroke-width: 0.8"/>
      </g>
     </g>
     <g id="text_11">
      <!-- $\mathdefault{10^{3}}$ -->
      <g transform="translate(28.71375 133.687931) scale(0.1 -0.1)">
       <defs>
        <path id="DejaVuSans-33" d="M 2597 2516 
Q 3050 2419 3304 2112 
Q 3559 1806 3559 1356 
Q 3559 666 3084 287 
Q 2609 -91 1734 -91 
Q 1441 -91 1130 -33 
Q 819 25 488 141 
L 488 750 
Q 750 597 1062 519 
Q 1375 441 1716 441 
Q 2309 441 2620 675 
Q 2931 909 2931 1356 
Q 2931 1769 2642 2001 
Q 2353 2234 1838 2234 
L 1294 2234 
L 1294 2753 
L 1863 2753 
Q 2328 2753 2575 2939 
Q 2822 3125 2822 3475 
Q 2822 3834 2567 4026 
Q 2313 4219 1838 4219 
Q 1578 4219 1281 4162 
Q 984 4106 628 3988 
L 628 4550 
Q 988 4650 1302 4700 
Q 1616 4750 1894 4750 
Q 2613 4750 3031 4423 
Q 3450 4097 3450 3541 
Q 3450 3153 3228 2886 
Q 3006 2619 2597 2516 
z
" transform="scale(0.015625)"/>
       </defs>
       <use xlink:href="#DejaVuSans-31" transform="translate(0 0.765625)"/>
       <use xlink:href="#DejaVuSans-30" transform="translate(63.623047 0.765625)"/>
       <use xlink:href="#DejaVuSans-33" transform="translate(128.203125 39.046875) scale(0.7)"/>
      </g>
     </g>
    </g>
    <g id="ytick_7">
     <g id="line2d_21">
      <path d="M 53.31375 76.399337 
L 722.91375 76.399337 
" clip-path="url(#pbe3b62f3db)" style="fill: none; stroke: #b0b0b0; stroke-width: 0.8; stroke-linecap: square"/>
     </g>
     <g id="line2d_22">
      <g>
       <use xlink:href="#me084b4528d" x="53.31375" y="76.399337" style="stroke: #000000; stroke-width: 0.8"/>
      </g>
     </g>
     <g id="text_12">
      <!-- $\mathdefault{10^{4}}$ -->
      <g transform="translate(28.71375 80.198555) scale(0.1 -0.1)">
       <use xlink:href="#DejaVuSans-31" transform="translate(0 0.684375)"/>
       <use xlink:href="#DejaVuSans-30" transform="translate(63.623047 0.684375)"/>
       <use xlink:href="#DejaVuSans-34" transform="translate(128.203125 38.965625) scale(0.7)"/>
      </g>
     </g>
    </g>
    <g id="ytick_8">
     <g id="line2d_23">
      <defs>
       <path id="m981ee9f735" d="M 0 0 
L -2 0 
" style="stroke: #000000; stroke-width: 0.6"/>
      </defs>
      <g>
       <use xlink:href="#m981ee9f735" x="53.31375" y="413.4375" style="stroke: #000000; stroke-width: 0.6"/>
      </g>
     </g>
    </g>
    <g id="ytick_9">
     <g id="line2d_24">
      <g>
       <use xlink:href="#m981ee9f735" x="53.31375" y="409.202145" style="stroke: #000000; stroke-width: 0.6"/>
      </g>
     </g>
    </g>
    <g id="ytick_10">
     <g id="line2d_25">
      <g>
       <use xlink:href="#m981ee9f735" x="53.31375" y="405.621203" style="stroke: #000000; stroke-width: 0.6"/>
      </g>
     </g>
    </g>
    <g id="ytick_11">
     <g id="line2d_26">
      <g>
       <use xlink:href="#m981ee9f735" x="53.31375" y="402.519249" style="stroke: #000000; stroke-width: 0.6"/>
      </g>
     </g>
    </g>
    <g id="ytick_12">
     <g id="line2d_27">
      <g>
       <use xlink:href="#m981ee9f735" x="53.31375" y="399.783133" style="stroke: #000000; stroke-width: 0.6"/>
      </g>
     </g>
    </g>
    <g id="ytick_13">
     <g id="line2d_28">
      <g>
       <use xlink:href="#m981ee9f735" x="53.31375" y="381.233687" style="stroke: #000000; stroke-width: 0.6"/>
      </g>
     </g>
    </g>
    <g id="ytick_14">
     <g id="line2d_29">
      <g>
       <use xlink:href="#m981ee9f735" x="53.31375" y="371.814675" style="stroke: #000000; stroke-width: 0.6"/>
      </g>
     </g>
    </g>
    <g id="ytick_15">
     <g id="line2d_30">
      <g>
       <use xlink:href="#m981ee9f735" x="53.31375" y="365.13178" style="stroke: #000000; stroke-width: 0.6"/>
      </g>
     </g>
    </g>
    <g id="ytick_16">
     <g id="line2d_31">
      <g>
       <use xlink:href="#m981ee9f735" x="53.31375" y="359.948124" style="stroke: #000000; stroke-width: 0.6"/>
      </g>
     </g>
    </g>
    <g id="ytick_17">
     <g id="line2d_32">
      <g>
       <use xlink:href="#m981ee9f735" x="53.31375" y="355.712768" style="stroke: #000000; stroke-width: 0.6"/>
      </g>
     </g>
    </g>
    <g id="ytick_18">
     <g id="line2d_33">
      <g>
       <use xlink:href="#m981ee9f735" x="53.31375" y="352.131826" style="stroke: #000000; stroke-width: 0.6"/>
      </g>
     </g>
    </g>
    <g id="ytick_19">
     <g id="line2d_34">
      <g>
       <use xlink:href="#m981ee9f735" x="53.31375" y="349.029873" style="stroke: #000000; stroke-width: 0.6"/>
      </g>
     </g>
    </g>
    <g id="ytick_20">
     <g id="line2d_35">
      <g>
       <use xlink:href="#m981ee9f735" x="53.31375" y="346.293757" style="stroke: #000000; stroke-width: 0.6"/>
      </g>
     </g>
    </g>
    <g id="ytick_21">
     <g id="line2d_36">
      <g>
       <use xlink:href="#m981ee9f735" x="53.31375" y="327.744311" style="stroke: #000000; stroke-width: 0.6"/>
      </g>
     </g>
    </g>
    <g id="ytick_22">
     <g id="line2d_37">
      <g>
       <use xlink:href="#m981ee9f735" x="53.31375" y="318.325299" style="stroke: #000000; stroke-width: 0.6"/>
      </g>
     </g>
    </g>
    <g id="ytick_23">
     <g id="line2d_38">
      <g>
       <use xlink:href="#m981ee9f735" x="53.31375" y="311.642404" style="stroke: #000000; stroke-width: 0.6"/>
      </g>
     </g>
    </g>
    <g id="ytick_24">
     <g id="line2d_39">
      <g>
       <use xlink:href="#m981ee9f735" x="53.31375" y="306.458748" style="stroke: #000000; stroke-width: 0.6"/>
      </g>
     </g>
    </g>
    <g id="ytick_25">
     <g id="line2d_40">
      <g>
       <use xlink:href="#m981ee9f735" x="53.31375" y="302.223392" style="stroke: #000000; stroke-width: 0.6"/>
      </g>
     </g>
    </g>
    <g id="ytick_26">
     <g id="line2d_41">
      <g>
       <use xlink:href="#m981ee9f735" x="53.31375" y="298.64245" style="stroke: #000000; stroke-width: 0.6"/>
      </g>
     </g>
    </g>
    <g id="ytick_27">
     <g id="line2d_42">
      <g>
       <use xlink:href="#m981ee9f735" x="53.31375" y="295.540497" style="stroke: #000000; stroke-width: 0.6"/>
      </g>
     </g>
    </g>
    <g id="ytick_28">
     <g id="line2d_43">
      <g>
       <use xlink:href="#m981ee9f735" x="53.31375" y="292.804381" style="stroke: #000000; stroke-width: 0.6"/>
      </g>
     </g>
    </g>
    <g id="ytick_29">
     <g id="line2d_44">
      <g>
       <use xlink:href="#m981ee9f735" x="53.31375" y="274.254934" style="stroke: #000000; stroke-width: 0.6"/>
      </g>
     </g>
    </g>
    <g id="ytick_30">
     <g id="line2d_45">
      <g>
       <use xlink:href="#m981ee9f735" x="53.31375" y="264.835923" style="stroke: #000000; stroke-width: 0.6"/>
      </g>
     </g>
    </g>
    <g id="ytick_31">
     <g id="line2d_46">
      <g>
       <use xlink:href="#m981ee9f735" x="53.31375" y="258.153028" style="stroke: #000000; stroke-width: 0.6"/>
      </g>
     </g>
    </g>
    <g id="ytick_32">
     <g id="line2d_47">
      <g>
       <use xlink:href="#m981ee9f735" x="53.31375" y="252.969372" style="stroke: #000000; stroke-width: 0.6"/>
      </g>
     </g>
    </g>
    <g id="ytick_33">
     <g id="line2d_48">
      <g>
       <use xlink:href="#m981ee9f735" x="53.31375" y="248.734016" style="stroke: #000000; stroke-width: 0.6"/>
      </g>
     </g>
    </g>
    <g id="ytick_34">
     <g id="line2d_49">
      <g>
       <use xlink:href="#m981ee9f735" x="53.31375" y="245.153074" style="stroke: #000000; stroke-width: 0.6"/>
      </g>
     </g>
    </g>
    <g id="ytick_35">
     <g id="line2d_50">
      <g>
       <use xlink:href="#m981ee9f735" x="53.31375" y="242.051121" style="stroke: #000000; stroke-width: 0.6"/>
      </g>
     </g>
    </g>
    <g id="ytick_36">
     <g id="line2d_51">
      <g>
       <use xlink:href="#m981ee9f735" x="53.31375" y="239.315005" style="stroke: #000000; stroke-width: 0.6"/>
      </g>
     </g>
    </g>
    <g id="ytick_37">
     <g id="line2d_52">
      <g>
       <use xlink:href="#m981ee9f735" x="53.31375" y="220.765558" style="stroke: #000000; stroke-width: 0.6"/>
      </g>
     </g>
    </g>
    <g id="ytick_38">
     <g id="line2d_53">
      <g>
       <use xlink:href="#m981ee9f735" x="53.31375" y="211.346547" style="stroke: #000000; stroke-width: 0.6"/>
      </g>
     </g>
    </g>
    <g id="ytick_39">
     <g id="line2d_54">
      <g>
       <use xlink:href="#m981ee9f735" x="53.31375" y="204.663652" style="stroke: #000000; stroke-width: 0.6"/>
      </g>
     </g>
    </g>
    <g id="ytick_40">
     <g id="line2d_55">
      <g>
       <use xlink:href="#m981ee9f735" x="53.31375" y="199.479995" style="stroke: #000000; stroke-width: 0.6"/>
      </g>
     </g>
    </g>
    <g id="ytick_41">
     <g id="line2d_56">
      <g>
       <use xlink:href="#m981ee9f735" x="53.31375" y="195.24464" style="stroke: #000000; stroke-width: 0.6"/>
      </g>
     </g>
    </g>
    <g id="ytick_42">
     <g id="line2d_57">
      <g>
       <use xlink:href="#m981ee9f735" x="53.31375" y="191.663698" style="stroke: #000000; stroke-width: 0.6"/>
      </g>
     </g>
    </g>
    <g id="ytick_43">
     <g id="line2d_58">
      <g>
       <use xlink:href="#m981ee9f735" x="53.31375" y="188.561745" style="stroke: #000000; stroke-width: 0.6"/>
      </g>
     </g>
    </g>
    <g id="ytick_44">
     <g id="line2d_59">
      <g>
       <use xlink:href="#m981ee9f735" x="53.31375" y="185.825628" style="stroke: #000000; stroke-width: 0.6"/>
      </g>
     </g>
    </g>
    <g id="ytick_45">
     <g id="line2d_60">
      <g>
       <use xlink:href="#m981ee9f735" x="53.31375" y="167.276182" style="stroke: #000000; stroke-width: 0.6"/>
      </g>
     </g>
    </g>
    <g id="ytick_46">
     <g id="line2d_61">
      <g>
       <use xlink:href="#m981ee9f735" x="53.31375" y="157.857171" style="stroke: #000000; stroke-width: 0.6"/>
      </g>
     </g>
    </g>
    <g id="ytick_47">
     <g id="line2d_62">
      <g>
       <use xlink:href="#m981ee9f735" x="53.31375" y="151.174275" style="stroke: #000000; stroke-width: 0.6"/>
      </g>
     </g>
    </g>
    <g id="ytick_48">
     <g id="line2d_63">
      <g>
       <use xlink:href="#m981ee9f735" x="53.31375" y="145.990619" style="stroke: #000000; stroke-width: 0.6"/>
      </g>
     </g>
    </g>
    <g id="ytick_49">
     <g id="line2d_64">
      <g>
       <use xlink:href="#m981ee9f735" x="53.31375" y="141.755264" style="stroke: #000000; stroke-width: 0.6"/>
      </g>
     </g>
    </g>
    <g id="ytick_50">
     <g id="line2d_65">
      <g>
       <use xlink:href="#m981ee9f735" x="53.31375" y="138.174322" style="stroke: #000000; stroke-width: 0.6"/>
      </g>
     </g>
    </g>
    <g id="ytick_51">
     <g id="line2d_66">
      <g>
       <use xlink:href="#m981ee9f735" x="53.31375" y="135.072369" style="stroke: #000000; stroke-width: 0.6"/>
      </g>
     </g>
    </g>
    <g id="ytick_52">
     <g id="line2d_67">
      <g>
       <use xlink:href="#m981ee9f735" x="53.31375" y="132.336252" style="stroke: #000000; stroke-width: 0.6"/>
      </g>
     </g>
    </g>
    <g id="ytick_53">
     <g id="line2d_68">
      <g>
       <use xlink:href="#m981ee9f735" x="53.31375" y="113.786806" style="stroke: #000000; stroke-width: 0.6"/>
      </g>
     </g>
    </g>
    <g id="ytick_54">
     <g id="line2d_69">
      <g>
       <use xlink:href="#m981ee9f735" x="53.31375" y="104.367794" style="stroke: #000000; stroke-width: 0.6"/>
      </g>
     </g>
    </g>
    <g id="ytick_55">
     <g id="line2d_70">
      <g>
       <use xlink:href="#m981ee9f735" x="53.31375" y="97.684899" style="stroke: #000000; stroke-width: 0.6"/>
      </g>
     </g>
    </g>
    <g id="ytick_56">
     <g id="line2d_71">
      <g>
       <use xlink:href="#m981ee9f735" x="53.31375" y="92.501243" style="stroke: #000000; stroke-width: 0.6"/>
      </g>
     </g>
    </g>
    <g id="ytick_57">
     <g id="line2d_72">
      <g>
       <use xlink:href="#m981ee9f735" x="53.31375" y="88.265888" style="stroke: #000000; stroke-width: 0.6"/>
      </g>
     </g>
    </g>
    <g id="ytick_58">
     <g id="line2d_73">
      <g>
       <use xlink:href="#m981ee9f735" x="53.31375" y="84.684946" style="stroke: #000000; stroke-width: 0.6"/>
      </g>
     </g>
    </g>
    <g id="ytick_59">
     <g id="line2d_74">
      <g>
       <use xlink:href="#m981ee9f735" x="53.31375" y="81.582993" style="stroke: #000000; stroke-width: 0.6"/>
      </g>
     </g>
    </g>
    <g id="ytick_60">
     <g id="line2d_75">
      <g>
       <use xlink:href="#m981ee9f735" x="53.31375" y="78.846876" style="stroke: #000000; stroke-width: 0.6"/>
      </g>
     </g>
    </g>
    <g id="ytick_61">
     <g id="line2d_76">
      <g>
       <use xlink:href="#m981ee9f735" x="53.31375" y="60.29743" style="stroke: #000000; stroke-width: 0.6"/>
      </g>
     </g>
    </g>
    <g id="ytick_62">
     <g id="line2d_77">
      <g>
       <use xlink:href="#m981ee9f735" x="53.31375" y="50.878418" style="stroke: #000000; stroke-width: 0.6"/>
      </g>
     </g>
    </g>
    <g id="ytick_63">
     <g id="line2d_78">
      <g>
       <use xlink:href="#m981ee9f735" x="53.31375" y="44.195523" style="stroke: #000000; stroke-width: 0.6"/>
      </g>
     </g>
    </g>
    <g id="ytick_64">
     <g id="line2d_79">
      <g>
       <use xlink:href="#m981ee9f735" x="53.31375" y="39.011867" style="stroke: #000000; stroke-width: 0.6"/>
      </g>
     </g>
    </g>
    <g id="ytick_65">
     <g id="line2d_80">
      <g>
       <use xlink:href="#m981ee9f735" x="53.31375" y="34.776512" style="stroke: #000000; stroke-width: 0.6"/>
      </g>
     </g>
    </g>
    <g id="ytick_66">
     <g id="line2d_81">
      <g>
       <use xlink:href="#m981ee9f735" x="53.31375" y="31.19557" style="stroke: #000000; stroke-width: 0.6"/>
      </g>
     </g>
    </g>
    <g id="ytick_67">
     <g id="line2d_82">
      <g>
       <use xlink:href="#m981ee9f735" x="53.31375" y="28.093617" style="stroke: #000000; stroke-width: 0.6"/>
      </g>
     </g>
    </g>
    <g id="ytick_68">
     <g id="line2d_83">
      <g>
       <use xlink:href="#m981ee9f735" x="53.31375" y="25.3575" style="stroke: #000000; stroke-width: 0.6"/>
      </g>
     </g>
    </g>
    <g id="text_13">
     <!-- Specific Attenuation [dB / km] -->
     <g transform="translate(16.318125 309.496875) rotate(-90) scale(0.12 -0.12)">
      <defs>
       <path id="DejaVuSans-53" d="M 3425 4513 
L 3425 3897 
Q 3066 4069 2747 4153 
Q 2428 4238 2131 4238 
Q 1616 4238 1336 4038 
Q 1056 3838 1056 3469 
Q 1056 3159 1242 3001 
Q 1428 2844 1947 2747 
L 2328 2669 
Q 3034 2534 3370 2195 
Q 3706 1856 3706 1288 
Q 3706 609 3251 259 
Q 2797 -91 1919 -91 
Q 1588 -91 1214 -16 
Q 841 59 441 206 
L 441 856 
Q 825 641 1194 531 
Q 1563 422 1919 422 
Q 2459 422 2753 634 
Q 3047 847 3047 1241 
Q 3047 1584 2836 1778 
Q 2625 1972 2144 2069 
L 1759 2144 
Q 1053 2284 737 2584 
Q 422 2884 422 3419 
Q 422 4038 858 4394 
Q 1294 4750 2059 4750 
Q 2388 4750 2728 4690 
Q 3069 4631 3425 4513 
z
" transform="scale(0.015625)"/>
       <path id="DejaVuSans-70" d="M 1159 525 
L 1159 -1331 
L 581 -1331 
L 581 3500 
L 1159 3500 
L 1159 2969 
Q 1341 3281 1617 3432 
Q 1894 3584 2278 3584 
Q 2916 3584 3314 3078 
Q 3713 2572 3713 1747 
Q 3713 922 3314 415 
Q 2916 -91 2278 -91 
Q 1894 -91 1617 61 
Q 1341 213 1159 525 
z
M 3116 1747 
Q 3116 2381 2855 2742 
Q 2594 3103 2138 3103 
Q 1681 3103 1420 2742 
Q 1159 2381 1159 1747 
Q 1159 1113 1420 752 
Q 1681 391 2138 391 
Q 2594 391 2855 752 
Q 3116 1113 3116 1747 
z
" transform="scale(0.015625)"/>
       <path id="DejaVuSans-69" d="M 603 3500 
L 1178 3500 
L 1178 0 
L 603 0 
L 603 3500 
z
M 603 4863 
L 1178 4863 
L 1178 4134 
L 603 4134 
L 603 4863 
z
" transform="scale(0.015625)"/>
       <path id="DejaVuSans-66" d="M 2375 4863 
L 2375 4384 
L 1825 4384 
Q 1516 4384 1395 4259 
Q 1275 4134 1275 3809 
L 1275 3500 
L 2222 3500 
L 2222 3053 
L 1275 3053 
L 1275 0 
L 697 0 
L 697 3053 
L 147 3053 
L 147 3500 
L 697 3500 
L 697 3744 
Q 697 4328 969 4595 
Q 1241 4863 1831 4863 
L 2375 4863 
z
" transform="scale(0.015625)"/>
       <path id="DejaVuSans-41" d="M 2188 4044 
L 1331 1722 
L 3047 1722 
L 2188 4044 
z
M 1831 4666 
L 2547 4666 
L 4325 0 
L 3669 0 
L 3244 1197 
L 1141 1197 
L 716 0 
L 50 0 
L 1831 4666 
z
" transform="scale(0.015625)"/>
       <path id="DejaVuSans-74" d="M 1172 4494 
L 1172 3500 
L 2356 3500 
L 2356 3053 
L 1172 3053 
L 1172 1153 
Q 1172 725 1289 603 
Q 1406 481 1766 481 
L 2356 481 
L 2356 0 
L 1766 0 
Q 1100 0 847 248 
Q 594 497 594 1153 
L 594 3053 
L 172 3053 
L 172 3500 
L 594 3500 
L 594 4494 
L 1172 4494 
z
" transform="scale(0.015625)"/>
       <path id="DejaVuSans-61" d="M 2194 1759 
Q 1497 1759 1228 1600 
Q 959 1441 959 1056 
Q 959 750 1161 570 
Q 1363 391 1709 391 
Q 2188 391 2477 730 
Q 2766 1069 2766 1631 
L 2766 1759 
L 2194 1759 
z
M 3341 1997 
L 3341 0 
L 2766 0 
L 2766 531 
Q 2569 213 2275 61 
Q 1981 -91 1556 -91 
Q 1019 -91 701 211 
Q 384 513 384 1019 
Q 384 1609 779 1909 
Q 1175 2209 1959 2209 
L 2766 2209 
L 2766 2266 
Q 2766 2663 2505 2880 
Q 2244 3097 1772 3097 
Q 1472 3097 1187 3025 
Q 903 2953 641 2809 
L 641 3341 
Q 956 3463 1253 3523 
Q 1550 3584 1831 3584 
Q 2591 3584 2966 3190 
Q 3341 2797 3341 1997 
z
" transform="scale(0.015625)"/>
       <path id="DejaVuSans-6f" d="M 1959 3097 
Q 1497 3097 1228 2736 
Q 959 2375 959 1747 
Q 959 1119 1226 758 
Q 1494 397 1959 397 
Q 2419 397 2687 759 
Q 2956 1122 2956 1747 
Q 2956 2369 2687 2733 
Q 2419 3097 1959 3097 
z
M 1959 3584 
Q 2709 3584 3137 3096 
Q 3566 2609 3566 1747 
Q 3566 888 3137 398 
Q 2709 -91 1959 -91 
Q 1206 -91 779 398 
Q 353 888 353 1747 
Q 353 2609 779 3096 
Q 1206 3584 1959 3584 
z
" transform="scale(0.015625)"/>
       <path id="DejaVuSans-64" d="M 2906 2969 
L 2906 4863 
L 3481 4863 
L 3481 0 
L 2906 0 
L 2906 525 
Q 2725 213 2448 61 
Q 2172 -91 1784 -91 
Q 1150 -91 751 415 
Q 353 922 353 1747 
Q 353 2572 751 3078 
Q 1150 3584 1784 3584 
Q 2172 3584 2448 3432 
Q 2725 3281 2906 2969 
z
M 947 1747 
Q 947 1113 1208 752 
Q 1469 391 1925 391 
Q 2381 391 2643 752 
Q 2906 1113 2906 1747 
Q 2906 2381 2643 2742 
Q 2381 3103 1925 3103 
Q 1469 3103 1208 2742 
Q 947 2381 947 1747 
z
" transform="scale(0.015625)"/>
       <path id="DejaVuSans-42" d="M 1259 2228 
L 1259 519 
L 2272 519 
Q 2781 519 3026 730 
Q 3272 941 3272 1375 
Q 3272 1813 3026 2020 
Q 2781 2228 2272 2228 
L 1259 2228 
z
M 1259 4147 
L 1259 2741 
L 2194 2741 
Q 2656 2741 2882 2914 
Q 3109 3088 3109 3444 
Q 3109 3797 2882 3972 
Q 2656 4147 2194 4147 
L 1259 4147 
z
M 628 4666 
L 2241 4666 
Q 2963 4666 3353 4366 
Q 3744 4066 3744 3513 
Q 3744 3084 3544 2831 
Q 3344 2578 2956 2516 
Q 3422 2416 3680 2098 
Q 3938 1781 3938 1306 
Q 3938 681 3513 340 
Q 3088 0 2303 0 
L 628 0 
L 628 4666 
z
" transform="scale(0.015625)"/>
       <path id="DejaVuSans-2f" d="M 1625 4666 
L 2156 4666 
L 531 -594 
L 0 -594 
L 1625 4666 
z
" transform="scale(0.015625)"/>
       <path id="DejaVuSans-6b" d="M 581 4863 
L 1159 4863 
L 1159 1991 
L 2875 3500 
L 3609 3500 
L 1753 1863 
L 3688 0 
L 2938 0 
L 1159 1709 
L 1159 0 
L 581 0 
L 581 4863 
z
" transform="scale(0.015625)"/>
       <path id="DejaVuSans-6d" d="M 3328 2828 
Q 3544 3216 3844 3400 
Q 4144 3584 4550 3584 
Q 5097 3584 5394 3201 
Q 5691 2819 5691 2113 
L 5691 0 
L 5113 0 
L 5113 2094 
Q 5113 2597 4934 2840 
Q 4756 3084 4391 3084 
Q 3944 3084 3684 2787 
Q 3425 2491 3425 1978 
L 3425 0 
L 2847 0 
L 2847 2094 
Q 2847 2600 2669 2842 
Q 2491 3084 2119 3084 
Q 1678 3084 1418 2786 
Q 1159 2488 1159 1978 
L 1159 0 
L 581 0 
L 581 3500 
L 1159 3500 
L 1159 2956 
Q 1356 3278 1631 3431 
Q 1906 3584 2284 3584 
Q 2666 3584 2933 3390 
Q 3200 3197 3328 2828 
z
" transform="scale(0.015625)"/>
      </defs>
      <use xlink:href="#DejaVuSans-53"/>
      <use xlink:href="#DejaVuSans-70" transform="translate(63.476562 0)"/>
      <use xlink:href="#DejaVuSans-65" transform="translate(126.953125 0)"/>
      <use xlink:href="#DejaVuSans-63" transform="translate(188.476562 0)"/>
      <use xlink:href="#DejaVuSans-69" transform="translate(243.457031 0)"/>
      <use xlink:href="#DejaVuSans-66" transform="translate(271.240234 0)"/>
      <use xlink:href="#DejaVuSans-69" transform="translate(306.445312 0)"/>
      <use xlink:href="#DejaVuSans-63" transform="translate(334.228516 0)"/>
      <use xlink:href="#DejaVuSans-20" transform="translate(389.208984 0)"/>
      <use xlink:href="#DejaVuSans-41" transform="translate(420.996094 0)"/>
      <use xlink:href="#DejaVuSans-74" transform="translate(487.654297 0)"/>
      <use xlink:href="#DejaVuSans-74" transform="translate(526.863281 0)"/>
      <use xlink:href="#DejaVuSans-65" transform="translate(566.072266 0)"/>
      <use xlink:href="#DejaVuSans-6e" transform="translate(627.595703 0)"/>
      <use xlink:href="#DejaVuSans-75" transform="translate(690.974609 0)"/>
      <use xlink:href="#DejaVuSans-61" transform="translate(754.353516 0)"/>
      <use xlink:href="#DejaVuSans-74" transform="translate(815.632812 0)"/>
      <use xlink:href="#DejaVuSans-69" transform="translate(854.841797 0)"/>
      <use xlink:href="#DejaVuSans-6f" transform="translate(882.625 0)"/>
      <use xlink:href="#DejaVuSans-6e" transform="translate(943.806641 0)"/>
      <use xlink:href="#DejaVuSans-20" transform="translate(1007.185547 0)"/>
      <use xlink:href="#DejaVuSans-5b" transform="translate(1038.972656 0)"/>
      <use xlink:href="#DejaVuSans-64" transform="translate(1077.986328 0)"/>
      <use xlink:href="#DejaVuSans-42" transform="translate(1141.462891 0)"/>
      <use xlink:href="#DejaVuSans-20" transform="translate(1210.066406 0)"/>
      <use xlink:href="#DejaVuSans-2f" transform="translate(1241.853516 0)"/>
      <use xlink:href="#DejaVuSans-20" transform="translate(1275.544922 0)"/>
      <use xlink:href="#DejaVuSans-6b" transform="translate(1307.332031 0)"/>
      <use xlink:href="#DejaVuSans-6d" transform="translate(1365.242188 0)"/>
      <use xlink:href="#DejaVuSans-5d" transform="translate(1462.654297 0)"/>
     </g>
    </g>
   </g>
   <g id="line2d_84">
    <path d="M 53.31375 412.404786 
L 53.984692 407.41426 
L 54.655634 406.231566 
L 55.997518 405.206811 
L 58.010343 403.861792 
L 59.352227 402.763129 
L 60.694111 401.463482 
L 62.706936 399.128482 
L 64.719762 396.334979 
L 66.732588 393.088086 
L 68.745413 389.384222 
L 70.758239 385.204849 
L 72.771065 380.51039 
L 74.78389 375.232164 
L 76.796716 369.259474 
L 78.809542 362.416314 
L 80.151425 357.235372 
L 81.493309 351.411631 
L 82.835193 344.742943 
L 84.177077 336.89034 
L 85.51896 327.1715 
L 86.189902 321.050201 
L 86.860844 313.089116 
L 87.531786 302.253711 
L 88.87367 272.42115 
L 89.544612 257.508296 
L 90.215554 245.418931 
L 90.886495 237.200776 
L 91.557437 232.483787 
L 92.228379 230.223691 
L 92.899321 228.596136 
L 93.570263 227.972389 
L 94.241205 229.54151 
L 94.912147 235.463245 
L 95.583089 246.127304 
L 96.924972 275.192625 
L 97.595914 290.262064 
L 98.266856 302.816601 
L 98.937798 312.140898 
L 99.60874 318.952551 
L 100.950624 328.878022 
L 102.292508 336.486016 
L 103.634391 342.694526 
L 104.976275 347.911906 
L 106.318159 352.368902 
L 107.660043 356.208782 
L 109.001926 359.524294 
L 110.34381 362.375526 
L 111.685694 364.799202 
L 113.027578 366.81351 
L 114.369461 368.420232 
L 115.711345 369.604936 
L 117.053229 370.335514 
L 117.724171 370.514888 
L 118.395113 370.558966 
L 119.066055 370.456991 
L 119.736996 370.196086 
L 120.407938 369.76092 
L 121.07888 369.133282 
L 121.749822 368.29156 
L 122.420764 367.210081 
L 123.091706 365.858263 
L 123.762648 364.199505 
L 124.43359 362.189708 
L 125.104532 359.775229 
L 125.775473 356.890023 
L 126.446415 353.451508 
L 127.117357 349.354485 
L 127.788299 344.46212 
L 128.459241 338.592743 
L 129.130183 331.502214 
L 129.801125 322.869559 
L 130.472067 312.338414 
L 131.81395 287.864395 
L 132.484892 284.499901 
L 133.155834 293.74237 
L 134.497718 318.618408 
L 135.16866 328.446162 
L 136.510544 343.39415 
L 137.852427 354.092926 
L 139.194311 362.064886 
L 140.536195 368.179692 
L 141.878079 372.969514 
L 143.219962 376.781451 
L 144.561846 379.852929 
L 145.90373 382.352126 
L 147.245614 384.401363 
L 148.587497 386.091498 
L 149.929381 387.491224 
L 151.271265 388.653269 
L 153.284091 390.038023 
L 155.296916 391.0824 
L 157.309742 391.861035 
L 159.322568 392.428717 
L 162.006335 392.927044 
L 164.690103 393.194194 
L 168.044812 393.280517 
L 172.070463 393.113332 
L 176.767057 392.650825 
L 182.134592 391.879285 
L 188.844011 390.678273 
L 198.237197 388.743324 
L 214.339802 385.149252 
L 244.532187 378.415839 
L 278.079281 371.04488 
L 282.775874 369.772951 
L 286.130584 368.645393 
L 288.143409 367.779348 
L 290.156235 366.629413 
L 291.498119 365.577411 
L 292.840003 364.112062 
L 293.510944 363.130711 
L 294.181886 361.89878 
L 294.852828 360.313871 
L 295.52377 358.221269 
L 296.194712 355.384281 
L 296.865654 351.44129 
L 297.536596 345.86068 
L 298.207538 337.981334 
L 299.549421 317.823387 
L 300.220363 317.715317 
L 302.233189 344.894324 
L 302.904131 350.148366 
L 303.575073 353.75623 
L 304.246015 356.252453 
L 304.916956 358.000312 
L 305.587898 359.237255 
L 306.25884 360.118175 
L 306.929782 360.745292 
L 307.600724 361.187212 
L 308.942608 361.688695 
L 310.284491 361.852865 
L 311.626375 361.796587 
L 313.639201 361.424308 
L 315.652027 360.78094 
L 317.664852 359.883683 
L 319.677678 358.700115 
L 321.019562 357.714715 
L 322.361445 356.529544 
L 323.703329 355.090436 
L 325.045213 353.320909 
L 326.387097 351.112414 
L 327.72898 348.309126 
L 329.070864 344.683755 
L 330.412748 339.897686 
L 331.754632 333.431523 
L 332.425574 329.326618 
L 333.096516 324.453729 
L 333.767457 318.616601 
L 334.438399 311.553184 
L 335.109341 302.919529 
L 335.780283 292.325277 
L 337.122167 267.258661 
L 337.793109 263.427583 
L 338.464051 272.498653 
L 339.805934 296.907081 
L 340.476876 306.310543 
L 341.147818 313.936793 
L 341.81876 320.167493 
L 342.489702 325.306794 
L 343.831586 333.167678 
L 345.173469 338.756584 
L 346.515353 342.812373 
L 347.857237 345.801528 
L 349.199121 348.0303 
L 350.541005 349.705224 
L 351.882888 350.968351 
L 353.224772 351.918838 
L 354.566656 352.626596 
L 355.90854 353.141099 
L 357.921365 353.623407 
L 359.934191 353.819512 
L 361.947017 353.760477 
L 363.959842 353.438984 
L 365.301726 353.054629 
L 366.64361 352.498514 
L 367.985493 351.717033 
L 369.327377 350.622762 
L 370.669261 349.071425 
L 371.340203 348.053809 
L 372.011145 346.818836 
L 372.682087 345.306926 
L 373.353029 343.438048 
L 374.02397 341.103786 
L 374.694912 338.156147 
L 375.365854 334.391952 
L 376.036796 329.531903 
L 376.707738 323.196387 
L 377.37868 314.898062 
L 378.049622 304.172243 
L 378.720564 291.502169 
L 379.391506 282.081471 
L 380.062447 285.59195 
L 381.404331 309.383773 
L 382.075273 318.702396 
L 382.746215 325.817901 
L 383.417157 331.242641 
L 384.088099 335.409835 
L 384.759041 338.643267 
L 385.429982 341.178781 
L 386.100924 343.187757 
L 386.771866 344.795354 
L 388.11375 347.151164 
L 389.455634 348.736327 
L 390.797518 349.830858 
L 392.139401 350.601193 
L 393.481285 351.150069 
L 395.494111 351.695423 
L 397.506936 352.021296 
L 400.190704 352.243117 
L 404.216355 352.308652 
L 409.58389 352.133236 
L 417.635193 351.612282 
L 431.054031 350.486679 
L 470.639602 346.837692 
L 503.515754 343.685465 
L 511.567057 342.721017 
L 516.26365 341.969187 
L 519.618359 341.197438 
L 521.631185 340.523727 
L 522.973069 339.907034 
L 524.314952 339.060288 
L 525.656836 337.820417 
L 526.327778 336.961448 
L 526.99872 335.859096 
L 527.669662 334.410499 
L 528.340604 332.458088 
L 529.011546 329.756905 
L 529.682487 325.92581 
L 530.353429 320.393556 
L 531.024371 312.439966 
L 532.366255 292.458032 
L 533.037197 293.820315 
L 534.379081 314.017069 
L 535.050023 321.244381 
L 535.720964 326.197268 
L 536.391906 329.584943 
L 537.062848 331.936105 
L 537.73379 333.598531 
L 538.404732 334.795184 
L 539.075674 335.669681 
L 539.746616 336.316012 
L 541.088499 337.155158 
L 542.430383 337.61374 
L 543.772267 337.840809 
L 545.785093 337.908461 
L 547.797918 337.754161 
L 550.481686 337.281078 
L 552.494512 336.726805 
L 554.507337 335.964662 
L 556.520163 334.9214 
L 557.862047 334.008531 
L 559.20393 332.85373 
L 560.545814 331.367268 
L 561.887698 329.414367 
L 563.229582 326.788234 
L 563.900524 325.127639 
L 564.571465 323.163872 
L 565.242407 320.824594 
L 565.913349 318.016637 
L 566.584291 314.618937 
L 567.255233 310.472621 
L 567.926175 305.367056 
L 568.597117 299.02123 
L 569.268059 291.06578 
L 569.939001 281.067567 
L 571.280884 256.22926 
L 571.951826 251.371907 
L 572.622768 259.84777 
L 573.964652 284.151686 
L 574.635594 293.335373 
L 575.306536 300.617816 
L 575.977477 306.422112 
L 576.648419 311.08795 
L 577.319361 314.871165 
L 577.990303 317.963575 
L 579.332187 322.62195 
L 580.674071 325.863678 
L 582.015954 328.171682 
L 583.357838 329.846372 
L 584.699722 331.079633 
L 586.041606 331.996943 
L 587.383489 332.682045 
L 589.396315 333.393449 
L 591.409141 333.827797 
L 593.421966 334.052071 
L 595.434792 334.096763 
L 597.447618 333.961445 
L 599.460443 333.608799 
L 600.802327 333.208392 
L 602.144211 332.61452 
L 603.486095 331.730188 
L 604.827978 330.37986 
L 605.49892 329.435515 
L 606.169862 328.229172 
L 606.840804 326.664636 
L 607.511746 324.60127 
L 608.182688 321.830727 
L 608.85363 318.04195 
L 609.524572 312.773204 
L 610.195514 305.369052 
L 610.866455 295.077857 
L 611.537397 282.128518 
L 612.208339 272.800089 
L 612.879281 278.370788 
L 614.221165 302.436142 
L 614.892107 310.547581 
L 615.563049 316.315067 
L 616.23399 320.443442 
L 616.904932 323.44452 
L 617.575874 325.665309 
L 618.246816 327.338245 
L 618.917758 328.619901 
L 619.5887 329.617095 
L 620.930584 331.032314 
L 622.272467 331.95366 
L 623.614351 332.575475 
L 625.627177 333.171153 
L 627.640003 333.526094 
L 630.32377 333.787993 
L 634.349421 333.938334 
L 640.387898 333.907707 
L 650.452027 333.590885 
L 669.909341 332.704968 
L 722.91375 330.085914 
L 722.91375 330.085914 
" clip-path="url(#pbe3b62f3db)" style="fill: none; stroke: #ff0000; stroke-width: 1.5; stroke-linecap: square"/>
   </g>
   <g id="line2d_85">
    <path d="M 55.272975 453.929375 
L 55.326576 452.844837 
L 55.997518 442.1963 
L 57.339401 425.746736 
L 58.681285 412.809637 
L 60.694111 396.242662 
L 62.706936 379.834823 
L 64.04882 367.167529 
L 65.390704 351.886251 
L 66.732588 335.776357 
L 67.40353 330.648125 
L 68.074471 329.715932 
L 68.745413 332.314207 
L 70.087297 340.375632 
L 70.758239 343.702786 
L 71.429181 346.236189 
L 72.100123 348.048335 
L 72.771065 349.262871 
L 73.442007 350.001981 
L 74.112948 350.370112 
L 74.78389 350.45144 
L 75.454832 350.312002 
L 76.125774 350.002974 
L 77.467658 349.025045 
L 78.809542 347.737324 
L 81.493309 344.70901 
L 91.557437 332.821872 
L 98.266856 325.42277 
L 103.634391 320.746483 
L 109.001926 316.158775 
L 114.369461 311.895405 
L 119.736996 307.919649 
L 125.775473 303.721616 
L 134.497718 297.946577 
L 139.865253 294.667356 
L 147.916556 289.513649 
L 151.942207 286.696832 
L 154.625974 284.611603 
L 157.309742 282.238331 
L 159.322568 280.161429 
L 161.335393 277.692623 
L 162.677277 275.733609 
L 164.019161 273.424833 
L 165.361045 270.642695 
L 166.702928 267.212329 
L 168.044812 262.884966 
L 169.386696 257.308172 
L 170.72858 249.997908 
L 172.070463 240.372525 
L 173.412347 228.19024 
L 174.754231 215.948096 
L 175.425173 212.682085 
L 176.096115 213.173778 
L 176.767057 217.063842 
L 179.450824 239.472326 
L 180.792708 247.556951 
L 182.134592 253.419765 
L 183.476475 257.638125 
L 184.818359 260.673042 
L 186.160243 262.857335 
L 187.502127 264.425549 
L 188.844011 265.542581 
L 190.185894 266.325049 
L 191.527778 266.856231 
L 192.869662 267.196286 
L 194.882487 267.441023 
L 196.895313 267.455776 
L 199.579081 267.231435 
L 202.93379 266.694153 
L 206.959441 265.818348 
L 212.997918 264.24085 
L 221.049221 261.887631 
L 231.784291 258.519087 
L 241.177477 255.360827 
L 247.215954 253.127941 
L 251.241606 251.447443 
L 254.596315 249.809887 
L 256.609141 248.639874 
L 258.621966 247.226088 
L 259.96385 246.069063 
L 261.305734 244.643378 
L 262.647618 242.803655 
L 263.989502 240.297874 
L 264.660443 238.665423 
L 265.331385 236.672973 
L 266.002327 234.208191 
L 266.673269 231.141061 
L 268.015153 223.04062 
L 270.027978 208.004339 
L 270.69892 205.405718 
L 271.369862 206.694906 
L 272.040804 211.037304 
L 273.382688 221.319858 
L 274.05363 225.415203 
L 274.724572 228.631235 
L 275.395514 231.095054 
L 276.066455 232.957571 
L 276.737397 234.35165 
L 277.408339 235.3844 
L 278.079281 236.142004 
L 278.750223 236.691969 
L 279.421165 237.078107 
L 280.763049 237.465882 
L 282.104932 237.475955 
L 283.446816 237.216256 
L 284.7887 236.747358 
L 286.130584 236.100526 
L 288.143409 234.819356 
L 290.156235 233.145688 
L 291.498119 231.775925 
L 292.840003 230.15854 
L 294.181886 228.236649 
L 295.52377 225.930942 
L 296.865654 223.131545 
L 298.207538 219.685983 
L 299.549421 215.381578 
L 300.891305 209.920291 
L 302.233189 202.886096 
L 303.575073 193.723314 
L 304.916956 181.866515 
L 306.929782 161.832129 
L 307.600724 158.684158 
L 308.271666 159.921228 
L 308.942608 164.836061 
L 310.955433 184.461083 
L 312.297317 194.81892 
L 313.639201 202.527199 
L 314.981085 208.232681 
L 316.322968 212.499821 
L 317.664852 215.647239 
L 319.006736 217.96032 
L 320.34862 219.647165 
L 321.690504 220.855818 
L 323.032387 221.692833 
L 324.374271 222.235375 
L 325.716155 222.539334 
L 327.058039 222.644864 
L 328.399922 222.580145 
L 330.412748 222.202495 
L 332.425574 221.511968 
L 334.438399 220.500909 
L 335.780283 219.625511 
L 337.122167 218.555627 
L 338.464051 217.242094 
L 339.805934 215.604893 
L 341.147818 213.508205 
L 342.489702 210.702089 
L 343.160644 208.889949 
L 343.831586 206.668483 
L 344.502528 203.868886 
L 345.173469 200.280602 
L 347.186295 187.687642 
L 347.857237 186.774601 
L 348.528179 186.371351 
L 349.199121 184.222552 
L 349.870063 180.501901 
L 350.541005 175.847304 
L 352.55383 157.148998 
L 353.224772 154.584759 
L 353.895714 157.02548 
L 354.566656 162.992922 
L 355.90854 176.58395 
L 356.579481 182.274592 
L 357.250423 187.011845 
L 357.921365 190.887556 
L 358.592307 194.027437 
L 359.263249 196.552094 
L 359.934191 198.565314 
L 360.605133 200.152 
L 361.276075 201.37923 
L 361.947017 202.297965 
L 362.617958 202.944334 
L 363.2889 203.33993 
L 363.959842 203.490458 
L 364.630784 203.381781 
L 365.301726 202.971743 
L 365.972668 202.176086 
L 366.64361 200.853517 
L 367.314552 198.841524 
L 368.656435 193.971634 
L 369.327377 192.3169 
L 370.669261 187.443043 
L 371.340203 187.00192 
L 372.011145 189.610446 
L 372.682087 193.176515 
L 373.353029 196.071372 
L 374.02397 198.010396 
L 374.694912 199.187737 
L 375.365854 199.826148 
L 376.036796 200.08106 
L 376.707738 200.042799 
L 377.37868 199.750889 
L 378.049622 199.205052 
L 378.720564 198.386015 
L 380.062447 196.381812 
L 380.733389 196.035433 
L 382.746215 196.676244 
L 383.417157 196.549018 
L 384.759041 195.860888 
L 386.100924 194.841027 
L 388.11375 192.923472 
L 389.455634 191.307105 
L 390.797518 189.521581 
L 392.139401 188.391872 
L 393.481285 186.917513 
L 395.494111 184.312712 
L 398.177878 180.399595 
L 400.861646 175.985692 
L 402.874471 172.298625 
L 404.887297 168.231829 
L 406.900123 163.715087 
L 408.912948 158.652873 
L 410.925774 152.91042 
L 412.9386 146.286072 
L 414.280483 141.22519 
L 415.622367 135.47155 
L 416.964251 128.766721 
L 418.306135 120.733778 
L 420.31896 107.601464 
L 421.660844 99.210276 
L 423.67367 82.990653 
L 425.015554 71.15119 
L 425.686495 66.588011 
L 426.357437 64.965547 
L 427.028379 67.040823 
L 427.699321 71.986905 
L 431.054031 102.618996 
L 432.395914 112.098746 
L 433.737798 120.080065 
L 435.079682 126.899924 
L 436.421566 132.813648 
L 437.763449 138.007383 
L 439.776275 144.736566 
L 441.789101 150.46906 
L 443.801926 155.421838 
L 445.814752 159.745426 
L 447.827578 163.547085 
L 449.840403 166.9041 
L 451.853229 169.871038 
L 453.866055 172.482527 
L 455.87888 174.751098 
L 457.891706 176.656474 
L 459.23359 177.687981 
L 460.575473 178.467894 
L 461.917357 178.88695 
L 462.588299 178.899189 
L 463.259241 178.723728 
L 463.930183 178.293559 
L 464.601125 177.509893 
L 465.272067 176.22822 
L 465.943009 174.245316 
L 466.61395 171.308808 
L 467.284892 167.224808 
L 468.626776 157.944687 
L 469.297718 157.080287 
L 469.96866 160.501402 
L 471.310544 170.873508 
L 471.981485 174.943997 
L 472.652427 178.067606 
L 473.323369 180.453322 
L 473.994311 182.299909 
L 474.665253 183.758042 
L 476.007137 185.903308 
L 477.349021 187.409689 
L 478.690904 188.53355 
L 480.032788 189.405796 
L 482.045614 190.372503 
L 483.387497 190.788278 
L 484.058439 190.88559 
L 484.729381 190.849266 
L 485.400323 190.656791 
L 486.071265 190.618147 
L 488.084091 191.811876 
L 489.425974 192.059922 
L 490.767858 191.962254 
L 491.4388 191.75866 
L 492.780684 190.972107 
L 493.451626 190.526416 
L 494.122568 190.349187 
L 494.79351 190.609647 
L 496.806335 192.176882 
L 498.148219 192.753761 
L 499.490103 193.031125 
L 501.502928 193.159442 
L 504.186696 193.044165 
L 506.870463 192.714552 
L 510.225173 192.048421 
L 512.90894 191.313427 
L 515.592708 190.385903 
L 518.276475 189.245086 
L 520.960243 187.862158 
L 523.644011 186.199115 
L 526.327778 184.206672 
L 528.340604 182.458491 
L 530.353429 180.455911 
L 532.366255 178.157767 
L 534.379081 175.513288 
L 536.391906 172.459124 
L 538.404732 168.915031 
L 540.417558 164.777335 
L 542.430383 159.90863 
L 543.772267 156.166668 
L 545.114151 151.944096 
L 546.456035 147.145819 
L 547.797918 141.646348 
L 549.139802 135.276215 
L 550.481686 127.802112 
L 551.82357 118.902429 
L 553.165453 108.164633 
L 554.507337 95.279808 
L 555.849221 81.393626 
L 556.520163 75.985431 
L 557.191105 73.728911 
L 557.862047 75.599636 
L 558.532988 80.729627 
L 561.216756 107.037611 
L 562.55864 117.600543 
L 563.900524 126.313298 
L 565.242407 133.590803 
L 566.584291 139.758394 
L 567.926175 145.052309 
L 569.268059 149.644122 
L 570.609942 153.660828 
L 572.622768 158.811875 
L 574.635594 163.119952 
L 576.648419 166.755523 
L 578.661245 169.844516 
L 580.674071 172.482824 
L 582.686896 174.745254 
L 584.699722 176.691282 
L 586.712548 178.368913 
L 588.725373 179.817361 
L 591.409141 181.447208 
L 594.092908 182.788546 
L 596.776676 183.890388 
L 600.131385 184.989599 
L 603.486095 185.83463 
L 606.840804 186.470602 
L 610.866455 187.002824 
L 614.221165 187.257954 
L 616.23399 187.200606 
L 616.904932 187.146526 
L 619.5887 187.451033 
L 622.943409 187.423226 
L 625.627177 187.162109 
L 626.969061 186.837107 
L 628.310944 186.253292 
L 628.981886 185.929326 
L 629.652828 185.768876 
L 630.32377 185.871688 
L 632.336596 186.552326 
L 633.678479 186.723045 
L 635.691305 186.72282 
L 639.046015 186.452137 
L 643.071666 185.900246 
L 646.426375 185.256787 
L 649.110143 184.568306 
L 651.122968 183.885211 
L 653.135794 182.939131 
L 654.477678 182.043325 
L 657.161445 179.744101 
L 658.503329 178.176816 
L 659.174271 177.126559 
L 661.858039 172.161929 
L 662.52898 170.419545 
L 663.199922 167.966012 
L 663.870864 164.689417 
L 664.541806 160.474985 
L 665.88369 149.37774 
L 666.554632 143.86607 
L 667.225574 140.933352 
L 667.896516 142.326294 
L 668.567457 147.079648 
L 669.909341 158.109971 
L 670.580283 162.404285 
L 671.251225 165.732797 
L 671.922167 168.295252 
L 672.593109 170.320429 
L 673.264051 171.939062 
L 673.934992 173.206273 
L 674.605934 174.175925 
L 675.276876 174.906661 
L 675.947818 175.449534 
L 677.289702 176.121255 
L 678.631586 176.405203 
L 679.973469 176.422295 
L 681.315353 176.241966 
L 683.328179 175.68374 
L 685.341005 174.833155 
L 687.35383 173.703686 
L 689.366656 172.271619 
L 691.379481 170.476107 
L 692.721365 169.024629 
L 694.063249 167.30996 
L 695.405133 165.250118 
L 696.747017 162.712104 
L 698.0889 159.464877 
L 698.759842 157.453396 
L 699.430784 155.079162 
L 700.101726 152.227495 
L 700.772668 148.752927 
L 701.44361 144.514616 
L 702.785493 134.433829 
L 703.456435 130.962895 
L 704.127377 130.881244 
L 705.469261 135.827878 
L 706.140203 137.151148 
L 706.811145 137.127034 
L 707.482087 135.981002 
L 708.153029 133.94736 
L 708.82397 131.183613 
L 709.494912 127.774069 
L 710.836796 119.103663 
L 712.17868 107.858358 
L 714.862447 82.261714 
L 715.533389 80.39709 
L 716.204331 82.769663 
L 716.875273 88.268767 
L 718.888099 108.463991 
L 720.229982 119.612354 
L 721.571866 128.5457 
L 722.91375 135.731534 
L 722.91375 135.731534 
" clip-path="url(#pbe3b62f3db)" style="fill: none; stroke: #0000ff; stroke-width: 1.5; stroke-linecap: square"/>
   </g>
   <g id="line2d_86">
    <path d="M 53.31375 412.156287 
L 53.984692 406.618918 
L 55.326576 402.78751 
L 56.668459 398.829258 
L 58.010343 394.109547 
L 59.352227 388.71002 
L 60.694111 382.604805 
L 62.035994 375.521069 
L 63.377878 366.82606 
L 64.719762 355.484769 
L 66.732588 333.884922 
L 67.40353 329.04214 
L 68.074471 328.089638 
L 68.745413 330.40378 
L 70.087297 337.405166 
L 70.758239 340.104554 
L 71.429181 342.013533 
L 72.100123 343.22942 
L 72.771065 343.88478 
L 73.442007 344.100599 
L 74.112948 343.974523 
L 74.78389 343.581274 
L 75.454832 342.976417 
L 76.796716 341.282065 
L 78.1386 339.089611 
L 79.480483 336.475981 
L 80.822367 333.429609 
L 82.164251 329.852704 
L 83.506135 325.529592 
L 84.848019 320.024536 
L 85.51896 316.55432 
L 86.189902 312.244774 
L 86.860844 306.313865 
L 87.531786 297.638092 
L 88.202728 285.472572 
L 89.544612 256.699539 
L 90.215554 244.91884 
L 90.886495 236.836946 
L 91.557437 232.176654 
L 92.228379 229.935808 
L 92.899321 228.318967 
L 93.570263 227.693874 
L 94.241205 229.234151 
L 94.912147 235.054774 
L 95.583089 245.463564 
L 97.595914 285.76346 
L 98.266856 295.370022 
L 98.937798 301.523888 
L 99.60874 305.352265 
L 100.279682 307.898097 
L 100.950624 309.716921 
L 101.621566 311.035591 
L 102.292508 311.986888 
L 102.963449 312.659818 
L 103.634391 313.117546 
L 104.305333 313.406416 
L 105.647217 313.608551 
L 106.989101 313.458705 
L 108.330984 313.074462 
L 110.34381 312.214596 
L 113.027578 310.753546 
L 116.382287 308.657217 
L 120.407938 305.90383 
L 123.091706 303.885754 
L 125.104532 302.14641 
L 126.446415 300.734156 
L 127.788299 298.855151 
L 128.459241 297.565339 
L 129.130183 295.838556 
L 129.801125 293.367227 
L 130.472067 289.617352 
L 131.143009 283.907967 
L 131.81395 276.918341 
L 132.484892 274.60303 
L 134.497718 289.953267 
L 135.16866 292.099935 
L 135.839602 293.243663 
L 136.510544 293.817025 
L 137.181485 294.056673 
L 137.852427 294.092812 
L 139.194311 293.820683 
L 141.207137 292.994968 
L 143.890904 291.573899 
L 147.916556 289.140352 
L 151.942207 286.416367 
L 154.625974 284.372159 
L 157.309742 282.03194 
L 159.322568 279.977158 
L 161.335393 277.529669 
L 162.677277 275.584987 
L 164.019161 273.290996 
L 165.361045 270.524359 
L 166.702928 267.110393 
L 168.044812 262.800346 
L 169.386696 257.241508 
L 170.72858 249.949104 
L 172.070463 240.34015 
L 173.412347 228.170983 
L 174.754231 215.936662 
L 175.425173 212.67212 
L 176.096115 213.163567 
L 176.767057 217.051728 
L 179.450824 239.440059 
L 180.792708 247.510872 
L 182.134592 253.359931 
L 183.476475 257.565705 
L 184.818359 260.589705 
L 186.160243 262.764844 
L 187.502127 264.325549 
L 188.844011 265.436507 
L 190.185894 266.214107 
L 191.527778 266.741416 
L 192.869662 267.07841 
L 194.882487 267.319745 
L 196.895313 267.332181 
L 199.579081 267.105943 
L 202.93379 266.567578 
L 206.959441 265.69165 
L 212.997918 264.115313 
L 221.049221 261.764912 
L 231.784291 258.401313 
L 241.177477 255.248421 
L 247.215954 253.019893 
L 251.241606 251.343104 
L 254.596315 249.709583 
L 256.609141 248.542705 
L 258.621966 247.132937 
L 259.96385 245.979329 
L 261.305734 244.557927 
L 262.647618 242.723715 
L 263.989502 240.2252 
L 264.660443 238.59725 
L 265.331385 236.610005 
L 266.002327 234.151199 
L 266.673269 231.090797 
L 268.015153 223.004693 
L 270.027978 207.985163 
L 270.69892 205.388461 
L 271.369862 206.676546 
L 272.040804 211.015028 
L 273.382688 221.284729 
L 274.05363 225.373029 
L 274.724572 228.58248 
L 275.395514 231.040481 
L 276.066455 232.898042 
L 276.737397 234.288004 
L 277.408339 235.317396 
L 278.079281 236.072285 
L 278.750223 236.620062 
L 279.421165 237.004452 
L 280.763049 237.389832 
L 282.104932 237.398633 
L 283.446816 237.138459 
L 284.7887 236.669666 
L 286.130584 236.023371 
L 288.143409 234.743565 
L 290.156235 233.071584 
L 291.498119 231.702827 
L 292.840003 230.085917 
L 294.181886 228.163111 
L 295.52377 225.852939 
L 296.865654 223.038991 
L 298.207538 219.543699 
L 299.549421 215.100877 
L 300.891305 209.771947 
L 302.233189 202.834729 
L 303.575073 193.699657 
L 304.916956 181.854683 
L 306.929782 161.82769 
L 307.600724 158.680354 
L 308.271666 159.917269 
L 308.942608 164.83121 
L 310.955433 184.449871 
L 312.297317 194.801305 
L 313.639201 202.502357 
L 314.981085 208.200375 
L 316.322968 212.460141 
L 317.664852 215.600566 
L 319.006736 217.907068 
L 320.34862 219.587646 
L 321.690504 220.790146 
L 323.032387 221.620831 
L 324.374271 222.156451 
L 325.716155 222.452298 
L 327.058039 222.547592 
L 328.399922 222.468945 
L 329.741806 222.23217 
L 331.08369 221.842148 
L 332.425574 221.28895 
L 333.767457 220.532482 
L 335.109341 219.43758 
L 335.780283 218.63107 
L 336.451225 217.465901 
L 337.122167 215.863322 
L 337.793109 214.867546 
L 338.464051 215.183237 
L 339.134992 215.305748 
L 339.805934 214.913689 
L 340.476876 214.181403 
L 341.147818 213.202258 
L 341.81876 211.995212 
L 342.489702 210.535394 
L 343.160644 208.761581 
L 343.831586 206.568443 
L 344.502528 203.790991 
L 345.173469 200.22081 
L 347.186295 187.660373 
L 347.857237 186.749897 
L 348.528179 186.348288 
L 349.199121 184.202441 
L 349.870063 180.485414 
L 350.541005 175.834254 
L 352.55383 157.143591 
L 353.224772 154.580008 
L 353.895714 157.020289 
L 354.566656 162.986304 
L 355.90854 176.572332 
L 356.579481 182.259874 
L 357.250423 186.993923 
L 357.921365 190.866496 
L 358.592307 194.003428 
L 359.263249 196.525405 
L 359.934191 198.536257 
L 360.605133 200.120901 
L 361.276075 201.346418 
L 361.947017 202.263759 
L 362.617958 202.909049 
L 363.2889 203.303874 
L 363.959842 203.453951 
L 364.630784 203.345172 
L 365.301726 202.935447 
L 365.972668 202.140626 
L 366.64361 200.819579 
L 367.314552 198.809917 
L 368.656435 193.944961 
L 369.327377 192.291418 
L 370.669261 187.420955 
L 371.340203 186.979277 
L 372.011145 189.583731 
L 372.682087 193.143278 
L 373.353029 196.030577 
L 374.02397 197.961371 
L 374.694912 199.129198 
L 375.365854 199.755411 
L 376.036796 199.992934 
L 376.707738 199.9273 
L 377.37868 199.588028 
L 378.049622 198.95311 
L 378.720564 197.967893 
L 379.391506 196.742837 
L 380.062447 195.887938 
L 380.733389 195.744487 
L 382.075273 196.463186 
L 382.746215 196.586939 
L 383.417157 196.47867 
L 384.759041 195.811202 
L 386.100924 194.801916 
L 388.11375 192.893102 
L 389.455634 191.280644 
L 390.797518 189.498204 
L 392.139401 188.37033 
L 393.481285 186.897766 
L 395.494111 184.295469 
L 398.177878 180.385273 
L 400.861646 175.973938 
L 402.874471 172.288612 
L 404.887297 168.22342 
L 406.900123 163.708147 
L 408.912948 158.647273 
L 410.925774 152.906026 
L 412.9386 146.282751 
L 414.280483 141.222509 
L 415.622367 135.469449 
L 416.964251 128.76514 
L 418.306135 120.732654 
L 420.31896 107.600821 
L 421.660844 99.209826 
L 423.67367 82.990427 
L 425.015554 71.151054 
L 425.686495 66.587899 
L 426.357437 64.965442 
L 427.028379 67.040708 
L 427.699321 71.986762 
L 431.054031 102.618456 
L 432.395914 112.097931 
L 433.737798 120.078909 
L 435.079682 126.898365 
L 436.421566 132.811626 
L 437.763449 138.004842 
L 439.776275 144.733144 
L 441.789101 150.464645 
L 443.801926 155.416331 
L 445.814752 159.738739 
L 447.827578 163.539146 
L 449.840403 166.894853 
L 451.853229 169.860446 
L 453.866055 172.47058 
L 455.87888 174.737819 
L 457.891706 176.641944 
L 459.23359 177.672711 
L 460.575473 178.452017 
L 461.917357 178.870697 
L 462.588299 178.882885 
L 463.259241 178.707502 
L 463.930183 178.277589 
L 464.601125 177.494411 
L 465.272067 176.21353 
L 465.943009 174.231791 
L 466.61395 171.296857 
L 467.284892 167.214757 
L 468.626776 157.937909 
L 469.297718 157.073739 
L 469.96866 160.493795 
L 471.310544 170.861557 
L 471.981485 174.92972 
L 472.652427 178.051232 
L 473.323369 180.435128 
L 473.994311 182.280158 
L 474.665253 183.736956 
L 476.007137 185.880059 
L 477.349021 187.38475 
L 478.690904 188.507235 
L 480.032788 189.378328 
L 482.045614 190.343637 
L 483.387497 190.758732 
L 484.058439 190.855841 
L 484.729381 190.819483 
L 485.400323 190.627173 
L 486.071265 190.588499 
L 488.084091 191.780409 
L 489.425974 192.027944 
L 490.767858 191.930235 
L 491.4388 191.726832 
L 492.780684 190.941167 
L 493.451626 190.495979 
L 494.122568 190.318897 
L 494.79351 190.57893 
L 496.806335 192.143742 
L 498.148219 192.719592 
L 499.490103 192.996344 
L 501.502928 193.124155 
L 504.186696 193.008618 
L 506.870463 192.679048 
L 510.225173 192.013305 
L 512.90894 191.278856 
L 515.592708 190.352056 
L 518.276475 189.212089 
L 520.960243 187.830021 
L 523.644011 186.167538 
L 526.327778 184.174316 
L 528.340604 182.422064 
L 530.353429 180.39976 
L 532.366255 177.988881 
L 534.379081 175.453568 
L 536.391906 172.432315 
L 538.404732 168.896636 
L 540.417558 164.763211 
L 542.430383 159.897571 
L 543.772267 156.157345 
L 545.114151 151.936348 
L 546.456035 147.139507 
L 547.797918 141.64134 
L 549.139802 135.272375 
L 550.481686 127.799296 
L 551.82357 118.90048 
L 553.165453 108.163382 
L 554.507337 95.279073 
L 555.849221 81.39321 
L 556.520163 75.985096 
L 557.191105 73.728601 
L 557.862047 75.599293 
L 558.532988 80.72919 
L 561.216756 107.036065 
L 562.55864 117.597859 
L 563.900524 126.30884 
L 565.242407 133.583465 
L 566.584291 139.745896 
L 567.926175 145.028937 
L 569.268059 149.591443 
L 570.609942 153.498207 
L 573.964652 161.6466 
L 575.977477 165.555811 
L 577.990303 168.831287 
L 580.003129 171.616104 
L 582.015954 173.998456 
L 584.02878 176.044495 
L 586.041606 177.806489 
L 588.054431 179.326686 
L 590.738199 181.036451 
L 593.421966 182.443347 
L 596.105734 183.599351 
L 598.789502 184.545641 
L 602.144211 185.482663 
L 605.49892 186.190118 
L 608.85363 186.684537 
L 610.866455 186.782281 
L 612.208339 186.554396 
L 614.892107 187.159461 
L 616.23399 187.125731 
L 616.904932 187.080866 
L 619.5887 187.400013 
L 622.272467 187.403071 
L 624.956235 187.216943 
L 626.298119 186.9833 
L 627.640003 186.537413 
L 628.981886 185.889199 
L 629.652828 185.729126 
L 630.32377 185.831846 
L 632.336596 186.511479 
L 633.678479 186.681963 
L 635.691305 186.68178 
L 639.046015 186.411538 
L 643.071666 185.860451 
L 646.426375 185.217905 
L 649.110143 184.5304 
L 651.122968 183.848278 
L 653.135794 182.903544 
L 654.477678 182.008999 
L 657.161445 179.71285 
L 658.503329 178.147526 
L 659.174271 177.098526 
L 661.858039 172.139167 
L 662.52898 170.398398 
L 663.199922 167.946958 
L 663.870864 164.672846 
L 664.541806 160.461144 
L 665.88369 149.36913 
L 666.554632 143.859269 
L 667.225574 140.92735 
L 667.896516 142.319912 
L 668.567457 147.071806 
L 669.909341 158.097329 
L 670.580283 162.389055 
L 671.251225 165.715196 
L 671.922167 168.275572 
L 672.593109 170.298927 
L 673.264051 171.915976 
L 673.934992 173.181859 
L 674.605934 174.150435 
L 675.276876 174.880319 
L 675.947818 175.42253 
L 677.289702 176.09338 
L 678.631586 176.376904 
L 679.973469 176.393895 
L 681.315353 176.213704 
L 683.328179 175.656029 
L 685.341005 174.806325 
L 687.35383 173.678017 
L 689.366656 172.24738 
L 691.379481 170.453573 
L 692.721365 169.003397 
L 694.063249 167.290182 
L 695.405133 165.231965 
L 696.747017 162.695783 
L 698.0889 159.450643 
L 698.759842 157.440324 
L 699.430784 155.067342 
L 700.101726 152.217026 
L 700.772668 148.743899 
L 701.44361 144.507082 
L 702.785493 134.428934 
L 703.456435 130.958672 
L 704.127377 130.877031 
L 705.469261 135.82265 
L 706.140203 137.145605 
L 706.811145 137.121489 
L 707.482087 135.975717 
L 708.153029 133.942511 
L 708.82397 131.179301 
L 709.494912 127.770341 
L 710.836796 119.101089 
L 712.17868 107.856767 
L 714.862447 82.261183 
L 715.533389 80.396599 
L 716.204331 82.769118 
L 716.875273 88.268076 
L 718.888099 108.462335 
L 720.229982 119.60967 
L 721.571866 128.541747 
L 722.91375 135.726133 
L 722.91375 135.726133 
" clip-path="url(#pbe3b62f3db)" style="fill: none; stroke: #000000; stroke-width: 1.5; stroke-linecap: square"/>
   </g>
   <g id="patch_3">
    <path d="M 53.31375 413.4375 
L 53.31375 25.3575 
" style="fill: none; stroke: #000000; stroke-width: 0.8; stroke-linejoin: miter; stroke-linecap: square"/>
   </g>
   <g id="patch_4">
    <path d="M 722.91375 413.4375 
L 722.91375 25.3575 
" style="fill: none; stroke: #000000; stroke-width: 0.8; stroke-linejoin: miter; stroke-linecap: square"/>
   </g>
   <g id="patch_5">
    <path d="M 53.31375 413.4375 
L 722.91375 413.4375 
" style="fill: none; stroke: #000000; stroke-width: 0.8; stroke-linejoin: miter; stroke-linecap: square"/>
   </g>
   <g id="patch_6">
    <path d="M 53.31375 25.3575 
L 722.91375 25.3575 
" style="fill: none; stroke: #000000; stroke-width: 0.8; stroke-linejoin: miter; stroke-linecap: square"/>
   </g>
   <g id="text_14">
    <!-- Specific attenuation for standard conditions, according to ITU-R P.676 (10), annex 1 -->
    <g transform="translate(53.5875 19.3575) scale(0.16 -0.16)">
     <defs>
      <path id="DejaVuSans-73" d="M 2834 3397 
L 2834 2853 
Q 2591 2978 2328 3040 
Q 2066 3103 1784 3103 
Q 1356 3103 1142 2972 
Q 928 2841 928 2578 
Q 928 2378 1081 2264 
Q 1234 2150 1697 2047 
L 1894 2003 
Q 2506 1872 2764 1633 
Q 3022 1394 3022 966 
Q 3022 478 2636 193 
Q 2250 -91 1575 -91 
Q 1294 -91 989 -36 
Q 684 19 347 128 
L 347 722 
Q 666 556 975 473 
Q 1284 391 1588 391 
Q 1994 391 2212 530 
Q 2431 669 2431 922 
Q 2431 1156 2273 1281 
Q 2116 1406 1581 1522 
L 1381 1569 
Q 847 1681 609 1914 
Q 372 2147 372 2553 
Q 372 3047 722 3315 
Q 1072 3584 1716 3584 
Q 2034 3584 2315 3537 
Q 2597 3491 2834 3397 
z
" transform="scale(0.015625)"/>
      <path id="DejaVuSans-2c" d="M 750 794 
L 1409 794 
L 1409 256 
L 897 -744 
L 494 -744 
L 750 256 
L 750 794 
z
" transform="scale(0.015625)"/>
      <path id="DejaVuSans-67" d="M 2906 1791 
Q 2906 2416 2648 2759 
Q 2391 3103 1925 3103 
Q 1463 3103 1205 2759 
Q 947 2416 947 1791 
Q 947 1169 1205 825 
Q 1463 481 1925 481 
Q 2391 481 2648 825 
Q 2906 1169 2906 1791 
z
M 3481 434 
Q 3481 -459 3084 -895 
Q 2688 -1331 1869 -1331 
Q 1566 -1331 1297 -1286 
Q 1028 -1241 775 -1147 
L 775 -588 
Q 1028 -725 1275 -790 
Q 1522 -856 1778 -856 
Q 2344 -856 2625 -561 
Q 2906 -266 2906 331 
L 2906 616 
Q 2728 306 2450 153 
Q 2172 0 1784 0 
Q 1141 0 747 490 
Q 353 981 353 1791 
Q 353 2603 747 3093 
Q 1141 3584 1784 3584 
Q 2172 3584 2450 3431 
Q 2728 3278 2906 2969 
L 2906 3500 
L 3481 3500 
L 3481 434 
z
" transform="scale(0.015625)"/>
      <path id="DejaVuSans-49" d="M 628 4666 
L 1259 4666 
L 1259 0 
L 628 0 
L 628 4666 
z
" transform="scale(0.015625)"/>
      <path id="DejaVuSans-54" d="M -19 4666 
L 3928 4666 
L 3928 4134 
L 2272 4134 
L 2272 0 
L 1638 0 
L 1638 4134 
L -19 4134 
L -19 4666 
z
" transform="scale(0.015625)"/>
      <path id="DejaVuSans-55" d="M 556 4666 
L 1191 4666 
L 1191 1831 
Q 1191 1081 1462 751 
Q 1734 422 2344 422 
Q 2950 422 3222 751 
Q 3494 1081 3494 1831 
L 3494 4666 
L 4128 4666 
L 4128 1753 
Q 4128 841 3676 375 
Q 3225 -91 2344 -91 
Q 1459 -91 1007 375 
Q 556 841 556 1753 
L 556 4666 
z
" transform="scale(0.015625)"/>
      <path id="DejaVuSans-2d" d="M 313 2009 
L 1997 2009 
L 1997 1497 
L 313 1497 
L 313 2009 
z
" transform="scale(0.015625)"/>
      <path id="DejaVuSans-52" d="M 2841 2188 
Q 3044 2119 3236 1894 
Q 3428 1669 3622 1275 
L 4263 0 
L 3584 0 
L 2988 1197 
Q 2756 1666 2539 1819 
Q 2322 1972 1947 1972 
L 1259 1972 
L 1259 0 
L 628 0 
L 628 4666 
L 2053 4666 
Q 2853 4666 3247 4331 
Q 3641 3997 3641 3322 
Q 3641 2881 3436 2590 
Q 3231 2300 2841 2188 
z
M 1259 4147 
L 1259 2491 
L 2053 2491 
Q 2509 2491 2742 2702 
Q 2975 2913 2975 3322 
Q 2975 3731 2742 3939 
Q 2509 4147 2053 4147 
L 1259 4147 
z
" transform="scale(0.015625)"/>
      <path id="DejaVuSans-50" d="M 1259 4147 
L 1259 2394 
L 2053 2394 
Q 2494 2394 2734 2622 
Q 2975 2850 2975 3272 
Q 2975 3691 2734 3919 
Q 2494 4147 2053 4147 
L 1259 4147 
z
M 628 4666 
L 2053 4666 
Q 2838 4666 3239 4311 
Q 3641 3956 3641 3272 
Q 3641 2581 3239 2228 
Q 2838 1875 2053 1875 
L 1259 1875 
L 1259 0 
L 628 0 
L 628 4666 
z
" transform="scale(0.015625)"/>
      <path id="DejaVuSans-2e" d="M 684 794 
L 1344 794 
L 1344 0 
L 684 0 
L 684 794 
z
" transform="scale(0.015625)"/>
      <path id="DejaVuSans-37" d="M 525 4666 
L 3525 4666 
L 3525 4397 
L 1831 0 
L 1172 0 
L 2766 4134 
L 525 4134 
L 525 4666 
z
" transform="scale(0.015625)"/>
      <path id="DejaVuSans-28" d="M 1984 4856 
Q 1566 4138 1362 3434 
Q 1159 2731 1159 2009 
Q 1159 1288 1364 580 
Q 1569 -128 1984 -844 
L 1484 -844 
Q 1016 -109 783 600 
Q 550 1309 550 2009 
Q 550 2706 781 3412 
Q 1013 4119 1484 4856 
L 1984 4856 
z
" transform="scale(0.015625)"/>
      <path id="DejaVuSans-29" d="M 513 4856 
L 1013 4856 
Q 1481 4119 1714 3412 
Q 1947 2706 1947 2009 
Q 1947 1309 1714 600 
Q 1481 -109 1013 -844 
L 513 -844 
Q 928 -128 1133 580 
Q 1338 1288 1338 2009 
Q 1338 2731 1133 3434 
Q 928 4138 513 4856 
z
" transform="scale(0.015625)"/>
      <path id="DejaVuSans-78" d="M 3513 3500 
L 2247 1797 
L 3578 0 
L 2900 0 
L 1881 1375 
L 863 0 
L 184 0 
L 1544 1831 
L 300 3500 
L 978 3500 
L 1906 2253 
L 2834 3500 
L 3513 3500 
z
" transform="scale(0.015625)"/>
     </defs>
     <use xlink:href="#DejaVuSans-53"/>
     <use xlink:href="#DejaVuSans-70" transform="translate(63.476562 0)"/>
     <use xlink:href="#DejaVuSans-65" transform="translate(126.953125 0)"/>
     <use xlink:href="#DejaVuSans-63" transform="translate(188.476562 0)"/>
     <use xlink:href="#DejaVuSans-69" transform="translate(243.457031 0)"/>
     <use xlink:href="#DejaVuSans-66" transform="translate(271.240234 0)"/>
     <use xlink:href="#DejaVuSans-69" transform="translate(306.445312 0)"/>
     <use xlink:href="#DejaVuSans-63" transform="translate(334.228516 0)"/>
     <use xlink:href="#DejaVuSans-20" transform="translate(389.208984 0)"/>
     <use xlink:href="#DejaVuSans-61" transform="translate(420.996094 0)"/>
     <use xlink:href="#DejaVuSans-74" transform="translate(482.275391 0)"/>
     <use xlink:href="#DejaVuSans-74" transform="translate(521.484375 0)"/>
     <use xlink:href="#DejaVuSans-65" transform="translate(560.693359 0)"/>
     <use xlink:href="#DejaVuSans-6e" transform="translate(622.216797 0)"/>
     <use xlink:href="#DejaVuSans-75" transform="translate(685.595703 0)"/>
     <use xlink:href="#DejaVuSans-61" transform="translate(748.974609 0)"/>
     <use xlink:href="#DejaVuSans-74" transform="translate(810.253906 0)"/>
     <use xlink:href="#DejaVuSans-69" transform="translate(849.462891 0)"/>
     <use xlink:href="#DejaVuSans-6f" transform="translate(877.246094 0)"/>
     <use xlink:href="#DejaVuSans-6e" transform="translate(938.427734 0)"/>
     <use xlink:href="#DejaVuSans-20" transform="translate(1001.806641 0)"/>
     <use xlink:href="#DejaVuSans-66" transform="translate(1033.59375 0)"/>
     <use xlink:href="#DejaVuSans-6f" transform="translate(1068.798828 0)"/>
     <use xlink:href="#DejaVuSans-72" transform="translate(1129.980469 0)"/>
     <use xlink:href="#DejaVuSans-20" transform="translate(1171.09375 0)"/>
     <use xlink:href="#DejaVuSans-73" transform="translate(1202.880859 0)"/>
     <use xlink:href="#DejaVuSans-74" transform="translate(1254.980469 0)"/>
     <use xlink:href="#DejaVuSans-61" transform="translate(1294.189453 0)"/>
     <use xlink:href="#DejaVuSans-6e" transform="translate(1355.46875 0)"/>
     <use xlink:href="#DejaVuSans-64" transform="translate(1418.847656 0)"/>
     <use xlink:href="#DejaVuSans-61" transform="translate(1482.324219 0)"/>
     <use xlink:href="#DejaVuSans-72" transform="translate(1543.603516 0)"/>
     <use xlink:href="#DejaVuSans-64" transform="translate(1582.966797 0)"/>
     <use xlink:href="#DejaVuSans-20" transform="translate(1646.443359 0)"/>
     <use xlink:href="#DejaVuSans-63" transform="translate(1678.230469 0)"/>
     <use xlink:href="#DejaVuSans-6f" transform="translate(1733.210938 0)"/>
     <use xlink:href="#DejaVuSans-6e" transform="translate(1794.392578 0)"/>
     <use xlink:href="#DejaVuSans-64" transform="translate(1857.771484 0)"/>
     <use xlink:href="#DejaVuSans-69" transform="translate(1921.248047 0)"/>
     <use xlink:href="#DejaVuSans-74" transform="translate(1949.03125 0)"/>
     <use xlink:href="#DejaVuSans-69" transform="translate(1988.240234 0)"/>
     <use xlink:href="#DejaVuSans-6f" transform="translate(2016.023438 0)"/>
     <use xlink:href="#DejaVuSans-6e" transform="translate(2077.205078 0)"/>
     <use xlink:href="#DejaVuSans-73" transform="translate(2140.583984 0)"/>
     <use xlink:href="#DejaVuSans-2c" transform="translate(2192.683594 0)"/>
     <use xlink:href="#DejaVuSans-20" transform="translate(2224.470703 0)"/>
     <use xlink:href="#DejaVuSans-61" transform="translate(2256.257812 0)"/>
     <use xlink:href="#DejaVuSans-63" transform="translate(2317.537109 0)"/>
     <use xlink:href="#DejaVuSans-63" transform="translate(2372.517578 0)"/>
     <use xlink:href="#DejaVuSans-6f" transform="translate(2427.498047 0)"/>
     <use xlink:href="#DejaVuSans-72" transform="translate(2488.679688 0)"/>
     <use xlink:href="#DejaVuSans-64" transform="translate(2528.042969 0)"/>
     <use xlink:href="#DejaVuSans-69" transform="translate(2591.519531 0)"/>
     <use xlink:href="#DejaVuSans-6e" transform="translate(2619.302734 0)"/>
     <use xlink:href="#DejaVuSans-67" transform="translate(2682.681641 0)"/>
     <use xlink:href="#DejaVuSans-20" transform="translate(2746.158203 0)"/>
     <use xlink:href="#DejaVuSans-74" transform="translate(2777.945312 0)"/>
     <use xlink:href="#DejaVuSans-6f" transform="translate(2817.154297 0)"/>
     <use xlink:href="#DejaVuSans-20" transform="translate(2878.335938 0)"/>
     <use xlink:href="#DejaVuSans-49" transform="translate(2910.123047 0)"/>
     <use xlink:href="#DejaVuSans-54" transform="translate(2939.615234 0)"/>
     <use xlink:href="#DejaVuSans-55" transform="translate(3000.699219 0)"/>
     <use xlink:href="#DejaVuSans-2d" transform="translate(3073.892578 0)"/>
     <use xlink:href="#DejaVuSans-52" transform="translate(3109.976562 0)"/>
     <use xlink:href="#DejaVuSans-20" transform="translate(3179.458984 0)"/>
     <use xlink:href="#DejaVuSans-50" transform="translate(3211.246094 0)"/>
     <use xlink:href="#DejaVuSans-2e" transform="translate(3255.923828 0)"/>
     <use xlink:href="#DejaVuSans-36" transform="translate(3287.710938 0)"/>
     <use xlink:href="#DejaVuSans-37" transform="translate(3351.333984 0)"/>
     <use xlink:href="#DejaVuSans-36" transform="translate(3414.957031 0)"/>
     <use xlink:href="#DejaVuSans-20" transform="translate(3478.580078 0)"/>
     <use xlink:href="#DejaVuSans-28" transform="translate(3510.367188 0)"/>
     <use xlink:href="#DejaVuSans-31" transform="translate(3549.380859 0)"/>
     <use xlink:href="#DejaVuSans-30" transform="translate(3613.003906 0)"/>
     <use xlink:href="#DejaVuSans-29" transform="translate(3676.626953 0)"/>
     <use xlink:href="#DejaVuSans-2c" transform="translate(3715.640625 0)"/>
     <use xlink:href="#DejaVuSans-20" transform="translate(3747.427734 0)"/>
     <use xlink:href="#DejaVuSans-61" transform="translate(3779.214844 0)"/>
     <use xlink:href="#DejaVuSans-6e" transform="translate(3840.494141 0)"/>
     <use xlink:href="#DejaVuSans-6e" transform="translate(3903.873047 0)"/>
     <use xlink:href="#DejaVuSans-65" transform="translate(3967.251953 0)"/>
     <use xlink:href="#DejaVuSans-78" transform="translate(4027.025391 0)"/>
     <use xlink:href="#DejaVuSans-20" transform="translate(4086.205078 0)"/>
     <use xlink:href="#DejaVuSans-31" transform="translate(4117.992188 0)"/>
    </g>
   </g>
   <g id="legend_1">
    <g id="patch_7">
     <path d="M 60.31375 77.391875 
L 127.8825 77.391875 
Q 129.8825 77.391875 129.8825 75.391875 
L 129.8825 32.3575 
Q 129.8825 30.3575 127.8825 30.3575 
L 60.31375 30.3575 
Q 58.31375 30.3575 58.31375 32.3575 
L 58.31375 75.391875 
Q 58.31375 77.391875 60.31375 77.391875 
z
" style="fill: #ffffff; opacity: 0.8; stroke: #cccccc; stroke-linejoin: miter"/>
    </g>
    <g id="line2d_87">
     <path d="M 62.31375 38.455938 
L 72.31375 38.455938 
L 82.31375 38.455938 
" style="fill: none; stroke: #ff0000; stroke-width: 1.5; stroke-linecap: square"/>
    </g>
    <g id="text_15">
     <!-- Dry air -->
     <g transform="translate(90.31375 41.955938) scale(0.1 -0.1)">
      <defs>
       <path id="DejaVuSans-44" d="M 1259 4147 
L 1259 519 
L 2022 519 
Q 2988 519 3436 956 
Q 3884 1394 3884 2338 
Q 3884 3275 3436 3711 
Q 2988 4147 2022 4147 
L 1259 4147 
z
M 628 4666 
L 1925 4666 
Q 3281 4666 3915 4102 
Q 4550 3538 4550 2338 
Q 4550 1131 3912 565 
Q 3275 0 1925 0 
L 628 0 
L 628 4666 
z
" transform="scale(0.015625)"/>
      </defs>
      <use xlink:href="#DejaVuSans-44"/>
      <use xlink:href="#DejaVuSans-72" transform="translate(77.001953 0)"/>
      <use xlink:href="#DejaVuSans-79" transform="translate(118.115234 0)"/>
      <use xlink:href="#DejaVuSans-20" transform="translate(177.294922 0)"/>
      <use xlink:href="#DejaVuSans-61" transform="translate(209.082031 0)"/>
      <use xlink:href="#DejaVuSans-69" transform="translate(270.361328 0)"/>
      <use xlink:href="#DejaVuSans-72" transform="translate(298.144531 0)"/>
     </g>
    </g>
    <g id="line2d_88">
     <path d="M 62.31375 53.134063 
L 72.31375 53.134063 
L 82.31375 53.134063 
" style="fill: none; stroke: #0000ff; stroke-width: 1.5; stroke-linecap: square"/>
    </g>
    <g id="text_16">
     <!-- Wet air -->
     <g transform="translate(90.31375 56.634063) scale(0.1 -0.1)">
      <defs>
       <path id="DejaVuSans-57" d="M 213 4666 
L 850 4666 
L 1831 722 
L 2809 4666 
L 3519 4666 
L 4500 722 
L 5478 4666 
L 6119 4666 
L 4947 0 
L 4153 0 
L 3169 4050 
L 2175 0 
L 1381 0 
L 213 4666 
z
" transform="scale(0.015625)"/>
      </defs>
      <use xlink:href="#DejaVuSans-57"/>
      <use xlink:href="#DejaVuSans-65" transform="translate(93.001953 0)"/>
      <use xlink:href="#DejaVuSans-74" transform="translate(154.525391 0)"/>
      <use xlink:href="#DejaVuSans-20" transform="translate(193.734375 0)"/>
      <use xlink:href="#DejaVuSans-61" transform="translate(225.521484 0)"/>
      <use xlink:href="#DejaVuSans-69" transform="translate(286.800781 0)"/>
      <use xlink:href="#DejaVuSans-72" transform="translate(314.583984 0)"/>
     </g>
    </g>
    <g id="line2d_89">
     <path d="M 62.31375 67.812187 
L 72.31375 67.812187 
L 82.31375 67.812187 
" style="fill: none; stroke: #000000; stroke-width: 1.5; stroke-linecap: square"/>
    </g>
    <g id="text_17">
     <!-- Total -->
     <g transform="translate(90.31375 71.312187) scale(0.1 -0.1)">
      <defs>
       <path id="DejaVuSans-6c" d="M 603 4863 
L 1178 4863 
L 1178 0 
L 603 0 
L 603 4863 
z
" transform="scale(0.015625)"/>
      </defs>
      <use xlink:href="#DejaVuSans-54"/>
      <use xlink:href="#DejaVuSans-6f" transform="translate(44.083984 0)"/>
      <use xlink:href="#DejaVuSans-74" transform="translate(105.265625 0)"/>
      <use xlink:href="#DejaVuSans-61" transform="translate(144.474609 0)"/>
      <use xlink:href="#DejaVuSans-6c" transform="translate(205.753906 0)"/>
     </g>
    </g>
   </g>
  </g>
 </g>
 <defs>
  <clipPath id="pbe3b62f3db">
   <rect x="53.31375" y="25.3575" width="669.6" height="388.08"/>
  </clipPath>
 </defs>
</svg>
