<?xml version="1.0" encoding="utf-8" standalone="no"?>
<!DOCTYPE svg PUBLIC "-//W3C//DTD SVG 1.1//EN"
  "http://www.w3.org/Graphics/SVG/1.1/DTD/svg11.dtd">
<svg xmlns:xlink="http://www.w3.org/1999/xlink" width="732.06375pt" height="262.69pt" viewBox="0 0 732.06375 262.69" xmlns="http://www.w3.org/2000/svg" version="1.1">
 <metadata>
  <rdf:RDF xmlns:dc="http://purl.org/dc/elements/1.1/" xmlns:cc="http://creativecommons.org/ns#" xmlns:rdf="http://www.w3.org/1999/02/22-rdf-syntax-ns#">
   <cc:Work>
    <dc:type rdf:resource="http://purl.org/dc/dcmitype/StillImage"/>
    <dc:date>2024-04-14T21:52:03.687561</dc:date>
    <dc:format>image/svg+xml</dc:format>
    <dc:creator>
     <cc:Agent>
      <dc:title>Matplotlib v3.6.2, https://matplotlib.org/</dc:title>
     </cc:Agent>
    </dc:creator>
   </cc:Work>
  </rdf:RDF>
 </metadata>
 <defs>
  <style type="text/css">*{stroke-linejoin: round; stroke-linecap: butt}</style>
 </defs>
 <g id="figure_1">
  <g id="patch_1">
   <path d="M 0 262.69 
L 732.06375 262.69 
L 732.06375 0 
L 0 0 
L 0 262.69 
z
" style="fill: none"/>
  </g>
  <g id="axes_1">
   <g id="patch_2">
    <path d="M 55.26375 223.198125 
L 724.86375 223.198125 
L 724.86375 22.318125 
L 55.26375 22.318125 
z
" style="fill: #ffffff"/>
   </g>
   <g id="matplotlib.axis_1">
    <g id="xtick_1">
     <g id="line2d_1">
      <defs>
       <path id="m245eab8354" d="M 0 0 
L 0 3.5 
" style="stroke: #000000; stroke-width: 0.8"/>
      </defs>
      <g>
       <use xlink:href="#m245eab8354" x="55.26375" y="223.198125" style="stroke: #000000; stroke-width: 0.8"/>
      </g>
     </g>
     <g id="text_1">
      <!-- 0 -->
      <g transform="translate(52.0825 237.796562) scale(0.1 -0.1)">
       <defs>
        <path id="DejaVuSans-30" d="M 2034 4250 
Q 1547 4250 1301 3770 
Q 1056 3291 1056 2328 
Q 1056 1369 1301 889 
Q 1547 409 2034 409 
Q 2525 409 2770 889 
Q 3016 1369 3016 2328 
Q 3016 3291 2770 3770 
Q 2525 4250 2034 4250 
z
M 2034 4750 
Q 2819 4750 3233 4129 
Q 3647 3509 3647 2328 
Q 3647 1150 3233 529 
Q 2819 -91 2034 -91 
Q 1250 -91 836 529 
Q 422 1150 422 2328 
Q 422 3509 836 4129 
Q 1250 4750 2034 4750 
z
" transform="scale(0.015625)"/>
       </defs>
       <use xlink:href="#DejaVuSans-30"/>
      </g>
     </g>
    </g>
    <g id="xtick_2">
     <g id="line2d_2">
      <g>
       <use xlink:href="#m245eab8354" x="170.712026" y="223.198125" style="stroke: #000000; stroke-width: 0.8"/>
      </g>
     </g>
     <g id="text_2">
      <!-- 50 -->
      <g transform="translate(164.349526 237.796562) scale(0.1 -0.1)">
       <defs>
        <path id="DejaVuSans-35" d="M 691 4666 
L 3169 4666 
L 3169 4134 
L 1269 4134 
L 1269 2991 
Q 1406 3038 1543 3061 
Q 1681 3084 1819 3084 
Q 2600 3084 3056 2656 
Q 3513 2228 3513 1497 
Q 3513 744 3044 326 
Q 2575 -91 1722 -91 
Q 1428 -91 1123 -41 
Q 819 9 494 109 
L 494 744 
Q 775 591 1075 516 
Q 1375 441 1709 441 
Q 2250 441 2565 725 
Q 2881 1009 2881 1497 
Q 2881 1984 2565 2268 
Q 2250 2553 1709 2553 
Q 1456 2553 1204 2497 
Q 953 2441 691 2322 
L 691 4666 
z
" transform="scale(0.015625)"/>
       </defs>
       <use xlink:href="#DejaVuSans-35"/>
       <use xlink:href="#DejaVuSans-30" x="63.623047"/>
      </g>
     </g>
    </g>
    <g id="xtick_3">
     <g id="line2d_3">
      <g>
       <use xlink:href="#m245eab8354" x="286.160302" y="223.198125" style="stroke: #000000; stroke-width: 0.8"/>
      </g>
     </g>
     <g id="text_3">
      <!-- 100 -->
      <g transform="translate(276.616552 237.796562) scale(0.1 -0.1)">
       <defs>
        <path id="DejaVuSans-31" d="M 794 531 
L 1825 531 
L 1825 4091 
L 703 3866 
L 703 4441 
L 1819 4666 
L 2450 4666 
L 2450 531 
L 3481 531 
L 3481 0 
L 794 0 
L 794 531 
z
" transform="scale(0.015625)"/>
       </defs>
       <use xlink:href="#DejaVuSans-31"/>
       <use xlink:href="#DejaVuSans-30" x="63.623047"/>
       <use xlink:href="#DejaVuSans-30" x="127.246094"/>
      </g>
     </g>
    </g>
    <g id="xtick_4">
     <g id="line2d_4">
      <g>
       <use xlink:href="#m245eab8354" x="401.608578" y="223.198125" style="stroke: #000000; stroke-width: 0.8"/>
      </g>
     </g>
     <g id="text_4">
      <!-- 150 -->
      <g transform="translate(392.064828 237.796562) scale(0.1 -0.1)">
       <use xlink:href="#DejaVuSans-31"/>
       <use xlink:href="#DejaVuSans-35" x="63.623047"/>
       <use xlink:href="#DejaVuSans-30" x="127.246094"/>
      </g>
     </g>
    </g>
    <g id="xtick_5">
     <g id="line2d_5">
      <g>
       <use xlink:href="#m245eab8354" x="517.056853" y="223.198125" style="stroke: #000000; stroke-width: 0.8"/>
      </g>
     </g>
     <g id="text_5">
      <!-- 200 -->
      <g transform="translate(507.513103 237.796562) scale(0.1 -0.1)">
       <defs>
        <path id="DejaVuSans-32" d="M 1228 531 
L 3431 531 
L 3431 0 
L 469 0 
L 469 531 
Q 828 903 1448 1529 
Q 2069 2156 2228 2338 
Q 2531 2678 2651 2914 
Q 2772 3150 2772 3378 
Q 2772 3750 2511 3984 
Q 2250 4219 1831 4219 
Q 1534 4219 1204 4116 
Q 875 4013 500 3803 
L 500 4441 
Q 881 4594 1212 4672 
Q 1544 4750 1819 4750 
Q 2544 4750 2975 4387 
Q 3406 4025 3406 3419 
Q 3406 3131 3298 2873 
Q 3191 2616 2906 2266 
Q 2828 2175 2409 1742 
Q 1991 1309 1228 531 
z
" transform="scale(0.015625)"/>
       </defs>
       <use xlink:href="#DejaVuSans-32"/>
       <use xlink:href="#DejaVuSans-30" x="63.623047"/>
       <use xlink:href="#DejaVuSans-30" x="127.246094"/>
      </g>
     </g>
    </g>
    <g id="xtick_6">
     <g id="line2d_6">
      <g>
       <use xlink:href="#m245eab8354" x="632.505129" y="223.198125" style="stroke: #000000; stroke-width: 0.8"/>
      </g>
     </g>
     <g id="text_6">
      <!-- 250 -->
      <g transform="translate(622.961379 237.796562) scale(0.1 -0.1)">
       <use xlink:href="#DejaVuSans-32"/>
       <use xlink:href="#DejaVuSans-35" x="63.623047"/>
       <use xlink:href="#DejaVuSans-30" x="127.246094"/>
      </g>
     </g>
    </g>
    <g id="text_7">
     <!-- Projected distance (km) -->
     <g transform="translate(318.79875 252.994375) scale(0.12 -0.12)">
      <defs>
       <path id="DejaVuSans-50" d="M 1259 4147 
L 1259 2394 
L 2053 2394 
Q 2494 2394 2734 2622 
Q 2975 2850 2975 3272 
Q 2975 3691 2734 3919 
Q 2494 4147 2053 4147 
L 1259 4147 
z
M 628 4666 
L 2053 4666 
Q 2838 4666 3239 4311 
Q 3641 3956 3641 3272 
Q 3641 2581 3239 2228 
Q 2838 1875 2053 1875 
L 1259 1875 
L 1259 0 
L 628 0 
L 628 4666 
z
" transform="scale(0.015625)"/>
       <path id="DejaVuSans-72" d="M 2631 2963 
Q 2534 3019 2420 3045 
Q 2306 3072 2169 3072 
Q 1681 3072 1420 2755 
Q 1159 2438 1159 1844 
L 1159 0 
L 581 0 
L 581 3500 
L 1159 3500 
L 1159 2956 
Q 1341 3275 1631 3429 
Q 1922 3584 2338 3584 
Q 2397 3584 2469 3576 
Q 2541 3569 2628 3553 
L 2631 2963 
z
" transform="scale(0.015625)"/>
       <path id="DejaVuSans-6f" d="M 1959 3097 
Q 1497 3097 1228 2736 
Q 959 2375 959 1747 
Q 959 1119 1226 758 
Q 1494 397 1959 397 
Q 2419 397 2687 759 
Q 2956 1122 2956 1747 
Q 2956 2369 2687 2733 
Q 2419 3097 1959 3097 
z
M 1959 3584 
Q 2709 3584 3137 3096 
Q 3566 2609 3566 1747 
Q 3566 888 3137 398 
Q 2709 -91 1959 -91 
Q 1206 -91 779 398 
Q 353 888 353 1747 
Q 353 2609 779 3096 
Q 1206 3584 1959 3584 
z
" transform="scale(0.015625)"/>
       <path id="DejaVuSans-6a" d="M 603 3500 
L 1178 3500 
L 1178 -63 
Q 1178 -731 923 -1031 
Q 669 -1331 103 -1331 
L -116 -1331 
L -116 -844 
L 38 -844 
Q 366 -844 484 -692 
Q 603 -541 603 -63 
L 603 3500 
z
M 603 4863 
L 1178 4863 
L 1178 4134 
L 603 4134 
L 603 4863 
z
" transform="scale(0.015625)"/>
       <path id="DejaVuSans-65" d="M 3597 1894 
L 3597 1613 
L 953 1613 
Q 991 1019 1311 708 
Q 1631 397 2203 397 
Q 2534 397 2845 478 
Q 3156 559 3463 722 
L 3463 178 
Q 3153 47 2828 -22 
Q 2503 -91 2169 -91 
Q 1331 -91 842 396 
Q 353 884 353 1716 
Q 353 2575 817 3079 
Q 1281 3584 2069 3584 
Q 2775 3584 3186 3129 
Q 3597 2675 3597 1894 
z
M 3022 2063 
Q 3016 2534 2758 2815 
Q 2500 3097 2075 3097 
Q 1594 3097 1305 2825 
Q 1016 2553 972 2059 
L 3022 2063 
z
" transform="scale(0.015625)"/>
       <path id="DejaVuSans-63" d="M 3122 3366 
L 3122 2828 
Q 2878 2963 2633 3030 
Q 2388 3097 2138 3097 
Q 1578 3097 1268 2742 
Q 959 2388 959 1747 
Q 959 1106 1268 751 
Q 1578 397 2138 397 
Q 2388 397 2633 464 
Q 2878 531 3122 666 
L 3122 134 
Q 2881 22 2623 -34 
Q 2366 -91 2075 -91 
Q 1284 -91 818 406 
Q 353 903 353 1747 
Q 353 2603 823 3093 
Q 1294 3584 2113 3584 
Q 2378 3584 2631 3529 
Q 2884 3475 3122 3366 
z
" transform="scale(0.015625)"/>
       <path id="DejaVuSans-74" d="M 1172 4494 
L 1172 3500 
L 2356 3500 
L 2356 3053 
L 1172 3053 
L 1172 1153 
Q 1172 725 1289 603 
Q 1406 481 1766 481 
L 2356 481 
L 2356 0 
L 1766 0 
Q 1100 0 847 248 
Q 594 497 594 1153 
L 594 3053 
L 172 3053 
L 172 3500 
L 594 3500 
L 594 4494 
L 1172 4494 
z
" transform="scale(0.015625)"/>
       <path id="DejaVuSans-64" d="M 2906 2969 
L 2906 4863 
L 3481 4863 
L 3481 0 
L 2906 0 
L 2906 525 
Q 2725 213 2448 61 
Q 2172 -91 1784 -91 
Q 1150 -91 751 415 
Q 353 922 353 1747 
Q 353 2572 751 3078 
Q 1150 3584 1784 3584 
Q 2172 3584 2448 3432 
Q 2725 3281 2906 2969 
z
M 947 1747 
Q 947 1113 1208 752 
Q 1469 391 1925 391 
Q 2381 391 2643 752 
Q 2906 1113 2906 1747 
Q 2906 2381 2643 2742 
Q 2381 3103 1925 3103 
Q 1469 3103 1208 2742 
Q 947 2381 947 1747 
z
" transform="scale(0.015625)"/>
       <path id="DejaVuSans-20" transform="scale(0.015625)"/>
       <path id="DejaVuSans-69" d="M 603 3500 
L 1178 3500 
L 1178 0 
L 603 0 
L 603 3500 
z
M 603 4863 
L 1178 4863 
L 1178 4134 
L 603 4134 
L 603 4863 
z
" transform="scale(0.015625)"/>
       <path id="DejaVuSans-73" d="M 2834 3397 
L 2834 2853 
Q 2591 2978 2328 3040 
Q 2066 3103 1784 3103 
Q 1356 3103 1142 2972 
Q 928 2841 928 2578 
Q 928 2378 1081 2264 
Q 1234 2150 1697 2047 
L 1894 2003 
Q 2506 1872 2764 1633 
Q 3022 1394 3022 966 
Q 3022 478 2636 193 
Q 2250 -91 1575 -91 
Q 1294 -91 989 -36 
Q 684 19 347 128 
L 347 722 
Q 666 556 975 473 
Q 1284 391 1588 391 
Q 1994 391 2212 530 
Q 2431 669 2431 922 
Q 2431 1156 2273 1281 
Q 2116 1406 1581 1522 
L 1381 1569 
Q 847 1681 609 1914 
Q 372 2147 372 2553 
Q 372 3047 722 3315 
Q 1072 3584 1716 3584 
Q 2034 3584 2315 3537 
Q 2597 3491 2834 3397 
z
" transform="scale(0.015625)"/>
       <path id="DejaVuSans-61" d="M 2194 1759 
Q 1497 1759 1228 1600 
Q 959 1441 959 1056 
Q 959 750 1161 570 
Q 1363 391 1709 391 
Q 2188 391 2477 730 
Q 2766 1069 2766 1631 
L 2766 1759 
L 2194 1759 
z
M 3341 1997 
L 3341 0 
L 2766 0 
L 2766 531 
Q 2569 213 2275 61 
Q 1981 -91 1556 -91 
Q 1019 -91 701 211 
Q 384 513 384 1019 
Q 384 1609 779 1909 
Q 1175 2209 1959 2209 
L 2766 2209 
L 2766 2266 
Q 2766 2663 2505 2880 
Q 2244 3097 1772 3097 
Q 1472 3097 1187 3025 
Q 903 2953 641 2809 
L 641 3341 
Q 956 3463 1253 3523 
Q 1550 3584 1831 3584 
Q 2591 3584 2966 3190 
Q 3341 2797 3341 1997 
z
" transform="scale(0.015625)"/>
       <path id="DejaVuSans-6e" d="M 3513 2113 
L 3513 0 
L 2938 0 
L 2938 2094 
Q 2938 2591 2744 2837 
Q 2550 3084 2163 3084 
Q 1697 3084 1428 2787 
Q 1159 2491 1159 1978 
L 1159 0 
L 581 0 
L 581 3500 
L 1159 3500 
L 1159 2956 
Q 1366 3272 1645 3428 
Q 1925 3584 2291 3584 
Q 2894 3584 3203 3211 
Q 3513 2838 3513 2113 
z
" transform="scale(0.015625)"/>
       <path id="DejaVuSans-28" d="M 1984 4856 
Q 1566 4138 1362 3434 
Q 1159 2731 1159 2009 
Q 1159 1288 1364 580 
Q 1569 -128 1984 -844 
L 1484 -844 
Q 1016 -109 783 600 
Q 550 1309 550 2009 
Q 550 2706 781 3412 
Q 1013 4119 1484 4856 
L 1984 4856 
z
" transform="scale(0.015625)"/>
       <path id="DejaVuSans-6b" d="M 581 4863 
L 1159 4863 
L 1159 1991 
L 2875 3500 
L 3609 3500 
L 1753 1863 
L 3688 0 
L 2938 0 
L 1159 1709 
L 1159 0 
L 581 0 
L 581 4863 
z
" transform="scale(0.015625)"/>
       <path id="DejaVuSans-6d" d="M 3328 2828 
Q 3544 3216 3844 3400 
Q 4144 3584 4550 3584 
Q 5097 3584 5394 3201 
Q 5691 2819 5691 2113 
L 5691 0 
L 5113 0 
L 5113 2094 
Q 5113 2597 4934 2840 
Q 4756 3084 4391 3084 
Q 3944 3084 3684 2787 
Q 3425 2491 3425 1978 
L 3425 0 
L 2847 0 
L 2847 2094 
Q 2847 2600 2669 2842 
Q 2491 3084 2119 3084 
Q 1678 3084 1418 2786 
Q 1159 2488 1159 1978 
L 1159 0 
L 581 0 
L 581 3500 
L 1159 3500 
L 1159 2956 
Q 1356 3278 1631 3431 
Q 1906 3584 2284 3584 
Q 2666 3584 2933 3390 
Q 3200 3197 3328 2828 
z
" transform="scale(0.015625)"/>
       <path id="DejaVuSans-29" d="M 513 4856 
L 1013 4856 
Q 1481 4119 1714 3412 
Q 1947 2706 1947 2009 
Q 1947 1309 1714 600 
Q 1481 -109 1013 -844 
L 513 -844 
Q 928 -128 1133 580 
Q 1338 1288 1338 2009 
Q 1338 2731 1133 3434 
Q 928 4138 513 4856 
z
" transform="scale(0.015625)"/>
      </defs>
      <use xlink:href="#DejaVuSans-50"/>
      <use xlink:href="#DejaVuSans-72" x="58.552734"/>
      <use xlink:href="#DejaVuSans-6f" x="97.416016"/>
      <use xlink:href="#DejaVuSans-6a" x="158.597656"/>
      <use xlink:href="#DejaVuSans-65" x="186.380859"/>
      <use xlink:href="#DejaVuSans-63" x="247.904297"/>
      <use xlink:href="#DejaVuSans-74" x="302.884766"/>
      <use xlink:href="#DejaVuSans-65" x="342.09375"/>
      <use xlink:href="#DejaVuSans-64" x="403.617188"/>
      <use xlink:href="#DejaVuSans-20" x="467.09375"/>
      <use xlink:href="#DejaVuSans-64" x="498.880859"/>
      <use xlink:href="#DejaVuSans-69" x="562.357422"/>
      <use xlink:href="#DejaVuSans-73" x="590.140625"/>
      <use xlink:href="#DejaVuSans-74" x="642.240234"/>
      <use xlink:href="#DejaVuSans-61" x="681.449219"/>
      <use xlink:href="#DejaVuSans-6e" x="742.728516"/>
      <use xlink:href="#DejaVuSans-63" x="806.107422"/>
      <use xlink:href="#DejaVuSans-65" x="861.087891"/>
      <use xlink:href="#DejaVuSans-20" x="922.611328"/>
      <use xlink:href="#DejaVuSans-28" x="954.398438"/>
      <use xlink:href="#DejaVuSans-6b" x="993.412109"/>
      <use xlink:href="#DejaVuSans-6d" x="1051.322266"/>
      <use xlink:href="#DejaVuSans-29" x="1148.734375"/>
     </g>
    </g>
   </g>
   <g id="matplotlib.axis_2">
    <g id="ytick_1">
     <g id="line2d_7">
      <defs>
       <path id="m6d5033ad89" d="M 0 0 
L -3.5 0 
" style="stroke: #000000; stroke-width: 0.8"/>
      </defs>
      <g>
       <use xlink:href="#m6d5033ad89" x="55.26375" y="213.962263" style="stroke: #000000; stroke-width: 0.8"/>
      </g>
     </g>
     <g id="text_8">
      <!-- 6370 -->
      <g transform="translate(22.81375 217.761482) scale(0.1 -0.1)">
       <defs>
        <path id="DejaVuSans-36" d="M 2113 2584 
Q 1688 2584 1439 2293 
Q 1191 2003 1191 1497 
Q 1191 994 1439 701 
Q 1688 409 2113 409 
Q 2538 409 2786 701 
Q 3034 994 3034 1497 
Q 3034 2003 2786 2293 
Q 2538 2584 2113 2584 
z
M 3366 4563 
L 3366 3988 
Q 3128 4100 2886 4159 
Q 2644 4219 2406 4219 
Q 1781 4219 1451 3797 
Q 1122 3375 1075 2522 
Q 1259 2794 1537 2939 
Q 1816 3084 2150 3084 
Q 2853 3084 3261 2657 
Q 3669 2231 3669 1497 
Q 3669 778 3244 343 
Q 2819 -91 2113 -91 
Q 1303 -91 875 529 
Q 447 1150 447 2328 
Q 447 3434 972 4092 
Q 1497 4750 2381 4750 
Q 2619 4750 2861 4703 
Q 3103 4656 3366 4563 
z
" transform="scale(0.015625)"/>
        <path id="DejaVuSans-33" d="M 2597 2516 
Q 3050 2419 3304 2112 
Q 3559 1806 3559 1356 
Q 3559 666 3084 287 
Q 2609 -91 1734 -91 
Q 1441 -91 1130 -33 
Q 819 25 488 141 
L 488 750 
Q 750 597 1062 519 
Q 1375 441 1716 441 
Q 2309 441 2620 675 
Q 2931 909 2931 1356 
Q 2931 1769 2642 2001 
Q 2353 2234 1838 2234 
L 1294 2234 
L 1294 2753 
L 1863 2753 
Q 2328 2753 2575 2939 
Q 2822 3125 2822 3475 
Q 2822 3834 2567 4026 
Q 2313 4219 1838 4219 
Q 1578 4219 1281 4162 
Q 984 4106 628 3988 
L 628 4550 
Q 988 4650 1302 4700 
Q 1616 4750 1894 4750 
Q 2613 4750 3031 4423 
Q 3450 4097 3450 3541 
Q 3450 3153 3228 2886 
Q 3006 2619 2597 2516 
z
" transform="scale(0.015625)"/>
        <path id="DejaVuSans-37" d="M 525 4666 
L 3525 4666 
L 3525 4397 
L 1831 0 
L 1172 0 
L 2766 4134 
L 525 4134 
L 525 4666 
z
" transform="scale(0.015625)"/>
       </defs>
       <use xlink:href="#DejaVuSans-36"/>
       <use xlink:href="#DejaVuSans-33" x="63.623047"/>
       <use xlink:href="#DejaVuSans-37" x="127.246094"/>
       <use xlink:href="#DejaVuSans-30" x="190.869141"/>
      </g>
     </g>
    </g>
    <g id="ytick_2">
     <g id="line2d_8">
      <g>
       <use xlink:href="#m6d5033ad89" x="55.26375" y="190.872608" style="stroke: #000000; stroke-width: 0.8"/>
      </g>
     </g>
     <g id="text_9">
      <!-- 6380 -->
      <g transform="translate(22.81375 194.671827) scale(0.1 -0.1)">
       <defs>
        <path id="DejaVuSans-38" d="M 2034 2216 
Q 1584 2216 1326 1975 
Q 1069 1734 1069 1313 
Q 1069 891 1326 650 
Q 1584 409 2034 409 
Q 2484 409 2743 651 
Q 3003 894 3003 1313 
Q 3003 1734 2745 1975 
Q 2488 2216 2034 2216 
z
M 1403 2484 
Q 997 2584 770 2862 
Q 544 3141 544 3541 
Q 544 4100 942 4425 
Q 1341 4750 2034 4750 
Q 2731 4750 3128 4425 
Q 3525 4100 3525 3541 
Q 3525 3141 3298 2862 
Q 3072 2584 2669 2484 
Q 3125 2378 3379 2068 
Q 3634 1759 3634 1313 
Q 3634 634 3220 271 
Q 2806 -91 2034 -91 
Q 1263 -91 848 271 
Q 434 634 434 1313 
Q 434 1759 690 2068 
Q 947 2378 1403 2484 
z
M 1172 3481 
Q 1172 3119 1398 2916 
Q 1625 2713 2034 2713 
Q 2441 2713 2670 2916 
Q 2900 3119 2900 3481 
Q 2900 3844 2670 4047 
Q 2441 4250 2034 4250 
Q 1625 4250 1398 4047 
Q 1172 3844 1172 3481 
z
" transform="scale(0.015625)"/>
       </defs>
       <use xlink:href="#DejaVuSans-36"/>
       <use xlink:href="#DejaVuSans-33" x="63.623047"/>
       <use xlink:href="#DejaVuSans-38" x="127.246094"/>
       <use xlink:href="#DejaVuSans-30" x="190.869141"/>
      </g>
     </g>
    </g>
    <g id="ytick_3">
     <g id="line2d_9">
      <g>
       <use xlink:href="#m6d5033ad89" x="55.26375" y="167.782953" style="stroke: #000000; stroke-width: 0.8"/>
      </g>
     </g>
     <g id="text_10">
      <!-- 6390 -->
      <g transform="translate(22.81375 171.582171) scale(0.1 -0.1)">
       <defs>
        <path id="DejaVuSans-39" d="M 703 97 
L 703 672 
Q 941 559 1184 500 
Q 1428 441 1663 441 
Q 2288 441 2617 861 
Q 2947 1281 2994 2138 
Q 2813 1869 2534 1725 
Q 2256 1581 1919 1581 
Q 1219 1581 811 2004 
Q 403 2428 403 3163 
Q 403 3881 828 4315 
Q 1253 4750 1959 4750 
Q 2769 4750 3195 4129 
Q 3622 3509 3622 2328 
Q 3622 1225 3098 567 
Q 2575 -91 1691 -91 
Q 1453 -91 1209 -44 
Q 966 3 703 97 
z
M 1959 2075 
Q 2384 2075 2632 2365 
Q 2881 2656 2881 3163 
Q 2881 3666 2632 3958 
Q 2384 4250 1959 4250 
Q 1534 4250 1286 3958 
Q 1038 3666 1038 3163 
Q 1038 2656 1286 2365 
Q 1534 2075 1959 2075 
z
" transform="scale(0.015625)"/>
       </defs>
       <use xlink:href="#DejaVuSans-36"/>
       <use xlink:href="#DejaVuSans-33" x="63.623047"/>
       <use xlink:href="#DejaVuSans-39" x="127.246094"/>
       <use xlink:href="#DejaVuSans-30" x="190.869141"/>
      </g>
     </g>
    </g>
    <g id="ytick_4">
     <g id="line2d_10">
      <g>
       <use xlink:href="#m6d5033ad89" x="55.26375" y="144.693297" style="stroke: #000000; stroke-width: 0.8"/>
      </g>
     </g>
     <g id="text_11">
      <!-- 6400 -->
      <g transform="translate(22.81375 148.492516) scale(0.1 -0.1)">
       <defs>
        <path id="DejaVuSans-34" d="M 2419 4116 
L 825 1625 
L 2419 1625 
L 2419 4116 
z
M 2253 4666 
L 3047 4666 
L 3047 1625 
L 3713 1625 
L 3713 1100 
L 3047 1100 
L 3047 0 
L 2419 0 
L 2419 1100 
L 313 1100 
L 313 1709 
L 2253 4666 
z
" transform="scale(0.015625)"/>
       </defs>
       <use xlink:href="#DejaVuSans-36"/>
       <use xlink:href="#DejaVuSans-34" x="63.623047"/>
       <use xlink:href="#DejaVuSans-30" x="127.246094"/>
       <use xlink:href="#DejaVuSans-30" x="190.869141"/>
      </g>
     </g>
    </g>
    <g id="ytick_5">
     <g id="line2d_11">
      <g>
       <use xlink:href="#m6d5033ad89" x="55.26375" y="121.603642" style="stroke: #000000; stroke-width: 0.8"/>
      </g>
     </g>
     <g id="text_12">
      <!-- 6410 -->
      <g transform="translate(22.81375 125.402861) scale(0.1 -0.1)">
       <use xlink:href="#DejaVuSans-36"/>
       <use xlink:href="#DejaVuSans-34" x="63.623047"/>
       <use xlink:href="#DejaVuSans-31" x="127.246094"/>
       <use xlink:href="#DejaVuSans-30" x="190.869141"/>
      </g>
     </g>
    </g>
    <g id="ytick_6">
     <g id="line2d_12">
      <g>
       <use xlink:href="#m6d5033ad89" x="55.26375" y="98.513987" style="stroke: #000000; stroke-width: 0.8"/>
      </g>
     </g>
     <g id="text_13">
      <!-- 6420 -->
      <g transform="translate(22.81375 102.313206) scale(0.1 -0.1)">
       <use xlink:href="#DejaVuSans-36"/>
       <use xlink:href="#DejaVuSans-34" x="63.623047"/>
       <use xlink:href="#DejaVuSans-32" x="127.246094"/>
       <use xlink:href="#DejaVuSans-30" x="190.869141"/>
      </g>
     </g>
    </g>
    <g id="ytick_7">
     <g id="line2d_13">
      <g>
       <use xlink:href="#m6d5033ad89" x="55.26375" y="75.424332" style="stroke: #000000; stroke-width: 0.8"/>
      </g>
     </g>
     <g id="text_14">
      <!-- 6430 -->
      <g transform="translate(22.81375 79.223551) scale(0.1 -0.1)">
       <use xlink:href="#DejaVuSans-36"/>
       <use xlink:href="#DejaVuSans-34" x="63.623047"/>
       <use xlink:href="#DejaVuSans-33" x="127.246094"/>
       <use xlink:href="#DejaVuSans-30" x="190.869141"/>
      </g>
     </g>
    </g>
    <g id="ytick_8">
     <g id="line2d_14">
      <g>
       <use xlink:href="#m6d5033ad89" x="55.26375" y="52.334677" style="stroke: #000000; stroke-width: 0.8"/>
      </g>
     </g>
     <g id="text_15">
      <!-- 6440 -->
      <g transform="translate(22.81375 56.133895) scale(0.1 -0.1)">
       <use xlink:href="#DejaVuSans-36"/>
       <use xlink:href="#DejaVuSans-34" x="63.623047"/>
       <use xlink:href="#DejaVuSans-34" x="127.246094"/>
       <use xlink:href="#DejaVuSans-30" x="190.869141"/>
      </g>
     </g>
    </g>
    <g id="ytick_9">
     <g id="line2d_15">
      <g>
       <use xlink:href="#m6d5033ad89" x="55.26375" y="29.245022" style="stroke: #000000; stroke-width: 0.8"/>
      </g>
     </g>
     <g id="text_16">
      <!-- 6450 -->
      <g transform="translate(22.81375 33.04424) scale(0.1 -0.1)">
       <use xlink:href="#DejaVuSans-36"/>
       <use xlink:href="#DejaVuSans-34" x="63.623047"/>
       <use xlink:href="#DejaVuSans-35" x="127.246094"/>
       <use xlink:href="#DejaVuSans-30" x="190.869141"/>
      </g>
     </g>
    </g>
    <g id="text_17">
     <!-- Distance to Earth center (km) -->
     <g transform="translate(16.318125 212.038125) rotate(-90) scale(0.12 -0.12)">
      <defs>
       <path id="DejaVuSans-44" d="M 1259 4147 
L 1259 519 
L 2022 519 
Q 2988 519 3436 956 
Q 3884 1394 3884 2338 
Q 3884 3275 3436 3711 
Q 2988 4147 2022 4147 
L 1259 4147 
z
M 628 4666 
L 1925 4666 
Q 3281 4666 3915 4102 
Q 4550 3538 4550 2338 
Q 4550 1131 3912 565 
Q 3275 0 1925 0 
L 628 0 
L 628 4666 
z
" transform="scale(0.015625)"/>
       <path id="DejaVuSans-45" d="M 628 4666 
L 3578 4666 
L 3578 4134 
L 1259 4134 
L 1259 2753 
L 3481 2753 
L 3481 2222 
L 1259 2222 
L 1259 531 
L 3634 531 
L 3634 0 
L 628 0 
L 628 4666 
z
" transform="scale(0.015625)"/>
       <path id="DejaVuSans-68" d="M 3513 2113 
L 3513 0 
L 2938 0 
L 2938 2094 
Q 2938 2591 2744 2837 
Q 2550 3084 2163 3084 
Q 1697 3084 1428 2787 
Q 1159 2491 1159 1978 
L 1159 0 
L 581 0 
L 581 4863 
L 1159 4863 
L 1159 2956 
Q 1366 3272 1645 3428 
Q 1925 3584 2291 3584 
Q 2894 3584 3203 3211 
Q 3513 2838 3513 2113 
z
" transform="scale(0.015625)"/>
      </defs>
      <use xlink:href="#DejaVuSans-44"/>
      <use xlink:href="#DejaVuSans-69" x="77.001953"/>
      <use xlink:href="#DejaVuSans-73" x="104.785156"/>
      <use xlink:href="#DejaVuSans-74" x="156.884766"/>
      <use xlink:href="#DejaVuSans-61" x="196.09375"/>
      <use xlink:href="#DejaVuSans-6e" x="257.373047"/>
      <use xlink:href="#DejaVuSans-63" x="320.751953"/>
      <use xlink:href="#DejaVuSans-65" x="375.732422"/>
      <use xlink:href="#DejaVuSans-20" x="437.255859"/>
      <use xlink:href="#DejaVuSans-74" x="469.042969"/>
      <use xlink:href="#DejaVuSans-6f" x="508.251953"/>
      <use xlink:href="#DejaVuSans-20" x="569.433594"/>
      <use xlink:href="#DejaVuSans-45" x="601.220703"/>
      <use xlink:href="#DejaVuSans-61" x="664.404297"/>
      <use xlink:href="#DejaVuSans-72" x="725.683594"/>
      <use xlink:href="#DejaVuSans-74" x="766.796875"/>
      <use xlink:href="#DejaVuSans-68" x="806.005859"/>
      <use xlink:href="#DejaVuSans-20" x="869.384766"/>
      <use xlink:href="#DejaVuSans-63" x="901.171875"/>
      <use xlink:href="#DejaVuSans-65" x="956.152344"/>
      <use xlink:href="#DejaVuSans-6e" x="1017.675781"/>
      <use xlink:href="#DejaVuSans-74" x="1081.054688"/>
      <use xlink:href="#DejaVuSans-65" x="1120.263672"/>
      <use xlink:href="#DejaVuSans-72" x="1181.787109"/>
      <use xlink:href="#DejaVuSans-20" x="1222.900391"/>
      <use xlink:href="#DejaVuSans-28" x="1254.6875"/>
      <use xlink:href="#DejaVuSans-6b" x="1293.701172"/>
      <use xlink:href="#DejaVuSans-6d" x="1351.611328"/>
      <use xlink:href="#DejaVuSans-29" x="1449.023438"/>
     </g>
    </g>
   </g>
   <g id="line2d_16">
    <path d="M 55.26375 211.653297 
L 69.974167 211.660653 
L 84.684569 211.682718 
L 99.394942 211.719494 
L 114.10527 211.770981 
L 128.81554 211.837177 
L 143.525736 211.918084 
L 158.235844 212.013701 
L 172.945849 212.124028 
L 187.655736 212.249065 
L 202.365491 212.388812 
L 217.075099 212.543269 
L 231.784545 212.712435 
L 246.493815 212.89631 
L 261.202893 213.094895 
L 275.911765 213.308189 
L 290.620417 213.536191 
L 305.328833 213.778902 
L 320.036999 214.036321 
L 334.744901 214.308448 
L 349.452523 214.595283 
L 364.15985 214.896826 
L 378.866869 215.213075 
L 393.573565 215.544032 
L 408.279922 215.889695 
L 422.985926 216.250064 
L 437.691562 216.625139 
L 452.396816 217.01492 
L 467.101672 217.419405 
L 481.806117 217.838595 
L 496.510135 218.27249 
L 511.213712 218.721088 
L 525.916834 219.184389 
L 540.619484 219.662394 
L 555.321649 220.155101 
L 570.023314 220.662509 
L 584.724464 221.18462 
L 599.425085 221.721431 
L 614.125162 222.272942 
L 628.82468 222.839153 
L 643.523624 223.420064 
L 658.22198 224.015673 
L 672.919733 224.62598 
L 687.616868 225.250985 
L 702.313371 225.890686 
L 717.009227 226.545084 
L 731.704421 227.214177 
L 733.06375 227.277431 
" clip-path="url(#pa84fb14d36)" style="fill: none; stroke: #000000; stroke-width: 1.5; stroke-linecap: square"/>
   </g>
   <g id="line2d_17">
    <path d="M 55.26375 25.512786 
L 70.160307 25.520234 
L 85.05685 25.542579 
L 99.953362 25.57982 
L 114.84983 25.631958 
L 129.746239 25.698993 
L 144.642573 25.780923 
L 159.538817 25.87775 
L 174.434957 25.989473 
L 189.330978 26.116093 
L 204.226865 26.257608 
L 219.122604 26.414019 
L 234.018178 26.585325 
L 248.913573 26.771528 
L 263.808775 26.972625 
L 278.703768 27.188618 
L 293.598538 27.419505 
L 308.493069 27.665287 
L 323.387348 27.925964 
L 338.281358 28.201534 
L 353.175085 28.491999 
L 368.068514 28.797357 
L 382.96163 29.117608 
L 397.854419 29.452752 
L 412.746865 29.802789 
L 427.638954 30.167719 
L 442.53067 30.54754 
L 457.421999 30.942252 
L 472.312926 31.351856 
L 487.203435 31.77635 
L 502.093513 32.215735 
L 516.983144 32.67001 
L 531.872313 33.139174 
L 546.761006 33.623227 
L 561.649207 34.122168 
L 576.536902 34.635998 
L 591.424075 35.164714 
L 606.310713 35.708318 
L 621.196799 36.266808 
L 636.082319 36.840184 
L 650.967259 37.428445 
L 665.851603 38.031591 
L 680.735336 38.64962 
L 695.618444 39.282534 
L 710.500911 39.93033 
L 725.382723 40.593008 
L 733.06375 40.942736 
" clip-path="url(#pa84fb14d36)" style="fill: none; stroke: #000000; stroke-width: 1.5; stroke-linecap: square"/>
   </g>
   <g id="line2d_18">
    <path d="M 55.26375 211.506513 
L 69.974314 211.513868 
L 84.684863 211.535934 
L 99.395382 211.57271 
L 114.105857 211.624197 
L 128.816274 211.690394 
L 143.526617 211.771302 
L 158.236872 211.86692 
L 172.947023 211.977248 
L 187.657058 212.102287 
L 202.366959 212.242035 
L 217.076714 212.396493 
L 231.786307 212.565661 
L 246.495723 212.749538 
L 261.204948 212.948125 
L 275.913967 213.16142 
L 290.622765 213.389425 
L 305.331328 213.632138 
L 320.039641 213.88956 
L 334.747689 214.16169 
L 349.455458 214.448528 
L 364.162933 214.750073 
L 378.870098 215.066326 
L 393.57694 215.397286 
L 408.283444 215.742952 
L 422.989595 216.103325 
L 437.695378 216.478404 
L 452.400778 216.868188 
L 467.105782 217.272678 
L 481.810373 217.691872 
L 496.514538 218.125771 
L 511.218262 218.574374 
L 525.92153 219.03768 
L 540.624327 219.515689 
L 555.326639 220.008401 
L 570.028451 220.515815 
L 584.729747 221.03793 
L 599.430515 221.574746 
L 614.130738 222.126263 
L 628.830403 222.69248 
L 643.529494 223.273397 
L 658.227996 223.869012 
L 672.925896 224.479325 
L 687.623178 225.104336 
L 702.319828 225.744043 
L 717.01583 226.398448 
L 731.711171 227.067547 
L 733.06375 227.130488 
" clip-path="url(#pa84fb14d36)" style="fill: none; stroke-dasharray: 5.55,2.4; stroke-dashoffset: 0; stroke: #000000; stroke-opacity: 0.5; stroke-width: 1.5"/>
   </g>
   <g id="line2d_19">
    <path d="M 55.26375 208.266569 
L 69.977554 208.273926 
L 84.691342 208.295996 
L 99.405102 208.332781 
L 114.118817 208.384279 
L 128.832474 208.450491 
L 143.546057 208.531416 
L 158.259551 208.627055 
L 172.972943 208.737408 
L 187.686217 208.862474 
L 202.399358 209.002253 
L 217.112352 209.156745 
L 231.825185 209.32595 
L 246.537841 209.509868 
L 261.250305 209.708498 
L 275.962564 209.921841 
L 290.674602 210.149896 
L 305.386405 210.392662 
L 320.097957 210.650141 
L 334.809245 210.922331 
L 349.520253 211.209232 
L 364.230967 211.510844 
L 378.941371 211.827166 
L 393.651453 212.158199 
L 408.361195 212.503941 
L 423.070585 212.864394 
L 437.779607 213.239555 
L 452.488246 213.629425 
L 467.196488 214.034004 
L 481.904318 214.45329 
L 496.611722 214.887285 
L 511.318684 215.335986 
L 526.02519 215.799394 
L 540.731226 216.277509 
L 555.436776 216.770329 
L 570.141825 217.277855 
L 584.84636 217.800085 
L 599.550366 218.33702 
L 614.253827 218.888658 
L 628.956729 219.455 
L 643.659057 220.036044 
L 658.360797 220.63179 
L 673.061934 221.242238 
L 687.762453 221.867386 
L 702.462339 222.507235 
L 717.161578 223.161783 
L 731.860156 223.831031 
L 733.06375 223.887038 
" clip-path="url(#pa84fb14d36)" style="fill: none; stroke-dasharray: 5.55,2.4; stroke-dashoffset: 0; stroke: #000000; stroke-opacity: 0.5; stroke-width: 1.5"/>
   </g>
   <g id="line2d_20">
    <path d="M 55.26375 202.407738 
L 69.983412 202.415097 
L 84.70306 202.437177 
L 99.422678 202.473976 
L 114.142252 202.525495 
L 128.861768 202.591733 
L 143.581209 202.672691 
L 158.300563 202.768368 
L 173.019813 202.878764 
L 187.738945 203.00388 
L 202.457945 203.143715 
L 217.176798 203.298268 
L 231.895489 203.467541 
L 246.614004 203.651532 
L 261.332326 203.850241 
L 276.050443 204.063669 
L 290.768339 204.291815 
L 305.486 204.534678 
L 320.20341 204.792259 
L 334.920556 205.064557 
L 349.637422 205.351572 
L 364.353993 205.653304 
L 379.070255 205.969753 
L 393.786194 206.300917 
L 408.501794 206.646798 
L 423.21704 207.007393 
L 437.931919 207.382704 
L 452.646415 207.77273 
L 467.360514 208.177469 
L 482.074201 208.596923 
L 496.787461 209.03109 
L 511.500279 209.47997 
L 526.212641 209.943563 
L 540.924532 210.421868 
L 555.635938 210.914884 
L 570.346843 211.422612 
L 585.057233 211.94505 
L 599.767093 212.482199 
L 614.476409 213.034057 
L 629.185165 213.600624 
L 643.893348 214.1819 
L 658.600942 214.777883 
L 673.307932 215.388574 
L 688.014305 216.013971 
L 702.720045 216.654075 
L 717.425137 217.308883 
L 732.129567 217.978397 
L 733.06375 218.021868 
" clip-path="url(#pa84fb14d36)" style="fill: none; stroke-dasharray: 5.55,2.4; stroke-dashoffset: 0; stroke: #000000; stroke-opacity: 0.5; stroke-width: 1.5"/>
   </g>
   <g id="line2d_21">
    <path d="M 55.26375 186.481784 
L 69.999338 186.489152 
L 84.734912 186.511255 
L 99.470456 186.548094 
L 114.205956 186.599668 
L 128.941397 186.665978 
L 143.676764 186.747024 
L 158.412043 186.842804 
L 173.147219 186.95332 
L 187.882277 187.078571 
L 202.617202 187.218557 
L 217.35198 187.373278 
L 232.086596 187.542734 
L 246.821035 187.726924 
L 261.555283 187.925848 
L 276.289324 188.139507 
L 291.023144 188.367899 
L 305.756728 188.611025 
L 320.490062 188.868885 
L 335.223131 189.141478 
L 349.955919 189.428804 
L 364.688413 189.730862 
L 379.420598 190.047653 
L 394.152458 190.379176 
L 408.88398 190.72543 
L 423.615148 191.086416 
L 438.345947 191.462133 
L 453.076364 191.85258 
L 467.806383 192.257758 
L 482.535989 192.677665 
L 497.265168 193.112302 
L 511.993904 193.561668 
L 526.722185 194.025762 
L 541.449993 194.504585 
L 556.177316 194.998135 
L 570.904137 195.506412 
L 585.630443 196.029415 
L 600.356219 196.567145 
L 615.081449 197.1196 
L 629.80612 197.68678 
L 644.530216 198.268685 
L 659.253723 198.865313 
L 673.976626 199.476664 
L 688.69891 200.102738 
L 703.42056 200.743535 
L 718.141563 201.399052 
L 732.861903 202.06929 
L 733.06375 202.078683 
" clip-path="url(#pa84fb14d36)" style="fill: none; stroke-dasharray: 5.55,2.4; stroke-dashoffset: 0; stroke: #000000; stroke-opacity: 0.5; stroke-width: 1.5"/>
   </g>
   <g id="line2d_22">
    <path d="M 55.26375 143.190553 
L 70.04263 143.197942 
L 84.821494 143.22011 
L 99.60033 143.257058 
L 114.379121 143.308784 
L 129.157852 143.375288 
L 143.93651 143.456572 
L 158.71508 143.552634 
L 173.493545 143.663474 
L 188.271893 143.789093 
L 203.050107 143.929491 
L 217.828174 144.084666 
L 232.606078 144.254619 
L 247.383805 144.439351 
L 262.16134 144.638859 
L 276.938668 144.853146 
L 291.715774 145.082209 
L 306.492644 145.32605 
L 321.269262 145.584667 
L 336.045615 145.858061 
L 350.821686 146.146231 
L 365.597462 146.449176 
L 380.372928 146.766898 
L 395.148069 147.099395 
L 409.92287 147.446666 
L 424.697316 147.808713 
L 439.471393 148.185533 
L 454.245085 148.577128 
L 469.018379 148.983496 
L 483.791258 149.404637 
L 498.56371 149.840551 
L 513.335718 150.291237 
L 528.107267 150.756695 
L 542.878345 151.236924 
L 557.648934 151.731924 
L 572.419021 152.241694 
L 587.188591 152.766234 
L 601.957629 153.305543 
L 616.72612 153.859622 
L 631.49405 154.428468 
L 646.261403 155.012082 
L 661.028166 155.610463 
L 675.794323 156.223611 
L 690.559859 156.851524 
L 705.32476 157.494203 
L 720.089011 158.151646 
L 733.06375 158.742404 
" clip-path="url(#pa84fb14d36)" style="fill: none; stroke-dasharray: 5.55,2.4; stroke-dashoffset: 0; stroke: #000000; stroke-opacity: 0.5; stroke-width: 1.5"/>
   </g>
   <g id="line2d_23">
    <path d="M 55.26375 98.76241 
L 70.087058 98.769822 
L 84.910351 98.792057 
L 99.733614 98.829115 
L 114.556833 98.880996 
L 129.379992 98.947701 
L 144.203078 99.029229 
L 159.026074 99.12558 
L 173.848967 99.236753 
L 188.671741 99.36275 
L 203.494381 99.503569 
L 218.316874 99.659211 
L 233.139203 99.829675 
L 247.961355 100.014962 
L 262.783314 100.215071 
L 277.605065 100.430001 
L 292.426594 100.659753 
L 307.247886 100.904327 
L 322.068926 101.163721 
L 336.889699 101.437937 
L 351.71019 101.726973 
L 366.530385 102.03083 
L 381.350269 102.349506 
L 396.169826 102.683003 
L 410.989043 103.031318 
L 425.807904 103.394453 
L 440.626394 103.772407 
L 455.444499 104.165178 
L 470.262204 104.572768 
L 485.079494 104.995175 
L 499.896354 105.432399 
L 514.712769 105.88444 
L 529.528725 106.351297 
L 544.344207 106.83297 
L 559.1592 107.329458 
L 573.973689 107.840761 
L 588.787659 108.366878 
L 603.601095 108.907808 
L 618.413983 109.463552 
L 633.226308 110.034109 
L 648.038055 110.619477 
L 662.84921 111.219657 
L 677.659756 111.834648 
L 692.469681 112.464449 
L 707.278968 113.109059 
L 722.087603 113.768479 
L 733.06375 114.268239 
" clip-path="url(#pa84fb14d36)" style="fill: none; stroke-dasharray: 5.55,2.4; stroke-dashoffset: 0; stroke: #000000; stroke-opacity: 0.5; stroke-width: 1.5"/>
   </g>
   <g id="line2d_24">
    <path d="M 55.26375 210.960608 
L 195.297982 186.379859 
L 562.616862 122.20739 
L 733.06375 92.443809 
L 733.06375 92.443809 
" clip-path="url(#pa84fb14d36)" style="fill: none; stroke: #1f77b4; stroke-width: 1.5; stroke-linecap: square"/>
   </g>
   <g id="line2d_25">
    <path d="M 55.26375 210.960608 
L 228.049528 148.189211 
L 554.433755 29.697762 
L 554.433755 29.697762 
" clip-path="url(#pa84fb14d36)" style="fill: none; stroke: #ff7f0e; stroke-width: 1.5; stroke-linecap: square"/>
   </g>
   <g id="line2d_26">
    <path d="M 55.26375 153.929159 
L 454.410665 188.958034 
L 663.449416 207.519423 
L 733.06375 213.762796 
L 733.06375 213.762796 
" clip-path="url(#pa84fb14d36)" style="fill: none; stroke: #2ca02c; stroke-width: 1.5; stroke-linecap: square"/>
   </g>
   <g id="line2d_27">
    <path d="M 55.26375 96.205022 
L 171.157471 212.10983 
L 171.157471 212.10983 
" clip-path="url(#pa84fb14d36)" style="fill: none; stroke: #d62728; stroke-width: 1.5; stroke-linecap: square"/>
   </g>
   <g id="patch_3">
    <path d="M 55.26375 223.198125 
L 55.26375 22.318125 
" style="fill: none; stroke: #000000; stroke-width: 0.8; stroke-linejoin: miter; stroke-linecap: square"/>
   </g>
   <g id="patch_4">
    <path d="M 724.86375 223.198125 
L 724.86375 22.318125 
" style="fill: none; stroke: #000000; stroke-width: 0.8; stroke-linejoin: miter; stroke-linecap: square"/>
   </g>
   <g id="patch_5">
    <path d="M 55.26375 223.198125 
L 724.86375 223.198125 
" style="fill: none; stroke: #000000; stroke-width: 0.8; stroke-linejoin: miter; stroke-linecap: square"/>
   </g>
   <g id="patch_6">
    <path d="M 55.26375 22.318125 
L 724.86375 22.318125 
" style="fill: none; stroke: #000000; stroke-width: 0.8; stroke-linejoin: miter; stroke-linecap: square"/>
   </g>
   <g id="text_18">
    <!-- Path propagation through layered atmosphere -->
    <g transform="translate(250.992188 16.318125) scale(0.12 -0.12)">
     <defs>
      <path id="DejaVuSans-70" d="M 1159 525 
L 1159 -1331 
L 581 -1331 
L 581 3500 
L 1159 3500 
L 1159 2969 
Q 1341 3281 1617 3432 
Q 1894 3584 2278 3584 
Q 2916 3584 3314 3078 
Q 3713 2572 3713 1747 
Q 3713 922 3314 415 
Q 2916 -91 2278 -91 
Q 1894 -91 1617 61 
Q 1341 213 1159 525 
z
M 3116 1747 
Q 3116 2381 2855 2742 
Q 2594 3103 2138 3103 
Q 1681 3103 1420 2742 
Q 1159 2381 1159 1747 
Q 1159 1113 1420 752 
Q 1681 391 2138 391 
Q 2594 391 2855 752 
Q 3116 1113 3116 1747 
z
" transform="scale(0.015625)"/>
      <path id="DejaVuSans-67" d="M 2906 1791 
Q 2906 2416 2648 2759 
Q 2391 3103 1925 3103 
Q 1463 3103 1205 2759 
Q 947 2416 947 1791 
Q 947 1169 1205 825 
Q 1463 481 1925 481 
Q 2391 481 2648 825 
Q 2906 1169 2906 1791 
z
M 3481 434 
Q 3481 -459 3084 -895 
Q 2688 -1331 1869 -1331 
Q 1566 -1331 1297 -1286 
Q 1028 -1241 775 -1147 
L 775 -588 
Q 1028 -725 1275 -790 
Q 1522 -856 1778 -856 
Q 2344 -856 2625 -561 
Q 2906 -266 2906 331 
L 2906 616 
Q 2728 306 2450 153 
Q 2172 0 1784 0 
Q 1141 0 747 490 
Q 353 981 353 1791 
Q 353 2603 747 3093 
Q 1141 3584 1784 3584 
Q 2172 3584 2450 3431 
Q 2728 3278 2906 2969 
L 2906 3500 
L 3481 3500 
L 3481 434 
z
" transform="scale(0.015625)"/>
      <path id="DejaVuSans-75" d="M 544 1381 
L 544 3500 
L 1119 3500 
L 1119 1403 
Q 1119 906 1312 657 
Q 1506 409 1894 409 
Q 2359 409 2629 706 
Q 2900 1003 2900 1516 
L 2900 3500 
L 3475 3500 
L 3475 0 
L 2900 0 
L 2900 538 
Q 2691 219 2414 64 
Q 2138 -91 1772 -91 
Q 1169 -91 856 284 
Q 544 659 544 1381 
z
M 1991 3584 
L 1991 3584 
z
" transform="scale(0.015625)"/>
      <path id="DejaVuSans-6c" d="M 603 4863 
L 1178 4863 
L 1178 0 
L 603 0 
L 603 4863 
z
" transform="scale(0.015625)"/>
      <path id="DejaVuSans-79" d="M 2059 -325 
Q 1816 -950 1584 -1140 
Q 1353 -1331 966 -1331 
L 506 -1331 
L 506 -850 
L 844 -850 
Q 1081 -850 1212 -737 
Q 1344 -625 1503 -206 
L 1606 56 
L 191 3500 
L 800 3500 
L 1894 763 
L 2988 3500 
L 3597 3500 
L 2059 -325 
z
" transform="scale(0.015625)"/>
     </defs>
     <use xlink:href="#DejaVuSans-50"/>
     <use xlink:href="#DejaVuSans-61" x="55.802734"/>
     <use xlink:href="#DejaVuSans-74" x="117.082031"/>
     <use xlink:href="#DejaVuSans-68" x="156.291016"/>
     <use xlink:href="#DejaVuSans-20" x="219.669922"/>
     <use xlink:href="#DejaVuSans-70" x="251.457031"/>
     <use xlink:href="#DejaVuSans-72" x="314.933594"/>
     <use xlink:href="#DejaVuSans-6f" x="353.796875"/>
     <use xlink:href="#DejaVuSans-70" x="414.978516"/>
     <use xlink:href="#DejaVuSans-61" x="478.455078"/>
     <use xlink:href="#DejaVuSans-67" x="539.734375"/>
     <use xlink:href="#DejaVuSans-61" x="603.210938"/>
     <use xlink:href="#DejaVuSans-74" x="664.490234"/>
     <use xlink:href="#DejaVuSans-69" x="703.699219"/>
     <use xlink:href="#DejaVuSans-6f" x="731.482422"/>
     <use xlink:href="#DejaVuSans-6e" x="792.664062"/>
     <use xlink:href="#DejaVuSans-20" x="856.042969"/>
     <use xlink:href="#DejaVuSans-74" x="887.830078"/>
     <use xlink:href="#DejaVuSans-68" x="927.039062"/>
     <use xlink:href="#DejaVuSans-72" x="990.417969"/>
     <use xlink:href="#DejaVuSans-6f" x="1029.28125"/>
     <use xlink:href="#DejaVuSans-75" x="1090.462891"/>
     <use xlink:href="#DejaVuSans-67" x="1153.841797"/>
     <use xlink:href="#DejaVuSans-68" x="1217.318359"/>
     <use xlink:href="#DejaVuSans-20" x="1280.697266"/>
     <use xlink:href="#DejaVuSans-6c" x="1312.484375"/>
     <use xlink:href="#DejaVuSans-61" x="1340.267578"/>
     <use xlink:href="#DejaVuSans-79" x="1401.546875"/>
     <use xlink:href="#DejaVuSans-65" x="1460.726562"/>
     <use xlink:href="#DejaVuSans-72" x="1522.25"/>
     <use xlink:href="#DejaVuSans-65" x="1561.113281"/>
     <use xlink:href="#DejaVuSans-64" x="1622.636719"/>
     <use xlink:href="#DejaVuSans-20" x="1686.113281"/>
     <use xlink:href="#DejaVuSans-61" x="1717.900391"/>
     <use xlink:href="#DejaVuSans-74" x="1779.179688"/>
     <use xlink:href="#DejaVuSans-6d" x="1818.388672"/>
     <use xlink:href="#DejaVuSans-6f" x="1915.800781"/>
     <use xlink:href="#DejaVuSans-73" x="1976.982422"/>
     <use xlink:href="#DejaVuSans-70" x="2029.082031"/>
     <use xlink:href="#DejaVuSans-68" x="2092.558594"/>
     <use xlink:href="#DejaVuSans-65" x="2155.9375"/>
     <use xlink:href="#DejaVuSans-72" x="2217.460938"/>
     <use xlink:href="#DejaVuSans-65" x="2256.324219"/>
    </g>
   </g>
   <g id="legend_1">
    <g id="patch_7">
     <path d="M 62.26375 89.030625 
L 125.77 89.030625 
Q 127.77 89.030625 127.77 87.030625 
L 127.77 29.318125 
Q 127.77 27.318125 125.77 27.318125 
L 62.26375 27.318125 
Q 60.26375 27.318125 60.26375 29.318125 
L 60.26375 87.030625 
Q 60.26375 89.030625 62.26375 89.030625 
z
" style="fill: #ffffff; opacity: 0.8; stroke: #cccccc; stroke-linejoin: miter"/>
    </g>
    <g id="line2d_28">
     <path d="M 64.26375 35.416562 
L 74.26375 35.416562 
L 84.26375 35.416562 
" style="fill: none; stroke: #1f77b4; stroke-width: 1.5; stroke-linecap: square"/>
    </g>
    <g id="text_19">
     <!-- Path 1 -->
     <g transform="translate(92.26375 38.916562) scale(0.1 -0.1)">
      <use xlink:href="#DejaVuSans-50"/>
      <use xlink:href="#DejaVuSans-61" x="55.802734"/>
      <use xlink:href="#DejaVuSans-74" x="117.082031"/>
      <use xlink:href="#DejaVuSans-68" x="156.291016"/>
      <use xlink:href="#DejaVuSans-20" x="219.669922"/>
      <use xlink:href="#DejaVuSans-31" x="251.457031"/>
     </g>
    </g>
    <g id="line2d_29">
     <path d="M 64.26375 50.094687 
L 74.26375 50.094687 
L 84.26375 50.094687 
" style="fill: none; stroke: #ff7f0e; stroke-width: 1.5; stroke-linecap: square"/>
    </g>
    <g id="text_20">
     <!-- Path 2 -->
     <g transform="translate(92.26375 53.594687) scale(0.1 -0.1)">
      <use xlink:href="#DejaVuSans-50"/>
      <use xlink:href="#DejaVuSans-61" x="55.802734"/>
      <use xlink:href="#DejaVuSans-74" x="117.082031"/>
      <use xlink:href="#DejaVuSans-68" x="156.291016"/>
      <use xlink:href="#DejaVuSans-20" x="219.669922"/>
      <use xlink:href="#DejaVuSans-32" x="251.457031"/>
     </g>
    </g>
    <g id="line2d_30">
     <path d="M 64.26375 64.772812 
L 74.26375 64.772812 
L 84.26375 64.772812 
" style="fill: none; stroke: #2ca02c; stroke-width: 1.5; stroke-linecap: square"/>
    </g>
    <g id="text_21">
     <!-- Path 3 -->
     <g transform="translate(92.26375 68.272812) scale(0.1 -0.1)">
      <use xlink:href="#DejaVuSans-50"/>
      <use xlink:href="#DejaVuSans-61" x="55.802734"/>
      <use xlink:href="#DejaVuSans-74" x="117.082031"/>
      <use xlink:href="#DejaVuSans-68" x="156.291016"/>
      <use xlink:href="#DejaVuSans-20" x="219.669922"/>
      <use xlink:href="#DejaVuSans-33" x="251.457031"/>
     </g>
    </g>
    <g id="line2d_31">
     <path d="M 64.26375 79.450937 
L 74.26375 79.450937 
L 84.26375 79.450937 
" style="fill: none; stroke: #d62728; stroke-width: 1.5; stroke-linecap: square"/>
    </g>
    <g id="text_22">
     <!-- Path 4 -->
     <g transform="translate(92.26375 82.950937) scale(0.1 -0.1)">
      <use xlink:href="#DejaVuSans-50"/>
      <use xlink:href="#DejaVuSans-61" x="55.802734"/>
      <use xlink:href="#DejaVuSans-74" x="117.082031"/>
      <use xlink:href="#DejaVuSans-68" x="156.291016"/>
      <use xlink:href="#DejaVuSans-20" x="219.669922"/>
      <use xlink:href="#DejaVuSans-34" x="251.457031"/>
     </g>
    </g>
   </g>
  </g>
 </g>
 <defs>
  <clipPath id="pa84fb14d36">
   <rect x="55.26375" y="22.318125" width="669.6" height="200.88"/>
  </clipPath>
 </defs>
</svg>
