<?xml version="1.0" encoding="utf-8" standalone="no"?>
<!DOCTYPE svg PUBLIC "-//W3C//DTD SVG 1.1//EN"
  "http://www.w3.org/Graphics/SVG/1.1/DTD/svg11.dtd">
<svg height="432pt" version="1.1" viewBox="0 0 576 432" width="576pt" xmlns="http://www.w3.org/2000/svg" xmlns:xlink="http://www.w3.org/1999/xlink">
 <metadata>
  <rdf:RDF xmlns:cc="http://creativecommons.org/ns#" xmlns:dc="http://purl.org/dc/elements/1.1/" xmlns:rdf="http://www.w3.org/1999/02/22-rdf-syntax-ns#">
   <cc:Work>
    <dc:type rdf:resource="http://purl.org/dc/dcmitype/StillImage"/>
    <dc:date>2022-05-23T20:02:49.831010</dc:date>
    <dc:format>image/svg+xml</dc:format>
    <dc:creator>
     <cc:Agent>
      <dc:title>Matplotlib v3.4.3, https://matplotlib.org/</dc:title>
     </cc:Agent>
    </dc:creator>
   </cc:Work>
  </rdf:RDF>
 </metadata>
 <defs>
  <style type="text/css">*{stroke-linecap:butt;stroke-linejoin:round;}</style>
 </defs>
 <g id="figure_1">
  <g id="patch_1">
   <path d="M 0 432 
L 576 432 
L 576 0 
L 0 0 
z
" style="fill:#ffffff;"/>
  </g>
  <g id="axes_1">
   <g id="patch_2">
    <path d="M 72 384.48 
L 518.4 384.48 
L 518.4 51.84 
L 72 51.84 
z
" style="fill:#ffffff;"/>
   </g>
   <g id="matplotlib.axis_1">
    <g id="xtick_1">
     <g id="line2d_1">
      <path clip-path="url(#p36c09dbed6)" d="M 72 384.48 
L 72 51.84 
" style="fill:none;stroke:#b0b0b0;stroke-linecap:square;stroke-width:0.8;"/>
     </g>
     <g id="line2d_2">
      <defs>
       <path d="M 0 0 
L 0 3.5 
" id="m84c5e788e0" style="stroke:#000000;stroke-width:0.8;"/>
      </defs>
      <g>
       <use style="stroke:#000000;stroke-width:0.8;" x="72" xlink:href="#m84c5e788e0" y="384.48"/>
      </g>
     </g>
     <g id="text_1">
      <!-- −20 -->
      <g transform="translate(61.447656 399.078438)scale(0.1 -0.1)">
       <defs>
        <path d="M 678 2272 
L 4684 2272 
L 4684 1741 
L 678 1741 
L 678 2272 
z
" id="DejaVuSans-2212" transform="scale(0.015625)"/>
        <path d="M 1228 531 
L 3431 531 
L 3431 0 
L 469 0 
L 469 531 
Q 828 903 1448 1529 
Q 2069 2156 2228 2338 
Q 2531 2678 2651 2914 
Q 2772 3150 2772 3378 
Q 2772 3750 2511 3984 
Q 2250 4219 1831 4219 
Q 1534 4219 1204 4116 
Q 875 4013 500 3803 
L 500 4441 
Q 881 4594 1212 4672 
Q 1544 4750 1819 4750 
Q 2544 4750 2975 4387 
Q 3406 4025 3406 3419 
Q 3406 3131 3298 2873 
Q 3191 2616 2906 2266 
Q 2828 2175 2409 1742 
Q 1991 1309 1228 531 
z
" id="DejaVuSans-32" transform="scale(0.015625)"/>
        <path d="M 2034 4250 
Q 1547 4250 1301 3770 
Q 1056 3291 1056 2328 
Q 1056 1369 1301 889 
Q 1547 409 2034 409 
Q 2525 409 2770 889 
Q 3016 1369 3016 2328 
Q 3016 3291 2770 3770 
Q 2525 4250 2034 4250 
z
M 2034 4750 
Q 2819 4750 3233 4129 
Q 3647 3509 3647 2328 
Q 3647 1150 3233 529 
Q 2819 -91 2034 -91 
Q 1250 -91 836 529 
Q 422 1150 422 2328 
Q 422 3509 836 4129 
Q 1250 4750 2034 4750 
z
" id="DejaVuSans-30" transform="scale(0.015625)"/>
       </defs>
       <use xlink:href="#DejaVuSans-2212"/>
       <use x="83.789062" xlink:href="#DejaVuSans-32"/>
       <use x="147.412109" xlink:href="#DejaVuSans-30"/>
      </g>
     </g>
    </g>
    <g id="xtick_2">
     <g id="line2d_3">
      <path clip-path="url(#p36c09dbed6)" d="M 127.8 384.48 
L 127.8 51.84 
" style="fill:none;stroke:#b0b0b0;stroke-linecap:square;stroke-width:0.8;"/>
     </g>
     <g id="line2d_4">
      <g>
       <use style="stroke:#000000;stroke-width:0.8;" x="127.8" xlink:href="#m84c5e788e0" y="384.48"/>
      </g>
     </g>
     <g id="text_2">
      <!-- 0 -->
      <g transform="translate(124.61875 399.078438)scale(0.1 -0.1)">
       <use xlink:href="#DejaVuSans-30"/>
      </g>
     </g>
    </g>
    <g id="xtick_3">
     <g id="line2d_5">
      <path clip-path="url(#p36c09dbed6)" d="M 183.6 384.48 
L 183.6 51.84 
" style="fill:none;stroke:#b0b0b0;stroke-linecap:square;stroke-width:0.8;"/>
     </g>
     <g id="line2d_6">
      <g>
       <use style="stroke:#000000;stroke-width:0.8;" x="183.6" xlink:href="#m84c5e788e0" y="384.48"/>
      </g>
     </g>
     <g id="text_3">
      <!-- 20 -->
      <g transform="translate(177.2375 399.078438)scale(0.1 -0.1)">
       <use xlink:href="#DejaVuSans-32"/>
       <use x="63.623047" xlink:href="#DejaVuSans-30"/>
      </g>
     </g>
    </g>
    <g id="xtick_4">
     <g id="line2d_7">
      <path clip-path="url(#p36c09dbed6)" d="M 239.4 384.48 
L 239.4 51.84 
" style="fill:none;stroke:#b0b0b0;stroke-linecap:square;stroke-width:0.8;"/>
     </g>
     <g id="line2d_8">
      <g>
       <use style="stroke:#000000;stroke-width:0.8;" x="239.4" xlink:href="#m84c5e788e0" y="384.48"/>
      </g>
     </g>
     <g id="text_4">
      <!-- 40 -->
      <g transform="translate(233.0375 399.078438)scale(0.1 -0.1)">
       <defs>
        <path d="M 2419 4116 
L 825 1625 
L 2419 1625 
L 2419 4116 
z
M 2253 4666 
L 3047 4666 
L 3047 1625 
L 3713 1625 
L 3713 1100 
L 3047 1100 
L 3047 0 
L 2419 0 
L 2419 1100 
L 313 1100 
L 313 1709 
L 2253 4666 
z
" id="DejaVuSans-34" transform="scale(0.015625)"/>
       </defs>
       <use xlink:href="#DejaVuSans-34"/>
       <use x="63.623047" xlink:href="#DejaVuSans-30"/>
      </g>
     </g>
    </g>
    <g id="xtick_5">
     <g id="line2d_9">
      <path clip-path="url(#p36c09dbed6)" d="M 295.2 384.48 
L 295.2 51.84 
" style="fill:none;stroke:#b0b0b0;stroke-linecap:square;stroke-width:0.8;"/>
     </g>
     <g id="line2d_10">
      <g>
       <use style="stroke:#000000;stroke-width:0.8;" x="295.2" xlink:href="#m84c5e788e0" y="384.48"/>
      </g>
     </g>
     <g id="text_5">
      <!-- 60 -->
      <g transform="translate(288.8375 399.078438)scale(0.1 -0.1)">
       <defs>
        <path d="M 2113 2584 
Q 1688 2584 1439 2293 
Q 1191 2003 1191 1497 
Q 1191 994 1439 701 
Q 1688 409 2113 409 
Q 2538 409 2786 701 
Q 3034 994 3034 1497 
Q 3034 2003 2786 2293 
Q 2538 2584 2113 2584 
z
M 3366 4563 
L 3366 3988 
Q 3128 4100 2886 4159 
Q 2644 4219 2406 4219 
Q 1781 4219 1451 3797 
Q 1122 3375 1075 2522 
Q 1259 2794 1537 2939 
Q 1816 3084 2150 3084 
Q 2853 3084 3261 2657 
Q 3669 2231 3669 1497 
Q 3669 778 3244 343 
Q 2819 -91 2113 -91 
Q 1303 -91 875 529 
Q 447 1150 447 2328 
Q 447 3434 972 4092 
Q 1497 4750 2381 4750 
Q 2619 4750 2861 4703 
Q 3103 4656 3366 4563 
z
" id="DejaVuSans-36" transform="scale(0.015625)"/>
       </defs>
       <use xlink:href="#DejaVuSans-36"/>
       <use x="63.623047" xlink:href="#DejaVuSans-30"/>
      </g>
     </g>
    </g>
    <g id="xtick_6">
     <g id="line2d_11">
      <path clip-path="url(#p36c09dbed6)" d="M 351 384.48 
L 351 51.84 
" style="fill:none;stroke:#b0b0b0;stroke-linecap:square;stroke-width:0.8;"/>
     </g>
     <g id="line2d_12">
      <g>
       <use style="stroke:#000000;stroke-width:0.8;" x="351" xlink:href="#m84c5e788e0" y="384.48"/>
      </g>
     </g>
     <g id="text_6">
      <!-- 80 -->
      <g transform="translate(344.6375 399.078438)scale(0.1 -0.1)">
       <defs>
        <path d="M 2034 2216 
Q 1584 2216 1326 1975 
Q 1069 1734 1069 1313 
Q 1069 891 1326 650 
Q 1584 409 2034 409 
Q 2484 409 2743 651 
Q 3003 894 3003 1313 
Q 3003 1734 2745 1975 
Q 2488 2216 2034 2216 
z
M 1403 2484 
Q 997 2584 770 2862 
Q 544 3141 544 3541 
Q 544 4100 942 4425 
Q 1341 4750 2034 4750 
Q 2731 4750 3128 4425 
Q 3525 4100 3525 3541 
Q 3525 3141 3298 2862 
Q 3072 2584 2669 2484 
Q 3125 2378 3379 2068 
Q 3634 1759 3634 1313 
Q 3634 634 3220 271 
Q 2806 -91 2034 -91 
Q 1263 -91 848 271 
Q 434 634 434 1313 
Q 434 1759 690 2068 
Q 947 2378 1403 2484 
z
M 1172 3481 
Q 1172 3119 1398 2916 
Q 1625 2713 2034 2713 
Q 2441 2713 2670 2916 
Q 2900 3119 2900 3481 
Q 2900 3844 2670 4047 
Q 2441 4250 2034 4250 
Q 1625 4250 1398 4047 
Q 1172 3844 1172 3481 
z
" id="DejaVuSans-38" transform="scale(0.015625)"/>
       </defs>
       <use xlink:href="#DejaVuSans-38"/>
       <use x="63.623047" xlink:href="#DejaVuSans-30"/>
      </g>
     </g>
    </g>
    <g id="xtick_7">
     <g id="line2d_13">
      <path clip-path="url(#p36c09dbed6)" d="M 406.8 384.48 
L 406.8 51.84 
" style="fill:none;stroke:#b0b0b0;stroke-linecap:square;stroke-width:0.8;"/>
     </g>
     <g id="line2d_14">
      <g>
       <use style="stroke:#000000;stroke-width:0.8;" x="406.8" xlink:href="#m84c5e788e0" y="384.48"/>
      </g>
     </g>
     <g id="text_7">
      <!-- 100 -->
      <g transform="translate(397.25625 399.078438)scale(0.1 -0.1)">
       <defs>
        <path d="M 794 531 
L 1825 531 
L 1825 4091 
L 703 3866 
L 703 4441 
L 1819 4666 
L 2450 4666 
L 2450 531 
L 3481 531 
L 3481 0 
L 794 0 
L 794 531 
z
" id="DejaVuSans-31" transform="scale(0.015625)"/>
       </defs>
       <use xlink:href="#DejaVuSans-31"/>
       <use x="63.623047" xlink:href="#DejaVuSans-30"/>
       <use x="127.246094" xlink:href="#DejaVuSans-30"/>
      </g>
     </g>
    </g>
    <g id="xtick_8">
     <g id="line2d_15">
      <path clip-path="url(#p36c09dbed6)" d="M 462.6 384.48 
L 462.6 51.84 
" style="fill:none;stroke:#b0b0b0;stroke-linecap:square;stroke-width:0.8;"/>
     </g>
     <g id="line2d_16">
      <g>
       <use style="stroke:#000000;stroke-width:0.8;" x="462.6" xlink:href="#m84c5e788e0" y="384.48"/>
      </g>
     </g>
     <g id="text_8">
      <!-- 120 -->
      <g transform="translate(453.05625 399.078438)scale(0.1 -0.1)">
       <use xlink:href="#DejaVuSans-31"/>
       <use x="63.623047" xlink:href="#DejaVuSans-32"/>
       <use x="127.246094" xlink:href="#DejaVuSans-30"/>
      </g>
     </g>
    </g>
    <g id="xtick_9">
     <g id="line2d_17">
      <path clip-path="url(#p36c09dbed6)" d="M 518.4 384.48 
L 518.4 51.84 
" style="fill:none;stroke:#b0b0b0;stroke-linecap:square;stroke-width:0.8;"/>
     </g>
     <g id="line2d_18">
      <g>
       <use style="stroke:#000000;stroke-width:0.8;" x="518.4" xlink:href="#m84c5e788e0" y="384.48"/>
      </g>
     </g>
     <g id="text_9">
      <!-- 140 -->
      <g transform="translate(508.85625 399.078438)scale(0.1 -0.1)">
       <use xlink:href="#DejaVuSans-31"/>
       <use x="63.623047" xlink:href="#DejaVuSans-34"/>
       <use x="127.246094" xlink:href="#DejaVuSans-30"/>
      </g>
     </g>
    </g>
    <g id="text_10">
     <!-- BEL [dB] -->
     <g transform="translate(273.728906 412.756563)scale(0.1 -0.1)">
      <defs>
       <path d="M 1259 2228 
L 1259 519 
L 2272 519 
Q 2781 519 3026 730 
Q 3272 941 3272 1375 
Q 3272 1813 3026 2020 
Q 2781 2228 2272 2228 
L 1259 2228 
z
M 1259 4147 
L 1259 2741 
L 2194 2741 
Q 2656 2741 2882 2914 
Q 3109 3088 3109 3444 
Q 3109 3797 2882 3972 
Q 2656 4147 2194 4147 
L 1259 4147 
z
M 628 4666 
L 2241 4666 
Q 2963 4666 3353 4366 
Q 3744 4066 3744 3513 
Q 3744 3084 3544 2831 
Q 3344 2578 2956 2516 
Q 3422 2416 3680 2098 
Q 3938 1781 3938 1306 
Q 3938 681 3513 340 
Q 3088 0 2303 0 
L 628 0 
L 628 4666 
z
" id="DejaVuSans-42" transform="scale(0.015625)"/>
       <path d="M 628 4666 
L 3578 4666 
L 3578 4134 
L 1259 4134 
L 1259 2753 
L 3481 2753 
L 3481 2222 
L 1259 2222 
L 1259 531 
L 3634 531 
L 3634 0 
L 628 0 
L 628 4666 
z
" id="DejaVuSans-45" transform="scale(0.015625)"/>
       <path d="M 628 4666 
L 1259 4666 
L 1259 531 
L 3531 531 
L 3531 0 
L 628 0 
L 628 4666 
z
" id="DejaVuSans-4c" transform="scale(0.015625)"/>
       <path id="DejaVuSans-20" transform="scale(0.015625)"/>
       <path d="M 550 4863 
L 1875 4863 
L 1875 4416 
L 1125 4416 
L 1125 -397 
L 1875 -397 
L 1875 -844 
L 550 -844 
L 550 4863 
z
" id="DejaVuSans-5b" transform="scale(0.015625)"/>
       <path d="M 2906 2969 
L 2906 4863 
L 3481 4863 
L 3481 0 
L 2906 0 
L 2906 525 
Q 2725 213 2448 61 
Q 2172 -91 1784 -91 
Q 1150 -91 751 415 
Q 353 922 353 1747 
Q 353 2572 751 3078 
Q 1150 3584 1784 3584 
Q 2172 3584 2448 3432 
Q 2725 3281 2906 2969 
z
M 947 1747 
Q 947 1113 1208 752 
Q 1469 391 1925 391 
Q 2381 391 2643 752 
Q 2906 1113 2906 1747 
Q 2906 2381 2643 2742 
Q 2381 3103 1925 3103 
Q 1469 3103 1208 2742 
Q 947 2381 947 1747 
z
" id="DejaVuSans-64" transform="scale(0.015625)"/>
       <path d="M 1947 4863 
L 1947 -844 
L 622 -844 
L 622 -397 
L 1369 -397 
L 1369 4416 
L 622 4416 
L 622 4863 
L 1947 4863 
z
" id="DejaVuSans-5d" transform="scale(0.015625)"/>
      </defs>
      <use xlink:href="#DejaVuSans-42"/>
      <use x="68.603516" xlink:href="#DejaVuSans-45"/>
      <use x="131.787109" xlink:href="#DejaVuSans-4c"/>
      <use x="187.5" xlink:href="#DejaVuSans-20"/>
      <use x="219.287109" xlink:href="#DejaVuSans-5b"/>
      <use x="258.300781" xlink:href="#DejaVuSans-64"/>
      <use x="321.777344" xlink:href="#DejaVuSans-42"/>
      <use x="390.380859" xlink:href="#DejaVuSans-5d"/>
     </g>
    </g>
   </g>
   <g id="matplotlib.axis_2">
    <g id="ytick_1">
     <g id="line2d_19">
      <path clip-path="url(#p36c09dbed6)" d="M 72 384.48 
L 518.4 384.48 
" style="fill:none;stroke:#b0b0b0;stroke-linecap:square;stroke-width:0.8;"/>
     </g>
     <g id="line2d_20">
      <defs>
       <path d="M 0 0 
L -3.5 0 
" id="m3e5e53e5e5" style="stroke:#000000;stroke-width:0.8;"/>
      </defs>
      <g>
       <use style="stroke:#000000;stroke-width:0.8;" x="72" xlink:href="#m3e5e53e5e5" y="384.48"/>
      </g>
     </g>
     <g id="text_11">
      <!-- 0.0 -->
      <g transform="translate(49.096875 388.279219)scale(0.1 -0.1)">
       <defs>
        <path d="M 684 794 
L 1344 794 
L 1344 0 
L 684 0 
L 684 794 
z
" id="DejaVuSans-2e" transform="scale(0.015625)"/>
       </defs>
       <use xlink:href="#DejaVuSans-30"/>
       <use x="63.623047" xlink:href="#DejaVuSans-2e"/>
       <use x="95.410156" xlink:href="#DejaVuSans-30"/>
      </g>
     </g>
    </g>
    <g id="ytick_2">
     <g id="line2d_21">
      <path clip-path="url(#p36c09dbed6)" d="M 72 317.952 
L 518.4 317.952 
" style="fill:none;stroke:#b0b0b0;stroke-linecap:square;stroke-width:0.8;"/>
     </g>
     <g id="line2d_22">
      <g>
       <use style="stroke:#000000;stroke-width:0.8;" x="72" xlink:href="#m3e5e53e5e5" y="317.952"/>
      </g>
     </g>
     <g id="text_12">
      <!-- 0.2 -->
      <g transform="translate(49.096875 321.751219)scale(0.1 -0.1)">
       <use xlink:href="#DejaVuSans-30"/>
       <use x="63.623047" xlink:href="#DejaVuSans-2e"/>
       <use x="95.410156" xlink:href="#DejaVuSans-32"/>
      </g>
     </g>
    </g>
    <g id="ytick_3">
     <g id="line2d_23">
      <path clip-path="url(#p36c09dbed6)" d="M 72 251.424 
L 518.4 251.424 
" style="fill:none;stroke:#b0b0b0;stroke-linecap:square;stroke-width:0.8;"/>
     </g>
     <g id="line2d_24">
      <g>
       <use style="stroke:#000000;stroke-width:0.8;" x="72" xlink:href="#m3e5e53e5e5" y="251.424"/>
      </g>
     </g>
     <g id="text_13">
      <!-- 0.4 -->
      <g transform="translate(49.096875 255.223219)scale(0.1 -0.1)">
       <use xlink:href="#DejaVuSans-30"/>
       <use x="63.623047" xlink:href="#DejaVuSans-2e"/>
       <use x="95.410156" xlink:href="#DejaVuSans-34"/>
      </g>
     </g>
    </g>
    <g id="ytick_4">
     <g id="line2d_25">
      <path clip-path="url(#p36c09dbed6)" d="M 72 184.896 
L 518.4 184.896 
" style="fill:none;stroke:#b0b0b0;stroke-linecap:square;stroke-width:0.8;"/>
     </g>
     <g id="line2d_26">
      <g>
       <use style="stroke:#000000;stroke-width:0.8;" x="72" xlink:href="#m3e5e53e5e5" y="184.896"/>
      </g>
     </g>
     <g id="text_14">
      <!-- 0.6 -->
      <g transform="translate(49.096875 188.695219)scale(0.1 -0.1)">
       <use xlink:href="#DejaVuSans-30"/>
       <use x="63.623047" xlink:href="#DejaVuSans-2e"/>
       <use x="95.410156" xlink:href="#DejaVuSans-36"/>
      </g>
     </g>
    </g>
    <g id="ytick_5">
     <g id="line2d_27">
      <path clip-path="url(#p36c09dbed6)" d="M 72 118.368 
L 518.4 118.368 
" style="fill:none;stroke:#b0b0b0;stroke-linecap:square;stroke-width:0.8;"/>
     </g>
     <g id="line2d_28">
      <g>
       <use style="stroke:#000000;stroke-width:0.8;" x="72" xlink:href="#m3e5e53e5e5" y="118.368"/>
      </g>
     </g>
     <g id="text_15">
      <!-- 0.8 -->
      <g transform="translate(49.096875 122.167219)scale(0.1 -0.1)">
       <use xlink:href="#DejaVuSans-30"/>
       <use x="63.623047" xlink:href="#DejaVuSans-2e"/>
       <use x="95.410156" xlink:href="#DejaVuSans-38"/>
      </g>
     </g>
    </g>
    <g id="ytick_6">
     <g id="line2d_29">
      <path clip-path="url(#p36c09dbed6)" d="M 72 51.84 
L 518.4 51.84 
" style="fill:none;stroke:#b0b0b0;stroke-linecap:square;stroke-width:0.8;"/>
     </g>
     <g id="line2d_30">
      <g>
       <use style="stroke:#000000;stroke-width:0.8;" x="72" xlink:href="#m3e5e53e5e5" y="51.84"/>
      </g>
     </g>
     <g id="text_16">
      <!-- 1.0 -->
      <g transform="translate(49.096875 55.639219)scale(0.1 -0.1)">
       <use xlink:href="#DejaVuSans-31"/>
       <use x="63.623047" xlink:href="#DejaVuSans-2e"/>
       <use x="95.410156" xlink:href="#DejaVuSans-30"/>
      </g>
     </g>
    </g>
    <g id="text_17">
     <!-- Probability -->
     <g transform="translate(43.017187 244.588906)rotate(-90)scale(0.1 -0.1)">
      <defs>
       <path d="M 1259 4147 
L 1259 2394 
L 2053 2394 
Q 2494 2394 2734 2622 
Q 2975 2850 2975 3272 
Q 2975 3691 2734 3919 
Q 2494 4147 2053 4147 
L 1259 4147 
z
M 628 4666 
L 2053 4666 
Q 2838 4666 3239 4311 
Q 3641 3956 3641 3272 
Q 3641 2581 3239 2228 
Q 2838 1875 2053 1875 
L 1259 1875 
L 1259 0 
L 628 0 
L 628 4666 
z
" id="DejaVuSans-50" transform="scale(0.015625)"/>
       <path d="M 2631 2963 
Q 2534 3019 2420 3045 
Q 2306 3072 2169 3072 
Q 1681 3072 1420 2755 
Q 1159 2438 1159 1844 
L 1159 0 
L 581 0 
L 581 3500 
L 1159 3500 
L 1159 2956 
Q 1341 3275 1631 3429 
Q 1922 3584 2338 3584 
Q 2397 3584 2469 3576 
Q 2541 3569 2628 3553 
L 2631 2963 
z
" id="DejaVuSans-72" transform="scale(0.015625)"/>
       <path d="M 1959 3097 
Q 1497 3097 1228 2736 
Q 959 2375 959 1747 
Q 959 1119 1226 758 
Q 1494 397 1959 397 
Q 2419 397 2687 759 
Q 2956 1122 2956 1747 
Q 2956 2369 2687 2733 
Q 2419 3097 1959 3097 
z
M 1959 3584 
Q 2709 3584 3137 3096 
Q 3566 2609 3566 1747 
Q 3566 888 3137 398 
Q 2709 -91 1959 -91 
Q 1206 -91 779 398 
Q 353 888 353 1747 
Q 353 2609 779 3096 
Q 1206 3584 1959 3584 
z
" id="DejaVuSans-6f" transform="scale(0.015625)"/>
       <path d="M 3116 1747 
Q 3116 2381 2855 2742 
Q 2594 3103 2138 3103 
Q 1681 3103 1420 2742 
Q 1159 2381 1159 1747 
Q 1159 1113 1420 752 
Q 1681 391 2138 391 
Q 2594 391 2855 752 
Q 3116 1113 3116 1747 
z
M 1159 2969 
Q 1341 3281 1617 3432 
Q 1894 3584 2278 3584 
Q 2916 3584 3314 3078 
Q 3713 2572 3713 1747 
Q 3713 922 3314 415 
Q 2916 -91 2278 -91 
Q 1894 -91 1617 61 
Q 1341 213 1159 525 
L 1159 0 
L 581 0 
L 581 4863 
L 1159 4863 
L 1159 2969 
z
" id="DejaVuSans-62" transform="scale(0.015625)"/>
       <path d="M 2194 1759 
Q 1497 1759 1228 1600 
Q 959 1441 959 1056 
Q 959 750 1161 570 
Q 1363 391 1709 391 
Q 2188 391 2477 730 
Q 2766 1069 2766 1631 
L 2766 1759 
L 2194 1759 
z
M 3341 1997 
L 3341 0 
L 2766 0 
L 2766 531 
Q 2569 213 2275 61 
Q 1981 -91 1556 -91 
Q 1019 -91 701 211 
Q 384 513 384 1019 
Q 384 1609 779 1909 
Q 1175 2209 1959 2209 
L 2766 2209 
L 2766 2266 
Q 2766 2663 2505 2880 
Q 2244 3097 1772 3097 
Q 1472 3097 1187 3025 
Q 903 2953 641 2809 
L 641 3341 
Q 956 3463 1253 3523 
Q 1550 3584 1831 3584 
Q 2591 3584 2966 3190 
Q 3341 2797 3341 1997 
z
" id="DejaVuSans-61" transform="scale(0.015625)"/>
       <path d="M 603 3500 
L 1178 3500 
L 1178 0 
L 603 0 
L 603 3500 
z
M 603 4863 
L 1178 4863 
L 1178 4134 
L 603 4134 
L 603 4863 
z
" id="DejaVuSans-69" transform="scale(0.015625)"/>
       <path d="M 603 4863 
L 1178 4863 
L 1178 0 
L 603 0 
L 603 4863 
z
" id="DejaVuSans-6c" transform="scale(0.015625)"/>
       <path d="M 1172 4494 
L 1172 3500 
L 2356 3500 
L 2356 3053 
L 1172 3053 
L 1172 1153 
Q 1172 725 1289 603 
Q 1406 481 1766 481 
L 2356 481 
L 2356 0 
L 1766 0 
Q 1100 0 847 248 
Q 594 497 594 1153 
L 594 3053 
L 172 3053 
L 172 3500 
L 594 3500 
L 594 4494 
L 1172 4494 
z
" id="DejaVuSans-74" transform="scale(0.015625)"/>
       <path d="M 2059 -325 
Q 1816 -950 1584 -1140 
Q 1353 -1331 966 -1331 
L 506 -1331 
L 506 -850 
L 844 -850 
Q 1081 -850 1212 -737 
Q 1344 -625 1503 -206 
L 1606 56 
L 191 3500 
L 800 3500 
L 1894 763 
L 2988 3500 
L 3597 3500 
L 2059 -325 
z
" id="DejaVuSans-79" transform="scale(0.015625)"/>
      </defs>
      <use xlink:href="#DejaVuSans-50"/>
      <use x="58.552734" xlink:href="#DejaVuSans-72"/>
      <use x="97.416016" xlink:href="#DejaVuSans-6f"/>
      <use x="158.597656" xlink:href="#DejaVuSans-62"/>
      <use x="222.074219" xlink:href="#DejaVuSans-61"/>
      <use x="283.353516" xlink:href="#DejaVuSans-62"/>
      <use x="346.830078" xlink:href="#DejaVuSans-69"/>
      <use x="374.613281" xlink:href="#DejaVuSans-6c"/>
      <use x="402.396484" xlink:href="#DejaVuSans-69"/>
      <use x="430.179688" xlink:href="#DejaVuSans-74"/>
      <use x="469.388672" xlink:href="#DejaVuSans-79"/>
     </g>
    </g>
   </g>
   <g id="line2d_31">
    <path clip-path="url(#p36c09dbed6)" d="M 119.800658 384.479667 
L 127.213377 382.808113 
L 129.675563 381.136558 
L 131.450229 379.465004 
L 132.88311 377.79345 
L 134.10408 376.121895 
L 136.143719 372.778786 
L 137.838069 369.435677 
L 139.306459 366.092568 
L 141.219918 361.077905 
L 142.889982 356.063242 
L 144.853618 349.377024 
L 147.011881 341.019252 
L 148.938115 332.66148 
L 151.031228 322.632153 
L 153.256003 310.931272 
L 155.874532 295.887282 
L 158.825208 277.500183 
L 162.335346 254.098421 
L 168.078805 213.981114 
L 173.191189 178.878471 
L 176.578605 157.148263 
L 179.401054 140.432718 
L 181.86621 127.060283 
L 184.24123 115.359402 
L 186.505702 105.330075 
L 188.61899 96.972303 
L 190.514822 90.286085 
L 192.665259 83.599867 
L 194.511081 78.585204 
L 196.643349 73.57054 
L 198.289637 70.227432 
L 200.194492 66.884323 
L 202.480266 63.541214 
L 203.832907 61.869659 
L 205.388721 60.198105 
L 207.233319 58.52655 
L 209.523931 56.854996 
L 212.604502 55.183442 
L 217.532409 53.511887 
L 261.067936 51.840333 
L 261.067936 51.840333 
" style="fill:none;stroke:#000000;stroke-dasharray:5.55,2.4;stroke-dashoffset:0;stroke-width:1.5;"/>
   </g>
   <g id="line2d_32">
    <path clip-path="url(#p36c09dbed6)" d="M 124.025928 384.479667 
L 169.520291 382.808113 
L 176.245639 381.136558 
L 180.481048 379.465004 
L 183.643063 377.79345 
L 186.19642 376.121895 
L 188.354568 374.450341 
L 190.234097 372.778786 
L 191.905974 371.107232 
L 194.798677 367.764123 
L 197.263345 364.421014 
L 199.426176 361.077905 
L 201.364101 357.734796 
L 203.955431 352.720133 
L 206.262248 347.70547 
L 208.354468 342.690806 
L 210.889303 336.004588 
L 213.199943 329.318371 
L 215.84842 320.960598 
L 218.760429 310.931272 
L 221.886033 299.230391 
L 225.197917 285.857955 
L 228.688796 270.813965 
L 233.08822 250.755312 
L 239.058434 222.338886 
L 247.498041 182.221579 
L 251.96177 162.162926 
L 255.527931 147.118936 
L 258.933908 133.7465 
L 261.69111 123.717174 
L 264.684936 113.687847 
L 267.421552 105.330075 
L 269.821378 98.643857 
L 272.46933 91.957639 
L 274.6689 86.942976 
L 277.111306 81.928313 
L 279.880654 76.913649 
L 281.973072 73.57054 
L 284.334481 70.227432 
L 287.066643 66.884323 
L 288.62189 65.212768 
L 290.345198 63.541214 
L 292.285449 61.869659 
L 294.517323 60.198105 
L 297.163824 58.52655 
L 300.450934 56.854996 
L 304.873214 55.183442 
L 311.952158 53.511887 
L 374.95152 51.840333 
L 374.95152 51.840333 
" style="fill:none;stroke:#000000;stroke-dasharray:1.5,2.475;stroke-dashoffset:0;stroke-width:1.5;"/>
   </g>
   <g id="line2d_33"/>
   <g id="line2d_34">
    <path clip-path="url(#p36c09dbed6)" d="M 120.789888 384.479667 
L 129.254069 382.808113 
L 131.343365 381.136558 
L 132.814771 379.465004 
L 133.995552 377.79345 
L 135.890089 374.450341 
L 137.428099 371.107232 
L 138.752336 367.764123 
L 140.48068 362.74946 
L 142.473477 356.063242 
L 144.234146 349.377024 
L 146.21753 341.019252 
L 148.379963 330.989925 
L 151.01718 317.61749 
L 154.06005 300.901945 
L 157.768002 279.171737 
L 163.773322 242.397539 
L 170.111263 203.951787 
L 173.906943 182.221579 
L 177.341783 163.834481 
L 180.374192 148.79049 
L 183.303455 135.418055 
L 186.112482 123.717174 
L 188.767187 113.687847 
L 191.212702 105.330075 
L 193.370529 98.643857 
L 195.764339 91.957639 
L 197.762018 86.942976 
L 199.988992 81.928313 
L 202.52394 76.913649 
L 204.445393 73.57054 
L 206.61943 70.227432 
L 209.141235 66.884323 
L 210.579432 65.212768 
L 212.175048 63.541214 
L 213.973772 61.869659 
L 216.045389 60.198105 
L 218.504802 58.52655 
L 221.563011 56.854996 
L 225.681494 55.183442 
L 232.27845 53.511887 
L 290.397062 51.840333 
L 290.397062 51.840333 
" style="fill:none;stroke:#ff0000;stroke-dasharray:5.55,2.4;stroke-dashoffset:0;stroke-width:1.5;"/>
   </g>
   <g id="line2d_35">
    <path clip-path="url(#p36c09dbed6)" d="M 119.921807 384.479667 
L 141.163169 382.808113 
L 147.087069 381.136558 
L 151.019271 379.465004 
L 154.034868 377.79345 
L 156.51252 376.121895 
L 158.633055 374.450341 
L 160.497832 372.778786 
L 163.690563 369.435677 
L 166.388493 366.092568 
L 168.745976 362.74946 
L 170.853974 359.406351 
L 173.670589 354.391687 
L 176.179275 349.377024 
L 178.457938 344.362361 
L 181.22527 337.676143 
L 183.756003 330.989925 
L 186.668265 322.632153 
L 189.886562 312.602826 
L 193.362014 300.901945 
L 197.07049 287.52951 
L 201.010069 272.485519 
L 206.021841 252.426866 
L 216.146938 210.638005 
L 221.9537 187.236243 
L 226.30411 170.520698 
L 230.45005 155.476708 
L 233.886605 143.775827 
L 237.029319 133.7465 
L 240.409219 123.717174 
L 243.459905 115.359402 
L 246.096507 108.673184 
L 248.95407 101.986966 
L 252.09422 95.300748 
L 254.687842 90.286085 
L 257.546384 85.271422 
L 259.638103 81.928313 
L 261.917231 78.585204 
L 264.431083 75.242095 
L 267.24795 71.898986 
L 270.471993 68.555877 
L 272.286087 66.884323 
L 274.274464 65.212768 
L 276.481037 63.541214 
L 278.969293 61.869659 
L 281.836234 60.198105 
L 285.241644 58.52655 
L 289.479096 56.854996 
L 295.191057 55.183442 
L 304.353658 53.511887 
L 385.605554 51.840333 
L 385.605554 51.840333 
" style="fill:none;stroke:#ff0000;stroke-dasharray:1.5,2.475;stroke-dashoffset:0;stroke-width:1.5;"/>
   </g>
   <g id="line2d_36"/>
   <g id="line2d_37">
    <path clip-path="url(#p36c09dbed6)" d="M 124.56052 384.479667 
L 132.569882 382.808113 
L 134.072702 381.136558 
L 135.155229 379.465004 
L 136.844532 376.121895 
L 138.241207 372.778786 
L 140.075148 367.764123 
L 142.264435 361.077905 
L 145.259206 351.048578 
L 148.503613 339.347697 
L 152.430639 324.303707 
L 156.980371 305.916608 
L 162.119592 284.186401 
L 168.990224 254.098421 
L 181.546543 198.937124 
L 186.359922 178.878471 
L 190.594502 162.162926 
L 194.194121 148.79049 
L 197.555352 137.089609 
L 200.64432 127.060283 
L 203.408457 118.70251 
L 206.395273 110.344738 
L 208.989798 103.65852 
L 211.81968 96.972303 
L 214.138987 91.957639 
L 216.674721 86.942976 
L 219.490171 81.928313 
L 221.568039 78.585204 
L 223.853583 75.242095 
L 226.40701 71.898986 
L 229.320062 68.555877 
L 232.743415 65.212768 
L 234.724178 63.541214 
L 236.952933 61.869659 
L 239.514776 60.198105 
L 242.54976 58.52655 
L 246.314921 56.854996 
L 251.372049 55.183442 
L 259.44607 53.511887 
L 329.957301 51.840333 
L 329.957301 51.840333 
" style="fill:none;stroke:#008000;stroke-dasharray:5.55,2.4;stroke-dashoffset:0;stroke-width:1.5;"/>
   </g>
   <g id="line2d_38">
    <path clip-path="url(#p36c09dbed6)" d="M 121.729852 384.479667 
L 146.456029 382.808113 
L 151.254682 381.136558 
L 154.404064 379.465004 
L 156.826087 377.79345 
L 158.831419 376.121895 
L 160.564917 374.450341 
L 163.505145 371.107232 
L 165.992977 367.764123 
L 168.189049 364.421014 
L 171.119106 359.406351 
L 173.752401 354.391687 
L 176.955551 347.70547 
L 179.916773 341.019252 
L 183.38494 332.66148 
L 187.309989 322.632153 
L 192.273724 309.259717 
L 197.616214 294.215727 
L 204.496216 274.157074 
L 216.244599 239.054431 
L 226.951574 207.294896 
L 233.377105 188.907797 
L 238.855406 173.863807 
L 243.961005 160.491372 
L 248.672203 148.79049 
L 252.94565 138.761164 
L 256.716966 130.403392 
L 260.727647 122.045619 
L 264.149502 115.359402 
L 267.806598 108.673184 
L 271.756827 101.986966 
L 274.959559 96.972303 
L 278.419658 91.957639 
L 282.202666 86.942976 
L 284.948977 83.599867 
L 287.918582 80.256758 
L 291.164183 76.913649 
L 294.760107 73.57054 
L 298.816325 70.227432 
L 301.067471 68.555877 
L 303.506268 66.884323 
L 306.174267 65.212768 
L 309.129011 63.541214 
L 312.453634 61.869659 
L 316.275053 60.198105 
L 320.802146 58.52655 
L 326.418269 56.854996 
L 333.961294 55.183442 
L 346.003815 53.511887 
L 451.164855 51.840333 
L 451.164855 51.840333 
" style="fill:none;stroke:#008000;stroke-dasharray:1.5,2.475;stroke-dashoffset:0;stroke-width:1.5;"/>
   </g>
   <g id="line2d_39"/>
   <g id="line2d_40">
    <path clip-path="url(#p36c09dbed6)" d="M 134.104211 384.479667 
L 136.772436 382.808113 
L 138.962763 377.79345 
L 142.659281 369.435677 
L 151.680545 349.377024 
L 155.905216 339.347697 
L 159.884968 329.318371 
L 163.638164 319.289044 
L 167.769366 307.588163 
L 172.222095 294.215727 
L 176.964031 279.171737 
L 181.989173 262.456193 
L 188.274102 240.725985 
L 206.470319 177.206916 
L 211.072061 162.162926 
L 215.381982 148.79049 
L 219.389589 137.089609 
L 223.061001 127.060283 
L 226.338627 118.70251 
L 229.873536 110.344738 
L 232.939404 103.65852 
L 236.279175 96.972303 
L 239.013603 91.957639 
L 242.000771 86.942976 
L 245.314942 81.928313 
L 247.759433 78.585204 
L 250.447031 75.242095 
L 253.448339 71.898986 
L 256.87094 68.555877 
L 258.791181 66.884323 
L 260.891513 65.212768 
L 263.217175 63.541214 
L 265.833525 61.869659 
L 268.840339 60.198105 
L 272.401831 58.52655 
L 276.819379 56.854996 
L 282.751683 55.183442 
L 292.221194 53.511887 
L 374.89444 51.840333 
L 374.89444 51.840333 
" style="fill:none;stroke:#0000ff;stroke-dasharray:5.55,2.4;stroke-dashoffset:0;stroke-width:1.5;"/>
   </g>
   <g id="line2d_41">
    <path clip-path="url(#p36c09dbed6)" d="M 128.230479 384.479667 
L 154.790733 382.808113 
L 160.911142 381.136558 
L 165.878362 379.465004 
L 170.233652 377.79345 
L 174.147589 376.121895 
L 177.710078 374.450341 
L 180.981851 372.778786 
L 186.825792 369.435677 
L 191.942263 366.092568 
L 196.504792 362.74946 
L 200.633373 359.406351 
L 204.413886 356.063242 
L 207.90962 352.720133 
L 211.168415 349.377024 
L 215.691024 344.362361 
L 219.855763 339.347697 
L 223.730629 334.333034 
L 227.366444 329.318371 
L 231.908485 322.632153 
L 236.164213 315.945935 
L 240.186188 309.259717 
L 244.945714 300.901945 
L 249.46348 292.544173 
L 254.630802 282.514846 
L 260.386808 270.813965 
L 266.698351 257.441529 
L 274.3166 240.725985 
L 286.200073 213.981114 
L 297.409399 188.907797 
L 304.352315 173.863807 
L 310.768103 160.491372 
L 316.651666 148.79049 
L 321.964331 138.761164 
L 326.637178 130.403392 
L 331.593399 122.045619 
L 335.812981 115.359402 
L 340.31498 108.673184 
L 343.918569 103.65852 
L 347.760162 98.643857 
L 351.892304 93.629194 
L 356.38661 88.61453 
L 359.632407 85.271422 
L 363.124402 81.928313 
L 366.917543 78.585204 
L 371.087793 75.242095 
L 375.7447 71.898986 
L 381.055177 68.555877 
L 384.03456 66.884323 
L 387.293337 65.212768 
L 390.901694 63.541214 
L 394.961032 61.869659 
L 399.626153 60.198105 
L 405.151827 58.52655 
L 412.005636 56.854996 
L 421.209531 55.183442 
L 435.901286 53.511887 
L 564.166473 51.840333 
L 564.166473 51.840333 
" style="fill:none;stroke:#0000ff;stroke-dasharray:1.5,2.475;stroke-dashoffset:0;stroke-width:1.5;"/>
   </g>
   <g id="line2d_42"/>
   <g id="patch_3">
    <path d="M 72 384.48 
L 72 51.84 
" style="fill:none;stroke:#000000;stroke-linecap:square;stroke-linejoin:miter;stroke-width:0.8;"/>
   </g>
   <g id="patch_4">
    <path d="M 518.4 384.48 
L 518.4 51.84 
" style="fill:none;stroke:#000000;stroke-linecap:square;stroke-linejoin:miter;stroke-width:0.8;"/>
   </g>
   <g id="patch_5">
    <path d="M 72 384.48 
L 518.4 384.48 
" style="fill:none;stroke:#000000;stroke-linecap:square;stroke-linejoin:miter;stroke-width:0.8;"/>
   </g>
   <g id="patch_6">
    <path d="M 72 51.84 
L 518.4 51.84 
" style="fill:none;stroke:#000000;stroke-linecap:square;stroke-linejoin:miter;stroke-width:0.8;"/>
   </g>
   <g id="text_18">
    <!-- BEL (dashed: Traditional, dotted: Thermally inefficient -->
    <g transform="translate(133.49625 45.84)scale(0.12 -0.12)">
     <defs>
      <path d="M 1984 4856 
Q 1566 4138 1362 3434 
Q 1159 2731 1159 2009 
Q 1159 1288 1364 580 
Q 1569 -128 1984 -844 
L 1484 -844 
Q 1016 -109 783 600 
Q 550 1309 550 2009 
Q 550 2706 781 3412 
Q 1013 4119 1484 4856 
L 1984 4856 
z
" id="DejaVuSans-28" transform="scale(0.015625)"/>
      <path d="M 2834 3397 
L 2834 2853 
Q 2591 2978 2328 3040 
Q 2066 3103 1784 3103 
Q 1356 3103 1142 2972 
Q 928 2841 928 2578 
Q 928 2378 1081 2264 
Q 1234 2150 1697 2047 
L 1894 2003 
Q 2506 1872 2764 1633 
Q 3022 1394 3022 966 
Q 3022 478 2636 193 
Q 2250 -91 1575 -91 
Q 1294 -91 989 -36 
Q 684 19 347 128 
L 347 722 
Q 666 556 975 473 
Q 1284 391 1588 391 
Q 1994 391 2212 530 
Q 2431 669 2431 922 
Q 2431 1156 2273 1281 
Q 2116 1406 1581 1522 
L 1381 1569 
Q 847 1681 609 1914 
Q 372 2147 372 2553 
Q 372 3047 722 3315 
Q 1072 3584 1716 3584 
Q 2034 3584 2315 3537 
Q 2597 3491 2834 3397 
z
" id="DejaVuSans-73" transform="scale(0.015625)"/>
      <path d="M 3513 2113 
L 3513 0 
L 2938 0 
L 2938 2094 
Q 2938 2591 2744 2837 
Q 2550 3084 2163 3084 
Q 1697 3084 1428 2787 
Q 1159 2491 1159 1978 
L 1159 0 
L 581 0 
L 581 4863 
L 1159 4863 
L 1159 2956 
Q 1366 3272 1645 3428 
Q 1925 3584 2291 3584 
Q 2894 3584 3203 3211 
Q 3513 2838 3513 2113 
z
" id="DejaVuSans-68" transform="scale(0.015625)"/>
      <path d="M 3597 1894 
L 3597 1613 
L 953 1613 
Q 991 1019 1311 708 
Q 1631 397 2203 397 
Q 2534 397 2845 478 
Q 3156 559 3463 722 
L 3463 178 
Q 3153 47 2828 -22 
Q 2503 -91 2169 -91 
Q 1331 -91 842 396 
Q 353 884 353 1716 
Q 353 2575 817 3079 
Q 1281 3584 2069 3584 
Q 2775 3584 3186 3129 
Q 3597 2675 3597 1894 
z
M 3022 2063 
Q 3016 2534 2758 2815 
Q 2500 3097 2075 3097 
Q 1594 3097 1305 2825 
Q 1016 2553 972 2059 
L 3022 2063 
z
" id="DejaVuSans-65" transform="scale(0.015625)"/>
      <path d="M 750 794 
L 1409 794 
L 1409 0 
L 750 0 
L 750 794 
z
M 750 3309 
L 1409 3309 
L 1409 2516 
L 750 2516 
L 750 3309 
z
" id="DejaVuSans-3a" transform="scale(0.015625)"/>
      <path d="M -19 4666 
L 3928 4666 
L 3928 4134 
L 2272 4134 
L 2272 0 
L 1638 0 
L 1638 4134 
L -19 4134 
L -19 4666 
z
" id="DejaVuSans-54" transform="scale(0.015625)"/>
      <path d="M 3513 2113 
L 3513 0 
L 2938 0 
L 2938 2094 
Q 2938 2591 2744 2837 
Q 2550 3084 2163 3084 
Q 1697 3084 1428 2787 
Q 1159 2491 1159 1978 
L 1159 0 
L 581 0 
L 581 3500 
L 1159 3500 
L 1159 2956 
Q 1366 3272 1645 3428 
Q 1925 3584 2291 3584 
Q 2894 3584 3203 3211 
Q 3513 2838 3513 2113 
z
" id="DejaVuSans-6e" transform="scale(0.015625)"/>
      <path d="M 750 794 
L 1409 794 
L 1409 256 
L 897 -744 
L 494 -744 
L 750 256 
L 750 794 
z
" id="DejaVuSans-2c" transform="scale(0.015625)"/>
      <path d="M 3328 2828 
Q 3544 3216 3844 3400 
Q 4144 3584 4550 3584 
Q 5097 3584 5394 3201 
Q 5691 2819 5691 2113 
L 5691 0 
L 5113 0 
L 5113 2094 
Q 5113 2597 4934 2840 
Q 4756 3084 4391 3084 
Q 3944 3084 3684 2787 
Q 3425 2491 3425 1978 
L 3425 0 
L 2847 0 
L 2847 2094 
Q 2847 2600 2669 2842 
Q 2491 3084 2119 3084 
Q 1678 3084 1418 2786 
Q 1159 2488 1159 1978 
L 1159 0 
L 581 0 
L 581 3500 
L 1159 3500 
L 1159 2956 
Q 1356 3278 1631 3431 
Q 1906 3584 2284 3584 
Q 2666 3584 2933 3390 
Q 3200 3197 3328 2828 
z
" id="DejaVuSans-6d" transform="scale(0.015625)"/>
      <path d="M 2375 4863 
L 2375 4384 
L 1825 4384 
Q 1516 4384 1395 4259 
Q 1275 4134 1275 3809 
L 1275 3500 
L 2222 3500 
L 2222 3053 
L 1275 3053 
L 1275 0 
L 697 0 
L 697 3053 
L 147 3053 
L 147 3500 
L 697 3500 
L 697 3744 
Q 697 4328 969 4595 
Q 1241 4863 1831 4863 
L 2375 4863 
z
" id="DejaVuSans-66" transform="scale(0.015625)"/>
      <path d="M 3122 3366 
L 3122 2828 
Q 2878 2963 2633 3030 
Q 2388 3097 2138 3097 
Q 1578 3097 1268 2742 
Q 959 2388 959 1747 
Q 959 1106 1268 751 
Q 1578 397 2138 397 
Q 2388 397 2633 464 
Q 2878 531 3122 666 
L 3122 134 
Q 2881 22 2623 -34 
Q 2366 -91 2075 -91 
Q 1284 -91 818 406 
Q 353 903 353 1747 
Q 353 2603 823 3093 
Q 1294 3584 2113 3584 
Q 2378 3584 2631 3529 
Q 2884 3475 3122 3366 
z
" id="DejaVuSans-63" transform="scale(0.015625)"/>
     </defs>
     <use xlink:href="#DejaVuSans-42"/>
     <use x="68.603516" xlink:href="#DejaVuSans-45"/>
     <use x="131.787109" xlink:href="#DejaVuSans-4c"/>
     <use x="187.5" xlink:href="#DejaVuSans-20"/>
     <use x="219.287109" xlink:href="#DejaVuSans-28"/>
     <use x="258.300781" xlink:href="#DejaVuSans-64"/>
     <use x="321.777344" xlink:href="#DejaVuSans-61"/>
     <use x="383.056641" xlink:href="#DejaVuSans-73"/>
     <use x="435.15625" xlink:href="#DejaVuSans-68"/>
     <use x="498.535156" xlink:href="#DejaVuSans-65"/>
     <use x="560.058594" xlink:href="#DejaVuSans-64"/>
     <use x="623.535156" xlink:href="#DejaVuSans-3a"/>
     <use x="657.226562" xlink:href="#DejaVuSans-20"/>
     <use x="689.013672" xlink:href="#DejaVuSans-54"/>
     <use x="735.347656" xlink:href="#DejaVuSans-72"/>
     <use x="776.460938" xlink:href="#DejaVuSans-61"/>
     <use x="837.740234" xlink:href="#DejaVuSans-64"/>
     <use x="901.216797" xlink:href="#DejaVuSans-69"/>
     <use x="929" xlink:href="#DejaVuSans-74"/>
     <use x="968.208984" xlink:href="#DejaVuSans-69"/>
     <use x="995.992188" xlink:href="#DejaVuSans-6f"/>
     <use x="1057.173828" xlink:href="#DejaVuSans-6e"/>
     <use x="1120.552734" xlink:href="#DejaVuSans-61"/>
     <use x="1181.832031" xlink:href="#DejaVuSans-6c"/>
     <use x="1209.615234" xlink:href="#DejaVuSans-2c"/>
     <use x="1241.402344" xlink:href="#DejaVuSans-20"/>
     <use x="1273.189453" xlink:href="#DejaVuSans-64"/>
     <use x="1336.666016" xlink:href="#DejaVuSans-6f"/>
     <use x="1397.847656" xlink:href="#DejaVuSans-74"/>
     <use x="1437.056641" xlink:href="#DejaVuSans-74"/>
     <use x="1476.265625" xlink:href="#DejaVuSans-65"/>
     <use x="1537.789062" xlink:href="#DejaVuSans-64"/>
     <use x="1601.265625" xlink:href="#DejaVuSans-3a"/>
     <use x="1634.957031" xlink:href="#DejaVuSans-20"/>
     <use x="1666.744141" xlink:href="#DejaVuSans-54"/>
     <use x="1727.828125" xlink:href="#DejaVuSans-68"/>
     <use x="1791.207031" xlink:href="#DejaVuSans-65"/>
     <use x="1852.730469" xlink:href="#DejaVuSans-72"/>
     <use x="1892.09375" xlink:href="#DejaVuSans-6d"/>
     <use x="1989.505859" xlink:href="#DejaVuSans-61"/>
     <use x="2050.785156" xlink:href="#DejaVuSans-6c"/>
     <use x="2078.568359" xlink:href="#DejaVuSans-6c"/>
     <use x="2106.351562" xlink:href="#DejaVuSans-79"/>
     <use x="2165.53125" xlink:href="#DejaVuSans-20"/>
     <use x="2197.318359" xlink:href="#DejaVuSans-69"/>
     <use x="2225.101562" xlink:href="#DejaVuSans-6e"/>
     <use x="2288.480469" xlink:href="#DejaVuSans-65"/>
     <use x="2350.003906" xlink:href="#DejaVuSans-66"/>
     <use x="2385.208984" xlink:href="#DejaVuSans-66"/>
     <use x="2420.414062" xlink:href="#DejaVuSans-69"/>
     <use x="2448.197266" xlink:href="#DejaVuSans-63"/>
     <use x="2503.177734" xlink:href="#DejaVuSans-69"/>
     <use x="2530.960938" xlink:href="#DejaVuSans-65"/>
     <use x="2592.484375" xlink:href="#DejaVuSans-6e"/>
     <use x="2655.863281" xlink:href="#DejaVuSans-74"/>
    </g>
   </g>
   <g id="legend_1">
    <g id="patch_7">
     <path d="M 427.076562 118.5525 
L 511.4 118.5525 
Q 513.4 118.5525 513.4 116.5525 
L 513.4 58.84 
Q 513.4 56.84 511.4 56.84 
L 427.076562 56.84 
Q 425.076562 56.84 425.076562 58.84 
L 425.076562 116.5525 
Q 425.076562 118.5525 427.076562 118.5525 
z
" style="fill:#ffffff;opacity:0.8;stroke:#cccccc;stroke-linejoin:miter;"/>
    </g>
    <g id="line2d_43">
     <path d="M 429.076562 64.938438 
L 449.076562 64.938438 
" style="fill:none;stroke:#000000;stroke-linecap:square;stroke-width:1.5;"/>
    </g>
    <g id="line2d_44"/>
    <g id="text_19">
     <!-- 0.1 GHz -->
     <g transform="translate(457.076562 68.438438)scale(0.1 -0.1)">
      <defs>
       <path d="M 3809 666 
L 3809 1919 
L 2778 1919 
L 2778 2438 
L 4434 2438 
L 4434 434 
Q 4069 175 3628 42 
Q 3188 -91 2688 -91 
Q 1594 -91 976 548 
Q 359 1188 359 2328 
Q 359 3472 976 4111 
Q 1594 4750 2688 4750 
Q 3144 4750 3555 4637 
Q 3966 4525 4313 4306 
L 4313 3634 
Q 3963 3931 3569 4081 
Q 3175 4231 2741 4231 
Q 1884 4231 1454 3753 
Q 1025 3275 1025 2328 
Q 1025 1384 1454 906 
Q 1884 428 2741 428 
Q 3075 428 3337 486 
Q 3600 544 3809 666 
z
" id="DejaVuSans-47" transform="scale(0.015625)"/>
       <path d="M 628 4666 
L 1259 4666 
L 1259 2753 
L 3553 2753 
L 3553 4666 
L 4184 4666 
L 4184 0 
L 3553 0 
L 3553 2222 
L 1259 2222 
L 1259 0 
L 628 0 
L 628 4666 
z
" id="DejaVuSans-48" transform="scale(0.015625)"/>
       <path d="M 353 3500 
L 3084 3500 
L 3084 2975 
L 922 459 
L 3084 459 
L 3084 0 
L 275 0 
L 275 525 
L 2438 3041 
L 353 3041 
L 353 3500 
z
" id="DejaVuSans-7a" transform="scale(0.015625)"/>
      </defs>
      <use xlink:href="#DejaVuSans-30"/>
      <use x="63.623047" xlink:href="#DejaVuSans-2e"/>
      <use x="95.410156" xlink:href="#DejaVuSans-31"/>
      <use x="159.033203" xlink:href="#DejaVuSans-20"/>
      <use x="190.820312" xlink:href="#DejaVuSans-47"/>
      <use x="268.310547" xlink:href="#DejaVuSans-48"/>
      <use x="343.505859" xlink:href="#DejaVuSans-7a"/>
     </g>
    </g>
    <g id="line2d_45">
     <path d="M 429.076562 79.616563 
L 449.076562 79.616563 
" style="fill:none;stroke:#ff0000;stroke-linecap:square;stroke-width:1.5;"/>
    </g>
    <g id="line2d_46"/>
    <g id="text_20">
     <!-- 1.0 GHz -->
     <g transform="translate(457.076562 83.116563)scale(0.1 -0.1)">
      <use xlink:href="#DejaVuSans-31"/>
      <use x="63.623047" xlink:href="#DejaVuSans-2e"/>
      <use x="95.410156" xlink:href="#DejaVuSans-30"/>
      <use x="159.033203" xlink:href="#DejaVuSans-20"/>
      <use x="190.820312" xlink:href="#DejaVuSans-47"/>
      <use x="268.310547" xlink:href="#DejaVuSans-48"/>
      <use x="343.505859" xlink:href="#DejaVuSans-7a"/>
     </g>
    </g>
    <g id="line2d_47">
     <path d="M 429.076562 94.294688 
L 449.076562 94.294688 
" style="fill:none;stroke:#008000;stroke-linecap:square;stroke-width:1.5;"/>
    </g>
    <g id="line2d_48"/>
    <g id="text_21">
     <!-- 10.0 GHz -->
     <g transform="translate(457.076562 97.794688)scale(0.1 -0.1)">
      <use xlink:href="#DejaVuSans-31"/>
      <use x="63.623047" xlink:href="#DejaVuSans-30"/>
      <use x="127.246094" xlink:href="#DejaVuSans-2e"/>
      <use x="159.033203" xlink:href="#DejaVuSans-30"/>
      <use x="222.65625" xlink:href="#DejaVuSans-20"/>
      <use x="254.443359" xlink:href="#DejaVuSans-47"/>
      <use x="331.933594" xlink:href="#DejaVuSans-48"/>
      <use x="407.128906" xlink:href="#DejaVuSans-7a"/>
     </g>
    </g>
    <g id="line2d_49">
     <path d="M 429.076562 108.972813 
L 449.076562 108.972813 
" style="fill:none;stroke:#0000ff;stroke-linecap:square;stroke-width:1.5;"/>
    </g>
    <g id="line2d_50"/>
    <g id="text_22">
     <!-- 100.0 GHz -->
     <g transform="translate(457.076562 112.472813)scale(0.1 -0.1)">
      <use xlink:href="#DejaVuSans-31"/>
      <use x="63.623047" xlink:href="#DejaVuSans-30"/>
      <use x="127.246094" xlink:href="#DejaVuSans-30"/>
      <use x="190.869141" xlink:href="#DejaVuSans-2e"/>
      <use x="222.65625" xlink:href="#DejaVuSans-30"/>
      <use x="286.279297" xlink:href="#DejaVuSans-20"/>
      <use x="318.066406" xlink:href="#DejaVuSans-47"/>
      <use x="395.556641" xlink:href="#DejaVuSans-48"/>
      <use x="470.751953" xlink:href="#DejaVuSans-7a"/>
     </g>
    </g>
   </g>
  </g>
 </g>
 <defs>
  <clipPath id="p36c09dbed6">
   <rect height="332.64" width="446.4" x="72" y="51.84"/>
  </clipPath>
 </defs>
</svg>
