<?xml version="1.0" encoding="utf-8" standalone="no"?>
<!DOCTYPE svg PUBLIC "-//W3C//DTD SVG 1.1//EN"
  "http://www.w3.org/Graphics/SVG/1.1/DTD/svg11.dtd">
<svg xmlns:xlink="http://www.w3.org/1999/xlink" width="502.835pt" height="490.211875pt" viewBox="0 0 502.835 490.211875" xmlns="http://www.w3.org/2000/svg" version="1.1">
 <metadata>
  <rdf:RDF xmlns:dc="http://purl.org/dc/elements/1.1/" xmlns:cc="http://creativecommons.org/ns#" xmlns:rdf="http://www.w3.org/1999/02/22-rdf-syntax-ns#">
   <cc:Work>
    <dc:type rdf:resource="http://purl.org/dc/dcmitype/StillImage"/>
    <dc:date>2024-04-14T22:50:28.793242</dc:date>
    <dc:format>image/svg+xml</dc:format>
    <dc:creator>
     <cc:Agent>
      <dc:title>Matplotlib v3.6.2, https://matplotlib.org/</dc:title>
     </cc:Agent>
    </dc:creator>
   </cc:Work>
  </rdf:RDF>
 </metadata>
 <defs>
  <style type="text/css">*{stroke-linejoin: round; stroke-linecap: butt}</style>
 </defs>
 <g id="figure_1">
  <g id="patch_1">
   <path d="M 0 490.211875 
L 502.835 490.211875 
L 502.835 0 
L 0 0 
L 0 490.211875 
z
" style="fill: none"/>
  </g>
  <g id="axes_1">
   <g id="patch_2">
    <path d="M 49.235 450.72 
L 495.635 450.72 
L 495.635 7.2 
L 49.235 7.2 
z
" style="fill: #ffffff"/>
   </g>
   <g id="matplotlib.axis_1">
    <g id="xtick_1">
     <g id="line2d_1">
      <path d="M 49.235 450.72 
L 49.235 7.2 
" clip-path="url(#p14b53ef1be)" style="fill: none; stroke: #b0b0b0; stroke-width: 0.8; stroke-linecap: square"/>
     </g>
     <g id="line2d_2">
      <defs>
       <path id="m18af6d31c8" d="M 0 0 
L 0 3.5 
" style="stroke: #000000; stroke-width: 0.8"/>
      </defs>
      <g>
       <use xlink:href="#m18af6d31c8" x="49.235" y="450.72" style="stroke: #000000; stroke-width: 0.8"/>
      </g>
     </g>
     <g id="text_1">
      <!-- $\mathdefault{10^{-3}}$ -->
      <g transform="translate(37.485 465.318437) scale(0.1 -0.1)">
       <defs>
        <path id="DejaVuSans-31" d="M 794 531 
L 1825 531 
L 1825 4091 
L 703 3866 
L 703 4441 
L 1819 4666 
L 2450 4666 
L 2450 531 
L 3481 531 
L 3481 0 
L 794 0 
L 794 531 
z
" transform="scale(0.015625)"/>
        <path id="DejaVuSans-30" d="M 2034 4250 
Q 1547 4250 1301 3770 
Q 1056 3291 1056 2328 
Q 1056 1369 1301 889 
Q 1547 409 2034 409 
Q 2525 409 2770 889 
Q 3016 1369 3016 2328 
Q 3016 3291 2770 3770 
Q 2525 4250 2034 4250 
z
M 2034 4750 
Q 2819 4750 3233 4129 
Q 3647 3509 3647 2328 
Q 3647 1150 3233 529 
Q 2819 -91 2034 -91 
Q 1250 -91 836 529 
Q 422 1150 422 2328 
Q 422 3509 836 4129 
Q 1250 4750 2034 4750 
z
" transform="scale(0.015625)"/>
        <path id="DejaVuSans-2212" d="M 678 2272 
L 4684 2272 
L 4684 1741 
L 678 1741 
L 678 2272 
z
" transform="scale(0.015625)"/>
        <path id="DejaVuSans-33" d="M 2597 2516 
Q 3050 2419 3304 2112 
Q 3559 1806 3559 1356 
Q 3559 666 3084 287 
Q 2609 -91 1734 -91 
Q 1441 -91 1130 -33 
Q 819 25 488 141 
L 488 750 
Q 750 597 1062 519 
Q 1375 441 1716 441 
Q 2309 441 2620 675 
Q 2931 909 2931 1356 
Q 2931 1769 2642 2001 
Q 2353 2234 1838 2234 
L 1294 2234 
L 1294 2753 
L 1863 2753 
Q 2328 2753 2575 2939 
Q 2822 3125 2822 3475 
Q 2822 3834 2567 4026 
Q 2313 4219 1838 4219 
Q 1578 4219 1281 4162 
Q 984 4106 628 3988 
L 628 4550 
Q 988 4650 1302 4700 
Q 1616 4750 1894 4750 
Q 2613 4750 3031 4423 
Q 3450 4097 3450 3541 
Q 3450 3153 3228 2886 
Q 3006 2619 2597 2516 
z
" transform="scale(0.015625)"/>
       </defs>
       <use xlink:href="#DejaVuSans-31" transform="translate(0 0.765625)"/>
       <use xlink:href="#DejaVuSans-30" transform="translate(63.623047 0.765625)"/>
       <use xlink:href="#DejaVuSans-2212" transform="translate(128.203125 39.046875) scale(0.7)"/>
       <use xlink:href="#DejaVuSans-33" transform="translate(186.855469 39.046875) scale(0.7)"/>
      </g>
     </g>
    </g>
    <g id="xtick_2">
     <g id="line2d_3">
      <path d="M 144.234542 450.72 
L 144.234542 7.2 
" clip-path="url(#p14b53ef1be)" style="fill: none; stroke: #b0b0b0; stroke-width: 0.8; stroke-linecap: square"/>
     </g>
     <g id="line2d_4">
      <g>
       <use xlink:href="#m18af6d31c8" x="144.234542" y="450.72" style="stroke: #000000; stroke-width: 0.8"/>
      </g>
     </g>
     <g id="text_2">
      <!-- $\mathdefault{10^{-2}}$ -->
      <g transform="translate(132.484542 465.318437) scale(0.1 -0.1)">
       <defs>
        <path id="DejaVuSans-32" d="M 1228 531 
L 3431 531 
L 3431 0 
L 469 0 
L 469 531 
Q 828 903 1448 1529 
Q 2069 2156 2228 2338 
Q 2531 2678 2651 2914 
Q 2772 3150 2772 3378 
Q 2772 3750 2511 3984 
Q 2250 4219 1831 4219 
Q 1534 4219 1204 4116 
Q 875 4013 500 3803 
L 500 4441 
Q 881 4594 1212 4672 
Q 1544 4750 1819 4750 
Q 2544 4750 2975 4387 
Q 3406 4025 3406 3419 
Q 3406 3131 3298 2873 
Q 3191 2616 2906 2266 
Q 2828 2175 2409 1742 
Q 1991 1309 1228 531 
z
" transform="scale(0.015625)"/>
       </defs>
       <use xlink:href="#DejaVuSans-31" transform="translate(0 0.765625)"/>
       <use xlink:href="#DejaVuSans-30" transform="translate(63.623047 0.765625)"/>
       <use xlink:href="#DejaVuSans-2212" transform="translate(128.203125 39.046875) scale(0.7)"/>
       <use xlink:href="#DejaVuSans-32" transform="translate(186.855469 39.046875) scale(0.7)"/>
      </g>
     </g>
    </g>
    <g id="xtick_3">
     <g id="line2d_5">
      <path d="M 239.234085 450.72 
L 239.234085 7.2 
" clip-path="url(#p14b53ef1be)" style="fill: none; stroke: #b0b0b0; stroke-width: 0.8; stroke-linecap: square"/>
     </g>
     <g id="line2d_6">
      <g>
       <use xlink:href="#m18af6d31c8" x="239.234085" y="450.72" style="stroke: #000000; stroke-width: 0.8"/>
      </g>
     </g>
     <g id="text_3">
      <!-- $\mathdefault{10^{-1}}$ -->
      <g transform="translate(227.484085 465.318437) scale(0.1 -0.1)">
       <use xlink:href="#DejaVuSans-31" transform="translate(0 0.684375)"/>
       <use xlink:href="#DejaVuSans-30" transform="translate(63.623047 0.684375)"/>
       <use xlink:href="#DejaVuSans-2212" transform="translate(128.203125 38.965625) scale(0.7)"/>
       <use xlink:href="#DejaVuSans-31" transform="translate(186.855469 38.965625) scale(0.7)"/>
      </g>
     </g>
    </g>
    <g id="xtick_4">
     <g id="line2d_7">
      <path d="M 334.233627 450.72 
L 334.233627 7.2 
" clip-path="url(#p14b53ef1be)" style="fill: none; stroke: #b0b0b0; stroke-width: 0.8; stroke-linecap: square"/>
     </g>
     <g id="line2d_8">
      <g>
       <use xlink:href="#m18af6d31c8" x="334.233627" y="450.72" style="stroke: #000000; stroke-width: 0.8"/>
      </g>
     </g>
     <g id="text_4">
      <!-- $\mathdefault{10^{0}}$ -->
      <g transform="translate(325.433627 465.318437) scale(0.1 -0.1)">
       <use xlink:href="#DejaVuSans-31" transform="translate(0 0.765625)"/>
       <use xlink:href="#DejaVuSans-30" transform="translate(63.623047 0.765625)"/>
       <use xlink:href="#DejaVuSans-30" transform="translate(128.203125 39.046875) scale(0.7)"/>
      </g>
     </g>
    </g>
    <g id="xtick_5">
     <g id="line2d_9">
      <path d="M 429.233169 450.72 
L 429.233169 7.2 
" clip-path="url(#p14b53ef1be)" style="fill: none; stroke: #b0b0b0; stroke-width: 0.8; stroke-linecap: square"/>
     </g>
     <g id="line2d_10">
      <g>
       <use xlink:href="#m18af6d31c8" x="429.233169" y="450.72" style="stroke: #000000; stroke-width: 0.8"/>
      </g>
     </g>
     <g id="text_5">
      <!-- $\mathdefault{10^{1}}$ -->
      <g transform="translate(420.433169 465.318437) scale(0.1 -0.1)">
       <use xlink:href="#DejaVuSans-31" transform="translate(0 0.684375)"/>
       <use xlink:href="#DejaVuSans-30" transform="translate(63.623047 0.684375)"/>
       <use xlink:href="#DejaVuSans-31" transform="translate(128.203125 38.965625) scale(0.7)"/>
      </g>
     </g>
    </g>
    <g id="xtick_6">
     <g id="line2d_11">
      <defs>
       <path id="m715632957a" d="M 0 0 
L 0 2 
" style="stroke: #000000; stroke-width: 0.6"/>
      </defs>
      <g>
       <use xlink:href="#m715632957a" x="77.832712" y="450.72" style="stroke: #000000; stroke-width: 0.6"/>
      </g>
     </g>
    </g>
    <g id="xtick_7">
     <g id="line2d_12">
      <g>
       <use xlink:href="#m715632957a" x="94.561301" y="450.72" style="stroke: #000000; stroke-width: 0.6"/>
      </g>
     </g>
    </g>
    <g id="xtick_8">
     <g id="line2d_13">
      <g>
       <use xlink:href="#m715632957a" x="106.430424" y="450.72" style="stroke: #000000; stroke-width: 0.6"/>
      </g>
     </g>
    </g>
    <g id="xtick_9">
     <g id="line2d_14">
      <g>
       <use xlink:href="#m715632957a" x="115.636831" y="450.72" style="stroke: #000000; stroke-width: 0.6"/>
      </g>
     </g>
    </g>
    <g id="xtick_10">
     <g id="line2d_15">
      <g>
       <use xlink:href="#m715632957a" x="123.159013" y="450.72" style="stroke: #000000; stroke-width: 0.6"/>
      </g>
     </g>
    </g>
    <g id="xtick_11">
     <g id="line2d_16">
      <g>
       <use xlink:href="#m715632957a" x="129.518927" y="450.72" style="stroke: #000000; stroke-width: 0.6"/>
      </g>
     </g>
    </g>
    <g id="xtick_12">
     <g id="line2d_17">
      <g>
       <use xlink:href="#m715632957a" x="135.028135" y="450.72" style="stroke: #000000; stroke-width: 0.6"/>
      </g>
     </g>
    </g>
    <g id="xtick_13">
     <g id="line2d_18">
      <g>
       <use xlink:href="#m715632957a" x="139.887602" y="450.72" style="stroke: #000000; stroke-width: 0.6"/>
      </g>
     </g>
    </g>
    <g id="xtick_14">
     <g id="line2d_19">
      <g>
       <use xlink:href="#m715632957a" x="172.832254" y="450.72" style="stroke: #000000; stroke-width: 0.6"/>
      </g>
     </g>
    </g>
    <g id="xtick_15">
     <g id="line2d_20">
      <g>
       <use xlink:href="#m715632957a" x="189.560843" y="450.72" style="stroke: #000000; stroke-width: 0.6"/>
      </g>
     </g>
    </g>
    <g id="xtick_16">
     <g id="line2d_21">
      <g>
       <use xlink:href="#m715632957a" x="201.429966" y="450.72" style="stroke: #000000; stroke-width: 0.6"/>
      </g>
     </g>
    </g>
    <g id="xtick_17">
     <g id="line2d_22">
      <g>
       <use xlink:href="#m715632957a" x="210.636373" y="450.72" style="stroke: #000000; stroke-width: 0.6"/>
      </g>
     </g>
    </g>
    <g id="xtick_18">
     <g id="line2d_23">
      <g>
       <use xlink:href="#m715632957a" x="218.158555" y="450.72" style="stroke: #000000; stroke-width: 0.6"/>
      </g>
     </g>
    </g>
    <g id="xtick_19">
     <g id="line2d_24">
      <g>
       <use xlink:href="#m715632957a" x="224.518469" y="450.72" style="stroke: #000000; stroke-width: 0.6"/>
      </g>
     </g>
    </g>
    <g id="xtick_20">
     <g id="line2d_25">
      <g>
       <use xlink:href="#m715632957a" x="230.027678" y="450.72" style="stroke: #000000; stroke-width: 0.6"/>
      </g>
     </g>
    </g>
    <g id="xtick_21">
     <g id="line2d_26">
      <g>
       <use xlink:href="#m715632957a" x="234.887144" y="450.72" style="stroke: #000000; stroke-width: 0.6"/>
      </g>
     </g>
    </g>
    <g id="xtick_22">
     <g id="line2d_27">
      <g>
       <use xlink:href="#m715632957a" x="267.831797" y="450.72" style="stroke: #000000; stroke-width: 0.6"/>
      </g>
     </g>
    </g>
    <g id="xtick_23">
     <g id="line2d_28">
      <g>
       <use xlink:href="#m715632957a" x="284.560386" y="450.72" style="stroke: #000000; stroke-width: 0.6"/>
      </g>
     </g>
    </g>
    <g id="xtick_24">
     <g id="line2d_29">
      <g>
       <use xlink:href="#m715632957a" x="296.429508" y="450.72" style="stroke: #000000; stroke-width: 0.6"/>
      </g>
     </g>
    </g>
    <g id="xtick_25">
     <g id="line2d_30">
      <g>
       <use xlink:href="#m715632957a" x="305.635915" y="450.72" style="stroke: #000000; stroke-width: 0.6"/>
      </g>
     </g>
    </g>
    <g id="xtick_26">
     <g id="line2d_31">
      <g>
       <use xlink:href="#m715632957a" x="313.158097" y="450.72" style="stroke: #000000; stroke-width: 0.6"/>
      </g>
     </g>
    </g>
    <g id="xtick_27">
     <g id="line2d_32">
      <g>
       <use xlink:href="#m715632957a" x="319.518012" y="450.72" style="stroke: #000000; stroke-width: 0.6"/>
      </g>
     </g>
    </g>
    <g id="xtick_28">
     <g id="line2d_33">
      <g>
       <use xlink:href="#m715632957a" x="325.02722" y="450.72" style="stroke: #000000; stroke-width: 0.6"/>
      </g>
     </g>
    </g>
    <g id="xtick_29">
     <g id="line2d_34">
      <g>
       <use xlink:href="#m715632957a" x="329.886686" y="450.72" style="stroke: #000000; stroke-width: 0.6"/>
      </g>
     </g>
    </g>
    <g id="xtick_30">
     <g id="line2d_35">
      <g>
       <use xlink:href="#m715632957a" x="362.831339" y="450.72" style="stroke: #000000; stroke-width: 0.6"/>
      </g>
     </g>
    </g>
    <g id="xtick_31">
     <g id="line2d_36">
      <g>
       <use xlink:href="#m715632957a" x="379.559928" y="450.72" style="stroke: #000000; stroke-width: 0.6"/>
      </g>
     </g>
    </g>
    <g id="xtick_32">
     <g id="line2d_37">
      <g>
       <use xlink:href="#m715632957a" x="391.429051" y="450.72" style="stroke: #000000; stroke-width: 0.6"/>
      </g>
     </g>
    </g>
    <g id="xtick_33">
     <g id="line2d_38">
      <g>
       <use xlink:href="#m715632957a" x="400.635458" y="450.72" style="stroke: #000000; stroke-width: 0.6"/>
      </g>
     </g>
    </g>
    <g id="xtick_34">
     <g id="line2d_39">
      <g>
       <use xlink:href="#m715632957a" x="408.15764" y="450.72" style="stroke: #000000; stroke-width: 0.6"/>
      </g>
     </g>
    </g>
    <g id="xtick_35">
     <g id="line2d_40">
      <g>
       <use xlink:href="#m715632957a" x="414.517554" y="450.72" style="stroke: #000000; stroke-width: 0.6"/>
      </g>
     </g>
    </g>
    <g id="xtick_36">
     <g id="line2d_41">
      <g>
       <use xlink:href="#m715632957a" x="420.026763" y="450.72" style="stroke: #000000; stroke-width: 0.6"/>
      </g>
     </g>
    </g>
    <g id="xtick_37">
     <g id="line2d_42">
      <g>
       <use xlink:href="#m715632957a" x="424.886229" y="450.72" style="stroke: #000000; stroke-width: 0.6"/>
      </g>
     </g>
    </g>
    <g id="xtick_38">
     <g id="line2d_43">
      <g>
       <use xlink:href="#m715632957a" x="457.830881" y="450.72" style="stroke: #000000; stroke-width: 0.6"/>
      </g>
     </g>
    </g>
    <g id="xtick_39">
     <g id="line2d_44">
      <g>
       <use xlink:href="#m715632957a" x="474.55947" y="450.72" style="stroke: #000000; stroke-width: 0.6"/>
      </g>
     </g>
    </g>
    <g id="xtick_40">
     <g id="line2d_45">
      <g>
       <use xlink:href="#m715632957a" x="486.428593" y="450.72" style="stroke: #000000; stroke-width: 0.6"/>
      </g>
     </g>
    </g>
    <g id="xtick_41">
     <g id="line2d_46">
      <g>
       <use xlink:href="#m715632957a" x="495.635" y="450.72" style="stroke: #000000; stroke-width: 0.6"/>
      </g>
     </g>
    </g>
    <g id="text_6">
     <!-- Time percent [%] -->
     <g transform="translate(220.58 480.51625) scale(0.12 -0.12)">
      <defs>
       <path id="DejaVuSans-54" d="M -19 4666 
L 3928 4666 
L 3928 4134 
L 2272 4134 
L 2272 0 
L 1638 0 
L 1638 4134 
L -19 4134 
L -19 4666 
z
" transform="scale(0.015625)"/>
       <path id="DejaVuSans-69" d="M 603 3500 
L 1178 3500 
L 1178 0 
L 603 0 
L 603 3500 
z
M 603 4863 
L 1178 4863 
L 1178 4134 
L 603 4134 
L 603 4863 
z
" transform="scale(0.015625)"/>
       <path id="DejaVuSans-6d" d="M 3328 2828 
Q 3544 3216 3844 3400 
Q 4144 3584 4550 3584 
Q 5097 3584 5394 3201 
Q 5691 2819 5691 2113 
L 5691 0 
L 5113 0 
L 5113 2094 
Q 5113 2597 4934 2840 
Q 4756 3084 4391 3084 
Q 3944 3084 3684 2787 
Q 3425 2491 3425 1978 
L 3425 0 
L 2847 0 
L 2847 2094 
Q 2847 2600 2669 2842 
Q 2491 3084 2119 3084 
Q 1678 3084 1418 2786 
Q 1159 2488 1159 1978 
L 1159 0 
L 581 0 
L 581 3500 
L 1159 3500 
L 1159 2956 
Q 1356 3278 1631 3431 
Q 1906 3584 2284 3584 
Q 2666 3584 2933 3390 
Q 3200 3197 3328 2828 
z
" transform="scale(0.015625)"/>
       <path id="DejaVuSans-65" d="M 3597 1894 
L 3597 1613 
L 953 1613 
Q 991 1019 1311 708 
Q 1631 397 2203 397 
Q 2534 397 2845 478 
Q 3156 559 3463 722 
L 3463 178 
Q 3153 47 2828 -22 
Q 2503 -91 2169 -91 
Q 1331 -91 842 396 
Q 353 884 353 1716 
Q 353 2575 817 3079 
Q 1281 3584 2069 3584 
Q 2775 3584 3186 3129 
Q 3597 2675 3597 1894 
z
M 3022 2063 
Q 3016 2534 2758 2815 
Q 2500 3097 2075 3097 
Q 1594 3097 1305 2825 
Q 1016 2553 972 2059 
L 3022 2063 
z
" transform="scale(0.015625)"/>
       <path id="DejaVuSans-20" transform="scale(0.015625)"/>
       <path id="DejaVuSans-70" d="M 1159 525 
L 1159 -1331 
L 581 -1331 
L 581 3500 
L 1159 3500 
L 1159 2969 
Q 1341 3281 1617 3432 
Q 1894 3584 2278 3584 
Q 2916 3584 3314 3078 
Q 3713 2572 3713 1747 
Q 3713 922 3314 415 
Q 2916 -91 2278 -91 
Q 1894 -91 1617 61 
Q 1341 213 1159 525 
z
M 3116 1747 
Q 3116 2381 2855 2742 
Q 2594 3103 2138 3103 
Q 1681 3103 1420 2742 
Q 1159 2381 1159 1747 
Q 1159 1113 1420 752 
Q 1681 391 2138 391 
Q 2594 391 2855 752 
Q 3116 1113 3116 1747 
z
" transform="scale(0.015625)"/>
       <path id="DejaVuSans-72" d="M 2631 2963 
Q 2534 3019 2420 3045 
Q 2306 3072 2169 3072 
Q 1681 3072 1420 2755 
Q 1159 2438 1159 1844 
L 1159 0 
L 581 0 
L 581 3500 
L 1159 3500 
L 1159 2956 
Q 1341 3275 1631 3429 
Q 1922 3584 2338 3584 
Q 2397 3584 2469 3576 
Q 2541 3569 2628 3553 
L 2631 2963 
z
" transform="scale(0.015625)"/>
       <path id="DejaVuSans-63" d="M 3122 3366 
L 3122 2828 
Q 2878 2963 2633 3030 
Q 2388 3097 2138 3097 
Q 1578 3097 1268 2742 
Q 959 2388 959 1747 
Q 959 1106 1268 751 
Q 1578 397 2138 397 
Q 2388 397 2633 464 
Q 2878 531 3122 666 
L 3122 134 
Q 2881 22 2623 -34 
Q 2366 -91 2075 -91 
Q 1284 -91 818 406 
Q 353 903 353 1747 
Q 353 2603 823 3093 
Q 1294 3584 2113 3584 
Q 2378 3584 2631 3529 
Q 2884 3475 3122 3366 
z
" transform="scale(0.015625)"/>
       <path id="DejaVuSans-6e" d="M 3513 2113 
L 3513 0 
L 2938 0 
L 2938 2094 
Q 2938 2591 2744 2837 
Q 2550 3084 2163 3084 
Q 1697 3084 1428 2787 
Q 1159 2491 1159 1978 
L 1159 0 
L 581 0 
L 581 3500 
L 1159 3500 
L 1159 2956 
Q 1366 3272 1645 3428 
Q 1925 3584 2291 3584 
Q 2894 3584 3203 3211 
Q 3513 2838 3513 2113 
z
" transform="scale(0.015625)"/>
       <path id="DejaVuSans-74" d="M 1172 4494 
L 1172 3500 
L 2356 3500 
L 2356 3053 
L 1172 3053 
L 1172 1153 
Q 1172 725 1289 603 
Q 1406 481 1766 481 
L 2356 481 
L 2356 0 
L 1766 0 
Q 1100 0 847 248 
Q 594 497 594 1153 
L 594 3053 
L 172 3053 
L 172 3500 
L 594 3500 
L 594 4494 
L 1172 4494 
z
" transform="scale(0.015625)"/>
       <path id="DejaVuSans-5b" d="M 550 4863 
L 1875 4863 
L 1875 4416 
L 1125 4416 
L 1125 -397 
L 1875 -397 
L 1875 -844 
L 550 -844 
L 550 4863 
z
" transform="scale(0.015625)"/>
       <path id="DejaVuSans-25" d="M 4653 2053 
Q 4381 2053 4226 1822 
Q 4072 1591 4072 1178 
Q 4072 772 4226 539 
Q 4381 306 4653 306 
Q 4919 306 5073 539 
Q 5228 772 5228 1178 
Q 5228 1588 5073 1820 
Q 4919 2053 4653 2053 
z
M 4653 2450 
Q 5147 2450 5437 2106 
Q 5728 1763 5728 1178 
Q 5728 594 5436 251 
Q 5144 -91 4653 -91 
Q 4153 -91 3862 251 
Q 3572 594 3572 1178 
Q 3572 1766 3864 2108 
Q 4156 2450 4653 2450 
z
M 1428 4353 
Q 1159 4353 1004 4120 
Q 850 3888 850 3481 
Q 850 3069 1003 2837 
Q 1156 2606 1428 2606 
Q 1700 2606 1854 2837 
Q 2009 3069 2009 3481 
Q 2009 3884 1853 4118 
Q 1697 4353 1428 4353 
z
M 4250 4750 
L 4750 4750 
L 1831 -91 
L 1331 -91 
L 4250 4750 
z
M 1428 4750 
Q 1922 4750 2215 4408 
Q 2509 4066 2509 3481 
Q 2509 2891 2217 2550 
Q 1925 2209 1428 2209 
Q 931 2209 642 2551 
Q 353 2894 353 3481 
Q 353 4063 643 4406 
Q 934 4750 1428 4750 
z
" transform="scale(0.015625)"/>
       <path id="DejaVuSans-5d" d="M 1947 4863 
L 1947 -844 
L 622 -844 
L 622 -397 
L 1369 -397 
L 1369 4416 
L 622 4416 
L 622 4863 
L 1947 4863 
z
" transform="scale(0.015625)"/>
      </defs>
      <use xlink:href="#DejaVuSans-54"/>
      <use xlink:href="#DejaVuSans-69" x="57.958984"/>
      <use xlink:href="#DejaVuSans-6d" x="85.742188"/>
      <use xlink:href="#DejaVuSans-65" x="183.154297"/>
      <use xlink:href="#DejaVuSans-20" x="244.677734"/>
      <use xlink:href="#DejaVuSans-70" x="276.464844"/>
      <use xlink:href="#DejaVuSans-65" x="339.941406"/>
      <use xlink:href="#DejaVuSans-72" x="401.464844"/>
      <use xlink:href="#DejaVuSans-63" x="440.328125"/>
      <use xlink:href="#DejaVuSans-65" x="495.308594"/>
      <use xlink:href="#DejaVuSans-6e" x="556.832031"/>
      <use xlink:href="#DejaVuSans-74" x="620.210938"/>
      <use xlink:href="#DejaVuSans-20" x="659.419922"/>
      <use xlink:href="#DejaVuSans-5b" x="691.207031"/>
      <use xlink:href="#DejaVuSans-25" x="730.220703"/>
      <use xlink:href="#DejaVuSans-5d" x="825.240234"/>
     </g>
    </g>
   </g>
   <g id="matplotlib.axis_2">
    <g id="ytick_1">
     <g id="line2d_47">
      <path d="M 49.235 448.267189 
L 495.635 448.267189 
" clip-path="url(#p14b53ef1be)" style="fill: none; stroke: #b0b0b0; stroke-width: 0.8; stroke-linecap: square"/>
     </g>
     <g id="line2d_48">
      <defs>
       <path id="md3ad33d010" d="M 0 0 
L -3.5 0 
" style="stroke: #000000; stroke-width: 0.8"/>
      </defs>
      <g>
       <use xlink:href="#md3ad33d010" x="49.235" y="448.267189" style="stroke: #000000; stroke-width: 0.8"/>
      </g>
     </g>
     <g id="text_7">
      <!-- 140 -->
      <g transform="translate(23.1475 452.066407) scale(0.1 -0.1)">
       <defs>
        <path id="DejaVuSans-34" d="M 2419 4116 
L 825 1625 
L 2419 1625 
L 2419 4116 
z
M 2253 4666 
L 3047 4666 
L 3047 1625 
L 3713 1625 
L 3713 1100 
L 3047 1100 
L 3047 0 
L 2419 0 
L 2419 1100 
L 313 1100 
L 313 1709 
L 2253 4666 
z
" transform="scale(0.015625)"/>
       </defs>
       <use xlink:href="#DejaVuSans-31"/>
       <use xlink:href="#DejaVuSans-34" x="63.623047"/>
       <use xlink:href="#DejaVuSans-30" x="127.246094"/>
      </g>
     </g>
    </g>
    <g id="ytick_2">
     <g id="line2d_49">
      <path d="M 49.235 383.878844 
L 495.635 383.878844 
" clip-path="url(#p14b53ef1be)" style="fill: none; stroke: #b0b0b0; stroke-width: 0.8; stroke-linecap: square"/>
     </g>
     <g id="line2d_50">
      <g>
       <use xlink:href="#md3ad33d010" x="49.235" y="383.878844" style="stroke: #000000; stroke-width: 0.8"/>
      </g>
     </g>
     <g id="text_8">
      <!-- 160 -->
      <g transform="translate(23.1475 387.678062) scale(0.1 -0.1)">
       <defs>
        <path id="DejaVuSans-36" d="M 2113 2584 
Q 1688 2584 1439 2293 
Q 1191 2003 1191 1497 
Q 1191 994 1439 701 
Q 1688 409 2113 409 
Q 2538 409 2786 701 
Q 3034 994 3034 1497 
Q 3034 2003 2786 2293 
Q 2538 2584 2113 2584 
z
M 3366 4563 
L 3366 3988 
Q 3128 4100 2886 4159 
Q 2644 4219 2406 4219 
Q 1781 4219 1451 3797 
Q 1122 3375 1075 2522 
Q 1259 2794 1537 2939 
Q 1816 3084 2150 3084 
Q 2853 3084 3261 2657 
Q 3669 2231 3669 1497 
Q 3669 778 3244 343 
Q 2819 -91 2113 -91 
Q 1303 -91 875 529 
Q 447 1150 447 2328 
Q 447 3434 972 4092 
Q 1497 4750 2381 4750 
Q 2619 4750 2861 4703 
Q 3103 4656 3366 4563 
z
" transform="scale(0.015625)"/>
       </defs>
       <use xlink:href="#DejaVuSans-31"/>
       <use xlink:href="#DejaVuSans-36" x="63.623047"/>
       <use xlink:href="#DejaVuSans-30" x="127.246094"/>
      </g>
     </g>
    </g>
    <g id="ytick_3">
     <g id="line2d_51">
      <path d="M 49.235 319.490499 
L 495.635 319.490499 
" clip-path="url(#p14b53ef1be)" style="fill: none; stroke: #b0b0b0; stroke-width: 0.8; stroke-linecap: square"/>
     </g>
     <g id="line2d_52">
      <g>
       <use xlink:href="#md3ad33d010" x="49.235" y="319.490499" style="stroke: #000000; stroke-width: 0.8"/>
      </g>
     </g>
     <g id="text_9">
      <!-- 180 -->
      <g transform="translate(23.1475 323.289717) scale(0.1 -0.1)">
       <defs>
        <path id="DejaVuSans-38" d="M 2034 2216 
Q 1584 2216 1326 1975 
Q 1069 1734 1069 1313 
Q 1069 891 1326 650 
Q 1584 409 2034 409 
Q 2484 409 2743 651 
Q 3003 894 3003 1313 
Q 3003 1734 2745 1975 
Q 2488 2216 2034 2216 
z
M 1403 2484 
Q 997 2584 770 2862 
Q 544 3141 544 3541 
Q 544 4100 942 4425 
Q 1341 4750 2034 4750 
Q 2731 4750 3128 4425 
Q 3525 4100 3525 3541 
Q 3525 3141 3298 2862 
Q 3072 2584 2669 2484 
Q 3125 2378 3379 2068 
Q 3634 1759 3634 1313 
Q 3634 634 3220 271 
Q 2806 -91 2034 -91 
Q 1263 -91 848 271 
Q 434 634 434 1313 
Q 434 1759 690 2068 
Q 947 2378 1403 2484 
z
M 1172 3481 
Q 1172 3119 1398 2916 
Q 1625 2713 2034 2713 
Q 2441 2713 2670 2916 
Q 2900 3119 2900 3481 
Q 2900 3844 2670 4047 
Q 2441 4250 2034 4250 
Q 1625 4250 1398 4047 
Q 1172 3844 1172 3481 
z
" transform="scale(0.015625)"/>
       </defs>
       <use xlink:href="#DejaVuSans-31"/>
       <use xlink:href="#DejaVuSans-38" x="63.623047"/>
       <use xlink:href="#DejaVuSans-30" x="127.246094"/>
      </g>
     </g>
    </g>
    <g id="ytick_4">
     <g id="line2d_53">
      <path d="M 49.235 255.102154 
L 495.635 255.102154 
" clip-path="url(#p14b53ef1be)" style="fill: none; stroke: #b0b0b0; stroke-width: 0.8; stroke-linecap: square"/>
     </g>
     <g id="line2d_54">
      <g>
       <use xlink:href="#md3ad33d010" x="49.235" y="255.102154" style="stroke: #000000; stroke-width: 0.8"/>
      </g>
     </g>
     <g id="text_10">
      <!-- 200 -->
      <g transform="translate(23.1475 258.901372) scale(0.1 -0.1)">
       <use xlink:href="#DejaVuSans-32"/>
       <use xlink:href="#DejaVuSans-30" x="63.623047"/>
       <use xlink:href="#DejaVuSans-30" x="127.246094"/>
      </g>
     </g>
    </g>
    <g id="ytick_5">
     <g id="line2d_55">
      <path d="M 49.235 190.713809 
L 495.635 190.713809 
" clip-path="url(#p14b53ef1be)" style="fill: none; stroke: #b0b0b0; stroke-width: 0.8; stroke-linecap: square"/>
     </g>
     <g id="line2d_56">
      <g>
       <use xlink:href="#md3ad33d010" x="49.235" y="190.713809" style="stroke: #000000; stroke-width: 0.8"/>
      </g>
     </g>
     <g id="text_11">
      <!-- 220 -->
      <g transform="translate(23.1475 194.513027) scale(0.1 -0.1)">
       <use xlink:href="#DejaVuSans-32"/>
       <use xlink:href="#DejaVuSans-32" x="63.623047"/>
       <use xlink:href="#DejaVuSans-30" x="127.246094"/>
      </g>
     </g>
    </g>
    <g id="ytick_6">
     <g id="line2d_57">
      <path d="M 49.235 126.325464 
L 495.635 126.325464 
" clip-path="url(#p14b53ef1be)" style="fill: none; stroke: #b0b0b0; stroke-width: 0.8; stroke-linecap: square"/>
     </g>
     <g id="line2d_58">
      <g>
       <use xlink:href="#md3ad33d010" x="49.235" y="126.325464" style="stroke: #000000; stroke-width: 0.8"/>
      </g>
     </g>
     <g id="text_12">
      <!-- 240 -->
      <g transform="translate(23.1475 130.124682) scale(0.1 -0.1)">
       <use xlink:href="#DejaVuSans-32"/>
       <use xlink:href="#DejaVuSans-34" x="63.623047"/>
       <use xlink:href="#DejaVuSans-30" x="127.246094"/>
      </g>
     </g>
    </g>
    <g id="ytick_7">
     <g id="line2d_59">
      <path d="M 49.235 61.937119 
L 495.635 61.937119 
" clip-path="url(#p14b53ef1be)" style="fill: none; stroke: #b0b0b0; stroke-width: 0.8; stroke-linecap: square"/>
     </g>
     <g id="line2d_60">
      <g>
       <use xlink:href="#md3ad33d010" x="49.235" y="61.937119" style="stroke: #000000; stroke-width: 0.8"/>
      </g>
     </g>
     <g id="text_13">
      <!-- 260 -->
      <g transform="translate(23.1475 65.736337) scale(0.1 -0.1)">
       <use xlink:href="#DejaVuSans-32"/>
       <use xlink:href="#DejaVuSans-36" x="63.623047"/>
       <use xlink:href="#DejaVuSans-30" x="127.246094"/>
      </g>
     </g>
    </g>
    <g id="text_14">
     <!-- L_b_corr [dB] -->
     <g transform="translate(16.318125 268.425) rotate(-90) scale(0.12 -0.12)">
      <defs>
       <path id="DejaVuSans-4c" d="M 628 4666 
L 1259 4666 
L 1259 531 
L 3531 531 
L 3531 0 
L 628 0 
L 628 4666 
z
" transform="scale(0.015625)"/>
       <path id="DejaVuSans-5f" d="M 3263 -1063 
L 3263 -1509 
L -63 -1509 
L -63 -1063 
L 3263 -1063 
z
" transform="scale(0.015625)"/>
       <path id="DejaVuSans-62" d="M 3116 1747 
Q 3116 2381 2855 2742 
Q 2594 3103 2138 3103 
Q 1681 3103 1420 2742 
Q 1159 2381 1159 1747 
Q 1159 1113 1420 752 
Q 1681 391 2138 391 
Q 2594 391 2855 752 
Q 3116 1113 3116 1747 
z
M 1159 2969 
Q 1341 3281 1617 3432 
Q 1894 3584 2278 3584 
Q 2916 3584 3314 3078 
Q 3713 2572 3713 1747 
Q 3713 922 3314 415 
Q 2916 -91 2278 -91 
Q 1894 -91 1617 61 
Q 1341 213 1159 525 
L 1159 0 
L 581 0 
L 581 4863 
L 1159 4863 
L 1159 2969 
z
" transform="scale(0.015625)"/>
       <path id="DejaVuSans-6f" d="M 1959 3097 
Q 1497 3097 1228 2736 
Q 959 2375 959 1747 
Q 959 1119 1226 758 
Q 1494 397 1959 397 
Q 2419 397 2687 759 
Q 2956 1122 2956 1747 
Q 2956 2369 2687 2733 
Q 2419 3097 1959 3097 
z
M 1959 3584 
Q 2709 3584 3137 3096 
Q 3566 2609 3566 1747 
Q 3566 888 3137 398 
Q 2709 -91 1959 -91 
Q 1206 -91 779 398 
Q 353 888 353 1747 
Q 353 2609 779 3096 
Q 1206 3584 1959 3584 
z
" transform="scale(0.015625)"/>
       <path id="DejaVuSans-64" d="M 2906 2969 
L 2906 4863 
L 3481 4863 
L 3481 0 
L 2906 0 
L 2906 525 
Q 2725 213 2448 61 
Q 2172 -91 1784 -91 
Q 1150 -91 751 415 
Q 353 922 353 1747 
Q 353 2572 751 3078 
Q 1150 3584 1784 3584 
Q 2172 3584 2448 3432 
Q 2725 3281 2906 2969 
z
M 947 1747 
Q 947 1113 1208 752 
Q 1469 391 1925 391 
Q 2381 391 2643 752 
Q 2906 1113 2906 1747 
Q 2906 2381 2643 2742 
Q 2381 3103 1925 3103 
Q 1469 3103 1208 2742 
Q 947 2381 947 1747 
z
" transform="scale(0.015625)"/>
       <path id="DejaVuSans-42" d="M 1259 2228 
L 1259 519 
L 2272 519 
Q 2781 519 3026 730 
Q 3272 941 3272 1375 
Q 3272 1813 3026 2020 
Q 2781 2228 2272 2228 
L 1259 2228 
z
M 1259 4147 
L 1259 2741 
L 2194 2741 
Q 2656 2741 2882 2914 
Q 3109 3088 3109 3444 
Q 3109 3797 2882 3972 
Q 2656 4147 2194 4147 
L 1259 4147 
z
M 628 4666 
L 2241 4666 
Q 2963 4666 3353 4366 
Q 3744 4066 3744 3513 
Q 3744 3084 3544 2831 
Q 3344 2578 2956 2516 
Q 3422 2416 3680 2098 
Q 3938 1781 3938 1306 
Q 3938 681 3513 340 
Q 3088 0 2303 0 
L 628 0 
L 628 4666 
z
" transform="scale(0.015625)"/>
      </defs>
      <use xlink:href="#DejaVuSans-4c"/>
      <use xlink:href="#DejaVuSans-5f" x="55.712891"/>
      <use xlink:href="#DejaVuSans-62" x="105.712891"/>
      <use xlink:href="#DejaVuSans-5f" x="169.189453"/>
      <use xlink:href="#DejaVuSans-63" x="219.189453"/>
      <use xlink:href="#DejaVuSans-6f" x="274.169922"/>
      <use xlink:href="#DejaVuSans-72" x="335.351562"/>
      <use xlink:href="#DejaVuSans-72" x="374.714844"/>
      <use xlink:href="#DejaVuSans-20" x="415.828125"/>
      <use xlink:href="#DejaVuSans-5b" x="447.615234"/>
      <use xlink:href="#DejaVuSans-64" x="486.628906"/>
      <use xlink:href="#DejaVuSans-42" x="550.105469"/>
      <use xlink:href="#DejaVuSans-5d" x="618.708984"/>
     </g>
    </g>
   </g>
   <g id="line2d_61">
    <path d="M 49.235 430.56 
L 53.744091 430.45328 
L 58.253182 430.34656 
L 62.762273 430.239841 
L 67.271364 430.133121 
L 71.780455 430.026401 
L 76.289545 429.919681 
L 80.798636 429.812962 
L 85.307727 429.706242 
L 89.816818 429.599522 
L 94.325909 429.492802 
L 98.835 429.386082 
L 103.344091 429.279363 
L 107.853182 429.172643 
L 112.362273 429.065923 
L 116.871364 428.959203 
L 121.380455 428.852484 
L 125.889545 428.745764 
L 130.398636 428.639044 
L 134.907727 428.532324 
L 139.416818 428.425604 
L 143.925909 428.318885 
L 148.435 428.212165 
L 152.944091 428.105445 
L 157.453182 427.998725 
L 161.962273 427.892006 
L 166.471364 427.785286 
L 170.980455 427.678566 
L 175.489545 427.571846 
L 179.998636 427.465126 
L 184.507727 427.358407 
L 189.016818 427.251687 
L 193.525909 427.144967 
L 198.035 427.038247 
L 202.544091 426.931528 
L 207.053182 426.824808 
L 211.562273 426.718088 
L 216.071364 426.611368 
L 220.580455 426.504648 
L 225.089545 426.397929 
L 229.598636 426.291209 
L 234.107727 426.184489 
L 238.616818 426.077769 
L 243.125909 425.97105 
L 247.635 425.86433 
L 252.144091 425.75761 
L 256.653182 425.65089 
L 261.162273 425.54417 
L 265.671364 425.437451 
L 270.180455 425.330731 
L 274.689545 425.224011 
L 279.198636 425.117291 
L 283.707727 425.010572 
L 288.216818 424.903852 
L 292.725909 424.797132 
L 297.235 424.690412 
L 301.744091 424.583693 
L 306.253182 424.476973 
L 310.762273 424.370253 
L 315.271364 424.263533 
L 319.780455 424.156813 
L 324.289545 424.050094 
L 328.798636 423.943374 
L 333.307727 423.836654 
L 337.816818 423.729934 
L 342.325909 423.623215 
L 346.835 423.516495 
L 351.344091 423.409775 
L 355.853182 423.303055 
L 360.362273 423.196335 
L 364.871364 423.080273 
L 369.380455 422.95927 
L 373.889545 422.838017 
L 378.398636 422.716502 
L 382.907727 422.594709 
L 387.416818 422.472625 
L 391.925909 422.350232 
L 396.435 422.227513 
L 400.944091 422.104448 
L 405.453182 421.981015 
L 409.962273 421.85719 
L 414.471364 421.732947 
L 418.980455 421.608256 
L 423.489545 421.483084 
L 427.998636 421.357393 
L 432.507727 421.231141 
L 437.016818 421.104281 
L 441.525909 420.976756 
L 446.035 420.848504 
L 450.544091 420.719452 
L 455.053182 420.589512 
L 459.562273 420.458583 
L 464.071364 420.326542 
L 468.580455 420.193242 
L 473.089545 420.0585 
L 477.598636 419.922087 
L 482.107727 419.783714 
L 486.616818 419.642998 
L 491.125909 419.499429 
L 495.635 419.35229 
" clip-path="url(#p14b53ef1be)" style="fill: none; stroke: #1f77b4; stroke-width: 1.5; stroke-linecap: square"/>
   </g>
   <g id="line2d_62">
    <path d="M 49.235 338.617726 
L 53.744091 338.511006 
L 58.253182 338.404287 
L 62.762273 338.297567 
L 67.271364 338.190847 
L 71.780455 338.084127 
L 76.289545 337.977407 
L 80.798636 337.870688 
L 85.307727 337.763968 
L 89.816818 337.657248 
L 94.325909 337.550528 
L 98.835 337.443808 
L 103.344091 337.337089 
L 107.853182 337.230369 
L 112.362273 337.123649 
L 116.871364 337.016929 
L 121.380455 336.91021 
L 125.889545 336.80349 
L 130.398636 336.69677 
L 134.907727 336.59005 
L 139.416818 336.48333 
L 143.925909 336.376611 
L 148.435 336.269891 
L 152.944091 336.163171 
L 157.453182 336.056451 
L 161.962273 335.949732 
L 166.471364 335.843012 
L 170.980455 335.736292 
L 175.489545 335.629572 
L 179.998636 335.522852 
L 184.507727 335.416133 
L 189.016818 335.309413 
L 193.525909 335.202693 
L 198.035 335.095973 
L 202.544091 334.989254 
L 207.053182 334.882534 
L 211.562273 334.775814 
L 216.071364 334.669094 
L 220.580455 334.562375 
L 225.089545 334.455655 
L 229.598636 334.348935 
L 234.107727 334.242215 
L 238.616818 334.135495 
L 243.125909 334.028776 
L 247.635 333.922056 
L 252.144091 333.815336 
L 256.653182 333.708616 
L 261.162273 333.601897 
L 265.671364 333.495177 
L 270.180455 333.388457 
L 274.689545 333.281737 
L 279.198636 333.175017 
L 283.707727 333.068298 
L 288.216818 332.961578 
L 292.725909 332.854858 
L 297.235 332.748138 
L 301.744091 332.641419 
L 306.253182 332.534699 
L 310.762273 332.427979 
L 315.271364 332.321259 
L 319.780455 332.214539 
L 324.289545 332.10782 
L 328.798636 332.0011 
L 333.307727 331.89438 
L 337.816818 331.78766 
L 342.325909 331.680941 
L 346.835 331.574221 
L 351.344091 331.467501 
L 355.853182 331.360781 
L 360.362273 331.254062 
L 364.871364 331.138071 
L 369.380455 331.017179 
L 373.889545 330.896038 
L 378.398636 330.774636 
L 382.907727 330.65296 
L 387.416818 330.530994 
L 391.925909 330.408723 
L 396.435 330.286127 
L 400.944091 330.163188 
L 405.453182 330.039884 
L 409.962273 329.916192 
L 414.471364 329.792084 
L 418.980455 329.667532 
L 423.489545 329.542502 
L 427.998636 329.416957 
L 432.507727 329.290856 
L 437.016818 329.164151 
L 441.525909 329.036787 
L 446.035 328.908701 
L 450.544091 328.779821 
L 455.053182 328.650061 
L 459.562273 328.519318 
L 464.071364 328.387473 
L 468.580455 328.254378 
L 473.089545 328.119852 
L 477.598636 327.983669 
L 482.107727 327.84554 
L 486.616818 327.705086 
L 491.125909 327.561801 
L 495.635 327.414974 
" clip-path="url(#p14b53ef1be)" style="fill: none; stroke: #ff7f0e; stroke-width: 1.5; stroke-linecap: square"/>
   </g>
   <g id="line2d_63">
    <path d="M 49.235 285.260897 
L 53.744091 285.154177 
L 58.253182 285.047457 
L 62.762273 284.940737 
L 67.271364 284.834018 
L 71.780455 284.727298 
L 76.289545 284.620578 
L 80.798636 284.513858 
L 85.307727 284.407138 
L 89.816818 284.300419 
L 94.325909 284.193699 
L 98.835 284.086979 
L 103.344091 283.980259 
L 107.853182 283.87354 
L 112.362273 283.76682 
L 116.871364 283.6601 
L 121.380455 283.55338 
L 125.889545 283.44666 
L 130.398636 283.339941 
L 134.907727 283.233221 
L 139.416818 283.126501 
L 143.925909 283.019781 
L 148.435 282.913062 
L 152.944091 282.806342 
L 157.453182 282.699622 
L 161.962273 282.592902 
L 166.471364 282.486182 
L 170.980455 282.379463 
L 175.489545 282.272743 
L 179.998636 282.166023 
L 184.507727 282.059303 
L 189.016818 281.952584 
L 193.525909 281.845864 
L 198.035 281.739144 
L 202.544091 281.632424 
L 207.053182 281.525704 
L 211.562273 281.418985 
L 216.071364 281.312265 
L 220.580455 281.205545 
L 225.089545 281.098825 
L 229.598636 280.992106 
L 234.107727 280.885386 
L 238.616818 280.778666 
L 243.125909 280.671946 
L 247.635 280.565227 
L 252.144091 280.458507 
L 256.653182 280.351787 
L 261.162273 280.245067 
L 265.671364 280.138347 
L 270.180455 280.031628 
L 274.689545 279.924908 
L 279.198636 279.818188 
L 283.707727 279.711468 
L 288.216818 279.604749 
L 292.725909 279.498029 
L 297.235 279.391309 
L 301.744091 279.284589 
L 306.253182 279.177869 
L 310.762273 279.07115 
L 315.271364 278.96443 
L 319.780455 278.85771 
L 324.289545 278.75099 
L 328.798636 278.644271 
L 333.307727 278.537551 
L 337.816818 278.430831 
L 342.325909 278.324111 
L 346.835 278.217391 
L 351.344091 278.110672 
L 355.853182 278.003952 
L 360.362273 277.897232 
L 364.871364 277.781261 
L 369.380455 277.6604 
L 373.889545 277.53929 
L 378.398636 277.41792 
L 382.907727 277.296276 
L 387.416818 277.174343 
L 391.925909 277.052105 
L 396.435 276.929543 
L 400.944091 276.806639 
L 405.453182 276.683371 
L 409.962273 276.559715 
L 414.471364 276.435644 
L 418.980455 276.31113 
L 423.489545 276.18614 
L 427.998636 276.060636 
L 432.507727 275.934576 
L 437.016818 275.807914 
L 441.525909 275.680594 
L 446.035 275.552555 
L 450.544091 275.423722 
L 455.053182 275.294011 
L 459.562273 275.163321 
L 464.071364 275.03153 
L 468.580455 274.898491 
L 473.089545 274.764025 
L 477.598636 274.627905 
L 482.107727 274.489843 
L 486.616818 274.349463 
L 491.125909 274.206256 
L 495.635 274.059515 
" clip-path="url(#p14b53ef1be)" style="fill: none; stroke: #2ca02c; stroke-width: 1.5; stroke-linecap: square"/>
   </g>
   <g id="line2d_64">
    <path d="M 49.235 255.961238 
L 53.744091 255.854518 
L 58.253182 255.747799 
L 62.762273 255.641079 
L 67.271364 255.534359 
L 71.780455 255.427639 
L 76.289545 255.320919 
L 80.798636 255.2142 
L 85.307727 255.10748 
L 89.816818 255.00076 
L 94.325909 254.89404 
L 98.835 254.78732 
L 103.344091 254.680601 
L 107.853182 254.573881 
L 112.362273 254.467161 
L 116.871364 254.360441 
L 121.380455 254.253721 
L 125.889545 254.147002 
L 130.398636 254.040282 
L 134.907727 253.933562 
L 139.416818 253.826842 
L 143.925909 253.720123 
L 148.435 253.613403 
L 152.944091 253.506683 
L 157.453182 253.399963 
L 161.962273 253.293243 
L 166.471364 253.186524 
L 170.980455 253.079804 
L 175.489545 252.973084 
L 179.998636 252.866364 
L 184.507727 252.759645 
L 189.016818 252.652925 
L 193.525909 252.546205 
L 198.035 252.439485 
L 202.544091 252.332765 
L 207.053182 252.226046 
L 211.562273 252.119326 
L 216.071364 252.012606 
L 220.580455 251.905886 
L 225.089545 251.799167 
L 229.598636 251.692447 
L 234.107727 251.585727 
L 238.616818 251.479007 
L 243.125909 251.372287 
L 247.635 251.265568 
L 252.144091 251.158848 
L 256.653182 251.052128 
L 261.162273 250.945408 
L 265.671364 250.838689 
L 270.180455 250.731969 
L 274.689545 250.625249 
L 279.198636 250.518529 
L 283.707727 250.411809 
L 288.216818 250.30509 
L 292.725909 250.19837 
L 297.235 250.09165 
L 301.744091 249.98493 
L 306.253182 249.878211 
L 310.762273 249.771491 
L 315.271364 249.664771 
L 319.780455 249.558051 
L 324.289545 249.451332 
L 328.798636 249.344612 
L 333.307727 249.237892 
L 337.816818 249.131172 
L 342.325909 249.024452 
L 346.835 248.917733 
L 351.344091 248.811013 
L 355.853182 248.704293 
L 360.362273 248.597573 
L 364.871364 248.481617 
L 369.380455 248.360777 
L 373.889545 248.23969 
L 378.398636 248.118343 
L 382.907727 247.996722 
L 387.416818 247.874813 
L 391.925909 247.752598 
L 396.435 247.630062 
L 400.944091 247.507183 
L 405.453182 247.38394 
L 409.962273 247.260311 
L 414.471364 247.136267 
L 418.980455 247.011781 
L 423.489545 246.886819 
L 427.998636 246.761344 
L 432.507727 246.635315 
L 437.016818 246.508683 
L 441.525909 246.381396 
L 446.035 246.253389 
L 450.544091 246.124591 
L 455.053182 245.994916 
L 459.562273 245.864263 
L 464.071364 245.732511 
L 468.580455 245.599513 
L 473.089545 245.46509 
L 477.598636 245.329016 
L 482.107727 245.191003 
L 486.616818 245.050675 
L 491.125909 244.907525 
L 495.635 244.760847 
" clip-path="url(#p14b53ef1be)" style="fill: none; stroke: #d62728; stroke-width: 1.5; stroke-linecap: square"/>
   </g>
   <g id="line2d_65">
    <path d="M 49.235 217.290817 
L 53.744091 217.184097 
L 58.253182 217.077377 
L 62.762273 216.970657 
L 67.271364 216.863938 
L 71.780455 216.757218 
L 76.289545 216.650498 
L 80.798636 216.543778 
L 85.307727 216.437058 
L 89.816818 216.330338 
L 94.325909 216.223619 
L 98.835 216.116899 
L 103.344091 216.010179 
L 107.853182 215.903459 
L 112.362273 215.796739 
L 116.871364 215.690019 
L 121.380455 215.5833 
L 125.889545 215.47658 
L 130.398636 215.36986 
L 134.907727 215.26314 
L 139.416818 215.15642 
L 143.925909 215.049701 
L 148.435 214.942981 
L 152.944091 214.836261 
L 157.453182 214.729541 
L 161.962273 214.622821 
L 166.471364 214.516102 
L 170.980455 214.409382 
L 175.489545 214.302662 
L 179.998636 214.195942 
L 184.507727 214.089223 
L 189.016818 213.982503 
L 193.525909 213.875783 
L 198.035 213.769063 
L 202.544091 213.662343 
L 207.053182 213.555624 
L 211.562273 213.448904 
L 216.071364 213.342184 
L 220.580455 213.235464 
L 225.089545 213.128745 
L 229.598636 213.022025 
L 234.107727 212.915305 
L 238.616818 212.808585 
L 243.125909 212.701865 
L 247.635 212.595146 
L 252.144091 212.488426 
L 256.653182 212.381706 
L 261.162273 212.274986 
L 265.671364 212.168267 
L 270.180455 212.061547 
L 274.689545 211.954827 
L 279.198636 211.848107 
L 283.707727 211.741387 
L 288.216818 211.634668 
L 292.725909 211.527948 
L 297.235 211.421228 
L 301.744091 211.314508 
L 306.253182 211.207789 
L 310.762273 211.101069 
L 315.271364 210.994349 
L 319.780455 210.887629 
L 324.289545 210.780909 
L 328.798636 210.67419 
L 333.307727 210.56747 
L 337.816818 210.46075 
L 342.325909 210.35403 
L 346.835 210.247311 
L 351.344091 210.140591 
L 355.853182 210.033871 
L 360.362273 209.927151 
L 364.871364 209.811208 
L 369.380455 209.690387 
L 373.889545 209.56932 
L 378.398636 209.447993 
L 382.907727 209.326393 
L 387.416818 209.204505 
L 391.925909 209.082312 
L 396.435 208.959797 
L 400.944091 208.836941 
L 405.453182 208.713721 
L 409.962273 208.590115 
L 414.471364 208.466095 
L 418.980455 208.341634 
L 423.489545 208.216697 
L 427.998636 208.091248 
L 432.507727 207.965246 
L 437.016818 207.838642 
L 441.525909 207.711383 
L 446.035 207.583406 
L 450.544091 207.454638 
L 455.053182 207.324995 
L 459.562273 207.194375 
L 464.071364 207.062657 
L 468.580455 206.929696 
L 473.089545 206.795312 
L 477.598636 206.659278 
L 482.107727 206.521309 
L 486.616818 206.381027 
L 491.125909 206.237928 
L 495.635 206.091305 
" clip-path="url(#p14b53ef1be)" style="fill: none; stroke: #9467bd; stroke-width: 1.5; stroke-linecap: square"/>
   </g>
   <g id="line2d_66">
    <path d="M 49.235 187.566893 
L 53.744091 187.460173 
L 58.253182 187.353453 
L 62.762273 187.246733 
L 67.271364 187.140013 
L 71.780455 187.033293 
L 76.289545 186.926573 
L 80.798636 186.819853 
L 85.307727 186.713133 
L 89.816818 186.606413 
L 94.325909 186.499693 
L 98.835 186.392973 
L 103.344091 186.286253 
L 107.853182 186.179533 
L 112.362273 186.072813 
L 116.871364 185.966093 
L 121.380455 185.859373 
L 125.889545 185.752653 
L 130.398636 185.645934 
L 134.907727 185.539214 
L 139.416818 185.432494 
L 143.925909 185.325774 
L 148.435 185.219054 
L 152.944091 185.112334 
L 157.453182 185.005615 
L 161.962273 184.898895 
L 166.471364 184.792175 
L 170.980455 184.685455 
L 175.489545 184.578735 
L 179.998636 184.472016 
L 184.507727 184.365296 
L 189.016818 184.258576 
L 193.525909 184.151856 
L 198.035 184.045136 
L 202.544091 183.938417 
L 207.053182 183.831697 
L 211.562273 183.724977 
L 216.071364 183.618257 
L 220.580455 183.511537 
L 225.089545 183.404818 
L 229.598636 183.298098 
L 234.107727 183.191378 
L 238.616818 183.084658 
L 243.125909 182.977938 
L 247.635 182.871219 
L 252.144091 182.764499 
L 256.653182 182.657779 
L 261.162273 182.551059 
L 265.671364 182.44434 
L 270.180455 182.33762 
L 274.689545 182.2309 
L 279.198636 182.12418 
L 283.707727 182.01746 
L 288.216818 181.910741 
L 292.725909 181.804021 
L 297.235 181.697301 
L 301.744091 181.590581 
L 306.253182 181.483862 
L 310.762273 181.377142 
L 315.271364 181.270422 
L 319.780455 181.163702 
L 324.289545 181.056982 
L 328.798636 180.950263 
L 333.307727 180.843543 
L 337.816818 180.736823 
L 342.325909 180.630103 
L 346.835 180.523384 
L 351.344091 180.416664 
L 355.853182 180.309944 
L 360.362273 180.203224 
L 364.871364 180.087287 
L 369.380455 179.966477 
L 373.889545 179.845419 
L 378.398636 179.724102 
L 382.907727 179.602512 
L 387.416818 179.480635 
L 391.925909 179.358453 
L 396.435 179.235949 
L 400.944091 179.113103 
L 405.453182 178.989895 
L 409.962273 178.8663 
L 414.471364 178.742293 
L 418.980455 178.617844 
L 423.489545 178.492919 
L 427.998636 178.367483 
L 432.507727 178.241494 
L 437.016818 178.114904 
L 441.525909 177.987659 
L 446.035 177.859697 
L 450.544091 177.730945 
L 455.053182 177.601317 
L 459.562273 177.470714 
L 464.071364 177.339013 
L 468.580455 177.20607 
L 473.089545 177.071705 
L 477.598636 176.935692 
L 482.107727 176.797744 
L 486.616818 176.657485 
L 491.125909 176.514411 
L 495.635 176.367815 
" clip-path="url(#p14b53ef1be)" style="fill: none; stroke: #8c564b; stroke-width: 1.5; stroke-linecap: square"/>
   </g>
   <g id="line2d_67">
    <path d="M 49.235 147.781499 
L 53.744091 147.674776 
L 58.253182 147.568054 
L 62.762273 147.461331 
L 67.271364 147.354609 
L 71.780455 147.247887 
L 76.289545 147.141165 
L 80.798636 147.034444 
L 85.307727 146.927722 
L 89.816818 146.821001 
L 94.325909 146.71428 
L 98.835 146.607558 
L 103.344091 146.500837 
L 107.853182 146.394116 
L 112.362273 146.287396 
L 116.871364 146.180675 
L 121.380455 146.073954 
L 125.889545 145.967234 
L 130.398636 145.860513 
L 134.907727 145.753793 
L 139.416818 145.647072 
L 143.925909 145.540352 
L 148.435 145.433631 
L 152.944091 145.326911 
L 157.453182 145.220191 
L 161.962273 145.113471 
L 166.471364 145.006751 
L 170.980455 144.90003 
L 175.489545 144.79331 
L 179.998636 144.68659 
L 184.507727 144.57987 
L 189.016818 144.47315 
L 193.525909 144.36643 
L 198.035 144.25971 
L 202.544091 144.15299 
L 207.053182 144.04627 
L 211.562273 143.93955 
L 216.071364 143.83283 
L 220.580455 143.726111 
L 225.089545 143.619391 
L 229.598636 143.512671 
L 234.107727 143.405951 
L 238.616818 143.299231 
L 243.125909 143.192511 
L 247.635 143.085791 
L 252.144091 142.979071 
L 256.653182 142.872352 
L 261.162273 142.765632 
L 265.671364 142.658912 
L 270.180455 142.552192 
L 274.689545 142.445472 
L 279.198636 142.338752 
L 283.707727 142.232033 
L 288.216818 142.125313 
L 292.725909 142.018593 
L 297.235 141.911873 
L 301.744091 141.805153 
L 306.253182 141.698434 
L 310.762273 141.591714 
L 315.271364 141.484994 
L 319.780455 141.378274 
L 324.289545 141.271555 
L 328.798636 141.164835 
L 333.307727 141.058115 
L 337.816818 140.951395 
L 342.325909 140.844675 
L 346.835 140.737956 
L 351.344091 140.631236 
L 355.853182 140.524516 
L 360.362273 140.417796 
L 364.871364 140.301863 
L 369.380455 140.18106 
L 373.889545 140.060009 
L 378.398636 139.938699 
L 382.907727 139.817117 
L 387.416818 139.695246 
L 391.925909 139.573071 
L 396.435 139.450575 
L 400.944091 139.327737 
L 405.453182 139.204537 
L 409.962273 139.080951 
L 414.471364 138.956952 
L 418.980455 138.832511 
L 423.489545 138.707595 
L 427.998636 138.582168 
L 432.507727 138.456188 
L 437.016818 138.329608 
L 441.525909 138.202373 
L 446.035 138.074421 
L 450.544091 137.945679 
L 455.053182 137.816062 
L 459.562273 137.68547 
L 464.071364 137.553782 
L 468.580455 137.420852 
L 473.089545 137.286499 
L 477.598636 137.1505 
L 482.107727 137.012567 
L 486.616818 136.872325 
L 491.125909 136.729268 
L 495.635 136.582692 
" clip-path="url(#p14b53ef1be)" style="fill: none; stroke: #e377c2; stroke-width: 1.5; stroke-linecap: square"/>
   </g>
   <g id="line2d_68">
    <path d="M 49.235 78.554492 
L 53.744091 78.447742 
L 58.253182 78.340995 
L 62.762273 78.234249 
L 67.271364 78.127505 
L 71.780455 78.020763 
L 76.289545 77.914023 
L 80.798636 77.807284 
L 85.307727 77.700547 
L 89.816818 77.593811 
L 94.325909 77.487077 
L 98.835 77.380343 
L 103.344091 77.273611 
L 107.853182 77.16688 
L 112.362273 77.060149 
L 116.871364 76.953419 
L 121.380455 76.846691 
L 125.889545 76.739963 
L 130.398636 76.633235 
L 134.907727 76.526508 
L 139.416818 76.419782 
L 143.925909 76.313056 
L 148.435 76.206331 
L 152.944091 76.099606 
L 157.453182 75.992882 
L 161.962273 75.886158 
L 166.471364 75.779434 
L 170.980455 75.672711 
L 175.489545 75.565988 
L 179.998636 75.459265 
L 184.507727 75.352542 
L 189.016818 75.24582 
L 193.525909 75.139098 
L 198.035 75.032376 
L 202.544091 74.925654 
L 207.053182 74.818933 
L 211.562273 74.712211 
L 216.071364 74.60549 
L 220.580455 74.498769 
L 225.089545 74.392048 
L 229.598636 74.285327 
L 234.107727 74.178606 
L 238.616818 74.071886 
L 243.125909 73.965165 
L 247.635 73.858445 
L 252.144091 73.751724 
L 256.653182 73.645004 
L 261.162273 73.538283 
L 265.671364 73.431563 
L 270.180455 73.324843 
L 274.689545 73.218123 
L 279.198636 73.111402 
L 283.707727 73.004682 
L 288.216818 72.897962 
L 292.725909 72.791242 
L 297.235 72.684522 
L 301.744091 72.577802 
L 306.253182 72.471082 
L 310.762273 72.364362 
L 315.271364 72.257642 
L 319.780455 72.150922 
L 324.289545 72.044202 
L 328.798636 71.937482 
L 333.307727 71.830762 
L 337.816818 71.724043 
L 342.325909 71.617323 
L 346.835 71.510603 
L 351.344091 71.403883 
L 355.853182 71.297163 
L 360.362273 71.190443 
L 364.871364 71.074514 
L 369.380455 70.953716 
L 373.889545 70.832672 
L 378.398636 70.711368 
L 382.907727 70.589791 
L 387.416818 70.467927 
L 391.925909 70.345759 
L 396.435 70.223269 
L 400.944091 70.100438 
L 405.453182 69.977245 
L 409.962273 69.853665 
L 414.471364 69.729673 
L 418.980455 69.60524 
L 423.489545 69.480332 
L 427.998636 69.354913 
L 432.507727 69.228941 
L 437.016818 69.102369 
L 441.525909 68.975142 
L 446.035 68.847199 
L 450.544091 68.718466 
L 455.053182 68.588859 
L 459.562273 68.458277 
L 464.071364 68.326599 
L 468.580455 68.19368 
L 473.089545 68.059339 
L 477.598636 67.923352 
L 482.107727 67.785432 
L 486.616818 67.645203 
L 491.125909 67.502162 
L 495.635 67.355602 
" clip-path="url(#p14b53ef1be)" style="fill: none; stroke: #7f7f7f; stroke-width: 1.5; stroke-linecap: square"/>
   </g>
   <g id="line2d_69">
    <path d="M 49.235 38.636055 
L 53.744091 38.523249 
L 58.253182 38.410897 
L 62.762273 38.298969 
L 67.271364 38.187433 
L 71.780455 38.076262 
L 76.289545 37.965428 
L 80.798636 37.854909 
L 85.307727 37.744681 
L 89.816818 37.634722 
L 94.325909 37.525013 
L 98.835 37.415536 
L 103.344091 37.306273 
L 107.853182 37.197209 
L 112.362273 37.088329 
L 116.871364 36.979618 
L 121.380455 36.871065 
L 125.889545 36.762658 
L 130.398636 36.654385 
L 134.907727 36.546236 
L 139.416818 36.438201 
L 143.925909 36.330273 
L 148.435 36.222443 
L 152.944091 36.114703 
L 157.453182 36.007046 
L 161.962273 35.899466 
L 166.471364 35.791957 
L 170.980455 35.684513 
L 175.489545 35.577129 
L 179.998636 35.4698 
L 184.507727 35.362523 
L 189.016818 35.255292 
L 193.525909 35.148105 
L 198.035 35.040957 
L 202.544091 34.933846 
L 207.053182 34.826768 
L 211.562273 34.719721 
L 216.071364 34.612702 
L 220.580455 34.50571 
L 225.089545 34.398741 
L 229.598636 34.291794 
L 234.107727 34.184867 
L 238.616818 34.077958 
L 243.125909 33.971066 
L 247.635 33.86419 
L 252.144091 33.757328 
L 256.653182 33.650478 
L 261.162273 33.543641 
L 265.671364 33.436814 
L 270.180455 33.329997 
L 274.689545 33.223189 
L 279.198636 33.116389 
L 283.707727 33.009597 
L 288.216818 32.902811 
L 292.725909 32.796032 
L 297.235 32.689258 
L 301.744091 32.58249 
L 306.253182 32.475726 
L 310.762273 32.368967 
L 315.271364 32.262211 
L 319.780455 32.155459 
L 324.289545 32.04871 
L 328.798636 31.941964 
L 333.307727 31.835221 
L 337.816818 31.72848 
L 342.325909 31.621741 
L 346.835 31.515005 
L 351.344091 31.40827 
L 355.853182 31.301536 
L 360.362273 31.194804 
L 364.871364 31.078866 
L 369.380455 30.958062 
L 373.889545 30.837012 
L 378.398636 30.715703 
L 382.907727 30.594123 
L 387.416818 30.472255 
L 391.925909 30.350085 
L 396.435 30.227594 
L 400.944091 30.104762 
L 405.453182 29.981568 
L 409.962273 29.857989 
L 414.471364 29.733997 
L 418.980455 29.609565 
L 423.489545 29.484658 
L 427.998636 29.359241 
L 432.507727 29.233271 
L 437.016818 29.106701 
L 441.525909 28.979478 
L 446.035 28.851538 
L 450.544091 28.722809 
L 455.053182 28.593205 
L 459.562273 28.462627 
L 464.071364 28.330954 
L 468.580455 28.198039 
L 473.089545 28.063704 
L 477.598636 27.927722 
L 482.107727 27.789808 
L 486.616818 27.649586 
L 491.125909 27.506552 
L 495.635 27.36 
" clip-path="url(#p14b53ef1be)" style="fill: none; stroke: #bcbd22; stroke-width: 1.5; stroke-linecap: square"/>
   </g>
   <g id="patch_3">
    <path d="M 49.235 450.72 
L 49.235 7.2 
" style="fill: none; stroke: #000000; stroke-width: 0.8; stroke-linejoin: miter; stroke-linecap: square"/>
   </g>
   <g id="patch_4">
    <path d="M 495.635 450.72 
L 495.635 7.2 
" style="fill: none; stroke: #000000; stroke-width: 0.8; stroke-linejoin: miter; stroke-linecap: square"/>
   </g>
   <g id="patch_5">
    <path d="M 49.235 450.72 
L 495.635 450.72 
" style="fill: none; stroke: #000000; stroke-width: 0.8; stroke-linejoin: miter; stroke-linecap: square"/>
   </g>
   <g id="patch_6">
    <path d="M 49.235 7.2 
L 495.635 7.2 
" style="fill: none; stroke: #000000; stroke-width: 0.8; stroke-linejoin: miter; stroke-linecap: square"/>
   </g>
   <g id="text_15">
    <!-- 0.1 GHz -->
    <g style="fill: #1f77b4" transform="translate(77.832712 440.737536) scale(0.1 -0.1)">
     <defs>
      <path id="DejaVuSans-2e" d="M 684 794 
L 1344 794 
L 1344 0 
L 684 0 
L 684 794 
z
" transform="scale(0.015625)"/>
      <path id="DejaVuSans-47" d="M 3809 666 
L 3809 1919 
L 2778 1919 
L 2778 2438 
L 4434 2438 
L 4434 434 
Q 4069 175 3628 42 
Q 3188 -91 2688 -91 
Q 1594 -91 976 548 
Q 359 1188 359 2328 
Q 359 3472 976 4111 
Q 1594 4750 2688 4750 
Q 3144 4750 3555 4637 
Q 3966 4525 4313 4306 
L 4313 3634 
Q 3963 3931 3569 4081 
Q 3175 4231 2741 4231 
Q 1884 4231 1454 3753 
Q 1025 3275 1025 2328 
Q 1025 1384 1454 906 
Q 1884 428 2741 428 
Q 3075 428 3337 486 
Q 3600 544 3809 666 
z
" transform="scale(0.015625)"/>
      <path id="DejaVuSans-48" d="M 628 4666 
L 1259 4666 
L 1259 2753 
L 3553 2753 
L 3553 4666 
L 4184 4666 
L 4184 0 
L 3553 0 
L 3553 2222 
L 1259 2222 
L 1259 0 
L 628 0 
L 628 4666 
z
" transform="scale(0.015625)"/>
      <path id="DejaVuSans-7a" d="M 353 3500 
L 3084 3500 
L 3084 2975 
L 922 459 
L 3084 459 
L 3084 0 
L 275 0 
L 275 525 
L 2438 3041 
L 353 3041 
L 353 3500 
z
" transform="scale(0.015625)"/>
     </defs>
     <use xlink:href="#DejaVuSans-30"/>
     <use xlink:href="#DejaVuSans-2e" x="63.623047"/>
     <use xlink:href="#DejaVuSans-31" x="95.410156"/>
     <use xlink:href="#DejaVuSans-20" x="159.033203"/>
     <use xlink:href="#DejaVuSans-47" x="190.820312"/>
     <use xlink:href="#DejaVuSans-48" x="268.310547"/>
     <use xlink:href="#DejaVuSans-7a" x="343.505859"/>
    </g>
   </g>
   <g id="text_16">
    <!-- 0.5 GHz -->
    <g style="fill: #ff7f0e" transform="translate(77.832712 348.795262) scale(0.1 -0.1)">
     <defs>
      <path id="DejaVuSans-35" d="M 691 4666 
L 3169 4666 
L 3169 4134 
L 1269 4134 
L 1269 2991 
Q 1406 3038 1543 3061 
Q 1681 3084 1819 3084 
Q 2600 3084 3056 2656 
Q 3513 2228 3513 1497 
Q 3513 744 3044 326 
Q 2575 -91 1722 -91 
Q 1428 -91 1123 -41 
Q 819 9 494 109 
L 494 744 
Q 775 591 1075 516 
Q 1375 441 1709 441 
Q 2250 441 2565 725 
Q 2881 1009 2881 1497 
Q 2881 1984 2565 2268 
Q 2250 2553 1709 2553 
Q 1456 2553 1204 2497 
Q 953 2441 691 2322 
L 691 4666 
z
" transform="scale(0.015625)"/>
     </defs>
     <use xlink:href="#DejaVuSans-30"/>
     <use xlink:href="#DejaVuSans-2e" x="63.623047"/>
     <use xlink:href="#DejaVuSans-35" x="95.410156"/>
     <use xlink:href="#DejaVuSans-20" x="159.033203"/>
     <use xlink:href="#DejaVuSans-47" x="190.820312"/>
     <use xlink:href="#DejaVuSans-48" x="268.310547"/>
     <use xlink:href="#DejaVuSans-7a" x="343.505859"/>
    </g>
   </g>
   <g id="text_17">
    <!-- 1.0 GHz -->
    <g style="fill: #2ca02c" transform="translate(77.832712 295.438433) scale(0.1 -0.1)">
     <use xlink:href="#DejaVuSans-31"/>
     <use xlink:href="#DejaVuSans-2e" x="63.623047"/>
     <use xlink:href="#DejaVuSans-30" x="95.410156"/>
     <use xlink:href="#DejaVuSans-20" x="159.033203"/>
     <use xlink:href="#DejaVuSans-47" x="190.820312"/>
     <use xlink:href="#DejaVuSans-48" x="268.310547"/>
     <use xlink:href="#DejaVuSans-7a" x="343.505859"/>
    </g>
   </g>
   <g id="text_18">
    <!-- 2.0 GHz -->
    <g style="fill: #d62728" transform="translate(77.832712 266.138774) scale(0.1 -0.1)">
     <use xlink:href="#DejaVuSans-32"/>
     <use xlink:href="#DejaVuSans-2e" x="63.623047"/>
     <use xlink:href="#DejaVuSans-30" x="95.410156"/>
     <use xlink:href="#DejaVuSans-20" x="159.033203"/>
     <use xlink:href="#DejaVuSans-47" x="190.820312"/>
     <use xlink:href="#DejaVuSans-48" x="268.310547"/>
     <use xlink:href="#DejaVuSans-7a" x="343.505859"/>
    </g>
   </g>
   <g id="text_19">
    <!-- 5.0 GHz -->
    <g style="fill: #9467bd" transform="translate(77.832712 227.468353) scale(0.1 -0.1)">
     <use xlink:href="#DejaVuSans-35"/>
     <use xlink:href="#DejaVuSans-2e" x="63.623047"/>
     <use xlink:href="#DejaVuSans-30" x="95.410156"/>
     <use xlink:href="#DejaVuSans-20" x="159.033203"/>
     <use xlink:href="#DejaVuSans-47" x="190.820312"/>
     <use xlink:href="#DejaVuSans-48" x="268.310547"/>
     <use xlink:href="#DejaVuSans-7a" x="343.505859"/>
    </g>
   </g>
   <g id="text_20">
    <!-- 10.0 GHz -->
    <g style="fill: #8c564b" transform="translate(77.832712 197.744427) scale(0.1 -0.1)">
     <use xlink:href="#DejaVuSans-31"/>
     <use xlink:href="#DejaVuSans-30" x="63.623047"/>
     <use xlink:href="#DejaVuSans-2e" x="127.246094"/>
     <use xlink:href="#DejaVuSans-30" x="159.033203"/>
     <use xlink:href="#DejaVuSans-20" x="222.65625"/>
     <use xlink:href="#DejaVuSans-47" x="254.443359"/>
     <use xlink:href="#DejaVuSans-48" x="331.933594"/>
     <use xlink:href="#DejaVuSans-7a" x="407.128906"/>
    </g>
   </g>
   <g id="text_21">
    <!-- 20.0 GHz -->
    <g style="fill: #e377c2" transform="translate(77.832712 157.95902) scale(0.1 -0.1)">
     <use xlink:href="#DejaVuSans-32"/>
     <use xlink:href="#DejaVuSans-30" x="63.623047"/>
     <use xlink:href="#DejaVuSans-2e" x="127.246094"/>
     <use xlink:href="#DejaVuSans-30" x="159.033203"/>
     <use xlink:href="#DejaVuSans-20" x="222.65625"/>
     <use xlink:href="#DejaVuSans-47" x="254.443359"/>
     <use xlink:href="#DejaVuSans-48" x="331.933594"/>
     <use xlink:href="#DejaVuSans-7a" x="407.128906"/>
    </g>
   </g>
   <g id="text_22">
    <!-- 50.0 GHz -->
    <g style="fill: #7f7f7f" transform="translate(77.832712 88.731878) scale(0.1 -0.1)">
     <use xlink:href="#DejaVuSans-35"/>
     <use xlink:href="#DejaVuSans-30" x="63.623047"/>
     <use xlink:href="#DejaVuSans-2e" x="127.246094"/>
     <use xlink:href="#DejaVuSans-30" x="159.033203"/>
     <use xlink:href="#DejaVuSans-20" x="222.65625"/>
     <use xlink:href="#DejaVuSans-47" x="254.443359"/>
     <use xlink:href="#DejaVuSans-48" x="331.933594"/>
     <use xlink:href="#DejaVuSans-7a" x="407.128906"/>
    </g>
   </g>
   <g id="text_23">
    <!-- 100.0 GHz -->
    <g style="fill: #bcbd22" transform="translate(77.832712 48.783283) scale(0.1 -0.1)">
     <use xlink:href="#DejaVuSans-31"/>
     <use xlink:href="#DejaVuSans-30" x="63.623047"/>
     <use xlink:href="#DejaVuSans-30" x="127.246094"/>
     <use xlink:href="#DejaVuSans-2e" x="190.869141"/>
     <use xlink:href="#DejaVuSans-30" x="222.65625"/>
     <use xlink:href="#DejaVuSans-20" x="286.279297"/>
     <use xlink:href="#DejaVuSans-47" x="318.066406"/>
     <use xlink:href="#DejaVuSans-48" x="395.556641"/>
     <use xlink:href="#DejaVuSans-7a" x="470.751953"/>
    </g>
   </g>
  </g>
 </g>
 <defs>
  <clipPath id="p14b53ef1be">
   <rect x="49.235" y="7.2" width="446.4" height="443.52"/>
  </clipPath>
 </defs>
</svg>
