<?xml version="1.0" encoding="utf-8" standalone="no"?>
<!DOCTYPE svg PUBLIC "-//W3C//DTD SVG 1.1//EN"
  "http://www.w3.org/Graphics/SVG/1.1/DTD/svg11.dtd">
<!-- Created with matplotlib (http://matplotlib.org/) -->
<svg height="327pt" version="1.1" viewBox="0 0 619 327" width="619pt" xmlns="http://www.w3.org/2000/svg" xmlns:xlink="http://www.w3.org/1999/xlink">
 <defs>
  <style type="text/css">
*{stroke-linecap:butt;stroke-linejoin:round;}
  </style>
 </defs>
 <g id="figure_1">
  <g id="patch_1">
   <path d="M 0 327.15025 
L 619.2415 327.15025 
L 619.2415 0 
L 0 0 
z
" style="fill:none;"/>
  </g>
  <g id="axes_1">
   <g id="patch_2">
    <path d="M 54.0415 284.4 
L 612.0415 284.4 
L 612.0415 7.2 
L 54.0415 7.2 
z
" style="fill:#ffffff;"/>
   </g>
   <g id="matplotlib.axis_1">
    <g id="xtick_1">
     <g id="line2d_1">
      <path clip-path="url(#p38cd6dbbe3)" d="M 79.405136 284.4 
L 79.405136 7.2 
" style="fill:none;stroke:#b0b0b0;stroke-linecap:square;stroke-width:0.8;"/>
     </g>
     <g id="line2d_2"/>
     <g id="text_1">
      <!-- 0 -->
      <defs>
       <path d="M 31.78125 66.40625 
Q 24.171875 66.40625 20.328125 58.90625 
Q 16.5 51.421875 16.5 36.375 
Q 16.5 21.390625 20.328125 13.890625 
Q 24.171875 6.390625 31.78125 6.390625 
Q 39.453125 6.390625 43.28125 13.890625 
Q 47.125 21.390625 47.125 36.375 
Q 47.125 51.421875 43.28125 58.90625 
Q 39.453125 66.40625 31.78125 66.40625 
z
M 31.78125 74.21875 
Q 44.046875 74.21875 50.515625 64.515625 
Q 56.984375 54.828125 56.984375 36.375 
Q 56.984375 17.96875 50.515625 8.265625 
Q 44.046875 -1.421875 31.78125 -1.421875 
Q 19.53125 -1.421875 13.0625 8.265625 
Q 6.59375 17.96875 6.59375 36.375 
Q 6.59375 54.828125 13.0625 64.515625 
Q 19.53125 74.21875 31.78125 74.21875 
z
" id="DejaVuSans-30"/>
      </defs>
      <g style="fill:#565656;" transform="translate(75.587636 299.518125)scale(0.12 -0.12)">
       <use xlink:href="#DejaVuSans-30"/>
      </g>
     </g>
    </g>
    <g id="xtick_2">
     <g id="line2d_3">
      <path clip-path="url(#p38cd6dbbe3)" d="M 153.567816 284.4 
L 153.567816 7.2 
" style="fill:none;stroke:#b0b0b0;stroke-linecap:square;stroke-width:0.8;"/>
     </g>
     <g id="line2d_4"/>
     <g id="text_2">
      <!-- 5 -->
      <defs>
       <path d="M 10.796875 72.90625 
L 49.515625 72.90625 
L 49.515625 64.59375 
L 19.828125 64.59375 
L 19.828125 46.734375 
Q 21.96875 47.46875 24.109375 47.828125 
Q 26.265625 48.1875 28.421875 48.1875 
Q 40.625 48.1875 47.75 41.5 
Q 54.890625 34.8125 54.890625 23.390625 
Q 54.890625 11.625 47.5625 5.09375 
Q 40.234375 -1.421875 26.90625 -1.421875 
Q 22.3125 -1.421875 17.546875 -0.640625 
Q 12.796875 0.140625 7.71875 1.703125 
L 7.71875 11.625 
Q 12.109375 9.234375 16.796875 8.0625 
Q 21.484375 6.890625 26.703125 6.890625 
Q 35.15625 6.890625 40.078125 11.328125 
Q 45.015625 15.765625 45.015625 23.390625 
Q 45.015625 31 40.078125 35.4375 
Q 35.15625 39.890625 26.703125 39.890625 
Q 22.75 39.890625 18.8125 39.015625 
Q 14.890625 38.140625 10.796875 36.28125 
z
" id="DejaVuSans-35"/>
      </defs>
      <g style="fill:#565656;" transform="translate(149.750316 299.518125)scale(0.12 -0.12)">
       <use xlink:href="#DejaVuSans-35"/>
      </g>
     </g>
    </g>
    <g id="xtick_3">
     <g id="line2d_5">
      <path clip-path="url(#p38cd6dbbe3)" d="M 227.730495 284.4 
L 227.730495 7.2 
" style="fill:none;stroke:#b0b0b0;stroke-linecap:square;stroke-width:0.8;"/>
     </g>
     <g id="line2d_6"/>
     <g id="text_3">
      <!-- 10 -->
      <defs>
       <path d="M 12.40625 8.296875 
L 28.515625 8.296875 
L 28.515625 63.921875 
L 10.984375 60.40625 
L 10.984375 69.390625 
L 28.421875 72.90625 
L 38.28125 72.90625 
L 38.28125 8.296875 
L 54.390625 8.296875 
L 54.390625 0 
L 12.40625 0 
z
" id="DejaVuSans-31"/>
      </defs>
      <g style="fill:#565656;" transform="translate(220.095495 299.518125)scale(0.12 -0.12)">
       <use xlink:href="#DejaVuSans-31"/>
       <use x="63.623047" xlink:href="#DejaVuSans-30"/>
      </g>
     </g>
    </g>
    <g id="xtick_4">
     <g id="line2d_7">
      <path clip-path="url(#p38cd6dbbe3)" d="M 301.893175 284.4 
L 301.893175 7.2 
" style="fill:none;stroke:#b0b0b0;stroke-linecap:square;stroke-width:0.8;"/>
     </g>
     <g id="line2d_8"/>
     <g id="text_4">
      <!-- 15 -->
      <g style="fill:#565656;" transform="translate(294.258175 299.518125)scale(0.12 -0.12)">
       <use xlink:href="#DejaVuSans-31"/>
       <use x="63.623047" xlink:href="#DejaVuSans-35"/>
      </g>
     </g>
    </g>
    <g id="xtick_5">
     <g id="line2d_9">
      <path clip-path="url(#p38cd6dbbe3)" d="M 376.055854 284.4 
L 376.055854 7.2 
" style="fill:none;stroke:#b0b0b0;stroke-linecap:square;stroke-width:0.8;"/>
     </g>
     <g id="line2d_10"/>
     <g id="text_5">
      <!-- 20 -->
      <defs>
       <path d="M 19.1875 8.296875 
L 53.609375 8.296875 
L 53.609375 0 
L 7.328125 0 
L 7.328125 8.296875 
Q 12.9375 14.109375 22.625 23.890625 
Q 32.328125 33.6875 34.8125 36.53125 
Q 39.546875 41.84375 41.421875 45.53125 
Q 43.3125 49.21875 43.3125 52.78125 
Q 43.3125 58.59375 39.234375 62.25 
Q 35.15625 65.921875 28.609375 65.921875 
Q 23.96875 65.921875 18.8125 64.3125 
Q 13.671875 62.703125 7.8125 59.421875 
L 7.8125 69.390625 
Q 13.765625 71.78125 18.9375 73 
Q 24.125 74.21875 28.421875 74.21875 
Q 39.75 74.21875 46.484375 68.546875 
Q 53.21875 62.890625 53.21875 53.421875 
Q 53.21875 48.921875 51.53125 44.890625 
Q 49.859375 40.875 45.40625 35.40625 
Q 44.1875 33.984375 37.640625 27.21875 
Q 31.109375 20.453125 19.1875 8.296875 
z
" id="DejaVuSans-32"/>
      </defs>
      <g style="fill:#565656;" transform="translate(368.420854 299.518125)scale(0.12 -0.12)">
       <use xlink:href="#DejaVuSans-32"/>
       <use x="63.623047" xlink:href="#DejaVuSans-30"/>
      </g>
     </g>
    </g>
    <g id="xtick_6">
     <g id="line2d_11">
      <path clip-path="url(#p38cd6dbbe3)" d="M 450.218533 284.4 
L 450.218533 7.2 
" style="fill:none;stroke:#b0b0b0;stroke-linecap:square;stroke-width:0.8;"/>
     </g>
     <g id="line2d_12"/>
     <g id="text_6">
      <!-- 25 -->
      <g style="fill:#565656;" transform="translate(442.583533 299.518125)scale(0.12 -0.12)">
       <use xlink:href="#DejaVuSans-32"/>
       <use x="63.623047" xlink:href="#DejaVuSans-35"/>
      </g>
     </g>
    </g>
    <g id="xtick_7">
     <g id="line2d_13">
      <path clip-path="url(#p38cd6dbbe3)" d="M 524.381213 284.4 
L 524.381213 7.2 
" style="fill:none;stroke:#b0b0b0;stroke-linecap:square;stroke-width:0.8;"/>
     </g>
     <g id="line2d_14"/>
     <g id="text_7">
      <!-- 30 -->
      <defs>
       <path d="M 40.578125 39.3125 
Q 47.65625 37.796875 51.625 33 
Q 55.609375 28.21875 55.609375 21.1875 
Q 55.609375 10.40625 48.1875 4.484375 
Q 40.765625 -1.421875 27.09375 -1.421875 
Q 22.515625 -1.421875 17.65625 -0.515625 
Q 12.796875 0.390625 7.625 2.203125 
L 7.625 11.71875 
Q 11.71875 9.328125 16.59375 8.109375 
Q 21.484375 6.890625 26.8125 6.890625 
Q 36.078125 6.890625 40.9375 10.546875 
Q 45.796875 14.203125 45.796875 21.1875 
Q 45.796875 27.640625 41.28125 31.265625 
Q 36.765625 34.90625 28.71875 34.90625 
L 20.21875 34.90625 
L 20.21875 43.015625 
L 29.109375 43.015625 
Q 36.375 43.015625 40.234375 45.921875 
Q 44.09375 48.828125 44.09375 54.296875 
Q 44.09375 59.90625 40.109375 62.90625 
Q 36.140625 65.921875 28.71875 65.921875 
Q 24.65625 65.921875 20.015625 65.03125 
Q 15.375 64.15625 9.8125 62.3125 
L 9.8125 71.09375 
Q 15.4375 72.65625 20.34375 73.4375 
Q 25.25 74.21875 29.59375 74.21875 
Q 40.828125 74.21875 47.359375 69.109375 
Q 53.90625 64.015625 53.90625 55.328125 
Q 53.90625 49.265625 50.4375 45.09375 
Q 46.96875 40.921875 40.578125 39.3125 
z
" id="DejaVuSans-33"/>
      </defs>
      <g style="fill:#565656;" transform="translate(516.746213 299.518125)scale(0.12 -0.12)">
       <use xlink:href="#DejaVuSans-33"/>
       <use x="63.623047" xlink:href="#DejaVuSans-30"/>
      </g>
     </g>
    </g>
    <g id="xtick_8">
     <g id="line2d_15">
      <path clip-path="url(#p38cd6dbbe3)" d="M 598.543892 284.4 
L 598.543892 7.2 
" style="fill:none;stroke:#b0b0b0;stroke-linecap:square;stroke-width:0.8;"/>
     </g>
     <g id="line2d_16"/>
     <g id="text_8">
      <!-- 35 -->
      <g style="fill:#565656;" transform="translate(590.908892 299.518125)scale(0.12 -0.12)">
       <use xlink:href="#DejaVuSans-33"/>
       <use x="63.623047" xlink:href="#DejaVuSans-35"/>
      </g>
     </g>
    </g>
    <g id="text_9">
     <!-- Distance [km] -->
     <defs>
      <path d="M 19.671875 64.796875 
L 19.671875 8.109375 
L 31.59375 8.109375 
Q 46.6875 8.109375 53.6875 14.9375 
Q 60.6875 21.78125 60.6875 36.53125 
Q 60.6875 51.171875 53.6875 57.984375 
Q 46.6875 64.796875 31.59375 64.796875 
z
M 9.8125 72.90625 
L 30.078125 72.90625 
Q 51.265625 72.90625 61.171875 64.09375 
Q 71.09375 55.28125 71.09375 36.53125 
Q 71.09375 17.671875 61.125 8.828125 
Q 51.171875 0 30.078125 0 
L 9.8125 0 
z
" id="DejaVuSans-44"/>
      <path d="M 9.421875 54.6875 
L 18.40625 54.6875 
L 18.40625 0 
L 9.421875 0 
z
M 9.421875 75.984375 
L 18.40625 75.984375 
L 18.40625 64.59375 
L 9.421875 64.59375 
z
" id="DejaVuSans-69"/>
      <path d="M 44.28125 53.078125 
L 44.28125 44.578125 
Q 40.484375 46.53125 36.375 47.5 
Q 32.28125 48.484375 27.875 48.484375 
Q 21.1875 48.484375 17.84375 46.4375 
Q 14.5 44.390625 14.5 40.28125 
Q 14.5 37.15625 16.890625 35.375 
Q 19.28125 33.59375 26.515625 31.984375 
L 29.59375 31.296875 
Q 39.15625 29.25 43.1875 25.515625 
Q 47.21875 21.78125 47.21875 15.09375 
Q 47.21875 7.46875 41.1875 3.015625 
Q 35.15625 -1.421875 24.609375 -1.421875 
Q 20.21875 -1.421875 15.453125 -0.5625 
Q 10.6875 0.296875 5.421875 2 
L 5.421875 11.28125 
Q 10.40625 8.6875 15.234375 7.390625 
Q 20.0625 6.109375 24.8125 6.109375 
Q 31.15625 6.109375 34.5625 8.28125 
Q 37.984375 10.453125 37.984375 14.40625 
Q 37.984375 18.0625 35.515625 20.015625 
Q 33.0625 21.96875 24.703125 23.78125 
L 21.578125 24.515625 
Q 13.234375 26.265625 9.515625 29.90625 
Q 5.8125 33.546875 5.8125 39.890625 
Q 5.8125 47.609375 11.28125 51.796875 
Q 16.75 56 26.8125 56 
Q 31.78125 56 36.171875 55.265625 
Q 40.578125 54.546875 44.28125 53.078125 
z
" id="DejaVuSans-73"/>
      <path d="M 18.3125 70.21875 
L 18.3125 54.6875 
L 36.8125 54.6875 
L 36.8125 47.703125 
L 18.3125 47.703125 
L 18.3125 18.015625 
Q 18.3125 11.328125 20.140625 9.421875 
Q 21.96875 7.515625 27.59375 7.515625 
L 36.8125 7.515625 
L 36.8125 0 
L 27.59375 0 
Q 17.1875 0 13.234375 3.875 
Q 9.28125 7.765625 9.28125 18.015625 
L 9.28125 47.703125 
L 2.6875 47.703125 
L 2.6875 54.6875 
L 9.28125 54.6875 
L 9.28125 70.21875 
z
" id="DejaVuSans-74"/>
      <path d="M 34.28125 27.484375 
Q 23.390625 27.484375 19.1875 25 
Q 14.984375 22.515625 14.984375 16.5 
Q 14.984375 11.71875 18.140625 8.90625 
Q 21.296875 6.109375 26.703125 6.109375 
Q 34.1875 6.109375 38.703125 11.40625 
Q 43.21875 16.703125 43.21875 25.484375 
L 43.21875 27.484375 
z
M 52.203125 31.203125 
L 52.203125 0 
L 43.21875 0 
L 43.21875 8.296875 
Q 40.140625 3.328125 35.546875 0.953125 
Q 30.953125 -1.421875 24.3125 -1.421875 
Q 15.921875 -1.421875 10.953125 3.296875 
Q 6 8.015625 6 15.921875 
Q 6 25.140625 12.171875 29.828125 
Q 18.359375 34.515625 30.609375 34.515625 
L 43.21875 34.515625 
L 43.21875 35.40625 
Q 43.21875 41.609375 39.140625 45 
Q 35.0625 48.390625 27.6875 48.390625 
Q 23 48.390625 18.546875 47.265625 
Q 14.109375 46.140625 10.015625 43.890625 
L 10.015625 52.203125 
Q 14.9375 54.109375 19.578125 55.046875 
Q 24.21875 56 28.609375 56 
Q 40.484375 56 46.34375 49.84375 
Q 52.203125 43.703125 52.203125 31.203125 
z
" id="DejaVuSans-61"/>
      <path d="M 54.890625 33.015625 
L 54.890625 0 
L 45.90625 0 
L 45.90625 32.71875 
Q 45.90625 40.484375 42.875 44.328125 
Q 39.84375 48.1875 33.796875 48.1875 
Q 26.515625 48.1875 22.3125 43.546875 
Q 18.109375 38.921875 18.109375 30.90625 
L 18.109375 0 
L 9.078125 0 
L 9.078125 54.6875 
L 18.109375 54.6875 
L 18.109375 46.1875 
Q 21.34375 51.125 25.703125 53.5625 
Q 30.078125 56 35.796875 56 
Q 45.21875 56 50.046875 50.171875 
Q 54.890625 44.34375 54.890625 33.015625 
z
" id="DejaVuSans-6e"/>
      <path d="M 48.78125 52.59375 
L 48.78125 44.1875 
Q 44.96875 46.296875 41.140625 47.34375 
Q 37.3125 48.390625 33.40625 48.390625 
Q 24.65625 48.390625 19.8125 42.84375 
Q 14.984375 37.3125 14.984375 27.296875 
Q 14.984375 17.28125 19.8125 11.734375 
Q 24.65625 6.203125 33.40625 6.203125 
Q 37.3125 6.203125 41.140625 7.25 
Q 44.96875 8.296875 48.78125 10.40625 
L 48.78125 2.09375 
Q 45.015625 0.34375 40.984375 -0.53125 
Q 36.96875 -1.421875 32.421875 -1.421875 
Q 20.0625 -1.421875 12.78125 6.34375 
Q 5.515625 14.109375 5.515625 27.296875 
Q 5.515625 40.671875 12.859375 48.328125 
Q 20.21875 56 33.015625 56 
Q 37.15625 56 41.109375 55.140625 
Q 45.0625 54.296875 48.78125 52.59375 
z
" id="DejaVuSans-63"/>
      <path d="M 56.203125 29.59375 
L 56.203125 25.203125 
L 14.890625 25.203125 
Q 15.484375 15.921875 20.484375 11.0625 
Q 25.484375 6.203125 34.421875 6.203125 
Q 39.59375 6.203125 44.453125 7.46875 
Q 49.3125 8.734375 54.109375 11.28125 
L 54.109375 2.78125 
Q 49.265625 0.734375 44.1875 -0.34375 
Q 39.109375 -1.421875 33.890625 -1.421875 
Q 20.796875 -1.421875 13.15625 6.1875 
Q 5.515625 13.8125 5.515625 26.8125 
Q 5.515625 40.234375 12.765625 48.109375 
Q 20.015625 56 32.328125 56 
Q 43.359375 56 49.78125 48.890625 
Q 56.203125 41.796875 56.203125 29.59375 
z
M 47.21875 32.234375 
Q 47.125 39.59375 43.09375 43.984375 
Q 39.0625 48.390625 32.421875 48.390625 
Q 24.90625 48.390625 20.390625 44.140625 
Q 15.875 39.890625 15.1875 32.171875 
z
" id="DejaVuSans-65"/>
      <path id="DejaVuSans-20"/>
      <path d="M 8.59375 75.984375 
L 29.296875 75.984375 
L 29.296875 69 
L 17.578125 69 
L 17.578125 -6.203125 
L 29.296875 -6.203125 
L 29.296875 -13.1875 
L 8.59375 -13.1875 
z
" id="DejaVuSans-5b"/>
      <path d="M 9.078125 75.984375 
L 18.109375 75.984375 
L 18.109375 31.109375 
L 44.921875 54.6875 
L 56.390625 54.6875 
L 27.390625 29.109375 
L 57.625 0 
L 45.90625 0 
L 18.109375 26.703125 
L 18.109375 0 
L 9.078125 0 
z
" id="DejaVuSans-6b"/>
      <path d="M 52 44.1875 
Q 55.375 50.25 60.0625 53.125 
Q 64.75 56 71.09375 56 
Q 79.640625 56 84.28125 50.015625 
Q 88.921875 44.046875 88.921875 33.015625 
L 88.921875 0 
L 79.890625 0 
L 79.890625 32.71875 
Q 79.890625 40.578125 77.09375 44.375 
Q 74.3125 48.1875 68.609375 48.1875 
Q 61.625 48.1875 57.5625 43.546875 
Q 53.515625 38.921875 53.515625 30.90625 
L 53.515625 0 
L 44.484375 0 
L 44.484375 32.71875 
Q 44.484375 40.625 41.703125 44.40625 
Q 38.921875 48.1875 33.109375 48.1875 
Q 26.21875 48.1875 22.15625 43.53125 
Q 18.109375 38.875 18.109375 30.90625 
L 18.109375 0 
L 9.078125 0 
L 9.078125 54.6875 
L 18.109375 54.6875 
L 18.109375 46.1875 
Q 21.1875 51.21875 25.484375 53.609375 
Q 29.78125 56 35.6875 56 
Q 41.65625 56 45.828125 52.96875 
Q 50 49.953125 52 44.1875 
z
" id="DejaVuSans-6d"/>
      <path d="M 30.421875 75.984375 
L 30.421875 -13.1875 
L 9.71875 -13.1875 
L 9.71875 -6.203125 
L 21.390625 -6.203125 
L 21.390625 69 
L 9.71875 69 
L 9.71875 75.984375 
z
" id="DejaVuSans-5d"/>
     </defs>
     <g transform="translate(282.4705 316.9555)scale(0.144 -0.144)">
      <use xlink:href="#DejaVuSans-44"/>
      <use x="77.001953" xlink:href="#DejaVuSans-69"/>
      <use x="104.785156" xlink:href="#DejaVuSans-73"/>
      <use x="156.884766" xlink:href="#DejaVuSans-74"/>
      <use x="196.09375" xlink:href="#DejaVuSans-61"/>
      <use x="257.373047" xlink:href="#DejaVuSans-6e"/>
      <use x="320.751953" xlink:href="#DejaVuSans-63"/>
      <use x="375.732422" xlink:href="#DejaVuSans-65"/>
      <use x="437.255859" xlink:href="#DejaVuSans-20"/>
      <use x="469.042969" xlink:href="#DejaVuSans-5b"/>
      <use x="508.056641" xlink:href="#DejaVuSans-6b"/>
      <use x="565.966797" xlink:href="#DejaVuSans-6d"/>
      <use x="663.378906" xlink:href="#DejaVuSans-5d"/>
     </g>
    </g>
   </g>
   <g id="matplotlib.axis_2">
    <g id="ytick_1">
     <g id="line2d_17">
      <path clip-path="url(#p38cd6dbbe3)" d="M 54.0415 274.520183 
L 612.0415 274.520183 
" style="fill:none;stroke:#b0b0b0;stroke-linecap:square;stroke-width:0.8;"/>
     </g>
     <g id="line2d_18"/>
     <g id="text_10">
      <!-- 50 -->
      <g style="fill:#565656;" transform="translate(32.7715 279.079246)scale(0.12 -0.12)">
       <use xlink:href="#DejaVuSans-35"/>
       <use x="63.623047" xlink:href="#DejaVuSans-30"/>
      </g>
     </g>
    </g>
    <g id="ytick_2">
     <g id="line2d_19">
      <path clip-path="url(#p38cd6dbbe3)" d="M 54.0415 240.752668 
L 612.0415 240.752668 
" style="fill:none;stroke:#b0b0b0;stroke-linecap:square;stroke-width:0.8;"/>
     </g>
     <g id="line2d_20"/>
     <g id="text_11">
      <!-- 100 -->
      <g style="fill:#565656;" transform="translate(25.1365 245.31173)scale(0.12 -0.12)">
       <use xlink:href="#DejaVuSans-31"/>
       <use x="63.623047" xlink:href="#DejaVuSans-30"/>
       <use x="127.246094" xlink:href="#DejaVuSans-30"/>
      </g>
     </g>
    </g>
    <g id="ytick_3">
     <g id="line2d_21">
      <path clip-path="url(#p38cd6dbbe3)" d="M 54.0415 206.985153 
L 612.0415 206.985153 
" style="fill:none;stroke:#b0b0b0;stroke-linecap:square;stroke-width:0.8;"/>
     </g>
     <g id="line2d_22"/>
     <g id="text_12">
      <!-- 150 -->
      <g style="fill:#565656;" transform="translate(25.1365 211.544215)scale(0.12 -0.12)">
       <use xlink:href="#DejaVuSans-31"/>
       <use x="63.623047" xlink:href="#DejaVuSans-35"/>
       <use x="127.246094" xlink:href="#DejaVuSans-30"/>
      </g>
     </g>
    </g>
    <g id="ytick_4">
     <g id="line2d_23">
      <path clip-path="url(#p38cd6dbbe3)" d="M 54.0415 173.217637 
L 612.0415 173.217637 
" style="fill:none;stroke:#b0b0b0;stroke-linecap:square;stroke-width:0.8;"/>
     </g>
     <g id="line2d_24"/>
     <g id="text_13">
      <!-- 200 -->
      <g style="fill:#565656;" transform="translate(25.1365 177.7767)scale(0.12 -0.12)">
       <use xlink:href="#DejaVuSans-32"/>
       <use x="63.623047" xlink:href="#DejaVuSans-30"/>
       <use x="127.246094" xlink:href="#DejaVuSans-30"/>
      </g>
     </g>
    </g>
    <g id="ytick_5">
     <g id="line2d_25">
      <path clip-path="url(#p38cd6dbbe3)" d="M 54.0415 139.450122 
L 612.0415 139.450122 
" style="fill:none;stroke:#b0b0b0;stroke-linecap:square;stroke-width:0.8;"/>
     </g>
     <g id="line2d_26"/>
     <g id="text_14">
      <!-- 250 -->
      <g style="fill:#565656;" transform="translate(25.1365 144.009184)scale(0.12 -0.12)">
       <use xlink:href="#DejaVuSans-32"/>
       <use x="63.623047" xlink:href="#DejaVuSans-35"/>
       <use x="127.246094" xlink:href="#DejaVuSans-30"/>
      </g>
     </g>
    </g>
    <g id="ytick_6">
     <g id="line2d_27">
      <path clip-path="url(#p38cd6dbbe3)" d="M 54.0415 105.682606 
L 612.0415 105.682606 
" style="fill:none;stroke:#b0b0b0;stroke-linecap:square;stroke-width:0.8;"/>
     </g>
     <g id="line2d_28"/>
     <g id="text_15">
      <!-- 300 -->
      <g style="fill:#565656;" transform="translate(25.1365 110.241669)scale(0.12 -0.12)">
       <use xlink:href="#DejaVuSans-33"/>
       <use x="63.623047" xlink:href="#DejaVuSans-30"/>
       <use x="127.246094" xlink:href="#DejaVuSans-30"/>
      </g>
     </g>
    </g>
    <g id="ytick_7">
     <g id="line2d_29">
      <path clip-path="url(#p38cd6dbbe3)" d="M 54.0415 71.915091 
L 612.0415 71.915091 
" style="fill:none;stroke:#b0b0b0;stroke-linecap:square;stroke-width:0.8;"/>
     </g>
     <g id="line2d_30"/>
     <g id="text_16">
      <!-- 350 -->
      <g style="fill:#565656;" transform="translate(25.1365 76.474153)scale(0.12 -0.12)">
       <use xlink:href="#DejaVuSans-33"/>
       <use x="63.623047" xlink:href="#DejaVuSans-35"/>
       <use x="127.246094" xlink:href="#DejaVuSans-30"/>
      </g>
     </g>
    </g>
    <g id="ytick_8">
     <g id="line2d_31">
      <path clip-path="url(#p38cd6dbbe3)" d="M 54.0415 38.147575 
L 612.0415 38.147575 
" style="fill:none;stroke:#b0b0b0;stroke-linecap:square;stroke-width:0.8;"/>
     </g>
     <g id="line2d_32"/>
     <g id="text_17">
      <!-- 400 -->
      <defs>
       <path d="M 37.796875 64.3125 
L 12.890625 25.390625 
L 37.796875 25.390625 
z
M 35.203125 72.90625 
L 47.609375 72.90625 
L 47.609375 25.390625 
L 58.015625 25.390625 
L 58.015625 17.1875 
L 47.609375 17.1875 
L 47.609375 0 
L 37.796875 0 
L 37.796875 17.1875 
L 4.890625 17.1875 
L 4.890625 26.703125 
z
" id="DejaVuSans-34"/>
      </defs>
      <g style="fill:#565656;" transform="translate(25.1365 42.706638)scale(0.12 -0.12)">
       <use xlink:href="#DejaVuSans-34"/>
       <use x="63.623047" xlink:href="#DejaVuSans-30"/>
       <use x="127.246094" xlink:href="#DejaVuSans-30"/>
      </g>
     </g>
    </g>
    <g id="text_18">
     <!-- Height [m] -->
     <defs>
      <path d="M 9.8125 72.90625 
L 19.671875 72.90625 
L 19.671875 43.015625 
L 55.515625 43.015625 
L 55.515625 72.90625 
L 65.375 72.90625 
L 65.375 0 
L 55.515625 0 
L 55.515625 34.71875 
L 19.671875 34.71875 
L 19.671875 0 
L 9.8125 0 
z
" id="DejaVuSans-48"/>
      <path d="M 45.40625 27.984375 
Q 45.40625 37.75 41.375 43.109375 
Q 37.359375 48.484375 30.078125 48.484375 
Q 22.859375 48.484375 18.828125 43.109375 
Q 14.796875 37.75 14.796875 27.984375 
Q 14.796875 18.265625 18.828125 12.890625 
Q 22.859375 7.515625 30.078125 7.515625 
Q 37.359375 7.515625 41.375 12.890625 
Q 45.40625 18.265625 45.40625 27.984375 
z
M 54.390625 6.78125 
Q 54.390625 -7.171875 48.1875 -13.984375 
Q 42 -20.796875 29.203125 -20.796875 
Q 24.46875 -20.796875 20.265625 -20.09375 
Q 16.0625 -19.390625 12.109375 -17.921875 
L 12.109375 -9.1875 
Q 16.0625 -11.328125 19.921875 -12.34375 
Q 23.78125 -13.375 27.78125 -13.375 
Q 36.625 -13.375 41.015625 -8.765625 
Q 45.40625 -4.15625 45.40625 5.171875 
L 45.40625 9.625 
Q 42.625 4.78125 38.28125 2.390625 
Q 33.9375 0 27.875 0 
Q 17.828125 0 11.671875 7.65625 
Q 5.515625 15.328125 5.515625 27.984375 
Q 5.515625 40.671875 11.671875 48.328125 
Q 17.828125 56 27.875 56 
Q 33.9375 56 38.28125 53.609375 
Q 42.625 51.21875 45.40625 46.390625 
L 45.40625 54.6875 
L 54.390625 54.6875 
z
" id="DejaVuSans-67"/>
      <path d="M 54.890625 33.015625 
L 54.890625 0 
L 45.90625 0 
L 45.90625 32.71875 
Q 45.90625 40.484375 42.875 44.328125 
Q 39.84375 48.1875 33.796875 48.1875 
Q 26.515625 48.1875 22.3125 43.546875 
Q 18.109375 38.921875 18.109375 30.90625 
L 18.109375 0 
L 9.078125 0 
L 9.078125 75.984375 
L 18.109375 75.984375 
L 18.109375 46.1875 
Q 21.34375 51.125 25.703125 53.5625 
Q 30.078125 56 35.796875 56 
Q 45.21875 56 50.046875 50.171875 
Q 54.890625 44.34375 54.890625 33.015625 
z
" id="DejaVuSans-68"/>
     </defs>
     <g transform="translate(18.14175 184.521375)rotate(-90)scale(0.144 -0.144)">
      <use xlink:href="#DejaVuSans-48"/>
      <use x="75.195312" xlink:href="#DejaVuSans-65"/>
      <use x="136.71875" xlink:href="#DejaVuSans-69"/>
      <use x="164.501953" xlink:href="#DejaVuSans-67"/>
      <use x="227.978516" xlink:href="#DejaVuSans-68"/>
      <use x="291.357422" xlink:href="#DejaVuSans-74"/>
      <use x="330.566406" xlink:href="#DejaVuSans-20"/>
      <use x="362.353516" xlink:href="#DejaVuSans-5b"/>
      <use x="401.367188" xlink:href="#DejaVuSans-6d"/>
      <use x="498.779297" xlink:href="#DejaVuSans-5d"/>
     </g>
    </g>
   </g>
   <g id="line2d_33">
    <path clip-path="url(#p38cd6dbbe3)" d="M 79.405136 73.297506 
L 80.88839 66.846375 
L 82.371644 50.878346 
L 83.854897 43.736267 
L 85.338151 42.579842 
L 86.821404 46.305875 
L 88.304658 53.085915 
L 89.787911 60.401023 
L 91.271165 65.963162 
L 92.754419 73.074211 
L 94.237672 84.799929 
L 95.720926 99.75603 
L 97.204179 106.988219 
L 98.687433 96.95091 
L 100.170687 83.685323 
L 101.65394 63.866556 
L 103.137194 42.1565 
L 104.620447 32.482475 
L 107.586955 19.8 
L 109.070208 24.328146 
L 110.553462 35.970674 
L 112.036715 44.617821 
L 113.519969 49.542786 
L 115.003222 53.880074 
L 116.486476 56.636158 
L 117.96973 58.043126 
L 119.452983 60.403481 
L 120.936237 62.041662 
L 122.41949 60.977896 
L 123.902744 60.459646 
L 125.385998 58.456434 
L 128.352505 43.833817 
L 129.835758 42.396321 
L 132.802266 43.623029 
L 134.285519 40.755205 
L 135.768773 35.901383 
L 137.252026 31.765178 
L 140.218533 27.098146 
L 141.701787 22.477191 
L 143.185041 21.69207 
L 144.668294 24.992965 
L 146.151548 26.678883 
L 147.634801 30.036757 
L 149.118055 35.829023 
L 150.601309 37.433064 
L 152.084562 39.719395 
L 153.567816 39.588715 
L 155.051069 42.41805 
L 158.017577 54.364386 
L 159.50083 54.900537 
L 160.984084 55.572365 
L 162.467337 63.350433 
L 163.950591 76.349495 
L 165.433844 86.141743 
L 166.917098 91.765275 
L 169.883605 106.993975 
L 171.366859 113.525025 
L 172.850112 121.370855 
L 174.333366 123.052337 
L 175.81662 114.640807 
L 177.299873 109.162539 
L 178.783127 106.842662 
L 180.26638 101.819132 
L 181.749634 97.881191 
L 183.232888 93.278547 
L 184.716141 85.069204 
L 187.682648 59.182572 
L 189.165902 51.687636 
L 190.649156 50.462173 
L 192.132409 53.765953 
L 193.615663 60.104824 
L 195.098916 67.285004 
L 196.58217 73.181905 
L 198.065423 78.121221 
L 199.548677 80.803352 
L 202.515184 87.159686 
L 203.998438 88.137727 
L 205.481691 87.099328 
L 206.964945 85.402109 
L 208.448199 81.893303 
L 209.931452 81.24292 
L 211.414706 86.278534 
L 212.897959 90.104218 
L 214.381213 92.250049 
L 217.34772 97.212472 
L 218.830974 99.043424 
L 223.280734 103.467597 
L 224.763988 103.427741 
L 226.247242 104.699215 
L 227.730495 108.663474 
L 229.213749 111.608354 
L 230.697002 113.154279 
L 232.180256 114.524443 
L 233.66351 115.492873 
L 235.146763 117.608186 
L 236.630017 120.488173 
L 238.11327 122.947468 
L 239.596524 125.836401 
L 241.079778 125.993972 
L 242.563031 123.239165 
L 244.046285 116.022002 
L 245.529538 114.320918 
L 247.012792 117.257477 
L 248.496045 114.480454 
L 249.979299 112.320619 
L 251.462553 113.059918 
L 252.945806 118.437474 
L 254.42906 121.659871 
L 255.912313 123.697896 
L 257.395567 126.563509 
L 258.878821 129.989096 
L 260.362074 132.686908 
L 261.845328 136.348163 
L 264.811835 145.379645 
L 266.295089 148.667543 
L 267.778342 153.252767 
L 269.261596 156.414829 
L 270.744849 156.872588 
L 272.228103 156.37415 
L 275.19461 152.529556 
L 276.677864 150.998722 
L 278.161117 148.373941 
L 279.644371 146.834311 
L 281.127624 149.834645 
L 282.610878 148.836887 
L 284.094132 148.53696 
L 285.577385 148.552906 
L 287.060639 148.312515 
L 288.543892 149.144588 
L 291.5104 153.003984 
L 292.993653 154.239761 
L 294.476907 155.014046 
L 295.96016 154.44368 
L 297.443414 154.848815 
L 298.926667 155.887992 
L 300.409921 156.454378 
L 301.893175 158.021675 
L 303.376428 158.918769 
L 304.859682 159.47676 
L 306.342935 160.646096 
L 307.826189 160.632416 
L 309.309443 161.315197 
L 310.792696 161.199455 
L 312.27595 162.002258 
L 313.759203 163.268693 
L 315.242457 162.801363 
L 316.725711 161.625536 
L 318.208964 161.44215 
L 321.175471 160.453918 
L 322.658725 161.062063 
L 324.141978 160.528728 
L 327.108486 158.662962 
L 328.591739 156.932735 
L 331.558246 155.733053 
L 333.0415 156.118078 
L 334.524754 155.900949 
L 336.008007 156.103919 
L 337.491261 155.389424 
L 338.974514 155.4866 
L 343.424275 157.40683 
L 344.907529 158.301267 
L 349.357289 164.563951 
L 353.80705 169.451284 
L 356.773557 174.04816 
L 358.256811 176.092002 
L 359.740065 178.381106 
L 361.223318 180.919134 
L 362.706572 184.054411 
L 365.673079 192.112737 
L 367.156333 195.824782 
L 368.639586 197.758368 
L 370.12284 197.370445 
L 371.606093 193.477942 
L 373.089347 190.562299 
L 374.5726 189.032271 
L 376.055854 187.113624 
L 377.539108 185.964976 
L 379.022361 182.438497 
L 380.505615 178.366908 
L 381.988868 173.953048 
L 383.472122 167.985273 
L 389.405136 146.85926 
L 390.88839 146.777739 
L 392.371644 151.597041 
L 393.854897 157.053123 
L 395.338151 159.468838 
L 396.821404 164.569741 
L 398.304658 166.922414 
L 399.787911 168.340573 
L 401.271165 171.853515 
L 402.754419 176.272772 
L 407.204179 196.148572 
L 408.687433 199.221969 
L 410.170687 199.606828 
L 411.65394 203.827594 
L 413.137194 206.997255 
L 414.620447 207.455988 
L 416.103701 212.050052 
L 417.586955 217.536753 
L 419.070208 221.446326 
L 420.553462 224.433478 
L 423.519969 233.77384 
L 425.003222 237.636545 
L 426.486476 240.224287 
L 427.96973 242.577574 
L 429.452983 245.88987 
L 430.936237 246.370044 
L 432.41949 234.075243 
L 433.902744 228.948412 
L 435.385998 237.632226 
L 436.869251 233.886883 
L 438.352505 216.380138 
L 439.835758 203.81673 
L 441.319012 199.647475 
L 442.802266 205.951693 
L 444.285519 216.646295 
L 445.768773 233.409636 
L 447.252026 255.807676 
L 448.73528 268.336574 
L 450.218533 271.56374 
L 451.701787 271.8 
L 453.185041 271.212456 
L 454.668294 269.979049 
L 456.151548 270.338764 
L 457.634801 268.956424 
L 459.118055 265.56535 
L 460.601309 263.423765 
L 462.084562 260.015038 
L 463.567816 254.967687 
L 465.051069 253.377002 
L 466.534323 252.155185 
L 468.017577 243.873815 
L 469.50083 228.026465 
L 470.984084 216.339887 
L 472.467337 213.568838 
L 473.950591 214.197594 
L 475.433844 204.478829 
L 476.917098 191.898613 
L 478.400352 186.830629 
L 479.883605 187.038999 
L 481.366859 181.722431 
L 482.850112 181.47451 
L 485.81662 197.437318 
L 487.299873 203.258893 
L 488.783127 206.9217 
L 490.26638 205.11137 
L 491.749634 207.879047 
L 493.232888 213.621682 
L 494.716141 207.858445 
L 496.199395 203.107665 
L 497.682648 197.510029 
L 499.165902 187.388739 
L 500.649156 178.128762 
L 502.132409 175.811051 
L 503.615663 169.714835 
L 505.098916 154.573341 
L 506.58217 135.360103 
L 508.065423 125.96573 
L 509.548677 123.17965 
L 511.031931 117.633457 
L 513.998438 98.714321 
L 515.481691 92.814907 
L 516.964945 91.318333 
L 518.448199 100.977433 
L 519.931452 113.940503 
L 521.414706 107.917358 
L 522.897959 95.151513 
L 524.381213 85.660226 
L 525.864467 83.513341 
L 528.830974 87.489875 
L 530.314227 86.881141 
L 531.797481 81.975163 
L 533.280734 75.740099 
L 534.763988 68.337173 
L 536.247242 59.592701 
L 537.730495 54.326761 
L 539.213749 49.955709 
L 540.697002 42.738023 
L 542.180256 34.015468 
L 543.66351 27.837375 
L 545.146763 35.292866 
L 548.11327 41.041623 
L 549.596524 49.607999 
L 551.079778 55.063115 
L 552.563031 61.299874 
L 557.012792 78.686399 
L 558.496045 81.499721 
L 559.979299 85.999825 
L 564.42906 107.083874 
L 565.912313 110.948021 
L 567.395567 112.148271 
L 568.878821 112.087946 
L 570.362074 112.929701 
L 571.845328 116.00397 
L 573.328581 120.715468 
L 574.811835 127.406129 
L 576.295089 127.513527 
L 577.778342 118.689576 
L 579.261596 107.748684 
L 580.744849 103.556379 
L 582.228103 106.936942 
L 583.711356 113.08364 
L 585.19461 120.482111 
L 586.677864 124.731988 
L 586.677864 124.731988 
" style="fill:none;stroke:#000000;stroke-linecap:square;stroke-width:1.7;"/>
   </g>
   <g id="patch_3">
    <path d="M 54.0415 284.4 
L 54.0415 7.2 
" style="fill:none;stroke:#aaaaaa;stroke-linecap:square;stroke-linejoin:miter;"/>
   </g>
   <g id="patch_4">
    <path d="M 612.0415 284.4 
L 612.0415 7.2 
" style="fill:none;stroke:#aaaaaa;stroke-linecap:square;stroke-linejoin:miter;"/>
   </g>
   <g id="patch_5">
    <path d="M 54.0415 284.4 
L 612.0415 284.4 
" style="fill:none;stroke:#aaaaaa;stroke-linecap:square;stroke-linejoin:miter;"/>
   </g>
   <g id="patch_6">
    <path d="M 54.0415 7.2 
L 612.0415 7.2 
" style="fill:none;stroke:#aaaaaa;stroke-linecap:square;stroke-linejoin:miter;"/>
   </g>
  </g>
 </g>
 <defs>
  <clipPath id="p38cd6dbbe3">
   <rect height="277.2" width="558" x="54.0415" y="7.2"/>
  </clipPath>
 </defs>
</svg>
