<?xml version="1.0" encoding="utf-8" standalone="no"?>
<!DOCTYPE svg PUBLIC "-//W3C//DTD SVG 1.1//EN"
  "http://www.w3.org/Graphics/SVG/1.1/DTD/svg11.dtd">
<svg xmlns:xlink="http://www.w3.org/1999/xlink" width="614.10125pt" height="323.891875pt" viewBox="0 0 614.10125 323.891875" xmlns="http://www.w3.org/2000/svg" version="1.1">
 <metadata>
  <rdf:RDF xmlns:dc="http://purl.org/dc/elements/1.1/" xmlns:cc="http://creativecommons.org/ns#" xmlns:rdf="http://www.w3.org/1999/02/22-rdf-syntax-ns#">
   <cc:Work>
    <dc:type rdf:resource="http://purl.org/dc/dcmitype/StillImage"/>
    <dc:date>2024-04-14T22:50:20.941091</dc:date>
    <dc:format>image/svg+xml</dc:format>
    <dc:creator>
     <cc:Agent>
      <dc:title>Matplotlib v3.6.2, https://matplotlib.org/</dc:title>
     </cc:Agent>
    </dc:creator>
   </cc:Work>
  </rdf:RDF>
 </metadata>
 <defs>
  <style type="text/css">*{stroke-linejoin: round; stroke-linecap: butt}</style>
 </defs>
 <g id="figure_1">
  <g id="patch_1">
   <path d="M 0 323.891875 
L 614.10125 323.891875 
L 614.10125 0 
L 0 0 
L 0 323.891875 
z
" style="fill: none"/>
  </g>
  <g id="axes_1">
   <g id="patch_2">
    <path d="M 48.90125 284.4 
L 606.90125 284.4 
L 606.90125 7.2 
L 48.90125 7.2 
z
" style="fill: #ffffff"/>
   </g>
   <g id="matplotlib.axis_1">
    <g id="xtick_1">
     <g id="line2d_1">
      <path d="M 74.264886 284.4 
L 74.264886 7.2 
" clip-path="url(#pa0e5d2573f)" style="fill: none; stroke: #b0b0b0; stroke-width: 0.8; stroke-linecap: square"/>
     </g>
     <g id="line2d_2">
      <defs>
       <path id="ma529890310" d="M 0 0 
L 0 3.5 
" style="stroke: #000000; stroke-width: 0.8"/>
      </defs>
      <g>
       <use xlink:href="#ma529890310" x="74.264886" y="284.4" style="stroke: #000000; stroke-width: 0.8"/>
      </g>
     </g>
     <g id="text_1">
      <!-- 0 -->
      <g transform="translate(71.083636 298.998438) scale(0.1 -0.1)">
       <defs>
        <path id="DejaVuSans-30" d="M 2034 4250 
Q 1547 4250 1301 3770 
Q 1056 3291 1056 2328 
Q 1056 1369 1301 889 
Q 1547 409 2034 409 
Q 2525 409 2770 889 
Q 3016 1369 3016 2328 
Q 3016 3291 2770 3770 
Q 2525 4250 2034 4250 
z
M 2034 4750 
Q 2819 4750 3233 4129 
Q 3647 3509 3647 2328 
Q 3647 1150 3233 529 
Q 2819 -91 2034 -91 
Q 1250 -91 836 529 
Q 422 1150 422 2328 
Q 422 3509 836 4129 
Q 1250 4750 2034 4750 
z
" transform="scale(0.015625)"/>
       </defs>
       <use xlink:href="#DejaVuSans-30"/>
      </g>
     </g>
    </g>
    <g id="xtick_2">
     <g id="line2d_3">
      <path d="M 148.427566 284.4 
L 148.427566 7.2 
" clip-path="url(#pa0e5d2573f)" style="fill: none; stroke: #b0b0b0; stroke-width: 0.8; stroke-linecap: square"/>
     </g>
     <g id="line2d_4">
      <g>
       <use xlink:href="#ma529890310" x="148.427566" y="284.4" style="stroke: #000000; stroke-width: 0.8"/>
      </g>
     </g>
     <g id="text_2">
      <!-- 5 -->
      <g transform="translate(145.246316 298.998438) scale(0.1 -0.1)">
       <defs>
        <path id="DejaVuSans-35" d="M 691 4666 
L 3169 4666 
L 3169 4134 
L 1269 4134 
L 1269 2991 
Q 1406 3038 1543 3061 
Q 1681 3084 1819 3084 
Q 2600 3084 3056 2656 
Q 3513 2228 3513 1497 
Q 3513 744 3044 326 
Q 2575 -91 1722 -91 
Q 1428 -91 1123 -41 
Q 819 9 494 109 
L 494 744 
Q 775 591 1075 516 
Q 1375 441 1709 441 
Q 2250 441 2565 725 
Q 2881 1009 2881 1497 
Q 2881 1984 2565 2268 
Q 2250 2553 1709 2553 
Q 1456 2553 1204 2497 
Q 953 2441 691 2322 
L 691 4666 
z
" transform="scale(0.015625)"/>
       </defs>
       <use xlink:href="#DejaVuSans-35"/>
      </g>
     </g>
    </g>
    <g id="xtick_3">
     <g id="line2d_5">
      <path d="M 222.590245 284.4 
L 222.590245 7.2 
" clip-path="url(#pa0e5d2573f)" style="fill: none; stroke: #b0b0b0; stroke-width: 0.8; stroke-linecap: square"/>
     </g>
     <g id="line2d_6">
      <g>
       <use xlink:href="#ma529890310" x="222.590245" y="284.4" style="stroke: #000000; stroke-width: 0.8"/>
      </g>
     </g>
     <g id="text_3">
      <!-- 10 -->
      <g transform="translate(216.227745 298.998438) scale(0.1 -0.1)">
       <defs>
        <path id="DejaVuSans-31" d="M 794 531 
L 1825 531 
L 1825 4091 
L 703 3866 
L 703 4441 
L 1819 4666 
L 2450 4666 
L 2450 531 
L 3481 531 
L 3481 0 
L 794 0 
L 794 531 
z
" transform="scale(0.015625)"/>
       </defs>
       <use xlink:href="#DejaVuSans-31"/>
       <use xlink:href="#DejaVuSans-30" x="63.623047"/>
      </g>
     </g>
    </g>
    <g id="xtick_4">
     <g id="line2d_7">
      <path d="M 296.752925 284.4 
L 296.752925 7.2 
" clip-path="url(#pa0e5d2573f)" style="fill: none; stroke: #b0b0b0; stroke-width: 0.8; stroke-linecap: square"/>
     </g>
     <g id="line2d_8">
      <g>
       <use xlink:href="#ma529890310" x="296.752925" y="284.4" style="stroke: #000000; stroke-width: 0.8"/>
      </g>
     </g>
     <g id="text_4">
      <!-- 15 -->
      <g transform="translate(290.390425 298.998438) scale(0.1 -0.1)">
       <use xlink:href="#DejaVuSans-31"/>
       <use xlink:href="#DejaVuSans-35" x="63.623047"/>
      </g>
     </g>
    </g>
    <g id="xtick_5">
     <g id="line2d_9">
      <path d="M 370.915604 284.4 
L 370.915604 7.2 
" clip-path="url(#pa0e5d2573f)" style="fill: none; stroke: #b0b0b0; stroke-width: 0.8; stroke-linecap: square"/>
     </g>
     <g id="line2d_10">
      <g>
       <use xlink:href="#ma529890310" x="370.915604" y="284.4" style="stroke: #000000; stroke-width: 0.8"/>
      </g>
     </g>
     <g id="text_5">
      <!-- 20 -->
      <g transform="translate(364.553104 298.998438) scale(0.1 -0.1)">
       <defs>
        <path id="DejaVuSans-32" d="M 1228 531 
L 3431 531 
L 3431 0 
L 469 0 
L 469 531 
Q 828 903 1448 1529 
Q 2069 2156 2228 2338 
Q 2531 2678 2651 2914 
Q 2772 3150 2772 3378 
Q 2772 3750 2511 3984 
Q 2250 4219 1831 4219 
Q 1534 4219 1204 4116 
Q 875 4013 500 3803 
L 500 4441 
Q 881 4594 1212 4672 
Q 1544 4750 1819 4750 
Q 2544 4750 2975 4387 
Q 3406 4025 3406 3419 
Q 3406 3131 3298 2873 
Q 3191 2616 2906 2266 
Q 2828 2175 2409 1742 
Q 1991 1309 1228 531 
z
" transform="scale(0.015625)"/>
       </defs>
       <use xlink:href="#DejaVuSans-32"/>
       <use xlink:href="#DejaVuSans-30" x="63.623047"/>
      </g>
     </g>
    </g>
    <g id="xtick_6">
     <g id="line2d_11">
      <path d="M 445.078283 284.4 
L 445.078283 7.2 
" clip-path="url(#pa0e5d2573f)" style="fill: none; stroke: #b0b0b0; stroke-width: 0.8; stroke-linecap: square"/>
     </g>
     <g id="line2d_12">
      <g>
       <use xlink:href="#ma529890310" x="445.078283" y="284.4" style="stroke: #000000; stroke-width: 0.8"/>
      </g>
     </g>
     <g id="text_6">
      <!-- 25 -->
      <g transform="translate(438.715783 298.998438) scale(0.1 -0.1)">
       <use xlink:href="#DejaVuSans-32"/>
       <use xlink:href="#DejaVuSans-35" x="63.623047"/>
      </g>
     </g>
    </g>
    <g id="xtick_7">
     <g id="line2d_13">
      <path d="M 519.240963 284.4 
L 519.240963 7.2 
" clip-path="url(#pa0e5d2573f)" style="fill: none; stroke: #b0b0b0; stroke-width: 0.8; stroke-linecap: square"/>
     </g>
     <g id="line2d_14">
      <g>
       <use xlink:href="#ma529890310" x="519.240963" y="284.4" style="stroke: #000000; stroke-width: 0.8"/>
      </g>
     </g>
     <g id="text_7">
      <!-- 30 -->
      <g transform="translate(512.878463 298.998438) scale(0.1 -0.1)">
       <defs>
        <path id="DejaVuSans-33" d="M 2597 2516 
Q 3050 2419 3304 2112 
Q 3559 1806 3559 1356 
Q 3559 666 3084 287 
Q 2609 -91 1734 -91 
Q 1441 -91 1130 -33 
Q 819 25 488 141 
L 488 750 
Q 750 597 1062 519 
Q 1375 441 1716 441 
Q 2309 441 2620 675 
Q 2931 909 2931 1356 
Q 2931 1769 2642 2001 
Q 2353 2234 1838 2234 
L 1294 2234 
L 1294 2753 
L 1863 2753 
Q 2328 2753 2575 2939 
Q 2822 3125 2822 3475 
Q 2822 3834 2567 4026 
Q 2313 4219 1838 4219 
Q 1578 4219 1281 4162 
Q 984 4106 628 3988 
L 628 4550 
Q 988 4650 1302 4700 
Q 1616 4750 1894 4750 
Q 2613 4750 3031 4423 
Q 3450 4097 3450 3541 
Q 3450 3153 3228 2886 
Q 3006 2619 2597 2516 
z
" transform="scale(0.015625)"/>
       </defs>
       <use xlink:href="#DejaVuSans-33"/>
       <use xlink:href="#DejaVuSans-30" x="63.623047"/>
      </g>
     </g>
    </g>
    <g id="xtick_8">
     <g id="line2d_15">
      <path d="M 593.403642 284.4 
L 593.403642 7.2 
" clip-path="url(#pa0e5d2573f)" style="fill: none; stroke: #b0b0b0; stroke-width: 0.8; stroke-linecap: square"/>
     </g>
     <g id="line2d_16">
      <g>
       <use xlink:href="#ma529890310" x="593.403642" y="284.4" style="stroke: #000000; stroke-width: 0.8"/>
      </g>
     </g>
     <g id="text_8">
      <!-- 35 -->
      <g transform="translate(587.041142 298.998438) scale(0.1 -0.1)">
       <use xlink:href="#DejaVuSans-33"/>
       <use xlink:href="#DejaVuSans-35" x="63.623047"/>
      </g>
     </g>
    </g>
    <g id="text_9">
     <!-- Distance [km] -->
     <g transform="translate(285.75875 314.19625) scale(0.12 -0.12)">
      <defs>
       <path id="DejaVuSans-44" d="M 1259 4147 
L 1259 519 
L 2022 519 
Q 2988 519 3436 956 
Q 3884 1394 3884 2338 
Q 3884 3275 3436 3711 
Q 2988 4147 2022 4147 
L 1259 4147 
z
M 628 4666 
L 1925 4666 
Q 3281 4666 3915 4102 
Q 4550 3538 4550 2338 
Q 4550 1131 3912 565 
Q 3275 0 1925 0 
L 628 0 
L 628 4666 
z
" transform="scale(0.015625)"/>
       <path id="DejaVuSans-69" d="M 603 3500 
L 1178 3500 
L 1178 0 
L 603 0 
L 603 3500 
z
M 603 4863 
L 1178 4863 
L 1178 4134 
L 603 4134 
L 603 4863 
z
" transform="scale(0.015625)"/>
       <path id="DejaVuSans-73" d="M 2834 3397 
L 2834 2853 
Q 2591 2978 2328 3040 
Q 2066 3103 1784 3103 
Q 1356 3103 1142 2972 
Q 928 2841 928 2578 
Q 928 2378 1081 2264 
Q 1234 2150 1697 2047 
L 1894 2003 
Q 2506 1872 2764 1633 
Q 3022 1394 3022 966 
Q 3022 478 2636 193 
Q 2250 -91 1575 -91 
Q 1294 -91 989 -36 
Q 684 19 347 128 
L 347 722 
Q 666 556 975 473 
Q 1284 391 1588 391 
Q 1994 391 2212 530 
Q 2431 669 2431 922 
Q 2431 1156 2273 1281 
Q 2116 1406 1581 1522 
L 1381 1569 
Q 847 1681 609 1914 
Q 372 2147 372 2553 
Q 372 3047 722 3315 
Q 1072 3584 1716 3584 
Q 2034 3584 2315 3537 
Q 2597 3491 2834 3397 
z
" transform="scale(0.015625)"/>
       <path id="DejaVuSans-74" d="M 1172 4494 
L 1172 3500 
L 2356 3500 
L 2356 3053 
L 1172 3053 
L 1172 1153 
Q 1172 725 1289 603 
Q 1406 481 1766 481 
L 2356 481 
L 2356 0 
L 1766 0 
Q 1100 0 847 248 
Q 594 497 594 1153 
L 594 3053 
L 172 3053 
L 172 3500 
L 594 3500 
L 594 4494 
L 1172 4494 
z
" transform="scale(0.015625)"/>
       <path id="DejaVuSans-61" d="M 2194 1759 
Q 1497 1759 1228 1600 
Q 959 1441 959 1056 
Q 959 750 1161 570 
Q 1363 391 1709 391 
Q 2188 391 2477 730 
Q 2766 1069 2766 1631 
L 2766 1759 
L 2194 1759 
z
M 3341 1997 
L 3341 0 
L 2766 0 
L 2766 531 
Q 2569 213 2275 61 
Q 1981 -91 1556 -91 
Q 1019 -91 701 211 
Q 384 513 384 1019 
Q 384 1609 779 1909 
Q 1175 2209 1959 2209 
L 2766 2209 
L 2766 2266 
Q 2766 2663 2505 2880 
Q 2244 3097 1772 3097 
Q 1472 3097 1187 3025 
Q 903 2953 641 2809 
L 641 3341 
Q 956 3463 1253 3523 
Q 1550 3584 1831 3584 
Q 2591 3584 2966 3190 
Q 3341 2797 3341 1997 
z
" transform="scale(0.015625)"/>
       <path id="DejaVuSans-6e" d="M 3513 2113 
L 3513 0 
L 2938 0 
L 2938 2094 
Q 2938 2591 2744 2837 
Q 2550 3084 2163 3084 
Q 1697 3084 1428 2787 
Q 1159 2491 1159 1978 
L 1159 0 
L 581 0 
L 581 3500 
L 1159 3500 
L 1159 2956 
Q 1366 3272 1645 3428 
Q 1925 3584 2291 3584 
Q 2894 3584 3203 3211 
Q 3513 2838 3513 2113 
z
" transform="scale(0.015625)"/>
       <path id="DejaVuSans-63" d="M 3122 3366 
L 3122 2828 
Q 2878 2963 2633 3030 
Q 2388 3097 2138 3097 
Q 1578 3097 1268 2742 
Q 959 2388 959 1747 
Q 959 1106 1268 751 
Q 1578 397 2138 397 
Q 2388 397 2633 464 
Q 2878 531 3122 666 
L 3122 134 
Q 2881 22 2623 -34 
Q 2366 -91 2075 -91 
Q 1284 -91 818 406 
Q 353 903 353 1747 
Q 353 2603 823 3093 
Q 1294 3584 2113 3584 
Q 2378 3584 2631 3529 
Q 2884 3475 3122 3366 
z
" transform="scale(0.015625)"/>
       <path id="DejaVuSans-65" d="M 3597 1894 
L 3597 1613 
L 953 1613 
Q 991 1019 1311 708 
Q 1631 397 2203 397 
Q 2534 397 2845 478 
Q 3156 559 3463 722 
L 3463 178 
Q 3153 47 2828 -22 
Q 2503 -91 2169 -91 
Q 1331 -91 842 396 
Q 353 884 353 1716 
Q 353 2575 817 3079 
Q 1281 3584 2069 3584 
Q 2775 3584 3186 3129 
Q 3597 2675 3597 1894 
z
M 3022 2063 
Q 3016 2534 2758 2815 
Q 2500 3097 2075 3097 
Q 1594 3097 1305 2825 
Q 1016 2553 972 2059 
L 3022 2063 
z
" transform="scale(0.015625)"/>
       <path id="DejaVuSans-20" transform="scale(0.015625)"/>
       <path id="DejaVuSans-5b" d="M 550 4863 
L 1875 4863 
L 1875 4416 
L 1125 4416 
L 1125 -397 
L 1875 -397 
L 1875 -844 
L 550 -844 
L 550 4863 
z
" transform="scale(0.015625)"/>
       <path id="DejaVuSans-6b" d="M 581 4863 
L 1159 4863 
L 1159 1991 
L 2875 3500 
L 3609 3500 
L 1753 1863 
L 3688 0 
L 2938 0 
L 1159 1709 
L 1159 0 
L 581 0 
L 581 4863 
z
" transform="scale(0.015625)"/>
       <path id="DejaVuSans-6d" d="M 3328 2828 
Q 3544 3216 3844 3400 
Q 4144 3584 4550 3584 
Q 5097 3584 5394 3201 
Q 5691 2819 5691 2113 
L 5691 0 
L 5113 0 
L 5113 2094 
Q 5113 2597 4934 2840 
Q 4756 3084 4391 3084 
Q 3944 3084 3684 2787 
Q 3425 2491 3425 1978 
L 3425 0 
L 2847 0 
L 2847 2094 
Q 2847 2600 2669 2842 
Q 2491 3084 2119 3084 
Q 1678 3084 1418 2786 
Q 1159 2488 1159 1978 
L 1159 0 
L 581 0 
L 581 3500 
L 1159 3500 
L 1159 2956 
Q 1356 3278 1631 3431 
Q 1906 3584 2284 3584 
Q 2666 3584 2933 3390 
Q 3200 3197 3328 2828 
z
" transform="scale(0.015625)"/>
       <path id="DejaVuSans-5d" d="M 1947 4863 
L 1947 -844 
L 622 -844 
L 622 -397 
L 1369 -397 
L 1369 4416 
L 622 4416 
L 622 4863 
L 1947 4863 
z
" transform="scale(0.015625)"/>
      </defs>
      <use xlink:href="#DejaVuSans-44"/>
      <use xlink:href="#DejaVuSans-69" x="77.001953"/>
      <use xlink:href="#DejaVuSans-73" x="104.785156"/>
      <use xlink:href="#DejaVuSans-74" x="156.884766"/>
      <use xlink:href="#DejaVuSans-61" x="196.09375"/>
      <use xlink:href="#DejaVuSans-6e" x="257.373047"/>
      <use xlink:href="#DejaVuSans-63" x="320.751953"/>
      <use xlink:href="#DejaVuSans-65" x="375.732422"/>
      <use xlink:href="#DejaVuSans-20" x="437.255859"/>
      <use xlink:href="#DejaVuSans-5b" x="469.042969"/>
      <use xlink:href="#DejaVuSans-6b" x="508.056641"/>
      <use xlink:href="#DejaVuSans-6d" x="565.966797"/>
      <use xlink:href="#DejaVuSans-5d" x="663.378906"/>
     </g>
    </g>
   </g>
   <g id="matplotlib.axis_2">
    <g id="ytick_1">
     <g id="line2d_17">
      <path d="M 48.90125 274.520183 
L 606.90125 274.520183 
" clip-path="url(#pa0e5d2573f)" style="fill: none; stroke: #b0b0b0; stroke-width: 0.8; stroke-linecap: square"/>
     </g>
     <g id="line2d_18">
      <defs>
       <path id="mf76c8654f5" d="M 0 0 
L -3.5 0 
" style="stroke: #000000; stroke-width: 0.8"/>
      </defs>
      <g>
       <use xlink:href="#mf76c8654f5" x="48.90125" y="274.520183" style="stroke: #000000; stroke-width: 0.8"/>
      </g>
     </g>
     <g id="text_10">
      <!-- 50 -->
      <g transform="translate(29.17625 278.319402) scale(0.1 -0.1)">
       <use xlink:href="#DejaVuSans-35"/>
       <use xlink:href="#DejaVuSans-30" x="63.623047"/>
      </g>
     </g>
    </g>
    <g id="ytick_2">
     <g id="line2d_19">
      <path d="M 48.90125 240.752668 
L 606.90125 240.752668 
" clip-path="url(#pa0e5d2573f)" style="fill: none; stroke: #b0b0b0; stroke-width: 0.8; stroke-linecap: square"/>
     </g>
     <g id="line2d_20">
      <g>
       <use xlink:href="#mf76c8654f5" x="48.90125" y="240.752668" style="stroke: #000000; stroke-width: 0.8"/>
      </g>
     </g>
     <g id="text_11">
      <!-- 100 -->
      <g transform="translate(22.81375 244.551887) scale(0.1 -0.1)">
       <use xlink:href="#DejaVuSans-31"/>
       <use xlink:href="#DejaVuSans-30" x="63.623047"/>
       <use xlink:href="#DejaVuSans-30" x="127.246094"/>
      </g>
     </g>
    </g>
    <g id="ytick_3">
     <g id="line2d_21">
      <path d="M 48.90125 206.985153 
L 606.90125 206.985153 
" clip-path="url(#pa0e5d2573f)" style="fill: none; stroke: #b0b0b0; stroke-width: 0.8; stroke-linecap: square"/>
     </g>
     <g id="line2d_22">
      <g>
       <use xlink:href="#mf76c8654f5" x="48.90125" y="206.985153" style="stroke: #000000; stroke-width: 0.8"/>
      </g>
     </g>
     <g id="text_12">
      <!-- 150 -->
      <g transform="translate(22.81375 210.784371) scale(0.1 -0.1)">
       <use xlink:href="#DejaVuSans-31"/>
       <use xlink:href="#DejaVuSans-35" x="63.623047"/>
       <use xlink:href="#DejaVuSans-30" x="127.246094"/>
      </g>
     </g>
    </g>
    <g id="ytick_4">
     <g id="line2d_23">
      <path d="M 48.90125 173.217637 
L 606.90125 173.217637 
" clip-path="url(#pa0e5d2573f)" style="fill: none; stroke: #b0b0b0; stroke-width: 0.8; stroke-linecap: square"/>
     </g>
     <g id="line2d_24">
      <g>
       <use xlink:href="#mf76c8654f5" x="48.90125" y="173.217637" style="stroke: #000000; stroke-width: 0.8"/>
      </g>
     </g>
     <g id="text_13">
      <!-- 200 -->
      <g transform="translate(22.81375 177.016856) scale(0.1 -0.1)">
       <use xlink:href="#DejaVuSans-32"/>
       <use xlink:href="#DejaVuSans-30" x="63.623047"/>
       <use xlink:href="#DejaVuSans-30" x="127.246094"/>
      </g>
     </g>
    </g>
    <g id="ytick_5">
     <g id="line2d_25">
      <path d="M 48.90125 139.450122 
L 606.90125 139.450122 
" clip-path="url(#pa0e5d2573f)" style="fill: none; stroke: #b0b0b0; stroke-width: 0.8; stroke-linecap: square"/>
     </g>
     <g id="line2d_26">
      <g>
       <use xlink:href="#mf76c8654f5" x="48.90125" y="139.450122" style="stroke: #000000; stroke-width: 0.8"/>
      </g>
     </g>
     <g id="text_14">
      <!-- 250 -->
      <g transform="translate(22.81375 143.24934) scale(0.1 -0.1)">
       <use xlink:href="#DejaVuSans-32"/>
       <use xlink:href="#DejaVuSans-35" x="63.623047"/>
       <use xlink:href="#DejaVuSans-30" x="127.246094"/>
      </g>
     </g>
    </g>
    <g id="ytick_6">
     <g id="line2d_27">
      <path d="M 48.90125 105.682606 
L 606.90125 105.682606 
" clip-path="url(#pa0e5d2573f)" style="fill: none; stroke: #b0b0b0; stroke-width: 0.8; stroke-linecap: square"/>
     </g>
     <g id="line2d_28">
      <g>
       <use xlink:href="#mf76c8654f5" x="48.90125" y="105.682606" style="stroke: #000000; stroke-width: 0.8"/>
      </g>
     </g>
     <g id="text_15">
      <!-- 300 -->
      <g transform="translate(22.81375 109.481825) scale(0.1 -0.1)">
       <use xlink:href="#DejaVuSans-33"/>
       <use xlink:href="#DejaVuSans-30" x="63.623047"/>
       <use xlink:href="#DejaVuSans-30" x="127.246094"/>
      </g>
     </g>
    </g>
    <g id="ytick_7">
     <g id="line2d_29">
      <path d="M 48.90125 71.915091 
L 606.90125 71.915091 
" clip-path="url(#pa0e5d2573f)" style="fill: none; stroke: #b0b0b0; stroke-width: 0.8; stroke-linecap: square"/>
     </g>
     <g id="line2d_30">
      <g>
       <use xlink:href="#mf76c8654f5" x="48.90125" y="71.915091" style="stroke: #000000; stroke-width: 0.8"/>
      </g>
     </g>
     <g id="text_16">
      <!-- 350 -->
      <g transform="translate(22.81375 75.714309) scale(0.1 -0.1)">
       <use xlink:href="#DejaVuSans-33"/>
       <use xlink:href="#DejaVuSans-35" x="63.623047"/>
       <use xlink:href="#DejaVuSans-30" x="127.246094"/>
      </g>
     </g>
    </g>
    <g id="ytick_8">
     <g id="line2d_31">
      <path d="M 48.90125 38.147575 
L 606.90125 38.147575 
" clip-path="url(#pa0e5d2573f)" style="fill: none; stroke: #b0b0b0; stroke-width: 0.8; stroke-linecap: square"/>
     </g>
     <g id="line2d_32">
      <g>
       <use xlink:href="#mf76c8654f5" x="48.90125" y="38.147575" style="stroke: #000000; stroke-width: 0.8"/>
      </g>
     </g>
     <g id="text_17">
      <!-- 400 -->
      <g transform="translate(22.81375 41.946794) scale(0.1 -0.1)">
       <defs>
        <path id="DejaVuSans-34" d="M 2419 4116 
L 825 1625 
L 2419 1625 
L 2419 4116 
z
M 2253 4666 
L 3047 4666 
L 3047 1625 
L 3713 1625 
L 3713 1100 
L 3047 1100 
L 3047 0 
L 2419 0 
L 2419 1100 
L 313 1100 
L 313 1709 
L 2253 4666 
z
" transform="scale(0.015625)"/>
       </defs>
       <use xlink:href="#DejaVuSans-34"/>
       <use xlink:href="#DejaVuSans-30" x="63.623047"/>
       <use xlink:href="#DejaVuSans-30" x="127.246094"/>
      </g>
     </g>
    </g>
    <g id="text_18">
     <!-- Height [m] -->
     <g transform="translate(16.318125 178.067813) rotate(-90) scale(0.12 -0.12)">
      <defs>
       <path id="DejaVuSans-48" d="M 628 4666 
L 1259 4666 
L 1259 2753 
L 3553 2753 
L 3553 4666 
L 4184 4666 
L 4184 0 
L 3553 0 
L 3553 2222 
L 1259 2222 
L 1259 0 
L 628 0 
L 628 4666 
z
" transform="scale(0.015625)"/>
       <path id="DejaVuSans-67" d="M 2906 1791 
Q 2906 2416 2648 2759 
Q 2391 3103 1925 3103 
Q 1463 3103 1205 2759 
Q 947 2416 947 1791 
Q 947 1169 1205 825 
Q 1463 481 1925 481 
Q 2391 481 2648 825 
Q 2906 1169 2906 1791 
z
M 3481 434 
Q 3481 -459 3084 -895 
Q 2688 -1331 1869 -1331 
Q 1566 -1331 1297 -1286 
Q 1028 -1241 775 -1147 
L 775 -588 
Q 1028 -725 1275 -790 
Q 1522 -856 1778 -856 
Q 2344 -856 2625 -561 
Q 2906 -266 2906 331 
L 2906 616 
Q 2728 306 2450 153 
Q 2172 0 1784 0 
Q 1141 0 747 490 
Q 353 981 353 1791 
Q 353 2603 747 3093 
Q 1141 3584 1784 3584 
Q 2172 3584 2450 3431 
Q 2728 3278 2906 2969 
L 2906 3500 
L 3481 3500 
L 3481 434 
z
" transform="scale(0.015625)"/>
       <path id="DejaVuSans-68" d="M 3513 2113 
L 3513 0 
L 2938 0 
L 2938 2094 
Q 2938 2591 2744 2837 
Q 2550 3084 2163 3084 
Q 1697 3084 1428 2787 
Q 1159 2491 1159 1978 
L 1159 0 
L 581 0 
L 581 4863 
L 1159 4863 
L 1159 2956 
Q 1366 3272 1645 3428 
Q 1925 3584 2291 3584 
Q 2894 3584 3203 3211 
Q 3513 2838 3513 2113 
z
" transform="scale(0.015625)"/>
      </defs>
      <use xlink:href="#DejaVuSans-48"/>
      <use xlink:href="#DejaVuSans-65" x="75.195312"/>
      <use xlink:href="#DejaVuSans-69" x="136.71875"/>
      <use xlink:href="#DejaVuSans-67" x="164.501953"/>
      <use xlink:href="#DejaVuSans-68" x="227.978516"/>
      <use xlink:href="#DejaVuSans-74" x="291.357422"/>
      <use xlink:href="#DejaVuSans-20" x="330.566406"/>
      <use xlink:href="#DejaVuSans-5b" x="362.353516"/>
      <use xlink:href="#DejaVuSans-6d" x="401.367188"/>
      <use xlink:href="#DejaVuSans-5d" x="498.779297"/>
     </g>
    </g>
   </g>
   <g id="line2d_33">
    <path d="M 74.264886 73.297506 
L 75.74814 66.846375 
L 77.231394 50.878346 
L 78.714647 43.736267 
L 80.197901 42.579842 
L 81.681154 46.305875 
L 83.164408 53.085915 
L 84.647661 60.401023 
L 86.130915 65.963162 
L 87.614169 73.074211 
L 89.097422 84.799929 
L 90.580676 99.75603 
L 92.063929 106.988219 
L 93.547183 96.95091 
L 95.030437 83.685323 
L 96.51369 63.866556 
L 97.996944 42.1565 
L 99.480197 32.482475 
L 102.446705 19.8 
L 103.929958 24.328146 
L 105.413212 35.970674 
L 106.896465 44.617821 
L 108.379719 49.542786 
L 109.862972 53.880074 
L 111.346226 56.636158 
L 112.82948 58.043126 
L 114.312733 60.403481 
L 115.795987 62.041662 
L 117.27924 60.977896 
L 118.762494 60.459646 
L 120.245748 58.456434 
L 123.212255 43.833817 
L 124.695508 42.396321 
L 127.662016 43.623029 
L 129.145269 40.755205 
L 130.628523 35.901383 
L 132.111776 31.765178 
L 135.078283 27.098146 
L 136.561537 22.477191 
L 138.044791 21.69207 
L 139.528044 24.992965 
L 141.011298 26.678883 
L 142.494551 30.036757 
L 143.977805 35.829023 
L 145.461059 37.433064 
L 146.944312 39.719395 
L 148.427566 39.588715 
L 149.910819 42.41805 
L 152.877327 54.364386 
L 154.36058 54.900537 
L 155.843834 55.572365 
L 157.327087 63.350433 
L 158.810341 76.349495 
L 160.293594 86.141743 
L 161.776848 91.765275 
L 164.743355 106.993975 
L 166.226609 113.525025 
L 167.709862 121.370855 
L 169.193116 123.052337 
L 170.67637 114.640807 
L 172.159623 109.162539 
L 173.642877 106.842662 
L 175.12613 101.819132 
L 176.609384 97.881191 
L 178.092638 93.278547 
L 179.575891 85.069204 
L 182.542398 59.182572 
L 184.025652 51.687636 
L 185.508906 50.462173 
L 186.992159 53.765953 
L 188.475413 60.104824 
L 189.958666 67.285004 
L 191.44192 73.181905 
L 192.925173 78.121221 
L 194.408427 80.803352 
L 197.374934 87.159686 
L 198.858188 88.137727 
L 200.341441 87.099328 
L 201.824695 85.402109 
L 203.307949 81.893303 
L 204.791202 81.24292 
L 206.274456 86.278534 
L 207.757709 90.104218 
L 209.240963 92.250049 
L 212.20747 97.212472 
L 213.690724 99.043424 
L 218.140484 103.467597 
L 219.623738 103.427741 
L 221.106992 104.699215 
L 222.590245 108.663474 
L 224.073499 111.608354 
L 225.556752 113.154279 
L 227.040006 114.524443 
L 228.52326 115.492873 
L 230.006513 117.608186 
L 231.489767 120.488173 
L 232.97302 122.947468 
L 234.456274 125.836401 
L 235.939528 125.993972 
L 237.422781 123.239165 
L 238.906035 116.022002 
L 240.389288 114.320918 
L 241.872542 117.257477 
L 243.355795 114.480454 
L 244.839049 112.320619 
L 246.322303 113.059918 
L 247.805556 118.437474 
L 249.28881 121.659871 
L 250.772063 123.697896 
L 252.255317 126.563509 
L 253.738571 129.989096 
L 255.221824 132.686908 
L 256.705078 136.348163 
L 259.671585 145.379645 
L 261.154839 148.667543 
L 262.638092 153.252767 
L 264.121346 156.414829 
L 265.604599 156.872588 
L 267.087853 156.37415 
L 270.05436 152.529556 
L 271.537614 150.998722 
L 273.020867 148.373941 
L 274.504121 146.834311 
L 275.987374 149.834645 
L 277.470628 148.836887 
L 278.953882 148.53696 
L 280.437135 148.552906 
L 281.920389 148.312515 
L 283.403642 149.144588 
L 286.37015 153.003984 
L 287.853403 154.239761 
L 289.336657 155.014046 
L 290.81991 154.44368 
L 292.303164 154.848815 
L 293.786417 155.887992 
L 295.269671 156.454378 
L 296.752925 158.021675 
L 298.236178 158.918769 
L 299.719432 159.47676 
L 301.202685 160.646096 
L 302.685939 160.632416 
L 304.169193 161.315197 
L 305.652446 161.199455 
L 307.1357 162.002258 
L 308.618953 163.268693 
L 310.102207 162.801363 
L 311.585461 161.625536 
L 313.068714 161.44215 
L 316.035221 160.453918 
L 317.518475 161.062063 
L 319.001728 160.528728 
L 321.968236 158.662962 
L 323.451489 156.932735 
L 326.417996 155.733053 
L 327.90125 156.118078 
L 329.384504 155.900949 
L 330.867757 156.103919 
L 332.351011 155.389424 
L 333.834264 155.4866 
L 338.284025 157.40683 
L 339.767279 158.301267 
L 344.217039 164.563951 
L 348.6668 169.451284 
L 351.633307 174.04816 
L 353.116561 176.092002 
L 354.599815 178.381106 
L 356.083068 180.919134 
L 357.566322 184.054411 
L 360.532829 192.112737 
L 362.016083 195.824782 
L 363.499336 197.758368 
L 364.98259 197.370445 
L 366.465843 193.477942 
L 367.949097 190.562299 
L 369.43235 189.032271 
L 370.915604 187.113624 
L 372.398858 185.964976 
L 373.882111 182.438497 
L 375.365365 178.366908 
L 376.848618 173.953048 
L 378.331872 167.985273 
L 384.264886 146.85926 
L 385.74814 146.777739 
L 387.231394 151.597041 
L 388.714647 157.053123 
L 390.197901 159.468838 
L 391.681154 164.569741 
L 393.164408 166.922414 
L 394.647661 168.340573 
L 396.130915 171.853515 
L 397.614169 176.272772 
L 402.063929 196.148572 
L 403.547183 199.221969 
L 405.030437 199.606828 
L 406.51369 203.827594 
L 407.996944 206.997255 
L 409.480197 207.455988 
L 410.963451 212.050052 
L 412.446705 217.536753 
L 413.929958 221.446326 
L 415.413212 224.433478 
L 418.379719 233.77384 
L 419.862972 237.636545 
L 421.346226 240.224287 
L 422.82948 242.577574 
L 424.312733 245.88987 
L 425.795987 246.370044 
L 427.27924 234.075243 
L 428.762494 228.948412 
L 430.245748 237.632226 
L 431.729001 233.886883 
L 433.212255 216.380138 
L 434.695508 203.81673 
L 436.178762 199.647475 
L 437.662016 205.951693 
L 439.145269 216.646295 
L 440.628523 233.409636 
L 442.111776 255.807676 
L 443.59503 268.336574 
L 445.078283 271.56374 
L 446.561537 271.8 
L 448.044791 271.212456 
L 449.528044 269.979049 
L 451.011298 270.338764 
L 452.494551 268.956424 
L 453.977805 265.56535 
L 455.461059 263.423765 
L 456.944312 260.015038 
L 458.427566 254.967687 
L 459.910819 253.377002 
L 461.394073 252.155185 
L 462.877327 243.873815 
L 464.36058 228.026465 
L 465.843834 216.339887 
L 467.327087 213.568838 
L 468.810341 214.197594 
L 470.293594 204.478829 
L 471.776848 191.898613 
L 473.260102 186.830629 
L 474.743355 187.038999 
L 476.226609 181.722431 
L 477.709862 181.47451 
L 480.67637 197.437318 
L 482.159623 203.258893 
L 483.642877 206.9217 
L 485.12613 205.11137 
L 486.609384 207.879047 
L 488.092638 213.621682 
L 489.575891 207.858445 
L 491.059145 203.107665 
L 492.542398 197.510029 
L 494.025652 187.388739 
L 495.508906 178.128762 
L 496.992159 175.811051 
L 498.475413 169.714835 
L 499.958666 154.573341 
L 501.44192 135.360103 
L 502.925173 125.96573 
L 504.408427 123.17965 
L 505.891681 117.633457 
L 508.858188 98.714321 
L 510.341441 92.814907 
L 511.824695 91.318333 
L 513.307949 100.977433 
L 514.791202 113.940503 
L 516.274456 107.917358 
L 517.757709 95.151513 
L 519.240963 85.660226 
L 520.724217 83.513341 
L 523.690724 87.489875 
L 525.173977 86.881141 
L 526.657231 81.975163 
L 528.140484 75.740099 
L 529.623738 68.337173 
L 531.106992 59.592701 
L 532.590245 54.326761 
L 534.073499 49.955709 
L 535.556752 42.738023 
L 537.040006 34.015468 
L 538.52326 27.837375 
L 540.006513 35.292866 
L 542.97302 41.041623 
L 544.456274 49.607999 
L 545.939528 55.063115 
L 547.422781 61.299874 
L 551.872542 78.686399 
L 553.355795 81.499721 
L 554.839049 85.999825 
L 559.28881 107.083874 
L 560.772063 110.948021 
L 562.255317 112.148271 
L 563.738571 112.087946 
L 565.221824 112.929701 
L 566.705078 116.00397 
L 568.188331 120.715468 
L 569.671585 127.406129 
L 571.154839 127.513527 
L 572.638092 118.689576 
L 574.121346 107.748684 
L 575.604599 103.556379 
L 577.087853 106.936942 
L 578.571106 113.08364 
L 580.05436 120.482111 
L 581.537614 124.731988 
L 581.537614 124.731988 
" clip-path="url(#pa0e5d2573f)" style="fill: none; stroke: #000000; stroke-width: 1.5; stroke-linecap: square"/>
   </g>
   <g id="patch_3">
    <path d="M 48.90125 284.4 
L 48.90125 7.2 
" style="fill: none; stroke: #000000; stroke-width: 0.8; stroke-linejoin: miter; stroke-linecap: square"/>
   </g>
   <g id="patch_4">
    <path d="M 606.90125 284.4 
L 606.90125 7.2 
" style="fill: none; stroke: #000000; stroke-width: 0.8; stroke-linejoin: miter; stroke-linecap: square"/>
   </g>
   <g id="patch_5">
    <path d="M 48.90125 284.4 
L 606.90125 284.4 
" style="fill: none; stroke: #000000; stroke-width: 0.8; stroke-linejoin: miter; stroke-linecap: square"/>
   </g>
   <g id="patch_6">
    <path d="M 48.90125 7.2 
L 606.90125 7.2 
" style="fill: none; stroke: #000000; stroke-width: 0.8; stroke-linejoin: miter; stroke-linecap: square"/>
   </g>
  </g>
 </g>
 <defs>
  <clipPath id="pa0e5d2573f">
   <rect x="48.90125" y="7.2" width="558" height="277.2"/>
  </clipPath>
 </defs>
</svg>
