<?xml version="1.0" encoding="utf-8" standalone="no"?>
<!DOCTYPE svg PUBLIC "-//W3C//DTD SVG 1.1//EN"
  "http://www.w3.org/Graphics/SVG/1.1/DTD/svg11.dtd">
<svg height="360pt" version="1.1" viewBox="0 0 720 360" width="720pt" xmlns="http://www.w3.org/2000/svg" xmlns:xlink="http://www.w3.org/1999/xlink">
 <metadata>
  <rdf:RDF xmlns:cc="http://creativecommons.org/ns#" xmlns:dc="http://purl.org/dc/elements/1.1/" xmlns:rdf="http://www.w3.org/1999/02/22-rdf-syntax-ns#">
   <cc:Work>
    <dc:type rdf:resource="http://purl.org/dc/dcmitype/StillImage"/>
    <dc:date>2021-07-07T09:00:00.104374</dc:date>
    <dc:format>image/svg+xml</dc:format>
    <dc:creator>
     <cc:Agent>
      <dc:title>Matplotlib v3.4.2, https://matplotlib.org/</dc:title>
     </cc:Agent>
    </dc:creator>
   </cc:Work>
  </rdf:RDF>
 </metadata>
 <defs>
  <style type="text/css">*{stroke-linecap:butt;stroke-linejoin:round;}</style>
 </defs>
 <g id="figure_1">
  <g id="patch_1">
   <path d="M 0 360 
L 720 360 
L 720 0 
L 0 0 
z
" style="fill:#ffffff;"/>
  </g>
  <g id="axes_1">
   <g id="patch_2">
    <path d="M 90 320.4 
L 648 320.4 
L 648 43.2 
L 90 43.2 
z
" style="fill:#ffffff;"/>
   </g>
   <g id="matplotlib.axis_1">
    <g id="xtick_1">
     <g id="line2d_1">
      <path clip-path="url(#p45528ceb69)" d="M 115.363636 320.4 
L 115.363636 43.2 
" style="fill:none;stroke:#b0b0b0;stroke-linecap:square;stroke-width:0.8;"/>
     </g>
     <g id="line2d_2">
      <defs>
       <path d="M 0 0 
L 0 3.5 
" id="m3d056f2ae2" style="stroke:#000000;stroke-width:0.8;"/>
      </defs>
      <g>
       <use style="stroke:#000000;stroke-width:0.8;" x="115.363636" xlink:href="#m3d056f2ae2" y="320.4"/>
      </g>
     </g>
     <g id="text_1">
      <!-- 0 -->
      <g transform="translate(112.182386 334.998438)scale(0.1 -0.1)">
       <defs>
        <path d="M 2034 4250 
Q 1547 4250 1301 3770 
Q 1056 3291 1056 2328 
Q 1056 1369 1301 889 
Q 1547 409 2034 409 
Q 2525 409 2770 889 
Q 3016 1369 3016 2328 
Q 3016 3291 2770 3770 
Q 2525 4250 2034 4250 
z
M 2034 4750 
Q 2819 4750 3233 4129 
Q 3647 3509 3647 2328 
Q 3647 1150 3233 529 
Q 2819 -91 2034 -91 
Q 1250 -91 836 529 
Q 422 1150 422 2328 
Q 422 3509 836 4129 
Q 1250 4750 2034 4750 
z
" id="DejaVuSans-30" transform="scale(0.015625)"/>
       </defs>
       <use xlink:href="#DejaVuSans-30"/>
      </g>
     </g>
    </g>
    <g id="xtick_2">
     <g id="line2d_3">
      <path clip-path="url(#p45528ceb69)" d="M 189.526316 320.4 
L 189.526316 43.2 
" style="fill:none;stroke:#b0b0b0;stroke-linecap:square;stroke-width:0.8;"/>
     </g>
     <g id="line2d_4">
      <g>
       <use style="stroke:#000000;stroke-width:0.8;" x="189.526316" xlink:href="#m3d056f2ae2" y="320.4"/>
      </g>
     </g>
     <g id="text_2">
      <!-- 5 -->
      <g transform="translate(186.345066 334.998438)scale(0.1 -0.1)">
       <defs>
        <path d="M 691 4666 
L 3169 4666 
L 3169 4134 
L 1269 4134 
L 1269 2991 
Q 1406 3038 1543 3061 
Q 1681 3084 1819 3084 
Q 2600 3084 3056 2656 
Q 3513 2228 3513 1497 
Q 3513 744 3044 326 
Q 2575 -91 1722 -91 
Q 1428 -91 1123 -41 
Q 819 9 494 109 
L 494 744 
Q 775 591 1075 516 
Q 1375 441 1709 441 
Q 2250 441 2565 725 
Q 2881 1009 2881 1497 
Q 2881 1984 2565 2268 
Q 2250 2553 1709 2553 
Q 1456 2553 1204 2497 
Q 953 2441 691 2322 
L 691 4666 
z
" id="DejaVuSans-35" transform="scale(0.015625)"/>
       </defs>
       <use xlink:href="#DejaVuSans-35"/>
      </g>
     </g>
    </g>
    <g id="xtick_3">
     <g id="line2d_5">
      <path clip-path="url(#p45528ceb69)" d="M 263.688995 320.4 
L 263.688995 43.2 
" style="fill:none;stroke:#b0b0b0;stroke-linecap:square;stroke-width:0.8;"/>
     </g>
     <g id="line2d_6">
      <g>
       <use style="stroke:#000000;stroke-width:0.8;" x="263.688995" xlink:href="#m3d056f2ae2" y="320.4"/>
      </g>
     </g>
     <g id="text_3">
      <!-- 10 -->
      <g transform="translate(257.326495 334.998438)scale(0.1 -0.1)">
       <defs>
        <path d="M 794 531 
L 1825 531 
L 1825 4091 
L 703 3866 
L 703 4441 
L 1819 4666 
L 2450 4666 
L 2450 531 
L 3481 531 
L 3481 0 
L 794 0 
L 794 531 
z
" id="DejaVuSans-31" transform="scale(0.015625)"/>
       </defs>
       <use xlink:href="#DejaVuSans-31"/>
       <use x="63.623047" xlink:href="#DejaVuSans-30"/>
      </g>
     </g>
    </g>
    <g id="xtick_4">
     <g id="line2d_7">
      <path clip-path="url(#p45528ceb69)" d="M 337.851675 320.4 
L 337.851675 43.2 
" style="fill:none;stroke:#b0b0b0;stroke-linecap:square;stroke-width:0.8;"/>
     </g>
     <g id="line2d_8">
      <g>
       <use style="stroke:#000000;stroke-width:0.8;" x="337.851675" xlink:href="#m3d056f2ae2" y="320.4"/>
      </g>
     </g>
     <g id="text_4">
      <!-- 15 -->
      <g transform="translate(331.489175 334.998438)scale(0.1 -0.1)">
       <use xlink:href="#DejaVuSans-31"/>
       <use x="63.623047" xlink:href="#DejaVuSans-35"/>
      </g>
     </g>
    </g>
    <g id="xtick_5">
     <g id="line2d_9">
      <path clip-path="url(#p45528ceb69)" d="M 412.014354 320.4 
L 412.014354 43.2 
" style="fill:none;stroke:#b0b0b0;stroke-linecap:square;stroke-width:0.8;"/>
     </g>
     <g id="line2d_10">
      <g>
       <use style="stroke:#000000;stroke-width:0.8;" x="412.014354" xlink:href="#m3d056f2ae2" y="320.4"/>
      </g>
     </g>
     <g id="text_5">
      <!-- 20 -->
      <g transform="translate(405.651854 334.998438)scale(0.1 -0.1)">
       <defs>
        <path d="M 1228 531 
L 3431 531 
L 3431 0 
L 469 0 
L 469 531 
Q 828 903 1448 1529 
Q 2069 2156 2228 2338 
Q 2531 2678 2651 2914 
Q 2772 3150 2772 3378 
Q 2772 3750 2511 3984 
Q 2250 4219 1831 4219 
Q 1534 4219 1204 4116 
Q 875 4013 500 3803 
L 500 4441 
Q 881 4594 1212 4672 
Q 1544 4750 1819 4750 
Q 2544 4750 2975 4387 
Q 3406 4025 3406 3419 
Q 3406 3131 3298 2873 
Q 3191 2616 2906 2266 
Q 2828 2175 2409 1742 
Q 1991 1309 1228 531 
z
" id="DejaVuSans-32" transform="scale(0.015625)"/>
       </defs>
       <use xlink:href="#DejaVuSans-32"/>
       <use x="63.623047" xlink:href="#DejaVuSans-30"/>
      </g>
     </g>
    </g>
    <g id="xtick_6">
     <g id="line2d_11">
      <path clip-path="url(#p45528ceb69)" d="M 486.177033 320.4 
L 486.177033 43.2 
" style="fill:none;stroke:#b0b0b0;stroke-linecap:square;stroke-width:0.8;"/>
     </g>
     <g id="line2d_12">
      <g>
       <use style="stroke:#000000;stroke-width:0.8;" x="486.177033" xlink:href="#m3d056f2ae2" y="320.4"/>
      </g>
     </g>
     <g id="text_6">
      <!-- 25 -->
      <g transform="translate(479.814533 334.998438)scale(0.1 -0.1)">
       <use xlink:href="#DejaVuSans-32"/>
       <use x="63.623047" xlink:href="#DejaVuSans-35"/>
      </g>
     </g>
    </g>
    <g id="xtick_7">
     <g id="line2d_13">
      <path clip-path="url(#p45528ceb69)" d="M 560.339713 320.4 
L 560.339713 43.2 
" style="fill:none;stroke:#b0b0b0;stroke-linecap:square;stroke-width:0.8;"/>
     </g>
     <g id="line2d_14">
      <g>
       <use style="stroke:#000000;stroke-width:0.8;" x="560.339713" xlink:href="#m3d056f2ae2" y="320.4"/>
      </g>
     </g>
     <g id="text_7">
      <!-- 30 -->
      <g transform="translate(553.977213 334.998438)scale(0.1 -0.1)">
       <defs>
        <path d="M 2597 2516 
Q 3050 2419 3304 2112 
Q 3559 1806 3559 1356 
Q 3559 666 3084 287 
Q 2609 -91 1734 -91 
Q 1441 -91 1130 -33 
Q 819 25 488 141 
L 488 750 
Q 750 597 1062 519 
Q 1375 441 1716 441 
Q 2309 441 2620 675 
Q 2931 909 2931 1356 
Q 2931 1769 2642 2001 
Q 2353 2234 1838 2234 
L 1294 2234 
L 1294 2753 
L 1863 2753 
Q 2328 2753 2575 2939 
Q 2822 3125 2822 3475 
Q 2822 3834 2567 4026 
Q 2313 4219 1838 4219 
Q 1578 4219 1281 4162 
Q 984 4106 628 3988 
L 628 4550 
Q 988 4650 1302 4700 
Q 1616 4750 1894 4750 
Q 2613 4750 3031 4423 
Q 3450 4097 3450 3541 
Q 3450 3153 3228 2886 
Q 3006 2619 2597 2516 
z
" id="DejaVuSans-33" transform="scale(0.015625)"/>
       </defs>
       <use xlink:href="#DejaVuSans-33"/>
       <use x="63.623047" xlink:href="#DejaVuSans-30"/>
      </g>
     </g>
    </g>
    <g id="xtick_8">
     <g id="line2d_15">
      <path clip-path="url(#p45528ceb69)" d="M 634.502392 320.4 
L 634.502392 43.2 
" style="fill:none;stroke:#b0b0b0;stroke-linecap:square;stroke-width:0.8;"/>
     </g>
     <g id="line2d_16">
      <g>
       <use style="stroke:#000000;stroke-width:0.8;" x="634.502392" xlink:href="#m3d056f2ae2" y="320.4"/>
      </g>
     </g>
     <g id="text_8">
      <!-- 35 -->
      <g transform="translate(628.139892 334.998438)scale(0.1 -0.1)">
       <use xlink:href="#DejaVuSans-33"/>
       <use x="63.623047" xlink:href="#DejaVuSans-35"/>
      </g>
     </g>
    </g>
    <g id="text_9">
     <!-- Distance [km] -->
     <g transform="translate(333.88125 348.676562)scale(0.1 -0.1)">
      <defs>
       <path d="M 1259 4147 
L 1259 519 
L 2022 519 
Q 2988 519 3436 956 
Q 3884 1394 3884 2338 
Q 3884 3275 3436 3711 
Q 2988 4147 2022 4147 
L 1259 4147 
z
M 628 4666 
L 1925 4666 
Q 3281 4666 3915 4102 
Q 4550 3538 4550 2338 
Q 4550 1131 3912 565 
Q 3275 0 1925 0 
L 628 0 
L 628 4666 
z
" id="DejaVuSans-44" transform="scale(0.015625)"/>
       <path d="M 603 3500 
L 1178 3500 
L 1178 0 
L 603 0 
L 603 3500 
z
M 603 4863 
L 1178 4863 
L 1178 4134 
L 603 4134 
L 603 4863 
z
" id="DejaVuSans-69" transform="scale(0.015625)"/>
       <path d="M 2834 3397 
L 2834 2853 
Q 2591 2978 2328 3040 
Q 2066 3103 1784 3103 
Q 1356 3103 1142 2972 
Q 928 2841 928 2578 
Q 928 2378 1081 2264 
Q 1234 2150 1697 2047 
L 1894 2003 
Q 2506 1872 2764 1633 
Q 3022 1394 3022 966 
Q 3022 478 2636 193 
Q 2250 -91 1575 -91 
Q 1294 -91 989 -36 
Q 684 19 347 128 
L 347 722 
Q 666 556 975 473 
Q 1284 391 1588 391 
Q 1994 391 2212 530 
Q 2431 669 2431 922 
Q 2431 1156 2273 1281 
Q 2116 1406 1581 1522 
L 1381 1569 
Q 847 1681 609 1914 
Q 372 2147 372 2553 
Q 372 3047 722 3315 
Q 1072 3584 1716 3584 
Q 2034 3584 2315 3537 
Q 2597 3491 2834 3397 
z
" id="DejaVuSans-73" transform="scale(0.015625)"/>
       <path d="M 1172 4494 
L 1172 3500 
L 2356 3500 
L 2356 3053 
L 1172 3053 
L 1172 1153 
Q 1172 725 1289 603 
Q 1406 481 1766 481 
L 2356 481 
L 2356 0 
L 1766 0 
Q 1100 0 847 248 
Q 594 497 594 1153 
L 594 3053 
L 172 3053 
L 172 3500 
L 594 3500 
L 594 4494 
L 1172 4494 
z
" id="DejaVuSans-74" transform="scale(0.015625)"/>
       <path d="M 2194 1759 
Q 1497 1759 1228 1600 
Q 959 1441 959 1056 
Q 959 750 1161 570 
Q 1363 391 1709 391 
Q 2188 391 2477 730 
Q 2766 1069 2766 1631 
L 2766 1759 
L 2194 1759 
z
M 3341 1997 
L 3341 0 
L 2766 0 
L 2766 531 
Q 2569 213 2275 61 
Q 1981 -91 1556 -91 
Q 1019 -91 701 211 
Q 384 513 384 1019 
Q 384 1609 779 1909 
Q 1175 2209 1959 2209 
L 2766 2209 
L 2766 2266 
Q 2766 2663 2505 2880 
Q 2244 3097 1772 3097 
Q 1472 3097 1187 3025 
Q 903 2953 641 2809 
L 641 3341 
Q 956 3463 1253 3523 
Q 1550 3584 1831 3584 
Q 2591 3584 2966 3190 
Q 3341 2797 3341 1997 
z
" id="DejaVuSans-61" transform="scale(0.015625)"/>
       <path d="M 3513 2113 
L 3513 0 
L 2938 0 
L 2938 2094 
Q 2938 2591 2744 2837 
Q 2550 3084 2163 3084 
Q 1697 3084 1428 2787 
Q 1159 2491 1159 1978 
L 1159 0 
L 581 0 
L 581 3500 
L 1159 3500 
L 1159 2956 
Q 1366 3272 1645 3428 
Q 1925 3584 2291 3584 
Q 2894 3584 3203 3211 
Q 3513 2838 3513 2113 
z
" id="DejaVuSans-6e" transform="scale(0.015625)"/>
       <path d="M 3122 3366 
L 3122 2828 
Q 2878 2963 2633 3030 
Q 2388 3097 2138 3097 
Q 1578 3097 1268 2742 
Q 959 2388 959 1747 
Q 959 1106 1268 751 
Q 1578 397 2138 397 
Q 2388 397 2633 464 
Q 2878 531 3122 666 
L 3122 134 
Q 2881 22 2623 -34 
Q 2366 -91 2075 -91 
Q 1284 -91 818 406 
Q 353 903 353 1747 
Q 353 2603 823 3093 
Q 1294 3584 2113 3584 
Q 2378 3584 2631 3529 
Q 2884 3475 3122 3366 
z
" id="DejaVuSans-63" transform="scale(0.015625)"/>
       <path d="M 3597 1894 
L 3597 1613 
L 953 1613 
Q 991 1019 1311 708 
Q 1631 397 2203 397 
Q 2534 397 2845 478 
Q 3156 559 3463 722 
L 3463 178 
Q 3153 47 2828 -22 
Q 2503 -91 2169 -91 
Q 1331 -91 842 396 
Q 353 884 353 1716 
Q 353 2575 817 3079 
Q 1281 3584 2069 3584 
Q 2775 3584 3186 3129 
Q 3597 2675 3597 1894 
z
M 3022 2063 
Q 3016 2534 2758 2815 
Q 2500 3097 2075 3097 
Q 1594 3097 1305 2825 
Q 1016 2553 972 2059 
L 3022 2063 
z
" id="DejaVuSans-65" transform="scale(0.015625)"/>
       <path id="DejaVuSans-20" transform="scale(0.015625)"/>
       <path d="M 550 4863 
L 1875 4863 
L 1875 4416 
L 1125 4416 
L 1125 -397 
L 1875 -397 
L 1875 -844 
L 550 -844 
L 550 4863 
z
" id="DejaVuSans-5b" transform="scale(0.015625)"/>
       <path d="M 581 4863 
L 1159 4863 
L 1159 1991 
L 2875 3500 
L 3609 3500 
L 1753 1863 
L 3688 0 
L 2938 0 
L 1159 1709 
L 1159 0 
L 581 0 
L 581 4863 
z
" id="DejaVuSans-6b" transform="scale(0.015625)"/>
       <path d="M 3328 2828 
Q 3544 3216 3844 3400 
Q 4144 3584 4550 3584 
Q 5097 3584 5394 3201 
Q 5691 2819 5691 2113 
L 5691 0 
L 5113 0 
L 5113 2094 
Q 5113 2597 4934 2840 
Q 4756 3084 4391 3084 
Q 3944 3084 3684 2787 
Q 3425 2491 3425 1978 
L 3425 0 
L 2847 0 
L 2847 2094 
Q 2847 2600 2669 2842 
Q 2491 3084 2119 3084 
Q 1678 3084 1418 2786 
Q 1159 2488 1159 1978 
L 1159 0 
L 581 0 
L 581 3500 
L 1159 3500 
L 1159 2956 
Q 1356 3278 1631 3431 
Q 1906 3584 2284 3584 
Q 2666 3584 2933 3390 
Q 3200 3197 3328 2828 
z
" id="DejaVuSans-6d" transform="scale(0.015625)"/>
       <path d="M 1947 4863 
L 1947 -844 
L 622 -844 
L 622 -397 
L 1369 -397 
L 1369 4416 
L 622 4416 
L 622 4863 
L 1947 4863 
z
" id="DejaVuSans-5d" transform="scale(0.015625)"/>
      </defs>
      <use xlink:href="#DejaVuSans-44"/>
      <use x="77.001953" xlink:href="#DejaVuSans-69"/>
      <use x="104.785156" xlink:href="#DejaVuSans-73"/>
      <use x="156.884766" xlink:href="#DejaVuSans-74"/>
      <use x="196.09375" xlink:href="#DejaVuSans-61"/>
      <use x="257.373047" xlink:href="#DejaVuSans-6e"/>
      <use x="320.751953" xlink:href="#DejaVuSans-63"/>
      <use x="375.732422" xlink:href="#DejaVuSans-65"/>
      <use x="437.255859" xlink:href="#DejaVuSans-20"/>
      <use x="469.042969" xlink:href="#DejaVuSans-5b"/>
      <use x="508.056641" xlink:href="#DejaVuSans-6b"/>
      <use x="565.966797" xlink:href="#DejaVuSans-6d"/>
      <use x="663.378906" xlink:href="#DejaVuSans-5d"/>
     </g>
    </g>
   </g>
   <g id="matplotlib.axis_2">
    <g id="ytick_1">
     <g id="line2d_17">
      <path clip-path="url(#p45528ceb69)" d="M 90 310.520183 
L 648 310.520183 
" style="fill:none;stroke:#b0b0b0;stroke-linecap:square;stroke-width:0.8;"/>
     </g>
     <g id="line2d_18">
      <defs>
       <path d="M 0 0 
L -3.5 0 
" id="mbb3ecda585" style="stroke:#000000;stroke-width:0.8;"/>
      </defs>
      <g>
       <use style="stroke:#000000;stroke-width:0.8;" x="90" xlink:href="#mbb3ecda585" y="310.520183"/>
      </g>
     </g>
     <g id="text_10">
      <!-- 50 -->
      <g transform="translate(70.275 314.319402)scale(0.1 -0.1)">
       <use xlink:href="#DejaVuSans-35"/>
       <use x="63.623047" xlink:href="#DejaVuSans-30"/>
      </g>
     </g>
    </g>
    <g id="ytick_2">
     <g id="line2d_19">
      <path clip-path="url(#p45528ceb69)" d="M 90 276.752668 
L 648 276.752668 
" style="fill:none;stroke:#b0b0b0;stroke-linecap:square;stroke-width:0.8;"/>
     </g>
     <g id="line2d_20">
      <g>
       <use style="stroke:#000000;stroke-width:0.8;" x="90" xlink:href="#mbb3ecda585" y="276.752668"/>
      </g>
     </g>
     <g id="text_11">
      <!-- 100 -->
      <g transform="translate(63.9125 280.551887)scale(0.1 -0.1)">
       <use xlink:href="#DejaVuSans-31"/>
       <use x="63.623047" xlink:href="#DejaVuSans-30"/>
       <use x="127.246094" xlink:href="#DejaVuSans-30"/>
      </g>
     </g>
    </g>
    <g id="ytick_3">
     <g id="line2d_21">
      <path clip-path="url(#p45528ceb69)" d="M 90 242.985153 
L 648 242.985153 
" style="fill:none;stroke:#b0b0b0;stroke-linecap:square;stroke-width:0.8;"/>
     </g>
     <g id="line2d_22">
      <g>
       <use style="stroke:#000000;stroke-width:0.8;" x="90" xlink:href="#mbb3ecda585" y="242.985153"/>
      </g>
     </g>
     <g id="text_12">
      <!-- 150 -->
      <g transform="translate(63.9125 246.784371)scale(0.1 -0.1)">
       <use xlink:href="#DejaVuSans-31"/>
       <use x="63.623047" xlink:href="#DejaVuSans-35"/>
       <use x="127.246094" xlink:href="#DejaVuSans-30"/>
      </g>
     </g>
    </g>
    <g id="ytick_4">
     <g id="line2d_23">
      <path clip-path="url(#p45528ceb69)" d="M 90 209.217637 
L 648 209.217637 
" style="fill:none;stroke:#b0b0b0;stroke-linecap:square;stroke-width:0.8;"/>
     </g>
     <g id="line2d_24">
      <g>
       <use style="stroke:#000000;stroke-width:0.8;" x="90" xlink:href="#mbb3ecda585" y="209.217637"/>
      </g>
     </g>
     <g id="text_13">
      <!-- 200 -->
      <g transform="translate(63.9125 213.016856)scale(0.1 -0.1)">
       <use xlink:href="#DejaVuSans-32"/>
       <use x="63.623047" xlink:href="#DejaVuSans-30"/>
       <use x="127.246094" xlink:href="#DejaVuSans-30"/>
      </g>
     </g>
    </g>
    <g id="ytick_5">
     <g id="line2d_25">
      <path clip-path="url(#p45528ceb69)" d="M 90 175.450122 
L 648 175.450122 
" style="fill:none;stroke:#b0b0b0;stroke-linecap:square;stroke-width:0.8;"/>
     </g>
     <g id="line2d_26">
      <g>
       <use style="stroke:#000000;stroke-width:0.8;" x="90" xlink:href="#mbb3ecda585" y="175.450122"/>
      </g>
     </g>
     <g id="text_14">
      <!-- 250 -->
      <g transform="translate(63.9125 179.24934)scale(0.1 -0.1)">
       <use xlink:href="#DejaVuSans-32"/>
       <use x="63.623047" xlink:href="#DejaVuSans-35"/>
       <use x="127.246094" xlink:href="#DejaVuSans-30"/>
      </g>
     </g>
    </g>
    <g id="ytick_6">
     <g id="line2d_27">
      <path clip-path="url(#p45528ceb69)" d="M 90 141.682606 
L 648 141.682606 
" style="fill:none;stroke:#b0b0b0;stroke-linecap:square;stroke-width:0.8;"/>
     </g>
     <g id="line2d_28">
      <g>
       <use style="stroke:#000000;stroke-width:0.8;" x="90" xlink:href="#mbb3ecda585" y="141.682606"/>
      </g>
     </g>
     <g id="text_15">
      <!-- 300 -->
      <g transform="translate(63.9125 145.481825)scale(0.1 -0.1)">
       <use xlink:href="#DejaVuSans-33"/>
       <use x="63.623047" xlink:href="#DejaVuSans-30"/>
       <use x="127.246094" xlink:href="#DejaVuSans-30"/>
      </g>
     </g>
    </g>
    <g id="ytick_7">
     <g id="line2d_29">
      <path clip-path="url(#p45528ceb69)" d="M 90 107.915091 
L 648 107.915091 
" style="fill:none;stroke:#b0b0b0;stroke-linecap:square;stroke-width:0.8;"/>
     </g>
     <g id="line2d_30">
      <g>
       <use style="stroke:#000000;stroke-width:0.8;" x="90" xlink:href="#mbb3ecda585" y="107.915091"/>
      </g>
     </g>
     <g id="text_16">
      <!-- 350 -->
      <g transform="translate(63.9125 111.714309)scale(0.1 -0.1)">
       <use xlink:href="#DejaVuSans-33"/>
       <use x="63.623047" xlink:href="#DejaVuSans-35"/>
       <use x="127.246094" xlink:href="#DejaVuSans-30"/>
      </g>
     </g>
    </g>
    <g id="ytick_8">
     <g id="line2d_31">
      <path clip-path="url(#p45528ceb69)" d="M 90 74.147575 
L 648 74.147575 
" style="fill:none;stroke:#b0b0b0;stroke-linecap:square;stroke-width:0.8;"/>
     </g>
     <g id="line2d_32">
      <g>
       <use style="stroke:#000000;stroke-width:0.8;" x="90" xlink:href="#mbb3ecda585" y="74.147575"/>
      </g>
     </g>
     <g id="text_17">
      <!-- 400 -->
      <g transform="translate(63.9125 77.946794)scale(0.1 -0.1)">
       <defs>
        <path d="M 2419 4116 
L 825 1625 
L 2419 1625 
L 2419 4116 
z
M 2253 4666 
L 3047 4666 
L 3047 1625 
L 3713 1625 
L 3713 1100 
L 3047 1100 
L 3047 0 
L 2419 0 
L 2419 1100 
L 313 1100 
L 313 1709 
L 2253 4666 
z
" id="DejaVuSans-34" transform="scale(0.015625)"/>
       </defs>
       <use xlink:href="#DejaVuSans-34"/>
       <use x="63.623047" xlink:href="#DejaVuSans-30"/>
       <use x="127.246094" xlink:href="#DejaVuSans-30"/>
      </g>
     </g>
    </g>
    <g id="text_18">
     <!-- Height [m] -->
     <g transform="translate(57.832812 208.689844)rotate(-90)scale(0.1 -0.1)">
      <defs>
       <path d="M 628 4666 
L 1259 4666 
L 1259 2753 
L 3553 2753 
L 3553 4666 
L 4184 4666 
L 4184 0 
L 3553 0 
L 3553 2222 
L 1259 2222 
L 1259 0 
L 628 0 
L 628 4666 
z
" id="DejaVuSans-48" transform="scale(0.015625)"/>
       <path d="M 2906 1791 
Q 2906 2416 2648 2759 
Q 2391 3103 1925 3103 
Q 1463 3103 1205 2759 
Q 947 2416 947 1791 
Q 947 1169 1205 825 
Q 1463 481 1925 481 
Q 2391 481 2648 825 
Q 2906 1169 2906 1791 
z
M 3481 434 
Q 3481 -459 3084 -895 
Q 2688 -1331 1869 -1331 
Q 1566 -1331 1297 -1286 
Q 1028 -1241 775 -1147 
L 775 -588 
Q 1028 -725 1275 -790 
Q 1522 -856 1778 -856 
Q 2344 -856 2625 -561 
Q 2906 -266 2906 331 
L 2906 616 
Q 2728 306 2450 153 
Q 2172 0 1784 0 
Q 1141 0 747 490 
Q 353 981 353 1791 
Q 353 2603 747 3093 
Q 1141 3584 1784 3584 
Q 2172 3584 2450 3431 
Q 2728 3278 2906 2969 
L 2906 3500 
L 3481 3500 
L 3481 434 
z
" id="DejaVuSans-67" transform="scale(0.015625)"/>
       <path d="M 3513 2113 
L 3513 0 
L 2938 0 
L 2938 2094 
Q 2938 2591 2744 2837 
Q 2550 3084 2163 3084 
Q 1697 3084 1428 2787 
Q 1159 2491 1159 1978 
L 1159 0 
L 581 0 
L 581 4863 
L 1159 4863 
L 1159 2956 
Q 1366 3272 1645 3428 
Q 1925 3584 2291 3584 
Q 2894 3584 3203 3211 
Q 3513 2838 3513 2113 
z
" id="DejaVuSans-68" transform="scale(0.015625)"/>
      </defs>
      <use xlink:href="#DejaVuSans-48"/>
      <use x="75.195312" xlink:href="#DejaVuSans-65"/>
      <use x="136.71875" xlink:href="#DejaVuSans-69"/>
      <use x="164.501953" xlink:href="#DejaVuSans-67"/>
      <use x="227.978516" xlink:href="#DejaVuSans-68"/>
      <use x="291.357422" xlink:href="#DejaVuSans-74"/>
      <use x="330.566406" xlink:href="#DejaVuSans-20"/>
      <use x="362.353516" xlink:href="#DejaVuSans-5b"/>
      <use x="401.367188" xlink:href="#DejaVuSans-6d"/>
      <use x="498.779297" xlink:href="#DejaVuSans-5d"/>
     </g>
    </g>
   </g>
   <g id="line2d_33">
    <path clip-path="url(#p45528ceb69)" d="M 115.363636 109.297506 
L 116.84689 102.846375 
L 118.330144 86.878346 
L 119.813397 79.736267 
L 121.296651 78.579842 
L 122.779904 82.305875 
L 124.263158 89.085915 
L 125.746411 96.401023 
L 127.229665 101.963162 
L 128.712919 109.074211 
L 130.196172 120.799929 
L 131.679426 135.75603 
L 133.162679 142.988219 
L 134.645933 132.95091 
L 136.129187 119.685323 
L 137.61244 99.866556 
L 139.095694 78.1565 
L 140.578947 68.482475 
L 143.545455 55.8 
L 145.028708 60.328146 
L 146.511962 71.970674 
L 147.995215 80.617821 
L 149.478469 85.542786 
L 150.961722 89.880074 
L 152.444976 92.636158 
L 153.92823 94.043126 
L 155.411483 96.403481 
L 156.894737 98.041662 
L 158.37799 96.977896 
L 159.861244 96.459646 
L 161.344498 94.456434 
L 164.311005 79.833817 
L 165.794258 78.396321 
L 168.760766 79.623029 
L 170.244019 76.755205 
L 171.727273 71.901383 
L 173.210526 67.765178 
L 176.177033 63.098146 
L 177.660287 58.477191 
L 179.143541 57.69207 
L 180.626794 60.992965 
L 182.110048 62.678883 
L 183.593301 66.036757 
L 185.076555 71.829023 
L 186.559809 73.433064 
L 188.043062 75.719395 
L 189.526316 75.588715 
L 191.009569 78.41805 
L 193.976077 90.364386 
L 195.45933 90.900537 
L 196.942584 91.572365 
L 198.425837 99.350433 
L 199.909091 112.349495 
L 201.392344 122.141743 
L 202.875598 127.765275 
L 205.842105 142.993975 
L 207.325359 149.525025 
L 208.808612 157.370855 
L 210.291866 159.052337 
L 211.77512 150.640807 
L 213.258373 145.162539 
L 214.741627 142.842662 
L 216.22488 137.819132 
L 217.708134 133.881191 
L 219.191388 129.278547 
L 220.674641 121.069204 
L 223.641148 95.182572 
L 225.124402 87.687636 
L 226.607656 86.462173 
L 228.090909 89.765953 
L 229.574163 96.104824 
L 231.057416 103.285004 
L 232.54067 109.181905 
L 234.023923 114.121221 
L 235.507177 116.803352 
L 238.473684 123.159686 
L 239.956938 124.137727 
L 241.440191 123.099328 
L 242.923445 121.402109 
L 244.406699 117.893303 
L 245.889952 117.24292 
L 247.373206 122.278534 
L 248.856459 126.104218 
L 250.339713 128.250049 
L 253.30622 133.212472 
L 254.789474 135.043424 
L 259.239234 139.467597 
L 260.722488 139.427741 
L 262.205742 140.699215 
L 263.688995 144.663474 
L 265.172249 147.608354 
L 266.655502 149.154279 
L 268.138756 150.524443 
L 269.62201 151.492873 
L 271.105263 153.608186 
L 272.588517 156.488173 
L 274.07177 158.947468 
L 275.555024 161.836401 
L 277.038278 161.993972 
L 278.521531 159.239165 
L 280.004785 152.022002 
L 281.488038 150.320918 
L 282.971292 153.257477 
L 284.454545 150.480454 
L 285.937799 148.320619 
L 287.421053 149.059918 
L 288.904306 154.437474 
L 290.38756 157.659871 
L 291.870813 159.697896 
L 293.354067 162.563509 
L 294.837321 165.989096 
L 296.320574 168.686908 
L 297.803828 172.348163 
L 300.770335 181.379645 
L 302.253589 184.667543 
L 303.736842 189.252767 
L 305.220096 192.414829 
L 306.703349 192.872588 
L 308.186603 192.37415 
L 311.15311 188.529556 
L 312.636364 186.998722 
L 314.119617 184.373941 
L 315.602871 182.834311 
L 317.086124 185.834645 
L 318.569378 184.836887 
L 320.052632 184.53696 
L 321.535885 184.552906 
L 323.019139 184.312515 
L 324.502392 185.144588 
L 327.4689 189.003984 
L 328.952153 190.239761 
L 330.435407 191.014046 
L 331.91866 190.44368 
L 333.401914 190.848815 
L 334.885167 191.887992 
L 336.368421 192.454378 
L 337.851675 194.021675 
L 339.334928 194.918769 
L 340.818182 195.47676 
L 342.301435 196.646096 
L 343.784689 196.632416 
L 345.267943 197.315197 
L 346.751196 197.199455 
L 348.23445 198.002258 
L 349.717703 199.268693 
L 351.200957 198.801363 
L 352.684211 197.625536 
L 354.167464 197.44215 
L 357.133971 196.453918 
L 358.617225 197.062063 
L 360.100478 196.528728 
L 363.066986 194.662962 
L 364.550239 192.932735 
L 367.516746 191.733053 
L 369 192.118078 
L 370.483254 191.900949 
L 371.966507 192.103919 
L 373.449761 191.389424 
L 374.933014 191.4866 
L 379.382775 193.40683 
L 380.866029 194.301267 
L 385.315789 200.563951 
L 389.76555 205.451284 
L 392.732057 210.04816 
L 394.215311 212.092002 
L 395.698565 214.381106 
L 397.181818 216.919134 
L 398.665072 220.054411 
L 401.631579 228.112737 
L 403.114833 231.824782 
L 404.598086 233.758368 
L 406.08134 233.370445 
L 407.564593 229.477942 
L 409.047847 226.562299 
L 410.5311 225.032271 
L 412.014354 223.113624 
L 413.497608 221.964976 
L 414.980861 218.438497 
L 416.464115 214.366908 
L 417.947368 209.953048 
L 419.430622 203.985273 
L 425.363636 182.85926 
L 426.84689 182.777739 
L 428.330144 187.597041 
L 429.813397 193.053123 
L 431.296651 195.468838 
L 432.779904 200.569741 
L 434.263158 202.922414 
L 435.746411 204.340573 
L 437.229665 207.853515 
L 438.712919 212.272772 
L 443.162679 232.148572 
L 444.645933 235.221969 
L 446.129187 235.606828 
L 447.61244 239.827594 
L 449.095694 242.997255 
L 450.578947 243.455988 
L 452.062201 248.050052 
L 453.545455 253.536753 
L 455.028708 257.446326 
L 456.511962 260.433478 
L 459.478469 269.77384 
L 460.961722 273.636545 
L 462.444976 276.224287 
L 463.92823 278.577574 
L 465.411483 281.88987 
L 466.894737 282.370044 
L 468.37799 270.075243 
L 469.861244 264.948412 
L 471.344498 273.632226 
L 472.827751 269.886883 
L 474.311005 252.380138 
L 475.794258 239.81673 
L 477.277512 235.647475 
L 478.760766 241.951693 
L 480.244019 252.646295 
L 481.727273 269.409636 
L 483.210526 291.807676 
L 484.69378 304.336574 
L 486.177033 307.56374 
L 487.660287 307.8 
L 489.143541 307.212456 
L 490.626794 305.979049 
L 492.110048 306.338764 
L 493.593301 304.956424 
L 495.076555 301.56535 
L 496.559809 299.423765 
L 498.043062 296.015038 
L 499.526316 290.967687 
L 501.009569 289.377002 
L 502.492823 288.155185 
L 503.976077 279.873815 
L 505.45933 264.026465 
L 506.942584 252.339887 
L 508.425837 249.568838 
L 509.909091 250.197594 
L 511.392344 240.478829 
L 512.875598 227.898613 
L 514.358852 222.830629 
L 515.842105 223.038999 
L 517.325359 217.722431 
L 518.808612 217.47451 
L 521.77512 233.437318 
L 523.258373 239.258893 
L 524.741627 242.9217 
L 526.22488 241.11137 
L 527.708134 243.879047 
L 529.191388 249.621682 
L 530.674641 243.858445 
L 532.157895 239.107665 
L 533.641148 233.510029 
L 535.124402 223.388739 
L 536.607656 214.128762 
L 538.090909 211.811051 
L 539.574163 205.714835 
L 541.057416 190.573341 
L 542.54067 171.360103 
L 544.023923 161.96573 
L 545.507177 159.17965 
L 546.990431 153.633457 
L 549.956938 134.714321 
L 551.440191 128.814907 
L 552.923445 127.318333 
L 554.406699 136.977433 
L 555.889952 149.940503 
L 557.373206 143.917358 
L 558.856459 131.151513 
L 560.339713 121.660226 
L 561.822967 119.513341 
L 564.789474 123.489875 
L 566.272727 122.881141 
L 567.755981 117.975163 
L 569.239234 111.740099 
L 570.722488 104.337173 
L 572.205742 95.592701 
L 573.688995 90.326761 
L 575.172249 85.955709 
L 576.655502 78.738023 
L 578.138756 70.015468 
L 579.62201 63.837375 
L 581.105263 71.292866 
L 584.07177 77.041623 
L 585.555024 85.607999 
L 587.038278 91.063115 
L 588.521531 97.299874 
L 592.971292 114.686399 
L 594.454545 117.499721 
L 595.937799 121.999825 
L 600.38756 143.083874 
L 601.870813 146.948021 
L 603.354067 148.148271 
L 604.837321 148.087946 
L 606.320574 148.929701 
L 607.803828 152.00397 
L 609.287081 156.715468 
L 610.770335 163.406129 
L 612.253589 163.513527 
L 613.736842 154.689576 
L 615.220096 143.748684 
L 616.703349 139.556379 
L 618.186603 142.936942 
L 619.669856 149.08364 
L 621.15311 156.482111 
L 622.636364 160.731988 
L 622.636364 160.731988 
" style="fill:none;stroke:#000000;stroke-linecap:square;stroke-width:1.5;"/>
   </g>
   <g id="patch_3">
    <path d="M 90 320.4 
L 90 43.2 
" style="fill:none;stroke:#000000;stroke-linecap:square;stroke-linejoin:miter;stroke-width:0.8;"/>
   </g>
   <g id="patch_4">
    <path d="M 648 320.4 
L 648 43.2 
" style="fill:none;stroke:#000000;stroke-linecap:square;stroke-linejoin:miter;stroke-width:0.8;"/>
   </g>
   <g id="patch_5">
    <path d="M 90 320.4 
L 648 320.4 
" style="fill:none;stroke:#000000;stroke-linecap:square;stroke-linejoin:miter;stroke-width:0.8;"/>
   </g>
   <g id="patch_6">
    <path d="M 90 43.2 
L 648 43.2 
" style="fill:none;stroke:#000000;stroke-linecap:square;stroke-linejoin:miter;stroke-width:0.8;"/>
   </g>
  </g>
 </g>
 <defs>
  <clipPath id="p45528ceb69">
   <rect height="277.2" width="558" x="90" y="43.2"/>
  </clipPath>
 </defs>
</svg>
