<?xml version="1.0" encoding="utf-8" standalone="no"?>
<!DOCTYPE svg PUBLIC "-//W3C//DTD SVG 1.1//EN"
  "http://www.w3.org/Graphics/SVG/1.1/DTD/svg11.dtd">
<!-- Created with matplotlib (https://matplotlib.org/) -->
<svg height="576pt" version="1.1" viewBox="0 0 576 576" width="576pt" xmlns="http://www.w3.org/2000/svg" xmlns:xlink="http://www.w3.org/1999/xlink">
 <defs>
  <style type="text/css">
*{stroke-linecap:butt;stroke-linejoin:round;white-space:pre;}
  </style>
 </defs>
 <g id="figure_1">
  <g id="patch_1">
   <path d="M 0 576 
L 576 576 
L 576 0 
L 0 0 
z
" style="fill:#ffffff;"/>
  </g>
  <g id="axes_1">
   <g id="patch_2">
    <path d="M 72 512.64 
L 518.4 512.64 
L 518.4 69.12 
L 72 69.12 
z
" style="fill:#ffffff;"/>
   </g>
   <g id="matplotlib.axis_1">
    <g id="xtick_1">
     <g id="line2d_1">
      <path clip-path="url(#p279ada9b1c)" d="M 72 512.64 
L 72 69.12 
" style="fill:none;stroke:#b0b0b0;stroke-linecap:square;stroke-width:0.8;"/>
     </g>
     <g id="line2d_2">
      <defs>
       <path d="M 0 0 
L 0 3.5 
" id="me94754f26b" style="stroke:#000000;stroke-width:0.8;"/>
      </defs>
      <g>
       <use style="stroke:#000000;stroke-width:0.8;" x="72" xlink:href="#me94754f26b" y="512.64"/>
      </g>
     </g>
     <g id="text_1">
      <!-- $\mathdefault{10^{-3}}$ -->
      <defs>
       <path d="M 12.40625 8.296875 
L 28.515625 8.296875 
L 28.515625 63.921875 
L 10.984375 60.40625 
L 10.984375 69.390625 
L 28.421875 72.90625 
L 38.28125 72.90625 
L 38.28125 8.296875 
L 54.390625 8.296875 
L 54.390625 0 
L 12.40625 0 
z
" id="DejaVuSans-49"/>
       <path d="M 31.78125 66.40625 
Q 24.171875 66.40625 20.328125 58.90625 
Q 16.5 51.421875 16.5 36.375 
Q 16.5 21.390625 20.328125 13.890625 
Q 24.171875 6.390625 31.78125 6.390625 
Q 39.453125 6.390625 43.28125 13.890625 
Q 47.125 21.390625 47.125 36.375 
Q 47.125 51.421875 43.28125 58.90625 
Q 39.453125 66.40625 31.78125 66.40625 
z
M 31.78125 74.21875 
Q 44.046875 74.21875 50.515625 64.515625 
Q 56.984375 54.828125 56.984375 36.375 
Q 56.984375 17.96875 50.515625 8.265625 
Q 44.046875 -1.421875 31.78125 -1.421875 
Q 19.53125 -1.421875 13.0625 8.265625 
Q 6.59375 17.96875 6.59375 36.375 
Q 6.59375 54.828125 13.0625 64.515625 
Q 19.53125 74.21875 31.78125 74.21875 
z
" id="DejaVuSans-48"/>
       <path d="M 10.59375 35.5 
L 73.1875 35.5 
L 73.1875 27.203125 
L 10.59375 27.203125 
z
" id="DejaVuSans-8722"/>
       <path d="M 40.578125 39.3125 
Q 47.65625 37.796875 51.625 33 
Q 55.609375 28.21875 55.609375 21.1875 
Q 55.609375 10.40625 48.1875 4.484375 
Q 40.765625 -1.421875 27.09375 -1.421875 
Q 22.515625 -1.421875 17.65625 -0.515625 
Q 12.796875 0.390625 7.625 2.203125 
L 7.625 11.71875 
Q 11.71875 9.328125 16.59375 8.109375 
Q 21.484375 6.890625 26.8125 6.890625 
Q 36.078125 6.890625 40.9375 10.546875 
Q 45.796875 14.203125 45.796875 21.1875 
Q 45.796875 27.640625 41.28125 31.265625 
Q 36.765625 34.90625 28.71875 34.90625 
L 20.21875 34.90625 
L 20.21875 43.015625 
L 29.109375 43.015625 
Q 36.375 43.015625 40.234375 45.921875 
Q 44.09375 48.828125 44.09375 54.296875 
Q 44.09375 59.90625 40.109375 62.90625 
Q 36.140625 65.921875 28.71875 65.921875 
Q 24.65625 65.921875 20.015625 65.03125 
Q 15.375 64.15625 9.8125 62.3125 
L 9.8125 71.09375 
Q 15.4375 72.65625 20.34375 73.4375 
Q 25.25 74.21875 29.59375 74.21875 
Q 40.828125 74.21875 47.359375 69.109375 
Q 53.90625 64.015625 53.90625 55.328125 
Q 53.90625 49.265625 50.4375 45.09375 
Q 46.96875 40.921875 40.578125 39.3125 
z
" id="DejaVuSans-51"/>
      </defs>
      <g transform="translate(60.25 527.238438)scale(0.1 -0.1)">
       <use transform="translate(0 0.765625)" xlink:href="#DejaVuSans-49"/>
       <use transform="translate(63.623047 0.765625)" xlink:href="#DejaVuSans-48"/>
       <use transform="translate(128.203125 39.046875)scale(0.7)" xlink:href="#DejaVuSans-8722"/>
       <use transform="translate(186.855469 39.046875)scale(0.7)" xlink:href="#DejaVuSans-51"/>
      </g>
     </g>
    </g>
    <g id="xtick_2">
     <g id="line2d_3">
      <path clip-path="url(#p279ada9b1c)" d="M 166.999542 512.64 
L 166.999542 69.12 
" style="fill:none;stroke:#b0b0b0;stroke-linecap:square;stroke-width:0.8;"/>
     </g>
     <g id="line2d_4">
      <g>
       <use style="stroke:#000000;stroke-width:0.8;" x="166.999542" xlink:href="#me94754f26b" y="512.64"/>
      </g>
     </g>
     <g id="text_2">
      <!-- $\mathdefault{10^{-2}}$ -->
      <defs>
       <path d="M 19.1875 8.296875 
L 53.609375 8.296875 
L 53.609375 0 
L 7.328125 0 
L 7.328125 8.296875 
Q 12.9375 14.109375 22.625 23.890625 
Q 32.328125 33.6875 34.8125 36.53125 
Q 39.546875 41.84375 41.421875 45.53125 
Q 43.3125 49.21875 43.3125 52.78125 
Q 43.3125 58.59375 39.234375 62.25 
Q 35.15625 65.921875 28.609375 65.921875 
Q 23.96875 65.921875 18.8125 64.3125 
Q 13.671875 62.703125 7.8125 59.421875 
L 7.8125 69.390625 
Q 13.765625 71.78125 18.9375 73 
Q 24.125 74.21875 28.421875 74.21875 
Q 39.75 74.21875 46.484375 68.546875 
Q 53.21875 62.890625 53.21875 53.421875 
Q 53.21875 48.921875 51.53125 44.890625 
Q 49.859375 40.875 45.40625 35.40625 
Q 44.1875 33.984375 37.640625 27.21875 
Q 31.109375 20.453125 19.1875 8.296875 
z
" id="DejaVuSans-50"/>
      </defs>
      <g transform="translate(155.249542 527.238438)scale(0.1 -0.1)">
       <use transform="translate(0 0.765625)" xlink:href="#DejaVuSans-49"/>
       <use transform="translate(63.623047 0.765625)" xlink:href="#DejaVuSans-48"/>
       <use transform="translate(128.203125 39.046875)scale(0.7)" xlink:href="#DejaVuSans-8722"/>
       <use transform="translate(186.855469 39.046875)scale(0.7)" xlink:href="#DejaVuSans-50"/>
      </g>
     </g>
    </g>
    <g id="xtick_3">
     <g id="line2d_5">
      <path clip-path="url(#p279ada9b1c)" d="M 261.999085 512.64 
L 261.999085 69.12 
" style="fill:none;stroke:#b0b0b0;stroke-linecap:square;stroke-width:0.8;"/>
     </g>
     <g id="line2d_6">
      <g>
       <use style="stroke:#000000;stroke-width:0.8;" x="261.999085" xlink:href="#me94754f26b" y="512.64"/>
      </g>
     </g>
     <g id="text_3">
      <!-- $\mathdefault{10^{-1}}$ -->
      <g transform="translate(250.249085 527.238438)scale(0.1 -0.1)">
       <use transform="translate(0 0.684375)" xlink:href="#DejaVuSans-49"/>
       <use transform="translate(63.623047 0.684375)" xlink:href="#DejaVuSans-48"/>
       <use transform="translate(128.203125 38.965625)scale(0.7)" xlink:href="#DejaVuSans-8722"/>
       <use transform="translate(186.855469 38.965625)scale(0.7)" xlink:href="#DejaVuSans-49"/>
      </g>
     </g>
    </g>
    <g id="xtick_4">
     <g id="line2d_7">
      <path clip-path="url(#p279ada9b1c)" d="M 356.998627 512.64 
L 356.998627 69.12 
" style="fill:none;stroke:#b0b0b0;stroke-linecap:square;stroke-width:0.8;"/>
     </g>
     <g id="line2d_8">
      <g>
       <use style="stroke:#000000;stroke-width:0.8;" x="356.998627" xlink:href="#me94754f26b" y="512.64"/>
      </g>
     </g>
     <g id="text_4">
      <!-- $\mathdefault{10^{0}}$ -->
      <g transform="translate(348.198627 527.238438)scale(0.1 -0.1)">
       <use transform="translate(0 0.765625)" xlink:href="#DejaVuSans-49"/>
       <use transform="translate(63.623047 0.765625)" xlink:href="#DejaVuSans-48"/>
       <use transform="translate(128.203125 39.046875)scale(0.7)" xlink:href="#DejaVuSans-48"/>
      </g>
     </g>
    </g>
    <g id="xtick_5">
     <g id="line2d_9">
      <path clip-path="url(#p279ada9b1c)" d="M 451.998169 512.64 
L 451.998169 69.12 
" style="fill:none;stroke:#b0b0b0;stroke-linecap:square;stroke-width:0.8;"/>
     </g>
     <g id="line2d_10">
      <g>
       <use style="stroke:#000000;stroke-width:0.8;" x="451.998169" xlink:href="#me94754f26b" y="512.64"/>
      </g>
     </g>
     <g id="text_5">
      <!-- $\mathdefault{10^{1}}$ -->
      <g transform="translate(443.198169 527.238438)scale(0.1 -0.1)">
       <use transform="translate(0 0.684375)" xlink:href="#DejaVuSans-49"/>
       <use transform="translate(63.623047 0.684375)" xlink:href="#DejaVuSans-48"/>
       <use transform="translate(128.203125 38.965625)scale(0.7)" xlink:href="#DejaVuSans-49"/>
      </g>
     </g>
    </g>
    <g id="xtick_6">
     <g id="line2d_11">
      <defs>
       <path d="M 0 0 
L 0 2 
" id="mbf35f12fa4" style="stroke:#000000;stroke-width:0.6;"/>
      </defs>
      <g>
       <use style="stroke:#000000;stroke-width:0.6;" x="100.597712" xlink:href="#mbf35f12fa4" y="512.64"/>
      </g>
     </g>
    </g>
    <g id="xtick_7">
     <g id="line2d_12">
      <g>
       <use style="stroke:#000000;stroke-width:0.6;" x="117.326301" xlink:href="#mbf35f12fa4" y="512.64"/>
      </g>
     </g>
    </g>
    <g id="xtick_8">
     <g id="line2d_13">
      <g>
       <use style="stroke:#000000;stroke-width:0.6;" x="129.195424" xlink:href="#mbf35f12fa4" y="512.64"/>
      </g>
     </g>
    </g>
    <g id="xtick_9">
     <g id="line2d_14">
      <g>
       <use style="stroke:#000000;stroke-width:0.6;" x="138.401831" xlink:href="#mbf35f12fa4" y="512.64"/>
      </g>
     </g>
    </g>
    <g id="xtick_10">
     <g id="line2d_15">
      <g>
       <use style="stroke:#000000;stroke-width:0.6;" x="145.924013" xlink:href="#mbf35f12fa4" y="512.64"/>
      </g>
     </g>
    </g>
    <g id="xtick_11">
     <g id="line2d_16">
      <g>
       <use style="stroke:#000000;stroke-width:0.6;" x="152.283927" xlink:href="#mbf35f12fa4" y="512.64"/>
      </g>
     </g>
    </g>
    <g id="xtick_12">
     <g id="line2d_17">
      <g>
       <use style="stroke:#000000;stroke-width:0.6;" x="157.793135" xlink:href="#mbf35f12fa4" y="512.64"/>
      </g>
     </g>
    </g>
    <g id="xtick_13">
     <g id="line2d_18">
      <g>
       <use style="stroke:#000000;stroke-width:0.6;" x="162.652602" xlink:href="#mbf35f12fa4" y="512.64"/>
      </g>
     </g>
    </g>
    <g id="xtick_14">
     <g id="line2d_19">
      <g>
       <use style="stroke:#000000;stroke-width:0.6;" x="195.597254" xlink:href="#mbf35f12fa4" y="512.64"/>
      </g>
     </g>
    </g>
    <g id="xtick_15">
     <g id="line2d_20">
      <g>
       <use style="stroke:#000000;stroke-width:0.6;" x="212.325843" xlink:href="#mbf35f12fa4" y="512.64"/>
      </g>
     </g>
    </g>
    <g id="xtick_16">
     <g id="line2d_21">
      <g>
       <use style="stroke:#000000;stroke-width:0.6;" x="224.194966" xlink:href="#mbf35f12fa4" y="512.64"/>
      </g>
     </g>
    </g>
    <g id="xtick_17">
     <g id="line2d_22">
      <g>
       <use style="stroke:#000000;stroke-width:0.6;" x="233.401373" xlink:href="#mbf35f12fa4" y="512.64"/>
      </g>
     </g>
    </g>
    <g id="xtick_18">
     <g id="line2d_23">
      <g>
       <use style="stroke:#000000;stroke-width:0.6;" x="240.923555" xlink:href="#mbf35f12fa4" y="512.64"/>
      </g>
     </g>
    </g>
    <g id="xtick_19">
     <g id="line2d_24">
      <g>
       <use style="stroke:#000000;stroke-width:0.6;" x="247.283469" xlink:href="#mbf35f12fa4" y="512.64"/>
      </g>
     </g>
    </g>
    <g id="xtick_20">
     <g id="line2d_25">
      <g>
       <use style="stroke:#000000;stroke-width:0.6;" x="252.792678" xlink:href="#mbf35f12fa4" y="512.64"/>
      </g>
     </g>
    </g>
    <g id="xtick_21">
     <g id="line2d_26">
      <g>
       <use style="stroke:#000000;stroke-width:0.6;" x="257.652144" xlink:href="#mbf35f12fa4" y="512.64"/>
      </g>
     </g>
    </g>
    <g id="xtick_22">
     <g id="line2d_27">
      <g>
       <use style="stroke:#000000;stroke-width:0.6;" x="290.596797" xlink:href="#mbf35f12fa4" y="512.64"/>
      </g>
     </g>
    </g>
    <g id="xtick_23">
     <g id="line2d_28">
      <g>
       <use style="stroke:#000000;stroke-width:0.6;" x="307.325386" xlink:href="#mbf35f12fa4" y="512.64"/>
      </g>
     </g>
    </g>
    <g id="xtick_24">
     <g id="line2d_29">
      <g>
       <use style="stroke:#000000;stroke-width:0.6;" x="319.194508" xlink:href="#mbf35f12fa4" y="512.64"/>
      </g>
     </g>
    </g>
    <g id="xtick_25">
     <g id="line2d_30">
      <g>
       <use style="stroke:#000000;stroke-width:0.6;" x="328.400915" xlink:href="#mbf35f12fa4" y="512.64"/>
      </g>
     </g>
    </g>
    <g id="xtick_26">
     <g id="line2d_31">
      <g>
       <use style="stroke:#000000;stroke-width:0.6;" x="335.923097" xlink:href="#mbf35f12fa4" y="512.64"/>
      </g>
     </g>
    </g>
    <g id="xtick_27">
     <g id="line2d_32">
      <g>
       <use style="stroke:#000000;stroke-width:0.6;" x="342.283012" xlink:href="#mbf35f12fa4" y="512.64"/>
      </g>
     </g>
    </g>
    <g id="xtick_28">
     <g id="line2d_33">
      <g>
       <use style="stroke:#000000;stroke-width:0.6;" x="347.79222" xlink:href="#mbf35f12fa4" y="512.64"/>
      </g>
     </g>
    </g>
    <g id="xtick_29">
     <g id="line2d_34">
      <g>
       <use style="stroke:#000000;stroke-width:0.6;" x="352.651686" xlink:href="#mbf35f12fa4" y="512.64"/>
      </g>
     </g>
    </g>
    <g id="xtick_30">
     <g id="line2d_35">
      <g>
       <use style="stroke:#000000;stroke-width:0.6;" x="385.596339" xlink:href="#mbf35f12fa4" y="512.64"/>
      </g>
     </g>
    </g>
    <g id="xtick_31">
     <g id="line2d_36">
      <g>
       <use style="stroke:#000000;stroke-width:0.6;" x="402.324928" xlink:href="#mbf35f12fa4" y="512.64"/>
      </g>
     </g>
    </g>
    <g id="xtick_32">
     <g id="line2d_37">
      <g>
       <use style="stroke:#000000;stroke-width:0.6;" x="414.194051" xlink:href="#mbf35f12fa4" y="512.64"/>
      </g>
     </g>
    </g>
    <g id="xtick_33">
     <g id="line2d_38">
      <g>
       <use style="stroke:#000000;stroke-width:0.6;" x="423.400458" xlink:href="#mbf35f12fa4" y="512.64"/>
      </g>
     </g>
    </g>
    <g id="xtick_34">
     <g id="line2d_39">
      <g>
       <use style="stroke:#000000;stroke-width:0.6;" x="430.92264" xlink:href="#mbf35f12fa4" y="512.64"/>
      </g>
     </g>
    </g>
    <g id="xtick_35">
     <g id="line2d_40">
      <g>
       <use style="stroke:#000000;stroke-width:0.6;" x="437.282554" xlink:href="#mbf35f12fa4" y="512.64"/>
      </g>
     </g>
    </g>
    <g id="xtick_36">
     <g id="line2d_41">
      <g>
       <use style="stroke:#000000;stroke-width:0.6;" x="442.791763" xlink:href="#mbf35f12fa4" y="512.64"/>
      </g>
     </g>
    </g>
    <g id="xtick_37">
     <g id="line2d_42">
      <g>
       <use style="stroke:#000000;stroke-width:0.6;" x="447.651229" xlink:href="#mbf35f12fa4" y="512.64"/>
      </g>
     </g>
    </g>
    <g id="xtick_38">
     <g id="line2d_43">
      <g>
       <use style="stroke:#000000;stroke-width:0.6;" x="480.595881" xlink:href="#mbf35f12fa4" y="512.64"/>
      </g>
     </g>
    </g>
    <g id="xtick_39">
     <g id="line2d_44">
      <g>
       <use style="stroke:#000000;stroke-width:0.6;" x="497.32447" xlink:href="#mbf35f12fa4" y="512.64"/>
      </g>
     </g>
    </g>
    <g id="xtick_40">
     <g id="line2d_45">
      <g>
       <use style="stroke:#000000;stroke-width:0.6;" x="509.193593" xlink:href="#mbf35f12fa4" y="512.64"/>
      </g>
     </g>
    </g>
    <g id="xtick_41">
     <g id="line2d_46">
      <g>
       <use style="stroke:#000000;stroke-width:0.6;" x="518.4" xlink:href="#mbf35f12fa4" y="512.64"/>
      </g>
     </g>
    </g>
    <g id="text_6">
     <!-- Time percent [%] -->
     <defs>
      <path d="M -0.296875 72.90625 
L 61.375 72.90625 
L 61.375 64.59375 
L 35.5 64.59375 
L 35.5 0 
L 25.59375 0 
L 25.59375 64.59375 
L -0.296875 64.59375 
z
" id="DejaVuSans-84"/>
      <path d="M 9.421875 54.6875 
L 18.40625 54.6875 
L 18.40625 0 
L 9.421875 0 
z
M 9.421875 75.984375 
L 18.40625 75.984375 
L 18.40625 64.59375 
L 9.421875 64.59375 
z
" id="DejaVuSans-105"/>
      <path d="M 52 44.1875 
Q 55.375 50.25 60.0625 53.125 
Q 64.75 56 71.09375 56 
Q 79.640625 56 84.28125 50.015625 
Q 88.921875 44.046875 88.921875 33.015625 
L 88.921875 0 
L 79.890625 0 
L 79.890625 32.71875 
Q 79.890625 40.578125 77.09375 44.375 
Q 74.3125 48.1875 68.609375 48.1875 
Q 61.625 48.1875 57.5625 43.546875 
Q 53.515625 38.921875 53.515625 30.90625 
L 53.515625 0 
L 44.484375 0 
L 44.484375 32.71875 
Q 44.484375 40.625 41.703125 44.40625 
Q 38.921875 48.1875 33.109375 48.1875 
Q 26.21875 48.1875 22.15625 43.53125 
Q 18.109375 38.875 18.109375 30.90625 
L 18.109375 0 
L 9.078125 0 
L 9.078125 54.6875 
L 18.109375 54.6875 
L 18.109375 46.1875 
Q 21.1875 51.21875 25.484375 53.609375 
Q 29.78125 56 35.6875 56 
Q 41.65625 56 45.828125 52.96875 
Q 50 49.953125 52 44.1875 
z
" id="DejaVuSans-109"/>
      <path d="M 56.203125 29.59375 
L 56.203125 25.203125 
L 14.890625 25.203125 
Q 15.484375 15.921875 20.484375 11.0625 
Q 25.484375 6.203125 34.421875 6.203125 
Q 39.59375 6.203125 44.453125 7.46875 
Q 49.3125 8.734375 54.109375 11.28125 
L 54.109375 2.78125 
Q 49.265625 0.734375 44.1875 -0.34375 
Q 39.109375 -1.421875 33.890625 -1.421875 
Q 20.796875 -1.421875 13.15625 6.1875 
Q 5.515625 13.8125 5.515625 26.8125 
Q 5.515625 40.234375 12.765625 48.109375 
Q 20.015625 56 32.328125 56 
Q 43.359375 56 49.78125 48.890625 
Q 56.203125 41.796875 56.203125 29.59375 
z
M 47.21875 32.234375 
Q 47.125 39.59375 43.09375 43.984375 
Q 39.0625 48.390625 32.421875 48.390625 
Q 24.90625 48.390625 20.390625 44.140625 
Q 15.875 39.890625 15.1875 32.171875 
z
" id="DejaVuSans-101"/>
      <path id="DejaVuSans-32"/>
      <path d="M 18.109375 8.203125 
L 18.109375 -20.796875 
L 9.078125 -20.796875 
L 9.078125 54.6875 
L 18.109375 54.6875 
L 18.109375 46.390625 
Q 20.953125 51.265625 25.265625 53.625 
Q 29.59375 56 35.59375 56 
Q 45.5625 56 51.78125 48.09375 
Q 58.015625 40.1875 58.015625 27.296875 
Q 58.015625 14.40625 51.78125 6.484375 
Q 45.5625 -1.421875 35.59375 -1.421875 
Q 29.59375 -1.421875 25.265625 0.953125 
Q 20.953125 3.328125 18.109375 8.203125 
z
M 48.6875 27.296875 
Q 48.6875 37.203125 44.609375 42.84375 
Q 40.53125 48.484375 33.40625 48.484375 
Q 26.265625 48.484375 22.1875 42.84375 
Q 18.109375 37.203125 18.109375 27.296875 
Q 18.109375 17.390625 22.1875 11.75 
Q 26.265625 6.109375 33.40625 6.109375 
Q 40.53125 6.109375 44.609375 11.75 
Q 48.6875 17.390625 48.6875 27.296875 
z
" id="DejaVuSans-112"/>
      <path d="M 41.109375 46.296875 
Q 39.59375 47.171875 37.8125 47.578125 
Q 36.03125 48 33.890625 48 
Q 26.265625 48 22.1875 43.046875 
Q 18.109375 38.09375 18.109375 28.8125 
L 18.109375 0 
L 9.078125 0 
L 9.078125 54.6875 
L 18.109375 54.6875 
L 18.109375 46.1875 
Q 20.953125 51.171875 25.484375 53.578125 
Q 30.03125 56 36.53125 56 
Q 37.453125 56 38.578125 55.875 
Q 39.703125 55.765625 41.0625 55.515625 
z
" id="DejaVuSans-114"/>
      <path d="M 48.78125 52.59375 
L 48.78125 44.1875 
Q 44.96875 46.296875 41.140625 47.34375 
Q 37.3125 48.390625 33.40625 48.390625 
Q 24.65625 48.390625 19.8125 42.84375 
Q 14.984375 37.3125 14.984375 27.296875 
Q 14.984375 17.28125 19.8125 11.734375 
Q 24.65625 6.203125 33.40625 6.203125 
Q 37.3125 6.203125 41.140625 7.25 
Q 44.96875 8.296875 48.78125 10.40625 
L 48.78125 2.09375 
Q 45.015625 0.34375 40.984375 -0.53125 
Q 36.96875 -1.421875 32.421875 -1.421875 
Q 20.0625 -1.421875 12.78125 6.34375 
Q 5.515625 14.109375 5.515625 27.296875 
Q 5.515625 40.671875 12.859375 48.328125 
Q 20.21875 56 33.015625 56 
Q 37.15625 56 41.109375 55.140625 
Q 45.0625 54.296875 48.78125 52.59375 
z
" id="DejaVuSans-99"/>
      <path d="M 54.890625 33.015625 
L 54.890625 0 
L 45.90625 0 
L 45.90625 32.71875 
Q 45.90625 40.484375 42.875 44.328125 
Q 39.84375 48.1875 33.796875 48.1875 
Q 26.515625 48.1875 22.3125 43.546875 
Q 18.109375 38.921875 18.109375 30.90625 
L 18.109375 0 
L 9.078125 0 
L 9.078125 54.6875 
L 18.109375 54.6875 
L 18.109375 46.1875 
Q 21.34375 51.125 25.703125 53.5625 
Q 30.078125 56 35.796875 56 
Q 45.21875 56 50.046875 50.171875 
Q 54.890625 44.34375 54.890625 33.015625 
z
" id="DejaVuSans-110"/>
      <path d="M 18.3125 70.21875 
L 18.3125 54.6875 
L 36.8125 54.6875 
L 36.8125 47.703125 
L 18.3125 47.703125 
L 18.3125 18.015625 
Q 18.3125 11.328125 20.140625 9.421875 
Q 21.96875 7.515625 27.59375 7.515625 
L 36.8125 7.515625 
L 36.8125 0 
L 27.59375 0 
Q 17.1875 0 13.234375 3.875 
Q 9.28125 7.765625 9.28125 18.015625 
L 9.28125 47.703125 
L 2.6875 47.703125 
L 2.6875 54.6875 
L 9.28125 54.6875 
L 9.28125 70.21875 
z
" id="DejaVuSans-116"/>
      <path d="M 8.59375 75.984375 
L 29.296875 75.984375 
L 29.296875 69 
L 17.578125 69 
L 17.578125 -6.203125 
L 29.296875 -6.203125 
L 29.296875 -13.1875 
L 8.59375 -13.1875 
z
" id="DejaVuSans-91"/>
      <path d="M 72.703125 32.078125 
Q 68.453125 32.078125 66.03125 28.46875 
Q 63.625 24.859375 63.625 18.40625 
Q 63.625 12.0625 66.03125 8.421875 
Q 68.453125 4.78125 72.703125 4.78125 
Q 76.859375 4.78125 79.265625 8.421875 
Q 81.6875 12.0625 81.6875 18.40625 
Q 81.6875 24.8125 79.265625 28.4375 
Q 76.859375 32.078125 72.703125 32.078125 
z
M 72.703125 38.28125 
Q 80.421875 38.28125 84.953125 32.90625 
Q 89.5 27.546875 89.5 18.40625 
Q 89.5 9.28125 84.9375 3.921875 
Q 80.375 -1.421875 72.703125 -1.421875 
Q 64.890625 -1.421875 60.34375 3.921875 
Q 55.8125 9.28125 55.8125 18.40625 
Q 55.8125 27.59375 60.375 32.9375 
Q 64.9375 38.28125 72.703125 38.28125 
z
M 22.3125 68.015625 
Q 18.109375 68.015625 15.6875 64.375 
Q 13.28125 60.75 13.28125 54.390625 
Q 13.28125 47.953125 15.671875 44.328125 
Q 18.0625 40.71875 22.3125 40.71875 
Q 26.5625 40.71875 28.96875 44.328125 
Q 31.390625 47.953125 31.390625 54.390625 
Q 31.390625 60.6875 28.953125 64.34375 
Q 26.515625 68.015625 22.3125 68.015625 
z
M 66.40625 74.21875 
L 74.21875 74.21875 
L 28.609375 -1.421875 
L 20.796875 -1.421875 
z
M 22.3125 74.21875 
Q 30.03125 74.21875 34.609375 68.875 
Q 39.203125 63.53125 39.203125 54.390625 
Q 39.203125 45.171875 34.640625 39.84375 
Q 30.078125 34.515625 22.3125 34.515625 
Q 14.546875 34.515625 10.03125 39.859375 
Q 5.515625 45.21875 5.515625 54.390625 
Q 5.515625 63.484375 10.046875 68.84375 
Q 14.59375 74.21875 22.3125 74.21875 
z
" id="DejaVuSans-37"/>
      <path d="M 30.421875 75.984375 
L 30.421875 -13.1875 
L 9.71875 -13.1875 
L 9.71875 -6.203125 
L 21.390625 -6.203125 
L 21.390625 69 
L 9.71875 69 
L 9.71875 75.984375 
z
" id="DejaVuSans-93"/>
     </defs>
     <g transform="translate(251.722656 540.916563)scale(0.1 -0.1)">
      <use xlink:href="#DejaVuSans-84"/>
      <use x="61.037109" xlink:href="#DejaVuSans-105"/>
      <use x="88.820312" xlink:href="#DejaVuSans-109"/>
      <use x="186.232422" xlink:href="#DejaVuSans-101"/>
      <use x="247.755859" xlink:href="#DejaVuSans-32"/>
      <use x="279.542969" xlink:href="#DejaVuSans-112"/>
      <use x="343.019531" xlink:href="#DejaVuSans-101"/>
      <use x="404.542969" xlink:href="#DejaVuSans-114"/>
      <use x="445.625" xlink:href="#DejaVuSans-99"/>
      <use x="500.605469" xlink:href="#DejaVuSans-101"/>
      <use x="562.128906" xlink:href="#DejaVuSans-110"/>
      <use x="625.507812" xlink:href="#DejaVuSans-116"/>
      <use x="664.716797" xlink:href="#DejaVuSans-32"/>
      <use x="696.503906" xlink:href="#DejaVuSans-91"/>
      <use x="735.517578" xlink:href="#DejaVuSans-37"/>
      <use x="830.537109" xlink:href="#DejaVuSans-93"/>
     </g>
    </g>
   </g>
   <g id="matplotlib.axis_2">
    <g id="ytick_1">
     <g id="line2d_47">
      <path clip-path="url(#p279ada9b1c)" d="M 72 510.187189 
L 518.4 510.187189 
" style="fill:none;stroke:#b0b0b0;stroke-linecap:square;stroke-width:0.8;"/>
     </g>
     <g id="line2d_48">
      <defs>
       <path d="M 0 0 
L -3.5 0 
" id="mc14e635488" style="stroke:#000000;stroke-width:0.8;"/>
      </defs>
      <g>
       <use style="stroke:#000000;stroke-width:0.8;" x="72" xlink:href="#mc14e635488" y="510.187189"/>
      </g>
     </g>
     <g id="text_7">
      <!-- 140 -->
      <defs>
       <path d="M 37.796875 64.3125 
L 12.890625 25.390625 
L 37.796875 25.390625 
z
M 35.203125 72.90625 
L 47.609375 72.90625 
L 47.609375 25.390625 
L 58.015625 25.390625 
L 58.015625 17.1875 
L 47.609375 17.1875 
L 47.609375 0 
L 37.796875 0 
L 37.796875 17.1875 
L 4.890625 17.1875 
L 4.890625 26.703125 
z
" id="DejaVuSans-52"/>
      </defs>
      <g transform="translate(45.9125 513.986407)scale(0.1 -0.1)">
       <use xlink:href="#DejaVuSans-49"/>
       <use x="63.623047" xlink:href="#DejaVuSans-52"/>
       <use x="127.246094" xlink:href="#DejaVuSans-48"/>
      </g>
     </g>
    </g>
    <g id="ytick_2">
     <g id="line2d_49">
      <path clip-path="url(#p279ada9b1c)" d="M 72 445.798844 
L 518.4 445.798844 
" style="fill:none;stroke:#b0b0b0;stroke-linecap:square;stroke-width:0.8;"/>
     </g>
     <g id="line2d_50">
      <g>
       <use style="stroke:#000000;stroke-width:0.8;" x="72" xlink:href="#mc14e635488" y="445.798844"/>
      </g>
     </g>
     <g id="text_8">
      <!-- 160 -->
      <defs>
       <path d="M 33.015625 40.375 
Q 26.375 40.375 22.484375 35.828125 
Q 18.609375 31.296875 18.609375 23.390625 
Q 18.609375 15.53125 22.484375 10.953125 
Q 26.375 6.390625 33.015625 6.390625 
Q 39.65625 6.390625 43.53125 10.953125 
Q 47.40625 15.53125 47.40625 23.390625 
Q 47.40625 31.296875 43.53125 35.828125 
Q 39.65625 40.375 33.015625 40.375 
z
M 52.59375 71.296875 
L 52.59375 62.3125 
Q 48.875 64.0625 45.09375 64.984375 
Q 41.3125 65.921875 37.59375 65.921875 
Q 27.828125 65.921875 22.671875 59.328125 
Q 17.53125 52.734375 16.796875 39.40625 
Q 19.671875 43.65625 24.015625 45.921875 
Q 28.375 48.1875 33.59375 48.1875 
Q 44.578125 48.1875 50.953125 41.515625 
Q 57.328125 34.859375 57.328125 23.390625 
Q 57.328125 12.15625 50.6875 5.359375 
Q 44.046875 -1.421875 33.015625 -1.421875 
Q 20.359375 -1.421875 13.671875 8.265625 
Q 6.984375 17.96875 6.984375 36.375 
Q 6.984375 53.65625 15.1875 63.9375 
Q 23.390625 74.21875 37.203125 74.21875 
Q 40.921875 74.21875 44.703125 73.484375 
Q 48.484375 72.75 52.59375 71.296875 
z
" id="DejaVuSans-54"/>
      </defs>
      <g transform="translate(45.9125 449.598062)scale(0.1 -0.1)">
       <use xlink:href="#DejaVuSans-49"/>
       <use x="63.623047" xlink:href="#DejaVuSans-54"/>
       <use x="127.246094" xlink:href="#DejaVuSans-48"/>
      </g>
     </g>
    </g>
    <g id="ytick_3">
     <g id="line2d_51">
      <path clip-path="url(#p279ada9b1c)" d="M 72 381.410499 
L 518.4 381.410499 
" style="fill:none;stroke:#b0b0b0;stroke-linecap:square;stroke-width:0.8;"/>
     </g>
     <g id="line2d_52">
      <g>
       <use style="stroke:#000000;stroke-width:0.8;" x="72" xlink:href="#mc14e635488" y="381.410499"/>
      </g>
     </g>
     <g id="text_9">
      <!-- 180 -->
      <defs>
       <path d="M 31.78125 34.625 
Q 24.75 34.625 20.71875 30.859375 
Q 16.703125 27.09375 16.703125 20.515625 
Q 16.703125 13.921875 20.71875 10.15625 
Q 24.75 6.390625 31.78125 6.390625 
Q 38.8125 6.390625 42.859375 10.171875 
Q 46.921875 13.96875 46.921875 20.515625 
Q 46.921875 27.09375 42.890625 30.859375 
Q 38.875 34.625 31.78125 34.625 
z
M 21.921875 38.8125 
Q 15.578125 40.375 12.03125 44.71875 
Q 8.5 49.078125 8.5 55.328125 
Q 8.5 64.0625 14.71875 69.140625 
Q 20.953125 74.21875 31.78125 74.21875 
Q 42.671875 74.21875 48.875 69.140625 
Q 55.078125 64.0625 55.078125 55.328125 
Q 55.078125 49.078125 51.53125 44.71875 
Q 48 40.375 41.703125 38.8125 
Q 48.828125 37.15625 52.796875 32.3125 
Q 56.78125 27.484375 56.78125 20.515625 
Q 56.78125 9.90625 50.3125 4.234375 
Q 43.84375 -1.421875 31.78125 -1.421875 
Q 19.734375 -1.421875 13.25 4.234375 
Q 6.78125 9.90625 6.78125 20.515625 
Q 6.78125 27.484375 10.78125 32.3125 
Q 14.796875 37.15625 21.921875 38.8125 
z
M 18.3125 54.390625 
Q 18.3125 48.734375 21.84375 45.5625 
Q 25.390625 42.390625 31.78125 42.390625 
Q 38.140625 42.390625 41.71875 45.5625 
Q 45.3125 48.734375 45.3125 54.390625 
Q 45.3125 60.0625 41.71875 63.234375 
Q 38.140625 66.40625 31.78125 66.40625 
Q 25.390625 66.40625 21.84375 63.234375 
Q 18.3125 60.0625 18.3125 54.390625 
z
" id="DejaVuSans-56"/>
      </defs>
      <g transform="translate(45.9125 385.209717)scale(0.1 -0.1)">
       <use xlink:href="#DejaVuSans-49"/>
       <use x="63.623047" xlink:href="#DejaVuSans-56"/>
       <use x="127.246094" xlink:href="#DejaVuSans-48"/>
      </g>
     </g>
    </g>
    <g id="ytick_4">
     <g id="line2d_53">
      <path clip-path="url(#p279ada9b1c)" d="M 72 317.022154 
L 518.4 317.022154 
" style="fill:none;stroke:#b0b0b0;stroke-linecap:square;stroke-width:0.8;"/>
     </g>
     <g id="line2d_54">
      <g>
       <use style="stroke:#000000;stroke-width:0.8;" x="72" xlink:href="#mc14e635488" y="317.022154"/>
      </g>
     </g>
     <g id="text_10">
      <!-- 200 -->
      <g transform="translate(45.9125 320.821372)scale(0.1 -0.1)">
       <use xlink:href="#DejaVuSans-50"/>
       <use x="63.623047" xlink:href="#DejaVuSans-48"/>
       <use x="127.246094" xlink:href="#DejaVuSans-48"/>
      </g>
     </g>
    </g>
    <g id="ytick_5">
     <g id="line2d_55">
      <path clip-path="url(#p279ada9b1c)" d="M 72 252.633809 
L 518.4 252.633809 
" style="fill:none;stroke:#b0b0b0;stroke-linecap:square;stroke-width:0.8;"/>
     </g>
     <g id="line2d_56">
      <g>
       <use style="stroke:#000000;stroke-width:0.8;" x="72" xlink:href="#mc14e635488" y="252.633809"/>
      </g>
     </g>
     <g id="text_11">
      <!-- 220 -->
      <g transform="translate(45.9125 256.433027)scale(0.1 -0.1)">
       <use xlink:href="#DejaVuSans-50"/>
       <use x="63.623047" xlink:href="#DejaVuSans-50"/>
       <use x="127.246094" xlink:href="#DejaVuSans-48"/>
      </g>
     </g>
    </g>
    <g id="ytick_6">
     <g id="line2d_57">
      <path clip-path="url(#p279ada9b1c)" d="M 72 188.245464 
L 518.4 188.245464 
" style="fill:none;stroke:#b0b0b0;stroke-linecap:square;stroke-width:0.8;"/>
     </g>
     <g id="line2d_58">
      <g>
       <use style="stroke:#000000;stroke-width:0.8;" x="72" xlink:href="#mc14e635488" y="188.245464"/>
      </g>
     </g>
     <g id="text_12">
      <!-- 240 -->
      <g transform="translate(45.9125 192.044682)scale(0.1 -0.1)">
       <use xlink:href="#DejaVuSans-50"/>
       <use x="63.623047" xlink:href="#DejaVuSans-52"/>
       <use x="127.246094" xlink:href="#DejaVuSans-48"/>
      </g>
     </g>
    </g>
    <g id="ytick_7">
     <g id="line2d_59">
      <path clip-path="url(#p279ada9b1c)" d="M 72 123.857119 
L 518.4 123.857119 
" style="fill:none;stroke:#b0b0b0;stroke-linecap:square;stroke-width:0.8;"/>
     </g>
     <g id="line2d_60">
      <g>
       <use style="stroke:#000000;stroke-width:0.8;" x="72" xlink:href="#mc14e635488" y="123.857119"/>
      </g>
     </g>
     <g id="text_13">
      <!-- 260 -->
      <g transform="translate(45.9125 127.656337)scale(0.1 -0.1)">
       <use xlink:href="#DejaVuSans-50"/>
       <use x="63.623047" xlink:href="#DejaVuSans-54"/>
       <use x="127.246094" xlink:href="#DejaVuSans-48"/>
      </g>
     </g>
    </g>
    <g id="text_14">
     <!-- L_b_corr [dB] -->
     <defs>
      <path d="M 9.8125 72.90625 
L 19.671875 72.90625 
L 19.671875 8.296875 
L 55.171875 8.296875 
L 55.171875 0 
L 9.8125 0 
z
" id="DejaVuSans-76"/>
      <path d="M 50.984375 -16.609375 
L 50.984375 -23.578125 
L -0.984375 -23.578125 
L -0.984375 -16.609375 
z
" id="DejaVuSans-95"/>
      <path d="M 48.6875 27.296875 
Q 48.6875 37.203125 44.609375 42.84375 
Q 40.53125 48.484375 33.40625 48.484375 
Q 26.265625 48.484375 22.1875 42.84375 
Q 18.109375 37.203125 18.109375 27.296875 
Q 18.109375 17.390625 22.1875 11.75 
Q 26.265625 6.109375 33.40625 6.109375 
Q 40.53125 6.109375 44.609375 11.75 
Q 48.6875 17.390625 48.6875 27.296875 
z
M 18.109375 46.390625 
Q 20.953125 51.265625 25.265625 53.625 
Q 29.59375 56 35.59375 56 
Q 45.5625 56 51.78125 48.09375 
Q 58.015625 40.1875 58.015625 27.296875 
Q 58.015625 14.40625 51.78125 6.484375 
Q 45.5625 -1.421875 35.59375 -1.421875 
Q 29.59375 -1.421875 25.265625 0.953125 
Q 20.953125 3.328125 18.109375 8.203125 
L 18.109375 0 
L 9.078125 0 
L 9.078125 75.984375 
L 18.109375 75.984375 
z
" id="DejaVuSans-98"/>
      <path d="M 30.609375 48.390625 
Q 23.390625 48.390625 19.1875 42.75 
Q 14.984375 37.109375 14.984375 27.296875 
Q 14.984375 17.484375 19.15625 11.84375 
Q 23.34375 6.203125 30.609375 6.203125 
Q 37.796875 6.203125 41.984375 11.859375 
Q 46.1875 17.53125 46.1875 27.296875 
Q 46.1875 37.015625 41.984375 42.703125 
Q 37.796875 48.390625 30.609375 48.390625 
z
M 30.609375 56 
Q 42.328125 56 49.015625 48.375 
Q 55.71875 40.765625 55.71875 27.296875 
Q 55.71875 13.875 49.015625 6.21875 
Q 42.328125 -1.421875 30.609375 -1.421875 
Q 18.84375 -1.421875 12.171875 6.21875 
Q 5.515625 13.875 5.515625 27.296875 
Q 5.515625 40.765625 12.171875 48.375 
Q 18.84375 56 30.609375 56 
z
" id="DejaVuSans-111"/>
      <path d="M 45.40625 46.390625 
L 45.40625 75.984375 
L 54.390625 75.984375 
L 54.390625 0 
L 45.40625 0 
L 45.40625 8.203125 
Q 42.578125 3.328125 38.25 0.953125 
Q 33.9375 -1.421875 27.875 -1.421875 
Q 17.96875 -1.421875 11.734375 6.484375 
Q 5.515625 14.40625 5.515625 27.296875 
Q 5.515625 40.1875 11.734375 48.09375 
Q 17.96875 56 27.875 56 
Q 33.9375 56 38.25 53.625 
Q 42.578125 51.265625 45.40625 46.390625 
z
M 14.796875 27.296875 
Q 14.796875 17.390625 18.875 11.75 
Q 22.953125 6.109375 30.078125 6.109375 
Q 37.203125 6.109375 41.296875 11.75 
Q 45.40625 17.390625 45.40625 27.296875 
Q 45.40625 37.203125 41.296875 42.84375 
Q 37.203125 48.484375 30.078125 48.484375 
Q 22.953125 48.484375 18.875 42.84375 
Q 14.796875 37.203125 14.796875 27.296875 
z
" id="DejaVuSans-100"/>
      <path d="M 19.671875 34.8125 
L 19.671875 8.109375 
L 35.5 8.109375 
Q 43.453125 8.109375 47.28125 11.40625 
Q 51.125 14.703125 51.125 21.484375 
Q 51.125 28.328125 47.28125 31.5625 
Q 43.453125 34.8125 35.5 34.8125 
z
M 19.671875 64.796875 
L 19.671875 42.828125 
L 34.28125 42.828125 
Q 41.5 42.828125 45.03125 45.53125 
Q 48.578125 48.25 48.578125 53.8125 
Q 48.578125 59.328125 45.03125 62.0625 
Q 41.5 64.796875 34.28125 64.796875 
z
M 9.8125 72.90625 
L 35.015625 72.90625 
Q 46.296875 72.90625 52.390625 68.21875 
Q 58.5 63.53125 58.5 54.890625 
Q 58.5 48.1875 55.375 44.234375 
Q 52.25 40.28125 46.1875 39.3125 
Q 53.46875 37.75 57.5 32.78125 
Q 61.53125 27.828125 61.53125 20.40625 
Q 61.53125 10.640625 54.890625 5.3125 
Q 48.25 0 35.984375 0 
L 9.8125 0 
z
" id="DejaVuSans-66"/>
     </defs>
     <g transform="translate(39.554687 323.854219)rotate(-90)scale(0.1 -0.1)">
      <use xlink:href="#DejaVuSans-76"/>
      <use x="55.712891" xlink:href="#DejaVuSans-95"/>
      <use x="105.712891" xlink:href="#DejaVuSans-98"/>
      <use x="169.189453" xlink:href="#DejaVuSans-95"/>
      <use x="219.189453" xlink:href="#DejaVuSans-99"/>
      <use x="274.169922" xlink:href="#DejaVuSans-111"/>
      <use x="335.351562" xlink:href="#DejaVuSans-114"/>
      <use x="376.449219" xlink:href="#DejaVuSans-114"/>
      <use x="417.5625" xlink:href="#DejaVuSans-32"/>
      <use x="449.349609" xlink:href="#DejaVuSans-91"/>
      <use x="488.363281" xlink:href="#DejaVuSans-100"/>
      <use x="551.839844" xlink:href="#DejaVuSans-66"/>
      <use x="620.443359" xlink:href="#DejaVuSans-93"/>
     </g>
    </g>
   </g>
   <g id="line2d_61">
    <path clip-path="url(#p279ada9b1c)" d="M 72 492.48 
L 76.509091 492.37328 
L 81.018182 492.26656 
L 85.527273 492.159841 
L 90.036364 492.053121 
L 94.545455 491.946401 
L 99.054545 491.839681 
L 103.563636 491.732962 
L 108.072727 491.626242 
L 112.581818 491.519522 
L 117.090909 491.412802 
L 121.6 491.306082 
L 126.109091 491.199363 
L 130.618182 491.092643 
L 135.127273 490.985923 
L 139.636364 490.879203 
L 144.145455 490.772484 
L 148.654545 490.665764 
L 153.163636 490.559044 
L 157.672727 490.452324 
L 162.181818 490.345604 
L 166.690909 490.238885 
L 171.2 490.132165 
L 175.709091 490.025445 
L 180.218182 489.918725 
L 184.727273 489.812006 
L 189.236364 489.705286 
L 193.745455 489.598566 
L 198.254545 489.491846 
L 202.763636 489.385126 
L 207.272727 489.278407 
L 211.781818 489.171687 
L 216.290909 489.064967 
L 220.8 488.958247 
L 225.309091 488.851528 
L 229.818182 488.744808 
L 234.327273 488.638088 
L 238.836364 488.531368 
L 243.345455 488.424648 
L 247.854545 488.317929 
L 252.363636 488.211209 
L 256.872727 488.104489 
L 261.381818 487.997769 
L 265.890909 487.89105 
L 270.4 487.78433 
L 274.909091 487.67761 
L 279.418182 487.57089 
L 283.927273 487.46417 
L 288.436364 487.357451 
L 292.945455 487.250731 
L 297.454545 487.144011 
L 301.963636 487.037291 
L 306.472727 486.930572 
L 310.981818 486.823852 
L 315.490909 486.717132 
L 320 486.610412 
L 324.509091 486.503693 
L 329.018182 486.396973 
L 333.527273 486.290253 
L 338.036364 486.183533 
L 342.545455 486.076813 
L 347.054545 485.970094 
L 351.563636 485.863374 
L 356.072727 485.756654 
L 360.581818 485.649934 
L 365.090909 485.543215 
L 369.6 485.436495 
L 374.109091 485.329775 
L 378.618182 485.223055 
L 383.127273 485.116335 
L 387.636364 485.000273 
L 392.145455 484.87927 
L 396.654545 484.758017 
L 401.163636 484.636502 
L 405.672727 484.514709 
L 410.181818 484.392625 
L 414.690909 484.270232 
L 419.2 484.147513 
L 423.709091 484.024448 
L 428.218182 483.901015 
L 432.727273 483.77719 
L 437.236364 483.652947 
L 441.745455 483.528256 
L 446.254545 483.403084 
L 450.763636 483.277393 
L 455.272727 483.151141 
L 459.781818 483.024281 
L 464.290909 482.896756 
L 468.8 482.768504 
L 473.309091 482.639452 
L 477.818182 482.509512 
L 482.327273 482.378583 
L 486.836364 482.246542 
L 491.345455 482.113242 
L 495.854545 481.9785 
L 500.363636 481.842087 
L 504.872727 481.703714 
L 509.381818 481.562998 
L 513.890909 481.419429 
L 518.4 481.27229 
" style="fill:none;stroke:#1f77b4;stroke-linecap:square;stroke-width:1.5;"/>
   </g>
   <g id="line2d_62">
    <path clip-path="url(#p279ada9b1c)" d="M 72 400.537726 
L 76.509091 400.431006 
L 81.018182 400.324287 
L 85.527273 400.217567 
L 90.036364 400.110847 
L 94.545455 400.004127 
L 99.054545 399.897407 
L 103.563636 399.790688 
L 108.072727 399.683968 
L 112.581818 399.577248 
L 117.090909 399.470528 
L 121.6 399.363808 
L 126.109091 399.257089 
L 130.618182 399.150369 
L 135.127273 399.043649 
L 139.636364 398.936929 
L 144.145455 398.83021 
L 148.654545 398.72349 
L 153.163636 398.61677 
L 157.672727 398.51005 
L 162.181818 398.40333 
L 166.690909 398.296611 
L 171.2 398.189891 
L 175.709091 398.083171 
L 180.218182 397.976451 
L 184.727273 397.869732 
L 189.236364 397.763012 
L 193.745455 397.656292 
L 198.254545 397.549572 
L 202.763636 397.442852 
L 207.272727 397.336133 
L 211.781818 397.229413 
L 216.290909 397.122693 
L 220.8 397.015973 
L 225.309091 396.909254 
L 229.818182 396.802534 
L 234.327273 396.695814 
L 238.836364 396.589094 
L 243.345455 396.482375 
L 247.854545 396.375655 
L 252.363636 396.268935 
L 256.872727 396.162215 
L 261.381818 396.055495 
L 265.890909 395.948776 
L 270.4 395.842056 
L 274.909091 395.735336 
L 279.418182 395.628616 
L 283.927273 395.521897 
L 288.436364 395.415177 
L 292.945455 395.308457 
L 297.454545 395.201737 
L 301.963636 395.095017 
L 306.472727 394.988298 
L 310.981818 394.881578 
L 315.490909 394.774858 
L 320 394.668138 
L 324.509091 394.561419 
L 329.018182 394.454699 
L 333.527273 394.347979 
L 338.036364 394.241259 
L 342.545455 394.134539 
L 347.054545 394.02782 
L 351.563636 393.9211 
L 356.072727 393.81438 
L 360.581818 393.70766 
L 365.090909 393.600941 
L 369.6 393.494221 
L 374.109091 393.387501 
L 378.618182 393.280781 
L 383.127273 393.174062 
L 387.636364 393.058071 
L 392.145455 392.937179 
L 396.654545 392.816038 
L 401.163636 392.694636 
L 405.672727 392.57296 
L 410.181818 392.450994 
L 414.690909 392.328723 
L 419.2 392.206127 
L 423.709091 392.083188 
L 428.218182 391.959884 
L 432.727273 391.836192 
L 437.236364 391.712084 
L 441.745455 391.587532 
L 446.254545 391.462502 
L 450.763636 391.336957 
L 455.272727 391.210856 
L 459.781818 391.084151 
L 464.290909 390.956787 
L 468.8 390.828701 
L 473.309091 390.699821 
L 477.818182 390.570061 
L 482.327273 390.439318 
L 486.836364 390.307473 
L 491.345455 390.174378 
L 495.854545 390.039852 
L 500.363636 389.903669 
L 504.872727 389.76554 
L 509.381818 389.625086 
L 513.890909 389.481801 
L 518.4 389.334974 
" style="fill:none;stroke:#ff7f0e;stroke-linecap:square;stroke-width:1.5;"/>
   </g>
   <g id="line2d_63">
    <path clip-path="url(#p279ada9b1c)" d="M 72 347.180897 
L 76.509091 347.074177 
L 81.018182 346.967457 
L 85.527273 346.860737 
L 90.036364 346.754018 
L 94.545455 346.647298 
L 99.054545 346.540578 
L 103.563636 346.433858 
L 108.072727 346.327138 
L 112.581818 346.220419 
L 117.090909 346.113699 
L 121.6 346.006979 
L 126.109091 345.900259 
L 130.618182 345.79354 
L 135.127273 345.68682 
L 139.636364 345.5801 
L 144.145455 345.47338 
L 148.654545 345.36666 
L 153.163636 345.259941 
L 157.672727 345.153221 
L 162.181818 345.046501 
L 166.690909 344.939781 
L 171.2 344.833062 
L 175.709091 344.726342 
L 180.218182 344.619622 
L 184.727273 344.512902 
L 189.236364 344.406182 
L 193.745455 344.299463 
L 198.254545 344.192743 
L 202.763636 344.086023 
L 207.272727 343.979303 
L 211.781818 343.872584 
L 216.290909 343.765864 
L 220.8 343.659144 
L 225.309091 343.552424 
L 229.818182 343.445704 
L 234.327273 343.338985 
L 238.836364 343.232265 
L 243.345455 343.125545 
L 247.854545 343.018825 
L 252.363636 342.912106 
L 256.872727 342.805386 
L 261.381818 342.698666 
L 265.890909 342.591946 
L 270.4 342.485227 
L 274.909091 342.378507 
L 279.418182 342.271787 
L 283.927273 342.165067 
L 288.436364 342.058347 
L 292.945455 341.951628 
L 297.454545 341.844908 
L 301.963636 341.738188 
L 306.472727 341.631468 
L 310.981818 341.524749 
L 315.490909 341.418029 
L 320 341.311309 
L 324.509091 341.204589 
L 329.018182 341.097869 
L 333.527273 340.99115 
L 338.036364 340.88443 
L 342.545455 340.77771 
L 347.054545 340.67099 
L 351.563636 340.564271 
L 356.072727 340.457551 
L 360.581818 340.350831 
L 365.090909 340.244111 
L 369.6 340.137391 
L 374.109091 340.030672 
L 378.618182 339.923952 
L 383.127273 339.817232 
L 387.636364 339.701261 
L 392.145455 339.5804 
L 396.654545 339.45929 
L 401.163636 339.33792 
L 405.672727 339.216276 
L 410.181818 339.094343 
L 414.690909 338.972105 
L 419.2 338.849543 
L 423.709091 338.726639 
L 428.218182 338.603371 
L 432.727273 338.479715 
L 437.236364 338.355644 
L 441.745455 338.23113 
L 446.254545 338.10614 
L 450.763636 337.980636 
L 455.272727 337.854576 
L 459.781818 337.727914 
L 464.290909 337.600594 
L 468.8 337.472555 
L 473.309091 337.343722 
L 477.818182 337.214011 
L 482.327273 337.083321 
L 486.836364 336.95153 
L 491.345455 336.818491 
L 495.854545 336.684025 
L 500.363636 336.547905 
L 504.872727 336.409843 
L 509.381818 336.269463 
L 513.890909 336.126256 
L 518.4 335.979515 
" style="fill:none;stroke:#2ca02c;stroke-linecap:square;stroke-width:1.5;"/>
   </g>
   <g id="line2d_64">
    <path clip-path="url(#p279ada9b1c)" d="M 72 317.881238 
L 76.509091 317.774518 
L 81.018182 317.667799 
L 85.527273 317.561079 
L 90.036364 317.454359 
L 94.545455 317.347639 
L 99.054545 317.240919 
L 103.563636 317.1342 
L 108.072727 317.02748 
L 112.581818 316.92076 
L 117.090909 316.81404 
L 121.6 316.70732 
L 126.109091 316.600601 
L 130.618182 316.493881 
L 135.127273 316.387161 
L 139.636364 316.280441 
L 144.145455 316.173721 
L 148.654545 316.067002 
L 153.163636 315.960282 
L 157.672727 315.853562 
L 162.181818 315.746842 
L 166.690909 315.640123 
L 171.2 315.533403 
L 175.709091 315.426683 
L 180.218182 315.319963 
L 184.727273 315.213243 
L 189.236364 315.106524 
L 193.745455 314.999804 
L 198.254545 314.893084 
L 202.763636 314.786364 
L 207.272727 314.679645 
L 211.781818 314.572925 
L 216.290909 314.466205 
L 220.8 314.359485 
L 225.309091 314.252765 
L 229.818182 314.146046 
L 234.327273 314.039326 
L 238.836364 313.932606 
L 243.345455 313.825886 
L 247.854545 313.719167 
L 252.363636 313.612447 
L 256.872727 313.505727 
L 261.381818 313.399007 
L 265.890909 313.292287 
L 270.4 313.185568 
L 274.909091 313.078848 
L 279.418182 312.972128 
L 283.927273 312.865408 
L 288.436364 312.758689 
L 292.945455 312.651969 
L 297.454545 312.545249 
L 301.963636 312.438529 
L 306.472727 312.331809 
L 310.981818 312.22509 
L 315.490909 312.11837 
L 320 312.01165 
L 324.509091 311.90493 
L 329.018182 311.798211 
L 333.527273 311.691491 
L 338.036364 311.584771 
L 342.545455 311.478051 
L 347.054545 311.371332 
L 351.563636 311.264612 
L 356.072727 311.157892 
L 360.581818 311.051172 
L 365.090909 310.944452 
L 369.6 310.837733 
L 374.109091 310.731013 
L 378.618182 310.624293 
L 383.127273 310.517573 
L 387.636364 310.401617 
L 392.145455 310.280777 
L 396.654545 310.15969 
L 401.163636 310.038343 
L 405.672727 309.916722 
L 410.181818 309.794813 
L 414.690909 309.672598 
L 419.2 309.550062 
L 423.709091 309.427183 
L 428.218182 309.30394 
L 432.727273 309.180311 
L 437.236364 309.056267 
L 441.745455 308.931781 
L 446.254545 308.806819 
L 450.763636 308.681344 
L 455.272727 308.555315 
L 459.781818 308.428683 
L 464.290909 308.301396 
L 468.8 308.173389 
L 473.309091 308.044591 
L 477.818182 307.914916 
L 482.327273 307.784263 
L 486.836364 307.652511 
L 491.345455 307.519513 
L 495.854545 307.38509 
L 500.363636 307.249016 
L 504.872727 307.111003 
L 509.381818 306.970675 
L 513.890909 306.827525 
L 518.4 306.680847 
" style="fill:none;stroke:#d62728;stroke-linecap:square;stroke-width:1.5;"/>
   </g>
   <g id="line2d_65">
    <path clip-path="url(#p279ada9b1c)" d="M 72 279.210817 
L 76.509091 279.104097 
L 81.018182 278.997377 
L 85.527273 278.890657 
L 90.036364 278.783938 
L 94.545455 278.677218 
L 99.054545 278.570498 
L 103.563636 278.463778 
L 108.072727 278.357058 
L 112.581818 278.250338 
L 117.090909 278.143619 
L 121.6 278.036899 
L 126.109091 277.930179 
L 130.618182 277.823459 
L 135.127273 277.716739 
L 139.636364 277.610019 
L 144.145455 277.5033 
L 148.654545 277.39658 
L 153.163636 277.28986 
L 157.672727 277.18314 
L 162.181818 277.07642 
L 166.690909 276.969701 
L 171.2 276.862981 
L 175.709091 276.756261 
L 180.218182 276.649541 
L 184.727273 276.542821 
L 189.236364 276.436102 
L 193.745455 276.329382 
L 198.254545 276.222662 
L 202.763636 276.115942 
L 207.272727 276.009223 
L 211.781818 275.902503 
L 216.290909 275.795783 
L 220.8 275.689063 
L 225.309091 275.582343 
L 229.818182 275.475624 
L 234.327273 275.368904 
L 238.836364 275.262184 
L 243.345455 275.155464 
L 247.854545 275.048745 
L 252.363636 274.942025 
L 256.872727 274.835305 
L 261.381818 274.728585 
L 265.890909 274.621865 
L 270.4 274.515146 
L 274.909091 274.408426 
L 279.418182 274.301706 
L 283.927273 274.194986 
L 288.436364 274.088267 
L 292.945455 273.981547 
L 297.454545 273.874827 
L 301.963636 273.768107 
L 306.472727 273.661387 
L 310.981818 273.554668 
L 315.490909 273.447948 
L 320 273.341228 
L 324.509091 273.234508 
L 329.018182 273.127789 
L 333.527273 273.021069 
L 338.036364 272.914349 
L 342.545455 272.807629 
L 347.054545 272.700909 
L 351.563636 272.59419 
L 356.072727 272.48747 
L 360.581818 272.38075 
L 365.090909 272.27403 
L 369.6 272.167311 
L 374.109091 272.060591 
L 378.618182 271.953871 
L 383.127273 271.847151 
L 387.636364 271.731208 
L 392.145455 271.610387 
L 396.654545 271.48932 
L 401.163636 271.367993 
L 405.672727 271.246393 
L 410.181818 271.124505 
L 414.690909 271.002312 
L 419.2 270.879797 
L 423.709091 270.756941 
L 428.218182 270.633721 
L 432.727273 270.510115 
L 437.236364 270.386095 
L 441.745455 270.261634 
L 446.254545 270.136697 
L 450.763636 270.011248 
L 455.272727 269.885246 
L 459.781818 269.758642 
L 464.290909 269.631383 
L 468.8 269.503406 
L 473.309091 269.374638 
L 477.818182 269.244995 
L 482.327273 269.114375 
L 486.836364 268.982657 
L 491.345455 268.849696 
L 495.854545 268.715312 
L 500.363636 268.579278 
L 504.872727 268.441309 
L 509.381818 268.301027 
L 513.890909 268.157928 
L 518.4 268.011305 
" style="fill:none;stroke:#9467bd;stroke-linecap:square;stroke-width:1.5;"/>
   </g>
   <g id="line2d_66">
    <path clip-path="url(#p279ada9b1c)" d="M 72 249.486893 
L 76.509091 249.380173 
L 81.018182 249.273453 
L 85.527273 249.166733 
L 90.036364 249.060013 
L 94.545455 248.953293 
L 99.054545 248.846573 
L 103.563636 248.739853 
L 108.072727 248.633133 
L 112.581818 248.526413 
L 117.090909 248.419693 
L 121.6 248.312973 
L 126.109091 248.206253 
L 130.618182 248.099533 
L 135.127273 247.992813 
L 139.636364 247.886093 
L 144.145455 247.779373 
L 148.654545 247.672653 
L 153.163636 247.565934 
L 157.672727 247.459214 
L 162.181818 247.352494 
L 166.690909 247.245774 
L 171.2 247.139054 
L 175.709091 247.032334 
L 180.218182 246.925615 
L 184.727273 246.818895 
L 189.236364 246.712175 
L 193.745455 246.605455 
L 198.254545 246.498735 
L 202.763636 246.392016 
L 207.272727 246.285296 
L 211.781818 246.178576 
L 216.290909 246.071856 
L 220.8 245.965136 
L 225.309091 245.858417 
L 229.818182 245.751697 
L 234.327273 245.644977 
L 238.836364 245.538257 
L 243.345455 245.431537 
L 247.854545 245.324818 
L 252.363636 245.218098 
L 256.872727 245.111378 
L 261.381818 245.004658 
L 265.890909 244.897938 
L 270.4 244.791219 
L 274.909091 244.684499 
L 279.418182 244.577779 
L 283.927273 244.471059 
L 288.436364 244.36434 
L 292.945455 244.25762 
L 297.454545 244.1509 
L 301.963636 244.04418 
L 306.472727 243.93746 
L 310.981818 243.830741 
L 315.490909 243.724021 
L 320 243.617301 
L 324.509091 243.510581 
L 329.018182 243.403862 
L 333.527273 243.297142 
L 338.036364 243.190422 
L 342.545455 243.083702 
L 347.054545 242.976982 
L 351.563636 242.870263 
L 356.072727 242.763543 
L 360.581818 242.656823 
L 365.090909 242.550103 
L 369.6 242.443384 
L 374.109091 242.336664 
L 378.618182 242.229944 
L 383.127273 242.123224 
L 387.636364 242.007287 
L 392.145455 241.886477 
L 396.654545 241.765419 
L 401.163636 241.644102 
L 405.672727 241.522512 
L 410.181818 241.400635 
L 414.690909 241.278453 
L 419.2 241.155949 
L 423.709091 241.033103 
L 428.218182 240.909895 
L 432.727273 240.7863 
L 437.236364 240.662293 
L 441.745455 240.537844 
L 446.254545 240.412919 
L 450.763636 240.287483 
L 455.272727 240.161494 
L 459.781818 240.034904 
L 464.290909 239.907659 
L 468.8 239.779697 
L 473.309091 239.650945 
L 477.818182 239.521317 
L 482.327273 239.390714 
L 486.836364 239.259013 
L 491.345455 239.12607 
L 495.854545 238.991705 
L 500.363636 238.855692 
L 504.872727 238.717744 
L 509.381818 238.577485 
L 513.890909 238.434411 
L 518.4 238.287815 
" style="fill:none;stroke:#8c564b;stroke-linecap:square;stroke-width:1.5;"/>
   </g>
   <g id="line2d_67">
    <path clip-path="url(#p279ada9b1c)" d="M 72 209.701499 
L 76.509091 209.594776 
L 81.018182 209.488054 
L 85.527273 209.381331 
L 90.036364 209.274609 
L 94.545455 209.167887 
L 99.054545 209.061165 
L 103.563636 208.954444 
L 108.072727 208.847722 
L 112.581818 208.741001 
L 117.090909 208.63428 
L 121.6 208.527558 
L 126.109091 208.420837 
L 130.618182 208.314116 
L 135.127273 208.207396 
L 139.636364 208.100675 
L 144.145455 207.993954 
L 148.654545 207.887234 
L 153.163636 207.780513 
L 157.672727 207.673793 
L 162.181818 207.567072 
L 166.690909 207.460352 
L 171.2 207.353631 
L 175.709091 207.246911 
L 180.218182 207.140191 
L 184.727273 207.033471 
L 189.236364 206.926751 
L 193.745455 206.82003 
L 198.254545 206.71331 
L 202.763636 206.60659 
L 207.272727 206.49987 
L 211.781818 206.39315 
L 216.290909 206.28643 
L 220.8 206.17971 
L 225.309091 206.07299 
L 229.818182 205.96627 
L 234.327273 205.85955 
L 238.836364 205.75283 
L 243.345455 205.646111 
L 247.854545 205.539391 
L 252.363636 205.432671 
L 256.872727 205.325951 
L 261.381818 205.219231 
L 265.890909 205.112511 
L 270.4 205.005791 
L 274.909091 204.899071 
L 279.418182 204.792352 
L 283.927273 204.685632 
L 288.436364 204.578912 
L 292.945455 204.472192 
L 297.454545 204.365472 
L 301.963636 204.258752 
L 306.472727 204.152033 
L 310.981818 204.045313 
L 315.490909 203.938593 
L 320 203.831873 
L 324.509091 203.725153 
L 329.018182 203.618434 
L 333.527273 203.511714 
L 338.036364 203.404994 
L 342.545455 203.298274 
L 347.054545 203.191555 
L 351.563636 203.084835 
L 356.072727 202.978115 
L 360.581818 202.871395 
L 365.090909 202.764675 
L 369.6 202.657956 
L 374.109091 202.551236 
L 378.618182 202.444516 
L 383.127273 202.337796 
L 387.636364 202.221863 
L 392.145455 202.10106 
L 396.654545 201.980009 
L 401.163636 201.858699 
L 405.672727 201.737117 
L 410.181818 201.615246 
L 414.690909 201.493071 
L 419.2 201.370575 
L 423.709091 201.247737 
L 428.218182 201.124537 
L 432.727273 201.000951 
L 437.236364 200.876952 
L 441.745455 200.752511 
L 446.254545 200.627595 
L 450.763636 200.502168 
L 455.272727 200.376188 
L 459.781818 200.249608 
L 464.290909 200.122373 
L 468.8 199.994421 
L 473.309091 199.865679 
L 477.818182 199.736062 
L 482.327273 199.60547 
L 486.836364 199.473782 
L 491.345455 199.340852 
L 495.854545 199.206499 
L 500.363636 199.0705 
L 504.872727 198.932567 
L 509.381818 198.792325 
L 513.890909 198.649268 
L 518.4 198.502692 
" style="fill:none;stroke:#e377c2;stroke-linecap:square;stroke-width:1.5;"/>
   </g>
   <g id="line2d_68">
    <path clip-path="url(#p279ada9b1c)" d="M 72 140.474492 
L 76.509091 140.367742 
L 81.018182 140.260995 
L 85.527273 140.154249 
L 90.036364 140.047505 
L 94.545455 139.940763 
L 99.054545 139.834023 
L 103.563636 139.727284 
L 108.072727 139.620547 
L 112.581818 139.513811 
L 117.090909 139.407077 
L 121.6 139.300343 
L 126.109091 139.193611 
L 130.618182 139.08688 
L 135.127273 138.980149 
L 139.636364 138.873419 
L 144.145455 138.766691 
L 148.654545 138.659963 
L 153.163636 138.553235 
L 157.672727 138.446508 
L 162.181818 138.339782 
L 166.690909 138.233056 
L 171.2 138.126331 
L 175.709091 138.019606 
L 180.218182 137.912882 
L 184.727273 137.806158 
L 189.236364 137.699434 
L 193.745455 137.592711 
L 198.254545 137.485988 
L 202.763636 137.379265 
L 207.272727 137.272542 
L 211.781818 137.16582 
L 216.290909 137.059098 
L 220.8 136.952376 
L 225.309091 136.845654 
L 229.818182 136.738933 
L 234.327273 136.632211 
L 238.836364 136.52549 
L 243.345455 136.418769 
L 247.854545 136.312048 
L 252.363636 136.205327 
L 256.872727 136.098606 
L 261.381818 135.991886 
L 265.890909 135.885165 
L 270.4 135.778445 
L 274.909091 135.671724 
L 279.418182 135.565004 
L 283.927273 135.458283 
L 288.436364 135.351563 
L 292.945455 135.244843 
L 297.454545 135.138123 
L 301.963636 135.031402 
L 306.472727 134.924682 
L 310.981818 134.817962 
L 315.490909 134.711242 
L 320 134.604522 
L 324.509091 134.497802 
L 329.018182 134.391082 
L 333.527273 134.284362 
L 338.036364 134.177642 
L 342.545455 134.070922 
L 347.054545 133.964202 
L 351.563636 133.857482 
L 356.072727 133.750762 
L 360.581818 133.644043 
L 365.090909 133.537323 
L 369.6 133.430603 
L 374.109091 133.323883 
L 378.618182 133.217163 
L 383.127273 133.110443 
L 387.636364 132.994514 
L 392.145455 132.873716 
L 396.654545 132.752672 
L 401.163636 132.631368 
L 405.672727 132.509791 
L 410.181818 132.387927 
L 414.690909 132.265759 
L 419.2 132.143269 
L 423.709091 132.020438 
L 428.218182 131.897245 
L 432.727273 131.773665 
L 437.236364 131.649673 
L 441.745455 131.52524 
L 446.254545 131.400332 
L 450.763636 131.274913 
L 455.272727 131.148941 
L 459.781818 131.022369 
L 464.290909 130.895142 
L 468.8 130.767199 
L 473.309091 130.638466 
L 477.818182 130.508859 
L 482.327273 130.378277 
L 486.836364 130.246599 
L 491.345455 130.11368 
L 495.854545 129.979339 
L 500.363636 129.843352 
L 504.872727 129.705432 
L 509.381818 129.565203 
L 513.890909 129.422162 
L 518.4 129.275602 
" style="fill:none;stroke:#7f7f7f;stroke-linecap:square;stroke-width:1.5;"/>
   </g>
   <g id="line2d_69">
    <path clip-path="url(#p279ada9b1c)" d="M 72 100.556055 
L 76.509091 100.443249 
L 81.018182 100.330897 
L 85.527273 100.218969 
L 90.036364 100.107433 
L 94.545455 99.996262 
L 99.054545 99.885428 
L 103.563636 99.774909 
L 108.072727 99.664681 
L 112.581818 99.554722 
L 117.090909 99.445013 
L 121.6 99.335536 
L 126.109091 99.226273 
L 130.618182 99.117209 
L 135.127273 99.008329 
L 139.636364 98.899618 
L 144.145455 98.791065 
L 148.654545 98.682658 
L 153.163636 98.574385 
L 157.672727 98.466236 
L 162.181818 98.358201 
L 166.690909 98.250273 
L 171.2 98.142443 
L 175.709091 98.034703 
L 180.218182 97.927046 
L 184.727273 97.819466 
L 189.236364 97.711957 
L 193.745455 97.604513 
L 198.254545 97.497129 
L 202.763636 97.3898 
L 207.272727 97.282523 
L 211.781818 97.175292 
L 216.290909 97.068105 
L 220.8 96.960957 
L 225.309091 96.853846 
L 229.818182 96.746768 
L 234.327273 96.639721 
L 238.836364 96.532702 
L 243.345455 96.42571 
L 247.854545 96.318741 
L 252.363636 96.211794 
L 256.872727 96.104867 
L 261.381818 95.997958 
L 265.890909 95.891066 
L 270.4 95.78419 
L 274.909091 95.677328 
L 279.418182 95.570478 
L 283.927273 95.463641 
L 288.436364 95.356814 
L 292.945455 95.249997 
L 297.454545 95.143189 
L 301.963636 95.036389 
L 306.472727 94.929597 
L 310.981818 94.822811 
L 315.490909 94.716032 
L 320 94.609258 
L 324.509091 94.50249 
L 329.018182 94.395726 
L 333.527273 94.288967 
L 338.036364 94.182211 
L 342.545455 94.075459 
L 347.054545 93.96871 
L 351.563636 93.861964 
L 356.072727 93.755221 
L 360.581818 93.64848 
L 365.090909 93.541741 
L 369.6 93.435005 
L 374.109091 93.32827 
L 378.618182 93.221536 
L 383.127273 93.114804 
L 387.636364 92.998866 
L 392.145455 92.878062 
L 396.654545 92.757012 
L 401.163636 92.635703 
L 405.672727 92.514123 
L 410.181818 92.392255 
L 414.690909 92.270085 
L 419.2 92.147594 
L 423.709091 92.024762 
L 428.218182 91.901568 
L 432.727273 91.777989 
L 437.236364 91.653997 
L 441.745455 91.529565 
L 446.254545 91.404658 
L 450.763636 91.279241 
L 455.272727 91.153271 
L 459.781818 91.026701 
L 464.290909 90.899478 
L 468.8 90.771538 
L 473.309091 90.642809 
L 477.818182 90.513205 
L 482.327273 90.382627 
L 486.836364 90.250954 
L 491.345455 90.118039 
L 495.854545 89.983704 
L 500.363636 89.847722 
L 504.872727 89.709808 
L 509.381818 89.569586 
L 513.890909 89.426552 
L 518.4 89.28 
" style="fill:none;stroke:#bcbd22;stroke-linecap:square;stroke-width:1.5;"/>
   </g>
   <g id="patch_3">
    <path d="M 72 512.64 
L 72 69.12 
" style="fill:none;stroke:#000000;stroke-linecap:square;stroke-linejoin:miter;stroke-width:0.8;"/>
   </g>
   <g id="patch_4">
    <path d="M 518.4 512.64 
L 518.4 69.12 
" style="fill:none;stroke:#000000;stroke-linecap:square;stroke-linejoin:miter;stroke-width:0.8;"/>
   </g>
   <g id="patch_5">
    <path d="M 72 512.64 
L 518.4 512.64 
" style="fill:none;stroke:#000000;stroke-linecap:square;stroke-linejoin:miter;stroke-width:0.8;"/>
   </g>
   <g id="patch_6">
    <path d="M 72 69.12 
L 518.4 69.12 
" style="fill:none;stroke:#000000;stroke-linecap:square;stroke-linejoin:miter;stroke-width:0.8;"/>
   </g>
   <g id="text_15">
    <!-- 0.1 GHz -->
    <defs>
     <path d="M 10.6875 12.40625 
L 21 12.40625 
L 21 0 
L 10.6875 0 
z
" id="DejaVuSans-46"/>
     <path d="M 59.515625 10.40625 
L 59.515625 29.984375 
L 43.40625 29.984375 
L 43.40625 38.09375 
L 69.28125 38.09375 
L 69.28125 6.78125 
Q 63.578125 2.734375 56.6875 0.65625 
Q 49.8125 -1.421875 42 -1.421875 
Q 24.90625 -1.421875 15.25 8.5625 
Q 5.609375 18.5625 5.609375 36.375 
Q 5.609375 54.25 15.25 64.234375 
Q 24.90625 74.21875 42 74.21875 
Q 49.125 74.21875 55.546875 72.453125 
Q 61.96875 70.703125 67.390625 67.28125 
L 67.390625 56.78125 
Q 61.921875 61.421875 55.765625 63.765625 
Q 49.609375 66.109375 42.828125 66.109375 
Q 29.4375 66.109375 22.71875 58.640625 
Q 16.015625 51.171875 16.015625 36.375 
Q 16.015625 21.625 22.71875 14.15625 
Q 29.4375 6.6875 42.828125 6.6875 
Q 48.046875 6.6875 52.140625 7.59375 
Q 56.25 8.5 59.515625 10.40625 
z
" id="DejaVuSans-71"/>
     <path d="M 9.8125 72.90625 
L 19.671875 72.90625 
L 19.671875 43.015625 
L 55.515625 43.015625 
L 55.515625 72.90625 
L 65.375 72.90625 
L 65.375 0 
L 55.515625 0 
L 55.515625 34.71875 
L 19.671875 34.71875 
L 19.671875 0 
L 9.8125 0 
z
" id="DejaVuSans-72"/>
     <path d="M 5.515625 54.6875 
L 48.1875 54.6875 
L 48.1875 46.484375 
L 14.40625 7.171875 
L 48.1875 7.171875 
L 48.1875 0 
L 4.296875 0 
L 4.296875 8.203125 
L 38.09375 47.515625 
L 5.515625 47.515625 
z
" id="DejaVuSans-122"/>
    </defs>
    <g style="fill:#1f77b4;" transform="translate(100.597712 502.657536)scale(0.1 -0.1)">
     <use xlink:href="#DejaVuSans-48"/>
     <use x="63.623047" xlink:href="#DejaVuSans-46"/>
     <use x="95.410156" xlink:href="#DejaVuSans-49"/>
     <use x="159.033203" xlink:href="#DejaVuSans-32"/>
     <use x="190.820312" xlink:href="#DejaVuSans-71"/>
     <use x="268.310547" xlink:href="#DejaVuSans-72"/>
     <use x="343.505859" xlink:href="#DejaVuSans-122"/>
    </g>
   </g>
   <g id="text_16">
    <!-- 0.5 GHz -->
    <defs>
     <path d="M 10.796875 72.90625 
L 49.515625 72.90625 
L 49.515625 64.59375 
L 19.828125 64.59375 
L 19.828125 46.734375 
Q 21.96875 47.46875 24.109375 47.828125 
Q 26.265625 48.1875 28.421875 48.1875 
Q 40.625 48.1875 47.75 41.5 
Q 54.890625 34.8125 54.890625 23.390625 
Q 54.890625 11.625 47.5625 5.09375 
Q 40.234375 -1.421875 26.90625 -1.421875 
Q 22.3125 -1.421875 17.546875 -0.640625 
Q 12.796875 0.140625 7.71875 1.703125 
L 7.71875 11.625 
Q 12.109375 9.234375 16.796875 8.0625 
Q 21.484375 6.890625 26.703125 6.890625 
Q 35.15625 6.890625 40.078125 11.328125 
Q 45.015625 15.765625 45.015625 23.390625 
Q 45.015625 31 40.078125 35.4375 
Q 35.15625 39.890625 26.703125 39.890625 
Q 22.75 39.890625 18.8125 39.015625 
Q 14.890625 38.140625 10.796875 36.28125 
z
" id="DejaVuSans-53"/>
    </defs>
    <g style="fill:#ff7f0e;" transform="translate(100.597712 410.715262)scale(0.1 -0.1)">
     <use xlink:href="#DejaVuSans-48"/>
     <use x="63.623047" xlink:href="#DejaVuSans-46"/>
     <use x="95.410156" xlink:href="#DejaVuSans-53"/>
     <use x="159.033203" xlink:href="#DejaVuSans-32"/>
     <use x="190.820312" xlink:href="#DejaVuSans-71"/>
     <use x="268.310547" xlink:href="#DejaVuSans-72"/>
     <use x="343.505859" xlink:href="#DejaVuSans-122"/>
    </g>
   </g>
   <g id="text_17">
    <!-- 1.0 GHz -->
    <g style="fill:#2ca02c;" transform="translate(100.597712 357.358433)scale(0.1 -0.1)">
     <use xlink:href="#DejaVuSans-49"/>
     <use x="63.623047" xlink:href="#DejaVuSans-46"/>
     <use x="95.410156" xlink:href="#DejaVuSans-48"/>
     <use x="159.033203" xlink:href="#DejaVuSans-32"/>
     <use x="190.820312" xlink:href="#DejaVuSans-71"/>
     <use x="268.310547" xlink:href="#DejaVuSans-72"/>
     <use x="343.505859" xlink:href="#DejaVuSans-122"/>
    </g>
   </g>
   <g id="text_18">
    <!-- 2.0 GHz -->
    <g style="fill:#d62728;" transform="translate(100.597712 328.058774)scale(0.1 -0.1)">
     <use xlink:href="#DejaVuSans-50"/>
     <use x="63.623047" xlink:href="#DejaVuSans-46"/>
     <use x="95.410156" xlink:href="#DejaVuSans-48"/>
     <use x="159.033203" xlink:href="#DejaVuSans-32"/>
     <use x="190.820312" xlink:href="#DejaVuSans-71"/>
     <use x="268.310547" xlink:href="#DejaVuSans-72"/>
     <use x="343.505859" xlink:href="#DejaVuSans-122"/>
    </g>
   </g>
   <g id="text_19">
    <!-- 5.0 GHz -->
    <g style="fill:#9467bd;" transform="translate(100.597712 289.388353)scale(0.1 -0.1)">
     <use xlink:href="#DejaVuSans-53"/>
     <use x="63.623047" xlink:href="#DejaVuSans-46"/>
     <use x="95.410156" xlink:href="#DejaVuSans-48"/>
     <use x="159.033203" xlink:href="#DejaVuSans-32"/>
     <use x="190.820312" xlink:href="#DejaVuSans-71"/>
     <use x="268.310547" xlink:href="#DejaVuSans-72"/>
     <use x="343.505859" xlink:href="#DejaVuSans-122"/>
    </g>
   </g>
   <g id="text_20">
    <!-- 10.0 GHz -->
    <g style="fill:#8c564b;" transform="translate(100.597712 259.664427)scale(0.1 -0.1)">
     <use xlink:href="#DejaVuSans-49"/>
     <use x="63.623047" xlink:href="#DejaVuSans-48"/>
     <use x="127.246094" xlink:href="#DejaVuSans-46"/>
     <use x="159.033203" xlink:href="#DejaVuSans-48"/>
     <use x="222.65625" xlink:href="#DejaVuSans-32"/>
     <use x="254.443359" xlink:href="#DejaVuSans-71"/>
     <use x="331.933594" xlink:href="#DejaVuSans-72"/>
     <use x="407.128906" xlink:href="#DejaVuSans-122"/>
    </g>
   </g>
   <g id="text_21">
    <!-- 20.0 GHz -->
    <g style="fill:#e377c2;" transform="translate(100.597712 219.87902)scale(0.1 -0.1)">
     <use xlink:href="#DejaVuSans-50"/>
     <use x="63.623047" xlink:href="#DejaVuSans-48"/>
     <use x="127.246094" xlink:href="#DejaVuSans-46"/>
     <use x="159.033203" xlink:href="#DejaVuSans-48"/>
     <use x="222.65625" xlink:href="#DejaVuSans-32"/>
     <use x="254.443359" xlink:href="#DejaVuSans-71"/>
     <use x="331.933594" xlink:href="#DejaVuSans-72"/>
     <use x="407.128906" xlink:href="#DejaVuSans-122"/>
    </g>
   </g>
   <g id="text_22">
    <!-- 50.0 GHz -->
    <g style="fill:#7f7f7f;" transform="translate(100.597712 150.651878)scale(0.1 -0.1)">
     <use xlink:href="#DejaVuSans-53"/>
     <use x="63.623047" xlink:href="#DejaVuSans-48"/>
     <use x="127.246094" xlink:href="#DejaVuSans-46"/>
     <use x="159.033203" xlink:href="#DejaVuSans-48"/>
     <use x="222.65625" xlink:href="#DejaVuSans-32"/>
     <use x="254.443359" xlink:href="#DejaVuSans-71"/>
     <use x="331.933594" xlink:href="#DejaVuSans-72"/>
     <use x="407.128906" xlink:href="#DejaVuSans-122"/>
    </g>
   </g>
   <g id="text_23">
    <!-- 100.0 GHz -->
    <g style="fill:#bcbd22;" transform="translate(100.597712 110.703283)scale(0.1 -0.1)">
     <use xlink:href="#DejaVuSans-49"/>
     <use x="63.623047" xlink:href="#DejaVuSans-48"/>
     <use x="127.246094" xlink:href="#DejaVuSans-48"/>
     <use x="190.869141" xlink:href="#DejaVuSans-46"/>
     <use x="222.65625" xlink:href="#DejaVuSans-48"/>
     <use x="286.279297" xlink:href="#DejaVuSans-32"/>
     <use x="318.066406" xlink:href="#DejaVuSans-71"/>
     <use x="395.556641" xlink:href="#DejaVuSans-72"/>
     <use x="470.751953" xlink:href="#DejaVuSans-122"/>
    </g>
   </g>
  </g>
 </g>
 <defs>
  <clipPath id="p279ada9b1c">
   <rect height="443.52" width="446.4" x="72" y="69.12"/>
  </clipPath>
 </defs>
</svg>
