<?xml version="1.0" encoding="utf-8" standalone="no"?>
<!DOCTYPE svg PUBLIC "-//W3C//DTD SVG 1.1//EN"
  "http://www.w3.org/Graphics/SVG/1.1/DTD/svg11.dtd">
<svg height="576pt" version="1.1" viewBox="0 0 576 576" width="576pt" xmlns="http://www.w3.org/2000/svg" xmlns:xlink="http://www.w3.org/1999/xlink">
 <metadata>
  <rdf:RDF xmlns:cc="http://creativecommons.org/ns#" xmlns:dc="http://purl.org/dc/elements/1.1/" xmlns:rdf="http://www.w3.org/1999/02/22-rdf-syntax-ns#">
   <cc:Work>
    <dc:type rdf:resource="http://purl.org/dc/dcmitype/StillImage"/>
    <dc:date>2021-07-07T09:00:07.703476</dc:date>
    <dc:format>image/svg+xml</dc:format>
    <dc:creator>
     <cc:Agent>
      <dc:title>Matplotlib v3.4.2, https://matplotlib.org/</dc:title>
     </cc:Agent>
    </dc:creator>
   </cc:Work>
  </rdf:RDF>
 </metadata>
 <defs>
  <style type="text/css">*{stroke-linecap:butt;stroke-linejoin:round;}</style>
 </defs>
 <g id="figure_1">
  <g id="patch_1">
   <path d="M 0 576 
L 576 576 
L 576 0 
L 0 0 
z
" style="fill:#ffffff;"/>
  </g>
  <g id="axes_1">
   <g id="patch_2">
    <path d="M 72 512.64 
L 518.4 512.64 
L 518.4 69.12 
L 72 69.12 
z
" style="fill:#ffffff;"/>
   </g>
   <g id="matplotlib.axis_1">
    <g id="xtick_1">
     <g id="line2d_1">
      <path clip-path="url(#pd328dcc45c)" d="M 72 512.64 
L 72 69.12 
" style="fill:none;stroke:#b0b0b0;stroke-linecap:square;stroke-width:0.8;"/>
     </g>
     <g id="line2d_2">
      <defs>
       <path d="M 0 0 
L 0 3.5 
" id="md6b4e2d344" style="stroke:#000000;stroke-width:0.8;"/>
      </defs>
      <g>
       <use style="stroke:#000000;stroke-width:0.8;" x="72" xlink:href="#md6b4e2d344" y="512.64"/>
      </g>
     </g>
     <g id="text_1">
      <!-- $\mathdefault{10^{-3}}$ -->
      <g transform="translate(60.25 527.238438)scale(0.1 -0.1)">
       <defs>
        <path d="M 794 531 
L 1825 531 
L 1825 4091 
L 703 3866 
L 703 4441 
L 1819 4666 
L 2450 4666 
L 2450 531 
L 3481 531 
L 3481 0 
L 794 0 
L 794 531 
z
" id="DejaVuSans-31" transform="scale(0.015625)"/>
        <path d="M 2034 4250 
Q 1547 4250 1301 3770 
Q 1056 3291 1056 2328 
Q 1056 1369 1301 889 
Q 1547 409 2034 409 
Q 2525 409 2770 889 
Q 3016 1369 3016 2328 
Q 3016 3291 2770 3770 
Q 2525 4250 2034 4250 
z
M 2034 4750 
Q 2819 4750 3233 4129 
Q 3647 3509 3647 2328 
Q 3647 1150 3233 529 
Q 2819 -91 2034 -91 
Q 1250 -91 836 529 
Q 422 1150 422 2328 
Q 422 3509 836 4129 
Q 1250 4750 2034 4750 
z
" id="DejaVuSans-30" transform="scale(0.015625)"/>
        <path d="M 678 2272 
L 4684 2272 
L 4684 1741 
L 678 1741 
L 678 2272 
z
" id="DejaVuSans-2212" transform="scale(0.015625)"/>
        <path d="M 2597 2516 
Q 3050 2419 3304 2112 
Q 3559 1806 3559 1356 
Q 3559 666 3084 287 
Q 2609 -91 1734 -91 
Q 1441 -91 1130 -33 
Q 819 25 488 141 
L 488 750 
Q 750 597 1062 519 
Q 1375 441 1716 441 
Q 2309 441 2620 675 
Q 2931 909 2931 1356 
Q 2931 1769 2642 2001 
Q 2353 2234 1838 2234 
L 1294 2234 
L 1294 2753 
L 1863 2753 
Q 2328 2753 2575 2939 
Q 2822 3125 2822 3475 
Q 2822 3834 2567 4026 
Q 2313 4219 1838 4219 
Q 1578 4219 1281 4162 
Q 984 4106 628 3988 
L 628 4550 
Q 988 4650 1302 4700 
Q 1616 4750 1894 4750 
Q 2613 4750 3031 4423 
Q 3450 4097 3450 3541 
Q 3450 3153 3228 2886 
Q 3006 2619 2597 2516 
z
" id="DejaVuSans-33" transform="scale(0.015625)"/>
       </defs>
       <use transform="translate(0 0.765625)" xlink:href="#DejaVuSans-31"/>
       <use transform="translate(63.623047 0.765625)" xlink:href="#DejaVuSans-30"/>
       <use transform="translate(128.203125 39.046875)scale(0.7)" xlink:href="#DejaVuSans-2212"/>
       <use transform="translate(186.855469 39.046875)scale(0.7)" xlink:href="#DejaVuSans-33"/>
      </g>
     </g>
    </g>
    <g id="xtick_2">
     <g id="line2d_3">
      <path clip-path="url(#pd328dcc45c)" d="M 166.999542 512.64 
L 166.999542 69.12 
" style="fill:none;stroke:#b0b0b0;stroke-linecap:square;stroke-width:0.8;"/>
     </g>
     <g id="line2d_4">
      <g>
       <use style="stroke:#000000;stroke-width:0.8;" x="166.999542" xlink:href="#md6b4e2d344" y="512.64"/>
      </g>
     </g>
     <g id="text_2">
      <!-- $\mathdefault{10^{-2}}$ -->
      <g transform="translate(155.249542 527.238438)scale(0.1 -0.1)">
       <defs>
        <path d="M 1228 531 
L 3431 531 
L 3431 0 
L 469 0 
L 469 531 
Q 828 903 1448 1529 
Q 2069 2156 2228 2338 
Q 2531 2678 2651 2914 
Q 2772 3150 2772 3378 
Q 2772 3750 2511 3984 
Q 2250 4219 1831 4219 
Q 1534 4219 1204 4116 
Q 875 4013 500 3803 
L 500 4441 
Q 881 4594 1212 4672 
Q 1544 4750 1819 4750 
Q 2544 4750 2975 4387 
Q 3406 4025 3406 3419 
Q 3406 3131 3298 2873 
Q 3191 2616 2906 2266 
Q 2828 2175 2409 1742 
Q 1991 1309 1228 531 
z
" id="DejaVuSans-32" transform="scale(0.015625)"/>
       </defs>
       <use transform="translate(0 0.765625)" xlink:href="#DejaVuSans-31"/>
       <use transform="translate(63.623047 0.765625)" xlink:href="#DejaVuSans-30"/>
       <use transform="translate(128.203125 39.046875)scale(0.7)" xlink:href="#DejaVuSans-2212"/>
       <use transform="translate(186.855469 39.046875)scale(0.7)" xlink:href="#DejaVuSans-32"/>
      </g>
     </g>
    </g>
    <g id="xtick_3">
     <g id="line2d_5">
      <path clip-path="url(#pd328dcc45c)" d="M 261.999085 512.64 
L 261.999085 69.12 
" style="fill:none;stroke:#b0b0b0;stroke-linecap:square;stroke-width:0.8;"/>
     </g>
     <g id="line2d_6">
      <g>
       <use style="stroke:#000000;stroke-width:0.8;" x="261.999085" xlink:href="#md6b4e2d344" y="512.64"/>
      </g>
     </g>
     <g id="text_3">
      <!-- $\mathdefault{10^{-1}}$ -->
      <g transform="translate(250.249085 527.238438)scale(0.1 -0.1)">
       <use transform="translate(0 0.684375)" xlink:href="#DejaVuSans-31"/>
       <use transform="translate(63.623047 0.684375)" xlink:href="#DejaVuSans-30"/>
       <use transform="translate(128.203125 38.965625)scale(0.7)" xlink:href="#DejaVuSans-2212"/>
       <use transform="translate(186.855469 38.965625)scale(0.7)" xlink:href="#DejaVuSans-31"/>
      </g>
     </g>
    </g>
    <g id="xtick_4">
     <g id="line2d_7">
      <path clip-path="url(#pd328dcc45c)" d="M 356.998627 512.64 
L 356.998627 69.12 
" style="fill:none;stroke:#b0b0b0;stroke-linecap:square;stroke-width:0.8;"/>
     </g>
     <g id="line2d_8">
      <g>
       <use style="stroke:#000000;stroke-width:0.8;" x="356.998627" xlink:href="#md6b4e2d344" y="512.64"/>
      </g>
     </g>
     <g id="text_4">
      <!-- $\mathdefault{10^{0}}$ -->
      <g transform="translate(348.198627 527.238438)scale(0.1 -0.1)">
       <use transform="translate(0 0.765625)" xlink:href="#DejaVuSans-31"/>
       <use transform="translate(63.623047 0.765625)" xlink:href="#DejaVuSans-30"/>
       <use transform="translate(128.203125 39.046875)scale(0.7)" xlink:href="#DejaVuSans-30"/>
      </g>
     </g>
    </g>
    <g id="xtick_5">
     <g id="line2d_9">
      <path clip-path="url(#pd328dcc45c)" d="M 451.998169 512.64 
L 451.998169 69.12 
" style="fill:none;stroke:#b0b0b0;stroke-linecap:square;stroke-width:0.8;"/>
     </g>
     <g id="line2d_10">
      <g>
       <use style="stroke:#000000;stroke-width:0.8;" x="451.998169" xlink:href="#md6b4e2d344" y="512.64"/>
      </g>
     </g>
     <g id="text_5">
      <!-- $\mathdefault{10^{1}}$ -->
      <g transform="translate(443.198169 527.238438)scale(0.1 -0.1)">
       <use transform="translate(0 0.684375)" xlink:href="#DejaVuSans-31"/>
       <use transform="translate(63.623047 0.684375)" xlink:href="#DejaVuSans-30"/>
       <use transform="translate(128.203125 38.965625)scale(0.7)" xlink:href="#DejaVuSans-31"/>
      </g>
     </g>
    </g>
    <g id="xtick_6">
     <g id="line2d_11">
      <defs>
       <path d="M 0 0 
L 0 2 
" id="mf19a057b3e" style="stroke:#000000;stroke-width:0.6;"/>
      </defs>
      <g>
       <use style="stroke:#000000;stroke-width:0.6;" x="100.597712" xlink:href="#mf19a057b3e" y="512.64"/>
      </g>
     </g>
    </g>
    <g id="xtick_7">
     <g id="line2d_12">
      <g>
       <use style="stroke:#000000;stroke-width:0.6;" x="117.326301" xlink:href="#mf19a057b3e" y="512.64"/>
      </g>
     </g>
    </g>
    <g id="xtick_8">
     <g id="line2d_13">
      <g>
       <use style="stroke:#000000;stroke-width:0.6;" x="129.195424" xlink:href="#mf19a057b3e" y="512.64"/>
      </g>
     </g>
    </g>
    <g id="xtick_9">
     <g id="line2d_14">
      <g>
       <use style="stroke:#000000;stroke-width:0.6;" x="138.401831" xlink:href="#mf19a057b3e" y="512.64"/>
      </g>
     </g>
    </g>
    <g id="xtick_10">
     <g id="line2d_15">
      <g>
       <use style="stroke:#000000;stroke-width:0.6;" x="145.924013" xlink:href="#mf19a057b3e" y="512.64"/>
      </g>
     </g>
    </g>
    <g id="xtick_11">
     <g id="line2d_16">
      <g>
       <use style="stroke:#000000;stroke-width:0.6;" x="152.283927" xlink:href="#mf19a057b3e" y="512.64"/>
      </g>
     </g>
    </g>
    <g id="xtick_12">
     <g id="line2d_17">
      <g>
       <use style="stroke:#000000;stroke-width:0.6;" x="157.793135" xlink:href="#mf19a057b3e" y="512.64"/>
      </g>
     </g>
    </g>
    <g id="xtick_13">
     <g id="line2d_18">
      <g>
       <use style="stroke:#000000;stroke-width:0.6;" x="162.652602" xlink:href="#mf19a057b3e" y="512.64"/>
      </g>
     </g>
    </g>
    <g id="xtick_14">
     <g id="line2d_19">
      <g>
       <use style="stroke:#000000;stroke-width:0.6;" x="195.597254" xlink:href="#mf19a057b3e" y="512.64"/>
      </g>
     </g>
    </g>
    <g id="xtick_15">
     <g id="line2d_20">
      <g>
       <use style="stroke:#000000;stroke-width:0.6;" x="212.325843" xlink:href="#mf19a057b3e" y="512.64"/>
      </g>
     </g>
    </g>
    <g id="xtick_16">
     <g id="line2d_21">
      <g>
       <use style="stroke:#000000;stroke-width:0.6;" x="224.194966" xlink:href="#mf19a057b3e" y="512.64"/>
      </g>
     </g>
    </g>
    <g id="xtick_17">
     <g id="line2d_22">
      <g>
       <use style="stroke:#000000;stroke-width:0.6;" x="233.401373" xlink:href="#mf19a057b3e" y="512.64"/>
      </g>
     </g>
    </g>
    <g id="xtick_18">
     <g id="line2d_23">
      <g>
       <use style="stroke:#000000;stroke-width:0.6;" x="240.923555" xlink:href="#mf19a057b3e" y="512.64"/>
      </g>
     </g>
    </g>
    <g id="xtick_19">
     <g id="line2d_24">
      <g>
       <use style="stroke:#000000;stroke-width:0.6;" x="247.283469" xlink:href="#mf19a057b3e" y="512.64"/>
      </g>
     </g>
    </g>
    <g id="xtick_20">
     <g id="line2d_25">
      <g>
       <use style="stroke:#000000;stroke-width:0.6;" x="252.792678" xlink:href="#mf19a057b3e" y="512.64"/>
      </g>
     </g>
    </g>
    <g id="xtick_21">
     <g id="line2d_26">
      <g>
       <use style="stroke:#000000;stroke-width:0.6;" x="257.652144" xlink:href="#mf19a057b3e" y="512.64"/>
      </g>
     </g>
    </g>
    <g id="xtick_22">
     <g id="line2d_27">
      <g>
       <use style="stroke:#000000;stroke-width:0.6;" x="290.596797" xlink:href="#mf19a057b3e" y="512.64"/>
      </g>
     </g>
    </g>
    <g id="xtick_23">
     <g id="line2d_28">
      <g>
       <use style="stroke:#000000;stroke-width:0.6;" x="307.325386" xlink:href="#mf19a057b3e" y="512.64"/>
      </g>
     </g>
    </g>
    <g id="xtick_24">
     <g id="line2d_29">
      <g>
       <use style="stroke:#000000;stroke-width:0.6;" x="319.194508" xlink:href="#mf19a057b3e" y="512.64"/>
      </g>
     </g>
    </g>
    <g id="xtick_25">
     <g id="line2d_30">
      <g>
       <use style="stroke:#000000;stroke-width:0.6;" x="328.400915" xlink:href="#mf19a057b3e" y="512.64"/>
      </g>
     </g>
    </g>
    <g id="xtick_26">
     <g id="line2d_31">
      <g>
       <use style="stroke:#000000;stroke-width:0.6;" x="335.923097" xlink:href="#mf19a057b3e" y="512.64"/>
      </g>
     </g>
    </g>
    <g id="xtick_27">
     <g id="line2d_32">
      <g>
       <use style="stroke:#000000;stroke-width:0.6;" x="342.283012" xlink:href="#mf19a057b3e" y="512.64"/>
      </g>
     </g>
    </g>
    <g id="xtick_28">
     <g id="line2d_33">
      <g>
       <use style="stroke:#000000;stroke-width:0.6;" x="347.79222" xlink:href="#mf19a057b3e" y="512.64"/>
      </g>
     </g>
    </g>
    <g id="xtick_29">
     <g id="line2d_34">
      <g>
       <use style="stroke:#000000;stroke-width:0.6;" x="352.651686" xlink:href="#mf19a057b3e" y="512.64"/>
      </g>
     </g>
    </g>
    <g id="xtick_30">
     <g id="line2d_35">
      <g>
       <use style="stroke:#000000;stroke-width:0.6;" x="385.596339" xlink:href="#mf19a057b3e" y="512.64"/>
      </g>
     </g>
    </g>
    <g id="xtick_31">
     <g id="line2d_36">
      <g>
       <use style="stroke:#000000;stroke-width:0.6;" x="402.324928" xlink:href="#mf19a057b3e" y="512.64"/>
      </g>
     </g>
    </g>
    <g id="xtick_32">
     <g id="line2d_37">
      <g>
       <use style="stroke:#000000;stroke-width:0.6;" x="414.194051" xlink:href="#mf19a057b3e" y="512.64"/>
      </g>
     </g>
    </g>
    <g id="xtick_33">
     <g id="line2d_38">
      <g>
       <use style="stroke:#000000;stroke-width:0.6;" x="423.400458" xlink:href="#mf19a057b3e" y="512.64"/>
      </g>
     </g>
    </g>
    <g id="xtick_34">
     <g id="line2d_39">
      <g>
       <use style="stroke:#000000;stroke-width:0.6;" x="430.92264" xlink:href="#mf19a057b3e" y="512.64"/>
      </g>
     </g>
    </g>
    <g id="xtick_35">
     <g id="line2d_40">
      <g>
       <use style="stroke:#000000;stroke-width:0.6;" x="437.282554" xlink:href="#mf19a057b3e" y="512.64"/>
      </g>
     </g>
    </g>
    <g id="xtick_36">
     <g id="line2d_41">
      <g>
       <use style="stroke:#000000;stroke-width:0.6;" x="442.791763" xlink:href="#mf19a057b3e" y="512.64"/>
      </g>
     </g>
    </g>
    <g id="xtick_37">
     <g id="line2d_42">
      <g>
       <use style="stroke:#000000;stroke-width:0.6;" x="447.651229" xlink:href="#mf19a057b3e" y="512.64"/>
      </g>
     </g>
    </g>
    <g id="xtick_38">
     <g id="line2d_43">
      <g>
       <use style="stroke:#000000;stroke-width:0.6;" x="480.595881" xlink:href="#mf19a057b3e" y="512.64"/>
      </g>
     </g>
    </g>
    <g id="xtick_39">
     <g id="line2d_44">
      <g>
       <use style="stroke:#000000;stroke-width:0.6;" x="497.32447" xlink:href="#mf19a057b3e" y="512.64"/>
      </g>
     </g>
    </g>
    <g id="xtick_40">
     <g id="line2d_45">
      <g>
       <use style="stroke:#000000;stroke-width:0.6;" x="509.193593" xlink:href="#mf19a057b3e" y="512.64"/>
      </g>
     </g>
    </g>
    <g id="xtick_41">
     <g id="line2d_46">
      <g>
       <use style="stroke:#000000;stroke-width:0.6;" x="518.4" xlink:href="#mf19a057b3e" y="512.64"/>
      </g>
     </g>
    </g>
    <g id="text_6">
     <!-- Time percent [%] -->
     <g transform="translate(251.9875 540.916563)scale(0.1 -0.1)">
      <defs>
       <path d="M -19 4666 
L 3928 4666 
L 3928 4134 
L 2272 4134 
L 2272 0 
L 1638 0 
L 1638 4134 
L -19 4134 
L -19 4666 
z
" id="DejaVuSans-54" transform="scale(0.015625)"/>
       <path d="M 603 3500 
L 1178 3500 
L 1178 0 
L 603 0 
L 603 3500 
z
M 603 4863 
L 1178 4863 
L 1178 4134 
L 603 4134 
L 603 4863 
z
" id="DejaVuSans-69" transform="scale(0.015625)"/>
       <path d="M 3328 2828 
Q 3544 3216 3844 3400 
Q 4144 3584 4550 3584 
Q 5097 3584 5394 3201 
Q 5691 2819 5691 2113 
L 5691 0 
L 5113 0 
L 5113 2094 
Q 5113 2597 4934 2840 
Q 4756 3084 4391 3084 
Q 3944 3084 3684 2787 
Q 3425 2491 3425 1978 
L 3425 0 
L 2847 0 
L 2847 2094 
Q 2847 2600 2669 2842 
Q 2491 3084 2119 3084 
Q 1678 3084 1418 2786 
Q 1159 2488 1159 1978 
L 1159 0 
L 581 0 
L 581 3500 
L 1159 3500 
L 1159 2956 
Q 1356 3278 1631 3431 
Q 1906 3584 2284 3584 
Q 2666 3584 2933 3390 
Q 3200 3197 3328 2828 
z
" id="DejaVuSans-6d" transform="scale(0.015625)"/>
       <path d="M 3597 1894 
L 3597 1613 
L 953 1613 
Q 991 1019 1311 708 
Q 1631 397 2203 397 
Q 2534 397 2845 478 
Q 3156 559 3463 722 
L 3463 178 
Q 3153 47 2828 -22 
Q 2503 -91 2169 -91 
Q 1331 -91 842 396 
Q 353 884 353 1716 
Q 353 2575 817 3079 
Q 1281 3584 2069 3584 
Q 2775 3584 3186 3129 
Q 3597 2675 3597 1894 
z
M 3022 2063 
Q 3016 2534 2758 2815 
Q 2500 3097 2075 3097 
Q 1594 3097 1305 2825 
Q 1016 2553 972 2059 
L 3022 2063 
z
" id="DejaVuSans-65" transform="scale(0.015625)"/>
       <path id="DejaVuSans-20" transform="scale(0.015625)"/>
       <path d="M 1159 525 
L 1159 -1331 
L 581 -1331 
L 581 3500 
L 1159 3500 
L 1159 2969 
Q 1341 3281 1617 3432 
Q 1894 3584 2278 3584 
Q 2916 3584 3314 3078 
Q 3713 2572 3713 1747 
Q 3713 922 3314 415 
Q 2916 -91 2278 -91 
Q 1894 -91 1617 61 
Q 1341 213 1159 525 
z
M 3116 1747 
Q 3116 2381 2855 2742 
Q 2594 3103 2138 3103 
Q 1681 3103 1420 2742 
Q 1159 2381 1159 1747 
Q 1159 1113 1420 752 
Q 1681 391 2138 391 
Q 2594 391 2855 752 
Q 3116 1113 3116 1747 
z
" id="DejaVuSans-70" transform="scale(0.015625)"/>
       <path d="M 2631 2963 
Q 2534 3019 2420 3045 
Q 2306 3072 2169 3072 
Q 1681 3072 1420 2755 
Q 1159 2438 1159 1844 
L 1159 0 
L 581 0 
L 581 3500 
L 1159 3500 
L 1159 2956 
Q 1341 3275 1631 3429 
Q 1922 3584 2338 3584 
Q 2397 3584 2469 3576 
Q 2541 3569 2628 3553 
L 2631 2963 
z
" id="DejaVuSans-72" transform="scale(0.015625)"/>
       <path d="M 3122 3366 
L 3122 2828 
Q 2878 2963 2633 3030 
Q 2388 3097 2138 3097 
Q 1578 3097 1268 2742 
Q 959 2388 959 1747 
Q 959 1106 1268 751 
Q 1578 397 2138 397 
Q 2388 397 2633 464 
Q 2878 531 3122 666 
L 3122 134 
Q 2881 22 2623 -34 
Q 2366 -91 2075 -91 
Q 1284 -91 818 406 
Q 353 903 353 1747 
Q 353 2603 823 3093 
Q 1294 3584 2113 3584 
Q 2378 3584 2631 3529 
Q 2884 3475 3122 3366 
z
" id="DejaVuSans-63" transform="scale(0.015625)"/>
       <path d="M 3513 2113 
L 3513 0 
L 2938 0 
L 2938 2094 
Q 2938 2591 2744 2837 
Q 2550 3084 2163 3084 
Q 1697 3084 1428 2787 
Q 1159 2491 1159 1978 
L 1159 0 
L 581 0 
L 581 3500 
L 1159 3500 
L 1159 2956 
Q 1366 3272 1645 3428 
Q 1925 3584 2291 3584 
Q 2894 3584 3203 3211 
Q 3513 2838 3513 2113 
z
" id="DejaVuSans-6e" transform="scale(0.015625)"/>
       <path d="M 1172 4494 
L 1172 3500 
L 2356 3500 
L 2356 3053 
L 1172 3053 
L 1172 1153 
Q 1172 725 1289 603 
Q 1406 481 1766 481 
L 2356 481 
L 2356 0 
L 1766 0 
Q 1100 0 847 248 
Q 594 497 594 1153 
L 594 3053 
L 172 3053 
L 172 3500 
L 594 3500 
L 594 4494 
L 1172 4494 
z
" id="DejaVuSans-74" transform="scale(0.015625)"/>
       <path d="M 550 4863 
L 1875 4863 
L 1875 4416 
L 1125 4416 
L 1125 -397 
L 1875 -397 
L 1875 -844 
L 550 -844 
L 550 4863 
z
" id="DejaVuSans-5b" transform="scale(0.015625)"/>
       <path d="M 4653 2053 
Q 4381 2053 4226 1822 
Q 4072 1591 4072 1178 
Q 4072 772 4226 539 
Q 4381 306 4653 306 
Q 4919 306 5073 539 
Q 5228 772 5228 1178 
Q 5228 1588 5073 1820 
Q 4919 2053 4653 2053 
z
M 4653 2450 
Q 5147 2450 5437 2106 
Q 5728 1763 5728 1178 
Q 5728 594 5436 251 
Q 5144 -91 4653 -91 
Q 4153 -91 3862 251 
Q 3572 594 3572 1178 
Q 3572 1766 3864 2108 
Q 4156 2450 4653 2450 
z
M 1428 4353 
Q 1159 4353 1004 4120 
Q 850 3888 850 3481 
Q 850 3069 1003 2837 
Q 1156 2606 1428 2606 
Q 1700 2606 1854 2837 
Q 2009 3069 2009 3481 
Q 2009 3884 1853 4118 
Q 1697 4353 1428 4353 
z
M 4250 4750 
L 4750 4750 
L 1831 -91 
L 1331 -91 
L 4250 4750 
z
M 1428 4750 
Q 1922 4750 2215 4408 
Q 2509 4066 2509 3481 
Q 2509 2891 2217 2550 
Q 1925 2209 1428 2209 
Q 931 2209 642 2551 
Q 353 2894 353 3481 
Q 353 4063 643 4406 
Q 934 4750 1428 4750 
z
" id="DejaVuSans-25" transform="scale(0.015625)"/>
       <path d="M 1947 4863 
L 1947 -844 
L 622 -844 
L 622 -397 
L 1369 -397 
L 1369 4416 
L 622 4416 
L 622 4863 
L 1947 4863 
z
" id="DejaVuSans-5d" transform="scale(0.015625)"/>
      </defs>
      <use xlink:href="#DejaVuSans-54"/>
      <use x="57.958984" xlink:href="#DejaVuSans-69"/>
      <use x="85.742188" xlink:href="#DejaVuSans-6d"/>
      <use x="183.154297" xlink:href="#DejaVuSans-65"/>
      <use x="244.677734" xlink:href="#DejaVuSans-20"/>
      <use x="276.464844" xlink:href="#DejaVuSans-70"/>
      <use x="339.941406" xlink:href="#DejaVuSans-65"/>
      <use x="401.464844" xlink:href="#DejaVuSans-72"/>
      <use x="440.328125" xlink:href="#DejaVuSans-63"/>
      <use x="495.308594" xlink:href="#DejaVuSans-65"/>
      <use x="556.832031" xlink:href="#DejaVuSans-6e"/>
      <use x="620.210938" xlink:href="#DejaVuSans-74"/>
      <use x="659.419922" xlink:href="#DejaVuSans-20"/>
      <use x="691.207031" xlink:href="#DejaVuSans-5b"/>
      <use x="730.220703" xlink:href="#DejaVuSans-25"/>
      <use x="825.240234" xlink:href="#DejaVuSans-5d"/>
     </g>
    </g>
   </g>
   <g id="matplotlib.axis_2">
    <g id="ytick_1">
     <g id="line2d_47">
      <path clip-path="url(#pd328dcc45c)" d="M 72 510.187189 
L 518.4 510.187189 
" style="fill:none;stroke:#b0b0b0;stroke-linecap:square;stroke-width:0.8;"/>
     </g>
     <g id="line2d_48">
      <defs>
       <path d="M 0 0 
L -3.5 0 
" id="m49651f821a" style="stroke:#000000;stroke-width:0.8;"/>
      </defs>
      <g>
       <use style="stroke:#000000;stroke-width:0.8;" x="72" xlink:href="#m49651f821a" y="510.187189"/>
      </g>
     </g>
     <g id="text_7">
      <!-- 140 -->
      <g transform="translate(45.9125 513.986407)scale(0.1 -0.1)">
       <defs>
        <path d="M 2419 4116 
L 825 1625 
L 2419 1625 
L 2419 4116 
z
M 2253 4666 
L 3047 4666 
L 3047 1625 
L 3713 1625 
L 3713 1100 
L 3047 1100 
L 3047 0 
L 2419 0 
L 2419 1100 
L 313 1100 
L 313 1709 
L 2253 4666 
z
" id="DejaVuSans-34" transform="scale(0.015625)"/>
       </defs>
       <use xlink:href="#DejaVuSans-31"/>
       <use x="63.623047" xlink:href="#DejaVuSans-34"/>
       <use x="127.246094" xlink:href="#DejaVuSans-30"/>
      </g>
     </g>
    </g>
    <g id="ytick_2">
     <g id="line2d_49">
      <path clip-path="url(#pd328dcc45c)" d="M 72 445.798844 
L 518.4 445.798844 
" style="fill:none;stroke:#b0b0b0;stroke-linecap:square;stroke-width:0.8;"/>
     </g>
     <g id="line2d_50">
      <g>
       <use style="stroke:#000000;stroke-width:0.8;" x="72" xlink:href="#m49651f821a" y="445.798844"/>
      </g>
     </g>
     <g id="text_8">
      <!-- 160 -->
      <g transform="translate(45.9125 449.598062)scale(0.1 -0.1)">
       <defs>
        <path d="M 2113 2584 
Q 1688 2584 1439 2293 
Q 1191 2003 1191 1497 
Q 1191 994 1439 701 
Q 1688 409 2113 409 
Q 2538 409 2786 701 
Q 3034 994 3034 1497 
Q 3034 2003 2786 2293 
Q 2538 2584 2113 2584 
z
M 3366 4563 
L 3366 3988 
Q 3128 4100 2886 4159 
Q 2644 4219 2406 4219 
Q 1781 4219 1451 3797 
Q 1122 3375 1075 2522 
Q 1259 2794 1537 2939 
Q 1816 3084 2150 3084 
Q 2853 3084 3261 2657 
Q 3669 2231 3669 1497 
Q 3669 778 3244 343 
Q 2819 -91 2113 -91 
Q 1303 -91 875 529 
Q 447 1150 447 2328 
Q 447 3434 972 4092 
Q 1497 4750 2381 4750 
Q 2619 4750 2861 4703 
Q 3103 4656 3366 4563 
z
" id="DejaVuSans-36" transform="scale(0.015625)"/>
       </defs>
       <use xlink:href="#DejaVuSans-31"/>
       <use x="63.623047" xlink:href="#DejaVuSans-36"/>
       <use x="127.246094" xlink:href="#DejaVuSans-30"/>
      </g>
     </g>
    </g>
    <g id="ytick_3">
     <g id="line2d_51">
      <path clip-path="url(#pd328dcc45c)" d="M 72 381.410499 
L 518.4 381.410499 
" style="fill:none;stroke:#b0b0b0;stroke-linecap:square;stroke-width:0.8;"/>
     </g>
     <g id="line2d_52">
      <g>
       <use style="stroke:#000000;stroke-width:0.8;" x="72" xlink:href="#m49651f821a" y="381.410499"/>
      </g>
     </g>
     <g id="text_9">
      <!-- 180 -->
      <g transform="translate(45.9125 385.209717)scale(0.1 -0.1)">
       <defs>
        <path d="M 2034 2216 
Q 1584 2216 1326 1975 
Q 1069 1734 1069 1313 
Q 1069 891 1326 650 
Q 1584 409 2034 409 
Q 2484 409 2743 651 
Q 3003 894 3003 1313 
Q 3003 1734 2745 1975 
Q 2488 2216 2034 2216 
z
M 1403 2484 
Q 997 2584 770 2862 
Q 544 3141 544 3541 
Q 544 4100 942 4425 
Q 1341 4750 2034 4750 
Q 2731 4750 3128 4425 
Q 3525 4100 3525 3541 
Q 3525 3141 3298 2862 
Q 3072 2584 2669 2484 
Q 3125 2378 3379 2068 
Q 3634 1759 3634 1313 
Q 3634 634 3220 271 
Q 2806 -91 2034 -91 
Q 1263 -91 848 271 
Q 434 634 434 1313 
Q 434 1759 690 2068 
Q 947 2378 1403 2484 
z
M 1172 3481 
Q 1172 3119 1398 2916 
Q 1625 2713 2034 2713 
Q 2441 2713 2670 2916 
Q 2900 3119 2900 3481 
Q 2900 3844 2670 4047 
Q 2441 4250 2034 4250 
Q 1625 4250 1398 4047 
Q 1172 3844 1172 3481 
z
" id="DejaVuSans-38" transform="scale(0.015625)"/>
       </defs>
       <use xlink:href="#DejaVuSans-31"/>
       <use x="63.623047" xlink:href="#DejaVuSans-38"/>
       <use x="127.246094" xlink:href="#DejaVuSans-30"/>
      </g>
     </g>
    </g>
    <g id="ytick_4">
     <g id="line2d_53">
      <path clip-path="url(#pd328dcc45c)" d="M 72 317.022154 
L 518.4 317.022154 
" style="fill:none;stroke:#b0b0b0;stroke-linecap:square;stroke-width:0.8;"/>
     </g>
     <g id="line2d_54">
      <g>
       <use style="stroke:#000000;stroke-width:0.8;" x="72" xlink:href="#m49651f821a" y="317.022154"/>
      </g>
     </g>
     <g id="text_10">
      <!-- 200 -->
      <g transform="translate(45.9125 320.821372)scale(0.1 -0.1)">
       <use xlink:href="#DejaVuSans-32"/>
       <use x="63.623047" xlink:href="#DejaVuSans-30"/>
       <use x="127.246094" xlink:href="#DejaVuSans-30"/>
      </g>
     </g>
    </g>
    <g id="ytick_5">
     <g id="line2d_55">
      <path clip-path="url(#pd328dcc45c)" d="M 72 252.633809 
L 518.4 252.633809 
" style="fill:none;stroke:#b0b0b0;stroke-linecap:square;stroke-width:0.8;"/>
     </g>
     <g id="line2d_56">
      <g>
       <use style="stroke:#000000;stroke-width:0.8;" x="72" xlink:href="#m49651f821a" y="252.633809"/>
      </g>
     </g>
     <g id="text_11">
      <!-- 220 -->
      <g transform="translate(45.9125 256.433027)scale(0.1 -0.1)">
       <use xlink:href="#DejaVuSans-32"/>
       <use x="63.623047" xlink:href="#DejaVuSans-32"/>
       <use x="127.246094" xlink:href="#DejaVuSans-30"/>
      </g>
     </g>
    </g>
    <g id="ytick_6">
     <g id="line2d_57">
      <path clip-path="url(#pd328dcc45c)" d="M 72 188.245464 
L 518.4 188.245464 
" style="fill:none;stroke:#b0b0b0;stroke-linecap:square;stroke-width:0.8;"/>
     </g>
     <g id="line2d_58">
      <g>
       <use style="stroke:#000000;stroke-width:0.8;" x="72" xlink:href="#m49651f821a" y="188.245464"/>
      </g>
     </g>
     <g id="text_12">
      <!-- 240 -->
      <g transform="translate(45.9125 192.044682)scale(0.1 -0.1)">
       <use xlink:href="#DejaVuSans-32"/>
       <use x="63.623047" xlink:href="#DejaVuSans-34"/>
       <use x="127.246094" xlink:href="#DejaVuSans-30"/>
      </g>
     </g>
    </g>
    <g id="ytick_7">
     <g id="line2d_59">
      <path clip-path="url(#pd328dcc45c)" d="M 72 123.857119 
L 518.4 123.857119 
" style="fill:none;stroke:#b0b0b0;stroke-linecap:square;stroke-width:0.8;"/>
     </g>
     <g id="line2d_60">
      <g>
       <use style="stroke:#000000;stroke-width:0.8;" x="72" xlink:href="#m49651f821a" y="123.857119"/>
      </g>
     </g>
     <g id="text_13">
      <!-- 260 -->
      <g transform="translate(45.9125 127.656337)scale(0.1 -0.1)">
       <use xlink:href="#DejaVuSans-32"/>
       <use x="63.623047" xlink:href="#DejaVuSans-36"/>
       <use x="127.246094" xlink:href="#DejaVuSans-30"/>
      </g>
     </g>
    </g>
    <g id="text_14">
     <!-- L_b_corr [dB] -->
     <g transform="translate(39.554687 323.7675)rotate(-90)scale(0.1 -0.1)">
      <defs>
       <path d="M 628 4666 
L 1259 4666 
L 1259 531 
L 3531 531 
L 3531 0 
L 628 0 
L 628 4666 
z
" id="DejaVuSans-4c" transform="scale(0.015625)"/>
       <path d="M 3263 -1063 
L 3263 -1509 
L -63 -1509 
L -63 -1063 
L 3263 -1063 
z
" id="DejaVuSans-5f" transform="scale(0.015625)"/>
       <path d="M 3116 1747 
Q 3116 2381 2855 2742 
Q 2594 3103 2138 3103 
Q 1681 3103 1420 2742 
Q 1159 2381 1159 1747 
Q 1159 1113 1420 752 
Q 1681 391 2138 391 
Q 2594 391 2855 752 
Q 3116 1113 3116 1747 
z
M 1159 2969 
Q 1341 3281 1617 3432 
Q 1894 3584 2278 3584 
Q 2916 3584 3314 3078 
Q 3713 2572 3713 1747 
Q 3713 922 3314 415 
Q 2916 -91 2278 -91 
Q 1894 -91 1617 61 
Q 1341 213 1159 525 
L 1159 0 
L 581 0 
L 581 4863 
L 1159 4863 
L 1159 2969 
z
" id="DejaVuSans-62" transform="scale(0.015625)"/>
       <path d="M 1959 3097 
Q 1497 3097 1228 2736 
Q 959 2375 959 1747 
Q 959 1119 1226 758 
Q 1494 397 1959 397 
Q 2419 397 2687 759 
Q 2956 1122 2956 1747 
Q 2956 2369 2687 2733 
Q 2419 3097 1959 3097 
z
M 1959 3584 
Q 2709 3584 3137 3096 
Q 3566 2609 3566 1747 
Q 3566 888 3137 398 
Q 2709 -91 1959 -91 
Q 1206 -91 779 398 
Q 353 888 353 1747 
Q 353 2609 779 3096 
Q 1206 3584 1959 3584 
z
" id="DejaVuSans-6f" transform="scale(0.015625)"/>
       <path d="M 2906 2969 
L 2906 4863 
L 3481 4863 
L 3481 0 
L 2906 0 
L 2906 525 
Q 2725 213 2448 61 
Q 2172 -91 1784 -91 
Q 1150 -91 751 415 
Q 353 922 353 1747 
Q 353 2572 751 3078 
Q 1150 3584 1784 3584 
Q 2172 3584 2448 3432 
Q 2725 3281 2906 2969 
z
M 947 1747 
Q 947 1113 1208 752 
Q 1469 391 1925 391 
Q 2381 391 2643 752 
Q 2906 1113 2906 1747 
Q 2906 2381 2643 2742 
Q 2381 3103 1925 3103 
Q 1469 3103 1208 2742 
Q 947 2381 947 1747 
z
" id="DejaVuSans-64" transform="scale(0.015625)"/>
       <path d="M 1259 2228 
L 1259 519 
L 2272 519 
Q 2781 519 3026 730 
Q 3272 941 3272 1375 
Q 3272 1813 3026 2020 
Q 2781 2228 2272 2228 
L 1259 2228 
z
M 1259 4147 
L 1259 2741 
L 2194 2741 
Q 2656 2741 2882 2914 
Q 3109 3088 3109 3444 
Q 3109 3797 2882 3972 
Q 2656 4147 2194 4147 
L 1259 4147 
z
M 628 4666 
L 2241 4666 
Q 2963 4666 3353 4366 
Q 3744 4066 3744 3513 
Q 3744 3084 3544 2831 
Q 3344 2578 2956 2516 
Q 3422 2416 3680 2098 
Q 3938 1781 3938 1306 
Q 3938 681 3513 340 
Q 3088 0 2303 0 
L 628 0 
L 628 4666 
z
" id="DejaVuSans-42" transform="scale(0.015625)"/>
      </defs>
      <use xlink:href="#DejaVuSans-4c"/>
      <use x="55.712891" xlink:href="#DejaVuSans-5f"/>
      <use x="105.712891" xlink:href="#DejaVuSans-62"/>
      <use x="169.189453" xlink:href="#DejaVuSans-5f"/>
      <use x="219.189453" xlink:href="#DejaVuSans-63"/>
      <use x="274.169922" xlink:href="#DejaVuSans-6f"/>
      <use x="335.351562" xlink:href="#DejaVuSans-72"/>
      <use x="374.714844" xlink:href="#DejaVuSans-72"/>
      <use x="415.828125" xlink:href="#DejaVuSans-20"/>
      <use x="447.615234" xlink:href="#DejaVuSans-5b"/>
      <use x="486.628906" xlink:href="#DejaVuSans-64"/>
      <use x="550.105469" xlink:href="#DejaVuSans-42"/>
      <use x="618.708984" xlink:href="#DejaVuSans-5d"/>
     </g>
    </g>
   </g>
   <g id="line2d_61">
    <path clip-path="url(#pd328dcc45c)" d="M 72 492.48 
L 76.509091 492.37328 
L 81.018182 492.26656 
L 85.527273 492.159841 
L 90.036364 492.053121 
L 94.545455 491.946401 
L 99.054545 491.839681 
L 103.563636 491.732962 
L 108.072727 491.626242 
L 112.581818 491.519522 
L 117.090909 491.412802 
L 121.6 491.306082 
L 126.109091 491.199363 
L 130.618182 491.092643 
L 135.127273 490.985923 
L 139.636364 490.879203 
L 144.145455 490.772484 
L 148.654545 490.665764 
L 153.163636 490.559044 
L 157.672727 490.452324 
L 162.181818 490.345604 
L 166.690909 490.238885 
L 171.2 490.132165 
L 175.709091 490.025445 
L 180.218182 489.918725 
L 184.727273 489.812006 
L 189.236364 489.705286 
L 193.745455 489.598566 
L 198.254545 489.491846 
L 202.763636 489.385126 
L 207.272727 489.278407 
L 211.781818 489.171687 
L 216.290909 489.064967 
L 220.8 488.958247 
L 225.309091 488.851528 
L 229.818182 488.744808 
L 234.327273 488.638088 
L 238.836364 488.531368 
L 243.345455 488.424648 
L 247.854545 488.317929 
L 252.363636 488.211209 
L 256.872727 488.104489 
L 261.381818 487.997769 
L 265.890909 487.89105 
L 270.4 487.78433 
L 274.909091 487.67761 
L 279.418182 487.57089 
L 283.927273 487.46417 
L 288.436364 487.357451 
L 292.945455 487.250731 
L 297.454545 487.144011 
L 301.963636 487.037291 
L 306.472727 486.930572 
L 310.981818 486.823852 
L 315.490909 486.717132 
L 320 486.610412 
L 324.509091 486.503693 
L 329.018182 486.396973 
L 333.527273 486.290253 
L 338.036364 486.183533 
L 342.545455 486.076813 
L 347.054545 485.970094 
L 351.563636 485.863374 
L 356.072727 485.756654 
L 360.581818 485.649934 
L 365.090909 485.543215 
L 369.6 485.436495 
L 374.109091 485.329775 
L 378.618182 485.223055 
L 383.127273 485.116335 
L 387.636364 485.000273 
L 392.145455 484.87927 
L 396.654545 484.758017 
L 401.163636 484.636502 
L 405.672727 484.514709 
L 410.181818 484.392625 
L 414.690909 484.270232 
L 419.2 484.147513 
L 423.709091 484.024448 
L 428.218182 483.901015 
L 432.727273 483.77719 
L 437.236364 483.652947 
L 441.745455 483.528256 
L 446.254545 483.403084 
L 450.763636 483.277393 
L 455.272727 483.151141 
L 459.781818 483.024281 
L 464.290909 482.896756 
L 468.8 482.768504 
L 473.309091 482.639452 
L 477.818182 482.509512 
L 482.327273 482.378583 
L 486.836364 482.246542 
L 491.345455 482.113242 
L 495.854545 481.9785 
L 500.363636 481.842087 
L 504.872727 481.703714 
L 509.381818 481.562998 
L 513.890909 481.419429 
L 518.4 481.27229 
" style="fill:none;stroke:#1f77b4;stroke-linecap:square;stroke-width:1.5;"/>
   </g>
   <g id="line2d_62">
    <path clip-path="url(#pd328dcc45c)" d="M 72 400.537726 
L 76.509091 400.431006 
L 81.018182 400.324287 
L 85.527273 400.217567 
L 90.036364 400.110847 
L 94.545455 400.004127 
L 99.054545 399.897407 
L 103.563636 399.790688 
L 108.072727 399.683968 
L 112.581818 399.577248 
L 117.090909 399.470528 
L 121.6 399.363808 
L 126.109091 399.257089 
L 130.618182 399.150369 
L 135.127273 399.043649 
L 139.636364 398.936929 
L 144.145455 398.83021 
L 148.654545 398.72349 
L 153.163636 398.61677 
L 157.672727 398.51005 
L 162.181818 398.40333 
L 166.690909 398.296611 
L 171.2 398.189891 
L 175.709091 398.083171 
L 180.218182 397.976451 
L 184.727273 397.869732 
L 189.236364 397.763012 
L 193.745455 397.656292 
L 198.254545 397.549572 
L 202.763636 397.442852 
L 207.272727 397.336133 
L 211.781818 397.229413 
L 216.290909 397.122693 
L 220.8 397.015973 
L 225.309091 396.909254 
L 229.818182 396.802534 
L 234.327273 396.695814 
L 238.836364 396.589094 
L 243.345455 396.482375 
L 247.854545 396.375655 
L 252.363636 396.268935 
L 256.872727 396.162215 
L 261.381818 396.055495 
L 265.890909 395.948776 
L 270.4 395.842056 
L 274.909091 395.735336 
L 279.418182 395.628616 
L 283.927273 395.521897 
L 288.436364 395.415177 
L 292.945455 395.308457 
L 297.454545 395.201737 
L 301.963636 395.095017 
L 306.472727 394.988298 
L 310.981818 394.881578 
L 315.490909 394.774858 
L 320 394.668138 
L 324.509091 394.561419 
L 329.018182 394.454699 
L 333.527273 394.347979 
L 338.036364 394.241259 
L 342.545455 394.134539 
L 347.054545 394.02782 
L 351.563636 393.9211 
L 356.072727 393.81438 
L 360.581818 393.70766 
L 365.090909 393.600941 
L 369.6 393.494221 
L 374.109091 393.387501 
L 378.618182 393.280781 
L 383.127273 393.174062 
L 387.636364 393.058071 
L 392.145455 392.937179 
L 396.654545 392.816038 
L 401.163636 392.694636 
L 405.672727 392.57296 
L 410.181818 392.450994 
L 414.690909 392.328723 
L 419.2 392.206127 
L 423.709091 392.083188 
L 428.218182 391.959884 
L 432.727273 391.836192 
L 437.236364 391.712084 
L 441.745455 391.587532 
L 446.254545 391.462502 
L 450.763636 391.336957 
L 455.272727 391.210856 
L 459.781818 391.084151 
L 464.290909 390.956787 
L 468.8 390.828701 
L 473.309091 390.699821 
L 477.818182 390.570061 
L 482.327273 390.439318 
L 486.836364 390.307473 
L 491.345455 390.174378 
L 495.854545 390.039852 
L 500.363636 389.903669 
L 504.872727 389.76554 
L 509.381818 389.625086 
L 513.890909 389.481801 
L 518.4 389.334974 
" style="fill:none;stroke:#ff7f0e;stroke-linecap:square;stroke-width:1.5;"/>
   </g>
   <g id="line2d_63">
    <path clip-path="url(#pd328dcc45c)" d="M 72 347.180897 
L 76.509091 347.074177 
L 81.018182 346.967457 
L 85.527273 346.860737 
L 90.036364 346.754018 
L 94.545455 346.647298 
L 99.054545 346.540578 
L 103.563636 346.433858 
L 108.072727 346.327138 
L 112.581818 346.220419 
L 117.090909 346.113699 
L 121.6 346.006979 
L 126.109091 345.900259 
L 130.618182 345.79354 
L 135.127273 345.68682 
L 139.636364 345.5801 
L 144.145455 345.47338 
L 148.654545 345.36666 
L 153.163636 345.259941 
L 157.672727 345.153221 
L 162.181818 345.046501 
L 166.690909 344.939781 
L 171.2 344.833062 
L 175.709091 344.726342 
L 180.218182 344.619622 
L 184.727273 344.512902 
L 189.236364 344.406182 
L 193.745455 344.299463 
L 198.254545 344.192743 
L 202.763636 344.086023 
L 207.272727 343.979303 
L 211.781818 343.872584 
L 216.290909 343.765864 
L 220.8 343.659144 
L 225.309091 343.552424 
L 229.818182 343.445704 
L 234.327273 343.338985 
L 238.836364 343.232265 
L 243.345455 343.125545 
L 247.854545 343.018825 
L 252.363636 342.912106 
L 256.872727 342.805386 
L 261.381818 342.698666 
L 265.890909 342.591946 
L 270.4 342.485227 
L 274.909091 342.378507 
L 279.418182 342.271787 
L 283.927273 342.165067 
L 288.436364 342.058347 
L 292.945455 341.951628 
L 297.454545 341.844908 
L 301.963636 341.738188 
L 306.472727 341.631468 
L 310.981818 341.524749 
L 315.490909 341.418029 
L 320 341.311309 
L 324.509091 341.204589 
L 329.018182 341.097869 
L 333.527273 340.99115 
L 338.036364 340.88443 
L 342.545455 340.77771 
L 347.054545 340.67099 
L 351.563636 340.564271 
L 356.072727 340.457551 
L 360.581818 340.350831 
L 365.090909 340.244111 
L 369.6 340.137391 
L 374.109091 340.030672 
L 378.618182 339.923952 
L 383.127273 339.817232 
L 387.636364 339.701261 
L 392.145455 339.5804 
L 396.654545 339.45929 
L 401.163636 339.33792 
L 405.672727 339.216276 
L 410.181818 339.094343 
L 414.690909 338.972105 
L 419.2 338.849543 
L 423.709091 338.726639 
L 428.218182 338.603371 
L 432.727273 338.479715 
L 437.236364 338.355644 
L 441.745455 338.23113 
L 446.254545 338.10614 
L 450.763636 337.980636 
L 455.272727 337.854576 
L 459.781818 337.727914 
L 464.290909 337.600594 
L 468.8 337.472555 
L 473.309091 337.343722 
L 477.818182 337.214011 
L 482.327273 337.083321 
L 486.836364 336.95153 
L 491.345455 336.818491 
L 495.854545 336.684025 
L 500.363636 336.547905 
L 504.872727 336.409843 
L 509.381818 336.269463 
L 513.890909 336.126256 
L 518.4 335.979515 
" style="fill:none;stroke:#2ca02c;stroke-linecap:square;stroke-width:1.5;"/>
   </g>
   <g id="line2d_64">
    <path clip-path="url(#pd328dcc45c)" d="M 72 317.881238 
L 76.509091 317.774518 
L 81.018182 317.667799 
L 85.527273 317.561079 
L 90.036364 317.454359 
L 94.545455 317.347639 
L 99.054545 317.240919 
L 103.563636 317.1342 
L 108.072727 317.02748 
L 112.581818 316.92076 
L 117.090909 316.81404 
L 121.6 316.70732 
L 126.109091 316.600601 
L 130.618182 316.493881 
L 135.127273 316.387161 
L 139.636364 316.280441 
L 144.145455 316.173721 
L 148.654545 316.067002 
L 153.163636 315.960282 
L 157.672727 315.853562 
L 162.181818 315.746842 
L 166.690909 315.640123 
L 171.2 315.533403 
L 175.709091 315.426683 
L 180.218182 315.319963 
L 184.727273 315.213243 
L 189.236364 315.106524 
L 193.745455 314.999804 
L 198.254545 314.893084 
L 202.763636 314.786364 
L 207.272727 314.679645 
L 211.781818 314.572925 
L 216.290909 314.466205 
L 220.8 314.359485 
L 225.309091 314.252765 
L 229.818182 314.146046 
L 234.327273 314.039326 
L 238.836364 313.932606 
L 243.345455 313.825886 
L 247.854545 313.719167 
L 252.363636 313.612447 
L 256.872727 313.505727 
L 261.381818 313.399007 
L 265.890909 313.292287 
L 270.4 313.185568 
L 274.909091 313.078848 
L 279.418182 312.972128 
L 283.927273 312.865408 
L 288.436364 312.758689 
L 292.945455 312.651969 
L 297.454545 312.545249 
L 301.963636 312.438529 
L 306.472727 312.331809 
L 310.981818 312.22509 
L 315.490909 312.11837 
L 320 312.01165 
L 324.509091 311.90493 
L 329.018182 311.798211 
L 333.527273 311.691491 
L 338.036364 311.584771 
L 342.545455 311.478051 
L 347.054545 311.371332 
L 351.563636 311.264612 
L 356.072727 311.157892 
L 360.581818 311.051172 
L 365.090909 310.944452 
L 369.6 310.837733 
L 374.109091 310.731013 
L 378.618182 310.624293 
L 383.127273 310.517573 
L 387.636364 310.401617 
L 392.145455 310.280777 
L 396.654545 310.15969 
L 401.163636 310.038343 
L 405.672727 309.916722 
L 410.181818 309.794813 
L 414.690909 309.672598 
L 419.2 309.550062 
L 423.709091 309.427183 
L 428.218182 309.30394 
L 432.727273 309.180311 
L 437.236364 309.056267 
L 441.745455 308.931781 
L 446.254545 308.806819 
L 450.763636 308.681344 
L 455.272727 308.555315 
L 459.781818 308.428683 
L 464.290909 308.301396 
L 468.8 308.173389 
L 473.309091 308.044591 
L 477.818182 307.914916 
L 482.327273 307.784263 
L 486.836364 307.652511 
L 491.345455 307.519513 
L 495.854545 307.38509 
L 500.363636 307.249016 
L 504.872727 307.111003 
L 509.381818 306.970675 
L 513.890909 306.827525 
L 518.4 306.680847 
" style="fill:none;stroke:#d62728;stroke-linecap:square;stroke-width:1.5;"/>
   </g>
   <g id="line2d_65">
    <path clip-path="url(#pd328dcc45c)" d="M 72 279.210817 
L 76.509091 279.104097 
L 81.018182 278.997377 
L 85.527273 278.890657 
L 90.036364 278.783938 
L 94.545455 278.677218 
L 99.054545 278.570498 
L 103.563636 278.463778 
L 108.072727 278.357058 
L 112.581818 278.250338 
L 117.090909 278.143619 
L 121.6 278.036899 
L 126.109091 277.930179 
L 130.618182 277.823459 
L 135.127273 277.716739 
L 139.636364 277.610019 
L 144.145455 277.5033 
L 148.654545 277.39658 
L 153.163636 277.28986 
L 157.672727 277.18314 
L 162.181818 277.07642 
L 166.690909 276.969701 
L 171.2 276.862981 
L 175.709091 276.756261 
L 180.218182 276.649541 
L 184.727273 276.542821 
L 189.236364 276.436102 
L 193.745455 276.329382 
L 198.254545 276.222662 
L 202.763636 276.115942 
L 207.272727 276.009223 
L 211.781818 275.902503 
L 216.290909 275.795783 
L 220.8 275.689063 
L 225.309091 275.582343 
L 229.818182 275.475624 
L 234.327273 275.368904 
L 238.836364 275.262184 
L 243.345455 275.155464 
L 247.854545 275.048745 
L 252.363636 274.942025 
L 256.872727 274.835305 
L 261.381818 274.728585 
L 265.890909 274.621865 
L 270.4 274.515146 
L 274.909091 274.408426 
L 279.418182 274.301706 
L 283.927273 274.194986 
L 288.436364 274.088267 
L 292.945455 273.981547 
L 297.454545 273.874827 
L 301.963636 273.768107 
L 306.472727 273.661387 
L 310.981818 273.554668 
L 315.490909 273.447948 
L 320 273.341228 
L 324.509091 273.234508 
L 329.018182 273.127789 
L 333.527273 273.021069 
L 338.036364 272.914349 
L 342.545455 272.807629 
L 347.054545 272.700909 
L 351.563636 272.59419 
L 356.072727 272.48747 
L 360.581818 272.38075 
L 365.090909 272.27403 
L 369.6 272.167311 
L 374.109091 272.060591 
L 378.618182 271.953871 
L 383.127273 271.847151 
L 387.636364 271.731208 
L 392.145455 271.610387 
L 396.654545 271.48932 
L 401.163636 271.367993 
L 405.672727 271.246393 
L 410.181818 271.124505 
L 414.690909 271.002312 
L 419.2 270.879797 
L 423.709091 270.756941 
L 428.218182 270.633721 
L 432.727273 270.510115 
L 437.236364 270.386095 
L 441.745455 270.261634 
L 446.254545 270.136697 
L 450.763636 270.011248 
L 455.272727 269.885246 
L 459.781818 269.758642 
L 464.290909 269.631383 
L 468.8 269.503406 
L 473.309091 269.374638 
L 477.818182 269.244995 
L 482.327273 269.114375 
L 486.836364 268.982657 
L 491.345455 268.849696 
L 495.854545 268.715312 
L 500.363636 268.579278 
L 504.872727 268.441309 
L 509.381818 268.301027 
L 513.890909 268.157928 
L 518.4 268.011305 
" style="fill:none;stroke:#9467bd;stroke-linecap:square;stroke-width:1.5;"/>
   </g>
   <g id="line2d_66">
    <path clip-path="url(#pd328dcc45c)" d="M 72 249.486893 
L 76.509091 249.380173 
L 81.018182 249.273453 
L 85.527273 249.166733 
L 90.036364 249.060013 
L 94.545455 248.953293 
L 99.054545 248.846573 
L 103.563636 248.739853 
L 108.072727 248.633133 
L 112.581818 248.526413 
L 117.090909 248.419693 
L 121.6 248.312973 
L 126.109091 248.206253 
L 130.618182 248.099533 
L 135.127273 247.992813 
L 139.636364 247.886093 
L 144.145455 247.779373 
L 148.654545 247.672653 
L 153.163636 247.565934 
L 157.672727 247.459214 
L 162.181818 247.352494 
L 166.690909 247.245774 
L 171.2 247.139054 
L 175.709091 247.032334 
L 180.218182 246.925615 
L 184.727273 246.818895 
L 189.236364 246.712175 
L 193.745455 246.605455 
L 198.254545 246.498735 
L 202.763636 246.392016 
L 207.272727 246.285296 
L 211.781818 246.178576 
L 216.290909 246.071856 
L 220.8 245.965136 
L 225.309091 245.858417 
L 229.818182 245.751697 
L 234.327273 245.644977 
L 238.836364 245.538257 
L 243.345455 245.431537 
L 247.854545 245.324818 
L 252.363636 245.218098 
L 256.872727 245.111378 
L 261.381818 245.004658 
L 265.890909 244.897938 
L 270.4 244.791219 
L 274.909091 244.684499 
L 279.418182 244.577779 
L 283.927273 244.471059 
L 288.436364 244.36434 
L 292.945455 244.25762 
L 297.454545 244.1509 
L 301.963636 244.04418 
L 306.472727 243.93746 
L 310.981818 243.830741 
L 315.490909 243.724021 
L 320 243.617301 
L 324.509091 243.510581 
L 329.018182 243.403862 
L 333.527273 243.297142 
L 338.036364 243.190422 
L 342.545455 243.083702 
L 347.054545 242.976982 
L 351.563636 242.870263 
L 356.072727 242.763543 
L 360.581818 242.656823 
L 365.090909 242.550103 
L 369.6 242.443384 
L 374.109091 242.336664 
L 378.618182 242.229944 
L 383.127273 242.123224 
L 387.636364 242.007287 
L 392.145455 241.886477 
L 396.654545 241.765419 
L 401.163636 241.644102 
L 405.672727 241.522512 
L 410.181818 241.400635 
L 414.690909 241.278453 
L 419.2 241.155949 
L 423.709091 241.033103 
L 428.218182 240.909895 
L 432.727273 240.7863 
L 437.236364 240.662293 
L 441.745455 240.537844 
L 446.254545 240.412919 
L 450.763636 240.287483 
L 455.272727 240.161494 
L 459.781818 240.034904 
L 464.290909 239.907659 
L 468.8 239.779697 
L 473.309091 239.650945 
L 477.818182 239.521317 
L 482.327273 239.390714 
L 486.836364 239.259013 
L 491.345455 239.12607 
L 495.854545 238.991705 
L 500.363636 238.855692 
L 504.872727 238.717744 
L 509.381818 238.577485 
L 513.890909 238.434411 
L 518.4 238.287815 
" style="fill:none;stroke:#8c564b;stroke-linecap:square;stroke-width:1.5;"/>
   </g>
   <g id="line2d_67">
    <path clip-path="url(#pd328dcc45c)" d="M 72 209.701499 
L 76.509091 209.594776 
L 81.018182 209.488054 
L 85.527273 209.381331 
L 90.036364 209.274609 
L 94.545455 209.167887 
L 99.054545 209.061165 
L 103.563636 208.954444 
L 108.072727 208.847722 
L 112.581818 208.741001 
L 117.090909 208.63428 
L 121.6 208.527558 
L 126.109091 208.420837 
L 130.618182 208.314116 
L 135.127273 208.207396 
L 139.636364 208.100675 
L 144.145455 207.993954 
L 148.654545 207.887234 
L 153.163636 207.780513 
L 157.672727 207.673793 
L 162.181818 207.567072 
L 166.690909 207.460352 
L 171.2 207.353631 
L 175.709091 207.246911 
L 180.218182 207.140191 
L 184.727273 207.033471 
L 189.236364 206.926751 
L 193.745455 206.82003 
L 198.254545 206.71331 
L 202.763636 206.60659 
L 207.272727 206.49987 
L 211.781818 206.39315 
L 216.290909 206.28643 
L 220.8 206.17971 
L 225.309091 206.07299 
L 229.818182 205.96627 
L 234.327273 205.85955 
L 238.836364 205.75283 
L 243.345455 205.646111 
L 247.854545 205.539391 
L 252.363636 205.432671 
L 256.872727 205.325951 
L 261.381818 205.219231 
L 265.890909 205.112511 
L 270.4 205.005791 
L 274.909091 204.899071 
L 279.418182 204.792352 
L 283.927273 204.685632 
L 288.436364 204.578912 
L 292.945455 204.472192 
L 297.454545 204.365472 
L 301.963636 204.258752 
L 306.472727 204.152033 
L 310.981818 204.045313 
L 315.490909 203.938593 
L 320 203.831873 
L 324.509091 203.725153 
L 329.018182 203.618434 
L 333.527273 203.511714 
L 338.036364 203.404994 
L 342.545455 203.298274 
L 347.054545 203.191555 
L 351.563636 203.084835 
L 356.072727 202.978115 
L 360.581818 202.871395 
L 365.090909 202.764675 
L 369.6 202.657956 
L 374.109091 202.551236 
L 378.618182 202.444516 
L 383.127273 202.337796 
L 387.636364 202.221863 
L 392.145455 202.10106 
L 396.654545 201.980009 
L 401.163636 201.858699 
L 405.672727 201.737117 
L 410.181818 201.615246 
L 414.690909 201.493071 
L 419.2 201.370575 
L 423.709091 201.247737 
L 428.218182 201.124537 
L 432.727273 201.000951 
L 437.236364 200.876952 
L 441.745455 200.752511 
L 446.254545 200.627595 
L 450.763636 200.502168 
L 455.272727 200.376188 
L 459.781818 200.249608 
L 464.290909 200.122373 
L 468.8 199.994421 
L 473.309091 199.865679 
L 477.818182 199.736062 
L 482.327273 199.60547 
L 486.836364 199.473782 
L 491.345455 199.340852 
L 495.854545 199.206499 
L 500.363636 199.0705 
L 504.872727 198.932567 
L 509.381818 198.792325 
L 513.890909 198.649268 
L 518.4 198.502692 
" style="fill:none;stroke:#e377c2;stroke-linecap:square;stroke-width:1.5;"/>
   </g>
   <g id="line2d_68">
    <path clip-path="url(#pd328dcc45c)" d="M 72 140.474492 
L 76.509091 140.367742 
L 81.018182 140.260995 
L 85.527273 140.154249 
L 90.036364 140.047505 
L 94.545455 139.940763 
L 99.054545 139.834023 
L 103.563636 139.727284 
L 108.072727 139.620547 
L 112.581818 139.513811 
L 117.090909 139.407077 
L 121.6 139.300343 
L 126.109091 139.193611 
L 130.618182 139.08688 
L 135.127273 138.980149 
L 139.636364 138.873419 
L 144.145455 138.766691 
L 148.654545 138.659963 
L 153.163636 138.553235 
L 157.672727 138.446508 
L 162.181818 138.339782 
L 166.690909 138.233056 
L 171.2 138.126331 
L 175.709091 138.019606 
L 180.218182 137.912882 
L 184.727273 137.806158 
L 189.236364 137.699434 
L 193.745455 137.592711 
L 198.254545 137.485988 
L 202.763636 137.379265 
L 207.272727 137.272542 
L 211.781818 137.16582 
L 216.290909 137.059098 
L 220.8 136.952376 
L 225.309091 136.845654 
L 229.818182 136.738933 
L 234.327273 136.632211 
L 238.836364 136.52549 
L 243.345455 136.418769 
L 247.854545 136.312048 
L 252.363636 136.205327 
L 256.872727 136.098606 
L 261.381818 135.991886 
L 265.890909 135.885165 
L 270.4 135.778445 
L 274.909091 135.671724 
L 279.418182 135.565004 
L 283.927273 135.458283 
L 288.436364 135.351563 
L 292.945455 135.244843 
L 297.454545 135.138123 
L 301.963636 135.031402 
L 306.472727 134.924682 
L 310.981818 134.817962 
L 315.490909 134.711242 
L 320 134.604522 
L 324.509091 134.497802 
L 329.018182 134.391082 
L 333.527273 134.284362 
L 338.036364 134.177642 
L 342.545455 134.070922 
L 347.054545 133.964202 
L 351.563636 133.857482 
L 356.072727 133.750762 
L 360.581818 133.644043 
L 365.090909 133.537323 
L 369.6 133.430603 
L 374.109091 133.323883 
L 378.618182 133.217163 
L 383.127273 133.110443 
L 387.636364 132.994514 
L 392.145455 132.873716 
L 396.654545 132.752672 
L 401.163636 132.631368 
L 405.672727 132.509791 
L 410.181818 132.387927 
L 414.690909 132.265759 
L 419.2 132.143269 
L 423.709091 132.020438 
L 428.218182 131.897245 
L 432.727273 131.773665 
L 437.236364 131.649673 
L 441.745455 131.52524 
L 446.254545 131.400332 
L 450.763636 131.274913 
L 455.272727 131.148941 
L 459.781818 131.022369 
L 464.290909 130.895142 
L 468.8 130.767199 
L 473.309091 130.638466 
L 477.818182 130.508859 
L 482.327273 130.378277 
L 486.836364 130.246599 
L 491.345455 130.11368 
L 495.854545 129.979339 
L 500.363636 129.843352 
L 504.872727 129.705432 
L 509.381818 129.565203 
L 513.890909 129.422162 
L 518.4 129.275602 
" style="fill:none;stroke:#7f7f7f;stroke-linecap:square;stroke-width:1.5;"/>
   </g>
   <g id="line2d_69">
    <path clip-path="url(#pd328dcc45c)" d="M 72 100.556055 
L 76.509091 100.443249 
L 81.018182 100.330897 
L 85.527273 100.218969 
L 90.036364 100.107433 
L 94.545455 99.996262 
L 99.054545 99.885428 
L 103.563636 99.774909 
L 108.072727 99.664681 
L 112.581818 99.554722 
L 117.090909 99.445013 
L 121.6 99.335536 
L 126.109091 99.226273 
L 130.618182 99.117209 
L 135.127273 99.008329 
L 139.636364 98.899618 
L 144.145455 98.791065 
L 148.654545 98.682658 
L 153.163636 98.574385 
L 157.672727 98.466236 
L 162.181818 98.358201 
L 166.690909 98.250273 
L 171.2 98.142443 
L 175.709091 98.034703 
L 180.218182 97.927046 
L 184.727273 97.819466 
L 189.236364 97.711957 
L 193.745455 97.604513 
L 198.254545 97.497129 
L 202.763636 97.3898 
L 207.272727 97.282523 
L 211.781818 97.175292 
L 216.290909 97.068105 
L 220.8 96.960957 
L 225.309091 96.853846 
L 229.818182 96.746768 
L 234.327273 96.639721 
L 238.836364 96.532702 
L 243.345455 96.42571 
L 247.854545 96.318741 
L 252.363636 96.211794 
L 256.872727 96.104867 
L 261.381818 95.997958 
L 265.890909 95.891066 
L 270.4 95.78419 
L 274.909091 95.677328 
L 279.418182 95.570478 
L 283.927273 95.463641 
L 288.436364 95.356814 
L 292.945455 95.249997 
L 297.454545 95.143189 
L 301.963636 95.036389 
L 306.472727 94.929597 
L 310.981818 94.822811 
L 315.490909 94.716032 
L 320 94.609258 
L 324.509091 94.50249 
L 329.018182 94.395726 
L 333.527273 94.288967 
L 338.036364 94.182211 
L 342.545455 94.075459 
L 347.054545 93.96871 
L 351.563636 93.861964 
L 356.072727 93.755221 
L 360.581818 93.64848 
L 365.090909 93.541741 
L 369.6 93.435005 
L 374.109091 93.32827 
L 378.618182 93.221536 
L 383.127273 93.114804 
L 387.636364 92.998866 
L 392.145455 92.878062 
L 396.654545 92.757012 
L 401.163636 92.635703 
L 405.672727 92.514123 
L 410.181818 92.392255 
L 414.690909 92.270085 
L 419.2 92.147594 
L 423.709091 92.024762 
L 428.218182 91.901568 
L 432.727273 91.777989 
L 437.236364 91.653997 
L 441.745455 91.529565 
L 446.254545 91.404658 
L 450.763636 91.279241 
L 455.272727 91.153271 
L 459.781818 91.026701 
L 464.290909 90.899478 
L 468.8 90.771538 
L 473.309091 90.642809 
L 477.818182 90.513205 
L 482.327273 90.382627 
L 486.836364 90.250954 
L 491.345455 90.118039 
L 495.854545 89.983704 
L 500.363636 89.847722 
L 504.872727 89.709808 
L 509.381818 89.569586 
L 513.890909 89.426552 
L 518.4 89.28 
" style="fill:none;stroke:#bcbd22;stroke-linecap:square;stroke-width:1.5;"/>
   </g>
   <g id="patch_3">
    <path d="M 72 512.64 
L 72 69.12 
" style="fill:none;stroke:#000000;stroke-linecap:square;stroke-linejoin:miter;stroke-width:0.8;"/>
   </g>
   <g id="patch_4">
    <path d="M 518.4 512.64 
L 518.4 69.12 
" style="fill:none;stroke:#000000;stroke-linecap:square;stroke-linejoin:miter;stroke-width:0.8;"/>
   </g>
   <g id="patch_5">
    <path d="M 72 512.64 
L 518.4 512.64 
" style="fill:none;stroke:#000000;stroke-linecap:square;stroke-linejoin:miter;stroke-width:0.8;"/>
   </g>
   <g id="patch_6">
    <path d="M 72 69.12 
L 518.4 69.12 
" style="fill:none;stroke:#000000;stroke-linecap:square;stroke-linejoin:miter;stroke-width:0.8;"/>
   </g>
   <g id="text_15">
    <!-- 0.1 GHz -->
    <g style="fill:#1f77b4;" transform="translate(100.597712 502.657536)scale(0.1 -0.1)">
     <defs>
      <path d="M 684 794 
L 1344 794 
L 1344 0 
L 684 0 
L 684 794 
z
" id="DejaVuSans-2e" transform="scale(0.015625)"/>
      <path d="M 3809 666 
L 3809 1919 
L 2778 1919 
L 2778 2438 
L 4434 2438 
L 4434 434 
Q 4069 175 3628 42 
Q 3188 -91 2688 -91 
Q 1594 -91 976 548 
Q 359 1188 359 2328 
Q 359 3472 976 4111 
Q 1594 4750 2688 4750 
Q 3144 4750 3555 4637 
Q 3966 4525 4313 4306 
L 4313 3634 
Q 3963 3931 3569 4081 
Q 3175 4231 2741 4231 
Q 1884 4231 1454 3753 
Q 1025 3275 1025 2328 
Q 1025 1384 1454 906 
Q 1884 428 2741 428 
Q 3075 428 3337 486 
Q 3600 544 3809 666 
z
" id="DejaVuSans-47" transform="scale(0.015625)"/>
      <path d="M 628 4666 
L 1259 4666 
L 1259 2753 
L 3553 2753 
L 3553 4666 
L 4184 4666 
L 4184 0 
L 3553 0 
L 3553 2222 
L 1259 2222 
L 1259 0 
L 628 0 
L 628 4666 
z
" id="DejaVuSans-48" transform="scale(0.015625)"/>
      <path d="M 353 3500 
L 3084 3500 
L 3084 2975 
L 922 459 
L 3084 459 
L 3084 0 
L 275 0 
L 275 525 
L 2438 3041 
L 353 3041 
L 353 3500 
z
" id="DejaVuSans-7a" transform="scale(0.015625)"/>
     </defs>
     <use xlink:href="#DejaVuSans-30"/>
     <use x="63.623047" xlink:href="#DejaVuSans-2e"/>
     <use x="95.410156" xlink:href="#DejaVuSans-31"/>
     <use x="159.033203" xlink:href="#DejaVuSans-20"/>
     <use x="190.820312" xlink:href="#DejaVuSans-47"/>
     <use x="268.310547" xlink:href="#DejaVuSans-48"/>
     <use x="343.505859" xlink:href="#DejaVuSans-7a"/>
    </g>
   </g>
   <g id="text_16">
    <!-- 0.5 GHz -->
    <g style="fill:#ff7f0e;" transform="translate(100.597712 410.715262)scale(0.1 -0.1)">
     <defs>
      <path d="M 691 4666 
L 3169 4666 
L 3169 4134 
L 1269 4134 
L 1269 2991 
Q 1406 3038 1543 3061 
Q 1681 3084 1819 3084 
Q 2600 3084 3056 2656 
Q 3513 2228 3513 1497 
Q 3513 744 3044 326 
Q 2575 -91 1722 -91 
Q 1428 -91 1123 -41 
Q 819 9 494 109 
L 494 744 
Q 775 591 1075 516 
Q 1375 441 1709 441 
Q 2250 441 2565 725 
Q 2881 1009 2881 1497 
Q 2881 1984 2565 2268 
Q 2250 2553 1709 2553 
Q 1456 2553 1204 2497 
Q 953 2441 691 2322 
L 691 4666 
z
" id="DejaVuSans-35" transform="scale(0.015625)"/>
     </defs>
     <use xlink:href="#DejaVuSans-30"/>
     <use x="63.623047" xlink:href="#DejaVuSans-2e"/>
     <use x="95.410156" xlink:href="#DejaVuSans-35"/>
     <use x="159.033203" xlink:href="#DejaVuSans-20"/>
     <use x="190.820312" xlink:href="#DejaVuSans-47"/>
     <use x="268.310547" xlink:href="#DejaVuSans-48"/>
     <use x="343.505859" xlink:href="#DejaVuSans-7a"/>
    </g>
   </g>
   <g id="text_17">
    <!-- 1.0 GHz -->
    <g style="fill:#2ca02c;" transform="translate(100.597712 357.358433)scale(0.1 -0.1)">
     <use xlink:href="#DejaVuSans-31"/>
     <use x="63.623047" xlink:href="#DejaVuSans-2e"/>
     <use x="95.410156" xlink:href="#DejaVuSans-30"/>
     <use x="159.033203" xlink:href="#DejaVuSans-20"/>
     <use x="190.820312" xlink:href="#DejaVuSans-47"/>
     <use x="268.310547" xlink:href="#DejaVuSans-48"/>
     <use x="343.505859" xlink:href="#DejaVuSans-7a"/>
    </g>
   </g>
   <g id="text_18">
    <!-- 2.0 GHz -->
    <g style="fill:#d62728;" transform="translate(100.597712 328.058774)scale(0.1 -0.1)">
     <use xlink:href="#DejaVuSans-32"/>
     <use x="63.623047" xlink:href="#DejaVuSans-2e"/>
     <use x="95.410156" xlink:href="#DejaVuSans-30"/>
     <use x="159.033203" xlink:href="#DejaVuSans-20"/>
     <use x="190.820312" xlink:href="#DejaVuSans-47"/>
     <use x="268.310547" xlink:href="#DejaVuSans-48"/>
     <use x="343.505859" xlink:href="#DejaVuSans-7a"/>
    </g>
   </g>
   <g id="text_19">
    <!-- 5.0 GHz -->
    <g style="fill:#9467bd;" transform="translate(100.597712 289.388353)scale(0.1 -0.1)">
     <use xlink:href="#DejaVuSans-35"/>
     <use x="63.623047" xlink:href="#DejaVuSans-2e"/>
     <use x="95.410156" xlink:href="#DejaVuSans-30"/>
     <use x="159.033203" xlink:href="#DejaVuSans-20"/>
     <use x="190.820312" xlink:href="#DejaVuSans-47"/>
     <use x="268.310547" xlink:href="#DejaVuSans-48"/>
     <use x="343.505859" xlink:href="#DejaVuSans-7a"/>
    </g>
   </g>
   <g id="text_20">
    <!-- 10.0 GHz -->
    <g style="fill:#8c564b;" transform="translate(100.597712 259.664427)scale(0.1 -0.1)">
     <use xlink:href="#DejaVuSans-31"/>
     <use x="63.623047" xlink:href="#DejaVuSans-30"/>
     <use x="127.246094" xlink:href="#DejaVuSans-2e"/>
     <use x="159.033203" xlink:href="#DejaVuSans-30"/>
     <use x="222.65625" xlink:href="#DejaVuSans-20"/>
     <use x="254.443359" xlink:href="#DejaVuSans-47"/>
     <use x="331.933594" xlink:href="#DejaVuSans-48"/>
     <use x="407.128906" xlink:href="#DejaVuSans-7a"/>
    </g>
   </g>
   <g id="text_21">
    <!-- 20.0 GHz -->
    <g style="fill:#e377c2;" transform="translate(100.597712 219.87902)scale(0.1 -0.1)">
     <use xlink:href="#DejaVuSans-32"/>
     <use x="63.623047" xlink:href="#DejaVuSans-30"/>
     <use x="127.246094" xlink:href="#DejaVuSans-2e"/>
     <use x="159.033203" xlink:href="#DejaVuSans-30"/>
     <use x="222.65625" xlink:href="#DejaVuSans-20"/>
     <use x="254.443359" xlink:href="#DejaVuSans-47"/>
     <use x="331.933594" xlink:href="#DejaVuSans-48"/>
     <use x="407.128906" xlink:href="#DejaVuSans-7a"/>
    </g>
   </g>
   <g id="text_22">
    <!-- 50.0 GHz -->
    <g style="fill:#7f7f7f;" transform="translate(100.597712 150.651878)scale(0.1 -0.1)">
     <use xlink:href="#DejaVuSans-35"/>
     <use x="63.623047" xlink:href="#DejaVuSans-30"/>
     <use x="127.246094" xlink:href="#DejaVuSans-2e"/>
     <use x="159.033203" xlink:href="#DejaVuSans-30"/>
     <use x="222.65625" xlink:href="#DejaVuSans-20"/>
     <use x="254.443359" xlink:href="#DejaVuSans-47"/>
     <use x="331.933594" xlink:href="#DejaVuSans-48"/>
     <use x="407.128906" xlink:href="#DejaVuSans-7a"/>
    </g>
   </g>
   <g id="text_23">
    <!-- 100.0 GHz -->
    <g style="fill:#bcbd22;" transform="translate(100.597712 110.703283)scale(0.1 -0.1)">
     <use xlink:href="#DejaVuSans-31"/>
     <use x="63.623047" xlink:href="#DejaVuSans-30"/>
     <use x="127.246094" xlink:href="#DejaVuSans-30"/>
     <use x="190.869141" xlink:href="#DejaVuSans-2e"/>
     <use x="222.65625" xlink:href="#DejaVuSans-30"/>
     <use x="286.279297" xlink:href="#DejaVuSans-20"/>
     <use x="318.066406" xlink:href="#DejaVuSans-47"/>
     <use x="395.556641" xlink:href="#DejaVuSans-48"/>
     <use x="470.751953" xlink:href="#DejaVuSans-7a"/>
    </g>
   </g>
  </g>
 </g>
 <defs>
  <clipPath id="pd328dcc45c">
   <rect height="443.52" width="446.4" x="72" y="69.12"/>
  </clipPath>
 </defs>
</svg>
